<?xml version="1.0" encoding="UTF-8" standalone="no"?>
<!-- Created with Inkscape (http://www.inkscape.org/) -->

<svg
   xmlns:dc="http://purl.org/dc/elements/1.1/"
   xmlns:cc="http://creativecommons.org/ns#"
   xmlns:rdf="http://www.w3.org/1999/02/22-rdf-syntax-ns#"
   xmlns:svg="http://www.w3.org/2000/svg"
   xmlns="http://www.w3.org/2000/svg"
   xmlns:sodipodi="http://sodipodi.sourceforge.net/DTD/sodipodi-0.dtd"
   xmlns:inkscape="http://www.inkscape.org/namespaces/inkscape"
   id="svg2"
   version="1.1"
   inkscape:version="0.48.5 r10040"
   width="369.64999"
   height="487.39999"
   xml:space="preserve"
   sodipodi:docname="fibeamer-mu-fss-light.pdf"><metadata
     id="metadata8"><rdf:RDF><cc:Work
         rdf:about=""><dc:format>image/svg+xml</dc:format><dc:type
           rdf:resource="http://purl.org/dc/dcmitype/StillImage" /><dc:title></dc:title></cc:Work></rdf:RDF></metadata><defs
     id="defs6"><clipPath
       id="clipPath3044"
       clipPathUnits="userSpaceOnUse"><path
         id="path3046"
         d="M 0,3118.1 0,0 l 3118.11,0 0,3118.1 -3118.11,0 z" /></clipPath><clipPath
       id="clipPath3889"
       clipPathUnits="userSpaceOnUse"><path
         id="path3891"
         d="m 0,2909.84 2900,0 0,-2900.00016 -2900,0 L 0,2909.84 z" /></clipPath></defs><sodipodi:namedview
     pagecolor="#ffffff"
     bordercolor="#666666"
     borderopacity="1"
     objecttolerance="10"
     gridtolerance="10"
     guidetolerance="10"
     inkscape:pageopacity="0"
     inkscape:pageshadow="2"
     inkscape:window-width="1280"
     inkscape:window-height="751"
     id="namedview4"
     showgrid="false"
     inkscape:zoom="0.85630196"
     inkscape:cx="263.53324"
     inkscape:cy="240.81221"
     inkscape:window-x="0"
     inkscape:window-y="29"
     inkscape:window-maximized="1"
     inkscape:current-layer="g10"
     fit-margin-top="0"
     fit-margin-left="0"
     fit-margin-right="0"
     fit-margin-bottom="0"
     units="px" /><g
     id="g10"
     inkscape:groupmode="layer"
     inkscape:label="ink_ext_XXXXXX"
     transform="matrix(1.25,0,0,-1.25,-10.030275,432.8007)"><path
       id="path5137"
       style="fill:#00897e;fill-opacity:1;fill-rule:nonzero;stroke:none"
       d="m 217.47801,256.8203 c -10.127,-16.419 -20.16,-32.184 -24.479,-39.546 -7.46,-12.719 0.928,-15.419 0.928,-21.912 0,-4.936 -2.47,-8.024 -6.483,-14.967 -4.012,-6.945 -6.018,-9.721 -13.732,-20.986 -3.83,-5.59 -4.629,-8.334 -4.629,-11.574 0,-3.238 2.22,-5.408 6.018,-7.406 5.862,-3.086 6.943,-4.166 6.943,-6.481 0,-2.931 -2.932,-6.019 -2.932,-9.568 0,-3.547 4.629,-5.092 4.629,-8.178 0,-4.012 -3.086,-5.092 -3.086,-8.178 0,-5.71 8.179,-6.173 8.179,-10.802301 0,-4.166 -3.704,-8.4883 -3.704,-14.8145 0,-5.5546 4.913,-10.7324 19.598,-12.8046 11.338,-1.6016 14.375,-7.586 18.877,-14.6602 31.636,21.5332 52.414,57.833601 52.414,98.989601 0,43.755 -23.49,82.018 -58.541,102.888 z m -92.219,-76.425 c -4.013,6.943 -6.481,10.031 -6.481,14.967 0,6.493 8.386,9.193 0.926,21.912 -4.318,7.362 -14.351,23.127 -24.479503,39.546 -35.0503,-20.87 -58.541,-59.133 -58.541,-102.888 0,-41.156 20.7785,-77.456401 52.4145,-98.989601 4.5027,7.0742 7.539,13.0586 18.877003,14.6602 14.685,2.0722 19.598,7.25 19.598,12.8046 0,6.3262 -3.704,10.6485 -3.704,14.8145 0,4.629301 8.179,5.092301 8.179,10.802301 0,3.086 -3.086,4.166 -3.086,8.178 0,3.086 4.629,4.631 4.629,8.178 0,3.549 -2.931,6.637 -2.931,9.568 0,2.315 1.081,3.395 6.943,6.481 3.797,1.998 6.018,4.168 6.018,7.406 0,3.24 -0.801,5.984 -4.629,11.574 -7.714,11.265 -9.721,14.041 -13.733,20.986 z m 31.093,88.575 c 17.464,0 34.016,-3.901 48.842,-10.864 l 2.463,3.959 c -15.549,7.392 -32.941,11.532 -51.305,11.532 -18.363,0 -35.756,-4.14 -51.305,-11.532 l 2.462,-3.959 c 14.827,6.963 31.378,10.864 48.843,10.864 z m 56.976,-218.560801 c -0.628,0.9961 -1.173,1.8613 -1.679,2.627 -16.41,-9.0137 -35.254,-14.1446 -55.297,-14.1446 -20.043,0 -38.887,5.1309 -55.297,14.1446 -0.506,-0.7657 -1.053,-1.6309 -1.680103,-2.627 l -0.8113,-1.2832 c 17.131403,-9.4688 36.831403,-14.8613 57.788403,-14.8613 20.957,0 40.655,5.3925 57.788,14.8613 l -0.812,1.2832 z M 18.069507,141.6293 c 2.384,0.284 4.5222,-1.399 4.8054,-3.783 0.2856,-2.383 -1.3992,-4.523 -3.7832,-4.806 -2.3828,-0.284 -4.5215,1.4 -4.8054,3.783 -0.284,2.383 1.3996,4.523 3.7832,4.806 z m 11.0195,-15.172 2.2219,-8.979 -1.7485,-0.433 -1.7046,6.892 -5.7153,-1.362 1.6621,-6.722 -1.7461,-0.432 -1.657,6.698 -7.6199,-1.782 -0.5215,2.112 16.8289,4.008 z m 4.05,-14.431 0.6719,-1.937 -13.7578,-12.055001 -1.3657,1.802 4.9914,4.221001 -2.3457,6.754 -6.591,0.384 -0.0652,2.095 18.4621,-1.264 z m -1.5234,-1.561 -0.0161,0.047 -8.3203,0.18 1.8618,-5.36 6.4746,5.133 z m 7.6582,-19.725701 c 0.2847,1.6613 -0.0254,3.0644 -0.7598,4.5976 -1.727,3.6081 -5.8535,4.820101 -9.4621,3.0941 -3.6082,-1.7269 -5.2527,-5.7027 -3.5266,-9.3101 0.6582,-1.3758 1.8457,-2.5254 3.1391,-3.4312 l -1.009,-1.425 c -1.491,1.0324 -2.9656,2.4328 -3.7539,4.0793 -2.2117,4.6226 -0.9387,9.722 4.157,12.161001 4.7817,2.288 9.8672,0.232 12.0793,-4.390701 0.8953,-1.8719 1.136,-3.5313 1.0574,-5.4531 l -1.9214,0.0781 z m 10.6445,-11.9695 -9.1543,-5.6856 c -4.7336,-2.8977 -7.748,-0.6027 -9.5488,2.252 -1.9875,3.1511 -2.1926,6.5679 2.2691,9.3828 1.184,0.7468 2.5078,1.5527 4.0227,2.4785 l 5.1015,3.159 1.1477,-1.8184 -5.4192,-3.3594 c -1.3875,-0.8457 -2.7968,-1.705 -4.1496,-2.5586 -2.6851,-1.6933 -3.0105,-3.8496 -1.3699,-6.4503 1.3328,-2.1141 3.586,-3.295 6.9055,-1.2008 l 9.0476,5.6191 1.1477,-1.8183 z m -12.2426,-12.3801 13.7133,10.5488 1.3262,-1.6934 -12.2961,-9.4382 4.5476,-5.8059 -1.4175,-1.1105 -5.8735,7.4992 z m 17.8403,5.0664 8.7964,-9.7071 -1.3339,-1.2089 -3.6766,4.0578 -11.5867,-10.2969 -1.4438,1.5926 11.5864,10.2969 -3.6758,4.0578 1.334,1.2078 z m 11.991,-12.5711 1.5058,-1.3906 -6.4465,-17.1172 -2.0543,0.9441 2.411,6.0762 -5.2528,4.8496 -5.9945,-2.7688 -1.0445,1.8157 16.8758,7.591 z m -0.6067,-2.0942 -0.0371,0.0344 -7.4219,-3.7637 4.1704,-3.8496 3.2886,7.5789 z m -1.3472,-15.7742 c 0.3281,-1.0968 1.0613,-2.4062 2.157,-3.2363 1.6133,-1.2234 3.4695,-1.0938 4.6316,0.4395 2.6594,3.5058 -4.5039,6.6796 -0.8472,11.5 1.616,2.132 4.4824,2.3117 6.9312,0.4531 1.3559,-1.0274 2.2324,-2.3516 2.8496,-3.8555 l -1.6093,-0.7559 c -0.4082,1.1575 -0.8622,2.254 -2.1571,3.2364 -1.1941,0.9062 -3.1086,1.1965 -4.3777,-0.4766 -2.2961,-3.0281 4.4273,-7.0293 1.1504,-11.3515 -1.5571,-2.0516 -4.4414,-2.8758 -7.4692,-0.5801 -1.5132,1.1484 -2.3218,2.3574 -2.9531,3.966 l 1.6938,0.6609 z m 15.2129,-10.7195 c 0.4668,-1.0449 1.3613,-2.25 2.5542,-2.9336 1.7563,-1.007 3.5801,-0.6406 4.5376,1.0293 2.1882,3.8172 -5.3223,6.0477 -2.3126,11.2969 1.3297,2.3203 4.1485,2.8652 6.8165,1.3359 1.4746,-0.8449 2.5156,-2.0473 3.3203,-3.4582 l -1.5,-0.957 c -0.5532,1.0957 -1.145,2.1261 -2.5539,2.9344 -1.3016,0.746 -3.2364,0.7894 -4.2801,-1.0333 -1.8906,-3.2964 5.291,-6.4043 2.5918,-11.1109 -1.2805,-2.2336 -4.0356,-3.4211 -7.332,-1.5305 -1.6489,0.9446 -2.6055,2.0403 -3.4376,3.5547 l 1.5958,0.8723 z m 15.1843,8.1836 11.893703,-5.4902 -0.754,-1.634 -4.971,2.2941 -6.631603,-14.0101 -1.9519,0.9003 6.631503,14.011 -4.971803,2.2937 0.7551,1.6352 z m 25.397703,-10.084 -3.51,-10.1875 c -1.844,-5.2355 -5.631,-5.3574 -8.829,-4.2805 -3.531,1.1895 -5.847,3.711 -4.162,8.7102 0.446,1.3262 0.965,2.7871 1.556,4.4605 l 1.963,5.6711 2.037,-0.6863 -2.083,-6.0258 c -0.542,-1.532 -1.093,-3.0879 -1.603,-4.6043 -1.014,-3.009 0.095,-4.8855 3.009,-5.8672 2.369,-0.7988 4.86,-0.2929 6.114,3.427 l 3.471,10.0691 2.037,-0.6863 z m 1.931,-0.5141 5.094,-1.0504 c 6.537,-1.3488 8.309,-6.0019 7.455,-10.141 -1.187,-5.7527 -6.029,-7.8178997 -11.513,-6.6863 l -4.676,0.9649 3.64,16.9128 z m -1.202,-15.7312 2.253,-0.4649 c 4.823,-0.9953 8.409,0.6653 9.368,5.3172 0.878,4.2602 -1.52,7.3586 -6.05,8.2934 l -2.595,0.5351 -2.976,-13.6808 z m 17.531,12.7414 2.134,-0.2578 -2.218,-17.1574397 -2.135,0.25703 2.219,17.1582097 z m 3.597,-9.3996 c 0.148,5.2976 4.301,8.8828 9.424,8.739 5.123,-0.1441 9.077,-3.6062 8.918,-9.2546 -0.148,-5.2980997 -4.301,-8.8828497 -9.424,-8.7383197 -5.123,0.14336 -9.077,3.60622 -8.918,9.2539197 z m 2.299,-0.0645 c -0.113,-3.998 2.672,-7.2784997 6.67,-7.3905997 3.998,-0.1121 6.962,3.0058997 7.074,7.0038997 0.112,3.9988 -2.672,7.2781 -6.67,7.3906 -3.998,0.1122 -6.962,-3.0058 -7.074,-7.0039 z m 17.469,8.4563 5.204,0.4746 c 3.26,0.2976 5.629,-1.1684 5.891,-4.0316 0.255,-2.8133 -1.511,-4.6317 -3.897,-5.1754 l 0.005,-0.05 c 1.163,-0.095 2.279,-1.5996 3.081,-2.4043 l 3.878,-4.2656997 -1.787,-1.31832 -4.563,5.1570197 c -1.171,1.2746 -1.809,2.2199 -3.427,2.0727 l -1.369,-0.125 0.572,-7.3781597 -2.165,-0.19804 -1.423,17.2421997 z m 2.841,-8.0254 2.141,0.1953 c 2.116,0.1934 4.236,1.1649 4.01,3.6543 -0.168,1.8426 -1.362,3.3648 -4.15,3.1109 l -2.565,-0.2332 0.564,-6.7273 z m 23.634,12.0215 2.092,-10.5703 c 1.042,-5.4512 -2.169,-7.4628997 -5.475,-8.1417997 -3.649,-0.7492 -6.919,0.2644 -7.98,5.4315997 -0.281,1.3711 -0.568,2.8945 -0.9,4.6387 l -1.157,5.8879 2.105,0.4312 1.233,-6.2547 c 0.302,-1.5965 0.609,-3.2175 0.931,-4.7851 0.638,-3.1106 2.541,-4.1746 5.553,-3.5567 2.449,0.5032 4.348,2.1946 3.558,6.0391 l -2.067,10.4473 2.107,0.4328 z m 3.616,0.9683 2.095,0.7485 9.832,-11.9914 0.386,15.6418 2.189,0.782 8.41,-15.3672 -1.86,-1.0351 -7.05,13.1972 -0.048,-0.0176 -0.2,-15.416 -1.931,-0.6894 -9.593,11.9179 -0.047,-0.0175 2.742,-14.7364 -2.072,-0.3679 -2.853,17.3511 z m 30.212,-3.4566 c 1.137,-0.1379 2.631,0.0098 3.831,0.6812 1.766,0.9883 2.39,2.7415 1.45,4.4211 -2.149,3.8399 -7.924,-1.4543 -10.878,3.8262 -1.306,2.334 -0.323,5.032 2.36,6.5344 1.484,0.8301 3.049,1.1035 4.674,1.0672 l 0.049,-1.7774 c -1.224,0.0891 -2.411,0.1121 -3.83,-0.6816 -1.309,-0.7324 -2.341,-2.3691 -1.316,-4.2024 1.856,-3.3164 8.214,1.2446 10.862,-3.4898 1.259,-2.248 0.859,-5.2207 -2.457,-7.0766 -1.659,-0.9273 -3.09,-1.1843 -4.817,-1.1199 l 0.072,1.8176 z m 6.314,10.3113 c -3.086,4.3098 -1.948,9.6758 2.219,12.6602 4.167,2.9836 9.41,2.6179 12.699,-1.9746 3.087,-4.3094 1.948,-9.6758 -2.218,-12.659 -4.167,-2.9848 -9.41,-2.6192 -12.7,1.9734 z m 1.87,1.3399 c 2.329,-3.252 6.529,-4.1797 9.781,-1.8504 3.252,2.3289 3.727,6.6043 1.398,9.8562 -2.329,3.252 -6.53,4.1797 -9.782,1.8508 -3.252,-2.3293 -3.726,-6.6047 -1.397,-9.8566 z m 19.897,23.7922 c -1.672,-0.218 -2.92,-0.9297 -4.168,-2.084 -2.937,-2.7168 -2.874,-7.0176 -0.159,-9.9543 2.716,-2.9364 7,-3.3328 9.936,-0.6172 1.12,1.0351 1.867,2.5098 2.35,4.0129 l 1.66,-0.5422 c -0.545,-1.7305 -1.448,-3.5527 -2.787,-4.7918 -3.763,-3.4809 -9.01,-3.7715 -12.847,0.3769 -3.599,3.8907 -3.139,9.3563 0.624,12.8368 1.523,1.4082 3.037,2.1281 4.896,2.6218 l 0.495,-1.8589 z m -0.135,4.0593 1.46,1.5782 12.6,-11.8555 -1.461,-1.5781 -12.599,11.8554 z m 6.791,7.834 1.27,1.6094 17.564,-5.1074 -0.783,-2.1211 -6.245,1.9355 -4.429,-5.6125 3.222,-5.7613 -1.729,-1.1828 -8.87,16.2402 z m 2.135,-0.4426 -0.032,-0.0398 4.325,-7.1094 3.517,4.4539 -7.81,2.6953 z m 18.035,-1.4578 -14.471,9.4824 1.163,1.8086 12.956,-8.5097 3.989,6.2043 1.514,-0.9739 -5.151,-8.0117 z m -8.498,19.1485 1.043,1.8789 15.05,-8.5325 -1.043,-1.8796 -15.05,8.5332 z m 8.181,16.844401 9.791,-4.498 c 5.029,-2.350001 4.778,-6.130401 3.39,-9.207801 -1.531,-3.3957 -4.269,-5.4519 -9.077,-3.2832 -1.276,0.575 -2.68,1.2356 -4.287,1.9883 l -5.449,2.5117 0.883,1.9602 5.791,-2.666 c 1.472,-0.6914 2.965,-1.3926 4.424,-2.05 2.894,-1.3055 4.871,-0.3867 6.136,2.416 1.027,2.2793 0.769,4.8088 -2.809,6.421801 l -9.676,4.447 0.883,1.96 z m 1.33,3.488 0.623,2.136 15.478,0.938 -12.447,9.48 0.649,2.233 17.379,-2.194 -0.25,-2.114 -14.825,2.023 -0.015,-0.048 12.373,-9.198 -0.572,-1.968 -15.278,-0.788 -0.015,-0.048 13.548,-6.415 -0.916,-1.895 -15.732,7.858 z m 14.416,22.73 c -2.384,0.284 -4.068,2.423 -3.784,4.807 0.284,2.383 2.423,4.066 4.806,3.782 2.384,-0.283 4.068,-2.423 3.783,-4.806 -0.283,-2.383 -2.423,-4.067 -4.805,-3.783 z m -284.231983,31.704 10.76948,-0.355 c 5.5457,-0.219 6.7786,-3.801 6.6915,-7.176 -0.0965,-3.723 -1.8235,-6.68 -7.0965,-6.543 -1.4004,0.037 -2.9493,0.102 -4.7231,0.173 l -5.99607,0.205 0.05469,2.149 6.37228,-0.215 c 1.6242,-0.067 3.2722,-0.134 4.8722,-0.176 3.1739,-0.082 4.6407,1.53 4.7207,4.604 0.0641,2.499 -1.1527,4.732 -5.0761,4.833 l -10.64455,0.351 0.05547,2.15 z m 0.82738,4.5 -0.49926,1.896 15.29296,7.382 0.0078,0.05 -13.509,2.133 0.3246,2.151 16.7379,-2.67 0.4145,-1.958 -15.4067,-7.291 -0.0066,-0.048 13.6316,-2.152 -0.323,-2.151 -16.6648,2.658 z m 2.7925,18.293 0.5024,2.09 16.7847,-4.195 -0.5039,-2.09 -16.7832,4.195 z m 1.4907,4.774 -0.1489,2.26 16.134,0.705 -12.3808,10.668 1.1961,1.71 13.9042,-12.275 -0.6265,-1.899 -18.0781,-1.169 z m 5.7566,17.935 3.6301,8.127 1.6426,-0.734 -2.7629,-6.186 5.3449,-2.441 2.6914,6.025 1.6426,-0.734 -2.6821,-6.003 5.4817,-2.503 2.8347,6.346 1.6426,-0.734 -3.73,-8.354 -15.7356,7.191 z m 5.3445,11.573 2.5801,4.543 c 1.6176,2.847 4.1723,3.955 6.6723,2.537 2.4566,-1.395 2.9414,-3.884 2.0269,-6.154 l 0.0434,-0.024 c 0.7422,0.901 2.6148,0.959 3.7332,1.158 l 5.7156,0.75 0.0625,-2.22 -6.8387,-0.803 c -1.7136,-0.235 -2.8542,-0.219 -3.6574,-1.632 l -0.6797,-1.196 6.3871,-3.741 -1.0746,-1.89 -14.9707,8.672 z m 8.2121,-2.249 1.0618,1.87 c 1.0488,1.849 1.4609,4.144 -0.7129,5.379 -1.6094,0.913 -3.541,0.802 -4.9231,-1.633 l -1.2707,-2.239 5.8449,-3.377 z m 11.6164,6.933 c 1.0836,0.369 2.3653,1.15 3.1551,2.275 1.1629,1.658 0.9657,3.507 -0.6101,4.612 -3.5996,2.53 -6.509,-4.745 -11.4614,-1.269 -2.1882,1.537 -2.4722,4.394 -0.7058,6.911 0.9773,1.392 2.2683,2.317 3.748,2.99 l 0.8157,-1.581 c -1.1426,-0.451 -2.2219,-0.945 -3.1567,-2.275 -0.8609,-1.228 -1.0816,-3.151 0.6367,-4.358 3.1106,-2.183 6.8625,4.683 11.3032,1.565 2.1074,-1.478 3.0371,-4.331 0.8535,-7.441 -1.0918,-1.555 -2.2715,-2.408 -3.8559,-3.098 l -0.7223,1.669 z m -4.2636,19.087 1.3512,1.672 13.3632,-10.988 -1.3511,-1.672 -13.3633,10.988 z m 3.1453,4.033 8.9441,9.571 1.3149,-1.229 -3.7375,-4 11.2226,-10.691 -1.4675,-1.572 -11.2227,10.693 -3.7387,-4.001 -1.3152,1.229 z m 13.6394,13.783 1.5317,1.363 16.4019,-8.097 -1.1421,-1.952 -5.8086,2.997 -5.3442,-4.752 2.1684,-6.237 -1.9106,-0.861 -5.8965,17.539 z m 2.0247,-0.808 -0.0379,-0.033 3.0171,-7.757 4.2407,3.772 -7.2199,4.018 z m 15.3527,-3.768 c 1.1453,-0.005 2.6109,0.317 3.7246,1.122 1.6402,1.188 2.0555,3.001 0.9258,4.56 -2.5801,3.564 -7.7004,-2.365 -11.2485,2.534 -1.5691,2.167 -0.9082,4.961 1.5832,6.765 1.377,0.997 2.8997,1.451 4.5176,1.604 l 0.2551,-1.76 c -1.2258,-0.053 -2.4082,-0.168 -3.7238,-1.122 -1.2149,-0.88 -2.0496,-2.627 -0.8172,-4.328 2.2285,-3.077 8.0125,2.192 11.1941,-2.202 1.511,-2.085 1.4602,-5.085 -1.6179,-7.313 -1.5383,-1.116 -2.9297,-1.537 -4.6528,-1.673 l -0.1402,1.813 z m 9.8711,24.209 2,0.975 11.0945,-10.834 -1.3418,15.589 2.0899,1.018 10.052603,-14.345 -1.734,-1.235 -8.462003,12.34 -0.0461,-0.023 1.501103,-15.343 -1.842903,-0.899 -10.8484,10.787 -0.0449,-0.022 4.3496,-14.344 -2.0176,-0.595 -4.75,16.931 z m 24.787203,10.643 1.949,0.635 11.781,-13.993 -1.828,-1.33 -4.121,5.073 -6.799,-2.211 -0.515,-6.582 -2.094,-0.024 1.627,18.432 z m 1.53,-1.553 -0.048,-0.015 -0.343,-8.315 5.396,1.756 -5.005,6.574 z m 12.563,-9.607 c 1.047,-0.465 2.518,-0.76 3.862,-0.47 1.979,0.429 3.089,1.921 2.682,3.803 -0.93,4.3 -8.002,0.929 -9.282,6.842 -0.564,2.616 1.164,4.906 4.17,5.557 1.662,0.36 3.239,0.164 4.781,-0.347 l -0.472,-1.713 c -1.145,0.443 -2.274,0.812 -3.861,0.468 -1.467,-0.316 -2.933,-1.58 -2.489,-3.632 0.803,-3.715 8.217,-1.215 9.364,-6.518 0.544,-2.517 -0.708,-5.243 -4.422,-6.047 -1.857,-0.4 -3.301,-0.228 -4.933,0.34 l 0.6,1.717 z m 14.778,17.584 2.037,0.229 8.731,-16.073 -2.059,-0.936 -3.018,5.798 -7.105,-0.802 -1.826,-6.344 -2.057,0.397 5.297,17.731 z m 1.187,-1.828 -0.05,-0.006 -2.008,-8.077 5.639,0.637 -3.581,7.446 z m 10.456,2.767 5.224,0.084 c 3.274,0.054 5.526,-1.585 5.573,-4.46 0.046,-2.824 -1.852,-4.505 -4.271,-4.87 l 0.001,-0.05 c 1.152,-0.18 2.153,-1.764 2.892,-2.628 l 3.549,-4.543 -1.881,-1.181 -4.164,5.484 c -1.072,1.357 -1.639,2.347 -3.264,2.322 l -1.375,-0.022 0.021,-7.401 -2.175,-0.036 -0.13,17.301 z m 2.234,-8.215 2.149,0.035 c 2.124,0.034 4.312,0.844 4.272,3.344 -0.03,1.85 -1.107,3.458 -3.907,3.412 l -2.575,-0.041 0.061,-6.75 z m 15.885,-2.129 -5.151,9.723 2.045,0.881 4.461,-9.079 6.438,8.011 1.758,-1.278 -7.411,-8.468 -0.871,-7.351 -2.14,0.211 0.871,7.35 z m 12.329,8.489 2.105,-0.434 -1.789,-8.311 -1.85,-8.603 -2.105,0.434 3.639,16.914 z m 0.316,-8.745 10.209,6.932 1.202,-1.599 -8.781,-5.823 5.753,-9.124 -1.88,-1.067 -6.503,10.681 z m 15.007,5.217 2.066,-0.595 -4.938,-16.582 -2.065,0.596 4.937,16.581 z m 11.605,-3.793 1.916,-0.729 0.404,-18.287 -2.259,0.111 -0.028,6.537 -6.684,2.54 -4.529,-4.804 -1.647,1.295 12.827,13.337 z m 0.219,-2.169 -0.047,0.019 -5.482,-6.262 5.305,-2.015 0.224,8.258 z m 10.395,-2.577 1.954,-0.15 1.959,-16.87 0.043,-0.023 6.445,12.063 1.926,-1.012 -8.011,-14.937 -1.985,0.251 -1.835,16.944 -0.044,0.023 -6.503,-12.172 -1.926,1.011 7.977,14.872 z m 20.557,-11.388 1.689,-1.163 -3.951,-17.859 -2.166,0.643 1.523,6.357 -5.89,4.055 -5.539,-3.593 -1.292,1.649 15.626,9.911 z m -0.303,-2.159 -0.041,0.029 -6.812,-4.781 4.675,-3.218 2.178,7.97 z m 15.219,-9.352 3.491,-3.293 c 2.764,-2.609 2.148,-5.155 0.826,-6.556 -1.459,-1.545 -3.131,-1.787 -4.981,-0.833 l -0.034,-0.036 c 1.325,-1.801 1.119,-3.841 -0.39,-5.441 -2.112,-2.237 -4.895,-1.981 -7.368,0.353 l -3.527,3.329 11.983,12.477 z m -9.269,-12.77 1.836,-1.733 c 1.6,-1.51 3.27,-1.78 4.918,-0.035 1.441,1.527 1.105,3.357 -0.712,5.073 l -1.473,1.39 -4.569,-4.695 z m 5.701,5.895 1.182,-1.116 c 2.054,-1.938 3.733,-1.873 4.951,-0.582 1.321,1.4 1.26,2.902 -0.758,4.806 l -1.254,1.185 -4.121,-4.293 z m 13.708,-2.972 3.423,-3.948 c 2.144,-2.475 2.336,-5.253 0.164,-7.136 -2.135,-1.852 -4.643,-1.477 -6.477,0.143 l -0.037,-0.033 c 0.602,-1 0.031,-2.786 -0.154,-3.906 l -1.201,-5.64 -2.112,0.684 1.524,6.714 c 0.351,1.694 0.746,2.765 -0.317,3.993 l -0.902,1.039 -5.657,-4.772 -1.424,1.643 13.17,11.219 z m -4.859,-6.99 1.409,-1.625 c 1.392,-1.606 3.418,-2.761 5.308,-1.123 1.398,1.212 1.938,3.07 0.104,5.185 l -1.687,1.946 -5.134,-4.383 z m 22.607,-16.159 -8.935,-6.023 c -4.624,-3.071 -7.721,-0.889 -9.628,1.897 -2.102,3.074 -2.434,6.482 1.919,9.46 1.155,0.791 2.45,1.645 3.928,2.626 l 4.981,3.347 1.213,-1.775 -5.29,-3.558 c -1.355,-0.897 -2.73,-1.807 -4.052,-2.712 -2.619,-1.792 -2.864,-3.959 -1.128,-6.496 1.412,-2.063 3.706,-3.16 6.946,-0.943 l 8.832,5.951 1.214,-1.774 z m 1.962,-4.132 1.514,-1.247 -8.081,-14.935 0.022,-0.045 12.202,6.176 0.996,-1.933 -15.136,-7.631 -1.481,1.345 8.226,14.927 -0.022,0.044 -12.313,-6.232 -0.996,1.933 15.069,7.598 z m 8.4,-16.244 3.217,-8.298 -1.678,-0.651 -2.449,6.318 -5.496,-2.078 2.386,-6.153 -1.678,-0.651 -2.377,6.13 -5.636,-2.131 2.513,-6.481 -1.679,-0.65 -3.307,8.531 16.184,6.114 z m 4.098,-12.025 1.218,-1.536 -11.045,-12.899 0.012,-0.048 13.229,3.467 0.567,-2.1 -16.403,-4.273 -1.165,1.628 11.185,12.86 -0.012,0.048 -13.35,-3.5 -0.567,2.1 16.331,4.253 z m -9.792,-19.708 c -0.521,-1.02 -0.898,-2.472 -0.681,-3.83 0.319,-2 1.748,-3.19 3.649,-2.886 4.345,0.691 1.369,7.938 7.343,8.889 2.642,0.421 4.836,-1.432 5.32,-4.469 0.266,-1.678 -0.016,-3.243 -0.611,-4.754 l -1.684,0.566 c 0.505,1.119 0.936,2.225 0.68,3.83 -0.235,1.481 -1.416,3.015 -3.49,2.684 -3.753,-0.597 -1.666,-8.137 -7.023,-8.991 -2.543,-0.405 -5.197,0.995 -5.794,4.748 -0.299,1.876 -0.046,3.309 0.611,4.906 l 1.68,-0.693 z m 16.35,-10.766 0.194,-2.142 -17.243,-1.408 -0.195,2.141 17.244,1.409 z m -14.166,-7.037 c -0.654,-0.941 -1.222,-2.329 -1.19,-3.704 0.048,-2.024 1.305,-3.395 3.23,-3.35 4.398,0.102 2.42,7.683 8.469,7.824 2.674,0.063 4.6,-2.067 4.671,-5.142 0.04,-1.7 -0.45,-3.212 -1.242,-4.63 l -1.594,0.788 c 0.652,1.041 1.227,2.08 1.189,3.704 -0.034,1.499 -0.999,3.177 -3.099,3.127 -3.799,-0.087 -2.742,-7.84 -8.166,-7.967 -2.574,-0.06 -5.016,1.683 -5.104,5.483 -0.044,1.899 0.398,3.286 1.263,4.781 l 1.573,-0.914"
       inkscape:connector-curvature="0" /><path
       id="path3003"
       style="fill:#00897e;fill-opacity:0.47058824;fill-rule:nonzero;stroke:none"
       d="m 293.1901,68.779563 c -0.71004,-1.139801 -1.43834,-2.278686 -2.17465,-3.398706 0.27669,-0.665541 0.42874,-1.403342 0.42874,-2.175099 0,-3.054902 -2.38957,-5.458098 -5.37255,-5.458098 -0.1212,0 -0.2504,0.01829 -0.37045,0.02722 -0.80035,-1.076801 -1.60411,-2.170983 -2.43075,-3.229948 0.88494,-0.290295 1.82706,-0.454594 2.8012,-0.454594 4.98383,0 9.0347,4.108837 9.0347,9.115428 0,2.090148 -0.73289,4.023658 -1.91624,5.573805 z"
       inkscape:connector-curvature="0" /><path
       id="path3005"
       style="fill:#00897e;fill-opacity:0.47058824;fill-rule:nonzero;stroke:none"
       d="m 17.929786,68.493726 c -1.066525,-1.501097 -1.687326,-3.323245 -1.687326,-5.287968 0,-5.006591 4.077178,-9.115428 9.061897,-9.115428 0.853038,0 1.673926,0.142918 2.455916,0.370214 -0.839158,1.075888 -1.670312,2.188362 -2.483162,3.287116 -2.970454,0.01383 -5.377285,2.411314 -5.377285,5.458098 0,0.62884 0.09826,1.240757 0.285836,1.799853 -0.763721,1.155921 -1.52297,2.3131 -2.255876,3.488115 z"
       inkscape:connector-curvature="0" /><path
       id="path3007"
       style="fill:#00897e;fill-opacity:0.47058824;fill-rule:nonzero;stroke:none"
       d="m 16.228615,39.575115 0,-18.079478 18.258182,0 0,18.079478 -18.258182,0 z m 3.644856,-3.644753 10.932786,0 0,-10.754184 -10.932786,0 0,10.754184 z"
       inkscape:connector-curvature="0" /><path
       id="path3009"
       style="fill:#00897e;fill-opacity:0.47058824;fill-rule:nonzero;stroke:none"
       d="m 49.001555,32.049622 c -0.09387,-0.523424 -0.173788,-1.049591 -0.173788,-1.59931 0,-5.011051 4.077165,-9.119544 9.061918,-9.119544 1.31256,0 2.559148,0.28938 3.688658,0.799426 -1.312673,0.932969 -2.608311,1.888805 -3.889657,2.858361 -2.371525,0.08941 -4.341622,1.687348 -4.971261,3.916869 -1.255507,1.031754 -2.497066,2.081231 -3.71587,3.144198 z"
       inkscape:connector-curvature="0" /><path
       id="path3011"
       style="fill:#00897e;fill-opacity:0.47058824;fill-rule:nonzero;stroke:none"
       d="m 262.31979,32.392625 c -1.17879,-1.031182 -2.36672,-2.05802 -3.57295,-3.058447 -0.49963,-2.505981 -2.65256,-4.345623 -5.26054,-4.345623 -0.0765,0 -0.15206,0 -0.22867,0 -1.22794,-0.929425 -2.46047,-1.849017 -3.71586,-2.743112 1.19708,-0.588594 2.53252,-0.914675 3.94453,-0.914675 4.98385,0 9.03471,4.108493 9.03471,9.119544 0,0.665426 -0.0675,1.313473 -0.20123,1.942313 z"
       inkscape:connector-curvature="0" /><path
       id="path3013"
       style="fill:#00897e;fill-opacity:0.47058824;fill-rule:nonzero;stroke:none"
       d="m 276.98203,39.575115 0,-18.079478 18.25807,0 0,18.079478 -18.25807,0 z m 3.64498,-3.644753 10.93266,0 0,-10.754184 -10.93266,0 0,10.754184 z"
       inkscape:connector-curvature="0" /><path
       id="path3015"
       style="fill:#00897e;fill-opacity:0.47058824;fill-rule:nonzero;stroke:none"
       d="m 48.778602,7.1685026 0,-18.0800486 18.25784,0 0,18.0800486 -18.25784,0 z m 3.680197,-3.6453246 10.932775,0 0,-10.75407 -10.932775,0 0,10.75407 z"
       inkscape:connector-curvature="0" /><path
       id="path3017"
       style="fill:#00897e;fill-opacity:0.47058824;fill-rule:nonzero;stroke:none"
       d="m 88.044486,6.8102933 c -3.809629,-1.0848052 -6.631403,-4.613167 -6.631403,-8.7751691 0,-5.0065912 4.077167,-9.1154282 9.061921,-9.1154282 4.98384,0 9.030136,4.108837 9.030136,9.1154282 0,1.6248063 -0.4515,3.1571168 -1.196846,4.4876268 -3.4792,1.3139312 -6.90478,2.7520299 -10.263808,4.2875423 z M 90.475004,3.523178 c 2.97853,0 5.37281,-2.4340664 5.37281,-5.4880538 0,-3.0549026 -2.39429,-5.4580982 -5.37281,-5.4580982 -2.983906,0 -5.404591,2.4031956 -5.404591,5.4580982 0,3.0539874 2.420685,5.4880538 5.404591,5.4880538 z"
       inkscape:connector-curvature="0" /><path
       id="path3019"
       style="fill:#00897e;fill-opacity:0.47058824;fill-rule:nonzero;stroke:none"
       d="m 113.91357,-2.4517119 0,-8.4598341 18.26618,0 0,4.7439647 c -1.22795,0.1782477 -2.44334,0.3703287 -3.66224,0.5716718 l 0,-1.6256065 -10.91529,0 0,3.8274591 c -1.23275,0.2938399 -2.46984,0.6199221 -3.68865,0.942345 z"
       inkscape:connector-curvature="0" /><path
       id="path3021"
       style="fill:#00897e;fill-opacity:0.47058824;fill-rule:nonzero;stroke:none"
       d="m 162.81795,-7.650271 c -2.42961,-0.112161 -4.88551,-0.201457 -7.34256,-0.201457 -2.27755,0 -4.52421,0.07546 -6.77546,0.17013 1.66128,-2.072769 4.22123,-3.398706 7.0613,-3.398706 2.84921,0 5.40459,1.335312 7.05672,3.430033 z"
       inkscape:connector-curvature="0" /><path
       id="path3023"
       style="fill:#00897e;fill-opacity:0.47058824;fill-rule:nonzero;stroke:none"
       d="m 197.35039,-2.3623028 c -1.21881,-0.3260811 -2.42961,-0.6485051 -3.66215,-0.9469174 l 0,-3.9122958 -10.9155,0 0,1.6836885 c -1.22337,-0.205459 -2.4559,-0.3929677 -3.68843,-0.5716718 l 0,-4.8020467 18.26608,0 0,8.5492432 z"
       inkscape:connector-curvature="0" /><path
       id="path3025"
       style="fill:#00897e;fill-opacity:0.47058824;fill-rule:nonzero;stroke:none"
       d="M 223.01733,6.8688317 C 219.72106,5.3552724 216.38936,3.9305506 212.98218,2.63983 c -0.79462,-1.3630956 -1.28626,-2.9307351 -1.28626,-4.6047058 0,-5.0065912 4.07718,-9.1154282 9.06216,-9.1154282 4.98384,0 9.03471,4.108837 9.03471,9.1154282 0,4.2250009 -2.88008,7.8113295 -6.77546,8.8337075 z M 220.75808,3.523178 c 2.98298,0 5.37257,-2.4340664 5.37257,-5.4880538 0,-3.0549026 -2.38959,-5.4580982 -5.37257,-5.4580982 -2.97956,0 -5.40001,2.4031956 -5.40001,5.4580982 0,3.0539874 2.42045,5.4880538 5.40001,5.4880538 z"
       inkscape:connector-curvature="0" /><path
       id="path3027"
       style="fill:#00897e;fill-opacity:0.47058824;fill-rule:nonzero;stroke:none"
       d="m 244.21836,7.1685026 0,-18.0800486 18.25806,0 0,18.0800486 -18.25806,0 z m 3.68042,-3.6453246 10.93381,0 0,-10.75407 -10.93381,0 0,10.75407 z"
       inkscape:connector-curvature="0" /><path
       id="path3029"
       style="fill:#00897e;fill-opacity:0.47058824;fill-rule:nonzero;stroke:none"
       d="m 286.06247,7.1774212 c -4.98383,0 -9.06215,-4.1401653 -9.06215,-9.1467563 0,-5.0065909 4.07832,-9.1203439 9.06215,-9.1203439 4.97928,0 9.03015,4.113753 9.03015,9.1203439 0,5.006591 -4.05087,9.1467563 -9.03015,9.1467563 z m 0,-3.6587025 c 2.97843,0 5.37258,-2.4340664 5.37258,-5.4880538 0,-3.0549015 -2.39416,-5.4580969 -5.37258,-5.4580969 -2.98298,0 -5.40457,2.4031954 -5.40457,5.4580969 0,3.0539874 2.42159,5.4880538 5.40457,5.4880538 z"
       inkscape:connector-curvature="0" /><path
       id="path3031"
       style="fill:#00897e;fill-opacity:0.47058824;fill-rule:nonzero;stroke:none"
       d="m 25.299887,7.1774212 c -4.985154,0 -9.06234,-4.1401653 -9.06234,-9.1467563 0,-5.0065909 4.077186,-9.1203439 9.06234,-9.1203439 4.979402,0 9.030158,4.113753 9.030158,9.1203439 0,5.006591 -4.050756,9.1467563 -9.030158,9.1467563 z m 0,-3.6587025 c 2.97855,0 5.37237,-2.4340664 5.37237,-5.4880538 0,-3.0549015 -2.39382,-5.4580969 -5.37237,-5.4580969 -2.984301,0 -5.404533,2.4031954 -5.404533,5.4580969 0,3.0539874 2.420232,5.4880538 5.404533,5.4880538 z"
       inkscape:connector-curvature="0" /><path
       id="path3033"
       style="fill:#00897e;fill-opacity:0.47058824;fill-rule:nonzero;stroke:none"
       d="m 16.228615,346.2409 0,-18.07857 18.258182,0 0,18.07857 -18.258182,0 z m 3.644856,-3.64384 10.932786,0 0,-10.79088 -10.932786,0 0,10.79088 z"
       inkscape:connector-curvature="0" /><path
       id="path3035"
       style="fill:#00897e;fill-opacity:0.47058824;fill-rule:nonzero;stroke:none"
       d="m 57.893231,346.2409 c -4.97938,0 -9.056547,-4.14005 -9.056547,-9.14675 0,-5.00671 4.077167,-9.11932 9.056547,-9.11932 4.985209,0 9.035964,4.11261 9.035964,9.11932 0,5.0067 -4.050755,9.14675 -9.035964,9.14675 z m 0,-3.65756 c 2.984357,0 5.378177,-2.43418 5.378177,-5.48919 0,-3.05502 -2.39382,-5.45719 -5.378177,-5.45719 -2.978527,0 -5.398759,2.40217 -5.398759,5.45719 0,3.05501 2.420232,5.48919 5.398759,5.48919 z"
       inkscape:connector-curvature="0" /><path
       id="path3037"
       style="fill:#00897e;fill-opacity:0.47058824;fill-rule:nonzero;stroke:none"
       d="m 81.36392,346.2409 0,-18.07857 18.25785,0 0,18.07857 -18.25785,0 z m 3.643609,-3.64384 10.934035,0 0,-10.79088 -10.934035,0 0,10.79088 z"
       inkscape:connector-curvature="0" /><path
       id="path3039"
       style="fill:#00897e;fill-opacity:0.47058824;fill-rule:nonzero;stroke:none"
       d="m 123.18495,346.2409 c -4.98384,0 -9.06192,-4.14005 -9.06192,-9.14675 0,-5.00671 4.07808,-9.11932 9.06192,-9.11932 4.98384,0 9.03024,4.11261 9.03024,9.11932 0,5.0067 -4.0464,9.14675 -9.03024,9.14675 z m 0,-3.65756 c 2.97852,0 5.37279,-2.43418 5.37279,-5.48919 0,-3.05502 -2.39428,-5.45719 -5.37279,-5.45719 -2.98298,0 -5.40459,2.40217 -5.40459,5.45719 0,3.05501 2.42161,5.48919 5.40459,5.48919 z"
       inkscape:connector-curvature="0" /><path
       id="path3041"
       style="fill:#00897e;fill-opacity:0.47058824;fill-rule:nonzero;stroke:none"
       d="m 146.53443,346.2409 0,-18.07857 18.25808,0 0,18.07857 -18.25808,0 z m 3.64384,-3.64384 10.9338,0 0,-10.79088 -10.9338,0 0,10.79088 z"
       inkscape:connector-curvature="0" /><path
       id="path3043"
       style="fill:#00897e;fill-opacity:0.47058824;fill-rule:nonzero;stroke:none"
       d="m 188.20363,346.2409 c -4.98384,0 -9.06215,-4.14005 -9.06215,-9.14675 0,-5.00671 4.07831,-9.11932 9.06215,-9.11932 4.98383,0 9.03012,4.11261 9.03012,9.11932 0,5.0067 -4.04629,9.14675 -9.03012,9.14675 z m 0,-3.65756 c 2.97956,0 5.37258,-2.43418 5.37258,-5.48919 0,-3.05502 -2.39302,-5.45719 -5.37258,-5.45719 -2.98298,0 -5.40344,2.40217 -5.40344,5.45719 0,3.05501 2.42046,5.48919 5.40344,5.48919 z"
       inkscape:connector-curvature="0" /><path
       id="path3045"
       style="fill:#00897e;fill-opacity:0.47058824;fill-rule:nonzero;stroke:none"
       d="m 211.66964,346.2409 0,-18.07857 18.25692,0 0,18.07857 -18.25692,0 z m 3.64382,-3.64384 10.93382,0 0,-10.79088 -10.93382,0 0,10.79088 z"
       inkscape:connector-curvature="0" /><path
       id="path3047"
       style="fill:#00897e;fill-opacity:0.47058824;fill-rule:nonzero;stroke:none"
       d="m 253.49088,346.2409 c -4.98041,0 -9.05758,-4.14005 -9.05758,-9.14675 0,-5.00671 4.07717,-9.11932 9.05758,-9.11932 4.98383,0 9.0347,4.11261 9.0347,9.11932 0,5.0067 -4.05087,9.14675 -9.0347,9.14675 z m 0,-3.65756 c 2.98298,0 5.37715,-2.43418 5.37715,-5.48919 0,-3.05502 -2.39417,-5.45719 -5.37715,-5.45719 -2.97956,0 -5.40002,2.40217 -5.40002,5.45719 0,3.05501 2.42046,5.48919 5.40002,5.48919 z"
       inkscape:connector-curvature="0" /><path
       id="path3049"
       style="fill:#00897e;fill-opacity:0.47058824;fill-rule:nonzero;stroke:none"
       d="m 276.98203,346.2409 0,-18.07857 18.25807,0 0,18.07857 -18.25807,0 z m 3.64498,-3.64384 10.93266,0 0,-10.79088 -10.93266,0 0,10.79088 z"
       inkscape:connector-curvature="0" /><path
       id="path3051"
       style="fill:#00897e;fill-opacity:0.47058824;fill-rule:nonzero;stroke:none"
       d="m 48.778602,313.83509 0,-18.07971 18.25784,0 0,18.07971 -18.25784,0 z m 3.680197,-3.68043 10.932775,0 0,-10.75429 -10.932775,0 0,10.75429 z"
       inkscape:connector-curvature="0" /><path
       id="path3053"
       style="fill:#00897e;fill-opacity:0.47058824;fill-rule:nonzero;stroke:none"
       d="m 90.475004,313.82594 c -4.984754,0 -9.061921,-4.13547 -9.061921,-9.14675 0,-2.01915 0.656051,-3.88623 1.772185,-5.40002 1.117047,0.55795 2.241983,1.09418 3.372866,1.63041 -0.924967,0.97299 -1.487721,2.29126 -1.487721,3.76961 0,3.05958 2.420685,5.4892 5.404591,5.4892 2.89849,0 5.24235,-2.29584 5.3728,-5.23081 1.15581,0.46077 2.31756,0.88496 3.488126,1.3137 -0.74182,4.27383 -4.413096,7.57466 -8.860926,7.57466 z"
       inkscape:connector-curvature="0" /><path
       id="path3055"
       style="fill:#00897e;fill-opacity:0.47058824;fill-rule:nonzero;stroke:none"
       d="m 113.91357,313.82594 0,-2.97041 c 4.43846,1.17422 8.96725,2.17464 13.54999,2.97041 l -13.54999,0 z"
       inkscape:connector-curvature="0" /><path
       id="path3057"
       style="fill:#00897e;fill-opacity:0.47058824;fill-rule:nonzero;stroke:none"
       d="m 183.51362,313.82594 c 4.69,-0.81749 9.29426,-1.84535 13.83675,-3.05502 l 0,3.05502 -13.83675,0 z"
       inkscape:connector-curvature="0" /><path
       id="path3059"
       style="fill:#00897e;fill-opacity:0.47058824;fill-rule:nonzero;stroke:none"
       d="m 220.75807,313.82594 c -4.47047,0 -8.19549,-3.32713 -8.91923,-7.62839 1.18794,-0.44247 2.345,-0.90668 3.51922,-1.37544 0.072,2.98756 2.46504,5.34628 5.40001,5.34628 2.98298,0 5.37258,-2.42962 5.37258,-5.4892 0,-1.52752 -0.57168,-2.87666 -1.54123,-3.85879 1.12162,-0.52708 2.23296,-1.07246 3.34542,-1.62583 1.15706,1.53207 1.85794,3.42088 1.85794,5.48462 0,5.01128 -4.05087,9.14675 -9.03471,9.14675 z"
       inkscape:connector-curvature="0" /><path
       id="path3061"
       style="fill:#00897e;fill-opacity:0.47058824;fill-rule:nonzero;stroke:none"
       d="m 244.21836,313.83509 0,-18.07971 18.25806,0 0,18.07971 -18.25806,0 z m 3.68042,-3.68043 10.93381,0 0,-10.75429 -10.93381,0 0,10.75429 z"
       inkscape:connector-curvature="0" /><path
       id="path3063"
       style="fill:#00897e;fill-opacity:0.47058824;fill-rule:nonzero;stroke:none"
       d="m 286.06247,313.83051 c -4.98383,0 -9.06215,-4.13662 -9.06215,-9.14675 0,-5.0067 4.07832,-9.11588 9.06215,-9.11588 4.97928,0 9.03015,4.10918 9.03015,9.11588 0,5.01013 -4.05087,9.14675 -9.03015,9.14675 z m 0,-3.6587 c 2.97843,0 5.37258,-2.43304 5.37258,-5.48805 0,-3.05501 -2.39416,-5.45833 -5.37258,-5.45833 -2.98298,0 -5.40457,2.40332 -5.40457,5.45833 0,3.05501 2.42159,5.48805 5.40457,5.48805 z"
       inkscape:connector-curvature="0" /><path
       id="path3065"
       style="fill:#00897e;fill-opacity:0.47058824;fill-rule:nonzero;stroke:none"
       d="m 25.299887,313.83051 c -4.985154,0 -9.06234,-4.13662 -9.06234,-9.14675 0,-5.0067 4.077186,-9.11588 9.06234,-9.11588 4.979402,0 9.030158,4.10918 9.030158,9.11588 0,5.01013 -4.050756,9.14675 -9.030158,9.14675 z m 0,-3.6587 c 2.97855,0 5.37237,-2.43304 5.37237,-5.48805 0,-3.05501 -2.39382,-5.45833 -5.37237,-5.45833 -2.984301,0 -5.404533,2.40332 -5.404533,5.45833 0,3.05501 2.420232,5.48805 5.404533,5.48805 z"
       inkscape:connector-curvature="0" /><path
       id="path3067"
       style="fill:#00897e;fill-opacity:0.47058824;fill-rule:nonzero;stroke:none"
       d="m 16.228615,281.07026 0,-18.07855 18.258182,0 0,18.07855 -18.258182,0 z m 3.644856,-3.67928 10.932786,0 0,-10.75544 -10.932786,0 0,10.75544 z"
       inkscape:connector-curvature="0" /><path
       id="path3069"
       style="fill:#00897e;fill-opacity:0.47058824;fill-rule:nonzero;stroke:none"
       d="m 276.98203,281.07026 0,-18.07855 18.25807,0 0,18.07855 -18.25807,0 z m 3.64498,-3.67928 10.93266,0 0,-10.75544 -10.93266,0 0,10.75544 z"
       inkscape:connector-curvature="0" /><path
       id="path3071"
       style="fill:#00897e;fill-opacity:0.47058824;fill-rule:nonzero;stroke:none"
       d="m 287.24584,248.5707 c 2.66629,-3.71587 5.16334,-7.54836 7.51634,-11.49175 0.21037,0.77289 0.34415,1.59382 0.34415,2.4296 0,4.60882 -3.43918,8.46762 -7.86049,9.06215 z"
       inkscape:connector-curvature="0" /><path
       id="path3073"
       style="fill:#00897e;fill-opacity:0.47058824;fill-rule:nonzero;stroke:none"
       d="m 23.6742,248.48495 c -4.216975,-0.78091 -7.43174,-4.52421 -7.43174,-8.9764 0,-0.69744 0.07994,-1.37544 0.227329,-2.02829 2.263916,3.76961 4.653324,7.44545 7.204411,11.00469 z"
       inkscape:connector-curvature="0" /><path
       id="path3075"
       style="fill:#00897e;fill-opacity:0.47058824;fill-rule:nonzero;stroke:none"
       d="m 16.228615,-25.416814 0,-18.080037 18.258182,0 0,18.080037 -18.258182,0 z m 3.644856,-3.645325 10.932786,0 0,-10.78941 -10.932786,0 0,10.78941 z"
       inkscape:connector-curvature="0" /><path
       id="path3077"
       style="fill:#00897e;fill-opacity:0.47058824;fill-rule:nonzero;stroke:none"
       d="m 57.893231,-25.412355 c -4.97938,0 -9.056547,-4.140165 -9.056547,-9.146756 0,-5.006603 4.077167,-9.120405 9.056547,-9.120405 4.985209,0 9.035964,4.113802 9.035964,9.120405 0,5.006591 -4.050755,9.146756 -9.035964,9.146756 z m 0,-3.658702 c 2.984357,0 5.378177,-2.433151 5.378177,-5.488054 0,-3.054879 -2.39382,-5.458131 -5.378177,-5.458131 -2.978527,0 -5.398759,2.403252 -5.398759,5.458131 0,3.054903 2.420232,5.488054 5.398759,5.488054 z"
       inkscape:connector-curvature="0" /><path
       id="path3079"
       style="fill:#00897e;fill-opacity:0.47058824;fill-rule:nonzero;stroke:none"
       d="m 81.36392,-25.416814 0,-18.080037 18.25785,0 0,18.080037 -18.25785,0 z m 3.643609,-3.645325 10.934035,0 0,-10.78941 -10.934035,0 0,10.78941 z"
       inkscape:connector-curvature="0" /><path
       id="path3081"
       style="fill:#00897e;fill-opacity:0.47058824;fill-rule:nonzero;stroke:none"
       d="m 123.18495,-25.412355 c -4.98384,0 -9.06192,-4.140165 -9.06192,-9.146756 0,-5.006603 4.07808,-9.120405 9.06192,-9.120405 4.98384,0 9.03024,4.113802 9.03024,9.120405 0,5.006591 -4.0464,9.146756 -9.03024,9.146756 z m 0,-3.658702 c 2.97852,0 5.37279,-2.433151 5.37279,-5.488054 0,-3.054879 -2.39428,-5.458131 -5.37279,-5.458131 -2.98298,0 -5.40459,2.403252 -5.40459,5.458131 0,3.054903 2.42161,5.488054 5.40459,5.488054 z"
       inkscape:connector-curvature="0" /><path
       id="path3083"
       style="fill:#00897e;fill-opacity:0.47058824;fill-rule:nonzero;stroke:none"
       d="m 146.53443,-25.416814 0,-18.080037 18.25808,0 0,18.080037 -18.25808,0 z m 3.64384,-3.645325 10.9338,0 0,-10.78941 -10.9338,0 0,10.78941 z"
       inkscape:connector-curvature="0" /><path
       id="path3085"
       style="fill:#00897e;fill-opacity:0.47058824;fill-rule:nonzero;stroke:none"
       d="m 188.20363,-25.412355 c -4.98384,0 -9.06215,-4.140165 -9.06215,-9.146756 0,-5.006603 4.07831,-9.120405 9.06215,-9.120405 4.98383,0 9.03012,4.113802 9.03012,9.120405 0,5.006591 -4.04629,9.146756 -9.03012,9.146756 z m 0,-3.658702 c 2.97956,0 5.37258,-2.433151 5.37258,-5.488054 0,-3.054879 -2.39302,-5.458131 -5.37258,-5.458131 -2.98298,0 -5.40344,2.403252 -5.40344,5.458131 0,3.054903 2.42046,5.488054 5.40344,5.488054 z"
       inkscape:connector-curvature="0" /><path
       id="path3087"
       style="fill:#00897e;fill-opacity:0.47058824;fill-rule:nonzero;stroke:none"
       d="m 211.66964,-25.416814 0,-18.080037 18.25692,0 0,18.080037 -18.25692,0 z m 3.64382,-3.645325 10.93382,0 0,-10.78941 -10.93382,0 0,10.78941 z"
       inkscape:connector-curvature="0" /><path
       id="path3089"
       style="fill:#00897e;fill-opacity:0.47058824;fill-rule:nonzero;stroke:none"
       d="m 253.49088,-25.412355 c -4.98041,0 -9.05758,-4.140165 -9.05758,-9.146756 0,-5.006603 4.07717,-9.120405 9.05758,-9.120405 4.98383,0 9.0347,4.113802 9.0347,9.120405 0,5.006591 -4.05087,9.146756 -9.0347,9.146756 z m 0,-3.658702 c 2.98298,0 5.37715,-2.433151 5.37715,-5.488054 0,-3.054879 -2.39417,-5.458131 -5.37715,-5.458131 -2.97956,0 -5.40002,2.403252 -5.40002,5.458131 0,3.054903 2.42046,5.488054 5.40002,5.488054 z"
       inkscape:connector-curvature="0" /><path
       id="path3091"
       style="fill:#00897e;fill-opacity:0.47058824;fill-rule:nonzero;stroke:none"
       d="m 276.98203,-25.416814 0,-18.080037 18.25807,0 0,18.080037 -18.25807,0 z m 3.64498,-3.645325 10.93266,0 0,-10.78941 -10.93266,0 0,10.78941 z"
       inkscape:connector-curvature="0" /></g></svg>