<?xml version="1.0" encoding="UTF-8" standalone="no"?>
<!-- Created with Inkscape (http://www.inkscape.org/) -->

<svg
   xmlns:dc="http://purl.org/dc/elements/1.1/"
   xmlns:cc="http://creativecommons.org/ns#"
   xmlns:rdf="http://www.w3.org/1999/02/22-rdf-syntax-ns#"
   xmlns:svg="http://www.w3.org/2000/svg"
   xmlns="http://www.w3.org/2000/svg"
   xmlns:sodipodi="http://sodipodi.sourceforge.net/DTD/sodipodi-0.dtd"
   xmlns:inkscape="http://www.inkscape.org/namespaces/inkscape"
   id="svg2"
   version="1.1"
   inkscape:version="0.48.5 r10040"
   width="369.65347"
   height="487.40051"
   xml:space="preserve"
   sodipodi:docname="law-light.svg"><metadata
     id="metadata8"><rdf:RDF><cc:Work
         rdf:about=""><dc:format>image/svg+xml</dc:format><dc:type
           rdf:resource="http://purl.org/dc/dcmitype/StillImage" /><dc:title></dc:title></cc:Work></rdf:RDF></metadata><defs
     id="defs6" /><sodipodi:namedview
     pagecolor="#ffffff"
     bordercolor="#666666"
     borderopacity="1"
     objecttolerance="10"
     gridtolerance="10"
     guidetolerance="10"
     inkscape:pageopacity="0"
     inkscape:pageshadow="2"
     inkscape:window-width="1280"
     inkscape:window-height="751"
     id="namedview4"
     showgrid="false"
     fit-margin-top="0"
     fit-margin-left="0"
     fit-margin-right="0"
     fit-margin-bottom="0"
     inkscape:zoom="0.60549692"
     inkscape:cx="63.271008"
     inkscape:cy="282.48305"
     inkscape:window-x="0"
     inkscape:window-y="29"
     inkscape:window-maximized="1"
     inkscape:current-layer="g10" /><g
     id="g10"
     inkscape:groupmode="layer"
     inkscape:label="ink_ext_XXXXXX"
     transform="matrix(1.25,0,0,-1.25,-10.030275,432.80113)"><path
       inkscape:connector-curvature="0"
       id="path14"
       style="fill:#ffffff;fill-opacity:1;fill-rule:nonzero;stroke:none"
       d="m 32.1074,92.2785 c 2.016,1.1153 4.5278,0.3934 5.6438,-1.6223 1.1156,-2.0156 0.3937,-4.5273 -1.6223,-5.6433 -2.0156,-1.1152 -4.5273,-0.3938 -5.643,1.6219 -1.116,2.0156 -0.3941,4.5273 1.6215,5.6437 z m 17.8824,-10.8672 5.7911,-7.6816 -1.4954,-1.127 -4.4449,5.8965 -4.9097,-3.6367 4.3351,-5.7512 -1.4949,-1.1269 -4.3195,5.7304 -6.561,-4.8152 -1.3617,1.8055 14.4609,10.7062 z m 11.7157,-14.2433 1.4722,-1.5418 -7.8089,-17.3457 -2.0708,1.114 2.8993,6.1496 -5.136,5.377 -6.4011,-2.4824 -0.9668,1.9531 18.0121,6.7762 z m -0.7664,-2.1336 -0.036,0.0371 -7.9492,-3.4219 4.0766,-4.2676 3.9086,7.6524 z M 79.3004,47.8477 c -0.4934,1.6828 -1.4258,2.8507 -2.8125,3.9472 -3.2637,2.5793 -7.6731,1.8235 -10.2531,-1.4402 -2.5801,-3.2629 -2.2985,-7.7285 0.9648,-10.3078 1.2442,-0.9844 2.8801,-1.5145 4.5016,-1.7696 l -0.2899,-1.7918 c -1.866,0.2813 -3.8836,0.9149 -5.3722,2.0926 -4.1813,3.3059 -5.3246,8.6504 -1.6809,13.2598 3.4188,4.3242 9.109,4.7305 13.2902,1.425 1.693,-1.3379 2.6758,-2.7785 3.4825,-4.6086 L 79.3004,47.8477 z M 97.5309,40.1484 91.859,30.4836 c -2.9543,-4.959 -6.8402,-4.3059 -9.8801,-2.5508 -3.3551,1.9375 -5.1984,4.9832 -2.4551,9.7344 0.7282,1.2605 1.5574,2.6433 2.5028,4.2293 l 3.166,5.3781 1.9359,-1.1184 -3.3609,-5.7156 C 82.9,38.9902 82.0195,37.5168 81.1875,36.0762 c -1.6512,-2.8594 -0.9066,-5.0008 1.8629,-6.6004 2.2516,-1.3 4.8957,-1.2961 6.9375,2.239 l 5.6062,9.552 1.9368,-1.1184 z m -2.1247,-18.7664 7.0468,16.5547 2.065,-0.8574 -6.3285,-14.8273 7.0835,-2.9422 -0.719,-1.7286 -9.1478,3.8008 z m 15.9568,12.786 13.025,-3.9981 -0.55,-1.789 -5.443,1.6699 -4.879,-15.3641 -2.137,0.6563 4.878,15.364 -5.443,1.6711 0.549,1.7899 z m 20.154,-5.3836 2.097,-0.3848 3.851,-18.62929 -2.331,-0.3125 -1.259,6.68089 -7.314,1.3429 -3.727,-5.7656 -1.929,1.0145 10.612,16.0539 z m 0.631,-2.1778 -0.051,0.0098 -4.431,-7.4348 5.806,-1.0652 -1.324,8.4902 z m 10.899,-14.9277 c 0.92,-0.7559 2.312,-1.4621 3.74,-1.5441 2.102,-0.1211 3.629,1.0664 3.744,3.0656 0.264,4.5684 -7.761,3.1562 -7.398,9.4375 0.16,2.7773 2.531,4.5937 5.724,4.4101 1.764,-0.1027 3.291,-0.7375 4.694,-1.6777 l -0.95,-1.5859 c -1.024,0.7625 -2.053,1.4472 -3.74,1.5437 -1.557,0.0899 -3.378,-0.7683 -3.504,-2.9492 -0.227,-3.9453 7.898,-3.5019 7.573,-9.1348 -0.154,-2.6738 -2.167,-5.05738 -6.112,-4.83004 -1.973,0.11446 -3.372,0.68946 -4.85,1.71214 l 1.079,1.5527 z m 23.812,15.2695 2.227,0.2039 1.488,-17.9316 -2.227,-0.2039 -1.488,17.9316 z m 21.946,3.5536 2.147,-10.9989 c 1.069,-5.6719 -2.276,-7.7558 -5.716,-8.4523 -3.797,-0.7684 -7.196,0.2941 -8.284,5.6711 -0.289,1.4265 -0.584,3.0117 -0.925,4.8261 l -1.187,6.127 2.191,0.4434 1.266,-6.509 c 0.31,-1.661 0.625,-3.3485 0.955,-4.9793 0.655,-3.2363 2.631,-4.3477 5.766,-3.7129 2.548,0.5156 4.527,2.2695 3.716,6.2703 l -2.121,10.8711 2.192,0.4434 z m 5.11,1.5324 5.121,1.8172 c 3.21,1.1398 5.974,0.2714 6.974,-2.5469 0.982,-2.7684 -0.33,-5.0547 -2.594,-6.2168 l 0.018,-0.0488 c 1.196,0.2031 2.708,-1.0254 3.723,-1.6309 l 5.006,-3.2996 -1.463,-1.7883 -5.923,4.0227 c -1.508,0.9824 -2.395,1.7703 -3.988,1.2058 l -1.348,-0.4785 2.476,-7.2879 -2.132,-0.7558 -5.87,17.0078 z m 4.928,-7.3555 2.107,0.7481 c 2.083,0.739 3.97,2.2636 3.101,4.7136 -0.644,1.8137 -2.239,3.041 -4.983,2.0672 l -2.523,-0.8961 2.298,-6.6328 z m 11.055,13.5742 2.024,0.95 7.507,-16.3515 -2.025,-0.9512 -7.506,16.3527 z m 7.254,3.4031 4.618,2.8157 c 5.926,3.614 10.576,1.3328 12.863,-2.4192 3.181,-5.2168 0.965,-10.2215 -4.008,-13.2539 l -4.24,-2.5847 -9.233,15.4421 z m 10.25,-12.8132 2.041,1.2449 c 4.373,2.6672 5.92,6.4726 3.349,10.6906 -2.355,3.8621 -6.378,4.5156 -10.484,2.0117 l -2.354,-1.4347 7.448,-12.5125 z m 6.46,23.7527 1.774,1.3621 10.84,-14.3601 -1.773,-1.3622 -10.841,14.3602 z m 17.877,11.8906 c -1.736,-0.2461 -3.026,-1.0008 -4.31,-2.216 -3.023,-2.859 -2.908,-7.3308 -0.049,-10.3531 2.858,-3.0227 7.317,-3.386 10.34,-0.5266 1.152,1.0899 1.912,2.6321 2.397,4.2004 l 1.733,-0.5449 c -0.547,-1.8059 -1.465,-3.7109 -2.844,-5.0156 -3.872,-3.6633 -9.326,-4.0266 -13.364,0.2429 -3.787,4.0039 -3.371,9.6946 0.501,13.3567 1.567,1.4832 3.134,2.2488 5.061,2.784 l 0.535,-1.9278 z m 4.812,10.0598 1.331,1.666 18.236,-5.4121 -0.826,-2.2012 -6.482,2.0489 -4.64,-5.8118 3.318,-6.0105 -1.805,-1.2199 -9.132,16.9406 z m 2.218,-0.4727 -0.033,-0.041 4.457,-7.4179 3.683,4.6113 -8.107,2.8476 z m 16.89,10.9032 c -2.014,1.1164 -2.736,3.6289 -1.62,5.6445 1.117,2.0148 3.629,2.7363 5.645,1.6203 2.015,-1.1172 2.736,-3.6289 1.62,-5.6445 -1.116,-2.0157 -3.629,-2.7364 -5.645,-1.6203 z M 13.9281,115.518 24.5695,119.03 c 5.4934,1.774 7.9809,-1.283 9.1043,-4.608 1.2399,-3.67 0.6129,-7.175 -4.5843,-8.931 -1.3793,-0.466 -2.9153,-0.958 -4.6719,-1.524 l -5.9289,-1.948 -0.7153,2.119 6.2981,2.072 c 1.6094,0.517 3.243,1.041 4.8195,1.574 3.1281,1.057 3.9828,3.157 2.959,6.187 -0.832,2.463 -2.8207,4.206 -6.6879,2.899 l -10.518,-3.472 -0.716,2.12 z m -1.5261,7.815 -1.1184,1.704 12.6406,12.334 -0.0086,0.052 -14.02537,-2.361 -0.39179,2.227 17.38866,2.9 1.0547,-1.794 -12.782,-12.28 0.0093,-0.051 14.1528,2.383 0.3922,-2.227 -17.3121,-2.887 z m -3.48872,21.555 -0.14922,2.231 17.96254,1.044 0.1488,-2.23 -17.96212,-1.045 z m -0.0789,7.702 -0.81016,2.212 15.89608,5.422 -15.47577,7.025 0.69336,2.058 17.46601,-8.186 -0.0703,-2.078 -17.69922,-6.453 z m 0.84179,22.402 1.44533,9.143 1.8492,-0.293 -1.1008,-6.959 6.0278,-1.006 1.0714,6.78 1.8489,-0.292 -1.0676,-6.754 6.1812,-1.03 1.1286,7.14 1.8492,-0.293 -1.486,-9.399 -17.74723,2.963 z m 2.87073,15.769 1.4804,5.228 c 0.9282,3.277 3.2348,5.03 6.1118,4.214 2.8265,-0.799 3.9324,-3.194 3.5703,-5.713 l 0.0504,-0.013 c 0.5257,1.093 2.4035,1.616 3.4843,2.093 l 5.5875,2.173 0.6122,-2.227 -6.7083,-2.504 c -1.6734,-0.662 -2.8296,-0.928 -3.2902,-2.554 l -0.3894,-1.376 7.3757,-2.197 -0.616,-2.177 -17.2687,5.053 z m 8.8508,-0.236 0.6085,2.151 c 0.6028,2.126 0.4504,4.547 -2.0511,5.256 -1.8512,0.524 -3.775,-0.066 -4.5684,-2.869 l -0.7297,-2.576 6.7407,-1.962 z m 10.8644,12.151 c 1.0188,0.617 2.1449,1.696 2.6957,3.016 0.8113,1.944 0.1965,3.778 -1.6512,4.549 -4.223,1.763 -5.5496,-6.277 -11.3562,-3.853 -2.5676,1.071 -3.4957,3.909 -2.2645,6.861 0.6813,1.631 1.786,2.86 3.1383,3.874 l 1.1813,-1.423 c -1.0582,-0.714 -2.0446,-1.457 -2.6953,-3.016 -0.6012,-1.44 -0.3942,-3.442 1.6214,-4.284 3.6469,-1.521 5.9215,6.291 11.1282,4.119 2.4714,-1.032 4.0539,-3.72 2.532,-7.367 -0.7613,-1.824 -1.7676,-2.954 -3.2223,-4.009 l -1.1074,1.533 z m -7.5297,20.527 1.0367,1.982 15.87,-8.478 -1.036,-1.982 -15.8707,8.478 z m 3.5879,6.868 7.3942,11.443 1.5722,-1.016 -3.0902,-4.783 13.4551,-8.879 -1.2141,-1.879 -13.4547,8.88 -3.0902,-4.782 -1.5723,1.016 z m 13.1367,18.725 1.3539,1.647 18.1571,-5.675 -0.8582,-2.19 -6.4528,2.143 -4.723,-5.743 3.2316,-6.059 -1.8234,-1.194 -8.8852,17.071 z m 2.2106,-0.505 -0.0332,-0.04 4.3496,-7.482 3.7488,4.558 -8.0652,2.964 z m 18.1195,0.383 c 1.1813,0.153 2.6477,0.685 3.6848,1.67 1.5269,1.45 1.7054,3.377 0.3269,4.829 -3.1508,3.318 -7.6125,-3.5 -11.9449,1.063 -1.916,2.017 -1.618,4.989 0.7008,7.191 1.282,1.217 2.7894,1.895 4.4359,2.275 l 0.5059,-1.778 c -1.2563,-0.225 -2.4594,-0.506 -3.6844,-1.67 -1.1312,-1.074 -1.7512,-2.989 -0.2473,-4.573 2.7215,-2.865 7.9582,3.362 11.8434,-0.73 1.8438,-1.941 2.2051,-5.041 -0.6605,-7.762 -1.4332,-1.361 -2.8102,-1.987 -4.5668,-2.365 l -0.3938,1.85 z m 11.0828,29.276 1.9781,1.202 12.5235,-10.162 -2.877,16.016 2.0668,1.255 11.7805,-13.898 -1.6781,-1.444 -9.9426,11.971 -0.0441,-0.027 3.0187,-15.747 -1.8227,-1.106 -12.2648,10.135 -0.0445,-0.027 5.875,-14.439 -2.034,-0.809 -6.5348,17.08 z m 27.8121,14.657 1.982,0.788 13.155,-13.741 -1.809,-1.502 -4.615,4.993 -6.909,-2.747 -0.098,-6.865 -2.173,-0.164 0.467,19.238 z m 1.691,-1.509 -0.048,-0.02 0.194,-8.652 5.485,2.179 -5.631,6.493 z m 16.049,-8.427 c 1.107,-0.439 2.648,-0.684 4.033,-0.325 2.038,0.528 3.128,2.127 2.626,4.064 -1.147,4.43 -8.354,0.629 -9.933,6.72 -0.697,2.693 1.004,5.149 4.1,5.95 1.711,0.443 3.358,0.307 4.983,-0.159 l -0.42,-1.801 c -1.208,0.412 -2.397,0.749 -4.032,0.325 -1.51,-0.391 -2.981,-1.765 -2.433,-3.879 0.991,-3.827 8.59,-0.918 10.005,-6.379 0.672,-2.593 -0.515,-5.479 -4.34,-6.47 -1.913,-0.495 -3.422,-0.376 -5.141,0.145 l 0.552,1.809 z m 17.476,19.284 2.114,0.274 9.358,-16.562 -2.124,-1.01 -3.239,5.978 -7.374,-0.956 -1.789,-6.63 -2.146,0.378 5.2,18.528 z m 1.266,-1.881 -0.051,-0.006 -1.947,-8.433 5.853,0.76 -3.855,7.679 z m 13.711,3.244 5.434,-0.02 c 3.406,-0.013 5.714,-1.764 5.702,-4.754 -0.011,-2.937 -2.02,-4.646 -4.543,-4.974 l 0,-0.052 c 1.195,-0.213 2.203,-1.88 2.953,-2.793 l 3.597,-4.798 -1.982,-1.189 -4.216,5.789 c -1.086,1.433 -1.654,2.476 -3.344,2.482 l -1.43,0.006 -0.134,-7.697 -2.261,0.009 0.224,17.991 z m 2.152,-8.588 2.235,-0.008 c 2.211,-0.008 4.502,0.789 4.511,3.389 0.007,1.924 -1.078,3.618 -3.99,3.629 l -2.678,0.01 -0.078,-7.02 z m 19.237,-2.685 -5.046,10.271 2.153,0.85 4.35,-9.579 6.945,8.123 1.788,-1.384 -7.972,-8.567 -1.139,-7.614 -2.218,0.287 1.139,7.613 z m 15.927,7.816 2.163,-0.57 -2.331,-8.527 -2.41,-8.83 -2.162,0.57 4.74,17.357 z m -0.168,-9.097 10.997,6.617 1.156,-1.731 -9.449,-5.546 5.454,-9.802 -2.013,-1.001 -6.145,11.463 z m 18.225,3.718 2.096,-0.779 -6.41,-16.812 -2.097,0.778 6.411,16.813 z m 14.062,-5.959 1.911,-0.943 -1.396,-18.972 -2.327,0.337 0.618,6.771 -6.667,3.293 -5.164,-4.526 -1.577,1.504 14.602,12.536 z m 0.01,-2.266 -0.047,0.022 -6.295,-5.937 5.292,-2.613 1.05,8.528 z m 13.168,-5.326 1.998,-0.401 -0.09,-17.661 0.043,-0.029 8.165,11.646 1.861,-1.286 -10.143,-14.419 -2.018,0.509 0.228,17.724 -0.042,0.029 -8.239,-11.752 -1.861,1.284 10.098,14.356 z m 22.084,-16.433 1.562,-1.451 -6.761,-17.781 -2.134,0.989 2.529,6.311 -5.448,5.062 -6.242,-2.86 -1.082,1.891 17.576,7.839 z m -0.637,-2.176 -0.039,0.035 -7.73,-3.889 4.323,-4.017 3.446,7.871 z m 17.33,-15.801 2.938,-4.035 c 2.326,-3.195 1.209,-5.68 -0.409,-6.859 -1.786,-1.301 -3.543,-1.229 -5.251,0.101 l -0.042,-0.031 c 1.011,-2.094 0.409,-4.14 -1.44,-5.487 -2.585,-1.882 -5.382,-1.089 -7.464,1.769 l -2.969,4.079 14.637,10.463 z m -11.918,-11.282 1.546,-2.123 c 1.346,-1.85 3.002,-2.445 5.02,-0.976 1.766,1.286 1.772,3.221 0.241,5.322 l -1.239,1.703 -5.568,-3.926 z m 6.955,4.936 0.995,-1.366 c 1.73,-2.375 3.457,-2.629 4.95,-1.543 1.618,1.179 1.843,2.725 0.144,5.058 l -1.056,1.451 -5.033,-3.6 z m 14.932,-8.086 2.632,-4.754 c 1.65,-2.981 1.246,-5.849 -1.37,-7.297 -2.57,-1.423 -5.041,-0.502 -6.557,1.541 l -0.046,-0.025 c 0.397,-1.148 -0.568,-2.84 -0.998,-3.941 l -2.436,-5.479 -2.004,1.15 2.998,6.503 c 0.722,1.648 1.354,2.652 0.536,4.131 l -0.692,1.251 -6.783,-3.637 -1.096,1.98 15.816,8.577 z m -6.448,-6.066 1.082,-1.957 c 1.071,-1.933 2.884,-3.545 5.159,-2.286 1.683,0.933 2.633,2.706 1.223,5.254 l -1.298,2.343 -6.166,-3.354 z m 20.426,-24.259 -10.496,-3.926 c -5.42,-1.988 -8.025,0.971 -9.277,4.249 -1.382,3.619 -0.893,7.145 4.232,9.104 1.36,0.519 2.875,1.07 4.609,1.704 l 5.848,2.179 0.798,-2.088 -6.212,-2.318 c -1.588,-0.579 -3.2,-1.167 -4.755,-1.761 -3.085,-1.178 -3.856,-3.311 -2.716,-6.298 0.928,-2.428 2.984,-4.093 6.797,-2.636 l 10.374,3.88 0.798,-2.089 z m 1.833,-7.752 1.184,-1.658 -12.151,-12.818 0.011,-0.05 13.923,2.905 0.477,-2.211 -17.261,-3.576 -1.124,1.753 12.294,12.768 -0.011,0.051 -14.05,-2.933 -0.479,2.211 17.187,3.558 z m 4.383,-21.452 0.775,-9.224 -1.865,-0.156 -0.591,7.02 -6.093,-0.46 0.576,-6.84 -1.866,-0.156 -0.573,6.814 -6.248,-0.473 0.605,-7.202 -1.865,-0.158 -0.797,9.483 17.942,1.352 z m 0.595,-16.051 0.724,-1.905 -15.001,-9.321 -0.002,-0.051 14.204,-0.717 -0.097,-2.26 -17.605,0.915 -0.643,1.98 15.127,9.237 0.002,0.051 -14.334,0.722 0.098,2.26 17.527,-0.911 z m -16.234,-19.006 c -0.855,-0.828 -1.715,-2.131 -1.959,-3.54 -0.359,-2.075 0.647,-3.727 2.619,-4.068 4.509,-0.783 4.019,7.351 10.219,6.276 2.741,-0.475 4.277,-3.036 3.73,-6.187 -0.302,-1.743 -1.107,-3.186 -2.201,-4.474 l -1.467,1.125 c 0.874,0.931 1.67,1.874 1.959,3.539 0.267,1.537 -0.379,3.443 -2.532,3.816 -3.893,0.675 -4.378,-7.447 -9.936,-6.484 -2.639,0.458 -4.778,2.728 -4.104,6.622 0.337,1.947 1.069,3.272 2.252,4.623 l 1.42,-1.248 z m 11.897,-18.346 -0.572,-2.162 -17.355,4.746 0.571,2.163 17.356,-4.747 z m -16.967,-3.827 c -0.987,-0.668 -2.058,-1.801 -2.541,-3.147 -0.713,-1.982 -0.007,-3.783 1.877,-4.461 4.306,-1.549 5.228,6.547 11.148,4.418 2.618,-0.943 3.688,-3.731 2.606,-6.74 -0.599,-1.664 -1.641,-2.947 -2.941,-4.027 l -1.251,1.363 c 1.022,0.765 1.97,1.557 2.541,3.147 0.528,1.468 0.222,3.457 -1.834,4.196 -3.719,1.338 -5.598,-6.579 -10.908,-4.67 -2.52,0.907 -4.234,3.513 -2.897,7.232 0.669,1.859 1.618,3.038 3.017,4.165 l 1.183,-1.476 z m -88.57,43.797 c 0.741,0.518 1.143,1.248 0.843,2.726 -0.063,0.312 -0.129,0.621 -0.195,0.926 l 74.785,22.824 -0.259,0.965 -77.226,-17.9 c -0.086,0.363 0.062,0.726 0.577,1.303 0.819,0.92 1.633,0.879 2.85,0.879 1.974,0 4.268,-0.289 5.525,1.468 1.037,1.452 1.722,4.371 1.719,6.157 0,0.249 -0.017,0.496 -0.044,0.742 l 55.333,34.537 -0.5,0.866 -57.033,-30.388 c -1.177,1.694 -1.893,3.584 -3.76,4.489 -0.698,0.339 -1.394,0.734 -2.119,1.043 l 44.993,48.199 -0.707,0.707 -48.461,-45.27 c -0.521,2.328 -0.928,4.686 -0.952,7.075 -0.024,2.275 0.226,4.722 -0.104,6.951 l 26.167,49.153 -0.866,0.5 -27.174,-43.572 c -0.043,0.583 -0.095,1.114 -0.367,1.745 -0.731,1.689 -2.19,3.443 -3.406,4.819 -1.209,1.368 -3.233,2.346 -5.026,2.625 -0.658,0.103 -1.242,0.054 -1.779,-0.007 l 10.562,45.647 -0.965,0.259 -13.464,-44.176 c -1.088,1.029 -2.67,1.899 -4.188,2.143 -1.017,0.163 -1.602,-0.542 -2.535,-0.651 -2.732,-0.316 -3.419,3.571 -4.029,5.462 -0.629,1.951 -2.114,7.736 0.674,8.761 1.979,0.727 4.083,-0.827 6.125,0.087 2.442,1.095 0.478,3.996 -0.223,5.531 -0.385,0.843 -0.325,1.961 0.25,2.819 0.523,0.779 1.637,0.947 2.133,1.617 1.142,1.542 0.039,4.17 -0.751,5.565 -0.872,1.538 -2.145,3.828 -3.909,4.097 -1.009,0.153 -1.87,-0.186 -2.75,-0.501 -1.467,-0.525 -1.909,-0.215 -3.485,0.272 0.08,1.126 -1.262,2.011 -2.168,2.2 -0.163,0.034 -0.328,0.048 -0.494,0.058 l -0.363,10.551 -1,0 -0.347,-10.198 c -0.295,0.143 -0.589,0.298 -0.894,0.37 -1.382,0.323 -2.179,-0.273 -3.215,-0.661 -1.6,-0.602 -3.279,-0.305 -4.842,-1.065 -1.413,-0.687 -2.518,-1.884 -3.72,-2.864 -1.415,-1.153 -3.27,-2.675 -3.719,-4.409 -0.575,-2.221 0.62,-4.117 1.374,-6.131 0.144,-0.383 0.192,-0.853 0.404,-1.247 0.254,-0.475 0.733,-0.769 0.971,-1.247 0.419,-0.841 0.197,-2.04 0.248,-3.003 0.175,-3.3 2.707,-5.466 5.066,-7.427 0.95,-0.789 3.293,-5.181 0.471,-5.085 -0.927,0.031 -1.614,1.564 -2.26,2.042 -1.842,1.361 -5.031,4.289 -7.437,3.379 -0.335,-0.127 -0.613,-0.28 -0.854,-0.447 l -10.421,34.146 -0.966,-0.259 8.903,-38.408 c -2.308,-3.453 -5.501,-5.378 -5.502,-9.941 -0.001,-2.086 0,-4.172 0,-6.257 0,-1.736 0.305,-3.915 -0.011,-5.645 l -30.5754,48.985 -0.8656,-0.5 26.155,-49.087 c -2.829,-0.746 -5.291,-2.248 -3.669,-4.969 1.021,-1.711 3.443,-1.391 5.091,-1.902 2.044,-0.634 1.896,-2.871 1.631,-4.875 -0.227,-1.714 -0.634,-3.418 -1.099,-5.114 l -51.4523,48.028 -0.7071,-0.707 50.3074,-53.855 c -0.062,-0.242 -0.128,-0.485 -0.187,-0.727 -0.366,-1.518 -0.389,-3.148 -0.379,-4.783 l -67.6511,36.015 -0.5,-0.866 70.3421,-43.87 c 0.409,-0.362 0.849,-0.647 1.318,-0.823 l 4.294,-2.677 -87.2104,20.181 -0.259,-0.966 85.6314,-26.099 -89.465,-3.08 0,-1 89.464,-3.045 -85.6171,-26.129 0.1297,-0.483 0.1293,-0.483 87.2051,20.215 -75.9379,-47.3992 0.25,-0.4336 0.25,-0.4328 79.0009,42.0946 -61.0822,-65.4364 0.3535,-0.3543 0.3536,-0.3535 60.8301,56.8262 c 0.016,-1.395 0.034,-2.806 0.053,-4.23 l -37.5335,-70.5044 0.4332,-0.2512 0.4332,-0.25 36.8521,59.0916 c 0.155,-8.842 0.347,-17.824 0.545,-26.2291 l -10.208,-44.1172 0.966,-0.2597 9.564,31.3816 c 0.164,-6.323 0.321,-11.9687 0.452,-16.5 0.108,-3.748 -1.25,-11.125 -1.25,-11.125 4.962,0 10.001,-0.407 14.877,-1.0301 1.768,-0.2265 3.54,-0.1425 5.306,0.0157 l 0.227,-6.5762 0.5,-0.0012 0.5,0 0.229,6.7219 c 0.08,0.0078 0.161,0.0144 0.241,0.0234 1.952,0.2039 14.72,0.1043 16.62,0.4102 0.529,4.4883 -5.646,11.1004 -4.75,15.5613 1.046,5.2102 -0.649,8.9758 0.714,14.1223 0.707,2.664 0.482,4.1484 1.033,6.8406 0.273,1.3371 0.652,2.377 1.128,3.6621 0.123,0.3359 0.248,0.6828 0.372,1.0305 l 13.588,-44.5246 0.483,0.1289 0.482,0.1289 -12.195,52.6133 c 0.063,0.339 0.127,0.6769 0.179,1.0078 0.209,1.339 0.214,2.7551 0.347,4.1186 0.152,1.563 0.774,2.986 1,4.497 0.366,2.437 -0.004,5.015 0.116,7.5 0.027,0.565 0.108,1.113 0.21,1.655 l 37.528,-60.1241 0.866,0.4992 -36.796,69.0569 c 0.012,1.456 -0.091,2.928 -0.461,4.035 -0.294,0.88 -0.771,1.545 -1.055,2.378 l 61.654,-57.55 0.708,0.7059 -61.107,65.4141 79.015,-42.0634 0.501,0.8653 -74.183,46.2641 c 0.244,0.17 0.475,0.348 0.692,0.534 l 84.746,-19.609 0.26,0.966 -82.061,25.01 c -0.008,0.402 -0.026,0.806 -0.032,1.209 l 85.929,2.957 0,1 -79.28,2.699 z m 61.055,53.557 -52.586,-32.831 c -0.143,0.707 -0.388,1.391 -0.698,2.049 l 53.284,30.782 z M 122.868,174.979 57.5844,212.646 122.887,177.894 c 0.002,-0.307 0.006,-0.614 0.006,-0.919 0,-0.684 -0.027,-1.349 -0.025,-1.996 z m 1.515,12.445 -48.7631,48.736 49.5011,-46.193 c -0.241,-0.85 -0.489,-1.697 -0.738,-2.543 z m 52.861,-68.5 35.441,-61.3459 -36.289,58.1229 c 0.256,1.087 0.583,2.149 0.848,3.223 z m 4.424,94.656 c 0.532,0.45 1.69,-0.303 2.013,-0.696 1.173,-1.433 0.613,-3.704 0.596,-5.384 -0.024,-2.234 -0.427,-4.312 -1.016,-6.494 -0.426,2.2 -0.374,4.29 -0.493,6.597 -0.058,1.113 -2.161,5.076 -1.1,5.977 z m -2.779,-66.359 c -1.116,0.054 -3.656,1.945 -1.394,2.4 0.055,0.924 -0.214,2.32 -0.034,3.408 0.057,0.345 0.158,0.659 0.329,0.916 0.633,0.96 1.168,0.721 1.605,-0.347 0.604,-1.47 0.617,-3.135 0.623,-4.748 0.003,-1.173 0.204,-1.691 -1.129,-1.629 z m -2.039,66.694 c 0.341,-0.044 0.727,-0.194 1.168,-0.473 1.695,-1.077 1.659,-5.183 1.438,-6.868 -0.353,-2.693 -1.384,-5.23 -2.036,-7.853 -0.565,-2.27 -1.069,-4.427 -1.275,-6.775 -0.206,-2.371 0.357,-5.38 -0.524,-7.575 -1.309,-0.23 -1.134,1.418 -1.226,2.256 -0.523,4.768 -0.377,9.727 -0.377,14.597 0,2.428 0.375,4.714 0.375,7.125 0,1.467 0.184,5.86 2.457,5.566 z m 8.415,51.647 -9.931,-42.943 c -0.537,-0.049 -1.032,-0.046 -1.516,0.176 l 11.447,42.767 z m -23.247,-7.587 0.125,-0.125 c 1.714,-0.121 3.062,-1.721 2.353,-3.479 -0.838,-0.125 -1.298,0.697 -2.103,0.603 -0.765,-0.089 -0.916,-1.193 -1.715,-0.718 -1.259,0.747 0.1,3.662 1.34,3.719 z m -2.875,-8.875 -0.125,-0.125 c 0.63,0.954 2.367,1.147 2.881,0.005 0.537,-1.189 -0.226,-2.695 -0.731,-3.413 -0.872,-1.236 -1.57,-1.608 -2.272,0.036 -0.457,1.071 -0.311,2.454 0.247,3.497 z m 1.28,-42.126 c 0.24,-0.555 0.222,-2.529 -0.125,-2.999 -0.756,-1.023 -1.686,0.16 -1.905,1 -0.182,0.696 -0.586,2.207 0,2.757 0.041,0.038 0.087,0.073 0.139,0.101 0.645,0.358 1.659,-0.322 1.891,-0.859 z m -3.155,23.876 c -0.185,0.3 -0.161,1.889 0.524,1.974 0.927,0.115 0.528,-1.601 0.478,-2.1 -0.129,-1.294 0.187,-4.747 -1.731,-4.727 -0.67,1.659 0.528,3.283 0.729,4.853 z m -1.125,31.059 c -0.087,0.006 -0.172,0.02 -0.258,0.032 l -0.002,7.483 0.26,-7.515 z m -6.25,-34.434 c -0.123,0.192 -0.2,0.435 -0.255,0.7 l -0.245,0.675 c 0.079,-0.215 0.155,-0.418 0.231,-0.618 -0.183,0.97 -0.004,2.271 0.038,3.098 3.262,0.169 5.534,-4.564 5.086,-7.468 -1.365,0.446 -2.279,0.54 -3.386,1.581 -0.921,0.867 -1.33,1.723 -1.738,2.789 0.004,-0.019 0.01,-0.037 0.014,-0.057 l 0.255,-0.7 z m 4.487,10.976 c -0.324,-0.661 -0.909,-1.189 -1.244,-1.851 -0.403,-0.798 -0.436,-1.676 -1.212,-2.286 -0.596,-0.466 -1.557,-0.765 -2.284,-0.246 -0.922,0.66 -0.461,1.661 0.753,1.407 l -1.125,-0.375 c 1.024,0.124 1.952,0.605 2.778,1.212 0.819,0.602 1.468,1.937 2.334,2.139 z m -7.71,-0.726 c -1.019,1.29 -2.957,2.192 -2.777,4.125 0.131,1.406 0.831,1.529 2,1.88 0.974,0.295 2.031,1.123 0.506,1.875 -0.452,0.223 -1.258,-0.076 -1.763,0.116 -0.443,0.169 -0.564,0.531 -0.997,0.757 -0.774,0.403 -1.739,0.435 -2.243,1.366 -0.922,1.7 -0.123,4.643 1.865,4.756 2.647,0.149 1.476,-3.846 3.784,-3.253 2.046,0.525 0.019,4.29 2.598,5.128 l -0.125,0 c 2.848,1.81 2.475,-2.871 2.625,-4.375 0.111,-1.113 0.375,-2.112 -0.095,-3.157 -0.586,-1.303 -1.614,-0.751 -2.408,-1.465 -1.275,-1.147 0.46,-4.277 0.103,-5.878 -0.127,-0.569 -0.727,-2.258 -1.125,-2.629 -0.942,-0.876 -1.394,0.052 -1.948,0.754 z m -2.402,-13.25 0,-0.25 c 0.008,2.761 3.555,-0.547 4.25,-1.276 1.462,-1.531 2.523,-3.119 2.355,-5.33 -1.777,-0.128 -7.889,5.219 -6.605,6.856 z m 0.113,-7.33 c 0.092,0.14 0.201,0.246 0.331,0.313 1.348,0.688 2.688,-1.683 3.333,-2.491 0.613,-0.768 1.376,-1.012 2.129,-1.586 0.989,-0.755 0.847,-1.147 1.087,-2.281 0.178,-0.842 0.953,-1.984 0.632,-2.875 -0.357,-0.989 -1.822,-0.625 -2.903,-0.625 -2.626,0 -4.56,0.079 -4.722,3.125 -0.059,1.096 -0.726,5.142 0.113,6.42 z m -5.988,14.455 0.125,0 c 0.149,1.153 1.449,0.478 2.003,0.003 0.744,-0.637 1.02,-1.447 1.122,-2.378 0.137,-1.262 0.318,-4.213 -0.123,-5.379 -0.759,-2.01 -2.501,0.895 -3.033,1.974 -0.671,1.358 -0.597,4.372 -0.094,5.78 z m -11.889,33.951 9.63,-31.541 c -0.375,-0.402 -0.609,-0.87 -0.803,-1.369 l -8.827,32.91 z m 5.764,-41.326 -0.125,-0.25 c 0.341,0.313 0.895,0.315 1.355,0.102 -0.048,-0.809 -0.085,-1.839 0.895,-1.856 0.982,-0.017 0.982,1.304 1.98,1.109 0.167,-1.984 -0.82,-2.98 -1.765,-4.35 -0.629,-0.912 -0.846,-4.471 -1.71,-4.889 -1.54,-0.746 -1.255,3.817 -1.255,4.634 0,1.555 -0.515,4.332 0.625,5.5 z m -33.141,29.98 28.792,-46.114 c -0.571,-0.005 -1.289,-0.052 -2.065,-0.148 l -26.727,46.262 z m 30.234,-80.352 c -1.06,-2.447 -3.209,-1.342 -3.749,0.872 -0.484,1.982 -0.114,4.569 -0.094,6.628 0.02,2.188 0.391,4.31 0.909,6.372 0.726,2.894 1.241,5.839 1.969,8.749 0.245,0.976 0.319,2.474 1.042,3.246 0.648,0.692 1.607,0.741 2.025,0.21 0.129,-0.164 0.207,-0.381 0.208,-0.651 0.004,-0.488 -0.614,-1.405 -0.725,-1.958 -0.15,-0.742 -0.175,-1.508 -0.183,-2.262 -0.015,-1.322 0.13,-2.639 0.13,-3.959 0,-3.018 0.555,-6.647 -0.06,-9.598 -0.231,-1.113 -0.636,-2.034 -0.732,-3.214 -0.122,-1.496 -0.132,-3.033 -0.74,-4.435 z m -86.9997,-17.957 92.2677,3.188 c -0.007,-0.999 -0.013,-2.059 -0.018,-3.162 l -92.2497,-0.026 z m 3.8711,-29.386 88.3706,26.98 c -0.003,-1.055 -0.005,-2.148 -0.006,-3.277 L 46.2324,126.51 z M 57.5777,99.1262 134.598,147.213 c 10e-4,-1.167 0.004,-2.361 0.007,-3.587 L 57.5777,99.1262 z M 75.6234,75.6113 134.629,138.84 c 0.004,-0.617 0.009,-1.238 0.014,-1.865 0.005,-0.757 0.012,-1.522 0.019,-2.292 L 75.6234,75.6113 z m 59.0246,85.9937 -88.3992,23.661 88.4302,-20.45 c -0.011,-0.962 -0.021,-2.036 -0.031,-3.211 z m 0.075,6.534 -4.141,2.388 c 0.623,0.739 1.062,1.635 1.287,2.586 l 2.86,-1.521 c 0.037,-0.367 0.059,-0.766 0.039,-1.242 -0.009,-0.2 -0.026,-0.968 -0.045,-2.211 z m -2.743,5.586 c 0.052,0.384 0.077,0.772 0.057,1.159 l 2.21,-2.366 -2.267,1.207 z M 99.1406,57.5695 134.78,124.536 c 0.023,-1.675 0.048,-3.366 0.075,-5.069 L 99.1406,57.5695 z m 27.3864,-11.341 9.023,39.0188 c 0.04,-1.6485 0.079,-3.2696 0.119,-4.8606 L 126.527,46.2285 z M 139.518,164.6 c 0.75,-75.3754 -0.875,-110.0004 -0.875,-110.0004 l -0.625,-0.25 c 0,0 -0.407,21.4844 -0.75,47.8754 -0.546,42.005 -1.125,96.823 -1.125,100.125 0,0 -4.25,-0.5 -9.625,0.125 -2.496,0.29 -2.375,1.25 -1.625,2.875 0.75,1.625 3,-0.125 8.875,0.375 2.491,0.212 2.625,1.375 2.75,2.75 0.125,1.375 -0.125,4.75 0,8.125 0.125,3.375 1.102,4.625 2.5,4.625 2.625,0 2.625,-1.25 2.5,-7.125 -0.107,-5.013 -0.5,-6.875 0.375,-7.875 1.35,-1.543 7.375,-0.625 8.75,0 1.375,0.625 3.375,1.375 4.25,1.875 0.875,0.5 1,-0.125 1,-0.875 0,-0.75 -0.625,-1.25 -1.125,-1.625 -0.5,-0.375 -0.875,-1.5 -0.25,-2.5 0.625,-1 0.875,-2.125 0.875,-2.125 0,0 -1.25,0.375 -3.625,0.75 -2.375,0.375 -4.5,-0.375 -7.625,0.5 -3.125,0.875 -3.875,1.625 -3.875,0.375 0,-0.412 -0.964,-16.534 -0.75,-38 z m 2.754,-106.1105 c -0.103,-0.5704 -1.349,-2.8977 -1.104,-3.3235 -1.368,2.3828 -0.695,5.084 -0.204,7.6094 0.241,1.2355 0.56,2.5773 0.414,3.8437 -0.097,0.8418 -0.735,1.9551 -0.073,2.6817 0.061,0.0664 0.132,0.1301 0.216,0.1894 1.281,-1.6668 0.872,-4.4363 0.872,-6.5156 0,-1.4863 0.146,-3.0137 -0.121,-4.4851 z m 4.023,85.4855 c -0.137,-1.364 -0.774,-2.525 -0.95,-3.862 -0.265,-2.008 -0.658,-4.014 -0.835,-6.02 -0.083,-0.939 -0.898,-6.154 -1.612,-3.507 -0.717,2.662 -0.012,5.677 0.112,8.381 0.149,3.222 0.094,6.437 -0.012,9.648 0,6.658 0.391,13.305 0.809,19.949 0.262,4.169 -0.716,8.369 0.079,12.563 0.408,2.154 0.507,4.186 0.507,6.444 0,1.749 0.301,3.503 0.066,5.249 -0.063,0.462 -0.699,3.844 -0.293,4.008 1.909,0.77 3.281,-0.424 4.382,-1.819 0.768,-0.972 2.18,-3.405 3.573,-3.138 0.377,0.648 0.384,1.822 1.049,2.325 1.01,0.764 1.75,0.074 2.253,-0.819 0.987,-1.75 1.22,-3.549 1.22,-5.652 0,-4.334 0.568,-9.086 0.006,-13.375 -0.106,-0.81 -0.517,-2.101 -1.094,-2.661 -1.034,-1.002 -1.563,-0.446 -2.287,0.411 -0.516,0.608 -1.391,1.81 -2.375,1.624 -1.036,-0.195 -0.797,-1.54 -0.75,-2.499 0.104,-2.154 0.818,-4.079 1.222,-6.125 0.418,-2.118 0.395,-4.596 0.18,-6.75 -0.273,-2.743 -0.75,-5.473 -0.675,-8.204 0.053,-1.983 0.225,-5.104 -1.737,-6.321 -0.417,2.09 0.222,4.624 -0.268,6.775 -0.573,2.512 -3.361,1.851 -3.07,-0.75 0.225,-2 0.716,-3.737 0.5,-5.875 z m 0.611,-9.511 c 0.07,1.239 -0.118,2.957 0.255,4.132 0.241,0.756 0.599,1.41 1.109,0.132 0.393,-0.987 0.248,-2.541 0.248,-3.601 0,-0.977 -0.177,-2.237 0.118,-3.152 0.415,-1.286 0.857,-1.149 1.726,-1.095 1.173,0.072 1.487,-0.013 1.406,-1.53 -0.05,-0.935 -0.512,-1.875 -0.778,-2.75 -0.62,-2.038 -0.597,-4.075 -0.597,-6.25 0,-2.82 0.407,-5.943 0.075,-8.705 -0.139,-1.153 -0.31,-2.459 -0.775,-3.533 -0.045,-0.103 -1.382,-1.859 -1.406,-1.368 -0.081,1.581 -0.123,3.154 -0.16,4.725 -0.103,4.332 -0.163,8.636 -0.857,13.003 -0.525,3.309 -0.551,6.661 -0.364,9.992 z m 2.859,-71.6015 c -0.188,0.3594 -0.3,0.8699 -0.345,1.2645 -0.271,2.38 -0.027,4.9367 -0.027,7.341 0,1.166 0.074,2.284 -0.278,3.3543 -0.326,0.9875 -0.667,1.6757 -0.722,2.7773 -0.118,2.3535 0.239,4.7805 0,7.125 -0.112,1.0949 -0.743,1.8625 -0.979,2.7774 -0.511,1.9796 0.386,3.7832 0.479,5.716 0.113,2.3679 -0.284,4.8648 0.28,7.136 0.284,1.14 1.115,1.806 1.685,2.773 0.534,0.905 0.788,1.932 1.306,2.826 0.183,0.027 0.415,0.055 0.604,0.022 l 0.25,-0.125 c 0,-2.47 0,-4.94 0,-7.4094 0,-2.3468 -0.542,-4.2402 -0.869,-6.466 -0.308,-2.0957 -0.485,-4.1707 -0.381,-6.375 0.099,-2.1211 0.625,-4.0906 0.625,-6.25 0,-3.0223 0.175,-6.1504 -0.119,-9.125 -0.145,-1.4746 -0.024,-6.4961 -1.509,-7.3621 z m 6.023,-16.8449 c 0.042,0.0051 0.083,0.009 0.125,0.0129 l 10e-4,-3.668 -0.126,3.6551 z m 6.355,32.207 c 0,-5.2859 -0.299,-10.5664 -2.216,-15.5527 -1.355,1.8117 -0.904,4.3633 -0.784,6.457 0.131,2.2961 -0.614,4.1301 -0.75,6.3457 -0.237,3.8371 -0.142,7.7883 1.955,11.1692 0.171,0.2753 0.322,0.4902 0.459,0.6492 0.738,0.8664 1.004,0.1144 1.211,-1.291 0.367,-2.4961 0.125,-5.2266 0.125,-7.7774 z m -1.107,96.9804 c -0.516,-0.139 0.541,-3.667 0.576,-4.06 0.112,-1.243 -0.094,-2.674 -0.145,-3.94 -0.116,-2.932 -0.496,-5.863 -1.606,-8.6 -1.457,-3.59 -3.704,-6.65 -4.968,-10.248 -0.304,-0.866 -0.764,-2.082 0.093,-2.761 1.04,-0.823 1.538,0.297 1.937,1.101 0.604,1.22 1.874,4.541 3.845,2.374 1.397,-1.537 0.17,-4.363 -0.257,-5.971 -0.529,-2.003 -1.092,-4.039 -1.487,-6.132 -0.949,-5.036 -1.244,-10.199 -1.136,-15.318 0.098,-4.675 0.872,-9.316 1.217,-13.976 0.307,-4.123 -0.508,-8.0588 -1.465,-12.0529 -0.74,-3.0848 -1.529,-5.9344 -1.749,-9.084 -0.241,-3.4363 -0.748,-6.8594 -0.623,-10.3125 0.158,-4.3906 1,-8.4141 1,-12.875 0,-2.168 0.221,-4.4695 0.006,-6.625 -0.219,-2.1953 -0.985,-4.3926 -1.541,-6.5 -0.407,-1.5457 -1.532,-4.3184 -3.687,-2.9648 -1.825,1.1457 -0.772,3.8566 -0.41,5.4648 0.393,1.7442 1.073,3.2871 1.482,5.0274 0.724,3.0878 0.842,6.5566 1.152,9.6984 0.474,4.7898 0.498,9.782 0.498,14.6523 0,4.4383 -0.202,8.8614 0.88,13.2051 1.101,4.4141 0.995,9.3232 0.995,13.8632 0,2.619 -0.005,5.262 -0.369,7.804 -0.182,1.268 -0.438,2.517 -0.637,3.747 -0.344,2.126 -0.994,4.1 -0.994,6.253 0,2.294 0,4.587 0,6.882 0,2.179 0.786,4.37 0.5,6.493 -0.184,1.358 -0.803,1.085 -1.528,1.979 -0.94,1.159 -0.184,4.069 -0.034,5.424 0.241,2.177 0.737,4.327 1.586,6.35 0.931,2.214 2.587,4.068 3.393,6.34 0.823,2.319 1.447,4.809 1.583,7.282 0.132,2.429 -0.041,4.838 -0.186,7.253 -0.15,2.493 0.436,4.992 0.436,7.497 0,2.065 -0.545,4.138 -0.375,6.125 0.077,0.896 0.587,2.212 1.777,1.661 0.697,-0.323 1.066,-1.963 1.223,-2.533 0.546,-2.007 0.829,-3.843 1.714,-5.76 0.569,-1.229 1.424,-2.415 1.632,-3.772 0.244,-1.591 0.327,-2.427 1.12,-3.852 1.004,-1.8 0.73,-4.266 -1.788,-2.614 -1.186,0.779 -1.87,3.958 -3.66,3.475 z m 6.234,-89.7331 c -0.149,-1.3821 -0.749,-2.7266 -1.103,-4.0949 -0.295,-1.1387 -0.439,-2.9278 -1.253,-3.7676 -0.14,2.4551 0.104,4.8918 0.104,7.3652 0,1.8352 0.604,3.5195 0.889,5.3078 0.105,0.6641 -0.332,2.3817 0.288,2.8457 0.797,0.5977 1.073,-2.7988 1.073,-3.4035 0,-1.3887 0.151,-2.873 0.002,-4.2527 z m 1.519,8.6492 c -0.394,0.625 -0.536,2.6125 -0.277,3.3535 0.277,0.7957 1.718,1.5149 1.256,2.375 l 0.125,-0.125 c 1.377,-0.2539 0.381,-5.7976 -1.104,-5.6035 z m 2.729,34.8539 c -0.212,-2.35 -0.811,-4.711 -1.119,-7.007 -0.151,-1.129 -0.417,-2.202 -0.534,-3.34 -0.095,-0.921 0.248,-2.588 -0.58,-3.146 -0.733,2.141 -1.916,4.047 -2.149,6.368 -0.424,4.233 0.193,8.648 0.384,12.747 0.195,4.163 0.911,8.25 1.123,12.378 0.175,3.425 -0.523,6.705 -1.123,10 -0.233,1.287 -0.127,2.677 -0.127,4 0,1.098 -0.577,10.463 2.187,9.012 1.264,-0.664 0.69,-3.899 0.548,-4.99 -0.366,-2.819 0.089,-5.008 0.397,-7.765 0.321,-2.865 0.118,-5.757 0.118,-8.632 0,-2.001 0,-4.002 0,-6.003 0,-1.12 -0.057,-2.259 0,-3.379 0.074,-1.462 0.645,-2.869 0.777,-4.339 0.177,-1.965 0.275,-3.934 0.098,-5.904 z m -1.157,54.971 c -1.193,1.604 -2.029,3.345 -3.032,5.052 -0.746,1.27 -1.667,3.083 -0.939,4.604 0.058,0.123 0.122,0.218 0.188,0.289 0.934,1.003 2.581,-2.715 2.914,-3.33 0.861,-1.588 1.545,-3.307 2.494,-4.843 1.576,-2.55 5.337,-4.648 4.407,-8.118 -0.602,-2.243 -2.265,0.195 -2.854,1.011 -1.213,1.683 -1.939,3.672 -3.178,5.335 z m 14.94,-137.7124 -12.962,42.4551 c 0.298,0.8718 0.586,1.7664 0.856,2.6738 L 185.301,46.2336 z M 174.789,157.246 c -0.952,0.111 -0.64,5.006 -0.292,7.572 0.099,0.734 0.2,1.277 0.276,1.464 0.92,-0.219 1.621,-1.8 1.844,-2.686 0.318,-1.248 0.001,-6.564 -1.828,-6.35 z m 61.41,-81.6218 -60.117,56.1028 c -0.173,1.248 -0.341,2.819 -0.366,4.348 l 60.483,-60.4508 z m 18.043,23.5176 -77.631,41.3142 c 0.567,0.501 1.394,0.655 2.198,1.112 0.291,0.166 0.57,0.382 0.849,0.608 l 74.584,-43.0342 z m -71.756,80.2172 c -1.516,2.975 0.983,5.026 0.907,7.991 l 0,-0.5 c -0.012,0.207 -0.007,0.415 0.028,0.615 1.884,-2.277 -0.105,-5.979 -0.935,-8.106 z m 83.097,-52.832 -81.499,18.848 c 0.536,0.572 0.993,1.264 1.399,2.215 0.05,0.117 0.1,0.224 0.15,0.337 l 79.95,-21.4 z m -0.033,58.781 -71.885,-21.949 c -0.205,0.849 -0.458,1.666 -0.814,2.448 l 72.699,19.501 z m -29.391,50.883 -43.115,-46.201 c -0.228,0.074 -0.457,0.148 -0.694,0.19 -1.056,0.188 -1.569,0.015 -1.914,0.262 l 45.723,45.749 z m -45.345,-48.766 c 0.397,0.383 1.002,0.416 1.886,-0.249 1.687,-1.27 0.87,-3.33 1.69,-4.946 0.743,-1.46 2.005,-2.051 2.475,-3.755 0.308,-1.118 1.067,-3.368 0.631,-4.481 -3.012,0.004 -4.38,4.275 -5.566,6.379 -0.756,1.343 -1.338,2.189 -1.662,3.727 -0.202,0.952 -0.14,2.662 0.546,3.325 z m 21.832,66.802 -24.414,-45.875 c -0.136,0.571 -0.306,1.128 -0.558,1.653 -0.081,0.168 -0.168,0.333 -0.256,0.498 l 25.228,43.724 z M 186.52,153.063 c 0.021,0.226 0.051,0.449 0.12,0.665 0.223,0.701 0.795,1.472 1.476,2.177 l 81.308,0.023 -82.904,-2.865" /><path
       id="path3003"
       style="fill:#ffffff;fill-opacity:0.74509805;fill-rule:nonzero;stroke:none"
       d="m 293.1901,68.779563 c -0.71004,-1.139801 -1.43834,-2.278686 -2.17465,-3.398706 0.27669,-0.665541 0.42874,-1.403342 0.42874,-2.175099 0,-3.054902 -2.38957,-5.458098 -5.37255,-5.458098 -0.1212,0 -0.2504,0.01829 -0.37045,0.02722 -0.80035,-1.076801 -1.60411,-2.170983 -2.43075,-3.229948 0.88494,-0.290295 1.82706,-0.454594 2.8012,-0.454594 4.98383,0 9.0347,4.108837 9.0347,9.115428 0,2.090148 -0.73289,4.023658 -1.91624,5.573805 z"
       inkscape:connector-curvature="0" /><path
       id="path3005"
       style="fill:#ffffff;fill-opacity:0.74509805;fill-rule:nonzero;stroke:none"
       d="m 17.929786,68.493726 c -1.066525,-1.501097 -1.687326,-3.323245 -1.687326,-5.287968 0,-5.006591 4.077178,-9.115428 9.061897,-9.115428 0.853038,0 1.673926,0.142918 2.455916,0.370214 -0.839158,1.075888 -1.670312,2.188362 -2.483162,3.287116 -2.970454,0.01383 -5.377285,2.411314 -5.377285,5.458098 0,0.62884 0.09826,1.240757 0.285836,1.799853 -0.763721,1.155921 -1.52297,2.3131 -2.255876,3.488115 z"
       inkscape:connector-curvature="0" /><path
       id="path3007"
       style="fill:#ffffff;fill-opacity:0.74509805;fill-rule:nonzero;stroke:none"
       d="m 16.228615,39.575115 0,-18.079478 18.258182,0 0,18.079478 -18.258182,0 z m 3.644856,-3.644753 10.932786,0 0,-10.754184 -10.932786,0 0,10.754184 z"
       inkscape:connector-curvature="0" /><path
       id="path3009"
       style="fill:#ffffff;fill-opacity:0.74509805;fill-rule:nonzero;stroke:none"
       d="m 49.001555,32.049622 c -0.09387,-0.523424 -0.173788,-1.049591 -0.173788,-1.59931 0,-5.011051 4.077165,-9.119544 9.061918,-9.119544 1.31256,0 2.559148,0.28938 3.688658,0.799426 -1.312673,0.932969 -2.608311,1.888805 -3.889657,2.858361 -2.371525,0.08941 -4.341622,1.687348 -4.971261,3.916869 -1.255507,1.031754 -2.497066,2.081231 -3.71587,3.144198 z"
       inkscape:connector-curvature="0" /><path
       id="path3011"
       style="fill:#ffffff;fill-opacity:0.74509805;fill-rule:nonzero;stroke:none"
       d="m 262.31979,32.392625 c -1.17879,-1.031182 -2.36672,-2.05802 -3.57295,-3.058447 -0.49963,-2.505981 -2.65256,-4.345623 -5.26054,-4.345623 -0.0765,0 -0.15206,0 -0.22867,0 -1.22794,-0.929425 -2.46047,-1.849017 -3.71586,-2.743112 1.19708,-0.588594 2.53252,-0.914675 3.94453,-0.914675 4.98385,0 9.03471,4.108493 9.03471,9.119544 0,0.665426 -0.0675,1.313473 -0.20123,1.942313 z"
       inkscape:connector-curvature="0" /><path
       id="path3013"
       style="fill:#ffffff;fill-opacity:0.74509805;fill-rule:nonzero;stroke:none"
       d="m 276.98203,39.575115 0,-18.079478 18.25807,0 0,18.079478 -18.25807,0 z m 3.64498,-3.644753 10.93266,0 0,-10.754184 -10.93266,0 0,10.754184 z"
       inkscape:connector-curvature="0" /><path
       id="path3015"
       style="fill:#ffffff;fill-opacity:0.74509805;fill-rule:nonzero;stroke:none"
       d="m 48.778602,7.1685026 0,-18.0800486 18.25784,0 0,18.0800486 -18.25784,0 z m 3.680197,-3.6453246 10.932775,0 0,-10.75407 -10.932775,0 0,10.75407 z"
       inkscape:connector-curvature="0" /><path
       id="path3017"
       style="fill:#ffffff;fill-opacity:0.74509805;fill-rule:nonzero;stroke:none"
       d="m 88.044486,6.8102933 c -3.809629,-1.0848052 -6.631403,-4.613167 -6.631403,-8.7751691 0,-5.0065912 4.077167,-9.1154282 9.061921,-9.1154282 4.98384,0 9.030136,4.108837 9.030136,9.1154282 0,1.6248063 -0.4515,3.1571168 -1.196846,4.4876268 -3.4792,1.3139312 -6.90478,2.7520299 -10.263808,4.2875423 z M 90.475004,3.523178 c 2.97853,0 5.37281,-2.4340664 5.37281,-5.4880538 0,-3.0549026 -2.39429,-5.4580982 -5.37281,-5.4580982 -2.983906,0 -5.404591,2.4031956 -5.404591,5.4580982 0,3.0539874 2.420685,5.4880538 5.404591,5.4880538 z"
       inkscape:connector-curvature="0" /><path
       id="path3019"
       style="fill:#ffffff;fill-opacity:0.74509805;fill-rule:nonzero;stroke:none"
       d="m 113.91357,-2.4517119 0,-8.4598341 18.26618,0 0,4.7439647 c -1.22795,0.1782477 -2.44334,0.3703287 -3.66224,0.5716718 l 0,-1.6256065 -10.91529,0 0,3.8274591 c -1.23275,0.2938399 -2.46984,0.6199221 -3.68865,0.942345 z"
       inkscape:connector-curvature="0" /><path
       id="path3021"
       style="fill:#ffffff;fill-opacity:0.74509805;fill-rule:nonzero;stroke:none"
       d="m 162.81795,-7.650271 c -2.42961,-0.112161 -4.88551,-0.201457 -7.34256,-0.201457 -2.27755,0 -4.52421,0.07546 -6.77546,0.17013 1.66128,-2.072769 4.22123,-3.398706 7.0613,-3.398706 2.84921,0 5.40459,1.335312 7.05672,3.430033 z"
       inkscape:connector-curvature="0" /><path
       id="path3023"
       style="fill:#ffffff;fill-opacity:0.74509805;fill-rule:nonzero;stroke:none"
       d="m 197.35039,-2.3623028 c -1.21881,-0.3260811 -2.42961,-0.6485051 -3.66215,-0.9469174 l 0,-3.9122958 -10.9155,0 0,1.6836885 c -1.22337,-0.205459 -2.4559,-0.3929677 -3.68843,-0.5716718 l 0,-4.8020467 18.26608,0 0,8.5492432 z"
       inkscape:connector-curvature="0" /><path
       id="path3025"
       style="fill:#ffffff;fill-opacity:0.74509805;fill-rule:nonzero;stroke:none"
       d="M 223.01733,6.8688317 C 219.72106,5.3552724 216.38936,3.9305506 212.98218,2.63983 c -0.79462,-1.3630956 -1.28626,-2.9307351 -1.28626,-4.6047058 0,-5.0065912 4.07718,-9.1154282 9.06216,-9.1154282 4.98384,0 9.03471,4.108837 9.03471,9.1154282 0,4.2250009 -2.88008,7.8113295 -6.77546,8.8337075 z M 220.75808,3.523178 c 2.98298,0 5.37257,-2.4340664 5.37257,-5.4880538 0,-3.0549026 -2.38959,-5.4580982 -5.37257,-5.4580982 -2.97956,0 -5.40001,2.4031956 -5.40001,5.4580982 0,3.0539874 2.42045,5.4880538 5.40001,5.4880538 z"
       inkscape:connector-curvature="0" /><path
       id="path3027"
       style="fill:#ffffff;fill-opacity:0.74509805;fill-rule:nonzero;stroke:none"
       d="m 244.21836,7.1685026 0,-18.0800486 18.25806,0 0,18.0800486 -18.25806,0 z m 3.68042,-3.6453246 10.93381,0 0,-10.75407 -10.93381,0 0,10.75407 z"
       inkscape:connector-curvature="0" /><path
       id="path3029"
       style="fill:#ffffff;fill-opacity:0.74509805;fill-rule:nonzero;stroke:none"
       d="m 286.06247,7.1774212 c -4.98383,0 -9.06215,-4.1401653 -9.06215,-9.1467563 0,-5.0065909 4.07832,-9.1203439 9.06215,-9.1203439 4.97928,0 9.03015,4.113753 9.03015,9.1203439 0,5.006591 -4.05087,9.1467563 -9.03015,9.1467563 z m 0,-3.6587025 c 2.97843,0 5.37258,-2.4340664 5.37258,-5.4880538 0,-3.0549015 -2.39416,-5.4580969 -5.37258,-5.4580969 -2.98298,0 -5.40457,2.4031954 -5.40457,5.4580969 0,3.0539874 2.42159,5.4880538 5.40457,5.4880538 z"
       inkscape:connector-curvature="0" /><path
       id="path3031"
       style="fill:#ffffff;fill-opacity:0.74509805;fill-rule:nonzero;stroke:none"
       d="m 25.299887,7.1774212 c -4.985154,0 -9.06234,-4.1401653 -9.06234,-9.1467563 0,-5.0065909 4.077186,-9.1203439 9.06234,-9.1203439 4.979402,0 9.030158,4.113753 9.030158,9.1203439 0,5.006591 -4.050756,9.1467563 -9.030158,9.1467563 z m 0,-3.6587025 c 2.97855,0 5.37237,-2.4340664 5.37237,-5.4880538 0,-3.0549015 -2.39382,-5.4580969 -5.37237,-5.4580969 -2.984301,0 -5.404533,2.4031954 -5.404533,5.4580969 0,3.0539874 2.420232,5.4880538 5.404533,5.4880538 z"
       inkscape:connector-curvature="0" /><path
       id="path3033"
       style="fill:#ffffff;fill-opacity:0.74509805;fill-rule:nonzero;stroke:none"
       d="m 16.228615,346.2409 0,-18.07857 18.258182,0 0,18.07857 -18.258182,0 z m 3.644856,-3.64384 10.932786,0 0,-10.79088 -10.932786,0 0,10.79088 z"
       inkscape:connector-curvature="0" /><path
       id="path3035"
       style="fill:#ffffff;fill-opacity:0.74509805;fill-rule:nonzero;stroke:none"
       d="m 57.893231,346.2409 c -4.97938,0 -9.056547,-4.14005 -9.056547,-9.14675 0,-5.00671 4.077167,-9.11932 9.056547,-9.11932 4.985209,0 9.035964,4.11261 9.035964,9.11932 0,5.0067 -4.050755,9.14675 -9.035964,9.14675 z m 0,-3.65756 c 2.984357,0 5.378177,-2.43418 5.378177,-5.48919 0,-3.05502 -2.39382,-5.45719 -5.378177,-5.45719 -2.978527,0 -5.398759,2.40217 -5.398759,5.45719 0,3.05501 2.420232,5.48919 5.398759,5.48919 z"
       inkscape:connector-curvature="0" /><path
       id="path3037"
       style="fill:#ffffff;fill-opacity:0.74509805;fill-rule:nonzero;stroke:none"
       d="m 81.36392,346.2409 0,-18.07857 18.25785,0 0,18.07857 -18.25785,0 z m 3.643609,-3.64384 10.934035,0 0,-10.79088 -10.934035,0 0,10.79088 z"
       inkscape:connector-curvature="0" /><path
       id="path3039"
       style="fill:#ffffff;fill-opacity:0.74509805;fill-rule:nonzero;stroke:none"
       d="m 123.18495,346.2409 c -4.98384,0 -9.06192,-4.14005 -9.06192,-9.14675 0,-5.00671 4.07808,-9.11932 9.06192,-9.11932 4.98384,0 9.03024,4.11261 9.03024,9.11932 0,5.0067 -4.0464,9.14675 -9.03024,9.14675 z m 0,-3.65756 c 2.97852,0 5.37279,-2.43418 5.37279,-5.48919 0,-3.05502 -2.39428,-5.45719 -5.37279,-5.45719 -2.98298,0 -5.40459,2.40217 -5.40459,5.45719 0,3.05501 2.42161,5.48919 5.40459,5.48919 z"
       inkscape:connector-curvature="0" /><path
       id="path3041"
       style="fill:#ffffff;fill-opacity:0.74509805;fill-rule:nonzero;stroke:none"
       d="m 146.53443,346.2409 0,-18.07857 18.25808,0 0,18.07857 -18.25808,0 z m 3.64384,-3.64384 10.9338,0 0,-10.79088 -10.9338,0 0,10.79088 z"
       inkscape:connector-curvature="0" /><path
       id="path3043"
       style="fill:#ffffff;fill-opacity:0.74509805;fill-rule:nonzero;stroke:none"
       d="m 188.20363,346.2409 c -4.98384,0 -9.06215,-4.14005 -9.06215,-9.14675 0,-5.00671 4.07831,-9.11932 9.06215,-9.11932 4.98383,0 9.03012,4.11261 9.03012,9.11932 0,5.0067 -4.04629,9.14675 -9.03012,9.14675 z m 0,-3.65756 c 2.97956,0 5.37258,-2.43418 5.37258,-5.48919 0,-3.05502 -2.39302,-5.45719 -5.37258,-5.45719 -2.98298,0 -5.40344,2.40217 -5.40344,5.45719 0,3.05501 2.42046,5.48919 5.40344,5.48919 z"
       inkscape:connector-curvature="0" /><path
       id="path3045"
       style="fill:#ffffff;fill-opacity:0.74509805;fill-rule:nonzero;stroke:none"
       d="m 211.66964,346.2409 0,-18.07857 18.25692,0 0,18.07857 -18.25692,0 z m 3.64382,-3.64384 10.93382,0 0,-10.79088 -10.93382,0 0,10.79088 z"
       inkscape:connector-curvature="0" /><path
       id="path3047"
       style="fill:#ffffff;fill-opacity:0.74509805;fill-rule:nonzero;stroke:none"
       d="m 253.49088,346.2409 c -4.98041,0 -9.05758,-4.14005 -9.05758,-9.14675 0,-5.00671 4.07717,-9.11932 9.05758,-9.11932 4.98383,0 9.0347,4.11261 9.0347,9.11932 0,5.0067 -4.05087,9.14675 -9.0347,9.14675 z m 0,-3.65756 c 2.98298,0 5.37715,-2.43418 5.37715,-5.48919 0,-3.05502 -2.39417,-5.45719 -5.37715,-5.45719 -2.97956,0 -5.40002,2.40217 -5.40002,5.45719 0,3.05501 2.42046,5.48919 5.40002,5.48919 z"
       inkscape:connector-curvature="0" /><path
       id="path3049"
       style="fill:#ffffff;fill-opacity:0.74509805;fill-rule:nonzero;stroke:none"
       d="m 276.98203,346.2409 0,-18.07857 18.25807,0 0,18.07857 -18.25807,0 z m 3.64498,-3.64384 10.93266,0 0,-10.79088 -10.93266,0 0,10.79088 z"
       inkscape:connector-curvature="0" /><path
       id="path3051"
       style="fill:#ffffff;fill-opacity:0.74509805;fill-rule:nonzero;stroke:none"
       d="m 48.778602,313.83509 0,-18.07971 18.25784,0 0,18.07971 -18.25784,0 z m 3.680197,-3.68043 10.932775,0 0,-10.75429 -10.932775,0 0,10.75429 z"
       inkscape:connector-curvature="0" /><path
       id="path3053"
       style="fill:#ffffff;fill-opacity:0.74509805;fill-rule:nonzero;stroke:none"
       d="m 90.475004,313.82594 c -4.984754,0 -9.061921,-4.13547 -9.061921,-9.14675 0,-2.01915 0.656051,-3.88623 1.772185,-5.40002 1.117047,0.55795 2.241983,1.09418 3.372866,1.63041 -0.924967,0.97299 -1.487721,2.29126 -1.487721,3.76961 0,3.05958 2.420685,5.4892 5.404591,5.4892 2.89849,0 5.24235,-2.29584 5.3728,-5.23081 1.15581,0.46077 2.31756,0.88496 3.488126,1.3137 -0.74182,4.27383 -4.413096,7.57466 -8.860926,7.57466 z"
       inkscape:connector-curvature="0" /><path
       id="path3055"
       style="fill:#ffffff;fill-opacity:0.74509805;fill-rule:nonzero;stroke:none"
       d="m 113.91357,313.82594 0,-2.97041 c 4.43846,1.17422 8.96725,2.17464 13.54999,2.97041 l -13.54999,0 z"
       inkscape:connector-curvature="0" /><path
       id="path3057"
       style="fill:#ffffff;fill-opacity:0.74509805;fill-rule:nonzero;stroke:none"
       d="m 183.51362,313.82594 c 4.69,-0.81749 9.29426,-1.84535 13.83675,-3.05502 l 0,3.05502 -13.83675,0 z"
       inkscape:connector-curvature="0" /><path
       id="path3059"
       style="fill:#ffffff;fill-opacity:0.74509805;fill-rule:nonzero;stroke:none"
       d="m 220.75807,313.82594 c -4.47047,0 -8.19549,-3.32713 -8.91923,-7.62839 1.18794,-0.44247 2.345,-0.90668 3.51922,-1.37544 0.072,2.98756 2.46504,5.34628 5.40001,5.34628 2.98298,0 5.37258,-2.42962 5.37258,-5.4892 0,-1.52752 -0.57168,-2.87666 -1.54123,-3.85879 1.12162,-0.52708 2.23296,-1.07246 3.34542,-1.62583 1.15706,1.53207 1.85794,3.42088 1.85794,5.48462 0,5.01128 -4.05087,9.14675 -9.03471,9.14675 z"
       inkscape:connector-curvature="0" /><path
       id="path3061"
       style="fill:#ffffff;fill-opacity:0.74509805;fill-rule:nonzero;stroke:none"
       d="m 244.21836,313.83509 0,-18.07971 18.25806,0 0,18.07971 -18.25806,0 z m 3.68042,-3.68043 10.93381,0 0,-10.75429 -10.93381,0 0,10.75429 z"
       inkscape:connector-curvature="0" /><path
       id="path3063"
       style="fill:#ffffff;fill-opacity:0.74509805;fill-rule:nonzero;stroke:none"
       d="m 286.06247,313.83051 c -4.98383,0 -9.06215,-4.13662 -9.06215,-9.14675 0,-5.0067 4.07832,-9.11588 9.06215,-9.11588 4.97928,0 9.03015,4.10918 9.03015,9.11588 0,5.01013 -4.05087,9.14675 -9.03015,9.14675 z m 0,-3.6587 c 2.97843,0 5.37258,-2.43304 5.37258,-5.48805 0,-3.05501 -2.39416,-5.45833 -5.37258,-5.45833 -2.98298,0 -5.40457,2.40332 -5.40457,5.45833 0,3.05501 2.42159,5.48805 5.40457,5.48805 z"
       inkscape:connector-curvature="0" /><path
       id="path3065"
       style="fill:#ffffff;fill-opacity:0.74509805;fill-rule:nonzero;stroke:none"
       d="m 25.299887,313.83051 c -4.985154,0 -9.06234,-4.13662 -9.06234,-9.14675 0,-5.0067 4.077186,-9.11588 9.06234,-9.11588 4.979402,0 9.030158,4.10918 9.030158,9.11588 0,5.01013 -4.050756,9.14675 -9.030158,9.14675 z m 0,-3.6587 c 2.97855,0 5.37237,-2.43304 5.37237,-5.48805 0,-3.05501 -2.39382,-5.45833 -5.37237,-5.45833 -2.984301,0 -5.404533,2.40332 -5.404533,5.45833 0,3.05501 2.420232,5.48805 5.404533,5.48805 z"
       inkscape:connector-curvature="0" /><path
       id="path3067"
       style="fill:#ffffff;fill-opacity:0.74509805;fill-rule:nonzero;stroke:none"
       d="m 16.228615,281.07026 0,-18.07855 18.258182,0 0,18.07855 -18.258182,0 z m 3.644856,-3.67928 10.932786,0 0,-10.75544 -10.932786,0 0,10.75544 z"
       inkscape:connector-curvature="0" /><path
       id="path3069"
       style="fill:#ffffff;fill-opacity:0.74509805;fill-rule:nonzero;stroke:none"
       d="m 276.98203,281.07026 0,-18.07855 18.25807,0 0,18.07855 -18.25807,0 z m 3.64498,-3.67928 10.93266,0 0,-10.75544 -10.93266,0 0,10.75544 z"
       inkscape:connector-curvature="0" /><path
       id="path3071"
       style="fill:#ffffff;fill-opacity:0.74509805;fill-rule:nonzero;stroke:none"
       d="m 287.24584,248.5707 c 2.66629,-3.71587 5.16334,-7.54836 7.51634,-11.49175 0.21037,0.77289 0.34415,1.59382 0.34415,2.4296 0,4.60882 -3.43918,8.46762 -7.86049,9.06215 z"
       inkscape:connector-curvature="0" /><path
       id="path3073"
       style="fill:#ffffff;fill-opacity:0.74509805;fill-rule:nonzero;stroke:none"
       d="m 23.6742,248.48495 c -4.216975,-0.78091 -7.43174,-4.52421 -7.43174,-8.9764 0,-0.69744 0.07994,-1.37544 0.227329,-2.02829 2.263916,3.76961 4.653324,7.44545 7.204411,11.00469 z"
       inkscape:connector-curvature="0" /><path
       id="path3075"
       style="fill:#ffffff;fill-opacity:0.74509805;fill-rule:nonzero;stroke:none"
       d="m 16.228615,-25.416814 0,-18.080037 18.258182,0 0,18.080037 -18.258182,0 z m 3.644856,-3.645325 10.932786,0 0,-10.78941 -10.932786,0 0,10.78941 z"
       inkscape:connector-curvature="0" /><path
       id="path3077"
       style="fill:#ffffff;fill-opacity:0.74509805;fill-rule:nonzero;stroke:none"
       d="m 57.893231,-25.412355 c -4.97938,0 -9.056547,-4.140165 -9.056547,-9.146756 0,-5.006603 4.077167,-9.120405 9.056547,-9.120405 4.985209,0 9.035964,4.113802 9.035964,9.120405 0,5.006591 -4.050755,9.146756 -9.035964,9.146756 z m 0,-3.658702 c 2.984357,0 5.378177,-2.433151 5.378177,-5.488054 0,-3.054879 -2.39382,-5.458131 -5.378177,-5.458131 -2.978527,0 -5.398759,2.403252 -5.398759,5.458131 0,3.054903 2.420232,5.488054 5.398759,5.488054 z"
       inkscape:connector-curvature="0" /><path
       id="path3079"
       style="fill:#ffffff;fill-opacity:0.74509805;fill-rule:nonzero;stroke:none"
       d="m 81.36392,-25.416814 0,-18.080037 18.25785,0 0,18.080037 -18.25785,0 z m 3.643609,-3.645325 10.934035,0 0,-10.78941 -10.934035,0 0,10.78941 z"
       inkscape:connector-curvature="0" /><path
       id="path3081"
       style="fill:#ffffff;fill-opacity:0.74509805;fill-rule:nonzero;stroke:none"
       d="m 123.18495,-25.412355 c -4.98384,0 -9.06192,-4.140165 -9.06192,-9.146756 0,-5.006603 4.07808,-9.120405 9.06192,-9.120405 4.98384,0 9.03024,4.113802 9.03024,9.120405 0,5.006591 -4.0464,9.146756 -9.03024,9.146756 z m 0,-3.658702 c 2.97852,0 5.37279,-2.433151 5.37279,-5.488054 0,-3.054879 -2.39428,-5.458131 -5.37279,-5.458131 -2.98298,0 -5.40459,2.403252 -5.40459,5.458131 0,3.054903 2.42161,5.488054 5.40459,5.488054 z"
       inkscape:connector-curvature="0" /><path
       id="path3083"
       style="fill:#ffffff;fill-opacity:0.74509805;fill-rule:nonzero;stroke:none"
       d="m 146.53443,-25.416814 0,-18.080037 18.25808,0 0,18.080037 -18.25808,0 z m 3.64384,-3.645325 10.9338,0 0,-10.78941 -10.9338,0 0,10.78941 z"
       inkscape:connector-curvature="0" /><path
       id="path3085"
       style="fill:#ffffff;fill-opacity:0.74509805;fill-rule:nonzero;stroke:none"
       d="m 188.20363,-25.412355 c -4.98384,0 -9.06215,-4.140165 -9.06215,-9.146756 0,-5.006603 4.07831,-9.120405 9.06215,-9.120405 4.98383,0 9.03012,4.113802 9.03012,9.120405 0,5.006591 -4.04629,9.146756 -9.03012,9.146756 z m 0,-3.658702 c 2.97956,0 5.37258,-2.433151 5.37258,-5.488054 0,-3.054879 -2.39302,-5.458131 -5.37258,-5.458131 -2.98298,0 -5.40344,2.403252 -5.40344,5.458131 0,3.054903 2.42046,5.488054 5.40344,5.488054 z"
       inkscape:connector-curvature="0" /><path
       id="path3087"
       style="fill:#ffffff;fill-opacity:0.74509805;fill-rule:nonzero;stroke:none"
       d="m 211.66964,-25.416814 0,-18.080037 18.25692,0 0,18.080037 -18.25692,0 z m 3.64382,-3.645325 10.93382,0 0,-10.78941 -10.93382,0 0,10.78941 z"
       inkscape:connector-curvature="0" /><path
       id="path3089"
       style="fill:#ffffff;fill-opacity:0.74509805;fill-rule:nonzero;stroke:none"
       d="m 253.49088,-25.412355 c -4.98041,0 -9.05758,-4.140165 -9.05758,-9.146756 0,-5.006603 4.07717,-9.120405 9.05758,-9.120405 4.98383,0 9.0347,4.113802 9.0347,9.120405 0,5.006591 -4.05087,9.146756 -9.0347,9.146756 z m 0,-3.658702 c 2.98298,0 5.37715,-2.433151 5.37715,-5.488054 0,-3.054879 -2.39417,-5.458131 -5.37715,-5.458131 -2.97956,0 -5.40002,2.403252 -5.40002,5.458131 0,3.054903 2.42046,5.488054 5.40002,5.488054 z"
       inkscape:connector-curvature="0" /><path
       id="path3091"
       style="fill:#ffffff;fill-opacity:0.74509805;fill-rule:nonzero;stroke:none"
       d="m 276.98203,-25.416814 0,-18.080037 18.25807,0 0,18.080037 -18.25807,0 z m 3.64498,-3.645325 10.93266,0 0,-10.78941 -10.93266,0 0,10.78941 z"
       inkscape:connector-curvature="0" /></g></svg>