<?xml version="1.0" encoding="UTF-8" standalone="no"?>
<!-- Created with Inkscape (http://www.inkscape.org/) -->

<svg
   xmlns:dc="http://purl.org/dc/elements/1.1/"
   xmlns:cc="http://creativecommons.org/ns#"
   xmlns:rdf="http://www.w3.org/1999/02/22-rdf-syntax-ns#"
   xmlns:svg="http://www.w3.org/2000/svg"
   xmlns="http://www.w3.org/2000/svg"
   xmlns:sodipodi="http://sodipodi.sourceforge.net/DTD/sodipodi-0.dtd"
   xmlns:inkscape="http://www.inkscape.org/namespaces/inkscape"
   id="svg2"
   version="1.1"
   inkscape:version="0.48.5 r10040"
   width="369.64999"
   height="487.39999"
   xml:space="preserve"
   sodipodi:docname="fibeamer-mu-med-light.pdf"><metadata
     id="metadata8"><rdf:RDF><cc:Work
         rdf:about=""><dc:format>image/svg+xml</dc:format><dc:type
           rdf:resource="http://purl.org/dc/dcmitype/StillImage" /><dc:title></dc:title></cc:Work></rdf:RDF></metadata><defs
     id="defs6"><clipPath
       id="clipPath3044"
       clipPathUnits="userSpaceOnUse"><path
         id="path3046"
         d="M 0,3118.1 0,0 l 3118.11,0 0,3118.1 -3118.11,0 z" /></clipPath><clipPath
       id="clipPath3889"
       clipPathUnits="userSpaceOnUse"><path
         id="path3891"
         d="m 0,2909.84 2900,0 0,-2900.00016 -2900,0 L 0,2909.84 z" /></clipPath></defs><sodipodi:namedview
     pagecolor="#ffffff"
     bordercolor="#666666"
     borderopacity="1"
     objecttolerance="10"
     gridtolerance="10"
     guidetolerance="10"
     inkscape:pageopacity="0"
     inkscape:pageshadow="2"
     inkscape:window-width="1280"
     inkscape:window-height="751"
     id="namedview4"
     showgrid="false"
     inkscape:zoom="0.85630196"
     inkscape:cx="263.53324"
     inkscape:cy="240.81221"
     inkscape:window-x="0"
     inkscape:window-y="29"
     inkscape:window-maximized="1"
     inkscape:current-layer="g10"
     fit-margin-top="0"
     fit-margin-left="0"
     fit-margin-right="0"
     fit-margin-bottom="0"
     units="px" /><g
     id="g10"
     inkscape:groupmode="layer"
     inkscape:label="ink_ext_XXXXXX"
     transform="matrix(1.25,0,0,-1.25,-10.030275,432.8007)"><path
       id="path5214"
       style="fill:#c82600;fill-opacity:1;fill-rule:nonzero;stroke:none"
       d="m 34.518808,87.141459 c 2.1566,1.2571 4.8941,0.5356 6.1507,-1.6211 1.2567,-2.157 0.5348,-4.8941 -1.6218,-6.1511 -2.1563,-1.2571 -4.8942,-0.534 -6.1508,1.6218 -1.2566,2.1567 -0.5348,4.895 1.6219,6.1504 z m 19.8715,-13.9851 6.1648,-7.3848 -1.4371,-1.2004 -4.732,5.6692 -4.7243,-3.875 4.6153,-5.5293 -1.4367,-1.1992 -4.5989,5.5085 -6.3144,-5.1343 -1.4493,1.7363 13.9126,11.409 z m 12.514,-13.7488 1.5484,-1.4653 -6.921,-17.7195 -2.1247,1.0078 2.5848,6.2883 -5.4015,5.1109 -6.2676,-2.8035 -1.0641,1.9016 17.6457,7.6797 z m -0.657,-2.1704 -0.0379,0.0364 -7.7656,-3.8203 4.2871,-4.0567 3.5164,7.8406 z m 19.3355,-16.3152 c -0.5793,1.6555 -1.5715,2.7734 -3.0133,3.7961 -3.3925,2.407 -7.7574,1.4227 -10.164,-1.9699 -2.407,-3.3926 -1.8945,-7.8367 1.498,-10.2442 1.2942,-0.9179 2.9547,-1.3632 4.5875,-1.5332 l -0.1968,-1.8047 c -1.8782,0.1844 -3.9258,0.7129 -5.4739,1.8118 -4.3468,3.084 -5.766,8.3621 -2.366,13.155 3.1895,4.4954 8.8516,5.1961 13.1984,2.1125 1.7602,-1.2492 2.8165,-2.6359 3.7168,-4.423 l -1.7867,-0.9004 z m 18.742702,-6.7957 -5.148502,-9.9531 c -2.6852,-5.1106 -6.6004,-4.666 -9.7293,-3.0754 -3.4539,1.7559 -5.4574,4.6992 -2.9715,9.5898 0.6598,1.2981 1.4137,2.7227 2.2734,4.3567 l 2.8742,5.5386 1.993,-1.0132 -3.0508,-5.886 c -0.789,-1.4949 -1.5898,-3.0129 -2.3437,-4.4961 -1.4965,-2.9433 -0.6387,-5.0429 2.2125,-6.4922 2.3179,-1.1777 4.9582,-1.0324 6.8082,2.6067 l 5.088502,9.8379 1.994,-1.0137 z m -0.959,-18.9152 6.129,16.9172 2.109,-0.7434 -5.507,-15.1516 7.234,-2.5496 -0.623,-1.7656 -9.342,3.293 z m 15.376,13.5976 13.227,-3.2617 -0.448,-1.8176 -5.528,1.3637 -4.011,-15.6144 -2.171,0.5351 4.011,15.6145 -5.528,1.3628 0.448,1.8176 z m 20.573,-4.2676 2.116,-0.2656 4.902,-18.38005 -2.309,-0.44414 -1.636,6.59839 -7.378,0.925 -3.395,-5.9687 -1.983,0.9043 9.683,16.6308 z m 0.754,-2.1386 -0.051,0.007 -4.002,-7.6738 5.856,-0.7344 -1.803,8.4012 z m 11.885,-14.2918 c 0.961,-0.7031 2.391,-1.32814 3.821,-1.32932 2.106,-0.0019 3.563,1.27152 3.565,3.27342 0.002,4.5762 -7.929,2.7102 -7.924,9.002 0.002,2.7824 2.266,4.7304 5.464,4.7277 1.767,-0.0012 3.327,-0.548 4.783,-1.4074 l -0.86,-1.6375 c -1.065,0.7027 -2.13,1.3277 -3.821,1.3289 -1.56,0.0012 -3.329,-0.9602 -3.33,-3.1438 -0.003,-3.9519 8.084,-3.0476 8.079,-8.6902 -0.002,-2.6777 -1.876,-5.1718703 -5.828,-5.1687403 -1.976,7.8e-4 -3.405,0.4960903 -4.938,1.4335903 l 0.989,1.61135 z m 24.916,16.6687 2.26,0.4993 8.578,-13.6575 2.44,16.0879 2.362,0.5215 6.67,-16.9531 -2.055,-0.8262 -5.551,14.5371 -0.051,-0.0105 -2.221,-15.8801 -2.081,-0.459 -8.341,13.5488 -0.051,-0.0105 0.904,-15.56368 -2.185,-0.10938 -0.678,18.27536 z m 22.506,5.8504 8.629,3.3489 0.677,-1.7454 -6.569,-2.5484 2.162,-5.7148 6.4,2.4824 0.676,-1.7453 -6.375,-2.4739 2.219,-5.8601 6.738,2.614 0.677,-1.7449 -8.871,-3.4426 -6.363,16.8301 z m 13.019,5.2539 4.742,2.6008 c 6.087,3.3367 10.627,0.8445 12.739,-3.009 2.937,-5.357 0.494,-10.2547 -4.614,-13.0554 l -4.353,-2.3875 -8.514,15.8511 z m 9.649,-13.2715 2.097,1.1504 c 4.491,2.4621 6.212,6.1926 3.837,10.5246 -2.175,3.9668 -6.163,4.8047 -10.38,2.4922 l -2.418,-1.3254 6.864,-12.8418 z m 7.669,23.5161 1.831,1.282 10.189,-14.8301 -1.832,-1.282 -10.188,14.8301 z m 18.499,11.1863 c -1.745,-0.1699 -3.067,-0.8692 -4.403,-2.0266 -3.143,-2.7254 -3.222,-7.198 -0.497,-10.3418 2.725,-3.1433 7.164,-3.6988 10.307,-0.9742 1.198,1.0391 2.025,2.5469 2.577,4.0926 l 1.707,-0.6199 c -0.624,-1.7793 -1.623,-3.6438 -3.057,-4.8868 -4.028,-3.4914 -9.493,-3.6183 -13.341,0.8211 -3.611,4.1653 -2.95,9.8321 1.078,13.3235 1.631,1.4129 3.228,2.1101 5.177,2.5613 l 0.452,-1.9492 z m 5.341,9.9551 1.4,1.6086 17.992,-6.1789 -0.919,-2.1649 -6.39,2.3211 -4.881,-5.6094 3.062,-6.1457 -1.857,-1.1426 -8.407,17.3118 z m 2.196,-0.5664 -0.034,-0.0403 4.139,-7.5992 3.875,4.452 -7.98,3.1875 z m 18.052,12.5539 c -2.156,1.2586 -2.875,3.9968 -1.616,6.1523 1.259,2.1551 3.997,2.875 6.153,1.616 2.155,-1.259 2.874,-3.9968 1.616,-6.1523 -1.259,-2.1551 -3.997,-2.875 -6.153,-1.616 z m -258.646002,30.887701 10.5824,3.686 c 5.4637,1.864 8.0008,-1.152 9.1781,-4.458 1.3,-3.649 0.7309,-7.165 -4.4375,-9.006 -1.3715,-0.488 -2.8988,-1.005 -4.6465,-1.599 l -5.8957,-2.0451 -0.75,2.1061 6.2625,2.176 c 1.6012,0.543 3.2262,1.094 4.7942,1.653 3.1101,1.107 3.9305,3.221 2.8574,6.234 -0.8723,2.449 -2.8894,4.159 -6.7344,2.79 l -10.4601,-3.644 -0.7504,2.107 z m -1.6887,7.928 -1.1437,1.686 12.45,12.526 -0.0098,0.052 -13.9871,-2.576 -0.4258,2.222 17.3418,3.166 1.082,-1.778 -12.5922,-12.475 0.0094,-0.051 14.1156,2.601 0.4254,-2.222 -17.2656,-3.151 z m -3.8300698,21.642 -0.18046,2.229 17.9457298,1.3 0.1808,-2.23 -17.9460698,-1.299 z m -0.19257,7.861 -0.83828,2.203 15.8242198,5.627 -15.5664098,6.824 0.66679,2.066 17.5715198,-7.958 -0.0438,-2.079 -17.6140398,-6.683 z m 0.5660398,22.549 1.3328,9.16 1.8523,-0.27 -1.0144,-6.972 6.0386,-0.931 0.9887,6.792 1.8528,-0.27 -0.9852,-6.767 6.1934,-0.954 1.0406,7.154 1.8523,-0.27 -1.3699,-9.417 -17.782,2.745 z m 2.7078,15.942 1.4211,5.245 c 0.891,3.288 3.1773,5.065 6.0633,4.283 2.8359,-0.769 3.9683,-3.149 3.6351,-5.672 l 0.05,-0.013 c 0.5137,1.099 2.3848,1.643 3.4606,2.133 l 5.5629,2.237 0.6371,-2.22 -6.6793,-2.581 c -1.6661,-0.68 -2.8192,-0.96 -3.2614,-2.591 l -0.3738,-1.381 7.4008,-2.113 -0.5918,-2.183 -17.3246,4.856 z m 8.8523,-0.136 0.5848,2.158 c 0.5781,2.133 0.3984,4.553 -2.1109,5.232 -1.8571,0.503 -3.7739,-0.108 -4.5356,-2.919 l -0.7004,-2.585 6.7621,-1.886 z m 10.7703,12.393 c 1.0118,0.629 2.127,1.719 2.6641,3.045 0.791,1.952 0.1566,3.78 -1.6988,4.532 -4.241,1.718 -5.484,-6.335 -11.3156,-3.972 -2.5786,1.044 -3.536,3.873 -2.3352,6.837 0.6641,1.639 1.7559,2.88 3.0976,3.907 l 1.1961,-1.411 c -1.0511,-0.724 -2.0296,-1.477 -2.6644,-3.044 -0.5856,-1.446 -0.3578,-3.445 1.666,-4.265 3.6633,-1.485 5.8559,6.351 11.0852,4.233 2.4816,-1.006 4.0921,-3.679 2.6082,-7.341 -0.7422,-1.832 -1.7368,-2.972 -3.1801,-4.042 l -1.1231,1.521 z m -7.6785,20.575 1.018,1.992 15.9496,-8.328 -1.0184,-1.992 -15.9492,8.328 z m 3.5949,7.027 7.2981,11.505 1.5805,-1.003 -3.05,-4.809 13.5285,-8.766 -1.1981,-1.888 -13.5281,8.767 -3.0504,-4.809 -1.5805,1.003 z m 13.0688,18.947 1.3426,1.656 18.1976,-5.542 -0.8425,-2.196 -6.4676,2.095 -4.6809,-5.778 3.2762,-6.034 -1.8145,-1.207 -9.0109,17.006 z m 2.2141,-0.49 -0.0329,-0.04 4.4043,-7.45 3.7161,4.586 -8.0875,2.904 z m 18.205,0.607 c 1.1801,0.162 2.643,0.704 3.6739,1.695 1.5179,1.46 1.6839,3.387 0.2965,4.83 -3.1727,3.298 -7.5903,-3.549 -11.952,0.986 -1.9285,2.005 -1.6496,4.979 0.6551,7.196 1.2742,1.225 2.7769,1.914 4.4211,2.304 l 0.5172,-1.775 c -1.2547,-0.234 -2.4559,-0.523 -3.6739,-1.695 -1.1246,-1.08 -1.732,-3 -0.2175,-4.574 2.7394,-2.847 7.9363,3.414 11.8472,-0.653 1.8567,-1.93 2.2379,-5.026 -0.6105,-7.767 -1.4239,-1.369 -2.7977,-2.004 -4.552,-2.393 l -0.4051,1.846 z m 11.1289,29.508 1.9727,1.21 12.5691,-10.104 -2.9496,16.003 2.0617,1.264 11.8426,-13.844 -1.6718,-1.451 -9.9961,11.925 -0.0446,-0.027 3.0899,-15.734 -1.8172,-1.114 -12.3106,10.079 -0.0445,-0.026 5.9399,-14.413 -2.0301,-0.819 -6.6114,17.051 z m 27.875702,14.836 1.978,0.795 13.205,-13.693 -1.804,-1.509 -4.632,4.976 -6.901,-2.771 -0.072,-6.866 -2.172,-0.172 0.398,19.24 z m 1.697,-1.504 -0.049,-0.019 0.225,-8.651 5.476,2.198 -5.652,6.472 z m 16.199,-8.332 c 1.108,-0.435 2.65,-0.676 4.033,-0.314 2.038,0.533 3.124,2.135 2.616,4.071 -1.159,4.427 -8.356,0.607 -9.95,6.694 -0.704,2.691 0.99,5.151 4.084,5.961 1.71,0.448 3.357,0.315 4.983,-0.147 l -0.415,-1.802 c -1.209,0.41 -2.398,0.743 -4.033,0.315 -1.509,-0.395 -2.976,-1.774 -2.423,-3.886 1.002,-3.823 8.593,-0.894 10.023,-6.353 0.678,-2.59 -0.501,-5.479 -4.324,-6.48 -1.912,-0.501 -3.42,-0.385 -5.141,0.132 l 0.547,1.809 z m 17.567,19.349 2.114,0.277 9.384,-16.546 -2.121,-1.013 -3.25,5.972 -7.372,-0.968 -1.778,-6.633 -2.147,0.374 5.17,18.537 z m 1.27,-1.879 -0.052,-0.007 -1.934,-8.435 5.852,0.768 -3.866,7.674 z m 13.856,3.272 5.434,-0.017 c 3.405,-0.011 5.714,-1.76 5.704,-4.75 -0.009,-2.938 -2.016,-4.647 -4.54,-4.977 l 0,-0.052 c 1.196,-0.212 2.204,-1.88 2.955,-2.792 l 3.599,-4.795 -1.98,-1.191 -4.219,5.787 c -1.088,1.433 -1.656,2.474 -3.347,2.48 l -1.429,0.005 -0.129,-7.697 -2.262,0.008 0.214,17.991 z m 2.156,-8.586 2.236,-0.007 c 2.21,-0.008 4.501,0.791 4.509,3.392 0.006,1.923 -1.08,3.617 -3.992,3.625 l -2.678,0.009 -0.075,-7.019 z m 19.369,-2.69 -5.042,10.273 2.154,0.849 4.346,-9.58 6.948,8.12 1.788,-1.384 -7.976,-8.564 -1.141,-7.613 -2.217,0.287 1.14,7.612 z m 16.071,7.78 2.162,-0.573 -2.343,-8.524 -2.42,-8.826 -2.162,0.573 4.763,17.35 z m -0.181,-9.097 11.006,6.602 1.155,-1.731 -9.457,-5.535 5.44,-9.808 -2.012,-1 -6.132,11.472 z m 18.365,3.644 2.094,-0.783 -6.45,-16.798 -2.094,0.784 6.45,16.797 z m 14.175,-6.052 1.908,-0.95 -1.457,-18.967 -2.326,0.344 0.641,6.769 -6.657,3.314 -5.179,-4.509 -1.572,1.509 14.642,12.49 z m 0.004,-2.268 -0.047,0.023 -6.316,-5.916 5.283,-2.631 1.08,8.524 z m 13.269,-5.443 1.997,-0.409 -0.165,-17.661 0.043,-0.029 8.213,11.61 1.856,-1.292 -10.203,-14.376 -2.015,0.517 0.302,17.723 -0.042,0.029 -8.288,-11.718 -1.856,1.293 10.158,14.313 z m 22.119,-16.622 1.555,-1.459 -6.853,-17.746 -2.128,0.999 2.56,6.299 -5.421,5.089 -6.257,-2.828 -1.071,1.898 17.615,7.748 z m -0.648,-2.173 -0.038,0.036 -7.751,-3.85 4.303,-4.039 3.486,7.853 z m 17.423,-16.114 2.909,-4.057 c 2.304,-3.211 1.169,-5.689 -0.457,-6.856 -1.796,-1.288 -3.553,-1.204 -5.251,0.137 l -0.042,-0.03 c 0.996,-2.102 0.38,-4.143 -1.479,-5.477 -2.598,-1.863 -5.39,-1.049 -7.451,1.824 l -2.94,4.098 14.711,10.361 z m -11.998,-11.199 1.53,-2.133 c 1.334,-1.86 2.985,-2.467 5.014,-1.013 1.774,1.274 1.795,3.208 0.279,5.321 l -1.228,1.711 -5.595,-3.886 z m 6.99,4.886 0.985,-1.373 c 1.712,-2.387 3.439,-2.652 4.939,-1.577 1.627,1.167 1.862,2.711 0.181,5.057 l -1.047,1.458 -5.058,-3.565 z m 14.947,-8.314 2.593,-4.775 c 1.626,-2.993 1.199,-5.859 -1.429,-7.285 -2.582,-1.402 -5.045,-0.462 -6.546,1.594 l -0.044,-0.026 c 0.387,-1.15 -0.591,-2.835 -1.031,-3.931 l -2.479,-5.459 -1.994,1.164 3.049,6.48 c 0.735,1.642 1.376,2.641 0.57,4.126 l -0.682,1.257 -6.814,-3.582 -1.078,1.988 15.885,8.449 z m -6.498,-6.013 1.068,-1.965 c 1.054,-1.943 2.854,-3.568 5.139,-2.328 1.69,0.918 2.654,2.685 1.265,5.243 l -1.277,2.354 -6.195,-3.304 z m 20.272,-24.561 -10.531,-3.83 c -5.437,-1.937 -8.015,1.043 -9.238,4.333 -1.349,3.632 -0.827,7.154 4.315,9.066 1.365,0.507 2.885,1.044 4.625,1.662 l 5.866,2.125 0.78,-2.096 -6.233,-2.261 c -1.593,-0.564 -3.211,-1.137 -4.771,-1.717 -3.095,-1.15 -3.887,-3.275 -2.772,-6.273 0.905,-2.437 2.945,-4.119 6.771,-2.697 l 10.41,3.785 0.778,-2.097 z m 1.798,-7.904 1.168,-1.671 -12.28,-12.694 0.011,-0.051 13.951,2.766 0.456,-2.216 -17.298,-3.402 -1.105,1.764 12.422,12.644 -0.011,0.05 -14.078,-2.791 -0.456,2.215 17.22,3.386 z m 4.182,-21.634 0.675,-9.231 -1.868,-0.137 -0.513,7.027 -6.097,-0.393 0.5,-6.846 -1.867,-0.137 -0.498,6.82 -6.254,-0.405 0.528,-7.209 -1.868,-0.136 -0.693,9.491 17.955,1.156 z m 0.421,-16.181 0.702,-1.914 -15.109,-9.145 -0.003,-0.052 14.195,-0.882 -0.124,-2.259 -17.593,1.12 -0.62,1.988 15.235,9.06 0.003,0.052 -14.326,0.889 0.125,2.259 17.515,-1.116 z m -16.475,-18.942 c -0.866,-0.816 -1.742,-2.108 -2.003,-3.513 -0.387,-2.071 0.599,-3.736 2.567,-4.103 4.498,-0.839 4.112,7.3 10.297,6.146 2.735,-0.51 4.237,-3.091 3.651,-6.235 -0.324,-1.738 -1.147,-3.172 -2.258,-4.445 l -1.453,1.143 c 0.886,0.919 1.694,1.853 2.005,3.514 0.286,1.534 -0.336,3.448 -2.482,3.848 -3.885,0.725 -4.474,-7.39 -10.02,-6.356 -2.633,0.491 -4.743,2.789 -4.018,6.674 0.362,1.943 1.11,3.258 2.311,4.594 l 1.403,-1.267 z m 11.622,-18.636 -0.6,-2.153 -17.288,4.986 0.601,2.154 17.287,-4.987 z m -17.059,-3.713 c -0.996,-0.652 -2.084,-1.771 -2.588,-3.109 -0.742,-1.971 -0.063,-3.782 1.811,-4.488 4.283,-1.612 5.325,6.469 11.213,4.252 2.604,-0.981 3.631,-3.784 2.505,-6.778 -0.623,-1.654 -1.684,-2.921 -3,-3.982 l -1.23,1.38 c 1.032,0.751 1.992,1.528 2.587,3.11 0.55,1.46 0.272,3.453 -1.772,4.223 -3.698,1.392 -5.695,-6.495 -10.975,-4.508 -2.507,0.945 -4.183,3.575 -2.79,7.275 0.696,1.848 1.662,3.012 3.079,4.119 l 1.16,-1.494 z M 58.538708,94.146559 c 8.3836,12.047301 16.3308,29.952301 22.8945,51.788301 0.7977,-3.229 1.8805,-7.609 1.8805,-7.609 1.8777,-7.872 4.114,-17.244 6.9808,-27.068 -5.2949,-12.502 -11.7214,-24.479201 -19.3945,-33.966801 l -12.3613,16.8555 z m 196.103802,0.9102 c -9.253,13.647101 -17.943,34.403101 -24.785,59.665101 l -2.729,11.04 c -8.332,34.934 -23.842,99.957 -70.227,99.957 -9.036,0 -16.899,-2.468 -23.766,-6.699 2.247,0.458 4.784,0.727 7.657,0.727 17.144,0 29.52,-9.382 42.994,-32.159 14.372,-24.296 19.694,-48.882 23.889,-66.465 l 2.877,-11.629 c 6.223,-22.976 16.488,-52.206 31.796,-71.519201 l 12.294,17.0821 z m -83.585,146.147101 c -8.998,10.435 -19.125,15.708 -30.265,15.708 -7.169,0 -12.974,-1.806 -16.99,-5.241 -15.01,-14.609 -24.203302,-38.298 -30.402502,-59.73 4.8613,-11.88 8.726502,-24.061 11.706502,-34.944 l 1.022,4.126 c 6.549,27.459 20.179,84.596 50.773,84.596 5.191,0 9.893,-1.648 14.156,-4.515 z m 70.784,-13.056 c -7.595,-9.452 -13.964,-21.341 -19.218,-33.745 2.867,-9.825 5.103,-19.197 6.981,-27.069 0,0 1.083,-4.38 1.88,-7.608 6.516,21.675 14.394,39.48 22.71,51.524 l -12.353,16.898 z m -52.726,-174.159501 c 15.01,14.6106 24.203,38.2996 30.402,59.730501 -4.861,11.881 -8.725,24.062 -11.706,34.944 l -1.021,-4.126 c -6.55,-27.459 -20.179,-84.595401 -50.773,-84.595401 -5.191,0 -9.893,1.6485 -14.156,4.5137 8.998,-10.4336 19.125,-15.707 30.264,-15.707 7.169,0 12.974,1.8066 16.99,5.2402 z M 58.163708,210.76886 c 9.2949,-13.646 18.0273,-34.467 24.8973,-59.831 l 2.7285,-11.039 c 8.3328,-34.934 23.843002,-99.957401 70.228002,-99.957401 9.035,0 16.899,2.468 23.766,6.6993 -2.247,-0.4579 -4.785,-0.7286 -7.658,-0.7286 -17.144,0 -29.52,9.3829 -42.993,32.1602 -14.372,24.296501 -19.695,48.881501 -23.889,66.465501 l -2.878,11.629 c -6.233802,23.017 -16.523702,52.312 -31.879202,71.624 l -12.3226,-17.022 z m 103.879802,-76.022 c 9.555,3.233 20.112,7.255 20.112,19.361 0,11.333 -10.586,14.031 -21.629,15.974 -0.027,-2.459 -0.055,-4.954 -0.085,-7.481 8.551,-1.688 13.714,-3.677 13.714,-8.493 0,-6.591 -5.274,-9.32 -15.355,-12.73 -0.033,-0.011 -0.065,-0.021 -0.097,-0.033 l 0.614,54.517 c 8.559,4.772 16.504,11.502 16.504,25.246 0,9.769 -7.837,16.333 -19.5,16.333 -4.994,0 -10.5,-1 -14.5,-5 -6.258,-1.937 -7.5,-8.333 -8.166,-15.333 -0.087,-0.911 0.183,-1.969 0.833,-3 0.725,-1.152 4.667,7.538 5.667,7.333 0.798,-0.163 -0.834,-3.833 -1.334,-8 1.028,0.133 2.487,0.604 2.834,1.667 2.5,7.666 4.5,5.5 5.833,11.666 2.667,2 6.48,2.667 8.833,2.667 6.043,0 11.667,-1.451 11.667,-8.333 0,-12.448 -9.556,-17.05 -19.495,-21.922 -8.934,-4.379 -18.838,-9.574 -18.838,-20.245 0,-10.902 11.771,-13.095 22.731,-14.919 -0.038,2.552 -0.076,5.074 -0.113,7.548 -7.922,1.619 -12.702,3.576 -12.702,8.038 0,5.973 5.121,8.934 13.882,13.233 l 0.798,-53.052 c -7.219,-2.674 -13.93,-6.282 -13.93,-14.015 0,-8.43 6.587,-11.142 12.827,-12.392 -0.036,2.328 -0.072,4.739 -0.109,7.235 -3.731,0.986 -4.718,2.337 -4.718,5.157 0,2.619 2.19,4.4 6.049,6.115 l 0.481,-32.038 c -4.982,-2.706 -9.196,-6.480501 -9.196,-13.909401 0,-4.9441 2.766,-10.0421 7.666,-12.6671 1.705,-0.9129 2.923,0.125 0.5,3.1664 -3.001,3.7664 -3.75,5.4832 -3.75,9.5836 0,2.7113 1.913,4.7753 4.889,6.6457 l 0.111,-7.418 c 0.013,-0.8203 0.682,-1.4793 1.503,-1.4777 0.821,0.0023 1.487,0.6625 1.497,1.4835 l 0.104,9.1895 c 0.994,0.498 2.048,0.993401 3.146,1.493401 5.787,2.6351 12,5.2121 12,13.0011 0,8.041 -7.102,9.554 -13.365,10.456 -0.028,-2.435 -0.055,-4.807 -0.08,-7.072 5.029,-0.795 6.445,-1.554 6.445,-3.384 0,-2.961 -1.848,-4.582 -7.891,-7.334 -0.059,-0.027 -0.117,-0.055 -0.175,-0.081 l 0.36,32.031 c 1.074,0.386 2.213,0.778 3.428,1.189 z m -8.747,69.165 c 2.247,1.2 4.329,2.45 6.147,3.861 l 0.098,8.019 c 1.479,0.665 2.447,1.751 2.447,2.982 0,2.026 -2.611,3.668 -5.833,3.668 -3.222,0 -5.834,-1.642 -5.834,-3.668 0,-1.323 1.118,-2.478 2.789,-3.123 l 0.186,-11.739"
       inkscape:connector-curvature="0" /><path
       id="path3003"
       style="fill:#c82600;fill-opacity:0.47058824;fill-rule:nonzero;stroke:none"
       d="m 293.1901,68.779563 c -0.71004,-1.139801 -1.43834,-2.278686 -2.17465,-3.398706 0.27669,-0.665541 0.42874,-1.403342 0.42874,-2.175099 0,-3.054902 -2.38957,-5.458098 -5.37255,-5.458098 -0.1212,0 -0.2504,0.01829 -0.37045,0.02722 -0.80035,-1.076801 -1.60411,-2.170983 -2.43075,-3.229948 0.88494,-0.290295 1.82706,-0.454594 2.8012,-0.454594 4.98383,0 9.0347,4.108837 9.0347,9.115428 0,2.090148 -0.73289,4.023658 -1.91624,5.573805 z"
       inkscape:connector-curvature="0" /><path
       id="path3005"
       style="fill:#c82600;fill-opacity:0.47058824;fill-rule:nonzero;stroke:none"
       d="m 17.929786,68.493726 c -1.066525,-1.501097 -1.687326,-3.323245 -1.687326,-5.287968 0,-5.006591 4.077178,-9.115428 9.061897,-9.115428 0.853038,0 1.673926,0.142918 2.455916,0.370214 -0.839158,1.075888 -1.670312,2.188362 -2.483162,3.287116 -2.970454,0.01383 -5.377285,2.411314 -5.377285,5.458098 0,0.62884 0.09826,1.240757 0.285836,1.799853 -0.763721,1.155921 -1.52297,2.3131 -2.255876,3.488115 z"
       inkscape:connector-curvature="0" /><path
       id="path3007"
       style="fill:#c82600;fill-opacity:0.47058824;fill-rule:nonzero;stroke:none"
       d="m 16.228615,39.575115 0,-18.079478 18.258182,0 0,18.079478 -18.258182,0 z m 3.644856,-3.644753 10.932786,0 0,-10.754184 -10.932786,0 0,10.754184 z"
       inkscape:connector-curvature="0" /><path
       id="path3009"
       style="fill:#c82600;fill-opacity:0.47058824;fill-rule:nonzero;stroke:none"
       d="m 49.001555,32.049622 c -0.09387,-0.523424 -0.173788,-1.049591 -0.173788,-1.59931 0,-5.011051 4.077165,-9.119544 9.061918,-9.119544 1.31256,0 2.559148,0.28938 3.688658,0.799426 -1.312673,0.932969 -2.608311,1.888805 -3.889657,2.858361 -2.371525,0.08941 -4.341622,1.687348 -4.971261,3.916869 -1.255507,1.031754 -2.497066,2.081231 -3.71587,3.144198 z"
       inkscape:connector-curvature="0" /><path
       id="path3011"
       style="fill:#c82600;fill-opacity:0.47058824;fill-rule:nonzero;stroke:none"
       d="m 262.31979,32.392625 c -1.17879,-1.031182 -2.36672,-2.05802 -3.57295,-3.058447 -0.49963,-2.505981 -2.65256,-4.345623 -5.26054,-4.345623 -0.0765,0 -0.15206,0 -0.22867,0 -1.22794,-0.929425 -2.46047,-1.849017 -3.71586,-2.743112 1.19708,-0.588594 2.53252,-0.914675 3.94453,-0.914675 4.98385,0 9.03471,4.108493 9.03471,9.119544 0,0.665426 -0.0675,1.313473 -0.20123,1.942313 z"
       inkscape:connector-curvature="0" /><path
       id="path3013"
       style="fill:#c82600;fill-opacity:0.47058824;fill-rule:nonzero;stroke:none"
       d="m 276.98203,39.575115 0,-18.079478 18.25807,0 0,18.079478 -18.25807,0 z m 3.64498,-3.644753 10.93266,0 0,-10.754184 -10.93266,0 0,10.754184 z"
       inkscape:connector-curvature="0" /><path
       id="path3015"
       style="fill:#c82600;fill-opacity:0.47058824;fill-rule:nonzero;stroke:none"
       d="m 48.778602,7.1685026 0,-18.0800486 18.25784,0 0,18.0800486 -18.25784,0 z m 3.680197,-3.6453246 10.932775,0 0,-10.75407 -10.932775,0 0,10.75407 z"
       inkscape:connector-curvature="0" /><path
       id="path3017"
       style="fill:#c82600;fill-opacity:0.47058824;fill-rule:nonzero;stroke:none"
       d="m 88.044486,6.8102933 c -3.809629,-1.0848052 -6.631403,-4.613167 -6.631403,-8.7751691 0,-5.0065912 4.077167,-9.1154282 9.061921,-9.1154282 4.98384,0 9.030136,4.108837 9.030136,9.1154282 0,1.6248063 -0.4515,3.1571168 -1.196846,4.4876268 -3.4792,1.3139312 -6.90478,2.7520299 -10.263808,4.2875423 z M 90.475004,3.523178 c 2.97853,0 5.37281,-2.4340664 5.37281,-5.4880538 0,-3.0549026 -2.39429,-5.4580982 -5.37281,-5.4580982 -2.983906,0 -5.404591,2.4031956 -5.404591,5.4580982 0,3.0539874 2.420685,5.4880538 5.404591,5.4880538 z"
       inkscape:connector-curvature="0" /><path
       id="path3019"
       style="fill:#c82600;fill-opacity:0.47058824;fill-rule:nonzero;stroke:none"
       d="m 113.91357,-2.4517119 0,-8.4598341 18.26618,0 0,4.7439647 c -1.22795,0.1782477 -2.44334,0.3703287 -3.66224,0.5716718 l 0,-1.6256065 -10.91529,0 0,3.8274591 c -1.23275,0.2938399 -2.46984,0.6199221 -3.68865,0.942345 z"
       inkscape:connector-curvature="0" /><path
       id="path3021"
       style="fill:#c82600;fill-opacity:0.47058824;fill-rule:nonzero;stroke:none"
       d="m 162.81795,-7.650271 c -2.42961,-0.112161 -4.88551,-0.201457 -7.34256,-0.201457 -2.27755,0 -4.52421,0.07546 -6.77546,0.17013 1.66128,-2.072769 4.22123,-3.398706 7.0613,-3.398706 2.84921,0 5.40459,1.335312 7.05672,3.430033 z"
       inkscape:connector-curvature="0" /><path
       id="path3023"
       style="fill:#c82600;fill-opacity:0.47058824;fill-rule:nonzero;stroke:none"
       d="m 197.35039,-2.3623028 c -1.21881,-0.3260811 -2.42961,-0.6485051 -3.66215,-0.9469174 l 0,-3.9122958 -10.9155,0 0,1.6836885 c -1.22337,-0.205459 -2.4559,-0.3929677 -3.68843,-0.5716718 l 0,-4.8020467 18.26608,0 0,8.5492432 z"
       inkscape:connector-curvature="0" /><path
       id="path3025"
       style="fill:#c82600;fill-opacity:0.47058824;fill-rule:nonzero;stroke:none"
       d="M 223.01733,6.8688317 C 219.72106,5.3552724 216.38936,3.9305506 212.98218,2.63983 c -0.79462,-1.3630956 -1.28626,-2.9307351 -1.28626,-4.6047058 0,-5.0065912 4.07718,-9.1154282 9.06216,-9.1154282 4.98384,0 9.03471,4.108837 9.03471,9.1154282 0,4.2250009 -2.88008,7.8113295 -6.77546,8.8337075 z M 220.75808,3.523178 c 2.98298,0 5.37257,-2.4340664 5.37257,-5.4880538 0,-3.0549026 -2.38959,-5.4580982 -5.37257,-5.4580982 -2.97956,0 -5.40001,2.4031956 -5.40001,5.4580982 0,3.0539874 2.42045,5.4880538 5.40001,5.4880538 z"
       inkscape:connector-curvature="0" /><path
       id="path3027"
       style="fill:#c82600;fill-opacity:0.47058824;fill-rule:nonzero;stroke:none"
       d="m 244.21836,7.1685026 0,-18.0800486 18.25806,0 0,18.0800486 -18.25806,0 z m 3.68042,-3.6453246 10.93381,0 0,-10.75407 -10.93381,0 0,10.75407 z"
       inkscape:connector-curvature="0" /><path
       id="path3029"
       style="fill:#c82600;fill-opacity:0.47058824;fill-rule:nonzero;stroke:none"
       d="m 286.06247,7.1774212 c -4.98383,0 -9.06215,-4.1401653 -9.06215,-9.1467563 0,-5.0065909 4.07832,-9.1203439 9.06215,-9.1203439 4.97928,0 9.03015,4.113753 9.03015,9.1203439 0,5.006591 -4.05087,9.1467563 -9.03015,9.1467563 z m 0,-3.6587025 c 2.97843,0 5.37258,-2.4340664 5.37258,-5.4880538 0,-3.0549015 -2.39416,-5.4580969 -5.37258,-5.4580969 -2.98298,0 -5.40457,2.4031954 -5.40457,5.4580969 0,3.0539874 2.42159,5.4880538 5.40457,5.4880538 z"
       inkscape:connector-curvature="0" /><path
       id="path3031"
       style="fill:#c82600;fill-opacity:0.47058824;fill-rule:nonzero;stroke:none"
       d="m 25.299887,7.1774212 c -4.985154,0 -9.06234,-4.1401653 -9.06234,-9.1467563 0,-5.0065909 4.077186,-9.1203439 9.06234,-9.1203439 4.979402,0 9.030158,4.113753 9.030158,9.1203439 0,5.006591 -4.050756,9.1467563 -9.030158,9.1467563 z m 0,-3.6587025 c 2.97855,0 5.37237,-2.4340664 5.37237,-5.4880538 0,-3.0549015 -2.39382,-5.4580969 -5.37237,-5.4580969 -2.984301,0 -5.404533,2.4031954 -5.404533,5.4580969 0,3.0539874 2.420232,5.4880538 5.404533,5.4880538 z"
       inkscape:connector-curvature="0" /><path
       id="path3033"
       style="fill:#c82600;fill-opacity:0.47058824;fill-rule:nonzero;stroke:none"
       d="m 16.228615,346.2409 0,-18.07857 18.258182,0 0,18.07857 -18.258182,0 z m 3.644856,-3.64384 10.932786,0 0,-10.79088 -10.932786,0 0,10.79088 z"
       inkscape:connector-curvature="0" /><path
       id="path3035"
       style="fill:#c82600;fill-opacity:0.47058824;fill-rule:nonzero;stroke:none"
       d="m 57.893231,346.2409 c -4.97938,0 -9.056547,-4.14005 -9.056547,-9.14675 0,-5.00671 4.077167,-9.11932 9.056547,-9.11932 4.985209,0 9.035964,4.11261 9.035964,9.11932 0,5.0067 -4.050755,9.14675 -9.035964,9.14675 z m 0,-3.65756 c 2.984357,0 5.378177,-2.43418 5.378177,-5.48919 0,-3.05502 -2.39382,-5.45719 -5.378177,-5.45719 -2.978527,0 -5.398759,2.40217 -5.398759,5.45719 0,3.05501 2.420232,5.48919 5.398759,5.48919 z"
       inkscape:connector-curvature="0" /><path
       id="path3037"
       style="fill:#c82600;fill-opacity:0.47058824;fill-rule:nonzero;stroke:none"
       d="m 81.36392,346.2409 0,-18.07857 18.25785,0 0,18.07857 -18.25785,0 z m 3.643609,-3.64384 10.934035,0 0,-10.79088 -10.934035,0 0,10.79088 z"
       inkscape:connector-curvature="0" /><path
       id="path3039"
       style="fill:#c82600;fill-opacity:0.47058824;fill-rule:nonzero;stroke:none"
       d="m 123.18495,346.2409 c -4.98384,0 -9.06192,-4.14005 -9.06192,-9.14675 0,-5.00671 4.07808,-9.11932 9.06192,-9.11932 4.98384,0 9.03024,4.11261 9.03024,9.11932 0,5.0067 -4.0464,9.14675 -9.03024,9.14675 z m 0,-3.65756 c 2.97852,0 5.37279,-2.43418 5.37279,-5.48919 0,-3.05502 -2.39428,-5.45719 -5.37279,-5.45719 -2.98298,0 -5.40459,2.40217 -5.40459,5.45719 0,3.05501 2.42161,5.48919 5.40459,5.48919 z"
       inkscape:connector-curvature="0" /><path
       id="path3041"
       style="fill:#c82600;fill-opacity:0.47058824;fill-rule:nonzero;stroke:none"
       d="m 146.53443,346.2409 0,-18.07857 18.25808,0 0,18.07857 -18.25808,0 z m 3.64384,-3.64384 10.9338,0 0,-10.79088 -10.9338,0 0,10.79088 z"
       inkscape:connector-curvature="0" /><path
       id="path3043"
       style="fill:#c82600;fill-opacity:0.47058824;fill-rule:nonzero;stroke:none"
       d="m 188.20363,346.2409 c -4.98384,0 -9.06215,-4.14005 -9.06215,-9.14675 0,-5.00671 4.07831,-9.11932 9.06215,-9.11932 4.98383,0 9.03012,4.11261 9.03012,9.11932 0,5.0067 -4.04629,9.14675 -9.03012,9.14675 z m 0,-3.65756 c 2.97956,0 5.37258,-2.43418 5.37258,-5.48919 0,-3.05502 -2.39302,-5.45719 -5.37258,-5.45719 -2.98298,0 -5.40344,2.40217 -5.40344,5.45719 0,3.05501 2.42046,5.48919 5.40344,5.48919 z"
       inkscape:connector-curvature="0" /><path
       id="path3045"
       style="fill:#c82600;fill-opacity:0.47058824;fill-rule:nonzero;stroke:none"
       d="m 211.66964,346.2409 0,-18.07857 18.25692,0 0,18.07857 -18.25692,0 z m 3.64382,-3.64384 10.93382,0 0,-10.79088 -10.93382,0 0,10.79088 z"
       inkscape:connector-curvature="0" /><path
       id="path3047"
       style="fill:#c82600;fill-opacity:0.47058824;fill-rule:nonzero;stroke:none"
       d="m 253.49088,346.2409 c -4.98041,0 -9.05758,-4.14005 -9.05758,-9.14675 0,-5.00671 4.07717,-9.11932 9.05758,-9.11932 4.98383,0 9.0347,4.11261 9.0347,9.11932 0,5.0067 -4.05087,9.14675 -9.0347,9.14675 z m 0,-3.65756 c 2.98298,0 5.37715,-2.43418 5.37715,-5.48919 0,-3.05502 -2.39417,-5.45719 -5.37715,-5.45719 -2.97956,0 -5.40002,2.40217 -5.40002,5.45719 0,3.05501 2.42046,5.48919 5.40002,5.48919 z"
       inkscape:connector-curvature="0" /><path
       id="path3049"
       style="fill:#c82600;fill-opacity:0.47058824;fill-rule:nonzero;stroke:none"
       d="m 276.98203,346.2409 0,-18.07857 18.25807,0 0,18.07857 -18.25807,0 z m 3.64498,-3.64384 10.93266,0 0,-10.79088 -10.93266,0 0,10.79088 z"
       inkscape:connector-curvature="0" /><path
       id="path3051"
       style="fill:#c82600;fill-opacity:0.47058824;fill-rule:nonzero;stroke:none"
       d="m 48.778602,313.83509 0,-18.07971 18.25784,0 0,18.07971 -18.25784,0 z m 3.680197,-3.68043 10.932775,0 0,-10.75429 -10.932775,0 0,10.75429 z"
       inkscape:connector-curvature="0" /><path
       id="path3053"
       style="fill:#c82600;fill-opacity:0.47058824;fill-rule:nonzero;stroke:none"
       d="m 90.475004,313.82594 c -4.984754,0 -9.061921,-4.13547 -9.061921,-9.14675 0,-2.01915 0.656051,-3.88623 1.772185,-5.40002 1.117047,0.55795 2.241983,1.09418 3.372866,1.63041 -0.924967,0.97299 -1.487721,2.29126 -1.487721,3.76961 0,3.05958 2.420685,5.4892 5.404591,5.4892 2.89849,0 5.24235,-2.29584 5.3728,-5.23081 1.15581,0.46077 2.31756,0.88496 3.488126,1.3137 -0.74182,4.27383 -4.413096,7.57466 -8.860926,7.57466 z"
       inkscape:connector-curvature="0" /><path
       id="path3055"
       style="fill:#c82600;fill-opacity:0.47058824;fill-rule:nonzero;stroke:none"
       d="m 113.91357,313.82594 0,-2.97041 c 4.43846,1.17422 8.96725,2.17464 13.54999,2.97041 l -13.54999,0 z"
       inkscape:connector-curvature="0" /><path
       id="path3057"
       style="fill:#c82600;fill-opacity:0.47058824;fill-rule:nonzero;stroke:none"
       d="m 183.51362,313.82594 c 4.69,-0.81749 9.29426,-1.84535 13.83675,-3.05502 l 0,3.05502 -13.83675,0 z"
       inkscape:connector-curvature="0" /><path
       id="path3059"
       style="fill:#c82600;fill-opacity:0.47058824;fill-rule:nonzero;stroke:none"
       d="m 220.75807,313.82594 c -4.47047,0 -8.19549,-3.32713 -8.91923,-7.62839 1.18794,-0.44247 2.345,-0.90668 3.51922,-1.37544 0.072,2.98756 2.46504,5.34628 5.40001,5.34628 2.98298,0 5.37258,-2.42962 5.37258,-5.4892 0,-1.52752 -0.57168,-2.87666 -1.54123,-3.85879 1.12162,-0.52708 2.23296,-1.07246 3.34542,-1.62583 1.15706,1.53207 1.85794,3.42088 1.85794,5.48462 0,5.01128 -4.05087,9.14675 -9.03471,9.14675 z"
       inkscape:connector-curvature="0" /><path
       id="path3061"
       style="fill:#c82600;fill-opacity:0.47058824;fill-rule:nonzero;stroke:none"
       d="m 244.21836,313.83509 0,-18.07971 18.25806,0 0,18.07971 -18.25806,0 z m 3.68042,-3.68043 10.93381,0 0,-10.75429 -10.93381,0 0,10.75429 z"
       inkscape:connector-curvature="0" /><path
       id="path3063"
       style="fill:#c82600;fill-opacity:0.47058824;fill-rule:nonzero;stroke:none"
       d="m 286.06247,313.83051 c -4.98383,0 -9.06215,-4.13662 -9.06215,-9.14675 0,-5.0067 4.07832,-9.11588 9.06215,-9.11588 4.97928,0 9.03015,4.10918 9.03015,9.11588 0,5.01013 -4.05087,9.14675 -9.03015,9.14675 z m 0,-3.6587 c 2.97843,0 5.37258,-2.43304 5.37258,-5.48805 0,-3.05501 -2.39416,-5.45833 -5.37258,-5.45833 -2.98298,0 -5.40457,2.40332 -5.40457,5.45833 0,3.05501 2.42159,5.48805 5.40457,5.48805 z"
       inkscape:connector-curvature="0" /><path
       id="path3065"
       style="fill:#c82600;fill-opacity:0.47058824;fill-rule:nonzero;stroke:none"
       d="m 25.299887,313.83051 c -4.985154,0 -9.06234,-4.13662 -9.06234,-9.14675 0,-5.0067 4.077186,-9.11588 9.06234,-9.11588 4.979402,0 9.030158,4.10918 9.030158,9.11588 0,5.01013 -4.050756,9.14675 -9.030158,9.14675 z m 0,-3.6587 c 2.97855,0 5.37237,-2.43304 5.37237,-5.48805 0,-3.05501 -2.39382,-5.45833 -5.37237,-5.45833 -2.984301,0 -5.404533,2.40332 -5.404533,5.45833 0,3.05501 2.420232,5.48805 5.404533,5.48805 z"
       inkscape:connector-curvature="0" /><path
       id="path3067"
       style="fill:#c82600;fill-opacity:0.47058824;fill-rule:nonzero;stroke:none"
       d="m 16.228615,281.07026 0,-18.07855 18.258182,0 0,18.07855 -18.258182,0 z m 3.644856,-3.67928 10.932786,0 0,-10.75544 -10.932786,0 0,10.75544 z"
       inkscape:connector-curvature="0" /><path
       id="path3069"
       style="fill:#c82600;fill-opacity:0.47058824;fill-rule:nonzero;stroke:none"
       d="m 276.98203,281.07026 0,-18.07855 18.25807,0 0,18.07855 -18.25807,0 z m 3.64498,-3.67928 10.93266,0 0,-10.75544 -10.93266,0 0,10.75544 z"
       inkscape:connector-curvature="0" /><path
       id="path3071"
       style="fill:#c82600;fill-opacity:0.47058824;fill-rule:nonzero;stroke:none"
       d="m 287.24584,248.5707 c 2.66629,-3.71587 5.16334,-7.54836 7.51634,-11.49175 0.21037,0.77289 0.34415,1.59382 0.34415,2.4296 0,4.60882 -3.43918,8.46762 -7.86049,9.06215 z"
       inkscape:connector-curvature="0" /><path
       id="path3073"
       style="fill:#c82600;fill-opacity:0.47058824;fill-rule:nonzero;stroke:none"
       d="m 23.6742,248.48495 c -4.216975,-0.78091 -7.43174,-4.52421 -7.43174,-8.9764 0,-0.69744 0.07994,-1.37544 0.227329,-2.02829 2.263916,3.76961 4.653324,7.44545 7.204411,11.00469 z"
       inkscape:connector-curvature="0" /><path
       id="path3075"
       style="fill:#c82600;fill-opacity:0.47058824;fill-rule:nonzero;stroke:none"
       d="m 16.228615,-25.416814 0,-18.080037 18.258182,0 0,18.080037 -18.258182,0 z m 3.644856,-3.645325 10.932786,0 0,-10.78941 -10.932786,0 0,10.78941 z"
       inkscape:connector-curvature="0" /><path
       id="path3077"
       style="fill:#c82600;fill-opacity:0.47058824;fill-rule:nonzero;stroke:none"
       d="m 57.893231,-25.412355 c -4.97938,0 -9.056547,-4.140165 -9.056547,-9.146756 0,-5.006603 4.077167,-9.120405 9.056547,-9.120405 4.985209,0 9.035964,4.113802 9.035964,9.120405 0,5.006591 -4.050755,9.146756 -9.035964,9.146756 z m 0,-3.658702 c 2.984357,0 5.378177,-2.433151 5.378177,-5.488054 0,-3.054879 -2.39382,-5.458131 -5.378177,-5.458131 -2.978527,0 -5.398759,2.403252 -5.398759,5.458131 0,3.054903 2.420232,5.488054 5.398759,5.488054 z"
       inkscape:connector-curvature="0" /><path
       id="path3079"
       style="fill:#c82600;fill-opacity:0.47058824;fill-rule:nonzero;stroke:none"
       d="m 81.36392,-25.416814 0,-18.080037 18.25785,0 0,18.080037 -18.25785,0 z m 3.643609,-3.645325 10.934035,0 0,-10.78941 -10.934035,0 0,10.78941 z"
       inkscape:connector-curvature="0" /><path
       id="path3081"
       style="fill:#c82600;fill-opacity:0.47058824;fill-rule:nonzero;stroke:none"
       d="m 123.18495,-25.412355 c -4.98384,0 -9.06192,-4.140165 -9.06192,-9.146756 0,-5.006603 4.07808,-9.120405 9.06192,-9.120405 4.98384,0 9.03024,4.113802 9.03024,9.120405 0,5.006591 -4.0464,9.146756 -9.03024,9.146756 z m 0,-3.658702 c 2.97852,0 5.37279,-2.433151 5.37279,-5.488054 0,-3.054879 -2.39428,-5.458131 -5.37279,-5.458131 -2.98298,0 -5.40459,2.403252 -5.40459,5.458131 0,3.054903 2.42161,5.488054 5.40459,5.488054 z"
       inkscape:connector-curvature="0" /><path
       id="path3083"
       style="fill:#c82600;fill-opacity:0.47058824;fill-rule:nonzero;stroke:none"
       d="m 146.53443,-25.416814 0,-18.080037 18.25808,0 0,18.080037 -18.25808,0 z m 3.64384,-3.645325 10.9338,0 0,-10.78941 -10.9338,0 0,10.78941 z"
       inkscape:connector-curvature="0" /><path
       id="path3085"
       style="fill:#c82600;fill-opacity:0.47058824;fill-rule:nonzero;stroke:none"
       d="m 188.20363,-25.412355 c -4.98384,0 -9.06215,-4.140165 -9.06215,-9.146756 0,-5.006603 4.07831,-9.120405 9.06215,-9.120405 4.98383,0 9.03012,4.113802 9.03012,9.120405 0,5.006591 -4.04629,9.146756 -9.03012,9.146756 z m 0,-3.658702 c 2.97956,0 5.37258,-2.433151 5.37258,-5.488054 0,-3.054879 -2.39302,-5.458131 -5.37258,-5.458131 -2.98298,0 -5.40344,2.403252 -5.40344,5.458131 0,3.054903 2.42046,5.488054 5.40344,5.488054 z"
       inkscape:connector-curvature="0" /><path
       id="path3087"
       style="fill:#c82600;fill-opacity:0.47058824;fill-rule:nonzero;stroke:none"
       d="m 211.66964,-25.416814 0,-18.080037 18.25692,0 0,18.080037 -18.25692,0 z m 3.64382,-3.645325 10.93382,0 0,-10.78941 -10.93382,0 0,10.78941 z"
       inkscape:connector-curvature="0" /><path
       id="path3089"
       style="fill:#c82600;fill-opacity:0.47058824;fill-rule:nonzero;stroke:none"
       d="m 253.49088,-25.412355 c -4.98041,0 -9.05758,-4.140165 -9.05758,-9.146756 0,-5.006603 4.07717,-9.120405 9.05758,-9.120405 4.98383,0 9.0347,4.113802 9.0347,9.120405 0,5.006591 -4.05087,9.146756 -9.0347,9.146756 z m 0,-3.658702 c 2.98298,0 5.37715,-2.433151 5.37715,-5.488054 0,-3.054879 -2.39417,-5.458131 -5.37715,-5.458131 -2.97956,0 -5.40002,2.403252 -5.40002,5.458131 0,3.054903 2.42046,5.488054 5.40002,5.488054 z"
       inkscape:connector-curvature="0" /><path
       id="path3091"
       style="fill:#c82600;fill-opacity:0.47058824;fill-rule:nonzero;stroke:none"
       d="m 276.98203,-25.416814 0,-18.080037 18.25807,0 0,18.080037 -18.25807,0 z m 3.64498,-3.645325 10.93266,0 0,-10.78941 -10.93266,0 0,10.78941 z"
       inkscape:connector-curvature="0" /></g></svg>