<?xml version="1.0" encoding="UTF-8" standalone="no"?>
<!-- Created with Inkscape (http://www.inkscape.org/) -->

<svg
   xmlns:dc="http://purl.org/dc/elements/1.1/"
   xmlns:cc="http://creativecommons.org/ns#"
   xmlns:rdf="http://www.w3.org/1999/02/22-rdf-syntax-ns#"
   xmlns:svg="http://www.w3.org/2000/svg"
   xmlns="http://www.w3.org/2000/svg"
   version="1.1"
   width="369.64999"
   height="487.39999"
   id="svg2"
   xml:space="preserve"><metadata
     id="metadata8"><rdf:RDF><cc:Work
         rdf:about=""><dc:format>image/svg+xml</dc:format><dc:type
           rdf:resource="http://purl.org/dc/dcmitype/StillImage" /><dc:title></dc:title></cc:Work></rdf:RDF></metadata><defs
     id="defs6"><clipPath
       id="clipPath3044"><path
         d="M 0,3118.1 0,0 l 3118.11,0 0,3118.1 -3118.11,0 z"
         id="path3046" /></clipPath></defs><g
     transform="matrix(1.25,0,0,-1.25,-10.030275,432.8007)"
     id="g10"><path
       d="m 141.14548,301.14142 0.048,0.005 3.37,-7.18 -5.419,-0.559 2.001,7.734 z m -2.54,-9.527 6.828,0.705 2.844,-5.594 1.985,0.88 -8.234,15.509 -1.958,-0.202 -5.247,-16.971 1.971,-0.401 1.811,6.074 z m -56.416104,-22.162 c 1.0446,-1.525 0.5996,-3.254 -1.0043,-4.353 -1.0894,-0.745 -2.5039,-1.016 -3.6027,-0.983 l 0.0879,-1.743 c 1.6566,0.087 3.0035,0.456 4.5086,1.487 3.0101,2.061 3.134,4.938 1.7375,6.978 -2.9418,4.297 -8.6266,-0.612 -10.6867,2.397 -1.1395,1.664 -0.2942,3.319 0.8937,4.133 1.2879,0.88 2.425,0.961 3.6027,0.983 l -0.2007,1.694 c -1.5563,-0.105 -3.0293,-0.503 -4.3758,-1.425 -2.436,-1.668 -3.1418,-4.333 -1.691,-6.452 3.2812,-4.792 8.3445,0.769 10.7308,-2.716 z m 71.320104,32.896 2.472,-0.008 c 2.688,-0.008 3.691,-1.57 3.686,-3.347 -0.006,-2.4 -2.121,-3.137 -4.161,-3.131 l -2.064,0.006 0.067,6.48 z m -0.048,-8.064 1.32,-0.004 c 1.56,-0.004 2.086,-0.966 3.09,-2.289 l 3.896,-5.34 1.827,1.098 -3.323,4.427 c -0.693,0.842 -1.625,2.381 -2.729,2.575 l 0,0.049 c 2.33,0.305 4.182,1.883 4.191,4.596 0.008,2.759 -2.123,4.374 -5.268,4.382 l -5.015,0.016 -0.194,-16.608 2.088,-0.006 0.117,7.104 z m -39.94,1.279 0.046,0.013 4.695,-6.392 -5.209,-1.597 0.468,7.976 z m -19.775004,-24.291 -3.9211,13.846 0.0433,0.019 10.221504,-10.546 1.7843,0.829 -1.167,14.755 0.043,0.021 7.904,-11.994 1.687,1.154 -0.048,0.07 1.976,-0.012 0.602,6.31 6.563,2.011 3.873,-4.938 1.776,1.247 -11.078,13.624 -1.882,-0.576 -1.86,-17.62 -9.317,13.832 -2.023904,-0.942 1.011,-14.986 -10.4567,10.597 -1.9371,-0.9 4.2586,-16.336 1.9481,0.535 z m 38.148004,18.027 c 0.367,-1.812 -0.717,-3.23 -2.622,-3.616 -1.294,-0.263 -2.702,0.04 -3.701,0.499 l -0.598,-1.64 c 1.559,-0.565 2.943,-0.75 4.731,-0.389 3.575,0.725 4.812,3.326 4.321,5.749 -1.034,5.104 -8.183,2.8 -8.906,6.374 -0.401,1.977 1.023,3.172 2.434,3.457 1.529,0.309 2.608,-0.06 3.701,-0.499 l 0.476,1.638 c -1.475,0.51 -2.986,0.718 -4.586,0.395 -2.893,-0.586 -4.582,-2.765 -4.072,-5.282 1.153,-5.693 7.984,-2.546 8.822,-6.686 z M 74.054976,44.458522 l -1.6718,1.2098 3.8379,5.2211 2.0031,-1.4488 c 2.1769,-1.5762 2.0797,-3.4313 1.0379,-4.8703 -1.4071,-1.9438 -3.5539,-1.3079 -5.2071,-0.1118 z m 7.1184,-0.7671 c 1.618,2.2359 0.8305,4.791 -1.7164,6.6339 l -4.0637,2.9411 -9.8539,-13.37 1.6918,-1.2238 4.243,5.6977 1.0691,-0.7727 c 1.2637,-0.9152 1.1285,-2.0023 1.1715,-3.6621 l 0.0453,-6.6109 2.125,-0.1743 -0.1136,5.5332 c -0.0711,1.0891 0.071,2.8821 -0.711,3.684 l 0.0281,0.0391 c 2.0692,-1.1121 4.495,-0.9121 6.0848,1.2848 z m -29.0914,18.6859 -3.5707,4.1152 7.4801,2.8051 0.0308,-0.0363 -3.9402,-6.884 z m 4.7406,8.818 -16.9051,-5.4559 0.8051,-1.843 6.0114,2.0071 4.4988,-5.184 -2.9438,-5.5422 1.8606,-1.118 7.9633,15.65 -1.2903,1.486 z m 8.8028,-11.0321 c 1.1308,-1.0746 1.4472,-2.1707 1.714,-3.3179 l 1.6156,0.55 c -0.4281,1.5 -1.1246,2.857 -2.3078,3.982 -2.139,2.034 -4.8922,2.168 -6.6621,0.307 -4.0015,-4.209 2.4938,-8 -0.4168,-11.0617 -1.2734,-1.3402 -3.0578,-1.2652 -4.4664,0.0738 -0.957,0.9102 -1.5164,2.2371 -1.7136,3.318 l -1.6864,-0.4488 c 0.4309,-1.6032 1.0735,-2.843 2.3953,-4.0992 2.6442,-2.5141 5.4836,-2.0348 7.1868,-0.243 3.589,3.7742 -2.3993,8.3082 0.1144,10.9519 1.3891,1.461 3.1836,0.9801 4.227,-0.0121 z m 17.764,-23.3949 5.4305,-3.2187 0.8808,1.4859 -5.4503,3.2309 2.9168,4.8281 5.5949,-3.316 0.8812,1.4859 -7.35,4.3559 -8.5918,-14.2137 7.5567,-4.4781 0.8808,1.4859 -5.7394,3.4031 2.9898,4.9508 z m 134.251104,250.005098 0.043,-0.022 1.947,-16.245 1.91,-0.22 7.525,14.428 -1.859,0.949 -6.054,-11.649 -0.043,0.021 -2.067,16.172 -1.877,0.122 -7.493,-14.363 1.86,-0.949 6.108,11.756 z m -49.505,-0.133 2.054,-0.207 0.858,7.052 7.141,8.107 -1.685,1.233 -6.203,-7.672 -4.255,8.729 -1.966,-0.838 4.916,-9.35 -0.86,-7.054 z m 38.612,6.248 0.044,-0.017 -0.142,-7.93 -5.11,1.888 5.208,6.059 z m -10.787,-12.082 4.304,4.652 6.439,-2.38 0.086,-6.275 2.168,-0.085 -0.548,17.551 -1.847,0.683 -12.194,-12.918 1.592,-1.228 z m -16.378,4.322 1.777,8.26 1.718,7.976 -2.022,0.418 -3.495,-16.237 2.022,-0.417 z m 13.291,-3.163 4.667,15.94 -1.987,0.563 -4.666,-15.94 1.986,-0.563 z m -3.469,2.192 -5.521,8.759 8.431,5.588 -1.153,1.537 -9.802,-6.653 6.241,-10.256 1.804,1.025 z m -131.151404,-41.008 -12.4043,11.045 -1.359,-1.554 12.4035,-11.045 1.3598,1.554 z m -45.2481,-91.709 c 0.0758,-2.303 1.984,-4.089 4.2872,-4.013 2.3027,0.076 4.0882,1.984 4.0121,4.287 -0.0762,2.303 -1.9844,4.089 -4.2871,4.012 -2.3028,-0.076 -4.0883,-1.984 -4.0122,-4.286 z m 5.9418,11.17 c 5.0418,-0.471 6.8868,2.25 7.2188,5.81 0.3008,3.227 -0.6496,6.737 -5.9481,7.304 l -10.2921396,1.032 -0.1918,-2.055 10.1730396,-1.021 c 3.7516,-0.35 4.7746,-2.567 4.552,-4.956 -0.2746,-2.94 -1.7832,-4.39 -4.8184,-4.107 -1.5293,0.143 -3.1043,0.314 -4.6555,0.483 l -6.0890296,0.616 -0.1914,-2.056 5.7300296,-0.582 c 1.695,-0.182 3.1743,-0.343 4.5125,-0.468 z m -8.2285,20.709 0.3578,-1.848 15.7957,-3.6 0.4461,2.04 -12.9222,2.923 0.0101,0.047 15.2184,6.009 -0.2723,1.902 -15.866,3.615 -0.4461,-2.04 12.8051,-2.897 -0.0106,-0.047 -15.116,-6.104 z m 20.5766,12.341 -15.8344,5.012 -0.6058,-1.974 15.8347,-5.01 0.6055,1.972 z m 21.1519,-122.115898 1.3993,1.014 -7.3758,10.186 -1.3996,-1.0129 3.0828,-4.257 -12.1367,-8.6122 1.2105,-1.671 12.1363,8.6109 3.0832,-4.2578 z m -34.2527,59.052898 1.7125,0.231 -0.8891,6.588 5.5958,0.707 0.9117,-6.755 1.7125,0.231 -1.1875,8.801 -16.4781596,-2.079 0.2793,-2.069 7.4574596,0.909 0.8855,-6.564 z m 13.9996,-44.149798 9.3242,4.4797 -0.9066,1.8531 -9.2164,-4.425 c -3.3852,-1.6558 -5.4125,-0.2961 -6.4668,1.8602 -1.2965,2.6519 -0.7633,4.6758 1.9746,6.0148 1.3801,0.6738 2.8137,1.3481 4.2258,2.012098 l 5.5187,2.6459 -0.9066,1.853 -5.1953,-2.486 c -1.5414,-0.727 -2.8887,-1.359 -4.0961,-1.95 -4.5492,-2.223798 -4.7074,-5.506998 -3.1367,-8.719898 1.4234,-2.9102 4.0629,-5.4129 8.8812,-3.1379 z m -12.0469,33.807798 -1.2125,5.311 7.9204,-1.047 0.0105,-0.047 -6.7184,-4.217 z m 8.3352,5.546 -17.4836,3.147 -0.1574,-2.005 6.2484,-1.06 1.5281,-6.691 -5.207,-3.503 1.1145,-1.863 14.3949,10.057 -0.4379,1.918 z m 23.9281,130.871 10.4153,-10.628 1.4597,1.459 -10.4148,10.628 3.718,3.715 -1.2211,1.223 -8.8969,-8.889 1.2211,-1.223 3.7187,3.715 z m 184.657404,18.723 0.04,-0.027 -1.986,-7.679 -4.53,3.027 6.476,4.679 z m -13.304,-9.238 5.27,3.523 5.707,-3.814 -1.379,-6.123 2.09,-0.588 3.554,17.196 -1.636,1.093 -14.869,-9.72 1.263,-1.567 z m -160.926404,-0.086 0.0371,0.031 6.8113,-4.065 -4.1781,-3.496 -2.6703,7.53 z m 5.1258,-15.364 -1.8989,6.047 5.2641,4.405 5.4883,-3.043 1.1519,1.839 -15.5047,8.245 -1.5089,-1.263 5.1503,-17.001 1.8579,0.771 z m -31.459,-24.464 -5.4473,3.511 1.3238,2.088 c 1.4395,2.27 3.2969,2.286 4.7969,1.335 2.027,-1.285 1.5242,-3.467 0.4317,-5.19 l -1.1051,-1.744 z m 7.2988,-4.713 -5.948,3.886 0.707,1.114 c 0.8348,1.318 1.9285,1.25 3.5828,1.395 l 6.5945,0.45 0.0446,2.132 -5.5161,-0.453 c -1.082,-0.138 -2.8804,-0.106 -3.6335,-0.936 l -0.0407,0.027 c 0.9828,2.133 0.6348,4.542 -1.6554,5.994 -2.3309,1.477 -4.8329,0.535 -6.5164,-2.12 l -2.6864,-4.237 13.9492,-9.014 1.1184,1.762 z m -2.0492,-3.439 -1.5387,0.787 -3.0394,-5.939 -5.127,2.677 2.8758,5.619 -1.5387,0.788 -2.8863,-5.64 -4.9988,2.612 2.9632,5.789 -1.5382,0.789 -3.8926,-7.607 14.7179,-7.694 4.0028,7.819 z m -25.234,-17.067 17.3895,0.131 0.7046,1.787 -12.6546,12.525 -1.2403,-1.575 11.2832,-10.901 -15.5019,0.207 0.0195,-2.174 z m 23.1633,37.146 c 4.6,-3.545 7.7,3.308 11.0453,0.729 1.4637,-1.128 1.5746,-2.91 0.3883,-4.451 -0.8063,-1.045 -2.0688,-1.739 -3.1239,-2.046 l 0.6223,-1.631 c 1.5485,0.593 2.7152,1.361 3.8289,2.805 2.2274,2.89 1.457,5.665 -0.5004,7.174 -4.125,3.18 -8.0168,-3.245 -10.9058,-1.018 -1.5965,1.231 -1.3035,3.065 -0.4246,4.206 0.9527,1.236 2.0089,1.664 3.1234,2.047 l -0.7145,1.55 c -1.4476,-0.581 -2.7257,-1.414 -3.7218,-2.706 -1.8024,-2.338 -1.6516,-5.09 0.3828,-6.659 z m 4.3898,-151.347798 -1.0898,1.7527 -14.1801,-8.6461 4.8281,-7.766 1.4672,0.9121 -3.7383,6.0133 12.7129,7.734 z m 175.361904,-47.1523 5.865,-11.745 -0.043,-0.0218 -14.297,7.8339 -1.203,-1.446 7.215,-14.5059 1.861,0.948 -5.919,11.852 0.043,0.0219 14.287,-7.975 1.299,1.4152 -7.247,14.5688 -1.861,-0.9461 z m 27.741,219.403098 1.446,-1.301 c 1.783,-1.607 2.146,-3.355 0.796,-4.853 -1.542,-1.712 -3.15,-1.49 -4.719,-0.077 l -1.802,1.622 4.279,4.609 z m 4.919,5.388 1.231,-1.107 c 1.979,-1.783 2.071,-3.223 0.835,-4.596 -1.141,-1.267 -2.75,-1.367 -4.765,0.447 l -1.159,1.044 3.858,4.212 z m -1.271,-13.066 c 1.413,1.569 1.565,3.531 0.254,5.23 l 0.032,0.036 c 1.796,-0.875 3.395,-0.604 4.761,0.912 1.237,1.373 1.771,3.83 -0.94,6.272 l -3.424,3.084 -11.221,-12.244 3.46,-3.116 c 2.424,-2.185 5.102,-2.367 7.078,-0.174 z m 19.961,-163.993098 7.783,-1.5309 -2.755,-4.7 -5.052,6.1891 0.024,0.0418 z m -2.088,0.1383 10.58,-14.2692 1.489,1.352 -3.826,5.0531 3.471,5.9219 6.193,-1.0149 0.464,2.12 -17.376,2.5347 -0.995,-1.6976 z m 5.761,-18.9172 c -2.297,-3.077 -6.41,-3.4508 -9.487,-1.1539 -3.078,2.2969 -3.888,6.3469 -1.592,9.4238 0.977,1.307 2.031,2.1981 3.571,2.6961 l -0.791,1.6691 c -1.669,-0.791 -2.972,-1.7351 -4.164,-3.332 -2.943,-3.9422 -2.422,-9.1832 1.655,-12.2269 4.347,-3.2442 9.25,-2.052 12.192,1.891 1.049,1.4027 1.582,3.282 1.794,5.0109 l -1.661,0.2211 c -0.193,-1.5023 -0.642,-3.025 -1.517,-4.1992 z m -20.357,-1.0668 12.414,-11.032 1.359,1.5527 -12.416,11.034 -1.357,-1.5547 z m -4.66,-5.141 5.636,-13.9242 -13.241,6.8062 -1.559,-1.4602 9.141,-14.191 1.684,1.116 -8.045,11.9309 0.035,0.0332 13.002,-6.832 1.437,1.3449 -5.712,13.6539 0.035,0.0332 11.251,-8.9301 1.242,1.6231 -13.276,10.3219 -1.63,-1.5258 z m 30.327,135.350798 12.672,3.865 0.015,-0.046 -10.242,-12.761 1.179,-1.517 15.573,4.722 -0.624,1.993 -12.557,-3.829 -0.015,0.045 10.105,12.794 -1.226,1.427 -15.504,-4.7 0.624,-1.993 z m -18.082,33.43 c 1.908,-2.618 4.943,-4.623 9.292,-1.543 l 8.401,6.035 -1.215,1.668 -8.305,-5.964 c -3.045,-2.219 -5.278,-1.233 -6.692,0.706 -1.739,2.386 -1.566,4.471 0.897,6.268 1.242,0.904 2.536,1.817 3.81,2.716 l 4.975,3.567 -1.216,1.668 -4.683,-3.354 c -1.391,-0.984 -2.608,-1.842 -3.694,-2.633 -4.092,-2.983 -3.676,-6.243 -1.57,-9.134 z m 6.738,-9.382 11.622,6.359 0.024,-0.042 -7.434,-14.576 1.463,-1.245 14.288,7.788 -1.015,1.824 -11.518,-6.301 -0.023,0.042 7.293,14.58 -1.49,1.148 -14.225,-7.753 1.015,-1.824 z m -6.592,33.366 1.668,-1.823 c 1.816,-1.983 1.346,-3.78 0.037,-4.979 -1.77,-1.621 -3.746,-0.566 -5.123,0.939 l -1.394,1.522 4.812,4.341 z m -11.268,-10.155 5.304,4.726 0.891,-0.973 c 1.054,-1.151 0.702,-2.188 0.409,-3.824 l -1.287,-6.483 2.046,-0.6 1.004,5.444 c 0.15,1.08 0.651,2.807 0.046,3.752 l 0.036,0.032 c 1.802,-1.506 4.218,-1.799 6.219,0.032 2.035,1.864 1.778,4.526 -0.345,6.844 l -3.388,3.699 -12.345,-11.109 1.41,-1.54 z m 41.998,-127.804 -9.824,3.239 -0.633,-1.965 9.71,-3.202 c 3.587,-1.155 4.104,-3.541 3.368,-5.825 -0.904,-2.81 -2.692,-3.898 -5.594,-2.964 -1.462,0.471 -2.962,0.98 -4.439,1.481 l -5.812,1.921 -0.632,-1.964 5.468,-1.812 c 1.615,-0.545 3.024,-1.024 4.303,-1.436 4.82,-1.552 7.211,0.704 8.307,4.107 0.993,3.084 0.827,6.719 -4.222,8.42 z m -10.311,-20.896798 -0.848,-1.8801 -5.888,2.707 1.017,2.251898 c 1.104,2.452 2.941,2.729 4.56,2 2.188,-0.988 1.998,-3.2179 1.159,-5.078798 z m 4.499,0.5789 6.465,1.375698 -0.256,2.1172 -5.397,-1.227 c -1.052,-0.289 -2.837,-0.511 -3.466,-1.437798 l -0.044,0.0187 c 0.673,2.251098 -0.011,4.587098 -2.484,5.701098 -2.516,1.135 -4.86,-0.152 -6.152,-3.018 l -2.062,-4.572098 15.082,-6.9578 0.857,1.9039 -6.436,3.007 0.543,1.2039 c 0.641,1.4223 1.733,1.509 3.35,1.8852 z m -0.754,40.430898 12.905,-7.684 -14.66,-2.583 -0.361,-2.106 15.862,-5.779 0.667,1.907 -13.621,4.642 0.008,0.047 14.487,2.417 0.331,1.941 -12.805,7.423 0.009,0.048 14.36,-0.313 0.009,2.044 -16.815,0.196 -0.376,-2.2 z m -47.235,-103.491098 c -3.165,-2.175 -7.179,-1.2059 -9.354,1.959 -2.174,3.1652 -1.639,7.2601 1.525,9.434 3.165,2.175 7.18,1.207 9.355,-1.9578 2.174,-3.1661 1.639,-7.2602 -1.526,-9.4352 z m -8.807,12.818 c -4.055,-2.786 -5.248,-7.916 -2.367,-12.109 3.072,-4.4707 8.097,-4.9199 12.153,-2.134 4.054,2.7871 5.248,7.916 2.367,12.1102 -3.072,4.4699 -8.098,4.9191 -12.153,2.1328 z m -58.918,-37.3289 -0.61,5.7531 6.272,0.716 -0.197,1.7168 -6.294,-0.7187 -0.593,5.6078 6.462,0.7402 -0.197,1.7156 -8.488,-0.9699 1.742,-16.5167895 8.727,0.9968895 -0.195,1.7172 -6.629,-0.7582 z m 17.756,2.5711 c -3.754,-0.8032 -7.095,1.625 -7.898,5.3789 -0.803,3.7562 1.255,7.3371 5.01,8.139 1.596,0.341 2.975,0.316 4.462,-0.3218 l 0.504,1.7757 c -1.777,0.5039 -3.379,0.6532 -5.327,0.236 -4.811,-1.0278 -7.872,-5.3137 -6.808,-10.2899 1.133,-5.3039 5.607,-7.6359 10.419,-6.609 1.713,0.3661 3.351,1.4282 4.649,2.5891 l -1.103,1.2621 c -1.136,-1.0043 -2.476,-1.8551 -3.908,-2.1601 z m -60.012,0.1441 -2.296,14.709 -2.098,0.4 -6.087,-15.7453 1.893,-0.7039 4.907,13.5289 0.047,-0.0098 2.134,-14.5312 1.933,-0.37 7.672,12.6582 0.048,-0.0089 -0.593,-14.3531695 2.043,-0.04805 0.525,16.8090195 -2.193,0.4191 -7.935,-12.7539 z m 27.883,-3.78632 c -3.84,-0.01172 -6.61,3.05112 -6.622,6.89102 -0.013,3.8391 2.737,6.9203 6.577,6.9332 3.84,0.0129 6.61,-3.05 6.623,-6.8902 0.012,-3.8399 -2.738,-6.92074 -6.578,-6.93402 z m -0.051,15.55312 c -4.92,-0.0168 -8.796,-3.5809 -8.779,-8.6691 0.017,-5.4239 3.916,-8.6277795 8.835,-8.6117595 4.92,0.01602 8.797,3.5808595 8.781,8.6687595 -0.018,5.4242 -3.916,8.6269 -8.837,8.6121 z m -38.654,5.2449 -3.393,-9.6449 c -1.225,-3.5629 -3.62,-4.034 -5.89,-3.2539 -2.791,0.9598 -3.844,2.7687 -2.853,5.6508 0.499,1.4531 1.037,2.9429 1.567,4.4101 l 2.035,5.7719 -1.952,0.6711 -1.918,-5.4309 c -0.576,-1.6043 -1.083,-3.0031 -1.52,-4.2742 -1.647,-4.789 0.562,-7.223 3.944,-8.3859 3.063,-1.0531 6.7,-0.959 8.5,4.0558 l 3.432,9.759 -1.952,0.6711 z m 86.674,-12.566 c -3.622,-1.2738 -7.245,0.7082 -8.519,4.3301 -1.274,3.623 0.31,7.4371 3.933,8.7109 3.622,1.2742 7.245,-0.709 8.52,-4.3308 1.273,-3.6219 -0.311,-7.436 -3.934,-8.7102 z m -5.159,14.6711 c -4.641,-1.632 -7.131,-6.273 -5.443,-11.073 1.8,-5.1161 6.534,-6.8598 11.176,-5.229 4.641,1.6329 7.13,6.2739 5.442,11.0739 -1.799,5.1172 -6.534,6.8613 -11.175,5.2281 z m 86.484,140.354998 16.469,2.143 -0.284,2.044 -16.47,-2.142 0.285,-2.045 z m 9.375,-18.215 c -2.303,0.084 -4.217,-1.696 -4.3,-3.999 -0.083,-2.303 1.697,-4.216 4,-4.299 2.302,-0.083 4.216,1.697 4.299,3.999 0.083,2.303 -1.698,4.217 -3.999,4.299 z m 0.527,34.207 c -5.692,-1.158 -2.538,-7.986 -6.677,-8.829 -1.811,-0.368 -3.231,0.714 -3.619,2.619 -0.264,1.294 0.038,2.702 0.496,3.701 l -1.641,0.597 c -0.564,-1.56 -0.748,-2.945 -0.383,-4.732 0.727,-3.574 3.33,-4.808 5.752,-4.315 5.103,1.039 2.792,8.185 6.366,8.913 1.975,0.402 3.172,-1.02 3.459,-2.432 0.31,-1.528 -0.058,-2.607 -0.496,-3.701 l 1.639,-0.474 c 0.508,1.475 0.715,2.987 0.39,4.586 -0.589,2.892 -2.77,4.58 -5.286,4.067 z m -276.841704,-83.465 c -1.2707,3.624 0.7152,7.245 4.3386,8.516 3.6235,1.27 7.436,-0.318 8.7067,-3.942 0.5398,-1.54 0.6902,-2.911 0.2441,-4.467 l 1.8254,-0.275 c 0.2758,1.826 0.2203,3.435 -0.4387,5.315 -1.6285,4.642 -6.2668,7.136 -11.0679,5.453 -5.1188,-1.795 -6.8668,-6.529 -5.2387,-11.171 0.5797,-1.654 1.8398,-3.145 3.1559,-4.286 l 1.1113,1.255 c -1.1391,1 -2.152,2.22 -2.6367,3.602 z m 283.652704,56.584 c 0.689,1.399 1.082,2.874 0.959,4.501 -0.223,2.943 -2.176,4.89 -4.737,4.695 -5.791,-0.439 -3.515,-7.607 -7.726,-7.926 -1.843,-0.141 -3.118,1.111 -3.264,3.049 -0.1,1.317 0.374,2.676 0.953,3.611 l -1.553,0.797 c -0.754,-1.478 -1.109,-2.829 -0.97,-4.648 0.275,-3.637 2.704,-5.185 5.168,-4.999 5.193,0.394 3.791,7.774 7.429,8.049 2.01,0.152 3.019,-1.407 3.128,-2.844 0.118,-1.555 -0.382,-2.58 -0.954,-3.61 l 1.567,-0.675 z M 100.88848,32.407422 c -1.029504,-2.168 -3.256904,-1.934 -5.099504,-1.059 l -1.8648,0.8851 2.8219,5.834 2.2328,-1.0609 c 2.428604,-1.1524 2.670604,-2.9942 1.909604,-4.5992 z m -0.8585,5.6949 -4.531604,2.15 -7.2508,-14.9418 1.8867,-0.8961 3.1325,6.377 1.1925,-0.5661 c 1.4094,-0.6679 1.4747,-1.7617 1.8196,-3.3867 l 1.2496,-6.491 2.1215,0.216 -1.1207,5.4199 c -0.2688,1.0571 -0.4555,2.845 -1.3707,3.493 l 0.0207,0.043 c 2.2367,-0.716 4.585204,-0.077 5.748204,2.373 1.183,2.493 -0.057,4.861 -2.8975,6.2098 z m 178.3745,165.383098 1.587,0.682 -2.634,6.13 5.334,2.239 2.491,-5.8 1.588,0.683 -2.501,5.822 5.2,2.182 2.569,-5.976 1.586,0.682 -3.373,7.851 -15.315,-6.424 3.468,-8.071 z m -133.462,-29.893 c -0.959,-0.487 -2.119,-0.129 -2.595,0.802 l 3.468,1.767 c 0.475,-0.93 0.084,-2.081 -0.873,-2.569 z m 12.443,-21.193 c 0.09,1.971 0.939,3.925 2.512,5.364 l 2.476,2.267 c 0.677,0.624 1.445,1.087 2.25,1.426 0.014,0.475 0.024,0.949 0.017,1.411 -0.089,5.557 -1.613,10.351 -5.041,13.559 -1.179,1.111 -4.481,3.322 -8.337,3.348 -3.646,0.024 -7.99,-0.059 -15.844,-6.194 -2.168,-1.694 -2.446,-2.42 -0.81,-4.208 1.336,-1.465 5.838,-2.068 8.224,-1.976 4.23,0.161 6.569,1.788 7.537,4.664 1.907,0.079 3.027,-0.377 4.02,-1.261 1.309,-1.179 2.52,-3.777 2.582,-8.052 0.056,-3.093 -0.528,-6.978 -1.872,-11.455 0.698,0.534 1.478,0.907 2.286,1.107 z m -31.866,26.206 c -2.734,2.531 -7.004,2.367 -9.536,-0.366 -2.53,-2.732 -2.367,-7.003 0.366,-9.533 1.707,-1.582 4.012,-2.112 6.12,-1.621 l 25.137,-22.809 4.991,4.712 -24.996,23.635 c 0.329,2.14 -0.375,4.4 -2.082,5.982 z m -3.685,-26.36 c 0.965,-0.401 1.412,-1.531 0.998,-2.525 -0.414,-0.991 -1.53,-1.47 -2.495,-1.067 l 1.497,3.592 z m -0.686,-17.334 c 3.116,-2.853 7.402,-4.06 12.273,-4.031 l 10.195,9.627 c -3.433,-1.152 -6.485,-1.776 -9.03,-1.929 -4.267,-0.262 -6.95,0.746 -8.225,1.961 -0.958,0.923 -1.499,2.004 -1.565,3.913 2.794,1.183 4.238,3.639 4.075,7.869 -0.091,2.389 -1.037,6.829 -2.599,8.049 -1.909,1.494 -2.611,1.163 -4.135,-1.128 -5.516,-8.299 -5.267,-12.638 -4.964,-16.271 0.32,-3.84 2.778,-6.966 3.975,-8.06 z m 63.017,-23.809 3.143,-2.853 c 1.165,-1.078 2.985,-1.01 4.066,0.155 1.079,1.168 1.008,2.991 -0.159,4.069 l -0.915,0.865 -2.501,1.742 c -1.92,1.313 -4.232,2.672 -8.584,2.697 -1.621,0 -3.528,-0.207 -5.79,-0.723 0.489,-0.818 1.059,-1.551 1.704,-2.142 2.946,-2.615 6.831,-3.265 9.036,-3.81 z m -19.042,28.899 c 2.703,0.141 4.132,-0.456 5.115,-1.347 0.775,-0.724 1.455,-1.864 1.85,-3.795 0.251,-1.23 0.354,-2.761 0.269,-4.555 l -9.85,9.314 c 0.954,0.205 1.835,0.337 2.616,0.383 z m 1.119,-12.637 c 1.326,0.066 2.881,0.273 4.648,0.677 1.529,0.349 2.974,0.491 4.327,0.491 1.243,0 2.411,-0.12 3.494,-0.307 0.384,-0.068 0.771,-0.155 1.157,-0.251 0.312,3.061 0.253,5.861 -0.26,8.41 -0.616,3.076 -1.958,5.86 -4.157,7.897 -1.268,1.182 -2.768,2.026 -4.4,2.587 l -0.636,-0.584 c -1.489,-1.363 -3.381,-2.047 -5.254,-2.045 -0.105,0 -0.209,0.002 -0.314,0.006 -0.328,-0.955 -0.893,-1.852 -1.705,-2.592 l -12.811,-11.38 c 0.362,-3.398 1.672,-6.495 4.076,-8.705 4.584,-4.253 11.633,-4.342 18.588,-2.765 8.753,2.004 13.048,-0.309 15.835,-2.246 -0.512,2.172 -2.306,5.18 -4.643,7.347 -1.33,1.232 -3.673,2.192 -5.772,2.543 -2.105,0.362 -4.448,0.443 -7.124,-0.163 -4.464,-1.021 -9.329,-1.248 -11.668,0.911 -0.964,0.912 -1.667,2.291 -1.734,4.998 -0.015,0.769 0.047,1.643 0.174,2.593 l 8.179,-7.422 z m 30.041,53.181 c -1.861,2.03 -5.015,2.169 -7.047,0.308 0,0 -1.516,-2.028 -4.036,-5.927 -2.107,0.618 -4.474,0.158 -6.208,-1.431 l -8.993,-8.245 c -1.449,-1.327 -2.153,-3.159 -2.096,-4.978 -1.531,0.069 -3.09,-0.448 -4.311,-1.568 l -2.476,-2.27 c -1.626,-1.488 -2.236,-3.667 -1.802,-5.675 -1.211,0.107 -2.462,-0.259 -3.431,-1.147 l -37.394,-35.313 c -1.507,-1.381 -1.609,-3.724 -0.229,-5.231 1.421,-1.552 3.992,-1.366 5.233,-0.228 l 38.455,34.157 c 0.967,0.886 1.442,2.097 1.442,3.312 0.575,-0.178 1.171,-0.269 1.771,-0.269 1.444,0 2.889,0.52 4.04,1.572 l 2.477,2.271 c 1.218,1.119 1.869,2.626 1.934,4.157 0.255,-0.03 0.511,-0.051 0.766,-0.051 1.567,0 3.135,0.563 4.378,1.704 l 8.992,8.243 c 1.74,1.593 2.404,3.915 1.968,6.07 5.087,2.885 6.256,3.494 6.256,3.494 2.03,1.86 2.171,5.014 0.311,7.045 z m 8.107,-75.331 22,0 0,79.071 -22,0 0,-79.071 z M 72.192476,92.592522 l 167.895004,0 0,9.787898 -167.895004,0 0,-9.787898 z m 13.6977,12.621898 22.000304,0 0,79.071 -22.000304,0 0,-79.071 z m 151.503304,106.583 -162.506404,0 0,-15.333 162.506404,0 0,15.333 z m -4.998,-18.733 0,0.401 -34.01,0 0,-0.401 c 0,-3.284 2.743,-5.947 6.128,-5.947 l 21.754,0 c 3.384,0 6.128,2.663 6.128,5.947 z m -112.521,34.565 36.266,14.856 36.265,-14.856 -72.531,0 z m 127.517,-7.657 -91.252,38.242 -91.250504,-38.242 2.4434,-5.055 177.617104,0 2.442,5.055 z m -133.497,-26.908 0,0.401 -34.009404,0 0,-0.401 c 0,-3.284 2.7434,-5.947 6.1282,-5.947 l 21.754204,0 c 3.383,0 6.127,2.663 6.127,5.947 z M 63.610876,79.380422 l 185.058604,0 0,9.7879 -185.058604,0 0,-9.7879"
       id="path3048"
       style="fill:#6e222c;fill-opacity:1;fill-rule:nonzero;stroke:none" /><path
       d="m 293.1901,68.779563 c -0.71004,-1.139801 -1.43834,-2.278686 -2.17465,-3.398706 0.27669,-0.665541 0.42874,-1.403342 0.42874,-2.175099 0,-3.054902 -2.38957,-5.458098 -5.37255,-5.458098 -0.1212,0 -0.2504,0.01829 -0.37045,0.02722 -0.80035,-1.076801 -1.60411,-2.170983 -2.43075,-3.229948 0.88494,-0.290295 1.82706,-0.454594 2.8012,-0.454594 4.98383,0 9.0347,4.108837 9.0347,9.115428 0,2.090148 -0.73289,4.023658 -1.91624,5.573805 z"
       id="path3003"
       style="fill:#6e222c;fill-opacity:0.50980392;fill-rule:nonzero;stroke:none" /><path
       d="m 17.929786,68.493726 c -1.066525,-1.501097 -1.687326,-3.323245 -1.687326,-5.287968 0,-5.006591 4.077178,-9.115428 9.061897,-9.115428 0.853038,0 1.673926,0.142918 2.455916,0.370214 -0.839158,1.075888 -1.670312,2.188362 -2.483162,3.287116 -2.970454,0.01383 -5.377285,2.411314 -5.377285,5.458098 0,0.62884 0.09826,1.240757 0.285836,1.799853 -0.763721,1.155921 -1.52297,2.3131 -2.255876,3.488115 z"
       id="path3005"
       style="fill:#6e222c;fill-opacity:0.50980392;fill-rule:nonzero;stroke:none" /><path
       d="m 16.228615,39.575115 0,-18.079478 18.258182,0 0,18.079478 -18.258182,0 z m 3.644856,-3.644753 10.932786,0 0,-10.754184 -10.932786,0 0,10.754184 z"
       id="path3007"
       style="fill:#6e222c;fill-opacity:0.50980392;fill-rule:nonzero;stroke:none" /><path
       d="m 49.001555,32.049622 c -0.09387,-0.523424 -0.173788,-1.049591 -0.173788,-1.59931 0,-5.011051 4.077165,-9.119544 9.061918,-9.119544 1.31256,0 2.559148,0.28938 3.688658,0.799426 -1.312673,0.932969 -2.608311,1.888805 -3.889657,2.858361 -2.371525,0.08941 -4.341622,1.687348 -4.971261,3.916869 -1.255507,1.031754 -2.497066,2.081231 -3.71587,3.144198 z"
       id="path3009"
       style="fill:#6e222c;fill-opacity:0.50980392;fill-rule:nonzero;stroke:none" /><path
       d="m 262.31979,32.392625 c -1.17879,-1.031182 -2.36672,-2.05802 -3.57295,-3.058447 -0.49963,-2.505981 -2.65256,-4.345623 -5.26054,-4.345623 -0.0765,0 -0.15206,0 -0.22867,0 -1.22794,-0.929425 -2.46047,-1.849017 -3.71586,-2.743112 1.19708,-0.588594 2.53252,-0.914675 3.94453,-0.914675 4.98385,0 9.03471,4.108493 9.03471,9.119544 0,0.665426 -0.0675,1.313473 -0.20123,1.942313 z"
       id="path3011"
       style="fill:#6e222c;fill-opacity:0.50980392;fill-rule:nonzero;stroke:none" /><path
       d="m 276.98203,39.575115 0,-18.079478 18.25807,0 0,18.079478 -18.25807,0 z m 3.64498,-3.644753 10.93266,0 0,-10.754184 -10.93266,0 0,10.754184 z"
       id="path3013"
       style="fill:#6e222c;fill-opacity:0.50980392;fill-rule:nonzero;stroke:none" /><path
       d="m 48.778602,7.1685026 0,-18.0800486 18.25784,0 0,18.0800486 -18.25784,0 z m 3.680197,-3.6453246 10.932775,0 0,-10.75407 -10.932775,0 0,10.75407 z"
       id="path3015"
       style="fill:#6e222c;fill-opacity:0.50980392;fill-rule:nonzero;stroke:none" /><path
       d="m 88.044486,6.8102933 c -3.809629,-1.0848052 -6.631403,-4.613167 -6.631403,-8.7751691 0,-5.0065912 4.077167,-9.1154282 9.061921,-9.1154282 4.98384,0 9.030136,4.108837 9.030136,9.1154282 0,1.6248063 -0.4515,3.1571168 -1.196846,4.4876268 -3.4792,1.3139312 -6.90478,2.7520299 -10.263808,4.2875423 z M 90.475004,3.523178 c 2.97853,0 5.37281,-2.4340664 5.37281,-5.4880538 0,-3.0549026 -2.39429,-5.4580982 -5.37281,-5.4580982 -2.983906,0 -5.404591,2.4031956 -5.404591,5.4580982 0,3.0539874 2.420685,5.4880538 5.404591,5.4880538 z"
       id="path3017"
       style="fill:#6e222c;fill-opacity:0.50980392;fill-rule:nonzero;stroke:none" /><path
       d="m 113.91357,-2.4517119 0,-8.4598341 18.26618,0 0,4.7439647 c -1.22795,0.1782477 -2.44334,0.3703287 -3.66224,0.5716718 l 0,-1.6256065 -10.91529,0 0,3.8274591 c -1.23275,0.2938399 -2.46984,0.6199221 -3.68865,0.942345 z"
       id="path3019"
       style="fill:#6e222c;fill-opacity:0.50980392;fill-rule:nonzero;stroke:none" /><path
       d="m 162.81795,-7.650271 c -2.42961,-0.112161 -4.88551,-0.201457 -7.34256,-0.201457 -2.27755,0 -4.52421,0.07546 -6.77546,0.17013 1.66128,-2.072769 4.22123,-3.398706 7.0613,-3.398706 2.84921,0 5.40459,1.335312 7.05672,3.430033 z"
       id="path3021"
       style="fill:#6e222c;fill-opacity:0.50980392;fill-rule:nonzero;stroke:none" /><path
       d="m 197.35039,-2.3623028 c -1.21881,-0.3260811 -2.42961,-0.6485051 -3.66215,-0.9469174 l 0,-3.9122958 -10.9155,0 0,1.6836885 c -1.22337,-0.205459 -2.4559,-0.3929677 -3.68843,-0.5716718 l 0,-4.8020467 18.26608,0 0,8.5492432 z"
       id="path3023"
       style="fill:#6e222c;fill-opacity:0.50980392;fill-rule:nonzero;stroke:none" /><path
       d="M 223.01733,6.8688317 C 219.72106,5.3552724 216.38936,3.9305506 212.98218,2.63983 c -0.79462,-1.3630956 -1.28626,-2.9307351 -1.28626,-4.6047058 0,-5.0065912 4.07718,-9.1154282 9.06216,-9.1154282 4.98384,0 9.03471,4.108837 9.03471,9.1154282 0,4.2250009 -2.88008,7.8113295 -6.77546,8.8337075 z M 220.75808,3.523178 c 2.98298,0 5.37257,-2.4340664 5.37257,-5.4880538 0,-3.0549026 -2.38959,-5.4580982 -5.37257,-5.4580982 -2.97956,0 -5.40001,2.4031956 -5.40001,5.4580982 0,3.0539874 2.42045,5.4880538 5.40001,5.4880538 z"
       id="path3025"
       style="fill:#6e222c;fill-opacity:0.50980392;fill-rule:nonzero;stroke:none" /><path
       d="m 244.21836,7.1685026 0,-18.0800486 18.25806,0 0,18.0800486 -18.25806,0 z m 3.68042,-3.6453246 10.93381,0 0,-10.75407 -10.93381,0 0,10.75407 z"
       id="path3027"
       style="fill:#6e222c;fill-opacity:0.50980392;fill-rule:nonzero;stroke:none" /><path
       d="m 286.06247,7.1774212 c -4.98383,0 -9.06215,-4.1401653 -9.06215,-9.1467563 0,-5.0065909 4.07832,-9.1203439 9.06215,-9.1203439 4.97928,0 9.03015,4.113753 9.03015,9.1203439 0,5.006591 -4.05087,9.1467563 -9.03015,9.1467563 z m 0,-3.6587025 c 2.97843,0 5.37258,-2.4340664 5.37258,-5.4880538 0,-3.0549015 -2.39416,-5.4580969 -5.37258,-5.4580969 -2.98298,0 -5.40457,2.4031954 -5.40457,5.4580969 0,3.0539874 2.42159,5.4880538 5.40457,5.4880538 z"
       id="path3029"
       style="fill:#6e222c;fill-opacity:0.50980392;fill-rule:nonzero;stroke:none" /><path
       d="m 25.299887,7.1774212 c -4.985154,0 -9.06234,-4.1401653 -9.06234,-9.1467563 0,-5.0065909 4.077186,-9.1203439 9.06234,-9.1203439 4.979402,0 9.030158,4.113753 9.030158,9.1203439 0,5.006591 -4.050756,9.1467563 -9.030158,9.1467563 z m 0,-3.6587025 c 2.97855,0 5.37237,-2.4340664 5.37237,-5.4880538 0,-3.0549015 -2.39382,-5.4580969 -5.37237,-5.4580969 -2.984301,0 -5.404533,2.4031954 -5.404533,5.4580969 0,3.0539874 2.420232,5.4880538 5.404533,5.4880538 z"
       id="path3031"
       style="fill:#6e222c;fill-opacity:0.50980392;fill-rule:nonzero;stroke:none" /><path
       d="m 16.228615,346.2409 0,-18.07857 18.258182,0 0,18.07857 -18.258182,0 z m 3.644856,-3.64384 10.932786,0 0,-10.79088 -10.932786,0 0,10.79088 z"
       id="path3033"
       style="fill:#6e222c;fill-opacity:0.50980392;fill-rule:nonzero;stroke:none" /><path
       d="m 57.893231,346.2409 c -4.97938,0 -9.056547,-4.14005 -9.056547,-9.14675 0,-5.00671 4.077167,-9.11932 9.056547,-9.11932 4.985209,0 9.035964,4.11261 9.035964,9.11932 0,5.0067 -4.050755,9.14675 -9.035964,9.14675 z m 0,-3.65756 c 2.984357,0 5.378177,-2.43418 5.378177,-5.48919 0,-3.05502 -2.39382,-5.45719 -5.378177,-5.45719 -2.978527,0 -5.398759,2.40217 -5.398759,5.45719 0,3.05501 2.420232,5.48919 5.398759,5.48919 z"
       id="path3035"
       style="fill:#6e222c;fill-opacity:0.50980392;fill-rule:nonzero;stroke:none" /><path
       d="m 81.36392,346.2409 0,-18.07857 18.25785,0 0,18.07857 -18.25785,0 z m 3.643609,-3.64384 10.934035,0 0,-10.79088 -10.934035,0 0,10.79088 z"
       id="path3037"
       style="fill:#6e222c;fill-opacity:0.50980392;fill-rule:nonzero;stroke:none" /><path
       d="m 123.18495,346.2409 c -4.98384,0 -9.06192,-4.14005 -9.06192,-9.14675 0,-5.00671 4.07808,-9.11932 9.06192,-9.11932 4.98384,0 9.03024,4.11261 9.03024,9.11932 0,5.0067 -4.0464,9.14675 -9.03024,9.14675 z m 0,-3.65756 c 2.97852,0 5.37279,-2.43418 5.37279,-5.48919 0,-3.05502 -2.39428,-5.45719 -5.37279,-5.45719 -2.98298,0 -5.40459,2.40217 -5.40459,5.45719 0,3.05501 2.42161,5.48919 5.40459,5.48919 z"
       id="path3039"
       style="fill:#6e222c;fill-opacity:0.50980392;fill-rule:nonzero;stroke:none" /><path
       d="m 146.53443,346.2409 0,-18.07857 18.25808,0 0,18.07857 -18.25808,0 z m 3.64384,-3.64384 10.9338,0 0,-10.79088 -10.9338,0 0,10.79088 z"
       id="path3041"
       style="fill:#6e222c;fill-opacity:0.50980392;fill-rule:nonzero;stroke:none" /><path
       d="m 188.20363,346.2409 c -4.98384,0 -9.06215,-4.14005 -9.06215,-9.14675 0,-5.00671 4.07831,-9.11932 9.06215,-9.11932 4.98383,0 9.03012,4.11261 9.03012,9.11932 0,5.0067 -4.04629,9.14675 -9.03012,9.14675 z m 0,-3.65756 c 2.97956,0 5.37258,-2.43418 5.37258,-5.48919 0,-3.05502 -2.39302,-5.45719 -5.37258,-5.45719 -2.98298,0 -5.40344,2.40217 -5.40344,5.45719 0,3.05501 2.42046,5.48919 5.40344,5.48919 z"
       id="path3043"
       style="fill:#6e222c;fill-opacity:0.50980392;fill-rule:nonzero;stroke:none" /><path
       d="m 211.66964,346.2409 0,-18.07857 18.25692,0 0,18.07857 -18.25692,0 z m 3.64382,-3.64384 10.93382,0 0,-10.79088 -10.93382,0 0,10.79088 z"
       id="path3045"
       style="fill:#6e222c;fill-opacity:0.50980392;fill-rule:nonzero;stroke:none" /><path
       d="m 253.49088,346.2409 c -4.98041,0 -9.05758,-4.14005 -9.05758,-9.14675 0,-5.00671 4.07717,-9.11932 9.05758,-9.11932 4.98383,0 9.0347,4.11261 9.0347,9.11932 0,5.0067 -4.05087,9.14675 -9.0347,9.14675 z m 0,-3.65756 c 2.98298,0 5.37715,-2.43418 5.37715,-5.48919 0,-3.05502 -2.39417,-5.45719 -5.37715,-5.45719 -2.97956,0 -5.40002,2.40217 -5.40002,5.45719 0,3.05501 2.42046,5.48919 5.40002,5.48919 z"
       id="path3047"
       style="fill:#6e222c;fill-opacity:0.50980392;fill-rule:nonzero;stroke:none" /><path
       d="m 276.98203,346.2409 0,-18.07857 18.25807,0 0,18.07857 -18.25807,0 z m 3.64498,-3.64384 10.93266,0 0,-10.79088 -10.93266,0 0,10.79088 z"
       id="path3049"
       style="fill:#6e222c;fill-opacity:0.50980392;fill-rule:nonzero;stroke:none" /><path
       d="m 48.778602,313.83509 0,-18.07971 18.25784,0 0,18.07971 -18.25784,0 z m 3.680197,-3.68043 10.932775,0 0,-10.75429 -10.932775,0 0,10.75429 z"
       id="path3051"
       style="fill:#6e222c;fill-opacity:0.50980392;fill-rule:nonzero;stroke:none" /><path
       d="m 90.475004,313.82594 c -4.984754,0 -9.061921,-4.13547 -9.061921,-9.14675 0,-2.01915 0.656051,-3.88623 1.772185,-5.40002 1.117047,0.55795 2.241983,1.09418 3.372866,1.63041 -0.924967,0.97299 -1.487721,2.29126 -1.487721,3.76961 0,3.05958 2.420685,5.4892 5.404591,5.4892 2.89849,0 5.24235,-2.29584 5.3728,-5.23081 1.15581,0.46077 2.31756,0.88496 3.488126,1.3137 -0.74182,4.27383 -4.413096,7.57466 -8.860926,7.57466 z"
       id="path3053"
       style="fill:#6e222c;fill-opacity:0.50980392;fill-rule:nonzero;stroke:none" /><path
       d="m 113.91357,313.82594 0,-2.97041 c 4.43846,1.17422 8.96725,2.17464 13.54999,2.97041 l -13.54999,0 z"
       id="path3055"
       style="fill:#6e222c;fill-opacity:0.50980392;fill-rule:nonzero;stroke:none" /><path
       d="m 183.51362,313.82594 c 4.69,-0.81749 9.29426,-1.84535 13.83675,-3.05502 l 0,3.05502 -13.83675,0 z"
       id="path3057"
       style="fill:#6e222c;fill-opacity:0.50980392;fill-rule:nonzero;stroke:none" /><path
       d="m 220.75807,313.82594 c -4.47047,0 -8.19549,-3.32713 -8.91923,-7.62839 1.18794,-0.44247 2.345,-0.90668 3.51922,-1.37544 0.072,2.98756 2.46504,5.34628 5.40001,5.34628 2.98298,0 5.37258,-2.42962 5.37258,-5.4892 0,-1.52752 -0.57168,-2.87666 -1.54123,-3.85879 1.12162,-0.52708 2.23296,-1.07246 3.34542,-1.62583 1.15706,1.53207 1.85794,3.42088 1.85794,5.48462 0,5.01128 -4.05087,9.14675 -9.03471,9.14675 z"
       id="path3059"
       style="fill:#6e222c;fill-opacity:0.50980392;fill-rule:nonzero;stroke:none" /><path
       d="m 244.21836,313.83509 0,-18.07971 18.25806,0 0,18.07971 -18.25806,0 z m 3.68042,-3.68043 10.93381,0 0,-10.75429 -10.93381,0 0,10.75429 z"
       id="path3061"
       style="fill:#6e222c;fill-opacity:0.50980392;fill-rule:nonzero;stroke:none" /><path
       d="m 286.06247,313.83051 c -4.98383,0 -9.06215,-4.13662 -9.06215,-9.14675 0,-5.0067 4.07832,-9.11588 9.06215,-9.11588 4.97928,0 9.03015,4.10918 9.03015,9.11588 0,5.01013 -4.05087,9.14675 -9.03015,9.14675 z m 0,-3.6587 c 2.97843,0 5.37258,-2.43304 5.37258,-5.48805 0,-3.05501 -2.39416,-5.45833 -5.37258,-5.45833 -2.98298,0 -5.40457,2.40332 -5.40457,5.45833 0,3.05501 2.42159,5.48805 5.40457,5.48805 z"
       id="path3063"
       style="fill:#6e222c;fill-opacity:0.50980392;fill-rule:nonzero;stroke:none" /><path
       d="m 25.299887,313.83051 c -4.985154,0 -9.06234,-4.13662 -9.06234,-9.14675 0,-5.0067 4.077186,-9.11588 9.06234,-9.11588 4.979402,0 9.030158,4.10918 9.030158,9.11588 0,5.01013 -4.050756,9.14675 -9.030158,9.14675 z m 0,-3.6587 c 2.97855,0 5.37237,-2.43304 5.37237,-5.48805 0,-3.05501 -2.39382,-5.45833 -5.37237,-5.45833 -2.984301,0 -5.404533,2.40332 -5.404533,5.45833 0,3.05501 2.420232,5.48805 5.404533,5.48805 z"
       id="path3065"
       style="fill:#6e222c;fill-opacity:0.50980392;fill-rule:nonzero;stroke:none" /><path
       d="m 16.228615,281.07026 0,-18.07855 18.258182,0 0,18.07855 -18.258182,0 z m 3.644856,-3.67928 10.932786,0 0,-10.75544 -10.932786,0 0,10.75544 z"
       id="path3067"
       style="fill:#6e222c;fill-opacity:0.50980392;fill-rule:nonzero;stroke:none" /><path
       d="m 276.98203,281.07026 0,-18.07855 18.25807,0 0,18.07855 -18.25807,0 z m 3.64498,-3.67928 10.93266,0 0,-10.75544 -10.93266,0 0,10.75544 z"
       id="path3069"
       style="fill:#6e222c;fill-opacity:0.50980392;fill-rule:nonzero;stroke:none" /><path
       d="m 287.24584,248.5707 c 2.66629,-3.71587 5.16334,-7.54836 7.51634,-11.49175 0.21037,0.77289 0.34415,1.59382 0.34415,2.4296 0,4.60882 -3.43918,8.46762 -7.86049,9.06215 z"
       id="path3071"
       style="fill:#6e222c;fill-opacity:0.50980392;fill-rule:nonzero;stroke:none" /><path
       d="m 23.6742,248.48495 c -4.216975,-0.78091 -7.43174,-4.52421 -7.43174,-8.9764 0,-0.69744 0.07994,-1.37544 0.227329,-2.02829 2.263916,3.76961 4.653324,7.44545 7.204411,11.00469 z"
       id="path3073"
       style="fill:#6e222c;fill-opacity:0.50980392;fill-rule:nonzero;stroke:none" /><path
       d="m 16.228615,-25.416814 0,-18.080037 18.258182,0 0,18.080037 -18.258182,0 z m 3.644856,-3.645325 10.932786,0 0,-10.78941 -10.932786,0 0,10.78941 z"
       id="path3075"
       style="fill:#6e222c;fill-opacity:0.50980392;fill-rule:nonzero;stroke:none" /><path
       d="m 57.893231,-25.412355 c -4.97938,0 -9.056547,-4.140165 -9.056547,-9.146756 0,-5.006603 4.077167,-9.120405 9.056547,-9.120405 4.985209,0 9.035964,4.113802 9.035964,9.120405 0,5.006591 -4.050755,9.146756 -9.035964,9.146756 z m 0,-3.658702 c 2.984357,0 5.378177,-2.433151 5.378177,-5.488054 0,-3.054879 -2.39382,-5.458131 -5.378177,-5.458131 -2.978527,0 -5.398759,2.403252 -5.398759,5.458131 0,3.054903 2.420232,5.488054 5.398759,5.488054 z"
       id="path3077"
       style="fill:#6e222c;fill-opacity:0.50980392;fill-rule:nonzero;stroke:none" /><path
       d="m 81.36392,-25.416814 0,-18.080037 18.25785,0 0,18.080037 -18.25785,0 z m 3.643609,-3.645325 10.934035,0 0,-10.78941 -10.934035,0 0,10.78941 z"
       id="path3079"
       style="fill:#6e222c;fill-opacity:0.50980392;fill-rule:nonzero;stroke:none" /><path
       d="m 123.18495,-25.412355 c -4.98384,0 -9.06192,-4.140165 -9.06192,-9.146756 0,-5.006603 4.07808,-9.120405 9.06192,-9.120405 4.98384,0 9.03024,4.113802 9.03024,9.120405 0,5.006591 -4.0464,9.146756 -9.03024,9.146756 z m 0,-3.658702 c 2.97852,0 5.37279,-2.433151 5.37279,-5.488054 0,-3.054879 -2.39428,-5.458131 -5.37279,-5.458131 -2.98298,0 -5.40459,2.403252 -5.40459,5.458131 0,3.054903 2.42161,5.488054 5.40459,5.488054 z"
       id="path3081"
       style="fill:#6e222c;fill-opacity:0.50980392;fill-rule:nonzero;stroke:none" /><path
       d="m 146.53443,-25.416814 0,-18.080037 18.25808,0 0,18.080037 -18.25808,0 z m 3.64384,-3.645325 10.9338,0 0,-10.78941 -10.9338,0 0,10.78941 z"
       id="path3083"
       style="fill:#6e222c;fill-opacity:0.50980392;fill-rule:nonzero;stroke:none" /><path
       d="m 188.20363,-25.412355 c -4.98384,0 -9.06215,-4.140165 -9.06215,-9.146756 0,-5.006603 4.07831,-9.120405 9.06215,-9.120405 4.98383,0 9.03012,4.113802 9.03012,9.120405 0,5.006591 -4.04629,9.146756 -9.03012,9.146756 z m 0,-3.658702 c 2.97956,0 5.37258,-2.433151 5.37258,-5.488054 0,-3.054879 -2.39302,-5.458131 -5.37258,-5.458131 -2.98298,0 -5.40344,2.403252 -5.40344,5.458131 0,3.054903 2.42046,5.488054 5.40344,5.488054 z"
       id="path3085"
       style="fill:#6e222c;fill-opacity:0.50980392;fill-rule:nonzero;stroke:none" /><path
       d="m 211.66964,-25.416814 0,-18.080037 18.25692,0 0,18.080037 -18.25692,0 z m 3.64382,-3.645325 10.93382,0 0,-10.78941 -10.93382,0 0,10.78941 z"
       id="path3087"
       style="fill:#6e222c;fill-opacity:0.50980392;fill-rule:nonzero;stroke:none" /><path
       d="m 253.49088,-25.412355 c -4.98041,0 -9.05758,-4.140165 -9.05758,-9.146756 0,-5.006603 4.07717,-9.120405 9.05758,-9.120405 4.98383,0 9.0347,4.113802 9.0347,9.120405 0,5.006591 -4.05087,9.146756 -9.0347,9.146756 z m 0,-3.658702 c 2.98298,0 5.37715,-2.433151 5.37715,-5.488054 0,-3.054879 -2.39417,-5.458131 -5.37715,-5.458131 -2.97956,0 -5.40002,2.403252 -5.40002,5.458131 0,3.054903 2.42046,5.488054 5.40002,5.488054 z"
       id="path3089"
       style="fill:#6e222c;fill-opacity:0.50980392;fill-rule:nonzero;stroke:none" /><path
       d="m 276.98203,-25.416814 0,-18.080037 18.25807,0 0,18.080037 -18.25807,0 z m 3.64498,-3.645325 10.93266,0 0,-10.78941 -10.93266,0 0,10.78941 z"
       id="path3091"
       style="fill:#6e222c;fill-opacity:0.50980392;fill-rule:nonzero;stroke:none" /></g></svg>