<?xml version="1.0" encoding="UTF-8" standalone="no"?>
<!-- Created with Inkscape (http://www.inkscape.org/) -->

<svg
   xmlns:dc="http://purl.org/dc/elements/1.1/"
   xmlns:cc="http://creativecommons.org/ns#"
   xmlns:rdf="http://www.w3.org/1999/02/22-rdf-syntax-ns#"
   xmlns:svg="http://www.w3.org/2000/svg"
   xmlns="http://www.w3.org/2000/svg"
   xmlns:sodipodi="http://sodipodi.sourceforge.net/DTD/sodipodi-0.dtd"
   xmlns:inkscape="http://www.inkscape.org/namespaces/inkscape"
   id="svg2"
   version="1.1"
   inkscape:version="0.48.5 r10040"
   width="369.65347"
   height="487.40051"
   xml:space="preserve"
   sodipodi:docname="fibeamer-mu-ped-dark.svg"><metadata
     id="metadata8"><rdf:RDF><cc:Work
         rdf:about=""><dc:format>image/svg+xml</dc:format><dc:type
           rdf:resource="http://purl.org/dc/dcmitype/StillImage" /><dc:title></dc:title></cc:Work></rdf:RDF></metadata><defs
     id="defs6" /><sodipodi:namedview
     pagecolor="#ffffff"
     bordercolor="#666666"
     borderopacity="1"
     objecttolerance="10"
     gridtolerance="10"
     guidetolerance="10"
     inkscape:pageopacity="0"
     inkscape:pageshadow="2"
     inkscape:window-width="1280"
     inkscape:window-height="751"
     id="namedview4"
     showgrid="false"
     fit-margin-top="0"
     fit-margin-left="0"
     fit-margin-right="0"
     fit-margin-bottom="0"
     inkscape:zoom="0.85630196"
     inkscape:cx="90.38441"
     inkscape:cy="178.55898"
     inkscape:window-x="0"
     inkscape:window-y="29"
     inkscape:window-maximized="1"
     inkscape:current-layer="g10" /><g
     id="g10"
     inkscape:groupmode="layer"
     inkscape:label="ink_ext_XXXXXX"
     transform="matrix(1.25,0,0,-1.25,-10.030275,432.80113)"><path
       id="path3003"
       style="fill:#ffffff;fill-opacity:0.74509805;fill-rule:nonzero;stroke:none"
       d="m 293.1901,68.779563 c -0.71004,-1.139801 -1.43834,-2.278686 -2.17465,-3.398706 0.27669,-0.665541 0.42874,-1.403342 0.42874,-2.175099 0,-3.054902 -2.38957,-5.458098 -5.37255,-5.458098 -0.1212,0 -0.2504,0.01829 -0.37045,0.02722 -0.80035,-1.076801 -1.60411,-2.170983 -2.43075,-3.229948 0.88494,-0.290295 1.82706,-0.454594 2.8012,-0.454594 4.98383,0 9.0347,4.108837 9.0347,9.115428 0,2.090148 -0.73289,4.023658 -1.91624,5.573805 z"
       inkscape:connector-curvature="0" /><path
       id="path3005"
       style="fill:#ffffff;fill-opacity:0.74509805;fill-rule:nonzero;stroke:none"
       d="m 17.929786,68.493726 c -1.066525,-1.501097 -1.687326,-3.323245 -1.687326,-5.287968 0,-5.006591 4.077178,-9.115428 9.061897,-9.115428 0.853038,0 1.673926,0.142918 2.455916,0.370214 -0.839158,1.075888 -1.670312,2.188362 -2.483162,3.287116 -2.970454,0.01383 -5.377285,2.411314 -5.377285,5.458098 0,0.62884 0.09826,1.240757 0.285836,1.799853 -0.763721,1.155921 -1.52297,2.3131 -2.255876,3.488115 z"
       inkscape:connector-curvature="0" /><path
       id="path3007"
       style="fill:#ffffff;fill-opacity:0.74509805;fill-rule:nonzero;stroke:none"
       d="m 16.228615,39.575115 0,-18.079478 18.258182,0 0,18.079478 -18.258182,0 z m 3.644856,-3.644753 10.932786,0 0,-10.754184 -10.932786,0 0,10.754184 z"
       inkscape:connector-curvature="0" /><path
       id="path3009"
       style="fill:#ffffff;fill-opacity:0.74509805;fill-rule:nonzero;stroke:none"
       d="m 49.001555,32.049622 c -0.09387,-0.523424 -0.173788,-1.049591 -0.173788,-1.59931 0,-5.011051 4.077165,-9.119544 9.061918,-9.119544 1.31256,0 2.559148,0.28938 3.688658,0.799426 -1.312673,0.932969 -2.608311,1.888805 -3.889657,2.858361 -2.371525,0.08941 -4.341622,1.687348 -4.971261,3.916869 -1.255507,1.031754 -2.497066,2.081231 -3.71587,3.144198 z"
       inkscape:connector-curvature="0" /><path
       id="path3011"
       style="fill:#ffffff;fill-opacity:0.74509805;fill-rule:nonzero;stroke:none"
       d="m 262.31979,32.392625 c -1.17879,-1.031182 -2.36672,-2.05802 -3.57295,-3.058447 -0.49963,-2.505981 -2.65256,-4.345623 -5.26054,-4.345623 -0.0765,0 -0.15206,0 -0.22867,0 -1.22794,-0.929425 -2.46047,-1.849017 -3.71586,-2.743112 1.19708,-0.588594 2.53252,-0.914675 3.94453,-0.914675 4.98385,0 9.03471,4.108493 9.03471,9.119544 0,0.665426 -0.0675,1.313473 -0.20123,1.942313 z"
       inkscape:connector-curvature="0" /><path
       id="path3013"
       style="fill:#ffffff;fill-opacity:0.74509805;fill-rule:nonzero;stroke:none"
       d="m 276.98203,39.575115 0,-18.079478 18.25807,0 0,18.079478 -18.25807,0 z m 3.64498,-3.644753 10.93266,0 0,-10.754184 -10.93266,0 0,10.754184 z"
       inkscape:connector-curvature="0" /><path
       id="path3015"
       style="fill:#ffffff;fill-opacity:0.74509805;fill-rule:nonzero;stroke:none"
       d="m 48.778602,7.1685026 0,-18.0800486 18.25784,0 0,18.0800486 -18.25784,0 z m 3.680197,-3.6453246 10.932775,0 0,-10.75407 -10.932775,0 0,10.75407 z"
       inkscape:connector-curvature="0" /><path
       id="path3017"
       style="fill:#ffffff;fill-opacity:0.74509805;fill-rule:nonzero;stroke:none"
       d="m 88.044486,6.8102933 c -3.809629,-1.0848052 -6.631403,-4.613167 -6.631403,-8.7751691 0,-5.0065912 4.077167,-9.1154282 9.061921,-9.1154282 4.98384,0 9.030136,4.108837 9.030136,9.1154282 0,1.6248063 -0.4515,3.1571168 -1.196846,4.4876268 -3.4792,1.3139312 -6.90478,2.7520299 -10.263808,4.2875423 z M 90.475004,3.523178 c 2.97853,0 5.37281,-2.4340664 5.37281,-5.4880538 0,-3.0549026 -2.39429,-5.4580982 -5.37281,-5.4580982 -2.983906,0 -5.404591,2.4031956 -5.404591,5.4580982 0,3.0539874 2.420685,5.4880538 5.404591,5.4880538 z"
       inkscape:connector-curvature="0" /><path
       id="path3019"
       style="fill:#ffffff;fill-opacity:0.74509805;fill-rule:nonzero;stroke:none"
       d="m 113.91357,-2.4517119 0,-8.4598341 18.26618,0 0,4.7439647 c -1.22795,0.1782477 -2.44334,0.3703287 -3.66224,0.5716718 l 0,-1.6256065 -10.91529,0 0,3.8274591 c -1.23275,0.2938399 -2.46984,0.6199221 -3.68865,0.942345 z"
       inkscape:connector-curvature="0" /><path
       id="path3021"
       style="fill:#ffffff;fill-opacity:0.74509805;fill-rule:nonzero;stroke:none"
       d="m 162.81795,-7.650271 c -2.42961,-0.112161 -4.88551,-0.201457 -7.34256,-0.201457 -2.27755,0 -4.52421,0.07546 -6.77546,0.17013 1.66128,-2.072769 4.22123,-3.398706 7.0613,-3.398706 2.84921,0 5.40459,1.335312 7.05672,3.430033 z"
       inkscape:connector-curvature="0" /><path
       id="path3023"
       style="fill:#ffffff;fill-opacity:0.74509805;fill-rule:nonzero;stroke:none"
       d="m 197.35039,-2.3623028 c -1.21881,-0.3260811 -2.42961,-0.6485051 -3.66215,-0.9469174 l 0,-3.9122958 -10.9155,0 0,1.6836885 c -1.22337,-0.205459 -2.4559,-0.3929677 -3.68843,-0.5716718 l 0,-4.8020467 18.26608,0 0,8.5492432 z"
       inkscape:connector-curvature="0" /><path
       id="path3025"
       style="fill:#ffffff;fill-opacity:0.74509805;fill-rule:nonzero;stroke:none"
       d="M 223.01733,6.8688317 C 219.72106,5.3552724 216.38936,3.9305506 212.98218,2.63983 c -0.79462,-1.3630956 -1.28626,-2.9307351 -1.28626,-4.6047058 0,-5.0065912 4.07718,-9.1154282 9.06216,-9.1154282 4.98384,0 9.03471,4.108837 9.03471,9.1154282 0,4.2250009 -2.88008,7.8113295 -6.77546,8.8337075 z M 220.75808,3.523178 c 2.98298,0 5.37257,-2.4340664 5.37257,-5.4880538 0,-3.0549026 -2.38959,-5.4580982 -5.37257,-5.4580982 -2.97956,0 -5.40001,2.4031956 -5.40001,5.4580982 0,3.0539874 2.42045,5.4880538 5.40001,5.4880538 z"
       inkscape:connector-curvature="0" /><path
       id="path3027"
       style="fill:#ffffff;fill-opacity:0.74509805;fill-rule:nonzero;stroke:none"
       d="m 244.21836,7.1685026 0,-18.0800486 18.25806,0 0,18.0800486 -18.25806,0 z m 3.68042,-3.6453246 10.93381,0 0,-10.75407 -10.93381,0 0,10.75407 z"
       inkscape:connector-curvature="0" /><path
       id="path3029"
       style="fill:#ffffff;fill-opacity:0.74509805;fill-rule:nonzero;stroke:none"
       d="m 286.06247,7.1774212 c -4.98383,0 -9.06215,-4.1401653 -9.06215,-9.1467563 0,-5.0065909 4.07832,-9.1203439 9.06215,-9.1203439 4.97928,0 9.03015,4.113753 9.03015,9.1203439 0,5.006591 -4.05087,9.1467563 -9.03015,9.1467563 z m 0,-3.6587025 c 2.97843,0 5.37258,-2.4340664 5.37258,-5.4880538 0,-3.0549015 -2.39416,-5.4580969 -5.37258,-5.4580969 -2.98298,0 -5.40457,2.4031954 -5.40457,5.4580969 0,3.0539874 2.42159,5.4880538 5.40457,5.4880538 z"
       inkscape:connector-curvature="0" /><path
       id="path3031"
       style="fill:#ffffff;fill-opacity:0.74509805;fill-rule:nonzero;stroke:none"
       d="m 25.299887,7.1774212 c -4.985154,0 -9.06234,-4.1401653 -9.06234,-9.1467563 0,-5.0065909 4.077186,-9.1203439 9.06234,-9.1203439 4.979402,0 9.030158,4.113753 9.030158,9.1203439 0,5.006591 -4.050756,9.1467563 -9.030158,9.1467563 z m 0,-3.6587025 c 2.97855,0 5.37237,-2.4340664 5.37237,-5.4880538 0,-3.0549015 -2.39382,-5.4580969 -5.37237,-5.4580969 -2.984301,0 -5.404533,2.4031954 -5.404533,5.4580969 0,3.0539874 2.420232,5.4880538 5.404533,5.4880538 z"
       inkscape:connector-curvature="0" /><path
       id="path3033"
       style="fill:#ffffff;fill-opacity:0.74509805;fill-rule:nonzero;stroke:none"
       d="m 16.228615,346.2409 0,-18.07857 18.258182,0 0,18.07857 -18.258182,0 z m 3.644856,-3.64384 10.932786,0 0,-10.79088 -10.932786,0 0,10.79088 z"
       inkscape:connector-curvature="0" /><path
       id="path3035"
       style="fill:#ffffff;fill-opacity:0.74509805;fill-rule:nonzero;stroke:none"
       d="m 57.893231,346.2409 c -4.97938,0 -9.056547,-4.14005 -9.056547,-9.14675 0,-5.00671 4.077167,-9.11932 9.056547,-9.11932 4.985209,0 9.035964,4.11261 9.035964,9.11932 0,5.0067 -4.050755,9.14675 -9.035964,9.14675 z m 0,-3.65756 c 2.984357,0 5.378177,-2.43418 5.378177,-5.48919 0,-3.05502 -2.39382,-5.45719 -5.378177,-5.45719 -2.978527,0 -5.398759,2.40217 -5.398759,5.45719 0,3.05501 2.420232,5.48919 5.398759,5.48919 z"
       inkscape:connector-curvature="0" /><path
       id="path3037"
       style="fill:#ffffff;fill-opacity:0.74509805;fill-rule:nonzero;stroke:none"
       d="m 81.36392,346.2409 0,-18.07857 18.25785,0 0,18.07857 -18.25785,0 z m 3.643609,-3.64384 10.934035,0 0,-10.79088 -10.934035,0 0,10.79088 z"
       inkscape:connector-curvature="0" /><path
       id="path3039"
       style="fill:#ffffff;fill-opacity:0.74509805;fill-rule:nonzero;stroke:none"
       d="m 123.18495,346.2409 c -4.98384,0 -9.06192,-4.14005 -9.06192,-9.14675 0,-5.00671 4.07808,-9.11932 9.06192,-9.11932 4.98384,0 9.03024,4.11261 9.03024,9.11932 0,5.0067 -4.0464,9.14675 -9.03024,9.14675 z m 0,-3.65756 c 2.97852,0 5.37279,-2.43418 5.37279,-5.48919 0,-3.05502 -2.39428,-5.45719 -5.37279,-5.45719 -2.98298,0 -5.40459,2.40217 -5.40459,5.45719 0,3.05501 2.42161,5.48919 5.40459,5.48919 z"
       inkscape:connector-curvature="0" /><path
       id="path3041"
       style="fill:#ffffff;fill-opacity:0.74509805;fill-rule:nonzero;stroke:none"
       d="m 146.53443,346.2409 0,-18.07857 18.25808,0 0,18.07857 -18.25808,0 z m 3.64384,-3.64384 10.9338,0 0,-10.79088 -10.9338,0 0,10.79088 z"
       inkscape:connector-curvature="0" /><path
       id="path3043"
       style="fill:#ffffff;fill-opacity:0.74509805;fill-rule:nonzero;stroke:none"
       d="m 188.20363,346.2409 c -4.98384,0 -9.06215,-4.14005 -9.06215,-9.14675 0,-5.00671 4.07831,-9.11932 9.06215,-9.11932 4.98383,0 9.03012,4.11261 9.03012,9.11932 0,5.0067 -4.04629,9.14675 -9.03012,9.14675 z m 0,-3.65756 c 2.97956,0 5.37258,-2.43418 5.37258,-5.48919 0,-3.05502 -2.39302,-5.45719 -5.37258,-5.45719 -2.98298,0 -5.40344,2.40217 -5.40344,5.45719 0,3.05501 2.42046,5.48919 5.40344,5.48919 z"
       inkscape:connector-curvature="0" /><path
       id="path3045"
       style="fill:#ffffff;fill-opacity:0.74509805;fill-rule:nonzero;stroke:none"
       d="m 211.66964,346.2409 0,-18.07857 18.25692,0 0,18.07857 -18.25692,0 z m 3.64382,-3.64384 10.93382,0 0,-10.79088 -10.93382,0 0,10.79088 z"
       inkscape:connector-curvature="0" /><path
       id="path3047"
       style="fill:#ffffff;fill-opacity:0.74509805;fill-rule:nonzero;stroke:none"
       d="m 253.49088,346.2409 c -4.98041,0 -9.05758,-4.14005 -9.05758,-9.14675 0,-5.00671 4.07717,-9.11932 9.05758,-9.11932 4.98383,0 9.0347,4.11261 9.0347,9.11932 0,5.0067 -4.05087,9.14675 -9.0347,9.14675 z m 0,-3.65756 c 2.98298,0 5.37715,-2.43418 5.37715,-5.48919 0,-3.05502 -2.39417,-5.45719 -5.37715,-5.45719 -2.97956,0 -5.40002,2.40217 -5.40002,5.45719 0,3.05501 2.42046,5.48919 5.40002,5.48919 z"
       inkscape:connector-curvature="0" /><path
       id="path3049"
       style="fill:#ffffff;fill-opacity:0.74509805;fill-rule:nonzero;stroke:none"
       d="m 276.98203,346.2409 0,-18.07857 18.25807,0 0,18.07857 -18.25807,0 z m 3.64498,-3.64384 10.93266,0 0,-10.79088 -10.93266,0 0,10.79088 z"
       inkscape:connector-curvature="0" /><path
       id="path3051"
       style="fill:#ffffff;fill-opacity:0.74509805;fill-rule:nonzero;stroke:none"
       d="m 48.778602,313.83509 0,-18.07971 18.25784,0 0,18.07971 -18.25784,0 z m 3.680197,-3.68043 10.932775,0 0,-10.75429 -10.932775,0 0,10.75429 z"
       inkscape:connector-curvature="0" /><path
       id="path3053"
       style="fill:#ffffff;fill-opacity:0.74509805;fill-rule:nonzero;stroke:none"
       d="m 90.475004,313.82594 c -4.984754,0 -9.061921,-4.13547 -9.061921,-9.14675 0,-2.01915 0.656051,-3.88623 1.772185,-5.40002 1.117047,0.55795 2.241983,1.09418 3.372866,1.63041 -0.924967,0.97299 -1.487721,2.29126 -1.487721,3.76961 0,3.05958 2.420685,5.4892 5.404591,5.4892 2.89849,0 5.24235,-2.29584 5.3728,-5.23081 1.15581,0.46077 2.31756,0.88496 3.488126,1.3137 -0.74182,4.27383 -4.413096,7.57466 -8.860926,7.57466 z"
       inkscape:connector-curvature="0" /><path
       id="path3055"
       style="fill:#ffffff;fill-opacity:0.74509805;fill-rule:nonzero;stroke:none"
       d="m 113.91357,313.82594 0,-2.97041 c 4.43846,1.17422 8.96725,2.17464 13.54999,2.97041 l -13.54999,0 z"
       inkscape:connector-curvature="0" /><path
       id="path3057"
       style="fill:#ffffff;fill-opacity:0.74509805;fill-rule:nonzero;stroke:none"
       d="m 183.51362,313.82594 c 4.69,-0.81749 9.29426,-1.84535 13.83675,-3.05502 l 0,3.05502 -13.83675,0 z"
       inkscape:connector-curvature="0" /><path
       id="path3059"
       style="fill:#ffffff;fill-opacity:0.74509805;fill-rule:nonzero;stroke:none"
       d="m 220.75807,313.82594 c -4.47047,0 -8.19549,-3.32713 -8.91923,-7.62839 1.18794,-0.44247 2.345,-0.90668 3.51922,-1.37544 0.072,2.98756 2.46504,5.34628 5.40001,5.34628 2.98298,0 5.37258,-2.42962 5.37258,-5.4892 0,-1.52752 -0.57168,-2.87666 -1.54123,-3.85879 1.12162,-0.52708 2.23296,-1.07246 3.34542,-1.62583 1.15706,1.53207 1.85794,3.42088 1.85794,5.48462 0,5.01128 -4.05087,9.14675 -9.03471,9.14675 z"
       inkscape:connector-curvature="0" /><path
       id="path3061"
       style="fill:#ffffff;fill-opacity:0.74509805;fill-rule:nonzero;stroke:none"
       d="m 244.21836,313.83509 0,-18.07971 18.25806,0 0,18.07971 -18.25806,0 z m 3.68042,-3.68043 10.93381,0 0,-10.75429 -10.93381,0 0,10.75429 z"
       inkscape:connector-curvature="0" /><path
       id="path3063"
       style="fill:#ffffff;fill-opacity:0.74509805;fill-rule:nonzero;stroke:none"
       d="m 286.06247,313.83051 c -4.98383,0 -9.06215,-4.13662 -9.06215,-9.14675 0,-5.0067 4.07832,-9.11588 9.06215,-9.11588 4.97928,0 9.03015,4.10918 9.03015,9.11588 0,5.01013 -4.05087,9.14675 -9.03015,9.14675 z m 0,-3.6587 c 2.97843,0 5.37258,-2.43304 5.37258,-5.48805 0,-3.05501 -2.39416,-5.45833 -5.37258,-5.45833 -2.98298,0 -5.40457,2.40332 -5.40457,5.45833 0,3.05501 2.42159,5.48805 5.40457,5.48805 z"
       inkscape:connector-curvature="0" /><path
       id="path3065"
       style="fill:#ffffff;fill-opacity:0.74509805;fill-rule:nonzero;stroke:none"
       d="m 25.299887,313.83051 c -4.985154,0 -9.06234,-4.13662 -9.06234,-9.14675 0,-5.0067 4.077186,-9.11588 9.06234,-9.11588 4.979402,0 9.030158,4.10918 9.030158,9.11588 0,5.01013 -4.050756,9.14675 -9.030158,9.14675 z m 0,-3.6587 c 2.97855,0 5.37237,-2.43304 5.37237,-5.48805 0,-3.05501 -2.39382,-5.45833 -5.37237,-5.45833 -2.984301,0 -5.404533,2.40332 -5.404533,5.45833 0,3.05501 2.420232,5.48805 5.404533,5.48805 z"
       inkscape:connector-curvature="0" /><path
       id="path3067"
       style="fill:#ffffff;fill-opacity:0.74509805;fill-rule:nonzero;stroke:none"
       d="m 16.228615,281.07026 0,-18.07855 18.258182,0 0,18.07855 -18.258182,0 z m 3.644856,-3.67928 10.932786,0 0,-10.75544 -10.932786,0 0,10.75544 z"
       inkscape:connector-curvature="0" /><path
       id="path3069"
       style="fill:#ffffff;fill-opacity:0.74509805;fill-rule:nonzero;stroke:none"
       d="m 276.98203,281.07026 0,-18.07855 18.25807,0 0,18.07855 -18.25807,0 z m 3.64498,-3.67928 10.93266,0 0,-10.75544 -10.93266,0 0,10.75544 z"
       inkscape:connector-curvature="0" /><path
       id="path3071"
       style="fill:#ffffff;fill-opacity:0.74509805;fill-rule:nonzero;stroke:none"
       d="m 287.24584,248.5707 c 2.66629,-3.71587 5.16334,-7.54836 7.51634,-11.49175 0.21037,0.77289 0.34415,1.59382 0.34415,2.4296 0,4.60882 -3.43918,8.46762 -7.86049,9.06215 z"
       inkscape:connector-curvature="0" /><path
       id="path3073"
       style="fill:#ffffff;fill-opacity:0.74509805;fill-rule:nonzero;stroke:none"
       d="m 23.6742,248.48495 c -4.216975,-0.78091 -7.43174,-4.52421 -7.43174,-8.9764 0,-0.69744 0.07994,-1.37544 0.227329,-2.02829 2.263916,3.76961 4.653324,7.44545 7.204411,11.00469 z"
       inkscape:connector-curvature="0" /><path
       id="path3075"
       style="fill:#ffffff;fill-opacity:0.74509805;fill-rule:nonzero;stroke:none"
       d="m 16.228615,-25.416814 0,-18.080037 18.258182,0 0,18.080037 -18.258182,0 z m 3.644856,-3.645325 10.932786,0 0,-10.78941 -10.932786,0 0,10.78941 z"
       inkscape:connector-curvature="0" /><path
       id="path3077"
       style="fill:#ffffff;fill-opacity:0.74509805;fill-rule:nonzero;stroke:none"
       d="m 57.893231,-25.412355 c -4.97938,0 -9.056547,-4.140165 -9.056547,-9.146756 0,-5.006603 4.077167,-9.120405 9.056547,-9.120405 4.985209,0 9.035964,4.113802 9.035964,9.120405 0,5.006591 -4.050755,9.146756 -9.035964,9.146756 z m 0,-3.658702 c 2.984357,0 5.378177,-2.433151 5.378177,-5.488054 0,-3.054879 -2.39382,-5.458131 -5.378177,-5.458131 -2.978527,0 -5.398759,2.403252 -5.398759,5.458131 0,3.054903 2.420232,5.488054 5.398759,5.488054 z"
       inkscape:connector-curvature="0" /><path
       id="path3079"
       style="fill:#ffffff;fill-opacity:0.74509805;fill-rule:nonzero;stroke:none"
       d="m 81.36392,-25.416814 0,-18.080037 18.25785,0 0,18.080037 -18.25785,0 z m 3.643609,-3.645325 10.934035,0 0,-10.78941 -10.934035,0 0,10.78941 z"
       inkscape:connector-curvature="0" /><path
       id="path3081"
       style="fill:#ffffff;fill-opacity:0.74509805;fill-rule:nonzero;stroke:none"
       d="m 123.18495,-25.412355 c -4.98384,0 -9.06192,-4.140165 -9.06192,-9.146756 0,-5.006603 4.07808,-9.120405 9.06192,-9.120405 4.98384,0 9.03024,4.113802 9.03024,9.120405 0,5.006591 -4.0464,9.146756 -9.03024,9.146756 z m 0,-3.658702 c 2.97852,0 5.37279,-2.433151 5.37279,-5.488054 0,-3.054879 -2.39428,-5.458131 -5.37279,-5.458131 -2.98298,0 -5.40459,2.403252 -5.40459,5.458131 0,3.054903 2.42161,5.488054 5.40459,5.488054 z"
       inkscape:connector-curvature="0" /><path
       id="path3083"
       style="fill:#ffffff;fill-opacity:0.74509805;fill-rule:nonzero;stroke:none"
       d="m 146.53443,-25.416814 0,-18.080037 18.25808,0 0,18.080037 -18.25808,0 z m 3.64384,-3.645325 10.9338,0 0,-10.78941 -10.9338,0 0,10.78941 z"
       inkscape:connector-curvature="0" /><path
       id="path3085"
       style="fill:#ffffff;fill-opacity:0.74509805;fill-rule:nonzero;stroke:none"
       d="m 188.20363,-25.412355 c -4.98384,0 -9.06215,-4.140165 -9.06215,-9.146756 0,-5.006603 4.07831,-9.120405 9.06215,-9.120405 4.98383,0 9.03012,4.113802 9.03012,9.120405 0,5.006591 -4.04629,9.146756 -9.03012,9.146756 z m 0,-3.658702 c 2.97956,0 5.37258,-2.433151 5.37258,-5.488054 0,-3.054879 -2.39302,-5.458131 -5.37258,-5.458131 -2.98298,0 -5.40344,2.403252 -5.40344,5.458131 0,3.054903 2.42046,5.488054 5.40344,5.488054 z"
       inkscape:connector-curvature="0" /><path
       id="path3087"
       style="fill:#ffffff;fill-opacity:0.74509805;fill-rule:nonzero;stroke:none"
       d="m 211.66964,-25.416814 0,-18.080037 18.25692,0 0,18.080037 -18.25692,0 z m 3.64382,-3.645325 10.93382,0 0,-10.78941 -10.93382,0 0,10.78941 z"
       inkscape:connector-curvature="0" /><path
       id="path3089"
       style="fill:#ffffff;fill-opacity:0.74509805;fill-rule:nonzero;stroke:none"
       d="m 253.49088,-25.412355 c -4.98041,0 -9.05758,-4.140165 -9.05758,-9.146756 0,-5.006603 4.07717,-9.120405 9.05758,-9.120405 4.98383,0 9.0347,4.113802 9.0347,9.120405 0,5.006591 -4.05087,9.146756 -9.0347,9.146756 z m 0,-3.658702 c 2.98298,0 5.37715,-2.433151 5.37715,-5.488054 0,-3.054879 -2.39417,-5.458131 -5.37715,-5.458131 -2.97956,0 -5.40002,2.403252 -5.40002,5.458131 0,3.054903 2.42046,5.488054 5.40002,5.488054 z"
       inkscape:connector-curvature="0" /><path
       id="path3091"
       style="fill:#ffffff;fill-opacity:0.74509805;fill-rule:nonzero;stroke:none"
       d="m 276.98203,-25.416814 0,-18.080037 18.25807,0 0,18.080037 -18.25807,0 z m 3.64498,-3.645325 10.93266,0 0,-10.78941 -10.93266,0 0,10.78941 z"
       inkscape:connector-curvature="0" /><g
       transform="translate(8.88422,4.6868938)"
       inkscape:label="fithesis-phil-white"
       id="g5334"><g
         transform="scale(0.1,0.1)"
         id="g5336"><path
           id="path5338"
           style="fill:#ffffff;fill-opacity:1;fill-rule:nonzero;stroke:none"
           d="m 2458.95,642.969 136.4,-117.309 14.45,17.07 -136.4,117.309 -14.45,-17.07 z m -42.43,-48.328 55.04,-57.813 -69.33,-67.769 -55.24,57.621 -16.17,-15.821 124.65,-129.769 16.17,15.82 -56.13,58.949 69.33,67.77 56.33,-58.75 16.17,15.82 -124.64,129.77 -16.18,-15.828 z M 1476.72,392.77 c 61.29,0 118.87,31.449 148.28,80.199 -49.45,43.281 -98.87,84.172 -148.28,122.5 -49.45,-38.328 -98.87,-79.219 -148.32,-122.5 29.41,-48.75 87.03,-80.199 148.32,-80.199 z m 481.25,-157.461 c -8.28,20.191 4.45,35.82 18.91,41.722 15.62,6.36 27.85,4.649 40.39,2.188 l 1.71,18.39 c -16.71,2.43 -33.24,1.61 -49.57,-5.109 -29.61,-12.07 -43.16,-38.711 -32.65,-64.461 23.83,-58.238 90.12,-10.898 107.46,-53.277 7.58,-18.512 -1.1,-35.821 -20.59,-43.793 -13.24,-5.391 -28.83,-5.039 -40.43,-2.18 l -3,-18.68 c 17.73,-2.847 32.85,-1.988 51.13,5.469 36.56,14.961 44.45,45.16 34.33,69.922 -21.36,52.23 -92.77,13.211 -107.69,49.809 z m 726.76,431.761 c -23.87,-34.07 -68.28,-39.461 -102.35,-15.59 -34.06,23.872 -44.18,67.461 -20.27,101.52 10.16,14.5 21.29,24.461 37.77,30.359 l -9.1,17.813 c -17.81,-9.102 -31.64,-19.731 -43.98,-37.422 -30.63,-43.641 -23.28,-100.199 21.83,-131.84 48.17,-33.75 100.86,-19.262 131.45,24.41 10.9,15.551 16.05,36.059 17.77,54.852 L 2699.8,713 c -1.6,-16.32 -5.93,-32.961 -15.07,-45.93 z m -64.89,211.321 121.88,-148.942 15.43,15.391 -44.03,52.73 34.5,65.86 67.54,-7.809 3.9,23.199 -189.29,18.481 -9.93,-18.91 z m 22.7,-0.422 85,-12.539 -27.38,-52.27 -57.86,64.34 0.24,0.469 z M 2114.02,363.238 c -46.32,-26.367 -63.9,-80.629 -36.64,-128.558 29.07,-51.051 82.89,-60.5 129.22,-34.141 46.33,26.371 63.91,80.672 36.64,128.563 -29.06,51.046 -82.93,60.507 -129.22,34.136 z m 83.32,-146.41 c -36.13,-20.578 -78.59,-6.437 -99.18,29.692 -20.54,36.171 -11.05,79.878 25.12,100.468 36.13,20.551 78.6,6.442 99.18,-29.726 20.59,-36.133 11.06,-79.883 -25.12,-100.434 z M 1309.3,489.449 c 49.14,43.121 98.16,83.75 147.26,121.949 C 1245.35,772.109 1031.72,888.789 798.48,971.75 697.148,936.828 617.34,903.32 543.441,851.48 839.77,767.609 1077.89,655.07 1309.3,489.449 z m 329.29,1734.181 c 0,-0.04 0,-0.08 -0.04,-0.16 -10.31,-30.54 -9.41,-73.9 25.94,-87.42 26.76,-10.27 57.97,2.15 65.39,30.74 5.16,19.81 1.1,44.69 -2.26,64.42 -5.74,33.71 -18.21,66.33 -38.09,94.29 -10.27,-18.08 -19.8,-36.52 -29.49,-54.92 24.61,12.93 55.47,-1.72 60.82,-29.02 5.08,-25.63 -15.2,-50.31 -41.37,-50.31 -19.84,0 -36.44,13.86 -40.9,32.38 z m -86.29,-36.95 c -33.75,-87.35 -55.54,-177.46 -64.02,-259.96 86.84,3.9 164.45,51.28 207.54,126.67 -77.7,-9.14 -144.02,57.23 -143.52,133.29 z m -273.98,251.29 c 57.03,-72.93 103.28,-159.46 137.5,-248.75 40.08,9.33 81.72,9.33 121.8,0 34.18,89.29 80.47,175.82 137.5,248.75 -55.63,43.94 -123.91,67.14 -198.4,67.14 -74.49,0 -142.81,-23.2 -198.4,-67.14 z m -20.66,-384.58 c 43.08,-75.31 120.86,-122.77 207.5,-126.67 -8.48,82.5 -30.32,172.61 -64.07,259.96 0.51,-76.02 -65.78,-142.39 -143.43,-133.29 z m 546.95,491.68 c -58.28,-42.81 -106.84,-98.16 -147.42,-157.69 -21.84,-31.95 -41.45,-65.39 -59.1,-99.77 -16.02,-31.21 -30.12,-63.86 -30.75,-99.49 -0.89,-50.58 29.07,-95.55 76.61,-113.28 42.77,-15.94 88.67,-3.16 119.6,29.8 14.93,15.86 26.1,35.55 31.57,56.65 6.09,23.63 3.67,49.1 -0.2,72.89 -8.98,55.74 -33.51,108.71 -68.79,152.65 -9.84,-15.43 -19.1,-31.29 -28.32,-47.11 25.16,-33.12 40.16,-72.81 45.86,-113.83 3.48,-24.72 7.38,-55.19 -5.31,-77.92 -17.81,-32 -62.27,-39.3 -91.88,-19.3 -37.81,25.55 -32.81,77.93 -16.32,114.49 45.46,100.86 133.63,234.14 186.52,301.91 l -12.07,0 z m -655.82,0 -12.03,0 c 45.78,-58.67 86.83,-121.48 124.76,-185.5 13.44,-22.74 26.45,-45.75 38.68,-69.18 11.87,-22.82 25.19,-46.53 31.75,-71.57 6.72,-25.66 6.02,-55.27 -10.93,-76.99 -14.97,-19.18 -40.04,-27.19 -63.68,-23.28 -21.29,3.52 -38.75,17.89 -46.29,38.09 -5.58,14.96 -4.57,31.44 -3.55,47.07 3.09,48.75 18.36,96.83 48.09,136.01 -9.18,15.86 -18.79,31.45 -28.29,47.11 -46.09,-57.42 -72.53,-128.83 -72.53,-198.44 0,-60.66 52.3,-119.1 113.78,-120.78 45,-1.21 89.15,27.66 107.39,68.48 22.77,51.02 3.28,105.04 -20.63,151.52 -50.23,97.78 -117.07,191.8 -206.52,257.46 z m 556.87,-311.68 c 0,33.75 -52.3,33.75 -52.3,0 0,-33.71 52.3,-33.71 52.3,0 z m 460.59,-1213.75 c 96.52,137.11 153.48,304.03 153.48,484.11 0,333.39 -194.53,622.18 -476.06,758.86 l 0,-32.11 c 265.2,-134.45 447.5,-409.64 447.5,-726.75 0,-178.17 -57.69,-343.05 -155.12,-477.31 l 30.2,-6.8 z M 1860.7,868.82 c 104.57,40.59 174.61,276.53 174.61,623.75 0,382.5 -55,691.1 -207.5,691.1 l -12.5,0 0,-1321.1 3.4,0 c -29.1,-15.5 -58.01,-31.75 -86.72,-48.672 l 0,48.672 63.99,0 0,1262.43 c -17.03,-31.68 -45.36,-57.07 -80.86,-67.46 -44.42,-87.15 -130.9,-142.19 -228.09,-145.86 -1.68,-20.2 -2.81,-40.08 -2.81,-59.11 l -15,0 c 0,19.03 -1.13,38.91 -2.81,59.11 -96.92,3.67 -183.64,58.67 -228.05,145.58 l 0.27,0.16 c -32.89,9.53 -59.65,31.95 -77.03,60.31 l 0,-1255.16 59.81,0 0,-48.672 c -28.71,16.922 -57.58,33.172 -86.68,48.672 l 7.54,0 0,1305.75 c -0.94,5.07 -1.61,10.19 -2,15.35 l -14.68,0 c -152.5,0 -207.5,-308.6 -207.5,-691.1 0,-344.41 68.941,-579.332 172.11,-622.691 3.71,-1.559 12.57,-6.25 17.65,-8.867 125.82,-65.434 247.74,-143.16 368.87,-235.231 125.98,95.739 252.81,176.008 383.98,243.039 z m -210.54,-6.25 62.5,0 0,-60.308 c -20.9,-12.582 -41.76,-25.391 -62.5,-38.633 l 0,98.941 z m -81.84,0 62.46,0 0,-111.172 c -20.9,-13.628 -41.72,-27.609 -62.46,-41.988 l 0,153.16 z m -81.99,0 62.62,0 0,-166.832 c -20.94,-14.769 -41.8,-29.808 -62.62,-45.347 l 0,212.179 z m -183.09,-98.941 c -20.7,13.242 -41.56,26.051 -62.46,38.633 l 0,60.308 62.46,0 0,-98.941 z m 81.88,-54.219 c -20.74,14.379 -41.6,28.36 -62.5,41.988 l 0,111.172 62.5,0 0,-153.16 z m 81.83,-58.91 c -20.78,15.512 -41.6,30.512 -62.5,45.238 l 0,166.832 62.5,0 0,-212.07 z m -241.17,1580.71 c -3.36,-19.73 -7.38,-44.61 -2.26,-64.42 7.46,-28.59 38.63,-41.01 65.43,-30.74 35.43,13.52 36.21,57.03 25.85,87.58 -8.2,-34.26 -54.06,-43.52 -74.92,-15.12 -20,27.31 0.24,67.07 34.03,67.07 7.07,0 13.63,-1.91 19.49,-5 -9.02,17.85 -18.95,36.29 -29.49,54.92 -19.89,-27.96 -32.39,-60.58 -38.13,-94.29 z M 2410,851.48 c -73.91,51.84 -153.71,85.348 -255.08,120.27 -233.2,-82.961 -446.83,-199.641 -658.08,-360.352 49.1,-38.199 98.16,-78.828 147.26,-121.949 231.41,165.621 469.57,278.16 765.9,362.031 z M 1247.77,2233.39 c 0,-33.71 52.31,-33.71 52.31,0 0,33.75 -52.31,33.75 -52.31,0 z m -144.14,-6.01 0,32.11 C 825.469,2121.6 633.672,1834.72 633.672,1503.75 c 0,-180.08 56.949,-347 153.519,-484.11 l 30.188,6.8 c -97.457,134.26 -155.109,299.14 -155.109,477.31 0,314.68 179.492,588.08 441.36,723.63 z M 2341.6,452.539 c -20.82,27.301 -49.76,27.141 -76.87,6.481 l -43.21,-32.93 107.82,-144.059 17.81,13.547 -44.26,59.774 20.47,15.617 c 23.55,17.972 42.66,49.531 18.24,81.57 z m -26.56,-66.328 -22.77,-17.352 -43.72,58.211 21.53,16.399 c 23.12,17.66 42.07,10.82 53.75,-4.489 15.74,-20.66 6.29,-41.289 -8.79,-52.769 z M 864.922,321.75 l 9.566,16.102 -117.066,69.687 -9.613,-16.098 48.953,-29.14 -83.793,-137.731 19.222,-11.41 83.789,137.699 48.942,-29.109 z M 643.359,494.289 568.281,412.852 c -27.461,-30.204 -53.32,-24.614 -72.543,-7.114 -23.668,21.481 -26.398,43.981 -4.179,68.442 11.171,12.3 22.929,24.84 34.461,37.14 l 45,48.719 -16.571,15.031 -42.34,-45.82 c -12.621,-13.469 -23.629,-25.23 -33.437,-36.012 -36.91,-40.59 -25.352,-74.258 3.316,-100.308 25.981,-23.641 62.582,-38.25 101.961,3.941 l 75.93,82.379 -16.52,15.039 z M 691.449,456.09 585.59,310.578 666.172,253 l 10.898,15.238 -62.422,44.571 95,130.269 -18.199,13.012 z M 385.43,632.77 c 31.8,26.8 76.519,25.351 103.32,-6.45 11.41,-13.55 18.199,-26.832 19.648,-44.332 l 19.532,4.262 c -4.219,19.531 -10.942,35.621 -24.84,52.109 -34.34,40.782 -90.899,48.2 -133.051,12.692 -44.961,-37.852 -44.488,-92.5 -10.16,-133.281 12.23,-14.489 30.711,-24.77 48.441,-31.25 l 6.41,16.949 c -15.351,5.781 -30.32,14.261 -40.55,26.371 -26.801,31.84 -20.59,76.129 11.25,102.93 z m -2.731,161.21 -189.73,-32.378 5.82,-21.024 67.539,12.231 40.231,-62.539 -40.11,-54.879 18.199,-14.852 109.571,155.473 -11.52,17.968 z m -64.461,-87.23 -31.949,49.648 84.57,18.524 0.27,-0.473 -52.891,-67.699 z m -147.109,295.98 c 21.84,7.34 33.48,30.74 26.141,52.62 -7.348,21.83 -30.75,33.44 -52.579,26.09 -21.839,-7.34 -33.48,-30.74 -26.14,-52.58 7.347,-21.83 30.75,-33.469 52.578,-26.13 z m 83.992,-188.402 16.719,8.402 -32.352,64.34 54.813,26.989 33.16,-65.981 16.719,8.402 -43.2,85.981 -161.449,-79.422 10.16,-20.23 73.2,35.621 32.23,-64.102 z M 1468.4,110.891 l -96.92,3.949 4.03,79.73 -22.62,0.899 -8.83,-179.6878 22.58,-0.9414 4.34,81.2891 96.91,-3.9492 -4.06,-81.25 22.58,-0.9297 8.86,179.719 -22.61,0.902 -4.26,-79.73 z m -198.56,97.078 -53.63,8.82 -30.82,-177.2578 22.07,-3.6406 13.13,73.1684 25.39,-4.18 c 29.25,-4.809 65.31,2.973 71.87,42.691 5.59,33.871 -14.41,54.852 -48.01,60.399 z m 25.94,-56.719 c -4.22,-25.672 -25.7,-32.93 -44.41,-29.852 l -28.25,4.653 12.35,71.758 26.68,-4.418 c 28.75,-4.719 36.76,-23.161 33.63,-42.141 z m -219.41,107.18 c -30.35,10.039 -57.93,-1.399 -66.68,-27.809 -19.768,-59.73 61.4,-66.832 47.07,-110.312 -6.29,-18.989 -24.1,-26.5199 -44.1,-19.918 -13.601,4.488 -25.199,14.918 -32.148,24.609 L 966.09,112.77 c 11.64,-13.7114 23.64,-22.8911 42.43,-29.0591 37.5,-12.4218 63.12,5.4297 71.52,30.8201 17.69,53.59 -61.92,70.309 -49.53,107.848 6.83,20.742 26.68,24.34 41.44,19.41 16.1,-5.309 24.22,-14.57 32.15,-24.57 l 13.28,12.851 c -11.13,12.739 -24.22,22.821 -41.01,28.36 z m 461.83,-65.5 8.25,-179.7308 22.34,1.211 -8.24,179.7308 -22.35,-1.211 z m -753.981,-8.36 16.172,-14.609 50.429,46.598 67.5,-31.207 -4.371,-67.813 23.321,-2.777 9.019,190 -19.379,8.949 L 784.219,184.57 z m 143.402,106.481 -8.281,-85.551 -53.602,24.77 61.41,61.019 0.473,-0.238 z m 717.219,-251.2502 -19.18,160.0782 -22.14,-2.891 21.52,-178.6286 98.24,12.7304 -2.38,18.5508 -76.06,-9.8398 z m 162.5,198.0902 c -51.52,-13.602 -82.42,-61.571 -68.32,-114.852 15,-56.8281 64.61,-79.7578 116.18,-66.1288 51.52,13.5898 82.42,61.5588 68.32,114.8398 -15,56.84 -64.61,79.77 -116.18,66.141 z M 1850.39,75 c -40.19,-10.6289 -77.62,13.8984 -88.24,54.141 -10.63,40.23 9.76,80.039 50,90.66 40.19,10.629 77.62,-13.91 88.24,-54.141 10.63,-40.23 -9.77,-80.0389 -50,-90.66 z m 958.2,1005.97 c -21.83,7.35 -45.23,-4.25 -52.57,-26.09 -7.39,-21.84 4.25,-45.24 26.09,-52.62 21.84,-7.338 45.23,4.26 52.58,26.13 7.34,21.84 -4.26,45.24 -26.1,52.58 z m -45.31,264.61 178.91,-19.33 2.19,22.22 -178.87,19.38 -2.23,-22.27 z m 130.59,-60.62 c -61.96,10.9 -57.27,-70.43 -102.31,-62.5 -19.72,3.43 -29.76,20 -26.09,40.74 2.46,14.06 11.05,27.07 19.65,35.35 l -14.14,12.5 c -11.92,-13.48 -19.22,-26.72 -22.66,-46.17 -6.84,-38.91 14.49,-61.68 40.9,-66.33 55.55,-9.76 60.58,71.45 99.49,64.65 21.52,-3.79 27.93,-22.89 25.24,-38.24 -2.93,-16.64 -10.9,-26.06 -19.65,-35.35 l 14.65,-11.29 c 10.93,12.85 19.02,27.26 22.1,44.68 5.51,31.49 -9.76,57.15 -37.18,61.96 z m -368.21,959.45 64.11,42.58 8.04,-11.8 c 9.53,-13.94 4.18,-24.53 -1.4,-41.6 l -23.71,-67.58 21.01,-9.57 19.06,56.84 c 3.28,11.36 11.25,29.14 6.25,40.19 l 0.39,0.28 c 17.07,-18.87 42.5,-25.71 66.76,-9.14 24.69,16.91 25.98,45.86 6.76,73.94 l -30.7,44.84 -149.38,-100.35 12.81,-18.63 z m 136.33,91.72 15.12,-22.11 c 16.44,-24.02 8.67,-42.58 -7.23,-53.44 -21.44,-14.69 -41.01,-0.35 -53.47,17.89 l -12.66,18.44 58.24,39.22 z m -130.15,-15.98 c 17.3,14.96 21.6,35.86 9.76,55.9 l 0.39,0.31 c 18.13,-11.79 35.71,-11.05 52.42,3.4 15.12,13.09 24.18,38.79 -1.68,68.71 l -32.61,37.74 -137.15,-116.49 33.01,-38.16 c 23.12,-26.76 51.68,-32.31 75.86,-11.41 z m 31.25,138.75 11.75,-13.55 c 18.87,-21.84 17.93,-37.46 2.78,-50.55 -13.99,-12.07 -31.41,-10.98 -50.63,11.25 l -11.05,12.77 47.15,40.08 z m -60.12,-51.29 13.79,-15.93 c 16.99,-19.69 18.51,-38.95 2.03,-53.25 -18.91,-16.32 -35.9,-11.75 -50.86,5.55 l -17.19,19.84 52.23,43.79 z m 156.29,-241.17 c -48.91,-24.88 -50.04,-60.47 -32.46,-95 15.93,-31.29 44.96,-57.93 96.75,-32.46 l 100.24,50.16 -10.16,19.92 -99.06,-49.53 c -36.41,-18.52 -58.59,-4.14 -70.35,19.02 -14.53,28.52 -9.1,50.51 20.31,65.51 14.85,7.54 30.27,15.08 45.43,22.54 l 59.34,29.57 -10.16,19.96 -55.86,-27.85 c -16.56,-8.17 -31.05,-15.24 -44.02,-21.84 z m -413.83,357.66 60.55,32.38 57.5,-47.15 -21.33,-64.57 21.87,-8.55 56.53,181.68 -16.49,13.51 -170.58,-89.1 11.95,-18.2 z m 153.2,85.51 0.39,-0.32 -29.53,-80.7 -45.62,37.42 74.76,43.6 z m 539.85,-1214.22 c 8.9,14.33 14.76,29.8 15.19,47.5 0.82,31.95 -18.12,55.04 -45.9,55.74 -62.93,1.56 -46.21,-78.16 -91.91,-77.03 -20.04,0.51 -32.38,15.39 -31.88,36.44 0.36,14.3 6.96,28.4 14.18,37.85 l -15.86,10.28 c -9.72,-15.08 -15,-29.26 -15.5,-49.03 -1.02,-39.49 23.47,-58.82 50.27,-59.49 56.41,-1.4 49.34,79.65 88.83,78.67 21.83,-0.54 31.01,-18.47 30.62,-34.06 -0.43,-16.91 -6.91,-27.38 -14.22,-37.89 l 16.18,-8.98 z m -177.74,259.53 143.01,12.07 0.04,-0.51 -137.5,-111.84 9.02,-18.75 175.71,14.58 -2.07,22.5 -141.72,-11.96 -0.04,0.51 136.09,112.5 -9.73,17.93 -174.88,-14.53 2.07,-22.5 z m -7.69,51.6 18.32,3.91 -15.12,70.7 61.41,12.58 14.25,-66.88 18.32,3.91 -14.33,67.15 59.84,12.22 14.73,-68.9 18.32,3.9 -19.34,90.55 -176.29,-36.05 19.89,-93.09 z m -67.74,245.23 136.14,45.51 0.15,-0.51 -107.22,-141.13 13.2,-16.09 167.26,55.62 -7.3,21.41 -134.88,-45.08 -0.2,0.51 105.74,141.44 -13.67,15.08 -166.52,-55.35 7.3,-21.41 z m -830.51,785.55 -56.48,96.92 93.4,57.34 -11.92,17.07 -108.63,-68.36 63.71,-113.4 19.92,10.43 z m -1585.851,-784.65 -70.59,30.67 5.551,13.2 c 6.52,15.59 18.32,16.84 35.738,21.37 l 69.571,16.83 -3.399,22.85 -58.09,-14.88 c -11.281,-3.44 -30.539,-6.37 -37.07,-16.6 l -0.5,0.2 c 6.602,24.57 -1.488,49.68 -28.601,61.01 -27.539,11.56 -52.579,-3.08 -65.7,-34.49 l -20.9801,-50.12 165.3511,-70.94 8.719,20.9 z m -77.898,57.7 -8.629,-20.67 -64.531,27.62 10.347,24.69 c 11.25,26.87 31.024,30.43 48.793,22.97 23.989,-10.04 22.578,-34.22 14.02,-54.61 z m 8.988,122.65 c 55.082,-30.43 77.031,48.01 117.07,25.9 17.539,-9.68 21.641,-28.59 11.442,-47.03 -6.91,-12.5 -19.289,-21.99 -30.071,-27.03 l 9.329,-16.45 c 15.632,8.91 26.839,19.03 36.41,36.33 19.101,34.57 6.293,63.05 -17.11,76.02 -49.41,27.26 -80.55,-47.89 -115.121,-28.79 -19.136,10.55 -19.019,30.66 -11.476,44.34 8.199,14.76 18.789,21.09 30.109,27.03 l -10.191,15.43 c -14.532,-8.6 -26.879,-19.61 -35.43,-35.08 -15.469,-27.97 -9.34,-57.23 15.039,-70.67 z m 119.301,234.97 126.398,-100.04 13.711,17.69 -126.398,100 34.879,45 -14.77,11.49 -83.512,-107.66 14.801,-11.48 34.891,45 z m -68.91,-464.58 -17.93,5.32 -20.512,-69.3 -59.918,18.28 19.379,65.59 -17.969,5.31 -19.46,-65.82 -58.4302,17.81 20,67.58 -17.9687,5.31 -26.25,-88.75 172.0699,-52.58 26.989,91.25 z m 148.441,298.68 -149.691,99.84 -12.231,-18.67 149.653,-99.88 12.269,18.71 z M 183.52,1417.61 40,1416.64 l 0,0.5 145.738,100.86 -7.539,19.42 -176.28884,-0.94 0.32031,-22.62 142.21853,0.98 0,-0.51 L 0,1412.69 8.32031,1394.1 183.828,1395 l -0.308,22.61 z m 18.199,-132.07 c -5.348,34.69 -24.571,69.07 -81.758,61.06 L 9.10156,1330.27 12.5,1308.16 l 109.609,16.13 c 40.313,6.21 56.911,-14.37 60.86,-40.07 4.883,-31.61 -7.149,-50.83 -39.77,-55.86 -16.437,-2.54 -33.469,-4.89 -50.1873,-7.19 l -65.6328,-9.61 3.4414,-22.11 61.7578,8.98 c 18.2809,2.58 34.2229,4.77 48.6329,7 54.219,8.36 66.41,41.79 60.508,80.11 z m 298.902,1046.49 -27.691,62.85 51.449,53.71 62.73,-26.21 10.192,21.17 -176.789,70.24 -14.731,-15.4 75.739,-176.91 19.101,10.55 z m -73.551,159.29 0.352,0.36 78.199,-35.59 -40.82,-42.66 -37.731,77.89 z m -411.3708,-832.34 184.2618,39.18 3.59,20.51 -161.5198,105.43 -9.7304,-19.42 143.4372,-91.17 -164.9997,-31.52 4.9609,-23.01 z M 187.93,1603.67 8.75,1620 6.91016,1597.69 186.09,1581.4 l 1.84,22.27 z m 1010.35,1193.67 c 4.57,-19.49 -6.68,-35.23 -27.19,-40.04 -13.9,-3.24 -29.25,-0.43 -40.23,4.18 l -5.94,-17.93 c 17.07,-5.62 32.11,-7.15 51.37,-2.66 38.48,9.03 51.01,37.62 44.88,63.68 -12.89,54.96 -89.53,27.61 -98.55,66.09 -5,21.25 10.04,34.65 25.19,38.2 16.49,3.87 28.28,0.24 40.24,-4.14 l 4.65,17.89 c -16.18,5.04 -32.58,6.76 -49.81,2.74 -31.13,-7.31 -48.71,-31.45 -42.34,-58.56 14.37,-61.25 87.3,-24.88 97.73,-69.45 z M 642.148,2534.88 c 12.774,-15.35 9.762,-34.49 -6.41,-47.97 -10.968,-9.14 -25.968,-13.52 -37.847,-14.3 l 2.73,-18.71 c 17.777,2.66 31.918,8.01 47.109,20.67 30.36,25.31 28.75,56.44 11.61,77.03 -36.141,43.32 -92.43,-15.43 -117.738,14.92 -13.942,16.8 -6.524,35.51 5.429,45.51 13.008,10.82 25.16,12.85 37.848,14.26 l -3.899,18.08 c -16.679,-2.73 -32.152,-8.51 -45.71,-19.84 -24.571,-20.47 -29.45,-49.96 -11.68,-71.29 40.32,-48.36 89.219,16.8 118.558,-18.36 z m 1106.682,216.64 22.34,88.75 21.6,85.74 -21.72,5.28 -43.94,-174.5 21.72,-5.27 z m -298.75,105.23 14.3,-0.07 c 16.91,-0.08 22.57,-10.51 33.43,-24.85 l 42.07,-57.97 19.81,11.88 -35.86,48.01 c -7.5,9.14 -17.54,25.86 -29.49,28 l 0,0.51 c 25.23,3.24 45.35,20.31 45.46,49.69 0.16,29.88 -22.89,47.42 -56.95,47.62 l -54.33,0.27 -2.5,-179.92 22.61,-0.12 1.45,76.95 z m 0.7,87.39 26.8,-0.16 c 29.14,-0.16 39.96,-17.11 39.84,-36.33 -0.12,-26.01 -23.04,-33.94 -45.15,-33.83 l -22.35,0.12 0.86,70.2 z m 490.7,-252.66 49.73,47.34 67.97,-30.11 -3.4,-67.93 23.4,-2.39 6.13,190.12 -19.49,8.63 -140.7,-131.25 16.36,-14.41 z m 124.93,123.24 0.47,-0.19 -7,-85.67 -53.94,23.95 60.47,61.91 z m -166.33,-105.82 58.9,170 -21.17,7.15 -58.94,-170 21.21,-7.15 z m -282.97,63.32 22.23,-2.65 10.66,76.25 78.95,86.36 -18.01,13.68 -68.71,-81.84 -44.38,95.39 -21.44,-8.71 51.4,-102.23 -10.7,-76.25 z m -632.731,-24.49 70.001,25.12 44.41,-51.45 18.59,14.42 -126.868,141.75 -20.043,-7.22 -11.168,-192.11 21.789,0.9 3.289,68.59 z m 1.992,106.8 0.508,0.15 54.061,-66.75 -55.549,-19.96 0.98,86.56 z m -207.23,-279.42 -52.34,146.84 0.469,0.23 118.082,-106.64 18.668,10.24 -23.2,158.67 0.43,0.23 94.059,-123.94 17.421,13.67 -111.601,144.02 -21.207,-11.64 21.719,-161.25 -120.661,107 -20.281,-11.1 57.781,-173.51 20.661,7.18 z m 501.129,250.71 73.87,8.67 31.68,-60.16 21.37,9.85 -91.57,166.75 -21.17,-2.5 -54.25,-184.64 21.4,-4.03 18.67,66.06 z m 26.1,103.59 0.51,0.08 37.57,-77.27 -58.59,-6.87 20.51,84.06 z m 882.73,-193.94 0.43,-0.28 6.88,-177.11 20.39,-4.06 93.86,149.26 -19.25,11.83 -75.51,-120.47 -0.47,0.28 -8.16,176.4 -20.2,2.97 -93.44,-148.55 19.26,-11.88 76.21,121.61"
           inkscape:connector-curvature="0" /></g></g></g></svg>