<?xml version="1.0" encoding="UTF-8" standalone="no"?>
<!-- Created with Inkscape (http://www.inkscape.org/) -->

<svg
   xmlns:dc="http://purl.org/dc/elements/1.1/"
   xmlns:cc="http://creativecommons.org/ns#"
   xmlns:rdf="http://www.w3.org/1999/02/22-rdf-syntax-ns#"
   xmlns:svg="http://www.w3.org/2000/svg"
   xmlns="http://www.w3.org/2000/svg"
   xmlns:sodipodi="http://sodipodi.sourceforge.net/DTD/sodipodi-0.dtd"
   xmlns:inkscape="http://www.inkscape.org/namespaces/inkscape"
   id="svg2"
   version="1.1"
   inkscape:version="0.48.5 r10040"
   width="369.65347"
   height="487.40051"
   xml:space="preserve"
   sodipodi:docname="fibeamer-mu-econ-dark.svg"><metadata
     id="metadata8"><rdf:RDF><cc:Work
         rdf:about=""><dc:format>image/svg+xml</dc:format><dc:type
           rdf:resource="http://purl.org/dc/dcmitype/StillImage" /><dc:title></dc:title></cc:Work></rdf:RDF></metadata><defs
     id="defs6" /><sodipodi:namedview
     pagecolor="#ffffff"
     bordercolor="#666666"
     borderopacity="1"
     objecttolerance="10"
     gridtolerance="10"
     guidetolerance="10"
     inkscape:pageopacity="0"
     inkscape:pageshadow="2"
     inkscape:window-width="1280"
     inkscape:window-height="751"
     id="namedview4"
     showgrid="false"
     fit-margin-top="0"
     fit-margin-left="0"
     fit-margin-right="0"
     fit-margin-bottom="0"
     inkscape:zoom="0.85630196"
     inkscape:cx="107.59294"
     inkscape:cy="226.36544"
     inkscape:window-x="0"
     inkscape:window-y="29"
     inkscape:window-maximized="1"
     inkscape:current-layer="g10" /><g
     id="g10"
     inkscape:groupmode="layer"
     inkscape:label="ink_ext_XXXXXX"
     transform="matrix(1.25,0,0,-1.25,-10.030275,432.80113)"><path
       id="path3003"
       style="fill:#ffffff;fill-opacity:0.74509805;fill-rule:nonzero;stroke:none"
       d="m 293.1901,68.779563 c -0.71004,-1.139801 -1.43834,-2.278686 -2.17465,-3.398706 0.27669,-0.665541 0.42874,-1.403342 0.42874,-2.175099 0,-3.054902 -2.38957,-5.458098 -5.37255,-5.458098 -0.1212,0 -0.2504,0.01829 -0.37045,0.02722 -0.80035,-1.076801 -1.60411,-2.170983 -2.43075,-3.229948 0.88494,-0.290295 1.82706,-0.454594 2.8012,-0.454594 4.98383,0 9.0347,4.108837 9.0347,9.115428 0,2.090148 -0.73289,4.023658 -1.91624,5.573805 z"
       inkscape:connector-curvature="0" /><path
       id="path3005"
       style="fill:#ffffff;fill-opacity:0.74509805;fill-rule:nonzero;stroke:none"
       d="m 17.929786,68.493726 c -1.066525,-1.501097 -1.687326,-3.323245 -1.687326,-5.287968 0,-5.006591 4.077178,-9.115428 9.061897,-9.115428 0.853038,0 1.673926,0.142918 2.455916,0.370214 -0.839158,1.075888 -1.670312,2.188362 -2.483162,3.287116 -2.970454,0.01383 -5.377285,2.411314 -5.377285,5.458098 0,0.62884 0.09826,1.240757 0.285836,1.799853 -0.763721,1.155921 -1.52297,2.3131 -2.255876,3.488115 z"
       inkscape:connector-curvature="0" /><path
       id="path3007"
       style="fill:#ffffff;fill-opacity:0.74509805;fill-rule:nonzero;stroke:none"
       d="m 16.228615,39.575115 0,-18.079478 18.258182,0 0,18.079478 -18.258182,0 z m 3.644856,-3.644753 10.932786,0 0,-10.754184 -10.932786,0 0,10.754184 z"
       inkscape:connector-curvature="0" /><path
       id="path3009"
       style="fill:#ffffff;fill-opacity:0.74509805;fill-rule:nonzero;stroke:none"
       d="m 49.001555,32.049622 c -0.09387,-0.523424 -0.173788,-1.049591 -0.173788,-1.59931 0,-5.011051 4.077165,-9.119544 9.061918,-9.119544 1.31256,0 2.559148,0.28938 3.688658,0.799426 -1.312673,0.932969 -2.608311,1.888805 -3.889657,2.858361 -2.371525,0.08941 -4.341622,1.687348 -4.971261,3.916869 -1.255507,1.031754 -2.497066,2.081231 -3.71587,3.144198 z"
       inkscape:connector-curvature="0" /><path
       id="path3011"
       style="fill:#ffffff;fill-opacity:0.74509805;fill-rule:nonzero;stroke:none"
       d="m 262.31979,32.392625 c -1.17879,-1.031182 -2.36672,-2.05802 -3.57295,-3.058447 -0.49963,-2.505981 -2.65256,-4.345623 -5.26054,-4.345623 -0.0765,0 -0.15206,0 -0.22867,0 -1.22794,-0.929425 -2.46047,-1.849017 -3.71586,-2.743112 1.19708,-0.588594 2.53252,-0.914675 3.94453,-0.914675 4.98385,0 9.03471,4.108493 9.03471,9.119544 0,0.665426 -0.0675,1.313473 -0.20123,1.942313 z"
       inkscape:connector-curvature="0" /><path
       id="path3013"
       style="fill:#ffffff;fill-opacity:0.74509805;fill-rule:nonzero;stroke:none"
       d="m 276.98203,39.575115 0,-18.079478 18.25807,0 0,18.079478 -18.25807,0 z m 3.64498,-3.644753 10.93266,0 0,-10.754184 -10.93266,0 0,10.754184 z"
       inkscape:connector-curvature="0" /><path
       id="path3015"
       style="fill:#ffffff;fill-opacity:0.74509805;fill-rule:nonzero;stroke:none"
       d="m 48.778602,7.1685026 0,-18.0800486 18.25784,0 0,18.0800486 -18.25784,0 z m 3.680197,-3.6453246 10.932775,0 0,-10.75407 -10.932775,0 0,10.75407 z"
       inkscape:connector-curvature="0" /><path
       id="path3017"
       style="fill:#ffffff;fill-opacity:0.74509805;fill-rule:nonzero;stroke:none"
       d="m 88.044486,6.8102933 c -3.809629,-1.0848052 -6.631403,-4.613167 -6.631403,-8.7751691 0,-5.0065912 4.077167,-9.1154282 9.061921,-9.1154282 4.98384,0 9.030136,4.108837 9.030136,9.1154282 0,1.6248063 -0.4515,3.1571168 -1.196846,4.4876268 -3.4792,1.3139312 -6.90478,2.7520299 -10.263808,4.2875423 z M 90.475004,3.523178 c 2.97853,0 5.37281,-2.4340664 5.37281,-5.4880538 0,-3.0549026 -2.39429,-5.4580982 -5.37281,-5.4580982 -2.983906,0 -5.404591,2.4031956 -5.404591,5.4580982 0,3.0539874 2.420685,5.4880538 5.404591,5.4880538 z"
       inkscape:connector-curvature="0" /><path
       id="path3019"
       style="fill:#ffffff;fill-opacity:0.74509805;fill-rule:nonzero;stroke:none"
       d="m 113.91357,-2.4517119 0,-8.4598341 18.26618,0 0,4.7439647 c -1.22795,0.1782477 -2.44334,0.3703287 -3.66224,0.5716718 l 0,-1.6256065 -10.91529,0 0,3.8274591 c -1.23275,0.2938399 -2.46984,0.6199221 -3.68865,0.942345 z"
       inkscape:connector-curvature="0" /><path
       id="path3021"
       style="fill:#ffffff;fill-opacity:0.74509805;fill-rule:nonzero;stroke:none"
       d="m 162.81795,-7.650271 c -2.42961,-0.112161 -4.88551,-0.201457 -7.34256,-0.201457 -2.27755,0 -4.52421,0.07546 -6.77546,0.17013 1.66128,-2.072769 4.22123,-3.398706 7.0613,-3.398706 2.84921,0 5.40459,1.335312 7.05672,3.430033 z"
       inkscape:connector-curvature="0" /><path
       id="path3023"
       style="fill:#ffffff;fill-opacity:0.74509805;fill-rule:nonzero;stroke:none"
       d="m 197.35039,-2.3623028 c -1.21881,-0.3260811 -2.42961,-0.6485051 -3.66215,-0.9469174 l 0,-3.9122958 -10.9155,0 0,1.6836885 c -1.22337,-0.205459 -2.4559,-0.3929677 -3.68843,-0.5716718 l 0,-4.8020467 18.26608,0 0,8.5492432 z"
       inkscape:connector-curvature="0" /><path
       id="path3025"
       style="fill:#ffffff;fill-opacity:0.74509805;fill-rule:nonzero;stroke:none"
       d="M 223.01733,6.8688317 C 219.72106,5.3552724 216.38936,3.9305506 212.98218,2.63983 c -0.79462,-1.3630956 -1.28626,-2.9307351 -1.28626,-4.6047058 0,-5.0065912 4.07718,-9.1154282 9.06216,-9.1154282 4.98384,0 9.03471,4.108837 9.03471,9.1154282 0,4.2250009 -2.88008,7.8113295 -6.77546,8.8337075 z M 220.75808,3.523178 c 2.98298,0 5.37257,-2.4340664 5.37257,-5.4880538 0,-3.0549026 -2.38959,-5.4580982 -5.37257,-5.4580982 -2.97956,0 -5.40001,2.4031956 -5.40001,5.4580982 0,3.0539874 2.42045,5.4880538 5.40001,5.4880538 z"
       inkscape:connector-curvature="0" /><path
       id="path3027"
       style="fill:#ffffff;fill-opacity:0.74509805;fill-rule:nonzero;stroke:none"
       d="m 244.21836,7.1685026 0,-18.0800486 18.25806,0 0,18.0800486 -18.25806,0 z m 3.68042,-3.6453246 10.93381,0 0,-10.75407 -10.93381,0 0,10.75407 z"
       inkscape:connector-curvature="0" /><path
       id="path3029"
       style="fill:#ffffff;fill-opacity:0.74509805;fill-rule:nonzero;stroke:none"
       d="m 286.06247,7.1774212 c -4.98383,0 -9.06215,-4.1401653 -9.06215,-9.1467563 0,-5.0065909 4.07832,-9.1203439 9.06215,-9.1203439 4.97928,0 9.03015,4.113753 9.03015,9.1203439 0,5.006591 -4.05087,9.1467563 -9.03015,9.1467563 z m 0,-3.6587025 c 2.97843,0 5.37258,-2.4340664 5.37258,-5.4880538 0,-3.0549015 -2.39416,-5.4580969 -5.37258,-5.4580969 -2.98298,0 -5.40457,2.4031954 -5.40457,5.4580969 0,3.0539874 2.42159,5.4880538 5.40457,5.4880538 z"
       inkscape:connector-curvature="0" /><path
       id="path3031"
       style="fill:#ffffff;fill-opacity:0.74509805;fill-rule:nonzero;stroke:none"
       d="m 25.299887,7.1774212 c -4.985154,0 -9.06234,-4.1401653 -9.06234,-9.1467563 0,-5.0065909 4.077186,-9.1203439 9.06234,-9.1203439 4.979402,0 9.030158,4.113753 9.030158,9.1203439 0,5.006591 -4.050756,9.1467563 -9.030158,9.1467563 z m 0,-3.6587025 c 2.97855,0 5.37237,-2.4340664 5.37237,-5.4880538 0,-3.0549015 -2.39382,-5.4580969 -5.37237,-5.4580969 -2.984301,0 -5.404533,2.4031954 -5.404533,5.4580969 0,3.0539874 2.420232,5.4880538 5.404533,5.4880538 z"
       inkscape:connector-curvature="0" /><path
       id="path3033"
       style="fill:#ffffff;fill-opacity:0.74509805;fill-rule:nonzero;stroke:none"
       d="m 16.228615,346.2409 0,-18.07857 18.258182,0 0,18.07857 -18.258182,0 z m 3.644856,-3.64384 10.932786,0 0,-10.79088 -10.932786,0 0,10.79088 z"
       inkscape:connector-curvature="0" /><path
       id="path3035"
       style="fill:#ffffff;fill-opacity:0.74509805;fill-rule:nonzero;stroke:none"
       d="m 57.893231,346.2409 c -4.97938,0 -9.056547,-4.14005 -9.056547,-9.14675 0,-5.00671 4.077167,-9.11932 9.056547,-9.11932 4.985209,0 9.035964,4.11261 9.035964,9.11932 0,5.0067 -4.050755,9.14675 -9.035964,9.14675 z m 0,-3.65756 c 2.984357,0 5.378177,-2.43418 5.378177,-5.48919 0,-3.05502 -2.39382,-5.45719 -5.378177,-5.45719 -2.978527,0 -5.398759,2.40217 -5.398759,5.45719 0,3.05501 2.420232,5.48919 5.398759,5.48919 z"
       inkscape:connector-curvature="0" /><path
       id="path3037"
       style="fill:#ffffff;fill-opacity:0.74509805;fill-rule:nonzero;stroke:none"
       d="m 81.36392,346.2409 0,-18.07857 18.25785,0 0,18.07857 -18.25785,0 z m 3.643609,-3.64384 10.934035,0 0,-10.79088 -10.934035,0 0,10.79088 z"
       inkscape:connector-curvature="0" /><path
       id="path3039"
       style="fill:#ffffff;fill-opacity:0.74509805;fill-rule:nonzero;stroke:none"
       d="m 123.18495,346.2409 c -4.98384,0 -9.06192,-4.14005 -9.06192,-9.14675 0,-5.00671 4.07808,-9.11932 9.06192,-9.11932 4.98384,0 9.03024,4.11261 9.03024,9.11932 0,5.0067 -4.0464,9.14675 -9.03024,9.14675 z m 0,-3.65756 c 2.97852,0 5.37279,-2.43418 5.37279,-5.48919 0,-3.05502 -2.39428,-5.45719 -5.37279,-5.45719 -2.98298,0 -5.40459,2.40217 -5.40459,5.45719 0,3.05501 2.42161,5.48919 5.40459,5.48919 z"
       inkscape:connector-curvature="0" /><path
       id="path3041"
       style="fill:#ffffff;fill-opacity:0.74509805;fill-rule:nonzero;stroke:none"
       d="m 146.53443,346.2409 0,-18.07857 18.25808,0 0,18.07857 -18.25808,0 z m 3.64384,-3.64384 10.9338,0 0,-10.79088 -10.9338,0 0,10.79088 z"
       inkscape:connector-curvature="0" /><path
       id="path3043"
       style="fill:#ffffff;fill-opacity:0.74509805;fill-rule:nonzero;stroke:none"
       d="m 188.20363,346.2409 c -4.98384,0 -9.06215,-4.14005 -9.06215,-9.14675 0,-5.00671 4.07831,-9.11932 9.06215,-9.11932 4.98383,0 9.03012,4.11261 9.03012,9.11932 0,5.0067 -4.04629,9.14675 -9.03012,9.14675 z m 0,-3.65756 c 2.97956,0 5.37258,-2.43418 5.37258,-5.48919 0,-3.05502 -2.39302,-5.45719 -5.37258,-5.45719 -2.98298,0 -5.40344,2.40217 -5.40344,5.45719 0,3.05501 2.42046,5.48919 5.40344,5.48919 z"
       inkscape:connector-curvature="0" /><path
       id="path3045"
       style="fill:#ffffff;fill-opacity:0.74509805;fill-rule:nonzero;stroke:none"
       d="m 211.66964,346.2409 0,-18.07857 18.25692,0 0,18.07857 -18.25692,0 z m 3.64382,-3.64384 10.93382,0 0,-10.79088 -10.93382,0 0,10.79088 z"
       inkscape:connector-curvature="0" /><path
       id="path3047"
       style="fill:#ffffff;fill-opacity:0.74509805;fill-rule:nonzero;stroke:none"
       d="m 253.49088,346.2409 c -4.98041,0 -9.05758,-4.14005 -9.05758,-9.14675 0,-5.00671 4.07717,-9.11932 9.05758,-9.11932 4.98383,0 9.0347,4.11261 9.0347,9.11932 0,5.0067 -4.05087,9.14675 -9.0347,9.14675 z m 0,-3.65756 c 2.98298,0 5.37715,-2.43418 5.37715,-5.48919 0,-3.05502 -2.39417,-5.45719 -5.37715,-5.45719 -2.97956,0 -5.40002,2.40217 -5.40002,5.45719 0,3.05501 2.42046,5.48919 5.40002,5.48919 z"
       inkscape:connector-curvature="0" /><path
       id="path3049"
       style="fill:#ffffff;fill-opacity:0.74509805;fill-rule:nonzero;stroke:none"
       d="m 276.98203,346.2409 0,-18.07857 18.25807,0 0,18.07857 -18.25807,0 z m 3.64498,-3.64384 10.93266,0 0,-10.79088 -10.93266,0 0,10.79088 z"
       inkscape:connector-curvature="0" /><path
       id="path3051"
       style="fill:#ffffff;fill-opacity:0.74509805;fill-rule:nonzero;stroke:none"
       d="m 48.778602,313.83509 0,-18.07971 18.25784,0 0,18.07971 -18.25784,0 z m 3.680197,-3.68043 10.932775,0 0,-10.75429 -10.932775,0 0,10.75429 z"
       inkscape:connector-curvature="0" /><path
       id="path3053"
       style="fill:#ffffff;fill-opacity:0.74509805;fill-rule:nonzero;stroke:none"
       d="m 90.475004,313.82594 c -4.984754,0 -9.061921,-4.13547 -9.061921,-9.14675 0,-2.01915 0.656051,-3.88623 1.772185,-5.40002 1.117047,0.55795 2.241983,1.09418 3.372866,1.63041 -0.924967,0.97299 -1.487721,2.29126 -1.487721,3.76961 0,3.05958 2.420685,5.4892 5.404591,5.4892 2.89849,0 5.24235,-2.29584 5.3728,-5.23081 1.15581,0.46077 2.31756,0.88496 3.488126,1.3137 -0.74182,4.27383 -4.413096,7.57466 -8.860926,7.57466 z"
       inkscape:connector-curvature="0" /><path
       id="path3055"
       style="fill:#ffffff;fill-opacity:0.74509805;fill-rule:nonzero;stroke:none"
       d="m 113.91357,313.82594 0,-2.97041 c 4.43846,1.17422 8.96725,2.17464 13.54999,2.97041 l -13.54999,0 z"
       inkscape:connector-curvature="0" /><path
       id="path3057"
       style="fill:#ffffff;fill-opacity:0.74509805;fill-rule:nonzero;stroke:none"
       d="m 183.51362,313.82594 c 4.69,-0.81749 9.29426,-1.84535 13.83675,-3.05502 l 0,3.05502 -13.83675,0 z"
       inkscape:connector-curvature="0" /><path
       id="path3059"
       style="fill:#ffffff;fill-opacity:0.74509805;fill-rule:nonzero;stroke:none"
       d="m 220.75807,313.82594 c -4.47047,0 -8.19549,-3.32713 -8.91923,-7.62839 1.18794,-0.44247 2.345,-0.90668 3.51922,-1.37544 0.072,2.98756 2.46504,5.34628 5.40001,5.34628 2.98298,0 5.37258,-2.42962 5.37258,-5.4892 0,-1.52752 -0.57168,-2.87666 -1.54123,-3.85879 1.12162,-0.52708 2.23296,-1.07246 3.34542,-1.62583 1.15706,1.53207 1.85794,3.42088 1.85794,5.48462 0,5.01128 -4.05087,9.14675 -9.03471,9.14675 z"
       inkscape:connector-curvature="0" /><path
       id="path3061"
       style="fill:#ffffff;fill-opacity:0.74509805;fill-rule:nonzero;stroke:none"
       d="m 244.21836,313.83509 0,-18.07971 18.25806,0 0,18.07971 -18.25806,0 z m 3.68042,-3.68043 10.93381,0 0,-10.75429 -10.93381,0 0,10.75429 z"
       inkscape:connector-curvature="0" /><path
       id="path3063"
       style="fill:#ffffff;fill-opacity:0.74509805;fill-rule:nonzero;stroke:none"
       d="m 286.06247,313.83051 c -4.98383,0 -9.06215,-4.13662 -9.06215,-9.14675 0,-5.0067 4.07832,-9.11588 9.06215,-9.11588 4.97928,0 9.03015,4.10918 9.03015,9.11588 0,5.01013 -4.05087,9.14675 -9.03015,9.14675 z m 0,-3.6587 c 2.97843,0 5.37258,-2.43304 5.37258,-5.48805 0,-3.05501 -2.39416,-5.45833 -5.37258,-5.45833 -2.98298,0 -5.40457,2.40332 -5.40457,5.45833 0,3.05501 2.42159,5.48805 5.40457,5.48805 z"
       inkscape:connector-curvature="0" /><path
       id="path3065"
       style="fill:#ffffff;fill-opacity:0.74509805;fill-rule:nonzero;stroke:none"
       d="m 25.299887,313.83051 c -4.985154,0 -9.06234,-4.13662 -9.06234,-9.14675 0,-5.0067 4.077186,-9.11588 9.06234,-9.11588 4.979402,0 9.030158,4.10918 9.030158,9.11588 0,5.01013 -4.050756,9.14675 -9.030158,9.14675 z m 0,-3.6587 c 2.97855,0 5.37237,-2.43304 5.37237,-5.48805 0,-3.05501 -2.39382,-5.45833 -5.37237,-5.45833 -2.984301,0 -5.404533,2.40332 -5.404533,5.45833 0,3.05501 2.420232,5.48805 5.404533,5.48805 z"
       inkscape:connector-curvature="0" /><path
       id="path3067"
       style="fill:#ffffff;fill-opacity:0.74509805;fill-rule:nonzero;stroke:none"
       d="m 16.228615,281.07026 0,-18.07855 18.258182,0 0,18.07855 -18.258182,0 z m 3.644856,-3.67928 10.932786,0 0,-10.75544 -10.932786,0 0,10.75544 z"
       inkscape:connector-curvature="0" /><path
       id="path3069"
       style="fill:#ffffff;fill-opacity:0.74509805;fill-rule:nonzero;stroke:none"
       d="m 276.98203,281.07026 0,-18.07855 18.25807,0 0,18.07855 -18.25807,0 z m 3.64498,-3.67928 10.93266,0 0,-10.75544 -10.93266,0 0,10.75544 z"
       inkscape:connector-curvature="0" /><path
       id="path3071"
       style="fill:#ffffff;fill-opacity:0.74509805;fill-rule:nonzero;stroke:none"
       d="m 287.24584,248.5707 c 2.66629,-3.71587 5.16334,-7.54836 7.51634,-11.49175 0.21037,0.77289 0.34415,1.59382 0.34415,2.4296 0,4.60882 -3.43918,8.46762 -7.86049,9.06215 z"
       inkscape:connector-curvature="0" /><path
       id="path3073"
       style="fill:#ffffff;fill-opacity:0.74509805;fill-rule:nonzero;stroke:none"
       d="m 23.6742,248.48495 c -4.216975,-0.78091 -7.43174,-4.52421 -7.43174,-8.9764 0,-0.69744 0.07994,-1.37544 0.227329,-2.02829 2.263916,3.76961 4.653324,7.44545 7.204411,11.00469 z"
       inkscape:connector-curvature="0" /><path
       id="path3075"
       style="fill:#ffffff;fill-opacity:0.74509805;fill-rule:nonzero;stroke:none"
       d="m 16.228615,-25.416814 0,-18.080037 18.258182,0 0,18.080037 -18.258182,0 z m 3.644856,-3.645325 10.932786,0 0,-10.78941 -10.932786,0 0,10.78941 z"
       inkscape:connector-curvature="0" /><path
       id="path3077"
       style="fill:#ffffff;fill-opacity:0.74509805;fill-rule:nonzero;stroke:none"
       d="m 57.893231,-25.412355 c -4.97938,0 -9.056547,-4.140165 -9.056547,-9.146756 0,-5.006603 4.077167,-9.120405 9.056547,-9.120405 4.985209,0 9.035964,4.113802 9.035964,9.120405 0,5.006591 -4.050755,9.146756 -9.035964,9.146756 z m 0,-3.658702 c 2.984357,0 5.378177,-2.433151 5.378177,-5.488054 0,-3.054879 -2.39382,-5.458131 -5.378177,-5.458131 -2.978527,0 -5.398759,2.403252 -5.398759,5.458131 0,3.054903 2.420232,5.488054 5.398759,5.488054 z"
       inkscape:connector-curvature="0" /><path
       id="path3079"
       style="fill:#ffffff;fill-opacity:0.74509805;fill-rule:nonzero;stroke:none"
       d="m 81.36392,-25.416814 0,-18.080037 18.25785,0 0,18.080037 -18.25785,0 z m 3.643609,-3.645325 10.934035,0 0,-10.78941 -10.934035,0 0,10.78941 z"
       inkscape:connector-curvature="0" /><path
       id="path3081"
       style="fill:#ffffff;fill-opacity:0.74509805;fill-rule:nonzero;stroke:none"
       d="m 123.18495,-25.412355 c -4.98384,0 -9.06192,-4.140165 -9.06192,-9.146756 0,-5.006603 4.07808,-9.120405 9.06192,-9.120405 4.98384,0 9.03024,4.113802 9.03024,9.120405 0,5.006591 -4.0464,9.146756 -9.03024,9.146756 z m 0,-3.658702 c 2.97852,0 5.37279,-2.433151 5.37279,-5.488054 0,-3.054879 -2.39428,-5.458131 -5.37279,-5.458131 -2.98298,0 -5.40459,2.403252 -5.40459,5.458131 0,3.054903 2.42161,5.488054 5.40459,5.488054 z"
       inkscape:connector-curvature="0" /><path
       id="path3083"
       style="fill:#ffffff;fill-opacity:0.74509805;fill-rule:nonzero;stroke:none"
       d="m 146.53443,-25.416814 0,-18.080037 18.25808,0 0,18.080037 -18.25808,0 z m 3.64384,-3.645325 10.9338,0 0,-10.78941 -10.9338,0 0,10.78941 z"
       inkscape:connector-curvature="0" /><path
       id="path3085"
       style="fill:#ffffff;fill-opacity:0.74509805;fill-rule:nonzero;stroke:none"
       d="m 188.20363,-25.412355 c -4.98384,0 -9.06215,-4.140165 -9.06215,-9.146756 0,-5.006603 4.07831,-9.120405 9.06215,-9.120405 4.98383,0 9.03012,4.113802 9.03012,9.120405 0,5.006591 -4.04629,9.146756 -9.03012,9.146756 z m 0,-3.658702 c 2.97956,0 5.37258,-2.433151 5.37258,-5.488054 0,-3.054879 -2.39302,-5.458131 -5.37258,-5.458131 -2.98298,0 -5.40344,2.403252 -5.40344,5.458131 0,3.054903 2.42046,5.488054 5.40344,5.488054 z"
       inkscape:connector-curvature="0" /><path
       id="path3087"
       style="fill:#ffffff;fill-opacity:0.74509805;fill-rule:nonzero;stroke:none"
       d="m 211.66964,-25.416814 0,-18.080037 18.25692,0 0,18.080037 -18.25692,0 z m 3.64382,-3.645325 10.93382,0 0,-10.78941 -10.93382,0 0,10.78941 z"
       inkscape:connector-curvature="0" /><path
       id="path3089"
       style="fill:#ffffff;fill-opacity:0.74509805;fill-rule:nonzero;stroke:none"
       d="m 253.49088,-25.412355 c -4.98041,0 -9.05758,-4.140165 -9.05758,-9.146756 0,-5.006603 4.07717,-9.120405 9.05758,-9.120405 4.98383,0 9.0347,4.113802 9.0347,9.120405 0,5.006591 -4.05087,9.146756 -9.0347,9.146756 z m 0,-3.658702 c 2.98298,0 5.37715,-2.433151 5.37715,-5.488054 0,-3.054879 -2.39417,-5.458131 -5.37715,-5.458131 -2.97956,0 -5.40002,2.403252 -5.40002,5.458131 0,3.054903 2.42046,5.488054 5.40002,5.488054 z"
       inkscape:connector-curvature="0" /><path
       id="path3091"
       style="fill:#ffffff;fill-opacity:0.74509805;fill-rule:nonzero;stroke:none"
       d="m 276.98203,-25.416814 0,-18.080037 18.25807,0 0,18.080037 -18.25807,0 z m 3.64498,-3.645325 10.93266,0 0,-10.78941 -10.93266,0 0,10.78941 z"
       inkscape:connector-curvature="0" /><g
       transform="matrix(1.0227803,0,0,1.0227803,8.31862,7.6865135)"
       inkscape:label="fithesis-fi-white"
       id="g3091"><g
         transform="scale(0.1,0.1)"
         id="g3093"><path
           id="path3095"
           style="fill:#ffffff;fill-opacity:1;fill-rule:nonzero;stroke:none"
           d="m 1564.06,414.68 -7.34,-3.59 -202.5,0 -69.84,125.16 195,0 7.34,3.59 868.44,1512.5 66.25,-136.09 -857.35,-1501.57 z m 92.03,1100.32 7.35,-3.6 25.78,-125.15 -77.34,-150.94 -25.79,139.84 -7.34,3.75 -482.03,0 80.94,136.1 478.43,0 z m -202.5,-938.281 -669.68,1166.561 161.871,0 172.969,-305.47 -36.87,-62.66 81.09,-150.78 99.37,-3.75 268.6,-500.472 -77.35,-143.429 z m 371.72,1166.561 58.91,106.72 14.69,-106.72 70,0 -507.97,-872.19 -187.66,349.53 338.6,0 84.68,165.63 -29.53,136.25 -496.72,0 -44.22,-73.75 -169.211,294.53 868.431,0 z m 231.88,158.12 -80.94,-147.18 -66.25,0 -22.19,147.18 169.38,0 z m -162.03,44.22 -22.04,-36.87 7.35,-44.07 -55.16,-103.12 -22.03,158.28 69.84,125.16 22.04,-99.38 z m -1328.441,110.47 1299.061,0 -69.84,-128.91 -1310.159,0 80.938,128.91 z M 1247.5,576.719 l 47.97,0 -22.19,-33.129 77.34,-139.84 213.44,0 868.44,1512.5 c -11.09,25.62 -73.59,150.78 -73.59,150.78 l -393.75,0 -62.5,-110.31 -25.78,110.31 -1317.501,0 L 471.09,1927.18 1247.5,576.719 z m 331.25,802.181 7.34,-3.75 77.35,136.25 -7.35,3.6 -77.34,-136.1 z m -14.69,-964.22 -7.34,-3.59 -77.34,125.16 7.34,3.59 77.34,-125.16 z M 44.2188,1338.43 c 0,-22.03 18.4414,-40.46 40.4726,-40.46 18.4296,0 36.7186,18.43 36.7186,40.46 0,18.44 -18.289,36.72 -36.7186,36.72 -22.0312,0 -40.4726,-18.28 -40.4726,-36.72 z m 2704.8412,0 c 0,-22.03 18.28,-40.46 40.47,-40.46 18.28,0 36.72,18.43 36.72,40.46 0,18.44 -18.44,36.72 -36.72,36.72 -22.19,0 -40.47,-18.28 -40.47,-36.72 z m -2741.72016,99.38 0,18.44 c 0,3.59 0,10.93 11.10156,10.93 l 136.0896,0 c 11.09,0 11.09,-7.34 11.09,-10.93 l 0,-18.44 7.348,0 0,80.94 -7.348,0 0,-18.44 c 0,-3.59 -3.742,-10.94 -14.68,-10.94 l -62.6598,0 0,14.69 c 0,14.69 14.8398,25.78 33.1288,29.37 l 0,7.35 -73.6014,0 0,-7.35 c 18.4414,-3.59 29.5312,-14.68 29.5312,-29.37 l 0,-14.69 -58.8984,0 c -11.10156,0 -11.10156,0 -11.10156,10.94 l 0,25.78 c 0,11.09 3.74996,22.03 11.10156,33.13 7.3398,3.75 22.0274,11.09 40.4688,14.68 l 0,7.35 -58.9102,-3.6 0,-139.84 7.33984,0 z m 7.35156,242.81 c 95.7776,-62.5 143.5896,-92.03 147.1876,-95.62 3.742,-3.75 7.5,-7.35 3.742,-18.44 l 7.348,0 11.09,62.66 -7.34,3.59 c -7.34,-33.13 -3.75,-40.47 -47.809,-7.34 l 10.93,66.25 33.129,7.34 c 3.75,0 14.691,-3.75 11.09,-22.03 l 7.351,-3.75 11.09,70 -7.5,0 c 0,-11.1 -3.59,-14.85 -14.691,-18.44 L 14.6914,1691.72 c -7.35156,-3.75 -7.35156,-7.35 0,-11.1 z m 114.2186,7.35 -11.101,-58.75 -73.5902,40.46 84.6912,18.29 z M 80.9414,1912.5 C 66.25,1894.06 58.9102,1886.72 55.1602,1872.03 40.4688,1827.81 70,1783.75 125.16,1769.06 c 47.809,-14.84 88.281,14.69 102.961,55.16 11.098,33.12 -7.34,62.5 -40.461,80.93 -3.601,0 -7.351,-3.75 -3.601,-7.34 29.382,-18.44 47.82,-40.47 36.722,-73.59 -3.59,-29.54 -40.472,-40.47 -88.281,-25.79 -58.9102,14.69 -77.3398,44.22 -66.25,69.85 3.75,11.09 11.0898,22.19 22.0312,29.53 11.0977,3.59 29.5278,7.34 47.9688,7.34 l 3.59,3.6 -69.84,22.18 0,-7.34 10.9414,-11.09 z m 14.8398,55.15 c 14.6878,29.53 0,36.88 73.5978,-3.59 36.711,-18.44 58.742,-25.78 69.84,-25.78 18.441,0 77.34,33.12 58.902,95.62 -3.742,11.1 -14.68,22.19 -33.121,29.53 l -77.34,36.72 c -14.691,11.1 -18.281,18.44 -7.351,36.88 l -10.93,7.34 -29.539,-62.65 11.101,-7.35 c 10.938,25.78 10.938,25.78 36.719,11.1 117.809,-47.82 106.719,-66.25 92.031,-95.63 -10.941,-25.78 -18.441,-29.53 -36.722,-29.53 -7.348,0 -29.528,7.34 -66.25,25.78 -33.129,18.44 -51.559,25.78 -55.309,29.38 0,3.75 3.75,11.09 11.09,25.78 l -7.34,7.34 -36.8788,-77.19 7.5,-3.75 z m 91.8788,191.41 c 14.84,25.78 3.75,29.37 81.09,-18.44 84.531,-47.81 69.84,-40.47 55.16,-66.25 l 3.59,-3.59 77.34,121.4 -55.149,40.47 -3.75,-7.34 c 33.118,-29.38 40.469,-47.81 25.778,-73.59 -25.778,-40.47 -7.34,-40.47 -92.028,7.34 -77.191,47.81 -66.25,40.47 -47.812,70 l -7.348,3.59 -44.222,-69.84 7.351,-3.75 z m 132.5,102.97 3.75,7.5 c -40.469,73.59 -7.351,80.94 0,73.59 69.84,-58.9 106.711,-92.03 106.711,-95.78 3.598,-3.59 0,-7.34 -11.09,-18.28 l 7.348,-7.5 47.812,58.91 -7.351,7.34 c -7.34,-10.94 -14.68,-18.28 -18.281,-18.28 -3.75,3.59 -36.868,33.12 -106.719,91.87 -14.84,14.85 0,51.57 69.851,7.35 l 3.75,11.09 -51.562,40.47 -88.289,-110.31 44.07,-47.97 z m 110.461,231.87 c 47.82,-102.97 69.848,-158.12 66.258,-165.62 0,-3.6 -3.758,-10.94 -7.348,-14.69 l 7.348,-3.59 44.062,44.06 -3.601,7.34 c -25.781,-33.12 -33.121,-7.34 -36.871,3.75 l -7.348,18.44 47.82,47.81 c 58.899,-29.53 44.219,-22.03 25.778,-40.47 l 7.34,-3.75 51.562,47.82 -7.34,3.75 c -7.34,-7.35 -14.691,-11.1 -22.031,-7.35 l -154.691,69.85 c -7.34,3.75 -14.68,3.75 -10.938,-7.35 z M 530,2435 485.781,2390.93 452.66,2468.12 530,2435 z m 88.281,195.15 c -18.441,0 -103.121,-18.43 -55.16,-88.43 14.688,-18.29 36.719,-18.29 69.848,-7.35 51.562,18.44 51.562,18.44 66.25,3.75 14.691,-14.69 7.34,-36.87 -11.098,-51.56 -25.621,-14.69 -55.152,-14.69 -84.531,14.69 l -7.34,-7.35 36.719,-55.15 11.09,7.34 3.601,22.03 c 55.309,-18.28 81.09,58.91 62.649,84.69 -22.188,29.53 -36.868,25.78 -84.688,7.34 -25.781,-7.34 -73.59,-14.68 -62.5,25.78 7.348,33.13 47.82,44.22 91.879,11.1 l 7.5,3.59 -40.621,47.81 -3.598,-3.59 0,-14.69 z m 209.688,-22.18 c 0,-18.29 -3.59,-29.38 -14.688,-33.13 l 0,-7.34 55.16,25.78 -3.601,7.34 c -14.68,-10.94 -25.781,-22.03 -25.781,36.88 l 58.91,29.37 c 44.222,-33.12 44.222,-33.12 18.441,-44.06 l 0,-7.5 62.5,29.53 -3.75,3.59 c -10.941,-3.59 -18.281,-3.59 -25.629,3.75 l -121.562,114.07 c -7.348,7.34 -10.938,7.34 -10.938,-3.6 l 10.938,-154.68 z m 62.652,66.25 -55.152,-25.79 -7.5,84.69 62.652,-58.9 z m 40.469,128.9 c 25.789,10.94 25.789,22.03 55.16,-62.65 29.53,-84.54 25.78,-73.6 0,-84.54 l 0,-7.5 77.34,25.79 -3.75,7.34 c -25.78,-3.59 -22.03,-22.03 -51.56,66.25 36.88,11.09 51.56,7.34 62.66,-29.38 10.94,-33.12 66.25,-55.15 58.9,18.44 0,3.6 -7.34,10.94 -7.34,0 7.34,-25.78 -7.5,-36.87 -29.53,-7.34 -14.69,33.12 -18.44,25.62 -51.56,33.12 36.87,18.28 47.97,36.72 40.47,55.16 -10.94,29.37 -36.72,36.72 -69.85,22.03 l -84.69,-29.37 3.75,-7.35 z m 77.19,-47.97 c -33.12,77.35 -33.12,66.25 7.5,77.35 18.28,3.75 33.13,0 40.47,-14.69 14.69,-29.53 -3.75,-47.81 -33.13,-58.91 l -14.84,-3.75 z m 121.56,47.97 7.35,3.6 c 7.34,58.9 33.12,73.59 44.06,62.65 3.75,0 7.5,-22.19 14.84,-70 10.94,-47.81 14.69,-73.59 10.94,-77.34 0,-3.6 -7.34,-3.6 -22.03,-7.35 l 0,-7.34 77.34,11.09 0,7.35 c -29.53,-3.75 -25.78,-14.69 -44.22,77.34 -7.34,47.81 -11.09,69.85 -11.09,73.6 3.75,3.59 36.88,25.78 62.66,-47.97 l 10.93,0 -14.68,66.25 -139.85,-25.63 3.75,-66.25 z m 180.32,88.28 c 29.37,3.6 29.37,3.6 29.37,-11.09 7.35,-88.28 7.35,-136.09 3.75,-139.84 -3.75,-3.6 -11.09,-3.6 -25.78,-7.35 l 0,-7.34 80.94,7.34 0,7.35 c -14.69,0 -25.78,0 -29.38,3.75 -3.75,3.59 -3.75,47.81 -7.5,136.09 0,14.69 0,14.69 29.53,18.44 l 0,7.34 -80.93,-7.34 0,-7.35 z m 198.75,0 c -18.44,11.1 -29.53,18.44 -44.22,18.44 -29.53,0 -51.57,-22.19 -51.57,-55.31 0,-10.94 3.76,-22.03 14.69,-33.13 7.35,-3.59 18.44,-10.93 36.88,-14.68 47.81,-10.94 55.15,-14.69 55.15,-36.72 0,-18.44 -14.68,-33.13 -40.46,-33.13 -29.38,0 -55.16,18.28 -58.91,58.91 l -10.94,0 0,-66.25 10.94,0 14.69,14.69 c 11.09,-11.1 25.78,-18.44 44.22,-18.44 33.12,0 58.9,25.78 58.9,55.15 0,29.54 -14.69,40.47 -66.25,51.57 -40.47,14.68 -44.22,14.68 -44.22,36.87 0,14.69 18.44,29.38 36.88,29.38 25.78,0 40.47,-14.69 55.15,-55.16 l 7.35,0 -3.6,62.5 -7.34,0 -7.34,-14.69 z m 150.78,-7.34 c 33.12,-11.09 29.53,3.59 14.69,-88.28 -10.94,-88.44 -14.69,-73.75 -44.07,-70 l 0,-7.35 80.94,-14.68 0,7.34 c -29.53,3.59 -33.13,-7.34 -18.44,80.94 14.69,92.03 7.35,88.28 47.81,77.34 l 0,7.35 -80.93,14.68 0,-7.34 z m 103.12,-22.19 c 10.94,-3.59 18.28,-3.59 22.03,-7.34 3.6,-3.6 -7.34,-44.06 -33.12,-125 -3.75,-14.85 -18.44,-22.19 -33.13,-18.44 l -3.75,-7.34 70,-18.44 0,3.75 c -18.43,10.94 -22.03,22.03 -18.43,36.72 l 29.53,99.37 62.5,-161.87 11.09,-3.75 c 25.63,99.37 40.47,147.19 47.81,150.94 7.35,3.59 14.69,3.59 22.04,0 l 3.74,7.34 -62.65,18.44 0,-7.5 c 7.34,-3.6 11.09,-7.35 14.69,-14.69 3.75,-3.59 -3.6,-44.06 -25.63,-117.66 l -66.25,161.88 -40.47,11.09 0,-7.5 z m 187.66,-58.75 c 29.37,-11.09 40.47,0 0,-88.44 -33.13,-84.53 -29.53,-69.84 -55.31,-58.75 l -3.6,-7.5 73.6,-29.37 3.75,7.34 c -29.53,11.1 -40.63,-3.59 0,80.94 32.97,-14.69 32.97,-25.78 29.37,-51.41 l 3.6,0 29.53,69.85 -7.35,3.75 c -11.09,-18.44 -22.18,-29.53 -51.56,-14.85 l 22.03,58.91 c 22.19,11.09 84.69,-14.69 66.25,-69.84 l 3.75,-3.75 18.44,55.15 -128.91,55.32 -3.59,-7.35 z m 246.56,-106.72 c -29.53,22.03 -88.28,0 -110.47,-36.87 -25.78,-51.56 -10.94,-99.38 25.78,-121.41 36.88,-22.03 88.28,-7.34 114.07,40.47 25.78,44.22 14.68,95.63 -29.38,117.81 z m 0,-11.09 c 22.03,-14.69 33.13,-36.88 3.59,-95.63 -33.12,-55.31 -62.5,-58.9 -84.53,-44.21 -25.78,14.68 -33.12,44.21 -3.75,99.37 29.38,44.22 58.91,55.16 84.69,40.47 z m 99.38,-66.25 c 14.68,-11.09 18.28,-22.03 10.93,-33.13 -51.4,-69.84 -80.93,-102.96 -84.53,-106.71 -3.75,0 -11.09,3.75 -22.19,14.68 l -3.59,-7.34 62.5,-47.81 3.75,3.75 c -18.44,18.28 -33.12,7.34 25.78,77.18 36.72,-22.03 33.13,-33.12 14.69,-58.9 -18.44,-29.38 -18.44,-47.81 -7.34,-58.91 18.28,-10.94 33.12,-3.59 51.4,14.85 3.75,3.59 7.35,14.68 -3.59,3.59 -29.53,-22.03 -36.88,-7.34 -22.03,14.69 18.28,33.12 14.69,40.47 -3.75,70 40.47,-44.22 125.15,-3.75 51.56,66.25 l -70,51.56 -3.59,-3.75 z m 0,-92.03 c 44.06,62.65 36.71,62.65 66.25,36.87 18.28,-11.09 22.03,-22.18 18.28,-33.12 -7.35,-25.78 -33.13,-47.81 -84.53,-3.75 z m 169.21,-51.56 c 11.1,-10.94 14.69,-18.29 11.1,-22.04 0,-3.59 -33.13,-29.37 -95.78,-84.68 -14.69,-10.94 -22.03,-10.94 -36.72,0 l -7.34,-3.6 44.06,-47.81 7.34,3.59 c -10.94,14.85 -14.69,25.79 -10.94,29.54 3.6,3.59 40.47,36.71 110.32,95.62 l -84.54,-154.53 3.6,-3.75 165.62,58.91 c -73.59,-62.5 -114.06,-95.63 -121.4,-95.63 -3.75,0 -11.1,7.34 -18.44,18.44 l -7.34,-3.75 51.56,-62.5 7.34,3.59 c -18.44,25.78 -33.12,14.69 40.47,73.6 77.19,62.65 62.5,47.81 73.59,33.12 l 7.35,3.75 -33.13,40.47 -136.09,-51.56 69.84,132.5 -33.12,40.47 -7.35,-3.75 z m 217.19,-268.6 c -110.47,-18.44 -169.37,-25.78 -176.72,-25.78 -3.59,3.75 -11.09,7.34 -14.68,14.84 l -7.35,-3.75 33.13,-55.15 7.34,3.59 c -11.09,25.78 -25.78,29.53 33.13,36.88 l 36.72,-58.91 c -29.38,-44.22 -29.38,-44.22 -44.07,-18.44 l -7.34,-3.59 36.72,-58.91 3.75,3.6 c -3.75,11.09 -3.75,18.43 0,22.18 l 102.97,136.1 c 3.75,7.34 3.75,7.34 -3.6,7.34 z m -81.09,-80.94 -32.97,55.16 80.94,14.84 -47.97,-70 z m 70,-33.12 3.75,-7.34 c 18.28,3.75 32.97,3.75 44.06,0 29.53,-11.1 29.53,-25.79 25.78,-29.38 0,-3.75 -44.22,-22.19 -136.09,-58.91 -3.75,0 -3.75,-3.75 -14.84,22.04 l -7.35,-3.75 29.53,-69.85 7.35,3.75 c -3.75,18.28 -25.79,22.03 62.5,55.16 44.21,18.44 66.25,25.78 70,22.03 3.59,0 36.71,-25.78 -33.13,-66.25 l 3.6,-7.34 62.65,25.78 -55.31,128.75 -62.5,-14.69 z m 184.06,-390 c 10.94,18.28 10.94,33.12 10.94,47.81 -7.34,40.47 -47.81,73.6 -106.72,66.25 -44.06,-7.34 -80.94,-47.81 -73.59,-88.44 3.75,-40.46 29.53,-58.75 70,-58.75 7.34,0 7.34,7.35 0,7.35 -33.13,3.59 -58.91,18.28 -62.66,51.4 -3.59,29.54 22.19,55.32 70,58.91 62.5,11.09 88.28,-10.94 92.03,-40.47 0,-10.94 -3.75,-22.03 -11.09,-33.12 -11.1,-10.94 -22.03,-18.44 -40.47,-29.38 l 0,-3.75 69.84,11.1 -3.59,7.34 -14.69,3.75 z m -55.31,231.72 c 3.75,-29.38 7.34,-29.38 -7.35,-33.13 l -128.74,-36.72 c -3.76,0 -7.35,-3.75 -18.44,25.79 l -7.35,0 22.03,-80.94 7.35,3.59 c -3.59,29.53 -18.28,29.53 70,55.16 92.03,25.78 73.59,14.84 84.69,-10.94 l 7.34,0 -22.19,80.94 -7.34,-3.75 z m 77.34,-327.5 c 0,-33.13 -3.75,-29.38 -7.34,-29.38 -3.75,0 -25.78,10.94 -73.59,29.38 -92.04,40.47 -84.69,36.87 -84.69,51.56 l -7.35,0 3.6,-47.81 7.5,0 c 0,29.37 0,22.03 69.84,-7.35 l 0,-47.96 c -73.59,-3.6 -66.25,-7.35 -66.25,22.18 l -7.34,0 11.09,-139.84 66.25,3.59 -3.75,7.35 c -47.81,7.5 -55.16,11.09 -62.5,51.56 0,29.53 -11.09,33.12 77.19,33.12 0,-40.46 -7.35,-44.06 -33.13,-44.06 l 0,-3.75 80.94,3.75 0,3.6 c -25.62,3.75 -36.72,14.68 -40.47,40.46 l 62.66,3.75 c 3.59,0 10.94,7.35 10.94,-40.46 3.75,-22.19 -14.69,-36.88 -47.82,-40.47 l 3.75,-7.5 55.16,7.5 -7.34,150.78 -7.35,0 z m -80.93,-51.56 0,44.21 77.18,-33.12 c 0,-7.34 -7.34,-7.34 -14.68,-7.34 l -62.5,-3.75 z M 169.379,1268.43 c 3.59,-33.12 14.68,-29.37 -62.66,-47.81 -36.719,-7.34 -58.9104,-14.69 -66.2502,-22.03 -14.6876,-14.69 -18.2774,-36.87 -14.6876,-66.25 3.75,-18.44 14.6876,-33.12 29.379,-44.22 11.0898,-7.34 36.871,-3.59 77.3398,7.35 40.469,11.09 66.25,14.84 70,11.09 3.59,-3.59 7.34,-14.69 10.941,-25.78 l 11.09,3.75 -18.441,69.84 -7.34,-3.59 c 0,-14.69 0,-22.19 -11.09,-25.78 -3.601,-3.75 -110.3202,-36.88 -128.7498,-25.78 -25.7891,25.78 -25.7891,66.25 -3.75,80.93 3.75,3.75 25.7812,7.35 62.6488,18.44 36.722,11.09 55.16,18.44 58.91,14.69 3.59,-3.6 7.34,-10.94 10.941,-25.78 l 11.09,0 -22.031,84.68 -7.34,-3.75 z m 51.402,-191.25 c 3.75,-7.34 3.75,-14.68 0,-22.18 0,-3.6 -40.472,-22.03 -117.66,-47.82 -14.8398,-3.59 -29.5312,3.75 -33.121,18.44 l -7.3398,-3.75 25.621,-66.089 7.5,3.59 c -3.75,11.098 -7.5,18.438 -3.75,22.027 3.75,7.352 44.2188,25.782 117.8088,51.572 L 114.059,882.031 c -3.59,-7.351 0,-7.351 3.75,-7.351 92.031,33.129 143.441,47.968 150.941,44.218 7.34,-3.75 10.941,-7.339 14.691,-11.089 l 7.34,0 -22.031,58.91 -7.5,-3.598 c 3.75,-3.75 3.75,-11.09 0,-18.441 -3.59,-7.34 -40.469,-22.032 -114.059,-47.809 l 92.028,147.189 -11.098,36.72 -7.34,-3.6 z m 62.66,-169.371 c 14.68,-25.778 22.028,-29.379 -51.562,-62.5 -70,-33.129 -73.598,-36.879 -88.289,-11.09 l -7.34,-3.598 36.719,-70 7.34,3.75 c -14.688,25.777 -10.93,29.379 51.57,62.5 69.84,33.129 73.59,36.879 88.281,11.098 l 7.34,3.59 -40.469,73.589 -3.59,-7.339 z m 40.469,-77.188 c 3.59,-7.34 7.34,-14.691 3.59,-18.441 0,-3.75 -33.121,-55.149 -99.379,-147.18 0,0 -3.59,-7.352 3.758,-3.75 110.461,25.781 169.211,36.871 172.961,33.121 7.351,-3.59 11.101,-7.34 14.691,-10.941 l 3.75,3.601 -33.121,55.309 -7.351,-3.75 c 14.691,-25.781 18.281,-29.371 7.351,-33.121 -3.75,-3.75 -47.82,-11.098 -125.16,-25.789 47.809,70 73.59,103.129 77.34,103.129 3.601,3.589 3.601,3.589 7.351,3.589 3.59,0 7.34,-7.339 14.688,-18.429 l 7.34,3.75 -40.469,62.5 -7.34,-3.598 z M 426.879,676.09 c 14.68,-14.84 11.09,-25.781 -47.82,-73.59 -55.149,-44.219 -58.899,-47.969 -73.59,-29.531 l -7.348,-3.598 92.039,-110.473 51.399,36.883 -3.59,7.34 c -62.5,-44.223 -99.379,29.379 -99.379,29.379 0,3.75 18.441,18.43 58.91,51.559 18.441,-29.528 14.691,-40.469 -3.75,-55.309 l 3.75,-7.352 62.5,55.321 -3.59,3.59 c -18.441,-14.688 -29.531,-18.438 -55.32,7.339 l 47.969,40.473 c 25.632,3.75 77.191,-58.75 22.031,-88.281 l 3.601,-3.59 47.969,36.719 -92.039,106.711 -3.742,-3.59 z M 533.59,550.93 c 29.531,-29.532 14.691,-29.532 -33.121,-88.282 -47.809,-55.308 -51.41,-47.968 -69.848,-29.527 l -7.34,-3.59 62.5,-55.312 3.75,3.75 C 463.75,403.75 467.34,400 522.66,455.148 l 10.93,-10.929 c 14.691,-14.688 14.691,-25.789 0,-47.821 -29.371,-44.218 -22.031,-51.558 -14.68,-58.898 14.68,-14.691 33.121,-11.102 51.559,10.93 3.59,3.75 3.59,7.5 -3.75,3.75 -77.188,-40.461 33.121,55.16 -18.438,80.941 36.879,-25.781 55.309,-22.031 70,-7.34 18.438,18.438 14.688,44.219 -11.09,70 l -66.25,62.5 -7.351,-7.351 z m -7.34,-92.032 c 55.16,62.5 44.219,62.5 70,36.883 33.129,-33.133 14.691,-51.562 -3.75,-62.66 -14.691,-3.59 -25.781,-7.34 -66.25,25.777 z M 754.379,370.621 C 739.691,389.059 739.691,400 725,411.09 c -25.781,14.691 -55.16,10.941 -73.59,-14.692 -7.351,-11.089 -7.351,-25.777 -3.75,-36.867 3.75,-11.101 11.09,-22.031 22.18,-33.133 29.379,-36.718 36.719,-44.058 22.039,-62.5 -11.098,-14.679 -25.789,-18.429 -51.57,-3.75 -25.778,14.692 -33.118,47.821 -14.688,80.942 l -7.34,7.34 -36.871,-55.149 7.5,-7.351 22.031,3.75 c 0,-14.84 7.34,-29.532 25.778,-40.461 84.531,-29.539 121.402,44.062 51.402,95.621 -25.621,33.129 -29.371,36.719 -14.68,55.16 11.09,11.09 29.528,14.68 47.809,3.75 18.441,-14.691 25.781,-36.879 14.84,-77.352 l 3.601,-3.589 33.118,51.41 -7.34,3.75 -11.09,-7.348 z M 791.25,352.18 c 11.09,-3.75 18.441,-11.09 18.441,-22.032 0,-7.339 -22.191,-47.808 -62.66,-117.808 -3.59,-7.34 -14.691,-7.34 -33.121,3.75 l -3.601,-7.5 73.601,-36.719 3.59,7.348 c -18.281,3.75 -25.781,11.09 -22.031,22.031 l 62.5,117.809 c 3.75,11.089 7.5,11.089 33.121,-3.75 l 3.75,7.5 -70,36.722 -3.59,-7.351 z m 62.5,-102.961 7.34,-3.75 c 33.129,55.152 66.25,44.211 66.25,29.371 3.75,-3.59 -3.59,-25.621 -22.031,-66.25 -14.688,-40.469 -25.778,-66.09 -29.368,-69.84 -3.75,-3.75 -14.851,0 -25.781,7.34 l -3.75,-7.34 70,-29.379 3.59,7.348 c -29.379,10.929 -25.781,10.929 3.75,88.281 18.441,40.469 25.781,58.898 29.371,62.5 11.098,3.75 47.819,7.34 29.539,-69.852 l 10.93,-3.75 18.44,62.661 -128.749,51.41 -29.531,-58.75 z m 239.22,-14.848 C 1023.12,146.09 986.25,101.871 982.66,98.2812 c -3.75,-3.75 -11.101,-3.75 -18.441,0 l -3.75,-7.3515 66.251,-18.4297 0,7.3398 c -36.72,7.3399 -29.38,14.6914 -3.6,51.5582 l 66.26,-22.027 c 10.93,-47.9726 0,-47.9726 -18.44,-44.2226 l -3.75,-7.3398 66.25,-18.4375 3.75,7.3477 c -11.1,3.75 -18.44,7.3398 -18.44,18.4296 l -14.69,169.2226 c -3.75,7.348 -7.34,3.75 -11.09,0 z m -3.59,-114.062 -58.91,18.441 47.81,66.25 11.1,-84.691 z m 202.34,55.16 c -18.44,22.179 -77.34,55.312 -99.38,-22.039 -3.59,-10.93 0,-22.032 7.35,-33.121 7.34,-7.34 18.43,-14.688 36.87,-22.0278 44.06,-18.4414 47.82,-18.4414 47.82,-44.2226 0,-18.2774 -18.44,-29.3789 -44.22,-25.7774 -29.38,3.75 -51.41,25.7774 -51.41,66.25 l -11.09,0 -7.35,-62.5 10.94,-3.75 14.84,14.8399 c 10.94,-14.8399 25.63,-22.1914 44.07,-25.7813 58.9,-11.0898 70,51.4102 58.9,69.8399 -3.59,14.6913 -18.44,22.1913 -51.56,36.8793 -40.47,22.031 -40.47,18.441 -40.47,44.062 3.75,14.848 22.19,25.777 40.47,22.188 25.78,-3.75 36.88,-18.438 47.97,-62.661 l 7.34,0 3.6,62.661 -7.35,0 -7.34,-14.84 z m 128.75,0 c 29.53,0 25.78,0 25.78,-10.938 l 7.34,-121.4099 c 0,-18.4414 -3.59,-25.7813 -22.03,-25.7813 l 0,-7.3398 66.25,3.5898 0,7.3399 c -25.78,0 -33.12,11.1015 -33.12,29.5391 l -7.35,128.7502 73.6,-161.8792 7.34,0 44.22,169.2192 10.94,-147.1879 c 0,-3.5899 -3.6,-11.0899 -14.69,-11.0899 l -14.69,0 3.6,-7.3515 81.09,3.75 -3.75,7.3515 -14.69,0 c -11.09,0 -14.69,0 -14.69,11.0899 l -7.5,132.3479 c 0,11.09 -3.59,14.84 25.79,14.84 l 0,7.339 -58.91,-3.75 -36.72,-143.4292 -66.25,136.0902 -55.15,-3.59 3.59,-7.5 z m 294.37,44.211 c -22.03,-114.059 -33.12,-172.9612 -36.72,-176.5589 0,-3.75 -3.74,-3.75 -14.68,-7.3399 l 0,-7.5 62.5,11.0899 0,7.3477 c -25.78,-3.5977 -40.47,-7.3477 -25.78,44.2109 l 66.25,10.9413 c 36.87,-51.4022 25.78,-44.0624 3.75,-47.8124 l 0,-7.3398 69.84,14.6796 -3.59,7.3516 c -11.1,-3.6016 -18.44,0 -22.19,7.5 l -88.28,143.43 c -7.35,7.351 -7.35,3.75 -11.1,0 z m 47.97,-106.711 -62.65,-11.098 14.68,81.098 47.97,-70 z m 150.78,147.179 c -14.68,3.75 -106.71,7.352 -73.59,-69.839 11.09,-25.778 29.53,-29.528 62.66,-25.778 51.4,10.938 55.15,7.34 62.5,-18.441 11.09,-14.692 3.75,-29.371 -22.04,-40.469 -29.53,-11.0898 -62.65,0 -77.34,33.129 l -11.09,-3.75 22.19,-62.5 7.34,3.75 14.69,22.0312 c 11.09,-11.1015 29.37,-11.1015 47.81,-3.75 58.9,18.4378 40.47,84.6878 18.44,92.0278 -11.1,11.089 -22.04,11.089 -62.5,7.339 -47.97,-7.339 -66.25,7.352 -55.32,36.883 18.44,40.469 47.82,29.367 95.78,-11.101 l 7.35,3.75 -25.78,55.16 -7.35,-3.75 -3.75,-14.692 z m 88.29,55.161 C 2012.97,205 2016.72,146.09 2012.97,142.5 c -3.59,-3.75 -7.35,-11.102 -14.69,-14.852 l 3.6,-3.589 58.9,29.371 -3.59,7.351 c -18.44,-14.691 -33.13,-10.941 -33.13,33.117 l 58.91,29.532 c 55.15,-36.871 40.47,-33.121 14.69,-44.211 l 3.59,-7.348 62.66,29.379 -3.75,7.34 -7.35,-3.59 c -3.59,-3.75 -11.09,0 -18.43,3.59 l -125,114.219 c -3.76,3.589 -7.5,3.589 -7.5,-7.5 z m 73.74,-84.528 -55.31,-25.781 -7.34,80.93 62.65,-55.149 z m 10.94,117.649 c 25.78,14.851 29.53,11.101 33.13,7.5 47.81,-70 73.59,-110.461 73.59,-117.809 3.75,-3.75 -3.59,-11.09 -14.69,-18.441 l 3.75,-7.34 66.1,44.219 -3.6,7.339 c -25.78,-18.429 -25.78,-11.089 -29.37,-7.339 l -36.88,55.16 c 36.88,22.031 36.88,22.031 62.5,-3.75 33.13,-40.469 36.88,-33.129 51.57,-25.629 18.43,10.941 18.43,25.629 3.75,51.41 -3.75,3.75 -3.75,0 -3.75,-3.602 11.09,-73.589 -44.22,36.723 -88.28,3.602 25.78,25.781 44.06,47.809 22.03,70 -10.94,18.281 -36.72,18.281 -69.85,0 l -73.59,-47.82 3.59,-7.5 z m 88.28,-29.371 c -44.06,62.5 -44.06,55.16 -18.28,70 62.5,36.722 91.88,-22.188 18.28,-70 z m 70,132.5 c 11.1,7.339 14.69,11.089 18.44,11.089 3.6,3.602 40.47,-7.5 102.97,-29.527 l 33.13,-40.473 c 3.74,-3.589 3.74,-7.339 -14.69,-25.777 l 3.59,-7.34 62.66,55.149 -7.35,7.351 c -18.43,-18.281 -22.18,-40.472 -66.25,29.528 -29.53,114.062 -22.18,99.371 -7.34,114.062 l -7.34,3.75 -44.22,-40.621 3.75,-7.352 7.34,7.352 c 3.59,3.75 14.69,3.75 18.28,0 3.75,-3.602 7.35,-29.379 18.44,-77.191 -106.72,25.781 -84.69,33.121 -69.84,47.812 l -3.75,7.348 -55.16,-47.821 7.34,-7.339 z m 139.85,128.75 c 14.69,18.441 18.43,14.691 22.03,11.089 66.25,-55.148 99.37,-88.277 103.12,-92.027 3.6,-3.59 3.6,-11.09 -7.34,-22.031 l 7.34,-3.75 51.41,58.91 -7.34,7.34 c -18.29,-29.371 -18.29,-22.031 -58.91,11.09 l -3.59,36.718 c 106.71,0 95.62,-14.679 77.34,-33.117 l 7.34,-3.601 47.82,58.91 -7.35,3.59 c -3.75,-3.59 -7.34,-7.34 -14.84,-10.93 -3.6,0 -44.06,3.59 -114.06,10.93 -10.94,73.601 -7.35,80.941 3.75,95.789 l -7.35,3.59 -44.22,-51.559 7.35,-7.352 c 11.09,14.692 18.43,18.442 22.19,3.75 3.59,-3.75 10.93,-36.867 14.68,-99.367 -84.68,69.84 -70,62.5 -51.56,80.938 l -3.59,7.34 -51.57,-62.5 7.35,-3.75 z m 114.06,143.589 c 14.69,25.782 14.69,25.782 29.37,14.692 73.6,-44.219 110.47,-70 114.22,-73.59 3.6,-3.75 0,-14.691 -11.09,-25.781 l 7.34,-3.75 44.22,66.25 -7.34,3.75 c -14.85,-25.789 -3.75,-36.879 -136.25,51.562 -14.69,10.938 -14.69,7.34 3.75,33.117 l -7.35,3.602 -44.21,-66.25 7.34,-3.602 z m 70,147.192 c 77.19,-77.34 114.06,-117.809 117.66,-128.75 3.75,-7.5 3.75,-14.84 0,-22.192 l 7.34,0 29.53,58.911 -7.34,3.75 c -14.85,-33.129 -18.44,-29.528 -51.56,7.339 l 29.37,58.911 c 47.81,0 51.56,-7.5 40.47,-25.778 l 7.34,-3.75 29.53,62.5 -7.34,3.75 c -3.75,-7.351 -7.34,-11.101 -18.44,-14.691 l -172.97,10.941 c -3.59,0 -11.09,0 -3.59,-10.941 z m 114.06,-22.031 -25.78,-55.309 -58.91,58.898 84.69,-3.589 z m -66.25,91.871 c 10.94,25.789 0,36.879 132.5,-18.282 14.69,-3.75 22.03,-22.179 18.28,-33.117 l 7.35,-3.75 22.19,66.25 -7.35,3.75 c -3.75,-18.441 3.59,-33.133 -132.5,14.688 l 165.63,55.151 3.59,7.35 c -92.03,33.12 -139.84,51.56 -143.44,55.15 -3.75,3.75 -7.34,11.1 -3.75,25.78 l -7.34,3.75 -18.44,-58.9 7.34,-3.75 c 3.76,18.43 0,36.87 128.91,-18.28 l -165.62,-55.322 -14.69,-36.718 7.34,-3.75 z m 195,143.6 c 14.69,-11.1 18.44,-18.44 14.69,-33.13 l 7.34,0 14.69,62.5 -7.34,3.75 c -7.35,-33.12 -7.35,-36.87 -47.82,-7.34 l 14.69,66.25 c 66.25,18.28 47.97,0 44.22,-18.44 l 7.35,0 14.68,66.25 -7.34,3.6 c -3.6,-10.94 -7.34,-14.69 -14.69,-18.29 l -169.22,-25.78 c -3.75,0 -11.09,0 -3.75,-7.34 l 132.5,-92.03 z m -14.68,92.03 -14.69,-62.66 -70,47.82 84.69,14.84 z"
           inkscape:connector-curvature="0" /></g></g></g></svg>