<?xml version="1.0" encoding="UTF-8" standalone="no"?>
<!-- Created with Inkscape (http://www.inkscape.org/) -->

<svg
   xmlns:dc="http://purl.org/dc/elements/1.1/"
   xmlns:cc="http://creativecommons.org/ns#"
   xmlns:rdf="http://www.w3.org/1999/02/22-rdf-syntax-ns#"
   xmlns:svg="http://www.w3.org/2000/svg"
   xmlns="http://www.w3.org/2000/svg"
   xmlns:sodipodi="http://sodipodi.sourceforge.net/DTD/sodipodi-0.dtd"
   xmlns:inkscape="http://www.inkscape.org/namespaces/inkscape"
   id="svg2"
   version="1.1"
   inkscape:version="0.48.5 r10040"
   width="369.64999"
   height="487.39999"
   xml:space="preserve"
   sodipodi:docname="fibeamer-mu-fss-light.svg"><metadata
     id="metadata8"><rdf:RDF><cc:Work
         rdf:about=""><dc:format>image/svg+xml</dc:format><dc:type
           rdf:resource="http://purl.org/dc/dcmitype/StillImage" /><dc:title></dc:title></cc:Work></rdf:RDF></metadata><defs
     id="defs6"><clipPath
       id="clipPath3044"
       clipPathUnits="userSpaceOnUse"><path
         id="path3046"
         d="M 0,3118.1 0,0 l 3118.11,0 0,3118.1 -3118.11,0 z" /></clipPath><clipPath
       id="clipPath3889"
       clipPathUnits="userSpaceOnUse"><path
         id="path3891"
         d="m 0,2909.84 2900,0 0,-2900.00016 -2900,0 L 0,2909.84 z" /></clipPath></defs><sodipodi:namedview
     pagecolor="#ffffff"
     bordercolor="#666666"
     borderopacity="1"
     objecttolerance="10"
     gridtolerance="10"
     guidetolerance="10"
     inkscape:pageopacity="0"
     inkscape:pageshadow="2"
     inkscape:window-width="1280"
     inkscape:window-height="751"
     id="namedview4"
     showgrid="false"
     inkscape:zoom="0.85630196"
     inkscape:cx="153.60376"
     inkscape:cy="240.81221"
     inkscape:window-x="0"
     inkscape:window-y="29"
     inkscape:window-maximized="1"
     inkscape:current-layer="g10"
     fit-margin-top="0"
     fit-margin-left="0"
     fit-margin-right="0"
     fit-margin-bottom="0"
     units="px" /><g
     id="g10"
     inkscape:groupmode="layer"
     inkscape:label="ink_ext_XXXXXX"
     transform="matrix(1.25,0,0,-1.25,-10.030275,432.8007)"><g
       id="g3042"
       transform="matrix(0.1,0,0,0.1,0.08121676,-3.7745971)"><path
         inkscape:connector-curvature="0"
         d="m 2407.82,2491.11 -1173.19,0 -98.98,-446.32 1173.2,-0.02 98.97,446.34"
         style="fill:#00a0b2;fill-opacity:1;fill-rule:nonzero;stroke:none"
         id="path3044" /><path
         inkscape:connector-curvature="0"
         d="M 893.824,953.906 808.391,568.613 c 190.613,-25.468 372.179,98.86 414.569,289.992 l 56.63,255.205 C 1191.79,997.266 1045.18,932.512 893.824,953.906"
         style="fill:#1b458f;fill-opacity:1;fill-rule:nonzero;stroke:none"
         id="path3046-3" /><path
         inkscape:connector-curvature="0"
         d="m 1742.36,1996.97 c -172.02,-1.06 -326.71,-120.53 -365.54,-295.63 l -19.13,-85.79 C 1310.35,1454.38 1152.27,1351.69 986.445,1371.66 L 901.84,990.156 c 190.66,-25.39 372.23,98.864 414.59,290.034 l 59.98,270.29 822.88,0 98.97,446.32 -555.9,0.17"
         style="fill:#1b458f;fill-opacity:1;fill-rule:nonzero;stroke:none"
         id="path3048" /><path
         inkscape:connector-curvature="0"
         d="m 206.137,1728.07 c -2.348,-18.95 -19.684,-32.65 -38.633,-30.3 -18.949,2.35 -32.609,19.87 -30.281,38.82 2.347,18.96 19.855,32.43 38.812,30.09 18.949,-2.34 32.449,-19.66 30.102,-38.61"
         style="fill:#1b458f;fill-opacity:1;fill-rule:nonzero;stroke:none"
         id="path3050" /><path
         inkscape:connector-curvature="0"
         d="m 231.031,1608.11 -0.949,-77.18 -21.867,0.24 0.59,49.34 -34.211,0.41 -0.574,-46.94 -21.891,0.27 0.57,46.95 -60.8592,0.73 0.3321,27.86 138.8591,-1.68"
         style="fill:#1b458f;fill-opacity:1;fill-rule:nonzero;stroke:none"
         id="path3052" /><path
         inkscape:connector-curvature="0"
         d="m 150.254,1437.48 -2.82,40.47 58.546,-16.04 0.04,-0.39 -55.766,-24.04 z m -59.8321,85.56 2.0117,-28.79 32.6094,-9.86 3.926,-56.19 -30.9104,-14.14 2.1524,-30.75 134.711,64.08 -2.192,31.35 -142.3081,44.3"
         style="fill:#1b458f;fill-opacity:1;fill-rule:nonzero;stroke:none"
         id="path3054" /><path
         inkscape:connector-curvature="0"
         d="m 123.148,1257.56 c -4.027,9.64 -7.777,20.1 -9.515,30.48 -7.422,44.34 9.594,78.85 55.91,86.58 46.898,7.86 77.973,-16.38 85.75,-62.89 1.519,-9.04 1.758,-21.28 -0.492,-31.94 l -23.492,-1.94 c 4.144,11.42 3.945,21.04 2.308,30.84 -4.715,28.27 -29.258,42.33 -57.328,37.63 -27.851,-4.66 -45.977,-25.43 -41.078,-54.69 1.797,-10.77 6.297,-23.13 10.719,-29.05 l -22.782,-5.02"
         style="fill:#1b458f;fill-opacity:1;fill-rule:nonzero;stroke:none"
         id="path3056" /><path
         inkscape:connector-curvature="0"
         d="m 261.332,1265.46 7.227,-26.89 -77.446,-20.77 c -22.855,-6.16 -35.886,-17.49 -30.383,-38.01 5.508,-20.58 22.469,-23.85 45.329,-17.73 l 77.441,20.76 7.207,-26.88 -85.691,-22.98 c -35.93,-9.64 -56.184,6.75 -65.426,41.14 -9.219,34.38 0.121,58.74 36.051,68.38 l 85.691,22.98"
         style="fill:#1b458f;fill-opacity:1;fill-rule:nonzero;stroke:none"
         id="path3058" /><path
         inkscape:connector-curvature="0"
         d="m 299.848,1130.39 9.57,-26.13 -109.852,-40.2 18.516,-50.65 -20.555,-7.5 -28.089,76.79 130.41,47.69"
         style="fill:#1b458f;fill-opacity:1;fill-rule:nonzero;stroke:none"
         id="path3060" /><path
         inkscape:connector-curvature="0"
         d="m 317.043,1024.98 -16.012,36.44 20.039,8.77 43.211,-98.354 -20.039,-8.809 -16.012,36.446 -107.085,-47.059 -11.219,25.496 107.117,47.07"
         style="fill:#1b458f;fill-opacity:1;fill-rule:nonzero;stroke:none"
         id="path3062" /><path
         inkscape:connector-curvature="0"
         d="m 365.066,911.75 -0.191,0.352 -59.953,-9.512 19.266,-35.735 40.878,44.895 z m 17.239,26.688 14.922,-27.637 -96.332,-113.906 -14.629,27.121 22.347,25.625 -26.726,49.547 -33.782,-4.422 -13.703,25.39 147.903,18.282"
         style="fill:#1b458f;fill-opacity:1;fill-rule:nonzero;stroke:none"
         id="path3064" /><path
         inkscape:connector-curvature="0"
         d="m 451.438,775.613 c -1.704,9.399 -5.27,18.711 -10.661,26.848 -5.293,7.937 -15.597,15.91 -28.187,7.539 -20.063,-13.34 22.09,-58.43 -16.688,-84.168 -25.343,-16.867 -48.261,-3.203 -63.797,20.176 -8.371,12.586 -10.464,19.304 -15.242,32.605 l 22.309,11.731 c 0.984,-10.824 4.223,-21.797 10.281,-30.918 5.824,-8.762 18.125,-17.571 28.57,-10.617 22.028,14.648 -20.793,59.257 17.489,84.726 25.84,17.168 48.621,3.391 62.164,-16.98 6.609,-9.953 11.445,-20.098 14.254,-30.442 l -20.492,-10.5"
         style="fill:#1b458f;fill-opacity:1;fill-rule:nonzero;stroke:none"
         id="path3066" /><path
         inkscape:connector-curvature="0"
         d="m 508.746,608.445 -26.711,30.559 56.379,22.59 0.258,-0.317 -29.926,-52.832 z m -99.355,32.063 18.988,-21.719 31.937,11.809 37.059,-42.407 -16.129,-29.921 20.293,-23.219 68.715,132.422 -20.688,23.652 -140.175,-50.617"
         style="fill:#1b458f;fill-opacity:1;fill-rule:nonzero;stroke:none"
         id="path3068" /><path
         inkscape:connector-curvature="0"
         d="m 594.102,556.926 6.652,-6.281 c 9.969,-9.434 22.762,-18.79 34.668,-6.192 11.469,12.117 1.16,23.801 -8.969,33.359 l -6.648,6.282 -25.703,-27.168 z m 20.511,62.222 21.832,-20.652 c 21.676,-20.488 48.227,-44.258 21.715,-72.285 -11.211,-11.848 -28.469,-14.18 -42.972,-3.711 l -0.262,-0.32 c 5.074,-5.61 3.062,-14.133 0.851,-20.532 l -21.144,-54.753 -22.543,21.32 17.672,42.984 c 4.203,10.278 4.34,15.598 -4.192,23.696 l -6.492,6.16 -39.66,-41.934 -20.234,19.149 95.429,100.878"
         style="fill:#1b458f;fill-opacity:1;fill-rule:nonzero;stroke:none"
         id="path3070" /><path
         inkscape:connector-curvature="0"
         d="m 706.211,506.98 -31.035,24.915 13.703,17.05 83.758,-67.234 -13.699,-17.09 -31.012,24.91 -73.258,-91.199 -21.719,17.449 73.262,91.199"
         style="fill:#1b458f;fill-opacity:1;fill-rule:nonzero;stroke:none"
         id="path3072" /><path
         inkscape:connector-curvature="0"
         d="m 783.395,475.078 22.722,-16.101 -80.347,-113.274 -22.7,16.106 80.325,113.269"
         style="fill:#1b458f;fill-opacity:1;fill-rule:nonzero;stroke:none"
         id="path3074" /><path
         inkscape:connector-curvature="0"
         d="m 878.129,382.258 c -5.43,7.859 -12.531,14.851 -20.824,20.015 -8.094,5.063 -20.785,8.02 -28.766,-4.812 -12.727,-20.449 44.305,-44.023 19.703,-83.543 -16.09,-25.82 -42.617,-22.902 -66.445,-8.059 -12.832,7.981 -17.512,13.274 -27.383,23.379 l 15.441,19.895 c 5.387,-9.438 12.872,-18.078 22.165,-23.852 8.941,-5.601 23.792,-8.484 30.402,2.141 14,22.461 -43.469,45.359 -19.168,84.367 16.402,26.336 42.816,23.262 63.605,10.313 10.129,-6.321 18.731,-13.547 25.563,-21.797 l -14.293,-18.047"
         style="fill:#1b458f;fill-opacity:1;fill-rule:nonzero;stroke:none"
         id="path3076" /><path
         inkscape:connector-curvature="0"
         d="m 1053.96,293.352 c -7.74,8.96 -19.44,16.855 -29.59,21.433 -29.55,13.391 -54.878,0.789 -66.604,-25.105 -11.649,-25.742 -4.465,-52.356 22.562,-64.59 6.891,-3.086 12.656,-4.824 17.488,-5.735 l 14.924,33.008 -26.845,12.117 9.023,19.946 51.132,-23.098 -30.82,-68.144 c -15.06,2.414 -30.324,5.839 -43.921,11.961 -40.961,18.554 -60.172,51.875 -40.825,94.679 19.578,43.313 57.032,55.625 99.986,36.199 14.69,-6.628 25.39,-13.855 34.78,-22.027 l -11.29,-20.644"
         style="fill:#1b458f;fill-opacity:1;fill-rule:nonzero;stroke:none"
         id="path3078" /><path
         inkscape:connector-curvature="0"
         d="m 1101.71,215.41 -21.38,95.742 30.94,-10.382 12.55,-65.704 50.24,44.622 27.92,-9.356 -73.87,-63.762 -17.47,-52.078 -26.42,8.887 17.49,52.031"
         style="fill:#1b458f;fill-opacity:1;fill-rule:nonzero;stroke:none"
         id="path3080" /><path
         inkscape:connector-curvature="0"
         d="m 1214.39,266.105 43.63,-9.164 10.66,-109.793 0.4,-0.078 53.97,96.211 43.61,-9.16 -28.57,-135.8905 -26.08,5.4535 23.55,112.168 -0.37,0.078 -60.17,-104.473 -26.1,5.484 -13.03,119.829 -0.48,-0.274 -23.48,-111.769 -26.08,5.488 28.54,135.89"
         style="fill:#1b458f;fill-opacity:1;fill-rule:nonzero;stroke:none"
         id="path3082" /><path
         inkscape:connector-curvature="0"
         d="m 1391.92,231.641 34.1,-2.957 43.68,-108.11 0.39,0 9.05,103.442 26.55,-2.328 -12.1,-138.3364 -33.88,2.957 -43.89,108.0934 -0.39,0.039 -9.04,-103.4722 -26.55,2.3242 12.08,138.348"
         style="fill:#1b458f;fill-opacity:1;fill-rule:nonzero;stroke:none"
         id="path3084" /><path
         inkscape:connector-curvature="0"
         d="m 1586.48,193.816 -0.39,0 -19.24,-57.605 40.57,0.598 -20.94,57.007 z m -15.71,27.641 31.44,0.43 56.5,-138.0706 -30.84,-0.4258 -12.39,31.6604 -56.3,-0.832 -11.66,-31.9846 -28.84,-0.4258 52.09,139.6484"
         style="fill:#1b458f;fill-opacity:1;fill-rule:nonzero;stroke:none"
         id="path3086" /><path
         inkscape:connector-curvature="0"
         d="m 1747.11,207.395 c -9.12,2.851 -19.04,3.992 -28.75,2.964 -9.47,-0.984 -21.32,-6.433 -19.74,-21.48 2.57,-23.93 62.02,-7.461 66.93,-53.734 3.19,-30.282 -19.55,-44.2934 -47.43,-47.2153 -15.03,-1.6211 -21.99,-0.3242 -36,1.5742 l -0.04,25.1911 c 10.03,-4.109 21.28,-6.316 32.14,-5.175 10.5,1.105 23.96,7.941 22.66,20.375 -2.77,26.335 -62.18,9.043 -67,54.761 -3.28,30.832 19.47,44.653 43.82,47.219 11.85,1.262 23.1,0.871 33.57,-1.465 l -0.16,-23.015"
         style="fill:#1b458f;fill-opacity:1;fill-rule:nonzero;stroke:none"
         id="path3088" /><path
         inkscape:connector-curvature="0"
         d="m 1805.23,220.391 -39.1,-7.344 -4.02,21.515 105.58,19.774 4.02,-21.477 -39.09,-7.339 21.56,-114.973 -27.36,-5.125 -21.59,114.969"
         style="fill:#1b458f;fill-opacity:1;fill-rule:nonzero;stroke:none"
         id="path3090" /><path
         inkscape:connector-curvature="0"
         d="m 1879.65,258.215 27.04,6.785 33.76,-134.707 -27.01,-6.797 -33.79,134.719"
         style="fill:#1b458f;fill-opacity:1;fill-rule:nonzero;stroke:none"
         id="path3092" /><path
         inkscape:connector-curvature="0"
         d="m 2070.81,171.941 c -8.92,-5.371 -18.75,-10.625 -28.78,-13.816 -42.8,-13.738 -79.39,-1.855 -93.77,42.832 -14.49,45.293 5.02,79.563 49.9,93.926 8.73,2.812 20.86,4.824 31.72,4.113 l 5.29,-22.98 c -11.89,2.492 -21.41,0.91 -30.88,-2.129 -27.29,-8.77 -37.63,-35.059 -28.94,-62.149 8.61,-26.926 31.78,-41.843 60.01,-32.761 10.42,3.308 22,9.546 27.2,14.761 l 8.25,-21.797"
         style="fill:#1b458f;fill-opacity:1;fill-rule:nonzero;stroke:none"
         id="path3094" /><path
         inkscape:connector-curvature="0"
         d="m 2105.68,304.172 -0.36,-0.168 4.18,-60.559 37.28,16.067 -41.1,44.66 z m -25.11,19.5 28.89,12.433 104.98,-105.929 -28.3,-12.196 -23.57,24.481 -51.68,-22.273 1.41,-34.036 -26.48,-11.406 -5.25,148.926"
         style="fill:#1b458f;fill-opacity:1;fill-rule:nonzero;stroke:none"
         id="path3096" /><path
         inkscape:connector-curvature="0"
         d="m 2171.13,364.934 71.98,39.238 10.46,-19.231 -47.5,-25.898 16.39,-30.039 43.47,23.723 10.51,-19.231 -43.52,-23.684 18.68,-34.273 47.85,26.102 10.46,-19.192 -72.29,-39.441 -66.49,121.926"
         style="fill:#1b458f;fill-opacity:1;fill-rule:nonzero;stroke:none"
         id="path3098" /><path
         inkscape:connector-curvature="0"
         d="m 2420.34,420.832 -32.77,-23.969 -17.57,58.117 0.32,0.247 50.02,-34.395 z m -40.58,-96.211 23.29,17.012 -8.97,32.887 45.45,33.207 28.43,-18.672 24.87,18.203 -125.9,79.976 -25.4,-18.55 38.23,-144.063"
         style="fill:#1b458f;fill-opacity:1;fill-rule:nonzero;stroke:none"
         id="path3100" /><path
         inkscape:connector-curvature="0"
         d="m 2587.15,493.594 c -6,-8.528 -12.87,-17.246 -20.76,-24.278 -33.61,-29.843 -71.9,-33.796 -103.05,1.297 -31.59,35.578 -27.6,74.785 7.66,106.098 6.86,6.07 17.1,12.793 27.32,16.582 l 14.13,-18.879 c -11.84,-2.566 -19.94,-7.852 -27.36,-14.453 -21.4,-19.023 -20.25,-47.293 -1.38,-68.574 18.75,-21.082 46,-25.391 68.15,-5.684 8.21,7.266 16.26,17.609 18.94,24.512 l 16.35,-16.621"
         style="fill:#1b458f;fill-opacity:1;fill-rule:nonzero;stroke:none"
         id="path3102" /><path
         inkscape:connector-curvature="0"
         d="m 2613.41,685.637 c -8.65,-4.067 -16.7,-9.953 -23.14,-17.258 -6.31,-7.188 -11.33,-19.191 0.04,-29.168 18.04,-15.918 50.66,36.512 85.6,5.762 22.85,-20.098 15.63,-45.801 -2.89,-66.848 -9.98,-11.367 -15.95,-15.117 -27.55,-23.211 l -17.1,18.516 c 10.18,3.75 19.94,9.715 27.16,17.965 6.95,7.894 12.24,22.074 2.85,30.324 -19.86,17.492 -51.85,-35.457 -86.35,-5.137 -23.34,20.527 -15.96,46.074 0.2,64.473 7.9,8.965 16.46,16.269 25.7,21.633 l 15.48,-17.051"
         style="fill:#1b458f;fill-opacity:1;fill-rule:nonzero;stroke:none"
         id="path3104" /><path
         inkscape:connector-curvature="0"
         d="m 2647.56,734.785 5.8,7.82 c 8.6,11.489 20.33,17.844 33.24,8.215 12.87,-9.636 9.04,-22.429 0.71,-33.562 l -5.83,-7.817 -33.92,25.344 z m 77.02,-92.305 16.67,22.305 -42.25,31.555 7.02,9.39 c 17.9,23.926 22.67,49.907 -3.31,69.329 -26.65,19.863 -50.18,2.961 -68.3,-21.282 l -21.08,-28.191 111.25,-83.106"
         style="fill:#1b458f;fill-opacity:1;fill-rule:nonzero;stroke:none"
         id="path3106" /><path
         inkscape:connector-curvature="0"
         d="m 2748.75,795.984 c -20.93,12.715 -36.45,35.411 -22.11,59.067 14.37,23.613 41.69,20.293 62.58,7.578 21.43,-13.027 37.54,-35.141 22.77,-59.453 -14.76,-24.328 -41.85,-20.215 -63.24,-7.192 z m -15.09,-24.832 c 36.41,-22.109 73.92,-17.414 97.05,20.645 22.83,37.59 9.48,73.879 -26.41,95.664 -35.85,21.797 -73.71,16.152 -96.34,-21.082 -22.93,-37.746 -10.69,-73.117 25.7,-95.227"
         style="fill:#1b458f;fill-opacity:1;fill-rule:nonzero;stroke:none"
         id="path3108" /><path
         inkscape:connector-curvature="0"
         d="m 2784.91,955.762 3.95,8.254 c 6,12.554 13.97,25.945 29.02,18.757 15.64,-7.461 10.66,-22.507 4.74,-34.902 l -3.95,-8.25 -33.76,16.141 z m 93.54,-75.567 12.04,25.117 -52.08,24.876 3.86,8.082 c 5.07,10.585 10.19,12.089 21.25,11.222 l 46.36,-3.594 13.37,27.989 -58.62,3.32 c -6.76,0.117 -15.48,-0.559 -19.27,-7.109 l -0.36,0.156 c 5.49,17.019 -2.01,32.736 -16.74,39.756 -34.82,16.62 -49.26,-15.948 -62.14,-42.83 l -12.94,-27.129 125.27,-59.856"
         style="fill:#1b458f;fill-opacity:1;fill-rule:nonzero;stroke:none"
         id="path3110" /><path
         inkscape:connector-curvature="0"
         d="m 2831.78,1061.65 -14.17,-37.19 -20.46,7.79 38.26,100.39 20.45,-7.78 -14.17,-37.18 109.32,-41.66 -9.9,-26.02 -109.33,41.65"
         style="fill:#1b458f;fill-opacity:1;fill-rule:nonzero;stroke:none"
         id="path3112" /><path
         inkscape:connector-curvature="0"
         d="m 2838.37,1144.88 8.33,26.62 132.5,-41.5 -8.33,-26.57 -132.5,41.45"
         style="fill:#1b458f;fill-opacity:1;fill-rule:nonzero;stroke:none"
         id="path3114" /><path
         inkscape:connector-curvature="0"
         d="m 2851.72,1183.22 6.94,29.01 114.3,9.29 0.08,0.36 -97.83,59.6 6.43,26.89 124.17,-77.77 -7.94,-33.24 -146.15,-14.14"
         style="fill:#1b458f;fill-opacity:1;fill-rule:nonzero;stroke:none"
         id="path3116" /><path
         inkscape:connector-curvature="0"
         d="m 2916.66,1358.32 -0.04,-0.4 53.78,-28.15 5.88,40.15 -59.62,-11.6 z m -29.77,-11.13 4.55,31.1 145.29,33.88 -4.46,-30.52 -33.21,-7.22 -8.13,-55.71 29.72,-16.58 -4.17,-28.55 -129.59,73.6"
         style="fill:#1b458f;fill-opacity:1;fill-rule:nonzero;stroke:none"
         id="path3118" /><path
         inkscape:connector-curvature="0"
         d="m 2899.29,1446.09 4.38,81.84 21.84,-1.18 -2.88,-54.05 34.15,-1.82 2.65,49.47 21.86,-1.19 -2.65,-49.46 38.94,-2.06 2.92,54.41 21.84,-1.15 -4.39,-82.28 -138.66,7.47"
         style="fill:#1b458f;fill-opacity:1;fill-rule:nonzero;stroke:none"
         id="path3120" /><path
         inkscape:connector-curvature="0"
         d="m 2935.57,1642.12 c -1.18,19.05 13.39,35.69 32.46,36.84 19.03,1.14 35.69,-13.59 36.83,-32.66 1.15,-19.07 -13.58,-35.49 -32.65,-36.65 -19.07,-1.15 -35.49,13.4 -36.64,32.47"
         style="fill:#1b458f;fill-opacity:1;fill-rule:nonzero;stroke:none"
         id="path3122" /><path
         inkscape:connector-curvature="0"
         d="m 125.199,1891.95 7.324,26.89 77.364,-21.04 c 22.843,-6.22 39.801,-2.99 45.386,17.55 5.586,20.55 -7.402,31.92 -30.246,38.12 l -77.359,21.04 7.305,26.87 85.613,-23.27 c 35.906,-9.76 45.144,-34.13 35.809,-68.51 -9.36,-34.35 -29.672,-50.69 -65.559,-40.92 l -85.637,23.27"
         style="fill:#00a0b2;fill-opacity:1;fill-rule:nonzero;stroke:none"
         id="path3124" /><path
         inkscape:connector-curvature="0"
         d="m 167.387,2039.16 12.379,31.9 115.957,11.79 0.136,0.37 -96.828,37.55 9.657,24.87 129.457,-50.22 -12.301,-31.72 -116.035,-11.96 -0.137,-0.38 96.808,-37.54 -9.632,-24.87 -129.461,50.21"
         style="fill:#00a0b2;fill-opacity:1;fill-rule:nonzero;stroke:none"
         id="path3126" /><path
         inkscape:connector-curvature="0"
         d="m 223.906,2177.09 11.922,25.17 125.512,-59.4 -11.926,-25.19 -125.508,59.42"
         style="fill:#00a0b2;fill-opacity:1;fill-rule:nonzero;stroke:none"
         id="path3128" /><path
         inkscape:connector-curvature="0"
         d="m 244.316,2222.47 14.571,26.07 112.539,-22.15 0.199,0.35 -77.977,83.95 13.504,24.12 98.368,-108.59 -16.704,-29.84 -144.5,26.09"
         style="fill:#00a0b2;fill-opacity:1;fill-rule:nonzero;stroke:none"
         id="path3130" /><path
         inkscape:connector-curvature="0"
         d="m 321.918,2356.59 46.133,67.77 18.082,-12.32 -30.457,-44.73 28.285,-19.26 27.875,40.95 18.102,-12.31 -27.872,-40.95 32.215,-21.95 30.676,45.07 18.105,-12.32 -46.351,-68.08 -114.793,78.13"
         style="fill:#00a0b2;fill-opacity:1;fill-rule:nonzero;stroke:none"
         id="path3132" /><path
         inkscape:connector-curvature="0"
         d="m 422.734,2459.58 5.762,7.11 c 8.766,10.81 19.625,21.98 32.613,11.47 13.442,-10.9 5.09,-24.36 -3.554,-35.02 l -5.762,-7.12 -29.059,23.56 z m 73.336,-95.31 17.547,21.66 -44.828,36.32 5.645,6.95 c 7.382,9.12 12.734,9.39 23.277,5.98 l 44.219,-14.33 19.539,24.1 -56.219,16.9 c -6.555,1.71 -15.184,3.08 -20.41,-2.42 l -0.297,0.25 c 9.297,15.26 5.66,32.27 -7.008,42.54 -29.969,24.32 -51.621,-3.97 -70.418,-27.16 l -18.91,-23.34 107.863,-87.45"
         style="fill:#00a0b2;fill-opacity:1;fill-rule:nonzero;stroke:none"
         id="path3134" /><path
         inkscape:connector-curvature="0"
         d="m 542.539,2589 c -8.785,-3.71 -17.094,-9.24 -23.848,-16.27 -6.613,-6.89 -12.136,-18.69 -1.218,-29.16 17.367,-16.66 52.191,34.31 85.789,2.09 21.972,-21.08 13.64,-46.42 -5.785,-66.68 -10.461,-10.91 -16.582,-14.41 -28.528,-21.99 l -16.304,19.23 c 10.343,3.32 20.355,8.87 27.937,16.76 7.305,7.62 13.203,21.52 4.145,30.2 -19.09,18.32 -53.321,-33.2 -86.504,-1.4 -22.387,21.5 -13.922,46.7 3.015,64.37 8.254,8.62 17.117,15.56 26.594,20.54 L 542.539,2589"
         style="fill:#00a0b2;fill-opacity:1;fill-rule:nonzero;stroke:none"
         id="path3136" /><path
         inkscape:connector-curvature="0"
         d="m 552.289,2633.36 20.438,18.91 94.359,-101.88 -20.453,-18.91 -94.344,101.88"
         style="fill:#00a0b2;fill-opacity:1;fill-rule:nonzero;stroke:none"
         id="path3138" /><path
         inkscape:connector-curvature="0"
         d="m 632.062,2675.05 -30.734,-25.25 -13.894,16.9 83.004,68.2 13.898,-16.91 -30.758,-25.26 74.27,-90.39 -21.52,-17.68 -74.266,90.39"
         style="fill:#00a0b2;fill-opacity:1;fill-rule:nonzero;stroke:none"
         id="path3140" /><path
         inkscape:connector-curvature="0"
         d="m 788.152,2713.61 -33.324,-23.18 -16.203,58.51 0.316,0.21 49.211,-35.54 z m -42.816,-95.24 23.668,16.49 -8.211,33.06 46.234,32.14 27.969,-19.31 25.309,17.61 -124.032,82.87 -25.82,-17.96 34.883,-144.9"
         style="fill:#00a0b2;fill-opacity:1;fill-rule:nonzero;stroke:none"
         id="path3142" /><path
         inkscape:connector-curvature="0"
         d="m 881.605,2839.9 c -9.496,-1.02 -19.05,-3.92 -27.519,-8.74 -8.309,-4.7 -16.977,-14.43 -9.516,-27.57 11.883,-20.95 59.817,17.91 82.793,-22.57 15.024,-26.48 -0.215,-48.38 -24.613,-62.23 -13.148,-7.46 -20.02,-9.07 -33.641,-12.91 l -10.105,23.08 c 10.855,0.22 22.027,2.68 31.562,8.07 9.161,5.22 18.793,16.85 12.618,27.76 -13.071,23 -60.606,-16.57 -83.286,23.41 -15.324,27.01 0.02,48.74 21.297,60.82 10.383,5.88 20.867,10.02 31.367,12.07 l 9.043,-21.19"
         style="fill:#00a0b2;fill-opacity:1;fill-rule:nonzero;stroke:none"
         id="path3144" /><path
         inkscape:connector-curvature="0"
         d="m 962.5,2909.79 41.6,16.04 68.67,-86.32 0.38,0.16 -7.06,110.06 41.57,16.04 49.98,-129.56 -24.87,-9.59 -41.24,106.92 -0.38,-0.14 6.34,-120.38 -24.87,-9.6 -76.128,93.46 -0.23,-0.52 41.098,-106.54 -24.88,-9.59 -49.98,129.56"
         style="fill:#00a0b2;fill-opacity:1;fill-rule:nonzero;stroke:none"
         id="path3146" /><path
         inkscape:connector-curvature="0"
         d="m 1243.47,2913.59 -39.35,-9.95 5.45,60.49 0.38,0.1 33.52,-50.64 z m -73.63,-74 27.97,7.06 3.97,33.84 54.58,13.8 19.37,-27.95 29.88,7.55 -86.86,121.3 -30.47,-7.71 -18.44,-147.89"
         style="fill:#00a0b2;fill-opacity:1;fill-rule:nonzero;stroke:none"
         id="path3148" /><path
         inkscape:connector-curvature="0"
         d="m 1375.5,2998.82 c -9.24,2.36 -19.21,3.02 -28.84,1.51 -9.44,-1.47 -20.97,-7.5 -18.64,-22.44 3.73,-23.79 62.3,-4.34 69.51,-50.34 4.7,-30.06 -17.3,-45.19 -45.01,-49.53 -14.95,-2.34 -21.93,-1.42 -36,-0.2 l -1.33,25.16 c 10.22,-3.63 21.56,-5.27 32.37,-3.57 10.43,1.61 23.53,9.11 21.6,21.49 -4.09,26.13 -62.54,5.92 -69.64,51.33 -4.8,30.65 17.23,45.57 41.39,49.35 11.8,1.85 23.06,2.01 33.6,0.24 l 0.99,-23"
         style="fill:#00a0b2;fill-opacity:1;fill-rule:nonzero;stroke:none"
         id="path3150" /><path
         inkscape:connector-curvature="0"
         d="m 1496.23,2949.56 -40.49,-2.59 16.39,58.48 0.39,0.02 23.71,-55.91 z m -85.91,-59.29 28.78,1.83 10.09,32.53 56.18,3.59 13.94,-30.99 30.77,1.95 -63.24,135.11 -31.37,-2 -45.15,-142.02"
         style="fill:#00a0b2;fill-opacity:1;fill-rule:nonzero;stroke:none"
         id="path3152" /><path
         inkscape:connector-curvature="0"
         d="m 1593.85,3014.36 9.15,-0.29 c 13.89,-0.43 29.38,-2.3 28.86,-19 -0.55,-17.32 -16.3,-18.82 -30.04,-18.38 l -9.13,0.27 1.16,37.4 z m -31.49,-116.07 27.84,-0.86 1.79,57.66 8.96,-0.28 c 11.73,-0.36 15.19,-4.44 18.82,-14.9 l 15.37,-43.89 31.03,-0.96 -20.61,54.98 c -2.57,6.25 -6.71,13.96 -14.25,14.78 l 0,0.39 c 17.76,1.84 29.13,15.04 29.65,31.33 1.18,38.58 -34.43,38.69 -64.24,39.62 l -30.04,0.93 -4.32,-138.8"
         style="fill:#00a0b2;fill-opacity:1;fill-rule:nonzero;stroke:none"
         id="path3154" /><path
         inkscape:connector-curvature="0"
         d="m 1719.86,2944.15 -40.47,89.37 32.42,-3.85 25.7,-61.77 40.08,53.95 29.25,-3.48 -59.3,-77.49 -6.48,-54.52 -27.67,3.27 6.47,54.52"
         style="fill:#00a0b2;fill-opacity:1;fill-rule:nonzero;stroke:none"
         id="path3156" /><path
         inkscape:connector-curvature="0"
         d="m 1833.73,3013.18 27.2,-5.91 -12.68,-58.34 61.67,47.65 33.45,-7.28 -69.73,-51.8 42.52,-84.39 -35.56,7.76 -35.11,73.59 -0.39,0.1 -13.71,-63 -27.19,5.93 29.53,135.69"
         style="fill:#00a0b2;fill-opacity:1;fill-rule:nonzero;stroke:none"
         id="path3158" /><path
         inkscape:connector-curvature="0"
         d="m 1968.52,2981.19 26.73,-7.8 -38.93,-133.31 -26.73,7.82 38.93,133.29"
         style="fill:#00a0b2;fill-opacity:1;fill-rule:nonzero;stroke:none"
         id="path3160" /><path
         inkscape:connector-curvature="0"
         d="m 2073.07,2856.54 -38.03,14.22 38.9,46.62 0.38,-0.13 -1.25,-60.71 z m -102.66,-18.96 27.01,-10.11 22.54,25.58 52.71,-19.72 0.04,-33.99 28.9,-10.8 -2.45,149.16 -29.45,10.99 -99.3,-111.11"
         style="fill:#00a0b2;fill-opacity:1;fill-rule:nonzero;stroke:none"
         id="path3162" /><path
         inkscape:connector-curvature="0"
         d="m 2174.22,2907.43 30.64,-15.25 1.06,-116.56 0.35,-0.17 46.28,92.96 23.89,-11.89 -61.92,-124.3 -30.48,15.18 -1.22,116.62 -0.35,0.18 -46.32,-92.96 -23.85,11.9 61.92,124.29"
         style="fill:#00a0b2;fill-opacity:1;fill-rule:nonzero;stroke:none"
         id="path3164" /><path
         inkscape:connector-curvature="0"
         d="m 2329.65,2724.26 -34.27,21.76 47.69,37.59 0.32,-0.2 -13.74,-59.15 z m -104.38,2.67 24.36,-15.45 27.31,20.35 47.5,-30.21 -6.99,-33.26 26.02,-16.54 28.46,146.45 -26.52,16.86 -120.14,-88.2"
         style="fill:#00a0b2;fill-opacity:1;fill-rule:nonzero;stroke:none"
         id="path3166" /><path
         inkscape:connector-curvature="0"
         d="m 2457.53,2640.42 10.03,-8.47 c 10.66,-8.98 20.1,-20.58 8.45,-34.42 -10.39,-12.32 -24.48,-4.62 -34.35,3.71 l -10.03,8.47 25.9,30.71 z m 35.42,41.97 8.21,-6.93 c 9.75,-8.21 19.74,-18.21 9.36,-30.54 -9.24,-10.96 -22,-3.57 -30.96,4.02 l -8.68,7.3 22.07,26.15 z m -96.73,-71.44 37.11,-31.31 c 13.39,-11.29 40.74,-27.6 63.33,-0.85 11.02,13.1 9.36,31.15 -3.95,44.72 l 0.28,0.29 c 14.53,-8.37 30.48,-6.73 41.14,5.89 19.62,23.27 2.44,44.53 -11.26,56.08 l -37.11,31.31 -89.54,-106.13"
         style="fill:#00a0b2;fill-opacity:1;fill-rule:nonzero;stroke:none"
         id="path3168" /><path
         inkscape:connector-curvature="0"
         d="m 2586.16,2598.63 6.44,-6.47 c 9.83,-9.89 19.78,-21.87 7.94,-33.66 -12.29,-12.2 -24.76,-2.46 -34.48,7.26 l -6.43,6.5 26.53,26.37 z m -102.61,-62.73 19.66,-19.75 40.9,40.68 6.32,-6.34 c 8.29,-8.33 7.98,-13.66 3.44,-23.79 l -18.96,-42.42 21.88,-22.01 22.82,54.09 c 2.41,6.33 4.66,14.76 -0.23,20.55 l 0.27,0.27 c 14.17,-10.88 31.5,-9.08 43.08,2.41 27.36,27.22 1.53,51.78 -19.51,72.92 l -21.2,21.3 -98.47,-97.91"
         style="fill:#00a0b2;fill-opacity:1;fill-rule:nonzero;stroke:none"
         id="path3170" /><path
         inkscape:connector-curvature="0"
         d="m 2674.09,2539.38 17.65,-21.55 -61.95,-50.87 c -18.27,-15.02 -25.5,-30.71 -12.01,-47.16 13.55,-16.46 30.33,-12.46 48.61,2.56 l 61.99,50.88 17.64,-21.52 -68.58,-56.3 c -28.74,-23.6 -53.96,-17.03 -76.55,10.49 -22.58,27.51 -24.12,53.53 4.62,77.14 l 68.58,56.33"
         style="fill:#00a0b2;fill-opacity:1;fill-rule:nonzero;stroke:none"
         id="path3172" /><path
         inkscape:connector-curvature="0"
         d="m 2769.59,2419.86 18.88,-28.54 -57.45,-101.41 0.2,-0.34 86.62,57.27 14.73,-22.25 -115.84,-76.57 -18.75,28.39 57.32,101.56 -0.23,0.34 -86.63,-57.27 -14.68,22.25 115.83,76.57"
         style="fill:#00a0b2;fill-opacity:1;fill-rule:nonzero;stroke:none"
         id="path3174" /><path
         inkscape:connector-curvature="0"
         d="m 2852.07,2290.38 38.73,-72.23 -19.3,-10.35 -25.59,47.68 -30.12,-16.16 23.41,-43.66 -19.31,-10.34 -23.41,43.64 -34.35,-18.43 25.78,-48.03 -19.3,-10.34 -38.93,72.59 122.39,65.63"
         style="fill:#00a0b2;fill-opacity:1;fill-rule:nonzero;stroke:none"
         id="path3176" /><path
         inkscape:connector-curvature="0"
         d="m 2906.88,2186.04 13.33,-31.52 -75.05,-89.2 0.16,-0.36 95.66,40.45 10.39,-24.56 -127.89,-54.08 -13.25,31.33 74.93,89.38 -0.16,0.35 -95.62,-40.45 -10.38,24.56 127.88,54.1"
         style="fill:#00a0b2;fill-opacity:1;fill-rule:nonzero;stroke:none"
         id="path3178" /><path
         inkscape:connector-curvature="0"
         d="m 2962.62,1964.77 c 0.94,9.49 0.08,19.43 -2.89,28.74 -2.87,9.09 -10.62,19.58 -25.02,15 -22.94,-7.29 5.17,-62.23 -39.17,-76.34 -29.02,-9.22 -47.3,10.22 -55.82,36.95 -4.58,14.42 -4.75,21.48 -5.66,35.58 l 24.68,5.12 c -2.05,-10.65 -1.97,-22.12 1.35,-32.55 3.19,-10.04 12.59,-21.87 24.55,-18.08 25.24,8.02 -3.67,62.71 40.16,76.64 29.56,9.42 47.65,-10.09 55.08,-33.43 3.63,-11.36 5.48,-22.46 5.33,-33.16 l -22.59,-4.47"
         style="fill:#00a0b2;fill-opacity:1;fill-rule:nonzero;stroke:none"
         id="path3180" /><path
         inkscape:connector-curvature="0"
         d="m 2996.93,1934.89 6.83,-26.98 -134.63,-34.05 -6.83,27 134.63,34.03"
         style="fill:#00a0b2;fill-opacity:1;fill-rule:nonzero;stroke:none"
         id="path3182" /><path
         inkscape:connector-curvature="0"
         d="m 3000.96,1795.68 c 2.09,9.32 2.4,19.29 0.58,28.88 -1.77,9.38 -8.17,20.71 -23.02,17.88 -23.64,-4.47 -2.32,-62.39 -48.08,-71.08 -29.88,-5.68 -45.72,15.81 -50.93,43.37 -2.84,14.86 -2.13,21.87 -1.39,36 l 25.12,2.14 c -3.32,-10.34 -4.58,-21.74 -2.53,-32.5 1.98,-10.34 9.88,-23.21 22.19,-20.88 25.98,4.94 3.87,62.7 49.03,71.28 30.48,5.78 46.12,-15.75 50.7,-39.79 2.21,-11.73 2.72,-22.96 1.31,-33.56 l -22.98,-1.74"
         style="fill:#00a0b2;fill-opacity:1;fill-rule:nonzero;stroke:none"
         id="path3184" /></g><path
       id="path3003"
       style="fill:#1b458f;fill-opacity:0.47058824;fill-rule:nonzero;stroke:none"
       d="m 293.1901,68.779563 c -0.71004,-1.139801 -1.43834,-2.278686 -2.17465,-3.398706 0.27669,-0.665541 0.42874,-1.403342 0.42874,-2.175099 0,-3.054902 -2.38957,-5.458098 -5.37255,-5.458098 -0.1212,0 -0.2504,0.01829 -0.37045,0.02722 -0.80035,-1.076801 -1.60411,-2.170983 -2.43075,-3.229948 0.88494,-0.290295 1.82706,-0.454594 2.8012,-0.454594 4.98383,0 9.0347,4.108837 9.0347,9.115428 0,2.090148 -0.73289,4.023658 -1.91624,5.573805 z"
       inkscape:connector-curvature="0" /><path
       id="path3005"
       style="fill:#1b458f;fill-opacity:0.47058824;fill-rule:nonzero;stroke:none"
       d="m 17.929786,68.493726 c -1.066525,-1.501097 -1.687326,-3.323245 -1.687326,-5.287968 0,-5.006591 4.077178,-9.115428 9.061897,-9.115428 0.853038,0 1.673926,0.142918 2.455916,0.370214 -0.839158,1.075888 -1.670312,2.188362 -2.483162,3.287116 -2.970454,0.01383 -5.377285,2.411314 -5.377285,5.458098 0,0.62884 0.09826,1.240757 0.285836,1.799853 -0.763721,1.155921 -1.52297,2.3131 -2.255876,3.488115 z"
       inkscape:connector-curvature="0" /><path
       id="path3007"
       style="fill:#1b458f;fill-opacity:0.47058824;fill-rule:nonzero;stroke:none"
       d="m 16.228615,39.575115 0,-18.079478 18.258182,0 0,18.079478 -18.258182,0 z m 3.644856,-3.644753 10.932786,0 0,-10.754184 -10.932786,0 0,10.754184 z"
       inkscape:connector-curvature="0" /><path
       id="path3009"
       style="fill:#1b458f;fill-opacity:0.47058824;fill-rule:nonzero;stroke:none"
       d="m 49.001555,32.049622 c -0.09387,-0.523424 -0.173788,-1.049591 -0.173788,-1.59931 0,-5.011051 4.077165,-9.119544 9.061918,-9.119544 1.31256,0 2.559148,0.28938 3.688658,0.799426 -1.312673,0.932969 -2.608311,1.888805 -3.889657,2.858361 -2.371525,0.08941 -4.341622,1.687348 -4.971261,3.916869 -1.255507,1.031754 -2.497066,2.081231 -3.71587,3.144198 z"
       inkscape:connector-curvature="0" /><path
       id="path3011"
       style="fill:#1b458f;fill-opacity:0.47058824;fill-rule:nonzero;stroke:none"
       d="m 262.31979,32.392625 c -1.17879,-1.031182 -2.36672,-2.05802 -3.57295,-3.058447 -0.49963,-2.505981 -2.65256,-4.345623 -5.26054,-4.345623 -0.0765,0 -0.15206,0 -0.22867,0 -1.22794,-0.929425 -2.46047,-1.849017 -3.71586,-2.743112 1.19708,-0.588594 2.53252,-0.914675 3.94453,-0.914675 4.98385,0 9.03471,4.108493 9.03471,9.119544 0,0.665426 -0.0675,1.313473 -0.20123,1.942313 z"
       inkscape:connector-curvature="0" /><path
       id="path3013"
       style="fill:#1b458f;fill-opacity:0.47058824;fill-rule:nonzero;stroke:none"
       d="m 276.98203,39.575115 0,-18.079478 18.25807,0 0,18.079478 -18.25807,0 z m 3.64498,-3.644753 10.93266,0 0,-10.754184 -10.93266,0 0,10.754184 z"
       inkscape:connector-curvature="0" /><path
       id="path3015"
       style="fill:#1b458f;fill-opacity:0.47058824;fill-rule:nonzero;stroke:none"
       d="m 48.778602,7.1685026 0,-18.0800486 18.25784,0 0,18.0800486 -18.25784,0 z m 3.680197,-3.6453246 10.932775,0 0,-10.75407 -10.932775,0 0,10.75407 z"
       inkscape:connector-curvature="0" /><path
       id="path3017"
       style="fill:#1b458f;fill-opacity:0.47058824;fill-rule:nonzero;stroke:none"
       d="m 88.044486,6.8102933 c -3.809629,-1.0848052 -6.631403,-4.613167 -6.631403,-8.7751691 0,-5.0065912 4.077167,-9.1154282 9.061921,-9.1154282 4.98384,0 9.030136,4.108837 9.030136,9.1154282 0,1.6248063 -0.4515,3.1571168 -1.196846,4.4876268 -3.4792,1.3139312 -6.90478,2.7520299 -10.263808,4.2875423 z M 90.475004,3.523178 c 2.97853,0 5.37281,-2.4340664 5.37281,-5.4880538 0,-3.0549026 -2.39429,-5.4580982 -5.37281,-5.4580982 -2.983906,0 -5.404591,2.4031956 -5.404591,5.4580982 0,3.0539874 2.420685,5.4880538 5.404591,5.4880538 z"
       inkscape:connector-curvature="0" /><path
       id="path3019"
       style="fill:#1b458f;fill-opacity:0.47058824;fill-rule:nonzero;stroke:none"
       d="m 113.91357,-2.4517119 0,-8.4598341 18.26618,0 0,4.7439647 c -1.22795,0.1782477 -2.44334,0.3703287 -3.66224,0.5716718 l 0,-1.6256065 -10.91529,0 0,3.8274591 c -1.23275,0.2938399 -2.46984,0.6199221 -3.68865,0.942345 z"
       inkscape:connector-curvature="0" /><path
       id="path3021"
       style="fill:#1b458f;fill-opacity:0.47058824;fill-rule:nonzero;stroke:none"
       d="m 162.81795,-7.650271 c -2.42961,-0.112161 -4.88551,-0.201457 -7.34256,-0.201457 -2.27755,0 -4.52421,0.07546 -6.77546,0.17013 1.66128,-2.072769 4.22123,-3.398706 7.0613,-3.398706 2.84921,0 5.40459,1.335312 7.05672,3.430033 z"
       inkscape:connector-curvature="0" /><path
       id="path3023"
       style="fill:#1b458f;fill-opacity:0.47058824;fill-rule:nonzero;stroke:none"
       d="m 197.35039,-2.3623028 c -1.21881,-0.3260811 -2.42961,-0.6485051 -3.66215,-0.9469174 l 0,-3.9122958 -10.9155,0 0,1.6836885 c -1.22337,-0.205459 -2.4559,-0.3929677 -3.68843,-0.5716718 l 0,-4.8020467 18.26608,0 0,8.5492432 z"
       inkscape:connector-curvature="0" /><path
       id="path3025"
       style="fill:#1b458f;fill-opacity:0.47058824;fill-rule:nonzero;stroke:none"
       d="M 223.01733,6.8688317 C 219.72106,5.3552724 216.38936,3.9305506 212.98218,2.63983 c -0.79462,-1.3630956 -1.28626,-2.9307351 -1.28626,-4.6047058 0,-5.0065912 4.07718,-9.1154282 9.06216,-9.1154282 4.98384,0 9.03471,4.108837 9.03471,9.1154282 0,4.2250009 -2.88008,7.8113295 -6.77546,8.8337075 z M 220.75808,3.523178 c 2.98298,0 5.37257,-2.4340664 5.37257,-5.4880538 0,-3.0549026 -2.38959,-5.4580982 -5.37257,-5.4580982 -2.97956,0 -5.40001,2.4031956 -5.40001,5.4580982 0,3.0539874 2.42045,5.4880538 5.40001,5.4880538 z"
       inkscape:connector-curvature="0" /><path
       id="path3027"
       style="fill:#1b458f;fill-opacity:0.47058824;fill-rule:nonzero;stroke:none"
       d="m 244.21836,7.1685026 0,-18.0800486 18.25806,0 0,18.0800486 -18.25806,0 z m 3.68042,-3.6453246 10.93381,0 0,-10.75407 -10.93381,0 0,10.75407 z"
       inkscape:connector-curvature="0" /><path
       id="path3029"
       style="fill:#1b458f;fill-opacity:0.47058824;fill-rule:nonzero;stroke:none"
       d="m 286.06247,7.1774212 c -4.98383,0 -9.06215,-4.1401653 -9.06215,-9.1467563 0,-5.0065909 4.07832,-9.1203439 9.06215,-9.1203439 4.97928,0 9.03015,4.113753 9.03015,9.1203439 0,5.006591 -4.05087,9.1467563 -9.03015,9.1467563 z m 0,-3.6587025 c 2.97843,0 5.37258,-2.4340664 5.37258,-5.4880538 0,-3.0549015 -2.39416,-5.4580969 -5.37258,-5.4580969 -2.98298,0 -5.40457,2.4031954 -5.40457,5.4580969 0,3.0539874 2.42159,5.4880538 5.40457,5.4880538 z"
       inkscape:connector-curvature="0" /><path
       id="path3031"
       style="fill:#1b458f;fill-opacity:0.47058824;fill-rule:nonzero;stroke:none"
       d="m 25.299887,7.1774212 c -4.985154,0 -9.06234,-4.1401653 -9.06234,-9.1467563 0,-5.0065909 4.077186,-9.1203439 9.06234,-9.1203439 4.979402,0 9.030158,4.113753 9.030158,9.1203439 0,5.006591 -4.050756,9.1467563 -9.030158,9.1467563 z m 0,-3.6587025 c 2.97855,0 5.37237,-2.4340664 5.37237,-5.4880538 0,-3.0549015 -2.39382,-5.4580969 -5.37237,-5.4580969 -2.984301,0 -5.404533,2.4031954 -5.404533,5.4580969 0,3.0539874 2.420232,5.4880538 5.404533,5.4880538 z"
       inkscape:connector-curvature="0" /><path
       id="path3033"
       style="fill:#00a0b2;fill-opacity:0.47058824;fill-rule:nonzero;stroke:none"
       d="m 16.228615,346.2409 0,-18.07857 18.258182,0 0,18.07857 -18.258182,0 z m 3.644856,-3.64384 10.932786,0 0,-10.79088 -10.932786,0 0,10.79088 z"
       inkscape:connector-curvature="0" /><path
       id="path3035"
       style="fill:#00a0b2;fill-opacity:0.47058824;fill-rule:nonzero;stroke:none"
       d="m 57.893231,346.2409 c -4.97938,0 -9.056547,-4.14005 -9.056547,-9.14675 0,-5.00671 4.077167,-9.11932 9.056547,-9.11932 4.985209,0 9.035964,4.11261 9.035964,9.11932 0,5.0067 -4.050755,9.14675 -9.035964,9.14675 z m 0,-3.65756 c 2.984357,0 5.378177,-2.43418 5.378177,-5.48919 0,-3.05502 -2.39382,-5.45719 -5.378177,-5.45719 -2.978527,0 -5.398759,2.40217 -5.398759,5.45719 0,3.05501 2.420232,5.48919 5.398759,5.48919 z"
       inkscape:connector-curvature="0" /><path
       id="path3037"
       style="fill:#00a0b2;fill-opacity:0.47058824;fill-rule:nonzero;stroke:none"
       d="m 81.36392,346.2409 0,-18.07857 18.25785,0 0,18.07857 -18.25785,0 z m 3.643609,-3.64384 10.934035,0 0,-10.79088 -10.934035,0 0,10.79088 z"
       inkscape:connector-curvature="0" /><path
       id="path3039"
       style="fill:#00a0b2;fill-opacity:0.47058824;fill-rule:nonzero;stroke:none"
       d="m 123.18495,346.2409 c -4.98384,0 -9.06192,-4.14005 -9.06192,-9.14675 0,-5.00671 4.07808,-9.11932 9.06192,-9.11932 4.98384,0 9.03024,4.11261 9.03024,9.11932 0,5.0067 -4.0464,9.14675 -9.03024,9.14675 z m 0,-3.65756 c 2.97852,0 5.37279,-2.43418 5.37279,-5.48919 0,-3.05502 -2.39428,-5.45719 -5.37279,-5.45719 -2.98298,0 -5.40459,2.40217 -5.40459,5.45719 0,3.05501 2.42161,5.48919 5.40459,5.48919 z"
       inkscape:connector-curvature="0" /><path
       id="path3041"
       style="fill:#00a0b2;fill-opacity:0.47058824;fill-rule:nonzero;stroke:none"
       d="m 146.53443,346.2409 0,-18.07857 18.25808,0 0,18.07857 -18.25808,0 z m 3.64384,-3.64384 10.9338,0 0,-10.79088 -10.9338,0 0,10.79088 z"
       inkscape:connector-curvature="0" /><path
       id="path3043"
       style="fill:#00a0b2;fill-opacity:0.47058824;fill-rule:nonzero;stroke:none"
       d="m 188.20363,346.2409 c -4.98384,0 -9.06215,-4.14005 -9.06215,-9.14675 0,-5.00671 4.07831,-9.11932 9.06215,-9.11932 4.98383,0 9.03012,4.11261 9.03012,9.11932 0,5.0067 -4.04629,9.14675 -9.03012,9.14675 z m 0,-3.65756 c 2.97956,0 5.37258,-2.43418 5.37258,-5.48919 0,-3.05502 -2.39302,-5.45719 -5.37258,-5.45719 -2.98298,0 -5.40344,2.40217 -5.40344,5.45719 0,3.05501 2.42046,5.48919 5.40344,5.48919 z"
       inkscape:connector-curvature="0" /><path
       id="path3045"
       style="fill:#00a0b2;fill-opacity:0.47058824;fill-rule:nonzero;stroke:none"
       d="m 211.66964,346.2409 0,-18.07857 18.25692,0 0,18.07857 -18.25692,0 z m 3.64382,-3.64384 10.93382,0 0,-10.79088 -10.93382,0 0,10.79088 z"
       inkscape:connector-curvature="0" /><path
       id="path3047"
       style="fill:#00a0b2;fill-opacity:0.47058824;fill-rule:nonzero;stroke:none"
       d="m 253.49088,346.2409 c -4.98041,0 -9.05758,-4.14005 -9.05758,-9.14675 0,-5.00671 4.07717,-9.11932 9.05758,-9.11932 4.98383,0 9.0347,4.11261 9.0347,9.11932 0,5.0067 -4.05087,9.14675 -9.0347,9.14675 z m 0,-3.65756 c 2.98298,0 5.37715,-2.43418 5.37715,-5.48919 0,-3.05502 -2.39417,-5.45719 -5.37715,-5.45719 -2.97956,0 -5.40002,2.40217 -5.40002,5.45719 0,3.05501 2.42046,5.48919 5.40002,5.48919 z"
       inkscape:connector-curvature="0" /><path
       id="path3049"
       style="fill:#00a0b2;fill-opacity:0.47058824;fill-rule:nonzero;stroke:none"
       d="m 276.98203,346.2409 0,-18.07857 18.25807,0 0,18.07857 -18.25807,0 z m 3.64498,-3.64384 10.93266,0 0,-10.79088 -10.93266,0 0,10.79088 z"
       inkscape:connector-curvature="0" /><path
       id="path3051"
       style="fill:#00a0b2;fill-opacity:0.47058824;fill-rule:nonzero;stroke:none"
       d="m 48.778602,313.83509 0,-18.07971 18.25784,0 0,18.07971 -18.25784,0 z m 3.680197,-3.68043 10.932775,0 0,-10.75429 -10.932775,0 0,10.75429 z"
       inkscape:connector-curvature="0" /><path
       id="path3053"
       style="fill:#00a0b2;fill-opacity:0.47058824;fill-rule:nonzero;stroke:none"
       d="m 90.475004,313.82594 c -4.984754,0 -9.061921,-4.13547 -9.061921,-9.14675 0,-2.01915 0.656051,-3.88623 1.772185,-5.40002 1.117047,0.55795 2.241983,1.09418 3.372866,1.63041 -0.924967,0.97299 -1.487721,2.29126 -1.487721,3.76961 0,3.05958 2.420685,5.4892 5.404591,5.4892 2.89849,0 5.24235,-2.29584 5.3728,-5.23081 1.15581,0.46077 2.31756,0.88496 3.488126,1.3137 -0.74182,4.27383 -4.413096,7.57466 -8.860926,7.57466 z"
       inkscape:connector-curvature="0" /><path
       id="path3055"
       style="fill:#00a0b2;fill-opacity:0.47058824;fill-rule:nonzero;stroke:none"
       d="m 113.91357,313.82594 0,-2.97041 c 4.43846,1.17422 8.96725,2.17464 13.54999,2.97041 l -13.54999,0 z"
       inkscape:connector-curvature="0" /><path
       id="path3057"
       style="fill:#00a0b2;fill-opacity:0.47058824;fill-rule:nonzero;stroke:none"
       d="m 183.51362,313.82594 c 4.69,-0.81749 9.29426,-1.84535 13.83675,-3.05502 l 0,3.05502 -13.83675,0 z"
       inkscape:connector-curvature="0" /><path
       id="path3059"
       style="fill:#00a0b2;fill-opacity:0.47058824;fill-rule:nonzero;stroke:none"
       d="m 220.75807,313.82594 c -4.47047,0 -8.19549,-3.32713 -8.91923,-7.62839 1.18794,-0.44247 2.345,-0.90668 3.51922,-1.37544 0.072,2.98756 2.46504,5.34628 5.40001,5.34628 2.98298,0 5.37258,-2.42962 5.37258,-5.4892 0,-1.52752 -0.57168,-2.87666 -1.54123,-3.85879 1.12162,-0.52708 2.23296,-1.07246 3.34542,-1.62583 1.15706,1.53207 1.85794,3.42088 1.85794,5.48462 0,5.01128 -4.05087,9.14675 -9.03471,9.14675 z"
       inkscape:connector-curvature="0" /><path
       id="path3061"
       style="fill:#00a0b2;fill-opacity:0.47058824;fill-rule:nonzero;stroke:none"
       d="m 244.21836,313.83509 0,-18.07971 18.25806,0 0,18.07971 -18.25806,0 z m 3.68042,-3.68043 10.93381,0 0,-10.75429 -10.93381,0 0,10.75429 z"
       inkscape:connector-curvature="0" /><path
       id="path3063"
       style="fill:#00a0b2;fill-opacity:0.47058824;fill-rule:nonzero;stroke:none"
       d="m 286.06247,313.83051 c -4.98383,0 -9.06215,-4.13662 -9.06215,-9.14675 0,-5.0067 4.07832,-9.11588 9.06215,-9.11588 4.97928,0 9.03015,4.10918 9.03015,9.11588 0,5.01013 -4.05087,9.14675 -9.03015,9.14675 z m 0,-3.6587 c 2.97843,0 5.37258,-2.43304 5.37258,-5.48805 0,-3.05501 -2.39416,-5.45833 -5.37258,-5.45833 -2.98298,0 -5.40457,2.40332 -5.40457,5.45833 0,3.05501 2.42159,5.48805 5.40457,5.48805 z"
       inkscape:connector-curvature="0" /><path
       id="path3065"
       style="fill:#00a0b2;fill-opacity:0.47058824;fill-rule:nonzero;stroke:none"
       d="m 25.299887,313.83051 c -4.985154,0 -9.06234,-4.13662 -9.06234,-9.14675 0,-5.0067 4.077186,-9.11588 9.06234,-9.11588 4.979402,0 9.030158,4.10918 9.030158,9.11588 0,5.01013 -4.050756,9.14675 -9.030158,9.14675 z m 0,-3.6587 c 2.97855,0 5.37237,-2.43304 5.37237,-5.48805 0,-3.05501 -2.39382,-5.45833 -5.37237,-5.45833 -2.984301,0 -5.404533,2.40332 -5.404533,5.45833 0,3.05501 2.420232,5.48805 5.404533,5.48805 z"
       inkscape:connector-curvature="0" /><path
       id="path3067"
       style="fill:#00a0b2;fill-opacity:0.47058824;fill-rule:nonzero;stroke:none"
       d="m 16.228615,281.07026 0,-18.07855 18.258182,0 0,18.07855 -18.258182,0 z m 3.644856,-3.67928 10.932786,0 0,-10.75544 -10.932786,0 0,10.75544 z"
       inkscape:connector-curvature="0" /><path
       id="path3069"
       style="fill:#00a0b2;fill-opacity:0.47058824;fill-rule:nonzero;stroke:none"
       d="m 276.98203,281.07026 0,-18.07855 18.25807,0 0,18.07855 -18.25807,0 z m 3.64498,-3.67928 10.93266,0 0,-10.75544 -10.93266,0 0,10.75544 z"
       inkscape:connector-curvature="0" /><path
       id="path3071"
       style="fill:#00a0b2;fill-opacity:0.47058824;fill-rule:nonzero;stroke:none"
       d="m 287.24584,248.5707 c 2.66629,-3.71587 5.16334,-7.54836 7.51634,-11.49175 0.21037,0.77289 0.34415,1.59382 0.34415,2.4296 0,4.60882 -3.43918,8.46762 -7.86049,9.06215 z"
       inkscape:connector-curvature="0" /><path
       id="path3073"
       style="fill:#00a0b2;fill-opacity:0.47058824;fill-rule:nonzero;stroke:none"
       d="m 23.6742,248.48495 c -4.216975,-0.78091 -7.43174,-4.52421 -7.43174,-8.9764 0,-0.69744 0.07994,-1.37544 0.227329,-2.02829 2.263916,3.76961 4.653324,7.44545 7.204411,11.00469 z"
       inkscape:connector-curvature="0" /><path
       id="path3075"
       style="fill:#1b458f;fill-opacity:0.47058824;fill-rule:nonzero;stroke:none"
       d="m 16.228615,-25.416814 0,-18.080037 18.258182,0 0,18.080037 -18.258182,0 z m 3.644856,-3.645325 10.932786,0 0,-10.78941 -10.932786,0 0,10.78941 z"
       inkscape:connector-curvature="0" /><path
       id="path3077"
       style="fill:#1b458f;fill-opacity:0.47058824;fill-rule:nonzero;stroke:none"
       d="m 57.893231,-25.412355 c -4.97938,0 -9.056547,-4.140165 -9.056547,-9.146756 0,-5.006603 4.077167,-9.120405 9.056547,-9.120405 4.985209,0 9.035964,4.113802 9.035964,9.120405 0,5.006591 -4.050755,9.146756 -9.035964,9.146756 z m 0,-3.658702 c 2.984357,0 5.378177,-2.433151 5.378177,-5.488054 0,-3.054879 -2.39382,-5.458131 -5.378177,-5.458131 -2.978527,0 -5.398759,2.403252 -5.398759,5.458131 0,3.054903 2.420232,5.488054 5.398759,5.488054 z"
       inkscape:connector-curvature="0" /><path
       id="path3079"
       style="fill:#1b458f;fill-opacity:0.47058824;fill-rule:nonzero;stroke:none"
       d="m 81.36392,-25.416814 0,-18.080037 18.25785,0 0,18.080037 -18.25785,0 z m 3.643609,-3.645325 10.934035,0 0,-10.78941 -10.934035,0 0,10.78941 z"
       inkscape:connector-curvature="0" /><path
       id="path3081"
       style="fill:#1b458f;fill-opacity:0.47058824;fill-rule:nonzero;stroke:none"
       d="m 123.18495,-25.412355 c -4.98384,0 -9.06192,-4.140165 -9.06192,-9.146756 0,-5.006603 4.07808,-9.120405 9.06192,-9.120405 4.98384,0 9.03024,4.113802 9.03024,9.120405 0,5.006591 -4.0464,9.146756 -9.03024,9.146756 z m 0,-3.658702 c 2.97852,0 5.37279,-2.433151 5.37279,-5.488054 0,-3.054879 -2.39428,-5.458131 -5.37279,-5.458131 -2.98298,0 -5.40459,2.403252 -5.40459,5.458131 0,3.054903 2.42161,5.488054 5.40459,5.488054 z"
       inkscape:connector-curvature="0" /><path
       id="path3083"
       style="fill:#1b458f;fill-opacity:0.47058824;fill-rule:nonzero;stroke:none"
       d="m 146.53443,-25.416814 0,-18.080037 18.25808,0 0,18.080037 -18.25808,0 z m 3.64384,-3.645325 10.9338,0 0,-10.78941 -10.9338,0 0,10.78941 z"
       inkscape:connector-curvature="0" /><path
       id="path3085"
       style="fill:#1b458f;fill-opacity:0.47058824;fill-rule:nonzero;stroke:none"
       d="m 188.20363,-25.412355 c -4.98384,0 -9.06215,-4.140165 -9.06215,-9.146756 0,-5.006603 4.07831,-9.120405 9.06215,-9.120405 4.98383,0 9.03012,4.113802 9.03012,9.120405 0,5.006591 -4.04629,9.146756 -9.03012,9.146756 z m 0,-3.658702 c 2.97956,0 5.37258,-2.433151 5.37258,-5.488054 0,-3.054879 -2.39302,-5.458131 -5.37258,-5.458131 -2.98298,0 -5.40344,2.403252 -5.40344,5.458131 0,3.054903 2.42046,5.488054 5.40344,5.488054 z"
       inkscape:connector-curvature="0" /><path
       id="path3087"
       style="fill:#1b458f;fill-opacity:0.47058824;fill-rule:nonzero;stroke:none"
       d="m 211.66964,-25.416814 0,-18.080037 18.25692,0 0,18.080037 -18.25692,0 z m 3.64382,-3.645325 10.93382,0 0,-10.78941 -10.93382,0 0,10.78941 z"
       inkscape:connector-curvature="0" /><path
       id="path3089"
       style="fill:#1b458f;fill-opacity:0.47058824;fill-rule:nonzero;stroke:none"
       d="m 253.49088,-25.412355 c -4.98041,0 -9.05758,-4.140165 -9.05758,-9.146756 0,-5.006603 4.07717,-9.120405 9.05758,-9.120405 4.98383,0 9.0347,4.113802 9.0347,9.120405 0,5.006591 -4.05087,9.146756 -9.0347,9.146756 z m 0,-3.658702 c 2.98298,0 5.37715,-2.433151 5.37715,-5.488054 0,-3.054879 -2.39417,-5.458131 -5.37715,-5.458131 -2.97956,0 -5.40002,2.403252 -5.40002,5.458131 0,3.054903 2.42046,5.488054 5.40002,5.488054 z"
       inkscape:connector-curvature="0" /><path
       id="path3091"
       style="fill:#1b458f;fill-opacity:0.47058824;fill-rule:nonzero;stroke:none"
       d="m 276.98203,-25.416814 0,-18.080037 18.25807,0 0,18.080037 -18.25807,0 z m 3.64498,-3.645325 10.93266,0 0,-10.78941 -10.93266,0 0,10.78941 z"
       inkscape:connector-curvature="0" /></g></svg>