<?xml version="1.0" encoding="UTF-8" standalone="no"?>
<!-- Created with Inkscape (http://www.inkscape.org/) -->

<svg
   xmlns:dc="http://purl.org/dc/elements/1.1/"
   xmlns:cc="http://creativecommons.org/ns#"
   xmlns:rdf="http://www.w3.org/1999/02/22-rdf-syntax-ns#"
   xmlns:svg="http://www.w3.org/2000/svg"
   xmlns="http://www.w3.org/2000/svg"
   xmlns:sodipodi="http://sodipodi.sourceforge.net/DTD/sodipodi-0.dtd"
   xmlns:inkscape="http://www.inkscape.org/namespaces/inkscape"
   id="svg2"
   version="1.1"
   inkscape:version="0.48.5 r10040"
   width="369.65347"
   height="487.40051"
   xml:space="preserve"
   sodipodi:docname="fibeamer-mu-fss-dark.pdf"><metadata
     id="metadata8"><rdf:RDF><cc:Work
         rdf:about=""><dc:format>image/svg+xml</dc:format><dc:type
           rdf:resource="http://purl.org/dc/dcmitype/StillImage" /><dc:title></dc:title></cc:Work></rdf:RDF></metadata><defs
     id="defs6" /><sodipodi:namedview
     pagecolor="#ffffff"
     bordercolor="#666666"
     borderopacity="1"
     objecttolerance="10"
     gridtolerance="10"
     guidetolerance="10"
     inkscape:pageopacity="0"
     inkscape:pageshadow="2"
     inkscape:window-width="1280"
     inkscape:window-height="751"
     id="namedview4"
     showgrid="false"
     fit-margin-top="0"
     fit-margin-left="0"
     fit-margin-right="0"
     fit-margin-bottom="0"
     inkscape:zoom="0.85630196"
     inkscape:cx="90.38441"
     inkscape:cy="178.55898"
     inkscape:window-x="0"
     inkscape:window-y="29"
     inkscape:window-maximized="1"
     inkscape:current-layer="g10" /><g
     id="g10"
     inkscape:groupmode="layer"
     inkscape:label="ink_ext_XXXXXX"
     transform="matrix(1.25,0,0,-1.25,-10.030275,432.80113)"><g
       transform="translate(9.02502,5.2360325)"
       inkscape:label="fithesis-fss-white"
       id="g5169"><g
         transform="scale(0.1,0.1)"
         id="g5171"><path
           id="path5173"
           style="fill:#ffffff;fill-opacity:1;fill-rule:nonzero;stroke:none"
           d="m 2084.53,2515.85 c -101.29,-164.18 -201.6,-321.84 -244.8,-395.47 -74.57,-127.19 9.29,-154.18 9.29,-219.1 0,-49.38 -24.68,-80.27 -64.84,-149.69 -40.12,-69.45 -60.16,-97.19 -137.3,-209.84 -38.33,-55.9 -46.29,-83.36 -46.29,-115.74 0,-32.39 22.18,-54.11 60.15,-74.07 58.64,-30.86 69.46,-41.68 69.46,-64.8 0,-29.34 -29.34,-60.2 -29.34,-95.7 0,-35.47 46.29,-50.9 46.29,-81.76 0,-40.12 -30.86,-50.94 -30.86,-81.8 0,-57.11 81.8,-61.72 81.8,-108.009 0,-41.68 -37.04,-84.883 -37.04,-148.16 0,-55.551 49.15,-107.313 195.98,-128.051 113.4,-16.012 143.75,-75.859 188.75,-146.601 316.37,215.351 524.14,578.361 524.14,989.921 0,437.54 -234.88,820.16 -585.39,1028.87 z m -922.19,-764.26 c -40.11,69.42 -64.8,100.31 -64.8,149.69 0,64.92 83.87,91.91 9.26,219.1 -43.21,73.63 -143.519,231.29 -244.812,395.47 C 511.48,2307.14 276.559,1924.52 276.559,1486.98 c 0,-411.56 207.82,-774.57 524.179,-989.921 45,70.742 75.391,130.589 188.75,146.601 146.882,20.738 195.982,72.5 195.982,128.051 0,63.277 -37.03,106.48 -37.03,148.16 0,46.289 81.79,50.899 81.79,108.009 0,30.86 -30.85,41.68 -30.85,81.8 0,30.86 46.28,46.29 46.28,81.76 0,35.5 -29.29,66.36 -29.29,95.7 0,23.12 10.78,33.94 69.41,64.8 37.97,19.96 60.2,41.68 60.2,74.07 0,32.38 -8.01,59.84 -46.29,115.74 -77.15,112.65 -97.23,140.39 -137.35,209.84 z m 310.9,885.74 c 174.69,0 340.2,-38.98 488.44,-108.63 l 24.65,39.61 c -155.51,73.91 -329.42,115.31 -513.09,115.31 -183.59,0 -357.54,-41.4 -513.041,-115.31 l 24.641,-39.61 c 148.28,69.65 313.79,108.63 488.4,108.63 z M 2043.05,451.75 c -6.29,9.961 -11.76,18.59 -16.8,26.25 -164.1,-90.121 -352.58,-141.449 -553.01,-141.449 -200.43,0 -388.83,51.328 -552.97,141.449 -5.04,-7.66 -10.5,-16.289 -16.79,-26.25 l -8.089,-12.852 c 171.329,-94.687 368.279,-148.597 577.849,-148.597 209.57,0 406.56,53.91 577.89,148.597 l -8.08,12.852 z M 90.4297,1363.94 c 23.8713,2.85 45.2303,-13.99 48.0503,-37.86 2.891,-23.82 -13.992,-45.19 -37.82,-48.04 -23.8202,-2.82 -45.2303,14.02 -48.0389,37.85 -2.8516,23.83 13.9805,45.19 37.8086,48.05 z m 110.1913,-151.72 22.231,-89.81 -17.5,-4.33 -17.032,68.94 -57.148,-13.63 16.637,-67.19 -17.5,-4.33 -16.559,66.99 -76.1719,-17.85 -5.2383,21.13 168.2812,40.08 z m 40.508,-144.3 6.723,-19.38 L 110.27,928 96.6016,946.012 146.52,988.23 l -23.43,67.54 -65.8986,3.83 -0.6719,20.94 184.6095,-12.62 z m -15.231,-15.63 -0.16,0.47 -83.199,1.8 18.633,-53.59 64.726,51.32 z M 302.5,855.031 c 2.809,16.641 -0.27,30.66 -7.621,45.981 -17.258,36.09 -58.508,48.199 -94.609,30.929 -36.09,-17.261 -52.54,-56.992 -35.27,-93.082 6.559,-13.75 18.441,-25.238 31.41,-34.3 l -10.121,-14.258 c -14.879,10.32 -29.648,24.34 -37.539,40.777 -22.109,46.25 -9.371,97.231 41.559,121.613 47.851,22.887 98.711,2.34 120.82,-43.91 8.949,-18.711 11.371,-35.312 10.551,-54.531 l -19.18,0.781 z M 408.949,735.34 317.379,678.512 c -47.34,-28.992 -77.457,-6.063 -95.469,22.5 -19.879,31.519 -21.949,65.699 22.699,93.816 11.84,7.461 25.082,15.551 40.192,24.813 l 51.019,31.558 11.481,-18.16 -54.18,-33.598 C 279.262,790.969 265.16,782.371 251.602,773.859 224.77,756.898 221.52,735.34 237.93,709.371 c 13.32,-21.18 35.859,-32.973 69.058,-12.043 l 90.473,56.211 11.488,-18.199 z M 286.52,611.551 423.629,717.02 436.91,700.109 313.949,605.73 l 45.461,-58.082 -14.18,-11.097 -58.71,75 z m 178.402,50.668 87.93,-97.071 -13.321,-12.109 -36.761,40.582 -115.86,-102.973 -14.449,15.942 115.859,102.969 -36.761,40.589 13.363,12.071 z m 119.879,-125.707 15.078,-13.903 -64.488,-171.168 -20.512,9.411 24.101,60.777 -52.531,48.48 -59.929,-27.66 -10.469,18.129 168.75,75.934 z m -6.051,-20.934 -0.391,0.313 -74.218,-37.621 41.718,-38.508 32.891,75.816 z M 565.27,357.801 c 3.281,-10.93 10.628,-24.063 21.57,-32.34 16.129,-12.231 34.68,-10.941 46.32,4.367 26.61,35.082 -45.039,66.801 -8.469,115 16.168,21.332 44.84,23.133 69.289,4.543 13.598,-10.281 22.348,-23.519 28.52,-38.562 l -16.09,-7.539 c -4.109,11.558 -8.64,22.539 -21.57,32.351 -11.949,9.059 -31.09,11.988 -43.789,-4.769 -22.961,-30.274 44.258,-70.274 11.527,-113.524 -15.59,-20.5 -44.418,-28.75 -74.726,-5.777 -15.122,11.488 -23.204,23.558 -29.493,39.648 l 16.911,6.602 z m 152.152,-107.18 c 4.648,-10.43 13.598,-22.5 25.508,-29.34 17.582,-10.082 35.82,-6.41 45.39,10.309 21.879,38.172 -53.199,60.469 -23.121,112.969 13.281,23.203 41.481,28.632 68.16,13.363 14.762,-8.481 25.161,-20.473 33.2,-34.613 l -15,-9.571 c -5.539,10.981 -11.438,21.293 -25.539,29.383 -13.008,7.457 -32.348,7.891 -42.782,-10.359 -18.898,-32.973 52.891,-64.024 25.903,-111.09 -12.813,-22.344 -40.352,-34.223 -73.321,-15.313 -16.48,9.45 -26.05,20.391 -34.371,35.539 l 15.973,8.723 z m 151.84,81.828 118.937,-54.879 -7.539,-16.371 -49.719,22.973 -66.332,-140.121 -19.488,9.027 66.289,140.07 -49.73,22.973 7.582,16.328 z m 253.978,-100.82 -35.12,-101.867 c -18.43,-52.3909 -56.28,-53.6018 -88.28,-42.8206 -35.309,11.8789 -58.469,37.1096 -41.641,87.1096 4.5,13.238 9.653,27.847 15.59,44.609 l 19.609,56.68 20.392,-6.828 -20.821,-60.282 c -5.43,-15.308 -10.981,-30.859 -16.059,-46.05 -10.109,-30.078 0.942,-48.828 30.08,-58.668 23.71,-7.9729 48.63,-2.934 61.17,34.289 l 34.69,100.668 20.39,-6.84 z m 19.3,-5.16 50.94,-10.5 c 65.39,-13.481 83.08,-60 74.57,-101.41 -11.88,-57.5395 -60.32,-78.1606 -115.16,-66.8676 l -46.76,9.6367 36.41,169.1409 z m -12.03,-157.2971 22.54,-4.6524 c 48.24,-9.9609 84.1,6.6407 93.67,53.1715 8.79,42.61 -15.2,73.59 -60.51,82.93 l -25.94,5.348 -29.76,-136.7971 z m 175.31,127.4181 21.37,-2.578 -22.19,-171.6018 -21.37,2.5781 22.19,171.6017 z m 35.98,-94.02 c 1.48,53.008 43,88.828 94.22,87.418 51.25,-1.449 90.78,-36.09 89.21,-92.5778 -1.48,-52.9688 -43,-88.83208 -94.25,-87.379 -51.21,1.4376 -90.78,36.0899 -89.18,92.5388 z m 22.97,-0.629 c -1.1,-39.9996 26.75,-72.7691 66.71,-73.9019 40,-1.1407 69.61,30.039 70.75,70.039 1.13,39.9999 -26.72,72.7739 -66.68,73.9019 -40,1.141 -69.65,-30.082 -70.78,-70.039 z m 174.72,84.571 52.03,4.726 c 32.58,2.973 56.29,-11.679 58.91,-40.308 2.54,-28.129 -15.12,-46.328 -38.98,-51.7581 l 0.07,-0.5117 c 11.6,-0.9414 22.78,-15.9688 30.78,-24.0196 l 38.79,-42.6601 -17.85,-13.1993 -45.62,51.5977 c -11.72,12.7422 -18.13,22.1914 -34.3,20.6992 l -13.67,-1.25 5.7,-73.789 -21.64,-1.9493 -14.22,172.4222 z m 28.4,-80.274 21.41,1.953 c 21.17,1.957 42.38,11.637 40.11,36.571 -1.68,18.386 -13.63,33.629 -41.52,31.09 l -25.62,-2.34 5.62,-67.274 z m 236.33,120.231 20.94,-105.699 c 10.43,-54.5317 -21.68,-74.6489 -54.77,-81.4419 -36.48,-7.457 -69.18,2.6524 -79.8,54.3321 -2.82,13.7108 -5.67,28.9488 -8.99,46.3708 l -11.56,58.91 21.01,4.289 12.35,-62.539 c 3.05,-15.972 6.09,-32.179 9.33,-47.8512 6.37,-31.0898 25.39,-41.7617 55.51,-35.5781 24.49,5.0274 43.48,21.9492 35.59,60.3863 l -20.67,104.493 21.06,4.328 z m 36.17,9.691 20.94,7.461 98.32,-119.922 3.87,156.449 21.91,7.813 84.06,-153.672 -18.59,-10.348 -70.51,131.95 -0.47,-0.161 -1.99,-154.179 -19.3,-6.8713 -95.93,119.1793 -0.47,-0.199 27.42,-147.3397 -20.74,-3.6719 -28.52,173.5116 z m 302.11,-34.57 c 11.37,-1.399 26.33,0.082 38.32,6.801 17.66,9.879 23.91,27.418 14.49,44.218 -21.48,38.403 -79.22,-14.531 -108.79,38.243 -13.04,23.359 -3.2,50.347 23.64,65.347 14.8,8.321 30.46,11.063 46.72,10.672 l 0.5,-17.781 c -12.26,0.898 -24.14,1.129 -38.32,-6.801 -13.08,-7.34 -23.4,-23.711 -13.16,-42.027 18.55,-33.16 82.15,12.457 108.63,-34.883 12.58,-22.5 8.59,-52.231 -24.57,-70.777 -16.6,-9.262 -30.9,-11.84 -48.16,-11.211 l 0.7,18.199 z m 63.16,103.09 c -30.86,43.121 -19.49,96.761 22.15,126.601 41.68,29.84 94.14,26.207 127.03,-19.73 30.86,-43.082 19.46,-96.762 -22.18,-126.602 -41.68,-29.84 -94.11,-26.168 -127,19.731 z m 18.68,13.398 c 23.32,-32.5 65.31,-41.797 97.81,-18.476 32.54,23.277 37.26,66.019 13.98,98.546 -23.28,32.5 -65.31,41.801 -97.81,18.524 -32.54,-23.32 -37.27,-66.051 -13.98,-98.594 z m 198.98,237.934 c -16.72,-2.192 -29.22,-9.301 -41.68,-20.821 -29.37,-27.191 -28.75,-70.203 -1.6,-99.57 27.19,-29.34 70,-33.332 99.37,-6.18 11.21,10.348 18.68,25.118 23.52,40.161 l 16.56,-5.43 c -5.43,-17.301 -14.45,-35.551 -27.85,-47.934 -37.62,-34.797 -90.12,-37.699 -128.48,3.793 -35.97,38.91 -31.36,93.547 6.25,128.36 15.24,14.058 30.36,21.289 48.95,26.211 l 4.96,-18.59 z m -1.37,40.578 14.61,15.781 126.02,-118.551 -14.61,-15.781 -126.02,118.551 z m 67.93,78.359 12.7,16.09 175.62,-51.09 -7.81,-21.211 -62.46,19.383 -44.3,-56.141 32.23,-57.609 -17.31,-11.84 -88.67,162.418 z m 21.33,-4.41 -0.31,-0.43 43.28,-71.097 35.16,44.566 -78.13,26.961 z m 180.35,-14.609 -144.68,94.84 11.64,18.089 129.53,-85.121 39.92,62.071 15.12,-9.77 -51.53,-80.109 z m -84.96,191.48 10.43,18.789 150.51,-85.308 -10.43,-18.789 -150.51,85.308 z m 81.8,168.48 97.93,-44.999 c 50.27,-23.52 47.77,-61.289 33.9,-92.071 -15.31,-33.949 -42.69,-54.531 -90.78,-32.851 -12.77,5.781 -26.79,12.383 -42.89,19.883 l -54.49,25.117 8.87,19.609 57.89,-26.637 c 14.72,-6.921 29.65,-13.953 44.26,-20.511 28.9,-13.051 48.71,-3.871 61.32,24.14 10.28,22.809 7.7,48.078 -28.08,64.219 l -96.76,44.492 8.83,19.609 z m 13.32,34.84 6.21,21.37 154.8,9.37 -124.49,94.81 6.49,22.34 173.79,-21.95 -2.5,-21.13 -148.25,20.23 -0.15,-0.47 123.75,-91.99 -5.75,-19.69 -152.77,-7.89 -0.15,-0.47 135.5,-64.139 -9.18,-18.941 -157.3,78.55 z m 144.14,227.31 c -23.83,2.85 -40.66,24.22 -37.81,48.08 2.81,23.83 24.22,40.67 48.04,37.82 23.83,-2.86 40.67,-24.22 37.82,-48.05 -2.82,-23.83 -24.22,-40.67 -48.05,-37.85 z M 3.55078,1595.11 111.25,1591.55 c 55.43,-2.22 67.77,-38.04 66.91,-71.79 -0.969,-37.19 -18.238,-66.76 -70.969,-65.43 -13.9918,0.39 -29.4918,1.05 -47.2301,1.75 L 0,1458.12 l 0.550781,21.52 63.710919,-2.15 c 16.25,-0.7 32.7266,-1.37 48.7503,-1.8 31.718,-0.82 46.398,15.32 47.187,46.06 0.66,25 -11.527,47.3 -50.75,48.32 l -106.43728,3.51 0.53906,21.53 z m 8.28902,45 -4.99996,18.94 152.93016,73.83 0.07,0.51 -135.1095,21.33 3.2812,21.48 167.3403,-26.68 4.179,-19.57 -154.1013,-72.93 -0.0391,-0.47 136.2894,-21.52 -3.2,-21.52 -166.6402,26.6 z m 27.8907,182.93 5.039,20.9 167.8515,-41.96 -5.043,-20.94 -167.8475,42 z m 14.9179,47.73 -1.4882,22.58 161.3278,7.07 -123.7888,106.68 11.9608,17.11 139.02,-122.77 -6.25,-18.99 -180.7816,-11.68 z m 57.5816,179.34 36.29,81.29 16.441,-7.35 -27.66,-61.87 53.48,-24.42 26.918,60.28 16.403,-7.35 -26.832,-60.04 54.839,-25.03 28.321,63.47 16.449,-7.34 -37.309,-83.56 -157.34,71.92 z m 53.43,115.74 25.82,45.43 c 16.18,28.44 41.719,39.53 66.719,25.35 24.571,-13.94 29.422,-38.83 20.242,-61.52 l 0.469,-0.28 c 7.418,9.03 26.129,9.61 37.301,11.61 l 57.187,7.5 0.622,-22.19 -68.399,-8.05 c -17.141,-2.34 -28.551,-2.19 -36.562,-16.33 l -6.829,-11.95 63.899,-37.38 -10.777,-18.91 -149.692,86.72 z m 82.11,-22.5 10.628,18.71 c 10.512,18.48 14.614,41.41 -7.109,53.79 -16.09,9.14 -35.43,8.01 -49.258,-16.33 l -12.691,-22.38 58.43,-33.79 z m 116.179,69.34 c 10.821,3.67 23.672,11.48 31.563,22.73 11.636,16.6 9.648,35.08 -6.102,46.13 -36.012,25.28 -65.109,-47.46 -114.64,-12.69 -21.879,15.39 -24.692,43.94 -7.04,69.1 9.77,13.94 22.661,23.2 37.469,29.92 l 8.16,-15.82 c -11.41,-4.49 -22.23,-9.45 -31.558,-22.77 -8.602,-12.27 -10.821,-31.49 6.359,-43.56 31.102,-21.83 68.641,46.84 113.051,15.67 21.059,-14.81 30.348,-43.32 8.519,-74.42 -10.902,-15.54 -22.699,-24.1 -38.558,-31.01 l -7.223,16.72 z m -42.621,190.85 13.473,16.72 133.64,-109.88 -13.48,-16.72 -133.633,109.88 z m 31.442,40.36 89.421,95.7 13.161,-12.31 -37.383,-40 112.23,-106.91 -14.648,-15.7 -112.231,106.91 -37.379,-40 -13.171,12.31 z m 136.371,137.81 15.347,13.63 163.992,-80.97 -11.41,-19.54 -58.09,29.96 -53.429,-47.5 21.679,-62.34 -19.109,-8.63 -58.98,175.39 z m 20.269,-8.09 -0.39,-0.31 30.16,-77.58 42.422,37.74 -72.192,40.15 z m 153.52,-37.65 c 11.449,-0.08 26.09,3.16 37.269,11.21 16.36,11.87 20.539,30 9.25,45.58 -25.82,35.67 -77.027,-23.63 -112.5,25.36 -15.699,21.64 -9.097,49.6 15.821,67.65 13.789,9.96 29.031,14.49 45.199,16.02 l 2.543,-17.58 c -12.274,-0.55 -24.063,-1.68 -37.231,-11.21 -12.152,-8.83 -20.511,-26.29 -8.16,-43.28 22.258,-30.78 80.109,21.91 111.91,-22.03 15.117,-20.86 14.61,-50.86 -16.172,-73.13 -15.39,-11.17 -29.3,-15.39 -46.519,-16.76 l -1.41,18.17 z m 98.711,242.07 20,9.76 110.937,-108.36 -13.398,155.9 20.898,10.2 100.512,-143.48 -17.352,-12.34 -84.609,123.4 -0.469,-0.24 15.039,-153.44 -18.429,-8.98 -108.481,107.89 -0.469,-0.23 43.52,-143.44 -20.199,-5.94 -47.5,169.3 z m 247.849,106.44 19.53,6.33 117.82,-139.92 -18.32,-13.28 -41.22,50.7 -67.96,-22.11 -5.16,-65.82 -20.942,-0.23 16.252,184.33 z m 15.31,-15.54 -0.46,-0.16 -3.44,-83.13 53.98,17.54 -50.08,65.75 z m 125.67,-96.06 c 10.47,-4.65 25.15,-7.62 38.59,-4.73 19.81,4.3 30.9,19.22 26.84,38.05 -9.34,43.01 -80.04,9.3 -92.81,68.44 -5.67,26.13 11.64,49.06 41.68,55.55 16.64,3.59 32.38,1.64 47.81,-3.48 l -4.73,-17.11 c -11.44,4.41 -22.73,8.09 -38.59,4.69 -14.69,-3.21 -29.34,-15.82 -24.88,-36.33 8,-37.15 82.14,-12.15 93.63,-65.2 5.43,-25.15 -7.07,-52.42 -44.22,-60.47 -18.59,-3.98 -33.05,-2.26 -49.34,3.4 l 6.02,17.19 z m 147.77,175.82 20.35,2.31 87.31,-160.75 -20.59,-9.33 -30.15,57.97 -71.1,-8.01 -18.24,-63.44 -20.55,3.95 52.97,177.3 z m 11.88,-18.28 -0.51,-0.04 -20.12,-80.78 56.41,6.37 -35.78,74.45 z m 104.53,27.66 52.26,0.86 c 32.74,0.54 55.24,-15.86 55.71,-44.61 0.47,-28.25 -18.52,-45.04 -42.7,-48.68 l 0,-0.5 c 11.53,-1.8 21.53,-17.66 28.95,-26.29 l 35.47,-45.43 -18.79,-11.8 -41.64,54.81 c -10.75,13.59 -16.41,23.51 -32.66,23.24 l -13.75,-0.24 0.2,-73.98 -21.72,-0.35 -1.33,172.97 z m 22.34,-82.11 21.49,0.35 c 21.25,0.31 43.12,8.4 42.73,33.4 -0.31,18.51 -11.05,34.61 -39.06,34.14 l -25.74,-0.39 0.58,-67.5 z m 158.87,-21.29 -51.52,97.22 20.43,8.79 44.64,-90.78 64.38,80.12 17.58,-12.81 -74.1,-84.65 -8.75,-73.52 -21.37,2.11 8.71,73.52 z m 123.28,84.88 21.06,-4.37 -17.9,-83.09 -18.51,-86.06 -21.06,4.38 36.41,169.14 z m 3.16,-87.46 102.08,69.3 12.03,-15.98 -87.82,-58.2 57.54,-91.25 -18.83,-10.67 -65,106.8 z m 150.08,52.19 20.67,-5.98 -49.42,-165.82 -20.62,5.98 49.37,165.82 z m 116.06,-37.93 19.14,-7.31 4.02,-182.85 -22.58,1.09 -0.27,65.36 -66.84,25.39 -45.31,-48.01 -16.44,12.93 128.28,133.4 z m 2.18,-21.72 -0.46,0.19 -54.85,-62.61 53.05,-20.16 2.26,82.58 z m 103.95,-25.78 19.53,-1.49 19.57,-168.67 0.43,-0.23 64.45,120.62 19.26,-10.15 -80.08,-149.34 -19.88,2.5 -18.36,169.45 -0.43,0.24 -65,-121.72 -19.26,10.08 79.77,148.71 z m 205.55,-113.87 16.87,-11.6 -39.49,-178.63 -21.64,6.44 15.23,63.56 -58.9,40.58 -55.39,-35.94 -12.93,16.49 156.25,99.1 z m -3.01,-21.56 -0.43,0.27 -68.13,-47.81 46.76,-32.19 21.8,79.73 z m 152.19,-93.52 34.92,-32.97 c 27.62,-26.05 21.44,-51.52 8.24,-65.54 -14.61,-15.43 -31.33,-17.89 -49.8,-8.32 l -0.36,-0.36 c 13.25,-18 11.22,-38.43 -3.9,-54.41 -21.1,-22.38 -48.95,-19.84 -73.67,3.52 l -35.28,33.28 119.85,124.8 z m -92.7,-127.73 18.36,-17.35 c 16.02,-15.07 32.7,-17.77 49.18,-0.31 14.41,15.24 11.06,33.56 -7.15,50.7 l -14.69,13.91 -45.7,-46.95 z m 56.99,58.94 11.84,-11.13 c 20.55,-19.41 37.34,-18.75 49.49,-5.82 13.24,13.98 12.62,29.02 -7.58,48.05 l -12.54,11.83 -41.21,-42.93 z m 137.11,-29.68 34.22,-39.5 c 21.45,-24.76 23.36,-52.54 1.64,-71.36 -21.36,-18.52 -46.44,-14.77 -64.76,1.44 l -0.39,-0.35 c 6.01,-10 0.31,-27.85 -1.53,-39.06 l -12.03,-56.37 -21.09,6.8 15.23,67.15 c 3.52,16.95 7.46,27.65 -3.16,39.96 l -9.03,10.39 -56.56,-47.74 -14.26,16.45 131.72,112.19 z m -48.59,-69.93 14.06,-16.25 c 13.95,-16.05 34.18,-27.61 53.09,-11.21 13.98,12.11 19.37,30.67 1.05,51.84 l -16.87,19.45 -51.33,-43.83 z m 226.05,-161.6 -89.33,-60.19 c -46.25,-30.75 -77.23,-8.91 -96.29,18.94 -21.02,30.74 -24.34,64.81 19.18,94.61 11.56,7.89 24.49,16.45 39.3,26.25 l 49.8,33.48 12.15,-17.78 -52.93,-35.54 c -13.56,-8.99 -27.31,-18.09 -40.51,-27.11 -26.21,-17.93 -28.63,-39.61 -11.29,-64.96 14.14,-20.67 37.07,-31.64 69.46,-9.46 l 88.32,59.54 12.14,-17.78 z m 19.61,-41.33 15.16,-12.42 -80.82,-149.37 0.23,-0.43 122.04,61.72 9.96,-19.3 -151.37,-76.33 -14.81,13.48 82.27,149.26 -0.23,0.43 -123.13,-62.31 -9.96,19.34 150.66,75.93 z m 84.03,-162.42 32.15,-82.97 -16.76,-6.52 -24.49,63.16 -54.97,-20.74 23.83,-61.52 -16.76,-6.53 -23.78,61.29 -56.33,-21.32 25.11,-64.77 -16.79,-6.52 -33.09,85.31 161.88,61.13 z m 40.97,-120.23 12.15,-15.39 -110.43,-128.99 0.12,-0.47 132.3,34.69 5.67,-21.01 -164.03,-42.74 -11.64,16.29 111.84,128.59 -0.12,0.51 -133.51,-35.04 -5.67,21.02 163.32,42.54 z m -97.93,-197.07 c -5.19,-10.2 -8.98,-24.73 -6.79,-38.32 3.16,-20 17.46,-31.88 36.48,-28.87 43.44,6.91 13.67,79.37 73.44,88.91 26.41,4.18 48.36,-14.34 53.2,-44.69 2.66,-16.8 -0.15,-32.42 -6.13,-47.54 l -16.84,5.62 c 5.04,11.22 9.38,22.27 6.8,38.32 -2.34,14.81 -14.14,30.16 -34.88,26.84 -37.54,-5.98 -16.68,-81.37 -70.24,-89.88 -25.43,-4.06 -51.95,9.92 -57.93,47.46 -3,18.75 -0.47,33.08 6.1,49.06 l 16.79,-6.91 z m 163.52,-107.7 1.91,-21.4 -172.42,-14.07 -1.95,21.41 172.46,14.06 z m -141.68,-70.35 c -6.52,-9.41 -12.23,-23.28 -11.91,-37.03 0.5,-20.27 13.04,-33.99 32.3,-33.52 43.98,1.02 24.22,76.84 84.73,78.25 26.72,0.62 45.97,-20.67 46.68,-51.41 0.43,-16.99 -4.5,-32.11 -12.43,-46.33 l -15.93,7.89 c 6.52,10.43 12.26,20.82 11.87,37.03 -0.31,15 -9.96,31.8 -30.97,31.29 -37.97,-0.9 -27.43,-78.4 -81.64,-79.69 -25.75,-0.58 -50.16,16.84 -51.06,54.85 -0.43,18.98 3.98,32.85 12.66,47.81 l 15.7,-9.14"
           inkscape:connector-curvature="0" /></g></g><path
       id="path3003"
       style="fill:#ffffff;fill-opacity:0.74509805;fill-rule:nonzero;stroke:none"
       d="m 293.1901,68.779563 c -0.71004,-1.139801 -1.43834,-2.278686 -2.17465,-3.398706 0.27669,-0.665541 0.42874,-1.403342 0.42874,-2.175099 0,-3.054902 -2.38957,-5.458098 -5.37255,-5.458098 -0.1212,0 -0.2504,0.01829 -0.37045,0.02722 -0.80035,-1.076801 -1.60411,-2.170983 -2.43075,-3.229948 0.88494,-0.290295 1.82706,-0.454594 2.8012,-0.454594 4.98383,0 9.0347,4.108837 9.0347,9.115428 0,2.090148 -0.73289,4.023658 -1.91624,5.573805 z"
       inkscape:connector-curvature="0" /><path
       id="path3005"
       style="fill:#ffffff;fill-opacity:0.74509805;fill-rule:nonzero;stroke:none"
       d="m 17.929786,68.493726 c -1.066525,-1.501097 -1.687326,-3.323245 -1.687326,-5.287968 0,-5.006591 4.077178,-9.115428 9.061897,-9.115428 0.853038,0 1.673926,0.142918 2.455916,0.370214 -0.839158,1.075888 -1.670312,2.188362 -2.483162,3.287116 -2.970454,0.01383 -5.377285,2.411314 -5.377285,5.458098 0,0.62884 0.09826,1.240757 0.285836,1.799853 -0.763721,1.155921 -1.52297,2.3131 -2.255876,3.488115 z"
       inkscape:connector-curvature="0" /><path
       id="path3007"
       style="fill:#ffffff;fill-opacity:0.74509805;fill-rule:nonzero;stroke:none"
       d="m 16.228615,39.575115 0,-18.079478 18.258182,0 0,18.079478 -18.258182,0 z m 3.644856,-3.644753 10.932786,0 0,-10.754184 -10.932786,0 0,10.754184 z"
       inkscape:connector-curvature="0" /><path
       id="path3009"
       style="fill:#ffffff;fill-opacity:0.74509805;fill-rule:nonzero;stroke:none"
       d="m 49.001555,32.049622 c -0.09387,-0.523424 -0.173788,-1.049591 -0.173788,-1.59931 0,-5.011051 4.077165,-9.119544 9.061918,-9.119544 1.31256,0 2.559148,0.28938 3.688658,0.799426 -1.312673,0.932969 -2.608311,1.888805 -3.889657,2.858361 -2.371525,0.08941 -4.341622,1.687348 -4.971261,3.916869 -1.255507,1.031754 -2.497066,2.081231 -3.71587,3.144198 z"
       inkscape:connector-curvature="0" /><path
       id="path3011"
       style="fill:#ffffff;fill-opacity:0.74509805;fill-rule:nonzero;stroke:none"
       d="m 262.31979,32.392625 c -1.17879,-1.031182 -2.36672,-2.05802 -3.57295,-3.058447 -0.49963,-2.505981 -2.65256,-4.345623 -5.26054,-4.345623 -0.0765,0 -0.15206,0 -0.22867,0 -1.22794,-0.929425 -2.46047,-1.849017 -3.71586,-2.743112 1.19708,-0.588594 2.53252,-0.914675 3.94453,-0.914675 4.98385,0 9.03471,4.108493 9.03471,9.119544 0,0.665426 -0.0675,1.313473 -0.20123,1.942313 z"
       inkscape:connector-curvature="0" /><path
       id="path3013"
       style="fill:#ffffff;fill-opacity:0.74509805;fill-rule:nonzero;stroke:none"
       d="m 276.98203,39.575115 0,-18.079478 18.25807,0 0,18.079478 -18.25807,0 z m 3.64498,-3.644753 10.93266,0 0,-10.754184 -10.93266,0 0,10.754184 z"
       inkscape:connector-curvature="0" /><path
       id="path3015"
       style="fill:#ffffff;fill-opacity:0.74509805;fill-rule:nonzero;stroke:none"
       d="m 48.778602,7.1685026 0,-18.0800486 18.25784,0 0,18.0800486 -18.25784,0 z m 3.680197,-3.6453246 10.932775,0 0,-10.75407 -10.932775,0 0,10.75407 z"
       inkscape:connector-curvature="0" /><path
       id="path3017"
       style="fill:#ffffff;fill-opacity:0.74509805;fill-rule:nonzero;stroke:none"
       d="m 88.044486,6.8102933 c -3.809629,-1.0848052 -6.631403,-4.613167 -6.631403,-8.7751691 0,-5.0065912 4.077167,-9.1154282 9.061921,-9.1154282 4.98384,0 9.030136,4.108837 9.030136,9.1154282 0,1.6248063 -0.4515,3.1571168 -1.196846,4.4876268 -3.4792,1.3139312 -6.90478,2.7520299 -10.263808,4.2875423 z M 90.475004,3.523178 c 2.97853,0 5.37281,-2.4340664 5.37281,-5.4880538 0,-3.0549026 -2.39429,-5.4580982 -5.37281,-5.4580982 -2.983906,0 -5.404591,2.4031956 -5.404591,5.4580982 0,3.0539874 2.420685,5.4880538 5.404591,5.4880538 z"
       inkscape:connector-curvature="0" /><path
       id="path3019"
       style="fill:#ffffff;fill-opacity:0.74509805;fill-rule:nonzero;stroke:none"
       d="m 113.91357,-2.4517119 0,-8.4598341 18.26618,0 0,4.7439647 c -1.22795,0.1782477 -2.44334,0.3703287 -3.66224,0.5716718 l 0,-1.6256065 -10.91529,0 0,3.8274591 c -1.23275,0.2938399 -2.46984,0.6199221 -3.68865,0.942345 z"
       inkscape:connector-curvature="0" /><path
       id="path3021"
       style="fill:#ffffff;fill-opacity:0.74509805;fill-rule:nonzero;stroke:none"
       d="m 162.81795,-7.650271 c -2.42961,-0.112161 -4.88551,-0.201457 -7.34256,-0.201457 -2.27755,0 -4.52421,0.07546 -6.77546,0.17013 1.66128,-2.072769 4.22123,-3.398706 7.0613,-3.398706 2.84921,0 5.40459,1.335312 7.05672,3.430033 z"
       inkscape:connector-curvature="0" /><path
       id="path3023"
       style="fill:#ffffff;fill-opacity:0.74509805;fill-rule:nonzero;stroke:none"
       d="m 197.35039,-2.3623028 c -1.21881,-0.3260811 -2.42961,-0.6485051 -3.66215,-0.9469174 l 0,-3.9122958 -10.9155,0 0,1.6836885 c -1.22337,-0.205459 -2.4559,-0.3929677 -3.68843,-0.5716718 l 0,-4.8020467 18.26608,0 0,8.5492432 z"
       inkscape:connector-curvature="0" /><path
       id="path3025"
       style="fill:#ffffff;fill-opacity:0.74509805;fill-rule:nonzero;stroke:none"
       d="M 223.01733,6.8688317 C 219.72106,5.3552724 216.38936,3.9305506 212.98218,2.63983 c -0.79462,-1.3630956 -1.28626,-2.9307351 -1.28626,-4.6047058 0,-5.0065912 4.07718,-9.1154282 9.06216,-9.1154282 4.98384,0 9.03471,4.108837 9.03471,9.1154282 0,4.2250009 -2.88008,7.8113295 -6.77546,8.8337075 z M 220.75808,3.523178 c 2.98298,0 5.37257,-2.4340664 5.37257,-5.4880538 0,-3.0549026 -2.38959,-5.4580982 -5.37257,-5.4580982 -2.97956,0 -5.40001,2.4031956 -5.40001,5.4580982 0,3.0539874 2.42045,5.4880538 5.40001,5.4880538 z"
       inkscape:connector-curvature="0" /><path
       id="path3027"
       style="fill:#ffffff;fill-opacity:0.74509805;fill-rule:nonzero;stroke:none"
       d="m 244.21836,7.1685026 0,-18.0800486 18.25806,0 0,18.0800486 -18.25806,0 z m 3.68042,-3.6453246 10.93381,0 0,-10.75407 -10.93381,0 0,10.75407 z"
       inkscape:connector-curvature="0" /><path
       id="path3029"
       style="fill:#ffffff;fill-opacity:0.74509805;fill-rule:nonzero;stroke:none"
       d="m 286.06247,7.1774212 c -4.98383,0 -9.06215,-4.1401653 -9.06215,-9.1467563 0,-5.0065909 4.07832,-9.1203439 9.06215,-9.1203439 4.97928,0 9.03015,4.113753 9.03015,9.1203439 0,5.006591 -4.05087,9.1467563 -9.03015,9.1467563 z m 0,-3.6587025 c 2.97843,0 5.37258,-2.4340664 5.37258,-5.4880538 0,-3.0549015 -2.39416,-5.4580969 -5.37258,-5.4580969 -2.98298,0 -5.40457,2.4031954 -5.40457,5.4580969 0,3.0539874 2.42159,5.4880538 5.40457,5.4880538 z"
       inkscape:connector-curvature="0" /><path
       id="path3031"
       style="fill:#ffffff;fill-opacity:0.74509805;fill-rule:nonzero;stroke:none"
       d="m 25.299887,7.1774212 c -4.985154,0 -9.06234,-4.1401653 -9.06234,-9.1467563 0,-5.0065909 4.077186,-9.1203439 9.06234,-9.1203439 4.979402,0 9.030158,4.113753 9.030158,9.1203439 0,5.006591 -4.050756,9.1467563 -9.030158,9.1467563 z m 0,-3.6587025 c 2.97855,0 5.37237,-2.4340664 5.37237,-5.4880538 0,-3.0549015 -2.39382,-5.4580969 -5.37237,-5.4580969 -2.984301,0 -5.404533,2.4031954 -5.404533,5.4580969 0,3.0539874 2.420232,5.4880538 5.404533,5.4880538 z"
       inkscape:connector-curvature="0" /><path
       id="path3033"
       style="fill:#ffffff;fill-opacity:0.74509805;fill-rule:nonzero;stroke:none"
       d="m 16.228615,346.2409 0,-18.07857 18.258182,0 0,18.07857 -18.258182,0 z m 3.644856,-3.64384 10.932786,0 0,-10.79088 -10.932786,0 0,10.79088 z"
       inkscape:connector-curvature="0" /><path
       id="path3035"
       style="fill:#ffffff;fill-opacity:0.74509805;fill-rule:nonzero;stroke:none"
       d="m 57.893231,346.2409 c -4.97938,0 -9.056547,-4.14005 -9.056547,-9.14675 0,-5.00671 4.077167,-9.11932 9.056547,-9.11932 4.985209,0 9.035964,4.11261 9.035964,9.11932 0,5.0067 -4.050755,9.14675 -9.035964,9.14675 z m 0,-3.65756 c 2.984357,0 5.378177,-2.43418 5.378177,-5.48919 0,-3.05502 -2.39382,-5.45719 -5.378177,-5.45719 -2.978527,0 -5.398759,2.40217 -5.398759,5.45719 0,3.05501 2.420232,5.48919 5.398759,5.48919 z"
       inkscape:connector-curvature="0" /><path
       id="path3037"
       style="fill:#ffffff;fill-opacity:0.74509805;fill-rule:nonzero;stroke:none"
       d="m 81.36392,346.2409 0,-18.07857 18.25785,0 0,18.07857 -18.25785,0 z m 3.643609,-3.64384 10.934035,0 0,-10.79088 -10.934035,0 0,10.79088 z"
       inkscape:connector-curvature="0" /><path
       id="path3039"
       style="fill:#ffffff;fill-opacity:0.74509805;fill-rule:nonzero;stroke:none"
       d="m 123.18495,346.2409 c -4.98384,0 -9.06192,-4.14005 -9.06192,-9.14675 0,-5.00671 4.07808,-9.11932 9.06192,-9.11932 4.98384,0 9.03024,4.11261 9.03024,9.11932 0,5.0067 -4.0464,9.14675 -9.03024,9.14675 z m 0,-3.65756 c 2.97852,0 5.37279,-2.43418 5.37279,-5.48919 0,-3.05502 -2.39428,-5.45719 -5.37279,-5.45719 -2.98298,0 -5.40459,2.40217 -5.40459,5.45719 0,3.05501 2.42161,5.48919 5.40459,5.48919 z"
       inkscape:connector-curvature="0" /><path
       id="path3041"
       style="fill:#ffffff;fill-opacity:0.74509805;fill-rule:nonzero;stroke:none"
       d="m 146.53443,346.2409 0,-18.07857 18.25808,0 0,18.07857 -18.25808,0 z m 3.64384,-3.64384 10.9338,0 0,-10.79088 -10.9338,0 0,10.79088 z"
       inkscape:connector-curvature="0" /><path
       id="path3043"
       style="fill:#ffffff;fill-opacity:0.74509805;fill-rule:nonzero;stroke:none"
       d="m 188.20363,346.2409 c -4.98384,0 -9.06215,-4.14005 -9.06215,-9.14675 0,-5.00671 4.07831,-9.11932 9.06215,-9.11932 4.98383,0 9.03012,4.11261 9.03012,9.11932 0,5.0067 -4.04629,9.14675 -9.03012,9.14675 z m 0,-3.65756 c 2.97956,0 5.37258,-2.43418 5.37258,-5.48919 0,-3.05502 -2.39302,-5.45719 -5.37258,-5.45719 -2.98298,0 -5.40344,2.40217 -5.40344,5.45719 0,3.05501 2.42046,5.48919 5.40344,5.48919 z"
       inkscape:connector-curvature="0" /><path
       id="path3045"
       style="fill:#ffffff;fill-opacity:0.74509805;fill-rule:nonzero;stroke:none"
       d="m 211.66964,346.2409 0,-18.07857 18.25692,0 0,18.07857 -18.25692,0 z m 3.64382,-3.64384 10.93382,0 0,-10.79088 -10.93382,0 0,10.79088 z"
       inkscape:connector-curvature="0" /><path
       id="path3047"
       style="fill:#ffffff;fill-opacity:0.74509805;fill-rule:nonzero;stroke:none"
       d="m 253.49088,346.2409 c -4.98041,0 -9.05758,-4.14005 -9.05758,-9.14675 0,-5.00671 4.07717,-9.11932 9.05758,-9.11932 4.98383,0 9.0347,4.11261 9.0347,9.11932 0,5.0067 -4.05087,9.14675 -9.0347,9.14675 z m 0,-3.65756 c 2.98298,0 5.37715,-2.43418 5.37715,-5.48919 0,-3.05502 -2.39417,-5.45719 -5.37715,-5.45719 -2.97956,0 -5.40002,2.40217 -5.40002,5.45719 0,3.05501 2.42046,5.48919 5.40002,5.48919 z"
       inkscape:connector-curvature="0" /><path
       id="path3049"
       style="fill:#ffffff;fill-opacity:0.74509805;fill-rule:nonzero;stroke:none"
       d="m 276.98203,346.2409 0,-18.07857 18.25807,0 0,18.07857 -18.25807,0 z m 3.64498,-3.64384 10.93266,0 0,-10.79088 -10.93266,0 0,10.79088 z"
       inkscape:connector-curvature="0" /><path
       id="path3051"
       style="fill:#ffffff;fill-opacity:0.74509805;fill-rule:nonzero;stroke:none"
       d="m 48.778602,313.83509 0,-18.07971 18.25784,0 0,18.07971 -18.25784,0 z m 3.680197,-3.68043 10.932775,0 0,-10.75429 -10.932775,0 0,10.75429 z"
       inkscape:connector-curvature="0" /><path
       id="path3053"
       style="fill:#ffffff;fill-opacity:0.74509805;fill-rule:nonzero;stroke:none"
       d="m 90.475004,313.82594 c -4.984754,0 -9.061921,-4.13547 -9.061921,-9.14675 0,-2.01915 0.656051,-3.88623 1.772185,-5.40002 1.117047,0.55795 2.241983,1.09418 3.372866,1.63041 -0.924967,0.97299 -1.487721,2.29126 -1.487721,3.76961 0,3.05958 2.420685,5.4892 5.404591,5.4892 2.89849,0 5.24235,-2.29584 5.3728,-5.23081 1.15581,0.46077 2.31756,0.88496 3.488126,1.3137 -0.74182,4.27383 -4.413096,7.57466 -8.860926,7.57466 z"
       inkscape:connector-curvature="0" /><path
       id="path3055"
       style="fill:#ffffff;fill-opacity:0.74509805;fill-rule:nonzero;stroke:none"
       d="m 113.91357,313.82594 0,-2.97041 c 4.43846,1.17422 8.96725,2.17464 13.54999,2.97041 l -13.54999,0 z"
       inkscape:connector-curvature="0" /><path
       id="path3057"
       style="fill:#ffffff;fill-opacity:0.74509805;fill-rule:nonzero;stroke:none"
       d="m 183.51362,313.82594 c 4.69,-0.81749 9.29426,-1.84535 13.83675,-3.05502 l 0,3.05502 -13.83675,0 z"
       inkscape:connector-curvature="0" /><path
       id="path3059"
       style="fill:#ffffff;fill-opacity:0.74509805;fill-rule:nonzero;stroke:none"
       d="m 220.75807,313.82594 c -4.47047,0 -8.19549,-3.32713 -8.91923,-7.62839 1.18794,-0.44247 2.345,-0.90668 3.51922,-1.37544 0.072,2.98756 2.46504,5.34628 5.40001,5.34628 2.98298,0 5.37258,-2.42962 5.37258,-5.4892 0,-1.52752 -0.57168,-2.87666 -1.54123,-3.85879 1.12162,-0.52708 2.23296,-1.07246 3.34542,-1.62583 1.15706,1.53207 1.85794,3.42088 1.85794,5.48462 0,5.01128 -4.05087,9.14675 -9.03471,9.14675 z"
       inkscape:connector-curvature="0" /><path
       id="path3061"
       style="fill:#ffffff;fill-opacity:0.74509805;fill-rule:nonzero;stroke:none"
       d="m 244.21836,313.83509 0,-18.07971 18.25806,0 0,18.07971 -18.25806,0 z m 3.68042,-3.68043 10.93381,0 0,-10.75429 -10.93381,0 0,10.75429 z"
       inkscape:connector-curvature="0" /><path
       id="path3063"
       style="fill:#ffffff;fill-opacity:0.74509805;fill-rule:nonzero;stroke:none"
       d="m 286.06247,313.83051 c -4.98383,0 -9.06215,-4.13662 -9.06215,-9.14675 0,-5.0067 4.07832,-9.11588 9.06215,-9.11588 4.97928,0 9.03015,4.10918 9.03015,9.11588 0,5.01013 -4.05087,9.14675 -9.03015,9.14675 z m 0,-3.6587 c 2.97843,0 5.37258,-2.43304 5.37258,-5.48805 0,-3.05501 -2.39416,-5.45833 -5.37258,-5.45833 -2.98298,0 -5.40457,2.40332 -5.40457,5.45833 0,3.05501 2.42159,5.48805 5.40457,5.48805 z"
       inkscape:connector-curvature="0" /><path
       id="path3065"
       style="fill:#ffffff;fill-opacity:0.74509805;fill-rule:nonzero;stroke:none"
       d="m 25.299887,313.83051 c -4.985154,0 -9.06234,-4.13662 -9.06234,-9.14675 0,-5.0067 4.077186,-9.11588 9.06234,-9.11588 4.979402,0 9.030158,4.10918 9.030158,9.11588 0,5.01013 -4.050756,9.14675 -9.030158,9.14675 z m 0,-3.6587 c 2.97855,0 5.37237,-2.43304 5.37237,-5.48805 0,-3.05501 -2.39382,-5.45833 -5.37237,-5.45833 -2.984301,0 -5.404533,2.40332 -5.404533,5.45833 0,3.05501 2.420232,5.48805 5.404533,5.48805 z"
       inkscape:connector-curvature="0" /><path
       id="path3067"
       style="fill:#ffffff;fill-opacity:0.74509805;fill-rule:nonzero;stroke:none"
       d="m 16.228615,281.07026 0,-18.07855 18.258182,0 0,18.07855 -18.258182,0 z m 3.644856,-3.67928 10.932786,0 0,-10.75544 -10.932786,0 0,10.75544 z"
       inkscape:connector-curvature="0" /><path
       id="path3069"
       style="fill:#ffffff;fill-opacity:0.74509805;fill-rule:nonzero;stroke:none"
       d="m 276.98203,281.07026 0,-18.07855 18.25807,0 0,18.07855 -18.25807,0 z m 3.64498,-3.67928 10.93266,0 0,-10.75544 -10.93266,0 0,10.75544 z"
       inkscape:connector-curvature="0" /><path
       id="path3071"
       style="fill:#ffffff;fill-opacity:0.74509805;fill-rule:nonzero;stroke:none"
       d="m 287.24584,248.5707 c 2.66629,-3.71587 5.16334,-7.54836 7.51634,-11.49175 0.21037,0.77289 0.34415,1.59382 0.34415,2.4296 0,4.60882 -3.43918,8.46762 -7.86049,9.06215 z"
       inkscape:connector-curvature="0" /><path
       id="path3073"
       style="fill:#ffffff;fill-opacity:0.74509805;fill-rule:nonzero;stroke:none"
       d="m 23.6742,248.48495 c -4.216975,-0.78091 -7.43174,-4.52421 -7.43174,-8.9764 0,-0.69744 0.07994,-1.37544 0.227329,-2.02829 2.263916,3.76961 4.653324,7.44545 7.204411,11.00469 z"
       inkscape:connector-curvature="0" /><path
       id="path3075"
       style="fill:#ffffff;fill-opacity:0.74509805;fill-rule:nonzero;stroke:none"
       d="m 16.228615,-25.416814 0,-18.080037 18.258182,0 0,18.080037 -18.258182,0 z m 3.644856,-3.645325 10.932786,0 0,-10.78941 -10.932786,0 0,10.78941 z"
       inkscape:connector-curvature="0" /><path
       id="path3077"
       style="fill:#ffffff;fill-opacity:0.74509805;fill-rule:nonzero;stroke:none"
       d="m 57.893231,-25.412355 c -4.97938,0 -9.056547,-4.140165 -9.056547,-9.146756 0,-5.006603 4.077167,-9.120405 9.056547,-9.120405 4.985209,0 9.035964,4.113802 9.035964,9.120405 0,5.006591 -4.050755,9.146756 -9.035964,9.146756 z m 0,-3.658702 c 2.984357,0 5.378177,-2.433151 5.378177,-5.488054 0,-3.054879 -2.39382,-5.458131 -5.378177,-5.458131 -2.978527,0 -5.398759,2.403252 -5.398759,5.458131 0,3.054903 2.420232,5.488054 5.398759,5.488054 z"
       inkscape:connector-curvature="0" /><path
       id="path3079"
       style="fill:#ffffff;fill-opacity:0.74509805;fill-rule:nonzero;stroke:none"
       d="m 81.36392,-25.416814 0,-18.080037 18.25785,0 0,18.080037 -18.25785,0 z m 3.643609,-3.645325 10.934035,0 0,-10.78941 -10.934035,0 0,10.78941 z"
       inkscape:connector-curvature="0" /><path
       id="path3081"
       style="fill:#ffffff;fill-opacity:0.74509805;fill-rule:nonzero;stroke:none"
       d="m 123.18495,-25.412355 c -4.98384,0 -9.06192,-4.140165 -9.06192,-9.146756 0,-5.006603 4.07808,-9.120405 9.06192,-9.120405 4.98384,0 9.03024,4.113802 9.03024,9.120405 0,5.006591 -4.0464,9.146756 -9.03024,9.146756 z m 0,-3.658702 c 2.97852,0 5.37279,-2.433151 5.37279,-5.488054 0,-3.054879 -2.39428,-5.458131 -5.37279,-5.458131 -2.98298,0 -5.40459,2.403252 -5.40459,5.458131 0,3.054903 2.42161,5.488054 5.40459,5.488054 z"
       inkscape:connector-curvature="0" /><path
       id="path3083"
       style="fill:#ffffff;fill-opacity:0.74509805;fill-rule:nonzero;stroke:none"
       d="m 146.53443,-25.416814 0,-18.080037 18.25808,0 0,18.080037 -18.25808,0 z m 3.64384,-3.645325 10.9338,0 0,-10.78941 -10.9338,0 0,10.78941 z"
       inkscape:connector-curvature="0" /><path
       id="path3085"
       style="fill:#ffffff;fill-opacity:0.74509805;fill-rule:nonzero;stroke:none"
       d="m 188.20363,-25.412355 c -4.98384,0 -9.06215,-4.140165 -9.06215,-9.146756 0,-5.006603 4.07831,-9.120405 9.06215,-9.120405 4.98383,0 9.03012,4.113802 9.03012,9.120405 0,5.006591 -4.04629,9.146756 -9.03012,9.146756 z m 0,-3.658702 c 2.97956,0 5.37258,-2.433151 5.37258,-5.488054 0,-3.054879 -2.39302,-5.458131 -5.37258,-5.458131 -2.98298,0 -5.40344,2.403252 -5.40344,5.458131 0,3.054903 2.42046,5.488054 5.40344,5.488054 z"
       inkscape:connector-curvature="0" /><path
       id="path3087"
       style="fill:#ffffff;fill-opacity:0.74509805;fill-rule:nonzero;stroke:none"
       d="m 211.66964,-25.416814 0,-18.080037 18.25692,0 0,18.080037 -18.25692,0 z m 3.64382,-3.645325 10.93382,0 0,-10.78941 -10.93382,0 0,10.78941 z"
       inkscape:connector-curvature="0" /><path
       id="path3089"
       style="fill:#ffffff;fill-opacity:0.74509805;fill-rule:nonzero;stroke:none"
       d="m 253.49088,-25.412355 c -4.98041,0 -9.05758,-4.140165 -9.05758,-9.146756 0,-5.006603 4.07717,-9.120405 9.05758,-9.120405 4.98383,0 9.0347,4.113802 9.0347,9.120405 0,5.006591 -4.05087,9.146756 -9.0347,9.146756 z m 0,-3.658702 c 2.98298,0 5.37715,-2.433151 5.37715,-5.488054 0,-3.054879 -2.39417,-5.458131 -5.37715,-5.458131 -2.97956,0 -5.40002,2.403252 -5.40002,5.458131 0,3.054903 2.42046,5.488054 5.40002,5.488054 z"
       inkscape:connector-curvature="0" /><path
       id="path3091"
       style="fill:#ffffff;fill-opacity:0.74509805;fill-rule:nonzero;stroke:none"
       d="m 276.98203,-25.416814 0,-18.080037 18.25807,0 0,18.080037 -18.25807,0 z m 3.64498,-3.645325 10.93266,0 0,-10.78941 -10.93266,0 0,10.78941 z"
       inkscape:connector-curvature="0" /></g></svg>