<?xml version="1.0" encoding="UTF-8" standalone="no"?>
<!-- Created with Inkscape (http://www.inkscape.org/) -->

<svg
   xmlns:dc="http://purl.org/dc/elements/1.1/"
   xmlns:cc="http://creativecommons.org/ns#"
   xmlns:rdf="http://www.w3.org/1999/02/22-rdf-syntax-ns#"
   xmlns:svg="http://www.w3.org/2000/svg"
   xmlns="http://www.w3.org/2000/svg"
   xmlns:sodipodi="http://sodipodi.sourceforge.net/DTD/sodipodi-0.dtd"
   xmlns:inkscape="http://www.inkscape.org/namespaces/inkscape"
   id="svg2"
   version="1.1"
   inkscape:version="0.48.5 r10040"
   width="369.65347"
   height="487.40051"
   xml:space="preserve"
   sodipodi:docname="fibeamer-mu-econ-dark.pdf"><metadata
     id="metadata8"><rdf:RDF><cc:Work
         rdf:about=""><dc:format>image/svg+xml</dc:format><dc:type
           rdf:resource="http://purl.org/dc/dcmitype/StillImage" /><dc:title></dc:title></cc:Work></rdf:RDF></metadata><defs
     id="defs6" /><sodipodi:namedview
     pagecolor="#ffffff"
     bordercolor="#666666"
     borderopacity="1"
     objecttolerance="10"
     gridtolerance="10"
     guidetolerance="10"
     inkscape:pageopacity="0"
     inkscape:pageshadow="2"
     inkscape:window-width="1280"
     inkscape:window-height="751"
     id="namedview4"
     showgrid="false"
     fit-margin-top="0"
     fit-margin-left="0"
     fit-margin-right="0"
     fit-margin-bottom="0"
     inkscape:zoom="0.85630196"
     inkscape:cx="107.59294"
     inkscape:cy="226.36544"
     inkscape:window-x="0"
     inkscape:window-y="29"
     inkscape:window-maximized="1"
     inkscape:current-layer="g10" /><g
     id="g10"
     inkscape:groupmode="layer"
     inkscape:label="ink_ext_XXXXXX"
     transform="matrix(1.25,0,0,-1.25,-10.030275,432.80113)"><g
       transform="translate(8.70422,7.5321779)"
       inkscape:label="fithesis-econ-white"
       id="g3036"><g
         transform="scale(0.1,0.1)"
         id="g3038"><path
           id="path3040"
           style="fill:#ffffff;fill-opacity:1;fill-rule:nonzero;stroke:none"
           d="m 1324.41,2936.07 0.47,0.08 33.71,-71.8 -54.18,-5.63 20,77.35 z m -25.39,-95.27 68.28,7.07 28.44,-55.94 19.85,8.79 -82.35,155.08 -19.57,-2 -52.5,-169.72 19.73,-4.03 18.12,60.75 z M 734.84,2619.19 c 10.469,-15.23 6.019,-32.54 -10.039,-43.51 -10.891,-7.46 -25.031,-10.2 -36.012,-9.85 l 0.859,-17.42 c 16.563,0.86 30.043,4.53 45.082,14.85 30.11,20.62 31.36,49.37 17.379,69.8 -29.41,42.97 -86.25,-6.13 -106.839,23.95 -11.399,16.64 -2.969,33.2 8.91,41.32 12.89,8.83 24.261,9.61 36.05,9.85 l -2.031,16.95 c -15.539,-1.05 -30.269,-5.04 -43.75,-14.26 -24.371,-16.68 -31.398,-43.32 -16.91,-64.53 32.813,-47.93 83.441,7.7 107.301,-27.15 z m 713.21,328.95 24.72,-0.08 c 26.88,-0.08 36.92,-15.7 36.88,-33.48 -0.08,-23.98 -21.21,-31.36 -41.64,-31.28 l -20.63,0.03 0.67,64.81 z m -0.47,-80.63 13.2,-0.04 c 15.59,-0.03 20.86,-9.64 30.9,-22.89 l 38.94,-53.39 18.29,10.97 -33.25,44.26 c -6.91,8.44 -16.25,23.83 -27.26,25.74 l 0,0.51 c 23.28,3.05 41.8,18.83 41.87,45.98 0.08,27.57 -21.21,43.71 -52.65,43.79 l -50.16,0.15 -1.95,-166.05 20.9,-0.08 1.17,71.05 z m -399.42,12.78 0.47,0.15 46.96,-63.94 -52.11,-15.98 4.68,79.77 z m -197.73,-242.89 -39.219,138.43 0.43,0.2 102.23,-105.43 17.848,8.28 -11.68,147.54 0.43,0.2 79.019,-119.93 16.882,11.53 -0.47,0.7 19.76,-0.12 6.02,63.13 65.62,20.08 38.72,-49.38 17.77,12.46 -110.78,136.25 -18.83,-5.74 -18.59,-176.21 -93.168,138.32 -20.231,-9.41 10.11,-149.89 -104.571,105.98 -19.371,-8.99 42.582,-163.35 19.489,5.35 z m 381.48,180.27 c 3.68,-18.12 -7.18,-32.3 -26.25,-36.17 -12.93,-2.62 -26.99,0.39 -36.99,5 l -5.97,-16.41 c 15.58,-5.66 29.41,-7.5 47.3,-3.9 35.74,7.26 48.12,33.28 43.2,57.5 -10.35,51.05 -81.83,28 -89.06,63.75 -3.98,19.76 10.24,31.71 24.34,34.57 15.31,3.08 26.09,-0.63 37.03,-5 l 4.76,16.36 c -14.76,5.12 -29.88,7.19 -45.86,3.99 -28.94,-5.86 -45.82,-27.66 -40.74,-52.85 11.53,-56.92 79.85,-25.43 88.24,-66.84 z M 653.52,369.23 l -16.719,12.11 38.359,52.23 20.039,-14.492 c 21.75,-15.777 20.781,-34.34 10.391,-48.707 -14.07,-19.461 -35.551,-13.09 -52.07,-1.141 z m 71.171,-7.652 c 16.168,22.344 8.321,47.934 -17.152,66.32 l -40.66,29.422 -98.52,-133.672 16.911,-12.269 42.429,56.992 10.699,-7.73 c 12.622,-9.141 11.293,-20.039 11.723,-36.602 l 0.43,-66.141 21.25,-1.707 -1.141,55.309 c -0.699,10.898 0.711,28.828 -7.109,36.828 l 0.277,0.391 c 20.703,-11.129 44.961,-9.098 60.863,12.859 z m -290.902,186.871 -35.699,41.129 74.762,28.051 0.308,-0.348 -39.371,-68.832 z m 47.383,88.172 -169.024,-54.57 8.051,-18.403 60.11,20.043 44.961,-51.839 -29.411,-55.43 18.59,-11.172 79.653,156.52 -12.93,14.851 z m 88.047,-110.32 c 11.293,-10.742 14.453,-21.723 17.152,-33.199 l 16.129,5.507 c -4.262,15 -11.25,28.59 -23.09,39.84 -21.359,20.313 -48.898,21.68 -66.601,3.051 -40,-42.07 24.921,-80 -4.18,-110.629 -12.731,-13.402 -30.578,-12.609 -44.649,0.75 -9.57,9.098 -15.152,22.379 -17.14,33.199 l -16.879,-4.492 c 4.34,-16.058 10.738,-28.437 23.988,-41.019 26.403,-25.118 54.801,-20.309 71.832,-2.418 35.899,37.73 -23.98,83.078 1.168,109.531 13.871,14.609 31.84,9.797 42.27,-0.121 z m 177.621,-233.942 54.332,-32.187 8.789,14.84 -54.492,32.308 29.179,48.282 55.942,-33.161 8.789,14.879 -73.481,43.551 -85.937,-142.152 75.59,-44.758 8.789,14.84 -57.391,34.027 29.891,49.531 z m 1342.54,2500.041 0.42,-0.24 19.46,-162.42 19.1,-2.23 75.23,144.3 -18.55,9.49 -60.55,-116.48 -0.43,0.19 -20.66,161.72 -18.79,1.21 -74.92,-143.59 18.59,-9.49 61.1,117.54 z m -495.08,-1.33 20.54,-2.07 8.6,70.51 71.4,81.09 -16.83,12.3 -62.03,-76.71 -42.58,87.3 -19.65,-8.4 49.14,-93.47 -8.59,-70.55 z m 386.13,62.5 0.43,-0.2 -1.41,-79.29 -51.09,18.86 52.07,60.63 z m -107.85,-120.82 43.01,46.48 64.41,-23.79 0.86,-62.73 21.68,-0.86 -5.51,175.51 -18.44,6.83 -121.95,-129.18 15.94,-12.26 z m -163.79,43.2 17.77,82.62 17.15,79.73 -20.19,4.17 -34.97,-162.34 20.24,-4.18 z m 132.89,-31.64 46.68,159.41 -19.88,5.63 -46.64,-159.41 19.84,-5.63 z m -34.69,21.91 -55.19,87.62 84.29,55.86 -11.52,15.39 -98.01,-66.52 62.39,-102.58 18.04,10.23 z m -1311.521,-410.07 -124.02,110.47 -13.597,-15.55 124.027,-110.43 13.59,15.51 z M 43.0117,1439.08 c 0.7383,-23.05 19.8399,-40.9 42.8477,-40.12 23.0506,0.74 40.9026,19.8 40.1606,42.85 -0.79,23.05 -19.848,40.9 -42.8989,40.12 -23,-0.74 -40.8516,-19.85 -40.1094,-42.85 z m 59.4103,111.68 c 50.43,-4.69 68.867,22.5 72.187,58.12 3.012,32.27 -6.488,67.34 -59.488,73.05 l -102.8905,10.31 -1.9219,-20.55 101.7224,-10.23 c 37.5,-3.48 47.739,-25.66 45.508,-49.53 -2.738,-29.42 -17.809,-43.91 -48.16,-41.1 -15.3204,1.45 -31.0587,3.17 -46.5704,4.85 L 1.91016,1581.85 0,1561.26 l 57.3008,-5.82 c 16.9609,-1.79 31.7578,-3.43 45.1212,-4.68 z m -82.2618,207.11 3.5507,-18.48 157.9691,-36.02 4.449,20.39 -129.2188,29.26 0.121,0.47 152.1488,60.08 -2.7,19.02 -158.6714,36.13 -4.4492,-20.39 128.0506,-28.94 -0.121,-0.51 -151.1288,-61.01 z m 205.7378,123.39 -158.3199,50.12 -6.0976,-19.73 158.3595,-50.11 6.058,19.72 z m 211.524,-1221.17 13.988,10.16 -73.75,101.871 -13.988,-10.152 30.816,-42.539 -121.367,-86.129 12.109,-16.723 121.372,86.094 30.82,-42.582 z m -342.5431,590.55 17.1521,2.3 -8.91,65.9 55.981,7.07 9.097,-67.58 17.11,2.35 -11.868,88.01 -164.76912,-20.82 2.80862,-20.67 74.5703,9.06 8.8281,-65.62 z m 140.0001,-441.492 93.242,44.774 -9.062,18.547 -92.149,-44.25 c -33.859,-16.571 -54.14,-2.969 -64.68,18.59 -12.968,26.519 -7.621,46.761 19.758,60.16 13.793,6.75 28.133,13.472 42.274,20.109 l 55.148,26.492 -9.058,18.508 -51.954,-24.879 c -15.386,-7.258 -28.867,-13.551 -40.937,-19.488 -45.512,-22.231 -47.07,-55.082 -31.371,-87.191 14.219,-29.098 40.629,-54.141 88.789,-31.372 z M 114.41,1147.2 l -12.109,53.13 79.219,-10.47 0.082,-0.47 -67.192,-42.19 z m 83.36,55.47 -174.8403,31.48 -1.5586,-20.03 62.5,-10.63 15.2695,-66.91 -52.0703,-35 11.1289,-18.64 143.9488,100.55 -4.378,19.18 z m 239.3,1308.71 104.141,-106.29 14.609,14.61 -104.179,106.29 37.187,37.15 -12.187,12.23 -88.981,-88.91 12.219,-12.23 37.191,37.15 z m 1846.56,187.23 0.39,-0.28 -19.84,-76.75 -45.31,30.27 64.76,46.76 z m -133.04,-92.39 52.69,35.24 57.07,-38.13 -13.79,-61.25 20.9,-5.86 35.55,171.96 -16.37,10.94 -148.67,-97.19 12.62,-15.71 z m -1609.262,-0.85 0.352,0.31 68.121,-40.63 -41.75,-34.96 -26.723,75.28 z m 51.25,-153.64 -18.988,60.47 52.66,44.06 54.879,-30.43 11.531,18.4 -155.082,82.42 -15.078,-12.61 51.52,-170 18.558,7.69 z m -314.566,-244.65 -54.492,35.12 13.242,20.9 c 14.41,22.7 32.968,22.85 47.968,13.36 20.27,-12.85 15.231,-34.69 4.329,-51.91 l -11.047,-17.47 z m 72.968,-47.11 -59.46,38.87 7.031,11.13 c 8.359,13.17 19.301,12.5 35.859,13.95 l 65.942,4.49 0.429,21.33 -55.16,-4.53 c -10.82,-1.37 -28.781,-1.06 -36.32,-9.38 l -0.391,0.28 c 9.801,21.33 6.32,45.43 -16.57,59.96 -23.32,14.76 -48.32,5.35 -65.149,-21.21 l -26.882,-42.39 139.492,-90.11 11.179,17.61 z m -20.468,-34.37 -15.391,7.85 -30.391,-59.37 -51.289,26.75 28.75,56.18 -15.39,7.89 -28.871,-56.41 -49.961,26.13 29.609,57.89 -15.348,7.89 -38.949,-76.05 147.188,-76.95 40.043,78.2 z m -252.3518,-170.7 173.8708,1.32 7.071,17.86 -126.563,125.27 -12.379,-15.74 112.809,-109.03 -155.0002,2.07 0.1914,-21.75 z M 309.77,2326.38 c 46.011,-35.47 77.031,33.09 110.46,7.27 14.649,-11.25 15.75,-29.1 3.872,-44.5 -8.051,-10.46 -20.661,-17.38 -31.211,-20.46 l 6.211,-16.29 c 15.507,5.9 27.148,13.59 38.277,28.04 22.312,28.91 14.57,56.64 -5,71.72 -41.25,31.8 -80.149,-32.46 -109.059,-10.15 -15.941,12.3 -13.011,30.62 -4.218,42.03 9.488,12.38 20.078,16.64 31.207,20.47 l -7.149,15.5 c -14.449,-5.82 -27.219,-14.14 -37.219,-27.07 -18.011,-23.36 -16.492,-50.89 3.829,-66.56 z m 43.902,-1513.482 -10.902,17.5 -141.79,-86.437 48.282,-77.66 14.687,9.097 -37.39,60.161 127.113,77.339 z M 2107.3,341.379 l 58.64,-117.457 -0.43,-0.231 -142.97,78.36 -12.03,-14.461 72.15,-145.078 18.63,9.5 -59.18,118.508 0.43,0.242 142.85,-79.774 13.01,14.141 -72.5,145.699 -18.6,-9.449 z m 277.43,2194.021 14.45,-13 c 17.81,-16.1 21.44,-33.56 7.97,-48.56 -15.43,-17.11 -31.53,-14.88 -47.23,-0.74 l -18.01,16.21 42.82,46.09 z m 49.18,53.87 12.3,-11.05 c 19.81,-17.85 20.7,-32.23 8.36,-45.98 -11.41,-12.66 -27.5,-13.67 -47.66,4.49 l -11.6,10.43 38.6,42.11 z m -12.74,-130.66 c 14.14,15.7 15.67,35.31 2.54,52.3 l 0.35,0.35 c 17.93,-8.75 33.95,-6.01 47.58,9.14 12.38,13.72 17.74,38.29 -9.37,62.74 l -34.26,30.82 -112.19,-122.42 34.57,-31.17 c 24.26,-21.84 51.06,-23.68 70.78,-1.76 z m 199.61,-1639.919 77.85,-15.32 -27.54,-46.992 -50.54,61.883 0.23,0.429 z m -20.86,1.36 105.78,-142.653 14.92,13.512 -38.28,50.512 34.73,59.219 61.91,-10.161 4.65,21.211 -173.75,25.36 -9.96,-17 z m 57.62,-189.141 c -22.97,-30.781 -64.1,-34.531 -94.88,-11.558 -30.78,22.968 -38.87,63.476 -15.9,94.257 9.76,13.039 20.27,21.95 35.7,26.95 l -7.93,16.679 c -16.68,-7.886 -29.73,-17.34 -41.64,-33.316 -29.41,-39.41 -24.22,-91.844 16.56,-122.274 43.48,-32.418 92.5,-20.5 121.92,18.911 10.51,14.019 15.82,32.812 17.93,50.121 l -16.6,2.218 c -1.92,-15.027 -6.41,-30.269 -15.16,-41.988 z m -203.59,-10.66 124.14,-110.352 13.59,15.543 -124.14,110.36 -13.59,-15.551 z m -46.61,-51.449 56.37,-139.223 -132.38,68.051 -15.63,-14.609 91.45,-141.872 16.83,11.133 -80.46,119.34 0.35,0.309 130.04,-68.321 14.33,13.442 -57.11,136.558 0.35,0.313 112.5,-89.301 12.43,16.25 -132.74,103.207 -16.33,-15.277 z m 303.28,1353.519 126.72,38.67 0.16,-0.47 -102.42,-127.62 11.8,-15.15 155.74,47.22 -6.25,19.93 -125.59,-38.28 -0.16,0.43 101.06,127.92 -12.27,14.3 -155.03,-46.99 6.24,-19.96 z m -180.82,334.3 c 19.11,-26.18 49.46,-46.22 92.93,-15.43 l 84.03,60.35 -12.15,16.68 -83.09,-59.61 c -30.43,-22.23 -52.77,-12.35 -66.91,7.03 -17.38,23.87 -15.66,44.73 8.98,62.69 12.43,9.03 25.36,18.17 38.09,27.15 l 49.77,35.67 -12.15,16.68 -46.84,-33.52 c -13.91,-9.84 -26.09,-18.44 -36.95,-26.33 -40.9,-29.84 -36.76,-62.46 -15.71,-91.36 z m 67.39,-93.79 116.21,63.55 0.23,-0.39 -74.33,-145.78 14.65,-12.42 142.89,77.85 -10.16,18.24 -115.2,-63.01 -0.23,0.43 72.93,145.78 -14.88,11.49 -142.27,-77.5 10.16,-18.24 z m -65.9,333.63 16.68,-18.2 c 18.12,-19.85 13.44,-37.82 0.35,-49.81 -17.7,-16.21 -37.46,-5.66 -51.21,9.38 l -13.95,15.23 48.13,43.4 z m -112.7,-101.52 53.05,47.22 8.91,-9.72 c 10.54,-11.49 7.03,-21.88 4.1,-38.25 l -12.89,-64.8 20.47,-6.02 10.04,54.46 c 1.48,10.78 6.52,28.04 0.46,37.5 l 0.36,0.35 c 18,-15.08 42.18,-18.01 62.18,0.31 20.35,18.63 17.78,45.23 -3.43,68.44 l -33.91,36.99 -123.44,-111.09 14.1,-15.39 z m 419.96,-1278.05 -98.24,32.38 -6.33,-19.65 97.11,-32.03 c 35.86,-11.52 41.06,-35.39 33.68,-58.24 -9.03,-28.09 -26.92,-38.98 -55.94,-29.65 -14.61,4.73 -29.61,9.81 -44.38,14.81 l -58.12,19.21 -6.33,-19.64 54.69,-18.13 c 16.17,-5.43 30.23,-10.231 43.04,-14.329 48.21,-15.512 72.11,7.027 83.05,41.049 9.92,30.86 8.28,67.19 -42.23,84.22 z m -103.08,-208.992 -8.48,-18.777 -58.9,27.07 10.19,22.5 c 11.02,24.528 29.42,27.297 45.59,20 21.87,-9.89 20,-32.152 11.6,-50.793 z m 45,5.793 64.65,13.778 -2.58,21.179 -53.99,-12.308 c -10.5,-2.891 -28.35,-5.078 -34.64,-14.371 l -0.43,0.191 c 6.72,22.5 -0.12,45.86 -24.85,57.031 -25.15,11.329 -48.59,-1.519 -61.52,-30.191 l -20.63,-45.699 150.82,-69.61 8.6,19.059 -64.38,30.078 5.43,12.031 c 6.41,14.219 17.35,15.082 33.52,18.832 z m -7.58,404.329 129.06,-76.83 -146.6,-25.86 -3.59,-21.06 158.59,-57.77 6.68,19.06 -136.21,46.41 0.08,0.47 144.88,24.18 3.32,19.41 -128.05,74.22 0.08,0.51 143.6,-3.17 0.07,20.47 -168.12,1.95 -3.79,-21.99 z M 2300.55,283.102 c -31.64,-21.762 -71.76,-12.071 -93.52,19.57 -21.76,31.68 -16.41,72.617 15.24,94.379 31.64,21.711 71.79,12.07 93.55,-19.61 21.76,-31.64 16.41,-72.582 -15.27,-94.339 z m -88.05,128.16 c -40.55,-27.852 -52.5,-79.141 -23.67,-121.09 30.7,-44.692 80.97,-49.184 121.52,-21.332 40.55,27.89 52.46,79.18 23.67,121.101 -30.74,44.719 -80.97,49.207 -121.52,21.321 z m -589.18,-373.2815 -6.09,57.539 62.69,7.1525 -1.95,17.187 -62.93,-7.187 -5.94,56.047 64.61,7.429 -1.95,17.153 -84.88,-9.692 17.42,-165.1988 87.26,10 -1.95,17.1484 -66.29,-7.5781 z m 177.54,25.7109 c -37.54,-8.0117 -70.94,16.25 -78.98,53.7776 -8.01,37.582 12.57,73.402 50.11,81.41 15.98,3.402 29.77,3.172 44.61,-3.199 l 5.04,17.73 c -17.77,5.039 -33.79,6.531 -53.24,2.391 -48.13,-10.321 -78.75,-53.172 -68.09,-102.93 11.33,-53.0116 56.06,-76.3319 104.18,-66.1015 17.11,3.6719 33.52,14.3008 46.49,25.9024 l -11.02,12.6172 C 1828.59,75.25 1815.2,66.7305 1800.86,63.6914 z m -600.12,1.4375 -22.97,147.1091 -20.97,3.981 -60.86,-157.4573 18.94,-7.0312 49.07,135.3205 0.46,-0.121 21.33,-145.3089 19.34,-3.7227 76.72,126.6136 0.47,-0.082 -5.9,-143.5589 20.43,-0.4727 5.23,168.0896 -21.91,4.184 -79.38,-127.5431 z m 278.83,-37.8477 c -38.4,-0.121 -66.09,30.5079 -66.21,68.9102 -0.12,38.3866 27.38,69.2066 65.78,69.3286 38.4,0.121 66.09,-30.508 66.21,-68.8989 0.12,-38.4023 -27.38,-69.2227 -65.78,-69.3399 z m -0.51,155.5468 c -49.18,-0.199 -87.97,-35.816 -87.77,-86.7186 0.16,-54.2188 39.14,-86.25002 88.36,-86.0977 49.18,0.1602 87.97,35.7891 87.77,86.6797 -0.15,54.2186 -39.14,86.2496 -88.36,86.1366 z m -386.52,52.422 -33.95,-96.449 c -12.22,-35.621 -36.21,-40.3518 -58.899,-32.539 -27.89,9.609 -38.441,27.699 -28.519,56.527 5,14.531 10.387,29.41 15.668,44.102 l 20.35,57.687 -19.53,6.723 -19.18,-54.289 c -5.75,-16.063 -10.82,-30.043 -15.199,-42.742 -16.441,-47.891 5.629,-72.219 39.449,-83.8716 30.63,-10.539 67,-9.5976 85,40.5506 l 34.3,97.582 -19.49,6.719 z m 866.72,-125.672 c -36.21,-12.7264 -72.42,7.113 -85.2,43.32 -12.73,36.223 3.13,74.383 39.34,87.114 36.25,12.738 72.46,-7.114 85.19,-43.321 12.74,-36.211 -3.08,-74.332 -39.33,-87.113 z m -51.56,146.723 c -46.41,-16.332 -71.33,-62.731 -54.46,-110.742 18.01,-51.1293 65.35,-68.5902 111.76,-52.2582 46.41,16.3202 71.33,62.7302 54.41,110.7382 -17.96,51.172 -65.31,68.59 -111.71,52.262 z m 864.84,1403.559 164.69,21.44 -2.85,20.43 -164.69,-21.4 2.85,-20.47 z m 93.75,-182.15 c -23.05,0.86 -42.19,-16.95 -43.01,-40 -0.86,-23.01 16.95,-42.15 40,-42.97 23.01,-0.86 42.15,16.95 42.97,39.96 0.86,23.05 -16.95,42.19 -39.96,43.01 z m 5.23,342.07 c -56.91,-11.56 -25.35,-79.84 -66.75,-88.28 -18.13,-3.67 -32.31,7.15 -36.18,26.17 -2.65,12.97 0.36,27.03 4.96,37.03 l -16.4,5.98 c -5.67,-15.63 -7.5,-29.46 -3.87,-47.35 7.31,-35.74 33.32,-48.08 57.54,-43.12 51.02,10.39 27.93,81.84 63.67,89.1 19.73,4.02 31.72,-10.19 34.57,-24.3 3.13,-15.31 -0.58,-26.09 -4.96,-37.03 l 16.41,-4.72 c 5.08,14.72 7.15,29.88 3.9,45.86 -5.89,28.9 -27.69,45.78 -52.89,40.66 z M 103.121,985.129 c -12.6913,36.251 7.149,72.461 43.399,85.161 36.21,12.69 74.339,-3.17 87.07,-39.42 5.39,-15.39 6.879,-29.1 2.43,-44.679 l 18.242,-2.742 c 2.769,18.241 2.218,34.341 -4.383,53.171 -16.289,46.4 -62.649,71.32 -110.66,54.53 -51.2073,-17.97 -68.6682,-65.32 -52.3792,-111.72 5.7813,-16.559 18.3902,-31.45 31.5582,-42.852 l 11.09,12.543 c -11.398,10 -21.519,22.18 -26.367,36.008 z M 2939.65,1550.95 c 6.87,14.02 10.82,28.75 9.61,45.04 -2.27,29.41 -21.8,48.91 -47.38,46.95 -57.93,-4.41 -35.16,-76.09 -77.27,-79.25 -18.44,-1.41 -31.17,11.09 -32.66,30.46 -0.97,13.17 3.75,26.76 9.53,36.14 l -15.5,7.97 c -7.54,-14.81 -11.1,-28.32 -9.69,-46.49 2.73,-36.37 27.03,-51.87 51.68,-50 51.91,3.95 37.89,77.74 74.26,80.51 20.11,1.48 30.19,-14.1 31.29,-28.48 1.17,-15.54 -3.83,-25.78 -9.54,-36.09 l 15.67,-6.76 z M 921.84,248.719 c -10.281,-21.668 -32.578,-19.328 -50.981,-10.578 l -18.668,8.871 28.239,58.316 22.3,-10.59 c 24.301,-11.519 26.719,-29.957 19.11,-46.019 z m -8.602,56.961 -45.308,21.519 -72.5,-149.41 18.871,-8.988 31.32,63.789 11.918,-5.66 c 14.102,-6.68 14.762,-17.621 18.199,-33.871 l 12.5,-64.918 21.211,2.148 -11.211,54.223 c -2.687,10.539 -4.527,28.429 -13.707,34.918 l 0.239,0.429 c 22.339,-7.148 45.82,-0.781 57.46,23.75 11.829,24.922 -0.55,48.59 -28.992,62.071 z m 1783.752,1653.83 15.86,6.83 -26.33,61.29 53.36,22.38 24.89,-57.96 15.89,6.79 -25,58.24 52,21.8 25.7,-59.73 15.86,6.8 -33.75,78.52 -153.17,-64.22 34.69,-80.74 z M 1362.38,1660.6 c -9.61,-4.88 -21.21,-1.29 -25.93,8.01 l 34.64,17.65 c 4.77,-9.29 0.86,-20.78 -8.71,-25.66 z m 124.42,-211.95 c 0.9,19.72 9.41,39.25 25.11,53.67 l 24.77,22.65 c 6.8,6.25 14.45,10.86 22.5,14.26 0.16,4.77 0.23,9.49 0.2,14.1 -0.9,55.59 -16.14,103.52 -50.43,135.59 -11.8,11.13 -44.81,33.24 -83.36,33.48 -36.49,0.23 -79.93,-0.59 -158.44,-61.92 -21.68,-16.95 -24.45,-24.22 -8.13,-42.11 13.36,-14.65 58.4,-20.66 82.27,-19.72 42.3,1.6 65.66,17.85 75.35,46.64 19.06,0.78 30.27,-3.79 40.2,-12.62 13.08,-11.8 25.19,-37.77 25.82,-80.55 0.58,-30.9 -5.28,-69.76 -18.71,-114.53 6.99,5.35 14.76,9.06 22.85,11.06 z m -318.64,262.07 c -27.34,25.31 -70.04,23.67 -95.39,-3.67 -25.27,-27.31 -23.67,-70 3.68,-95.32 17.07,-15.82 40.11,-21.13 61.21,-16.21 l 251.36,-228.08 49.93,47.11 -249.97,236.36 c 3.29,21.41 -3.75,43.99 -20.82,59.81 z m -36.87,-263.6 c 9.65,-4.02 14.14,-15.31 10,-25.23 -4.14,-9.92 -15.31,-14.73 -24.96,-10.7 l 14.96,35.93 z m -6.84,-173.36 c 31.14,-28.51 74.03,-40.58 122.74,-40.31 l 101.91,96.29 c -34.3,-11.52 -64.84,-17.77 -90.27,-19.3 -42.7,-2.61 -69.49,7.46 -82.27,19.61 -9.57,9.22 -15,20.04 -15.62,39.14 27.93,11.84 42.34,36.41 40.74,78.68 -0.94,23.9 -10.39,68.32 -26.02,80.5 -19.06,14.93 -26.09,11.64 -41.32,-11.29 -55.16,-82.96 -52.7,-126.36 -49.65,-162.69 3.2,-38.4 27.77,-69.69 39.76,-80.63 z m 630.16,-238.08 31.44,-28.52 c 11.65,-10.781 29.85,-10.109 40.67,1.56 10.78,11.68 10.08,29.89 -1.6,40.67 l -9.14,8.67 -25.04,17.42 c -19.18,13.13 -42.31,26.72 -85.82,26.96 -16.21,0 -35.28,-2.07 -57.89,-7.23 4.88,-8.16 10.58,-15.51 17.03,-21.41 29.45,-26.17 68.32,-32.65 90.35,-38.12 z m -190.43,288.98 c 27.03,1.45 41.33,-4.53 51.17,-13.44 7.74,-7.26 14.53,-18.67 18.48,-37.96 2.54,-12.31 3.55,-27.62 2.69,-45.55 l -98.47,93.12 c 9.53,2.07 18.32,3.4 26.13,3.83 z m 11.21,-126.36 c 13.24,0.66 28.79,2.73 46.49,6.79 15.27,3.48 29.72,4.88 43.24,4.88 12.46,0 24.14,-1.17 34.96,-3.04 3.83,-0.71 7.69,-1.56 11.56,-2.5 3.13,30.58 2.54,58.59 -2.62,84.1 -6.13,30.74 -19.57,58.59 -41.56,78.94 -12.66,11.84 -27.66,20.28 -43.98,25.86 l -6.37,-5.82 c -14.88,-13.63 -33.83,-20.46 -52.54,-20.46 -1.05,0 -2.11,0.03 -3.12,0.07 -3.29,-9.57 -8.95,-18.51 -17.07,-25.93 L 1416.29,1227.4 c 3.59,-33.99 16.72,-64.96 40.74,-87.03 45.82,-42.54 116.33,-43.44 185.86,-27.66 87.54,20.04 130.51,-3.09 158.36,-22.46 -5.12,21.72 -23.05,51.8 -46.41,73.47 -13.32,12.31 -36.75,21.92 -57.73,25.43 -21.06,3.6 -44.49,4.42 -71.25,-1.64 -44.65,-10.19 -93.28,-12.5 -116.68,9.11 -9.65,9.14 -16.64,22.93 -17.34,50 -0.12,7.65 0.46,16.4 1.75,25.89 l 81.8,-74.21 z m 300.39,531.83 c -18.59,20.27 -50.16,21.68 -70.47,3.09 0,0 -15.15,-20.32 -40.35,-59.3 -21.05,6.17 -44.73,1.6 -62.07,-14.3 l -89.92,-82.46 c -14.49,-13.28 -21.56,-31.56 -20.98,-49.76 -15.31,0.7 -30.9,-4.5 -43.12,-15.71 L 1524.1,1489 c -16.25,-14.88 -22.34,-36.64 -18.01,-56.72 -12.11,1.05 -24.61,-2.62 -34.29,-11.48 l -373.95,-353.13 c -15.08,-13.83 -16.09,-37.27 -2.3,-52.3 14.22,-15.55 39.92,-13.68 52.34,-2.31 l 384.53,341.56 c 9.69,8.87 14.46,20.98 14.46,33.13 5.74,-1.76 11.67,-2.7 17.69,-2.7 14.45,0 28.91,5.24 40.39,15.75 l 24.77,22.69 c 12.18,11.21 18.71,26.29 19.33,41.56 2.58,-0.27 5.12,-0.5 7.7,-0.5 15.66,0 31.33,5.66 43.75,17.07 l 89.92,82.42 c 17.42,15.93 24.06,39.14 19.69,60.7 50.86,28.83 62.58,34.92 62.58,34.92 20.27,18.6 21.68,50.16 3.08,70.47 z m 81.1,-753.321 220,0 0,790.701 -220,0 0,-790.701 z M 634.879,850.602 l 1678.951,0 0,97.847 -1678.951,0 0,-97.847 z m 137,126.207 220,0 0,790.701 -220,0 0,-790.701 z m 1515.001,1065.821 -1625.04,0 0,-153.32 1625.04,0 0,153.32 z m -49.97,-187.3 0,3.98 -340.11,0 0,-3.98 c 0,-32.86 27.46,-59.5 61.29,-59.5 l 217.53,0 c 33.83,0 61.29,26.64 61.29,59.5 z m -1125.19,345.62 362.66,148.56 362.61,-148.56 -725.27,0 z m 1275.16,-76.56 -912.54,382.42 -912.5,-382.42 24.449,-50.55 1776.171,0 24.42,50.55 z m -1334.97,-269.06 0,3.98 -340.109,0 0,-3.98 c 0,-32.86 27.461,-59.5 61.289,-59.5 l 217.531,0 c 33.829,0 61.289,26.64 61.289,59.5 z M 549.059,718.449 l 1850.591,0 0,97.891 -1850.591,0 0,-97.891"
           inkscape:connector-curvature="0" /></g></g><path
       id="path3003"
       style="fill:#ffffff;fill-opacity:0.74509805;fill-rule:nonzero;stroke:none"
       d="m 293.1901,68.779563 c -0.71004,-1.139801 -1.43834,-2.278686 -2.17465,-3.398706 0.27669,-0.665541 0.42874,-1.403342 0.42874,-2.175099 0,-3.054902 -2.38957,-5.458098 -5.37255,-5.458098 -0.1212,0 -0.2504,0.01829 -0.37045,0.02722 -0.80035,-1.076801 -1.60411,-2.170983 -2.43075,-3.229948 0.88494,-0.290295 1.82706,-0.454594 2.8012,-0.454594 4.98383,0 9.0347,4.108837 9.0347,9.115428 0,2.090148 -0.73289,4.023658 -1.91624,5.573805 z"
       inkscape:connector-curvature="0" /><path
       id="path3005"
       style="fill:#ffffff;fill-opacity:0.74509805;fill-rule:nonzero;stroke:none"
       d="m 17.929786,68.493726 c -1.066525,-1.501097 -1.687326,-3.323245 -1.687326,-5.287968 0,-5.006591 4.077178,-9.115428 9.061897,-9.115428 0.853038,0 1.673926,0.142918 2.455916,0.370214 -0.839158,1.075888 -1.670312,2.188362 -2.483162,3.287116 -2.970454,0.01383 -5.377285,2.411314 -5.377285,5.458098 0,0.62884 0.09826,1.240757 0.285836,1.799853 -0.763721,1.155921 -1.52297,2.3131 -2.255876,3.488115 z"
       inkscape:connector-curvature="0" /><path
       id="path3007"
       style="fill:#ffffff;fill-opacity:0.74509805;fill-rule:nonzero;stroke:none"
       d="m 16.228615,39.575115 0,-18.079478 18.258182,0 0,18.079478 -18.258182,0 z m 3.644856,-3.644753 10.932786,0 0,-10.754184 -10.932786,0 0,10.754184 z"
       inkscape:connector-curvature="0" /><path
       id="path3009"
       style="fill:#ffffff;fill-opacity:0.74509805;fill-rule:nonzero;stroke:none"
       d="m 49.001555,32.049622 c -0.09387,-0.523424 -0.173788,-1.049591 -0.173788,-1.59931 0,-5.011051 4.077165,-9.119544 9.061918,-9.119544 1.31256,0 2.559148,0.28938 3.688658,0.799426 -1.312673,0.932969 -2.608311,1.888805 -3.889657,2.858361 -2.371525,0.08941 -4.341622,1.687348 -4.971261,3.916869 -1.255507,1.031754 -2.497066,2.081231 -3.71587,3.144198 z"
       inkscape:connector-curvature="0" /><path
       id="path3011"
       style="fill:#ffffff;fill-opacity:0.74509805;fill-rule:nonzero;stroke:none"
       d="m 262.31979,32.392625 c -1.17879,-1.031182 -2.36672,-2.05802 -3.57295,-3.058447 -0.49963,-2.505981 -2.65256,-4.345623 -5.26054,-4.345623 -0.0765,0 -0.15206,0 -0.22867,0 -1.22794,-0.929425 -2.46047,-1.849017 -3.71586,-2.743112 1.19708,-0.588594 2.53252,-0.914675 3.94453,-0.914675 4.98385,0 9.03471,4.108493 9.03471,9.119544 0,0.665426 -0.0675,1.313473 -0.20123,1.942313 z"
       inkscape:connector-curvature="0" /><path
       id="path3013"
       style="fill:#ffffff;fill-opacity:0.74509805;fill-rule:nonzero;stroke:none"
       d="m 276.98203,39.575115 0,-18.079478 18.25807,0 0,18.079478 -18.25807,0 z m 3.64498,-3.644753 10.93266,0 0,-10.754184 -10.93266,0 0,10.754184 z"
       inkscape:connector-curvature="0" /><path
       id="path3015"
       style="fill:#ffffff;fill-opacity:0.74509805;fill-rule:nonzero;stroke:none"
       d="m 48.778602,7.1685026 0,-18.0800486 18.25784,0 0,18.0800486 -18.25784,0 z m 3.680197,-3.6453246 10.932775,0 0,-10.75407 -10.932775,0 0,10.75407 z"
       inkscape:connector-curvature="0" /><path
       id="path3017"
       style="fill:#ffffff;fill-opacity:0.74509805;fill-rule:nonzero;stroke:none"
       d="m 88.044486,6.8102933 c -3.809629,-1.0848052 -6.631403,-4.613167 -6.631403,-8.7751691 0,-5.0065912 4.077167,-9.1154282 9.061921,-9.1154282 4.98384,0 9.030136,4.108837 9.030136,9.1154282 0,1.6248063 -0.4515,3.1571168 -1.196846,4.4876268 -3.4792,1.3139312 -6.90478,2.7520299 -10.263808,4.2875423 z M 90.475004,3.523178 c 2.97853,0 5.37281,-2.4340664 5.37281,-5.4880538 0,-3.0549026 -2.39429,-5.4580982 -5.37281,-5.4580982 -2.983906,0 -5.404591,2.4031956 -5.404591,5.4580982 0,3.0539874 2.420685,5.4880538 5.404591,5.4880538 z"
       inkscape:connector-curvature="0" /><path
       id="path3019"
       style="fill:#ffffff;fill-opacity:0.74509805;fill-rule:nonzero;stroke:none"
       d="m 113.91357,-2.4517119 0,-8.4598341 18.26618,0 0,4.7439647 c -1.22795,0.1782477 -2.44334,0.3703287 -3.66224,0.5716718 l 0,-1.6256065 -10.91529,0 0,3.8274591 c -1.23275,0.2938399 -2.46984,0.6199221 -3.68865,0.942345 z"
       inkscape:connector-curvature="0" /><path
       id="path3021"
       style="fill:#ffffff;fill-opacity:0.74509805;fill-rule:nonzero;stroke:none"
       d="m 162.81795,-7.650271 c -2.42961,-0.112161 -4.88551,-0.201457 -7.34256,-0.201457 -2.27755,0 -4.52421,0.07546 -6.77546,0.17013 1.66128,-2.072769 4.22123,-3.398706 7.0613,-3.398706 2.84921,0 5.40459,1.335312 7.05672,3.430033 z"
       inkscape:connector-curvature="0" /><path
       id="path3023"
       style="fill:#ffffff;fill-opacity:0.74509805;fill-rule:nonzero;stroke:none"
       d="m 197.35039,-2.3623028 c -1.21881,-0.3260811 -2.42961,-0.6485051 -3.66215,-0.9469174 l 0,-3.9122958 -10.9155,0 0,1.6836885 c -1.22337,-0.205459 -2.4559,-0.3929677 -3.68843,-0.5716718 l 0,-4.8020467 18.26608,0 0,8.5492432 z"
       inkscape:connector-curvature="0" /><path
       id="path3025"
       style="fill:#ffffff;fill-opacity:0.74509805;fill-rule:nonzero;stroke:none"
       d="M 223.01733,6.8688317 C 219.72106,5.3552724 216.38936,3.9305506 212.98218,2.63983 c -0.79462,-1.3630956 -1.28626,-2.9307351 -1.28626,-4.6047058 0,-5.0065912 4.07718,-9.1154282 9.06216,-9.1154282 4.98384,0 9.03471,4.108837 9.03471,9.1154282 0,4.2250009 -2.88008,7.8113295 -6.77546,8.8337075 z M 220.75808,3.523178 c 2.98298,0 5.37257,-2.4340664 5.37257,-5.4880538 0,-3.0549026 -2.38959,-5.4580982 -5.37257,-5.4580982 -2.97956,0 -5.40001,2.4031956 -5.40001,5.4580982 0,3.0539874 2.42045,5.4880538 5.40001,5.4880538 z"
       inkscape:connector-curvature="0" /><path
       id="path3027"
       style="fill:#ffffff;fill-opacity:0.74509805;fill-rule:nonzero;stroke:none"
       d="m 244.21836,7.1685026 0,-18.0800486 18.25806,0 0,18.0800486 -18.25806,0 z m 3.68042,-3.6453246 10.93381,0 0,-10.75407 -10.93381,0 0,10.75407 z"
       inkscape:connector-curvature="0" /><path
       id="path3029"
       style="fill:#ffffff;fill-opacity:0.74509805;fill-rule:nonzero;stroke:none"
       d="m 286.06247,7.1774212 c -4.98383,0 -9.06215,-4.1401653 -9.06215,-9.1467563 0,-5.0065909 4.07832,-9.1203439 9.06215,-9.1203439 4.97928,0 9.03015,4.113753 9.03015,9.1203439 0,5.006591 -4.05087,9.1467563 -9.03015,9.1467563 z m 0,-3.6587025 c 2.97843,0 5.37258,-2.4340664 5.37258,-5.4880538 0,-3.0549015 -2.39416,-5.4580969 -5.37258,-5.4580969 -2.98298,0 -5.40457,2.4031954 -5.40457,5.4580969 0,3.0539874 2.42159,5.4880538 5.40457,5.4880538 z"
       inkscape:connector-curvature="0" /><path
       id="path3031"
       style="fill:#ffffff;fill-opacity:0.74509805;fill-rule:nonzero;stroke:none"
       d="m 25.299887,7.1774212 c -4.985154,0 -9.06234,-4.1401653 -9.06234,-9.1467563 0,-5.0065909 4.077186,-9.1203439 9.06234,-9.1203439 4.979402,0 9.030158,4.113753 9.030158,9.1203439 0,5.006591 -4.050756,9.1467563 -9.030158,9.1467563 z m 0,-3.6587025 c 2.97855,0 5.37237,-2.4340664 5.37237,-5.4880538 0,-3.0549015 -2.39382,-5.4580969 -5.37237,-5.4580969 -2.984301,0 -5.404533,2.4031954 -5.404533,5.4580969 0,3.0539874 2.420232,5.4880538 5.404533,5.4880538 z"
       inkscape:connector-curvature="0" /><path
       id="path3033"
       style="fill:#ffffff;fill-opacity:0.74509805;fill-rule:nonzero;stroke:none"
       d="m 16.228615,346.2409 0,-18.07857 18.258182,0 0,18.07857 -18.258182,0 z m 3.644856,-3.64384 10.932786,0 0,-10.79088 -10.932786,0 0,10.79088 z"
       inkscape:connector-curvature="0" /><path
       id="path3035"
       style="fill:#ffffff;fill-opacity:0.74509805;fill-rule:nonzero;stroke:none"
       d="m 57.893231,346.2409 c -4.97938,0 -9.056547,-4.14005 -9.056547,-9.14675 0,-5.00671 4.077167,-9.11932 9.056547,-9.11932 4.985209,0 9.035964,4.11261 9.035964,9.11932 0,5.0067 -4.050755,9.14675 -9.035964,9.14675 z m 0,-3.65756 c 2.984357,0 5.378177,-2.43418 5.378177,-5.48919 0,-3.05502 -2.39382,-5.45719 -5.378177,-5.45719 -2.978527,0 -5.398759,2.40217 -5.398759,5.45719 0,3.05501 2.420232,5.48919 5.398759,5.48919 z"
       inkscape:connector-curvature="0" /><path
       id="path3037"
       style="fill:#ffffff;fill-opacity:0.74509805;fill-rule:nonzero;stroke:none"
       d="m 81.36392,346.2409 0,-18.07857 18.25785,0 0,18.07857 -18.25785,0 z m 3.643609,-3.64384 10.934035,0 0,-10.79088 -10.934035,0 0,10.79088 z"
       inkscape:connector-curvature="0" /><path
       id="path3039"
       style="fill:#ffffff;fill-opacity:0.74509805;fill-rule:nonzero;stroke:none"
       d="m 123.18495,346.2409 c -4.98384,0 -9.06192,-4.14005 -9.06192,-9.14675 0,-5.00671 4.07808,-9.11932 9.06192,-9.11932 4.98384,0 9.03024,4.11261 9.03024,9.11932 0,5.0067 -4.0464,9.14675 -9.03024,9.14675 z m 0,-3.65756 c 2.97852,0 5.37279,-2.43418 5.37279,-5.48919 0,-3.05502 -2.39428,-5.45719 -5.37279,-5.45719 -2.98298,0 -5.40459,2.40217 -5.40459,5.45719 0,3.05501 2.42161,5.48919 5.40459,5.48919 z"
       inkscape:connector-curvature="0" /><path
       id="path3041"
       style="fill:#ffffff;fill-opacity:0.74509805;fill-rule:nonzero;stroke:none"
       d="m 146.53443,346.2409 0,-18.07857 18.25808,0 0,18.07857 -18.25808,0 z m 3.64384,-3.64384 10.9338,0 0,-10.79088 -10.9338,0 0,10.79088 z"
       inkscape:connector-curvature="0" /><path
       id="path3043"
       style="fill:#ffffff;fill-opacity:0.74509805;fill-rule:nonzero;stroke:none"
       d="m 188.20363,346.2409 c -4.98384,0 -9.06215,-4.14005 -9.06215,-9.14675 0,-5.00671 4.07831,-9.11932 9.06215,-9.11932 4.98383,0 9.03012,4.11261 9.03012,9.11932 0,5.0067 -4.04629,9.14675 -9.03012,9.14675 z m 0,-3.65756 c 2.97956,0 5.37258,-2.43418 5.37258,-5.48919 0,-3.05502 -2.39302,-5.45719 -5.37258,-5.45719 -2.98298,0 -5.40344,2.40217 -5.40344,5.45719 0,3.05501 2.42046,5.48919 5.40344,5.48919 z"
       inkscape:connector-curvature="0" /><path
       id="path3045"
       style="fill:#ffffff;fill-opacity:0.74509805;fill-rule:nonzero;stroke:none"
       d="m 211.66964,346.2409 0,-18.07857 18.25692,0 0,18.07857 -18.25692,0 z m 3.64382,-3.64384 10.93382,0 0,-10.79088 -10.93382,0 0,10.79088 z"
       inkscape:connector-curvature="0" /><path
       id="path3047"
       style="fill:#ffffff;fill-opacity:0.74509805;fill-rule:nonzero;stroke:none"
       d="m 253.49088,346.2409 c -4.98041,0 -9.05758,-4.14005 -9.05758,-9.14675 0,-5.00671 4.07717,-9.11932 9.05758,-9.11932 4.98383,0 9.0347,4.11261 9.0347,9.11932 0,5.0067 -4.05087,9.14675 -9.0347,9.14675 z m 0,-3.65756 c 2.98298,0 5.37715,-2.43418 5.37715,-5.48919 0,-3.05502 -2.39417,-5.45719 -5.37715,-5.45719 -2.97956,0 -5.40002,2.40217 -5.40002,5.45719 0,3.05501 2.42046,5.48919 5.40002,5.48919 z"
       inkscape:connector-curvature="0" /><path
       id="path3049"
       style="fill:#ffffff;fill-opacity:0.74509805;fill-rule:nonzero;stroke:none"
       d="m 276.98203,346.2409 0,-18.07857 18.25807,0 0,18.07857 -18.25807,0 z m 3.64498,-3.64384 10.93266,0 0,-10.79088 -10.93266,0 0,10.79088 z"
       inkscape:connector-curvature="0" /><path
       id="path3051"
       style="fill:#ffffff;fill-opacity:0.74509805;fill-rule:nonzero;stroke:none"
       d="m 48.778602,313.83509 0,-18.07971 18.25784,0 0,18.07971 -18.25784,0 z m 3.680197,-3.68043 10.932775,0 0,-10.75429 -10.932775,0 0,10.75429 z"
       inkscape:connector-curvature="0" /><path
       id="path3053"
       style="fill:#ffffff;fill-opacity:0.74509805;fill-rule:nonzero;stroke:none"
       d="m 90.475004,313.82594 c -4.984754,0 -9.061921,-4.13547 -9.061921,-9.14675 0,-2.01915 0.656051,-3.88623 1.772185,-5.40002 1.117047,0.55795 2.241983,1.09418 3.372866,1.63041 -0.924967,0.97299 -1.487721,2.29126 -1.487721,3.76961 0,3.05958 2.420685,5.4892 5.404591,5.4892 2.89849,0 5.24235,-2.29584 5.3728,-5.23081 1.15581,0.46077 2.31756,0.88496 3.488126,1.3137 -0.74182,4.27383 -4.413096,7.57466 -8.860926,7.57466 z"
       inkscape:connector-curvature="0" /><path
       id="path3055"
       style="fill:#ffffff;fill-opacity:0.74509805;fill-rule:nonzero;stroke:none"
       d="m 113.91357,313.82594 0,-2.97041 c 4.43846,1.17422 8.96725,2.17464 13.54999,2.97041 l -13.54999,0 z"
       inkscape:connector-curvature="0" /><path
       id="path3057"
       style="fill:#ffffff;fill-opacity:0.74509805;fill-rule:nonzero;stroke:none"
       d="m 183.51362,313.82594 c 4.69,-0.81749 9.29426,-1.84535 13.83675,-3.05502 l 0,3.05502 -13.83675,0 z"
       inkscape:connector-curvature="0" /><path
       id="path3059"
       style="fill:#ffffff;fill-opacity:0.74509805;fill-rule:nonzero;stroke:none"
       d="m 220.75807,313.82594 c -4.47047,0 -8.19549,-3.32713 -8.91923,-7.62839 1.18794,-0.44247 2.345,-0.90668 3.51922,-1.37544 0.072,2.98756 2.46504,5.34628 5.40001,5.34628 2.98298,0 5.37258,-2.42962 5.37258,-5.4892 0,-1.52752 -0.57168,-2.87666 -1.54123,-3.85879 1.12162,-0.52708 2.23296,-1.07246 3.34542,-1.62583 1.15706,1.53207 1.85794,3.42088 1.85794,5.48462 0,5.01128 -4.05087,9.14675 -9.03471,9.14675 z"
       inkscape:connector-curvature="0" /><path
       id="path3061"
       style="fill:#ffffff;fill-opacity:0.74509805;fill-rule:nonzero;stroke:none"
       d="m 244.21836,313.83509 0,-18.07971 18.25806,0 0,18.07971 -18.25806,0 z m 3.68042,-3.68043 10.93381,0 0,-10.75429 -10.93381,0 0,10.75429 z"
       inkscape:connector-curvature="0" /><path
       id="path3063"
       style="fill:#ffffff;fill-opacity:0.74509805;fill-rule:nonzero;stroke:none"
       d="m 286.06247,313.83051 c -4.98383,0 -9.06215,-4.13662 -9.06215,-9.14675 0,-5.0067 4.07832,-9.11588 9.06215,-9.11588 4.97928,0 9.03015,4.10918 9.03015,9.11588 0,5.01013 -4.05087,9.14675 -9.03015,9.14675 z m 0,-3.6587 c 2.97843,0 5.37258,-2.43304 5.37258,-5.48805 0,-3.05501 -2.39416,-5.45833 -5.37258,-5.45833 -2.98298,0 -5.40457,2.40332 -5.40457,5.45833 0,3.05501 2.42159,5.48805 5.40457,5.48805 z"
       inkscape:connector-curvature="0" /><path
       id="path3065"
       style="fill:#ffffff;fill-opacity:0.74509805;fill-rule:nonzero;stroke:none"
       d="m 25.299887,313.83051 c -4.985154,0 -9.06234,-4.13662 -9.06234,-9.14675 0,-5.0067 4.077186,-9.11588 9.06234,-9.11588 4.979402,0 9.030158,4.10918 9.030158,9.11588 0,5.01013 -4.050756,9.14675 -9.030158,9.14675 z m 0,-3.6587 c 2.97855,0 5.37237,-2.43304 5.37237,-5.48805 0,-3.05501 -2.39382,-5.45833 -5.37237,-5.45833 -2.984301,0 -5.404533,2.40332 -5.404533,5.45833 0,3.05501 2.420232,5.48805 5.404533,5.48805 z"
       inkscape:connector-curvature="0" /><path
       id="path3067"
       style="fill:#ffffff;fill-opacity:0.74509805;fill-rule:nonzero;stroke:none"
       d="m 16.228615,281.07026 0,-18.07855 18.258182,0 0,18.07855 -18.258182,0 z m 3.644856,-3.67928 10.932786,0 0,-10.75544 -10.932786,0 0,10.75544 z"
       inkscape:connector-curvature="0" /><path
       id="path3069"
       style="fill:#ffffff;fill-opacity:0.74509805;fill-rule:nonzero;stroke:none"
       d="m 276.98203,281.07026 0,-18.07855 18.25807,0 0,18.07855 -18.25807,0 z m 3.64498,-3.67928 10.93266,0 0,-10.75544 -10.93266,0 0,10.75544 z"
       inkscape:connector-curvature="0" /><path
       id="path3071"
       style="fill:#ffffff;fill-opacity:0.74509805;fill-rule:nonzero;stroke:none"
       d="m 287.24584,248.5707 c 2.66629,-3.71587 5.16334,-7.54836 7.51634,-11.49175 0.21037,0.77289 0.34415,1.59382 0.34415,2.4296 0,4.60882 -3.43918,8.46762 -7.86049,9.06215 z"
       inkscape:connector-curvature="0" /><path
       id="path3073"
       style="fill:#ffffff;fill-opacity:0.74509805;fill-rule:nonzero;stroke:none"
       d="m 23.6742,248.48495 c -4.216975,-0.78091 -7.43174,-4.52421 -7.43174,-8.9764 0,-0.69744 0.07994,-1.37544 0.227329,-2.02829 2.263916,3.76961 4.653324,7.44545 7.204411,11.00469 z"
       inkscape:connector-curvature="0" /><path
       id="path3075"
       style="fill:#ffffff;fill-opacity:0.74509805;fill-rule:nonzero;stroke:none"
       d="m 16.228615,-25.416814 0,-18.080037 18.258182,0 0,18.080037 -18.258182,0 z m 3.644856,-3.645325 10.932786,0 0,-10.78941 -10.932786,0 0,10.78941 z"
       inkscape:connector-curvature="0" /><path
       id="path3077"
       style="fill:#ffffff;fill-opacity:0.74509805;fill-rule:nonzero;stroke:none"
       d="m 57.893231,-25.412355 c -4.97938,0 -9.056547,-4.140165 -9.056547,-9.146756 0,-5.006603 4.077167,-9.120405 9.056547,-9.120405 4.985209,0 9.035964,4.113802 9.035964,9.120405 0,5.006591 -4.050755,9.146756 -9.035964,9.146756 z m 0,-3.658702 c 2.984357,0 5.378177,-2.433151 5.378177,-5.488054 0,-3.054879 -2.39382,-5.458131 -5.378177,-5.458131 -2.978527,0 -5.398759,2.403252 -5.398759,5.458131 0,3.054903 2.420232,5.488054 5.398759,5.488054 z"
       inkscape:connector-curvature="0" /><path
       id="path3079"
       style="fill:#ffffff;fill-opacity:0.74509805;fill-rule:nonzero;stroke:none"
       d="m 81.36392,-25.416814 0,-18.080037 18.25785,0 0,18.080037 -18.25785,0 z m 3.643609,-3.645325 10.934035,0 0,-10.78941 -10.934035,0 0,10.78941 z"
       inkscape:connector-curvature="0" /><path
       id="path3081"
       style="fill:#ffffff;fill-opacity:0.74509805;fill-rule:nonzero;stroke:none"
       d="m 123.18495,-25.412355 c -4.98384,0 -9.06192,-4.140165 -9.06192,-9.146756 0,-5.006603 4.07808,-9.120405 9.06192,-9.120405 4.98384,0 9.03024,4.113802 9.03024,9.120405 0,5.006591 -4.0464,9.146756 -9.03024,9.146756 z m 0,-3.658702 c 2.97852,0 5.37279,-2.433151 5.37279,-5.488054 0,-3.054879 -2.39428,-5.458131 -5.37279,-5.458131 -2.98298,0 -5.40459,2.403252 -5.40459,5.458131 0,3.054903 2.42161,5.488054 5.40459,5.488054 z"
       inkscape:connector-curvature="0" /><path
       id="path3083"
       style="fill:#ffffff;fill-opacity:0.74509805;fill-rule:nonzero;stroke:none"
       d="m 146.53443,-25.416814 0,-18.080037 18.25808,0 0,18.080037 -18.25808,0 z m 3.64384,-3.645325 10.9338,0 0,-10.78941 -10.9338,0 0,10.78941 z"
       inkscape:connector-curvature="0" /><path
       id="path3085"
       style="fill:#ffffff;fill-opacity:0.74509805;fill-rule:nonzero;stroke:none"
       d="m 188.20363,-25.412355 c -4.98384,0 -9.06215,-4.140165 -9.06215,-9.146756 0,-5.006603 4.07831,-9.120405 9.06215,-9.120405 4.98383,0 9.03012,4.113802 9.03012,9.120405 0,5.006591 -4.04629,9.146756 -9.03012,9.146756 z m 0,-3.658702 c 2.97956,0 5.37258,-2.433151 5.37258,-5.488054 0,-3.054879 -2.39302,-5.458131 -5.37258,-5.458131 -2.98298,0 -5.40344,2.403252 -5.40344,5.458131 0,3.054903 2.42046,5.488054 5.40344,5.488054 z"
       inkscape:connector-curvature="0" /><path
       id="path3087"
       style="fill:#ffffff;fill-opacity:0.74509805;fill-rule:nonzero;stroke:none"
       d="m 211.66964,-25.416814 0,-18.080037 18.25692,0 0,18.080037 -18.25692,0 z m 3.64382,-3.645325 10.93382,0 0,-10.78941 -10.93382,0 0,10.78941 z"
       inkscape:connector-curvature="0" /><path
       id="path3089"
       style="fill:#ffffff;fill-opacity:0.74509805;fill-rule:nonzero;stroke:none"
       d="m 253.49088,-25.412355 c -4.98041,0 -9.05758,-4.140165 -9.05758,-9.146756 0,-5.006603 4.07717,-9.120405 9.05758,-9.120405 4.98383,0 9.0347,4.113802 9.0347,9.120405 0,5.006591 -4.05087,9.146756 -9.0347,9.146756 z m 0,-3.658702 c 2.98298,0 5.37715,-2.433151 5.37715,-5.488054 0,-3.054879 -2.39417,-5.458131 -5.37715,-5.458131 -2.97956,0 -5.40002,2.403252 -5.40002,5.458131 0,3.054903 2.42046,5.488054 5.40002,5.488054 z"
       inkscape:connector-curvature="0" /><path
       id="path3091"
       style="fill:#ffffff;fill-opacity:0.74509805;fill-rule:nonzero;stroke:none"
       d="m 276.98203,-25.416814 0,-18.080037 18.25807,0 0,18.080037 -18.25807,0 z m 3.64498,-3.645325 10.93266,0 0,-10.78941 -10.93266,0 0,10.78941 z"
       inkscape:connector-curvature="0" /></g></svg>