<?xml version="1.0" encoding="UTF-8" standalone="no"?>
<!-- Created with Inkscape (http://www.inkscape.org/) -->

<svg
   xmlns:dc="http://purl.org/dc/elements/1.1/"
   xmlns:cc="http://creativecommons.org/ns#"
   xmlns:rdf="http://www.w3.org/1999/02/22-rdf-syntax-ns#"
   xmlns:svg="http://www.w3.org/2000/svg"
   xmlns="http://www.w3.org/2000/svg"
   xmlns:sodipodi="http://sodipodi.sourceforge.net/DTD/sodipodi-0.dtd"
   xmlns:inkscape="http://www.inkscape.org/namespaces/inkscape"
   id="svg2"
   version="1.1"
   inkscape:version="0.48.5 r10040"
   width="369.64999"
   height="487.39999"
   xml:space="preserve"
   sodipodi:docname="fibeamer-mu-phil-light.svg"><metadata
     id="metadata8"><rdf:RDF><cc:Work
         rdf:about=""><dc:format>image/svg+xml</dc:format><dc:type
           rdf:resource="http://purl.org/dc/dcmitype/StillImage" /><dc:title></dc:title></cc:Work></rdf:RDF></metadata><defs
     id="defs6"><clipPath
       id="clipPath3044"
       clipPathUnits="userSpaceOnUse"><path
         id="path3046"
         d="M 0,3118.1 0,0 l 3118.11,0 0,3118.1 -3118.11,0 z" /></clipPath><clipPath
       id="clipPath3889"
       clipPathUnits="userSpaceOnUse"><path
         id="path3891"
         d="m 0,2909.84 2900,0 0,-2900.00016 -2900,0 L 0,2909.84 z" /></clipPath></defs><sodipodi:namedview
     pagecolor="#ffffff"
     bordercolor="#666666"
     borderopacity="1"
     objecttolerance="10"
     gridtolerance="10"
     guidetolerance="10"
     inkscape:pageopacity="0"
     inkscape:pageshadow="2"
     inkscape:window-width="1280"
     inkscape:window-height="751"
     id="namedview4"
     showgrid="false"
     inkscape:zoom="0.85630196"
     inkscape:cx="263.53324"
     inkscape:cy="240.81221"
     inkscape:window-x="0"
     inkscape:window-y="29"
     inkscape:window-maximized="1"
     inkscape:current-layer="g10"
     fit-margin-top="0"
     fit-margin-left="0"
     fit-margin-right="0"
     fit-margin-bottom="0"
     units="px" /><g
     id="g10"
     inkscape:groupmode="layer"
     inkscape:label="ink_ext_XXXXXX"
     transform="matrix(1.25,0,0,-1.25,-10.030275,432.8007)"><path
       id="path5684"
       style="fill:#33b652;fill-opacity:1;fill-rule:nonzero;stroke:none"
       d="m 182.9868,174.20844 c 9.017,1.119 18.703,6.694 19.407,16.579 0.195,2.74 -0.319,5.299 -1.203,7.762 8.772,1.068 17.522,6.844 19.09,16.171 0.794,4.726 0.208,9.375 -1.204,13.855 2.161,-0.214 4.414,-0.515 6.964,-0.955 2.584,-0.445 5.621,-0.802 6.557,0.268 0.652,0.744 1.547,2.911 -2.203,3.911 -4.273,1.139 -8.971,2.223 -13.749,2.856 -2.446,5.116 -5.699,9.934 -8.836,14.297 -2.294,3.19 -11.745,-3.656 -9.442,-6.859 1.509,-2.098 3.261,-4.532 4.968,-7.171 -5.524,-0.665 -10.709,-2.499 -14.97,-6.187 -7.168,-6.202 -6.815,-13.073 -4.294,-20.031 -5.491,-0.17 -10.851,-1.658 -14.869,-5.864 -5.411,-5.661 -6.845,-12.04 -3.665,-19.274 0.107,-0.242 0.235,-0.506 0.371,-0.78 -2.612,-0.411 -5.048,-1.118 -7.272,-2.112 -1.633,0.978 -3.423,1.757 -5.402,2.283 -3.175,0.844 -6.426,0.983 -9.681,0.86 2.384,4.547 4.348,9.327 3.759,14.132 -1.118,9.128 -9.37,11.83 -17.447,11.412 -1.253,-0.064 -2.714,-0.273 -4.297,-0.534 4.027,7.741 7.242,16.401 0.194,22.856 -5.061,4.635 -12.096,5.743 -19.225,5.292 1.945,3.244 4.08,6.22 5.898,8.666 0.998,1.342 2.164,4.28 -0.559,4.331 -4.232,0.077 -6.748,-1.677 -8.232,-3.673 -2.442,-3.286 -4.868801,-6.916 -6.941001,-10.771 -3.1602,-0.688 -6.1547,-1.514 -8.7934,-2.286 -3.7246,-1.091 -9.0156,-3.443 -9.5156,-5.193 -0.6223,-2.179 1.1633,-2.282 3.5,-1.75 2.9098,0.662 7.0754,1.597 11.5972,2.215 -1.5652,-4.165 -2.5546,-8.492 -2.5855,-12.859 -0.0559,-7.796 4.0488,-14.806 12.191301,-15.912 2.149,-0.292 5.637,0.056 9.586,0.452 -1.743,-3.271 -3.305,-6.73 -3.646,-10.258 -1.152,-11.902 8.968,-15.709 19.077,-15.027 0.825,0.055 1.655,0.127 2.489,0.204 -1.519,-2.969 -2.83,-6.012 -3.358,-9.342 -1.442,-9.075 8.865,-15.375 16.324,-17.871 -0.874,-0.597 -1.683,-1.23 -2.39,-1.903 -5.12,-4.874 -7.856,-13.898 -3.309,-20.135 2.468,-3.387 5.897,-5.728 9.535,-7.789 -5.811,-3.651 -11.676,-8.748 -12.038,-15.886 -0.359,-7.096001 5.02,-11.502301 10.631,-14.753501 -0.944,-0.5757 -1.862,-1.189 -2.735,-1.8679 -6.765,-5.261 -10.852,-13.4656 -6.419,-21.7137 2.228,-4.143 5.577,-7.4387 9.462,-10.1457 -1.568,-0.6785 -3.031,-1.2695 -4.282,-1.7742 -2.355,-0.9516 -5.07,-2.2563 -4.996,-4.0703 0.059,-1.459 2.376,-1.4953 3.996,-0.9297 3.484,1.2156 6.835,2.459 10.036,3.8648 4.896,-2.6433 10.222,-4.6172 15.097,-6.284 3.68,-1.2586 11.872,6.5735 8.228,7.8184 -3.772,1.2898 -8.065,2.7891 -12.196,4.7102 2.362,1.7195 4.6,3.6726 6.685,5.9628 4.924,5.4043 8.743,14.0583 3.331,20.5301 -2.476,2.961 -5.655,5.0567 -9.003,6.9121 8.065,5.0204 15.22,11.925601 10.997,21.290601 -1.655,3.672 -5.629,6.422 -10.091,8.995 0.348,0.214 0.69,0.431 1.018,0.657 6.564,4.51 12.075,11.311 10.135,19.772 -1.323,5.769 -4.722,8.283 -8.931,9.81 3.846,1.358 7.676,3.015 10.314,5.077 6.864,5.367 8.83,10.739 6.342,18.159 z m 23.813,54.84 c 3.293,-6.281 5.411,-13.124 3.359,-19.192 -1.233,-3.65 -2.746,-3.511 -6.974,-3.193 -2.148,0.163 -4.274,0.465 -6.397,0.792 -2.406,4.34 -4.681,8.706 -4.737,13.625 -0.073,6.49 9.59,7.951 14.749,7.968 z m -102.266,-18.656 c -4.905001,5.383 -4.42,12.196 -1.898,18.755 7.395,-0.096 14.193,-2.018 16.684,-8.231 1.794,-4.471 -0.411,-9.297 -2.634,-13.431 -4.789,-0.45 -9.409,-0.102 -12.152,2.907 z m 17.701,-24.971 c -4.382,4.262 -3.847,9.439 -1.353,14.612 0.136,0.282 0.277,0.568 0.424,0.858 9.695,0.414 18.595,-1.127 15.686,-12.062 -0.525,-1.972 -1.295,-3.853 -2.176,-5.692 -4.2,-0.393 -9.48,-0.732 -12.581,2.284 z m 42.532,-113.116901 c 0.556,-5.1875 -2.907,-9.3762 -7.515,-12.6789 -4.344,2.5847 -8.132,5.8195 -10.394,10.0261 -3.719,6.9165 -1.684,11.2063 4.632,14.4797 0.144,0.075 0.298,0.1535 0.448,0.2305 5.509,-2.6875 12.203,-6.2148 12.829,-12.0574 z m -1.663,24.6489 c -1.661,-1.402 -3.512,-2.5478 -5.445,-3.5856 -1.08,0.5664 -2.149,1.1418 -3.187,1.7468 -4.148,2.4188 -12.851,8.909801 -8.304,14.822801 1.664,2.164 4.057,3.786 6.688,5.195 1.387,-0.744 2.751,-1.501 4.051,-2.313 4.631,-2.895 12.589,-10.469 6.197,-15.866001 z m 2.501,34.748001 c -0.187,-3.679 -3.322,-6.082 -6.908,-7.952 -5.902,3.294 -11.409,6.777 -12.552,12.05 -0.577,2.664 0.921,6.727 5.762,9.821 7.268,-1.975 14.161,-4.79 13.698,-13.919 z m 6.04,28.348 c -4.504,-4.054 -9.746,-4.772 -15.281,-6.448 -1.027,0.278 -2.049,0.585 -3.053,0.948 -5.002,1.807 -12.326,4.352 -15.333,9 -1.979,3.06 -0.856,7.837 0.601,10.972 0.18,0.387 0.373,0.78 0.571,1.174 1.934,0.004 3.857,-0.128 5.749,-0.54 1.732,-0.376 3.298,-0.99 4.723,-1.79 -1.245,-1.78 -2.253,-3.797 -2.977,-6.066 -1.034,-3.239 2.26,-4.716 4.5,-0.5 0.727,1.37 1.504,2.585 2.355,3.636 2.247,-2.191 4.044,-4.913 5.541,-7.844 1.64,-3.215 11.336,3.147 9.441,6.86 -1.038,2.032 -2.222,3.933 -3.58,5.644 1.833,-0.075 3.66,-0.24 5.486,-0.428 2.77,-5.367 4.899,-11.341 1.257,-14.618 z m 7.323,22.564 c -1.438,2.555 -2.901,5.1 -3.988,7.812 -0.74,1.846 -2.538,6.597 -0.835,8.874 1.704,2.277 9.261,1.012 12.752,0.461 0.427,-0.067 0.855,-0.139 1.285,-0.211 0.455,-0.929 0.908,-1.855 1.344,-2.777 1.101,-2.327 5.666,-12.068 1.619,-13.97 -3.307,-1.555 -8.081,-0.803 -12.177,-0.189 z m -97.920701,58.312 c 1.3028,-1.859 4.7492,-1.92 9.209,0.652 2.0828,1.201 0.5457,4.614 -1.8984,3.147 -2.0071,-1.203 -3.0781,-1.852 -3.461,-1.307 -0.573,0.821 0.9368,2.997 3.8133,5.014 2.875,2.014 5.6113,2.303 6.0422,1.688 0.4774,-0.682 -0.5039,-2.184 -1.9922,-3.836 -0.5996,-0.669 0.491,-1.645 1.0488,-1.17 3.804,3.247 3.7801,5.177 2.6125,6.843 -1.4355,2.049 -6.6144,1.008 -10.8449,-1.957 -4.2304,-2.964 -6.3672,-6.451 -4.5293,-9.074 z M 163.8948,39.298239 c 0,2.2707 -2.787,4.2973 -7.917,4.75 -2.394,0.2121 -3.093,-3.4644 -0.25,-3.6656 2.334,-0.166 3.584,-0.2512 3.584,-0.9172 0,-1 -2.487,-1.9172 -6,-1.9172 -3.51,0 -5.917,1.3344 -5.917,2.0844 0,0.8328 1.666,1.5 3.833,2 0.874,0.202 0.541,1.6277 -0.187,1.5586 -4.979,-0.4758 -6.067,-2.0703 -6.067,-4.1047 0,-2.5019 4.839,-4.6211 10.004,-4.6211 5.166,0 8.917,1.6289 8.917,4.8328 z m 59.26,203.697201 c -0.84,0.317 -1.355,-1.053 -0.71,-1.4 4.403,-2.371 6.194,-1.648 7.324,0.043 1.39,2.08 -1.457,6.53 -5.752,9.399 -4.295,2.871 -8.319,3.599 -10.099,0.935 -1.261,-1.888 -0.069,-5.121 3.944,-8.348 1.873,-1.506 4.497,1.163 2.245,2.911 -1.849,1.433 -2.84,2.199 -2.471,2.752 0.556,0.831 3.133,0.212 6.054,-1.739 2.919,-1.949 4.18,-4.397 3.763,-5.019 -0.463,-0.694 -2.219,-0.323 -4.298,0.466 z M 102.3378,89.125639 c -1.629,1.2422 -3.697701,2.5402 -5.025801,2.9093 -0.5688,0.1524 -0.7676,0.1024 -1.2246,-0.2335 -0.9141,-0.67 -2.9082,-2.6497 -3.1411,-2.9559 -0.1558,-0.2023 -0.241,-0.4199 -0.0625,-0.5559 0.2036,-0.155 0.3325,-0.0925 0.7192,0.2559 0.4512,0.3801 1.3433,0.8652 2.1465,1.0195 1.9097,0.3938 3.4773,-0.4004 5.742301,-2.1289 3.408,-2.6015 5.721,-9.1172 1.1,-15.1719 -1.883,-2.4675 -4.210701,-4.5144 -7.368901,-4.8015 -1.8953,-0.1633 -3.7726,0.3836 -5.9851,2.073 -2.3411,1.7852 -3.8008,3.9871 -3.9614,5.5188 -0.1304,1.1465 0.2192,2.2887 0.7949,3.0972 0.2715,0.3567 0.3762,0.5981 0.1731,0.7532 -0.2293,0.175 -0.4356,0.0097 -0.752,-0.3528 -0.4394,-0.4695 -1.4812,-1.8875 -2.1726,-2.6882 -0.7309,-0.8516 -1.0402,-1.0989 -1.1953,-1.3016 -0.1172,-0.1535 -0.1125,-0.3574 0.148,-0.5969 0.7055,-0.6594 1.3442,-1.509 2.2141,-2.3738 1.0539,-1.0461 1.9172,-1.8664 3.4941,-3.0695 3.7903,-2.8926 6.9832,-3.72 10.0969,-3.4395 4.150201,0.375 6.974201,2.9695 8.294201,4.6992 1.884,2.4668 3.397,5.8203 2.575,9.9114 -0.781,3.7761 -3.125,6.7722 -6.609,9.4324 z m 8.277,-28.4485 c -0.236,0.0996 -0.424,-0.0972 -0.699,-0.7461 -0.976,-2.2976 -1.455,-3.1011 -1.619,-3.4851 -0.086,-0.2063 0.023,-0.3574 0.263,-0.5274 0.678,-0.5312 1.79,-1.3523 3.705,-2.164 4.094,-1.7383 7.792,-0.5613 9.167,2.6789 1.013,2.3867 0.768,4.9234 -1.395,8.8316 l -0.907,1.636 c -1.63,2.9523 -1.498,4.4941 -0.885,5.9382 0.663,1.561 2.721,2.8079 5.372,1.6821 1.827,-0.7746 3.226,-2.3078 2.95,-4.7629 -0.066,-0.5633 -0.21,-1.2324 -0.372,-1.6152 -0.101,-0.2352 -0.184,-0.5126 0.082,-0.625 0.235,-0.1004 0.461,0.1867 0.678,0.6152 0.23,0.459 1.097,2.1765 1.785,3.7961 0.275,0.648 0.25,0.834 -0.135,1.239 -1.03,1.0977 -2.267,1.8672 -3.976,2.5918 -1.561,0.6629 -3.323,1.0977 -5.196,0.7805 -2.708,-0.4848 -4.219,-2.2414 -4.943,-3.9504 -1.189,-2.7976 -0.784,-5.368 1.641,-9.5625 l 0.563,-0.9687 c 1.657,-2.8934 1.897,-4.211 1.322,-5.5664 -0.751,-1.7676 -2.613,-2.4707 -4.793,-1.5457 -1.915,0.8125 -2.394,2.0585 -2.598,2.8054 -0.293,1.0293 -0.053,2.0039 0.059,2.2696 0.15,0.3535 0.137,0.5671 -0.069,0.655 z m 78.091,192.818301 c -0.073,-0.474 -0.045,-0.645 0.205,-0.701 0.187,-0.041 0.292,0.133 0.391,0.439 0.18,0.812 0.75,2.948 0.896,3.604 0.103,0.468 0.113,0.662 -0.106,0.711 -0.125,0.028 -0.388,0.02 -0.878,0.029 -0.482,0.042 -1.19,0.1 -2.19,0.32 l -12.374,2.735 c -1.032,0.228 -2.204,0.553 -3.09,0.848 -0.768,0.234 -1.011,0.616 -1.261,0.671 -0.187,0.042 -0.322,-0.125 -0.506,-0.511 -0.118,-0.236 -1.339,-2.947 -1.45,-3.447 -0.076,-0.344 -0.048,-0.514 0.171,-0.563 0.188,-0.041 0.309,0.063 0.426,0.299 0.118,0.236 0.357,0.576 0.773,0.976 0.621,0.584 1.405,0.575 3.231,0.237 l 4.683,-0.904 -2.83,-12.811 c -0.635,-2.875 -1.181,-5.344 -1.627,-6.621 -0.295,-0.885 -0.633,-1.531 -1.287,-1.518 -0.295,-0.001 -0.683,0.02 -1.152,0.123 -0.375,0.082 -0.52,0.017 -0.555,-0.139 -0.049,-0.219 0.149,-0.361 0.556,-0.45 1.25,-0.277 3.239,-0.618 3.958,-0.778 0.875,-0.193 2.822,-0.722 4.885,-1.177 0.343,-0.076 0.614,-0.038 0.662,0.181 0.035,0.156 -0.101,0.285 -0.445,0.362 -0.468,0.103 -1.142,0.317 -1.565,0.476 -0.91,0.332 -0.945,1.061 -0.846,1.957 0.141,1.377 0.686,3.845 1.322,6.72 l 2.831,12.811 3.916,-0.963 c 2.767,-0.677 3.417,-1.738 3.3,-2.564 l -0.044,-0.352 z m -135.170401,-65.371 c -0.1848,0.053 -0.3176,-0.175 -0.4324,-0.575 -0.3371,-1.169 -0.768,-3.009 -0.9902,-3.778 -0.2582,-0.891 -0.9082,-2.801 -1.2461,-3.97 -0.1411,-0.492 -0.1504,-0.755 0.0332,-0.809 0.2461,-0.071 0.3613,0.095 0.4492,0.404 0.107,0.368 0.2539,0.759 0.4429,1.07 0.3489,0.633 0.9602,0.789 2.0239,0.549 1.0015,-0.223 1.8621,-0.471 6.5347,-1.82 l 5.4122,-1.561 c 2.9816,-0.862 5.4105,-1.562 6.6585,-2.088 0.8641,-0.349 1.3336,-0.686 1.279,-1.336 -0.0184,-0.295 -0.0633,-0.681 -0.1961,-1.142 -0.1067,-0.369 -0.0496,-0.518 0.1046,-0.563 0.2149,-0.062 0.3692,0.126 0.484,0.526 0.3547,1.23 0.8215,3.193 1.0254,3.901 0.2406,0.83 0.8906,2.74 1.477,4.769 0.0972,0.339 0.0761,0.611 -0.1391,0.673 -0.1543,0.045 -0.2906,-0.082 -0.3887,-0.421 -0.1328,-0.461 -0.3882,-1.12 -0.5742,-1.532 -0.3894,-0.886 -1.0054,-0.943 -1.8609,-0.795 -1.3586,0.258 -3.7871,0.959 -6.7695,1.821 l -5.4114,1.56 c -4.6726,1.349 -5.5344,1.598 -6.5011,1.944 -1.0567,0.373 -1.5094,0.768 -1.4239,1.643 0.0449,0.387 0.0864,0.641 0.1739,0.948 0.0902,0.309 0.0812,0.51 -0.1649,0.582 z m 96.332401,50.118 c 1.386,-0.587 2.83,-0.788 4.686,-0.757 1.696,0.027 3.483,0.344 5.066,1.394 2.279,1.541 2.947,3.761 2.917,5.616 -0.049,3.04 -1.462,5.225 -5.379,8.074 l -0.908,0.657 c -2.688,1.973 -3.442,3.081 -3.466,4.553 -0.03,1.92 1.386,3.318 3.754,3.357 2.08,0.033 3.023,-0.911 3.513,-1.512 0.686,-0.82 0.862,-1.811 0.866,-2.098 0.006,-0.384 0.106,-0.574 0.33,-0.57 0.255,0.004 0.347,0.262 0.337,0.965 -0.042,2.496 0.072,3.426 0.065,3.842 -0.004,0.224 -0.165,0.317 -0.454,0.377 -0.836,0.21 -2.185,0.507 -4.265,0.474 -4.447,-0.072 -7.349,-2.647 -7.293,-6.167 0.042,-2.591 1.294,-4.811 4.859,-7.506 l 1.49,-1.128 c 2.689,-2.037 3.193,-3.5 3.219,-5.068 0.027,-1.696 -1.349,-3.671 -4.229,-3.717 -1.983,-0.033 -3.885,0.801 -4.627,3.157 -0.17,0.541 -0.308,1.211 -0.315,1.627 -0.003,0.256 -0.041,0.544 -0.328,0.539 -0.256,-0.004 -0.347,-0.358 -0.37,-0.838 -0.024,-0.513 -0.122,-2.435 -0.093,-4.194 0.011,-0.705 0.11,-0.863 0.625,-1.077 z m -61.628501,-32.629 c -0.1973,0.107 -0.3015,-0.018 -0.4234,-0.243 -0.186,-0.335 -0.4438,-0.742 -0.7578,-1.117 -0.4629,-0.514 -1.302,-1.112 -4.4121,-0.797 -5.25,0.538 -19.1614,2.313 -21.0747,2.484 -0.7988,0.072 -1.1433,0.041 -1.2808,-0.21 -0.1543,-0.281 0.0625,-0.62 0.6922,-1.402 l 13.7746,-16.691 c 1.0973,-1.329 1.7597,-2.385 1.2223,-3.769 -0.0958,-0.24 -0.2833,-0.648 -0.4208,-0.9 -0.1218,-0.225 -0.1281,-0.367 0.0403,-0.46 0.2246,-0.122 0.3726,0.014 0.5722,0.38 0.7989,1.459 1.5594,3.05 1.7286,3.358 0.4761,0.871 1.2207,2.033 1.7129,2.93 0.1675,0.309 0.2046,0.509 -0.0208,0.632 -0.1679,0.092 -0.2707,0.037 -0.4542,-0.299 l -0.2301,-0.422 c -0.477,-0.869 -0.9797,-0.922 -1.4856,-0.646 -0.3371,0.184 -0.9336,0.693 -1.4812,1.358 l -3.186,3.712 c -0.1375,0.149 -0.1629,0.235 -0.0855,0.375 l 3.4234,6.261 c 0.0785,0.14 0.1797,0.194 0.352,0.173 l 7.1797,-1.01 c 0.4136,-0.043 0.5586,-0.379 0.5078,-0.606 -0.1262,-0.296 -0.1313,-0.439 0.0371,-0.531 0.1961,-0.107 0.3809,0.228 0.6852,0.719 1.2855,2.216 2.4066,4.266 2.9589,5.275 0.5688,1.039 0.6504,1.322 0.4258,1.446 z m -13.8418,-5.231 -2.825,-5.166 c -0.0613,-0.112 -0.1609,-0.094 -0.259,-0.005 l -5.4922,6.361 c -0.0972,0.089 -0.207,0.222 -0.1597,0.306 0.0457,0.085 0.2012,0.036 0.3289,0.003 l 8.3164,-1.267 c 0.0984,-0.017 0.168,-0.092 0.0906,-0.232 z m -9.6265,-100.708001 c 0.8757,0.535001 1.6675,0.954001 5.9695,3.225001 l 4.9797,2.63 c 2.6035,1.375 4.8386,2.556 6.1011,3.041 0.8813,0.321 1.5786,0.508 1.9907,0.002 0.1914,-0.225 0.4273,-0.534 0.6504,-0.959 0.1796,-0.338 0.3242,-0.408 0.4668,-0.333 0.1968,0.105 0.1777,0.348 -0.0161,0.716 -0.2996,0.566 -0.7437,1.272 -1.0878,1.923 -0.3875,0.664 -0.7165,1.286 -0.8805,1.597 -0.4485,0.849 -0.8828,1.741 -1.4692,2.988 -0.6148,1.231 -1.3804,2.818 -2.5007,4.94 -0.5684,1.075 -0.7024,1.33 -1.5418,1.139 -0.6418,-0.157 -2.686,-0.946 -3.3364,-1.291 -0.2832,-0.149 -0.5093,-0.268 -0.3906,-0.495 0.1059,-0.198 0.2485,-0.195 0.5902,-0.088 1.2633,0.415 2.0387,0.39 2.7665,-0.167 0.7277,-0.555 1.3554,-1.744 1.7441,-2.479 1.5242,-2.888 1.3391,-3.564 -0.584,-4.653 -0.8059,-0.461 -3.4226,-1.807 -4.3855,-2.315 l -2.2356,-1.182 c -0.1687,-0.089 -0.2976,-0.12 -0.3722,0.022 -0.359,0.678 -1.8102,3.495 -2.0379,4.062 -0.4395,1.107 -0.2239,1.727 0.2668,2.167 0.323,0.28 0.6914,0.474 0.9585,0.652 0.1418,0.075 0.225,0.191 0.1211,0.389 -0.1343,0.254 -0.4461,0.091 -0.6726,-0.03 -0.1985,-0.103 -1.3738,-0.616 -1.9563,-0.888 -1.5015,-0.649 -2.0156,-0.774 -2.1843,-0.864 -0.17,-0.09 -0.1805,-0.204 -0.1219,-0.317 0.075,-0.142 0.2762,-0.18 0.607,-0.259 0.4184,-0.105 0.727,-0.484 1.1418,-1.134 0.3992,-0.621 2.1184,-3.875 2.4485,-4.498 0.0898,-0.169 -0.0098,-0.258 -0.2075,-0.362 l -7.159,-3.781 c -0.198,-0.105 -0.3132,-0.093 -0.3875,0.049 -0.2992,0.565 -1.8105,3.567 -2.0089,4.078 -0.5774,1.503 -0.3875,1.966 0.0175,2.433 0.2649,0.321 0.7317,0.603 0.9289,0.708 0.254,0.134 0.3668,0.266 0.2618,0.464 -0.1047,0.198 -0.3047,0.165 -0.4614,0.118 -0.3687,-0.122 -1.6441,-0.723 -1.9414,-0.845 -1.3472,-0.602 -1.7617,-0.639 -1.959,-0.745 -0.1414,-0.074 -0.2402,-0.162 -0.166,-0.303 0.0754,-0.143 0.25,-0.267 0.3535,-0.394 0.1758,-0.195 0.4707,-0.619 0.8125,-1.126 0.3118,-0.524 3.2856,-6.154 3.7637,-7.06 0.2094,-0.396 0.5258,-1.062001 0.8852,-1.812001 0.3738,-0.708 0.7793,-1.544 1.1824,-2.308 0.2234,-0.425 0.3855,-0.592 0.5832,-0.487 0.1988,0.105 0.1648,0.305 8e-4,0.615 -0.2102,0.397 -0.4348,0.892 -0.4981,1.149 -0.2949,1.038 0.0379,1.504 0.97,2.068 z m 26.2324,0.262 c -0.5488,0.669001 -1.7524,2.288001 -3.0918,3.920001 -0.2231,0.273 -0.4602,0.411 -0.6328,0.267 -0.1235,-0.101 -0.0969,-0.285 0.1265,-0.557 0.3039,-0.371 0.7016,-0.956 0.936,-1.343 0.5093,-0.824 0.207,-1.362 -0.4004,-1.985 -0.9824,-0.971001 -2.9375,-2.574001 -5.3379,-4.543001 l -4.3547,-3.5706 c -3.7605,-3.0852 -4.4539,-3.6524 -5.2859,-4.2531 -0.9067,-0.6614 -1.4895,-0.8078 -2.1614,-0.2411 -0.2929,0.2567 -0.4797,0.4333 -0.6828,0.6817 -0.2027,0.2469 -0.375,0.3543 -0.5719,0.1933 -0.1488,-0.1222 -0.0351,-0.3617 0.2286,-0.6835 0.7703,-0.9395 2.0418,-2.3379 2.5488,-2.9563 0.5894,-0.7187 1.793,-2.3379 2.5641,-3.2781 0.3246,-0.3957 0.5375,-0.5528 0.6859,-0.4321 0.1973,0.1633 0.125,0.3528 -0.0781,0.6 -0.2434,0.2965 -0.4828,0.6376 -0.6313,0.9715 -0.3223,0.6453 -0.1055,1.2383 0.6953,1.9778 0.7524,0.698 1.4446,1.2675 5.2055,4.3504 l 4.3543,3.5722 c 2.3992,1.9688 4.3547,3.5719 5.4949,4.3009 0.7793,0.514 1.3215,0.711 1.8266,0.297 0.2324,-0.182 0.5254,-0.438 0.8289,-0.811 0.243,-0.296 0.3996,-0.335 0.5222,-0.232 0.1743,0.142 0.1055,0.376 -0.1582,0.697 -0.8113,0.99 -2.1636,2.488 -2.6304,3.057 z m -39.0742,23.969001 c -0.4602,-0.645 -0.8125,-1.008 -0.7446,-1.353 0.061,-0.314 0.52,-0.321 1.1465,-0.197 l 18.6445,3.373 c 2.7375,0.506 3.6731,0.559 4.084,-0.207 0.2129,-0.415 0.3559,-0.975 0.436,-1.382 0.0625,-0.315 0.1621,-0.492 0.3496,-0.453 0.2832,0.056 0.2586,0.344 0.1773,0.752 -0.3199,1.632 -0.7051,3.09 -0.7605,3.373 -0.1172,0.597 -0.2703,1.871 -0.6707,3.912 -0.0871,0.439 -0.2051,0.709 -0.4575,0.66 -0.1875,-0.037 -0.2125,-0.237 -0.1453,-0.583 0.0989,-0.502 0.1848,-1.105 0.1004,-1.677 -0.0957,-0.671 -0.8316,-1.24 -3.2683,-1.784 l -13.1203,-2.939 -0.0172,0.093 c 0.4839,0.684 3.7246,4.941 6.4414,9.031 2.5925,3.901 5.9148,8.729 7.4097,11.078 0.2778,0.413 0.5493,0.857 0.4809,1.203 -0.0559,0.283 -0.3625,0.353 -1.0539,0.217 l -19.8801,-3.552 c -1.7644,-0.315 -2.4734,-0.194 -2.898,0.636 -0.168,0.359 -0.2168,0.61 -0.2793,0.923 -0.0742,0.379 -0.2051,0.548 -0.3926,0.51 -0.2524,-0.049 -0.2219,-0.369 -0.1406,-0.777 0.3015,-1.538 0.6304,-2.714 0.6992,-3.059 0.1289,-0.659 0.3316,-2.185 0.6519,-3.817 0.093,-0.472 0.1926,-0.81 0.4438,-0.762 0.1883,0.038 0.2578,0.182 0.1836,0.559 -0.0863,0.439 -0.2348,1.193 -0.1391,1.701 0.166,0.815 0.707,1.215 2.6153,1.624 l 14.0375,3.086 0.0308,-0.156 c -0.3973,-0.633 -4.0855,-5.761 -5.8008,-8.316 -3.6504,-5.48 -7.83,-11.259 -8.1636,-11.717 z m -4.1321,34.055 c -0.0925,-1.052 -0.2644,-2.258 -0.4425,-3.173 -0.1344,-0.792 -0.4813,-1.083 -0.504,-1.336 -0.0171,-0.192 0.1664,-0.305 0.5727,-0.437 0.248,-0.087 3.0953,-0.949 3.6055,-0.994 0.3511,-0.032 0.5156,0.017 0.5347,0.241 0.0176,0.191 -0.1011,0.299 -0.3504,0.385 -0.25,0.085 -0.6179,0.279 -1.0671,0.641 -0.6594,0.54 -0.75,1.319 -0.6504,3.173 l 0.2925,4.761 13.0696,-1.159 c 2.9328,-0.26 5.4504,-0.484 6.7746,-0.762 0.916,-0.178 1.6004,-0.431 1.6719,-1.08 0.0378,-0.293 0.0679,-0.68 0.0254,-1.158 -0.0333,-0.383 0.0503,-0.519 0.2097,-0.533 0.2235,-0.02 0.3391,0.195 0.375,0.609 0.1133,1.275 0.1965,3.292 0.261,4.025 0.0789,0.893 0.3535,2.893 0.5386,4.997 0.0317,0.349 -0.0406,0.612 -0.2644,0.632 -0.159,0.015 -0.2688,-0.137 -0.2996,-0.486 -0.043,-0.479 -0.1692,-1.174 -0.2715,-1.615 -0.2129,-0.945 -0.9321,-1.074 -1.8321,-1.09 -1.3847,-0.038 -3.9027,0.186 -6.8363,0.445 l -13.068,1.159 0.452,4.007 c 0.3152,2.832 1.2844,3.614 2.1184,3.604 l 0.3535,0.001 c 0.4812,-0.011 0.6465,0.039 0.6687,0.293 0.0164,0.192 -0.1687,0.272 -0.4843,0.333 -0.829,0.074 -3.0196,0.364 -3.6895,0.424 -0.4773,0.043 -0.6719,0.027 -0.6926,-0.196 -0.0094,-0.128 0.0317,-0.388 0.0844,-0.875 0.0215,-0.484 0.0547,-1.193 -0.0356,-2.213 l -1.1199,-12.623 z m 83.051701,77.041 c -0.265,-0.128 -0.625,-0.279 -1.092,-0.388 -0.374,-0.089 -0.476,-0.212 -0.439,-0.368 0.05,-0.219 0.291,-0.26 0.696,-0.164 0.623,0.147 1.418,0.4 2.134,0.57 0.74,0.209 1.426,0.371 1.768,0.452 0.934,0.221 1.907,0.418 3.261,0.673 1.346,0.286 3.073,0.628 5.409,1.18 1.183,0.281 1.463,0.347 1.489,1.208 0.009,0.66 -0.243,2.836 -0.412,3.552 -0.074,0.313 -0.132,0.56 -0.382,0.502 -0.217,-0.051 -0.25,-0.192 -0.232,-0.548 0.084,-1.329 -0.134,-2.071 -0.856,-2.635 -0.721,-0.566 -2.03,-0.875 -2.838,-1.067 -3.177,-0.752 -3.785,-0.402 -4.356,1.731 -0.245,0.896 -0.892,3.769 -1.142,4.827 l -0.582,2.461 c -0.045,0.186 -0.043,0.318 0.113,0.355 0.747,0.177 3.838,0.875 4.444,0.952 1.181,0.149 1.728,-0.215 2.031,-0.801 0.189,-0.383 0.285,-0.788 0.391,-1.092 0.036,-0.156 0.127,-0.265 0.345,-0.214 0.28,0.066 0.2,0.409 0.141,0.658 -0.052,0.218 -0.253,1.486 -0.369,2.116 -0.253,1.618 -0.245,2.145 -0.289,2.332 -0.044,0.187 -0.153,0.228 -0.278,0.199 -0.154,-0.038 -0.242,-0.223 -0.402,-0.524 -0.206,-0.377 -0.651,-0.582 -1.384,-0.821 -0.701,-0.232 -4.282,-1.078 -4.968,-1.241 -0.186,-0.043 -0.247,0.074 -0.299,0.291 l -1.863,7.879 c -0.052,0.218 -0.012,0.325 0.144,0.362 0.623,0.148 3.907,0.86 4.452,0.922 1.6,0.182 2,-0.118 2.352,-0.626 0.244,-0.338 0.4,-0.86 0.451,-1.079 0.066,-0.279 0.166,-0.42 0.383,-0.368 0.218,0.051 0.236,0.253 0.231,0.415 -0.026,0.389 -0.288,1.774 -0.331,2.092 -0.245,1.455 -0.178,1.866 -0.23,2.084 -0.036,0.155 -0.097,0.273 -0.252,0.236 -0.157,-0.037 -0.321,-0.174 -0.47,-0.243 -0.234,-0.121 -0.718,-0.301 -1.294,-0.503 -0.584,-0.171 -6.782,-1.637 -7.777,-1.873 -0.437,-0.103 -1.161,-0.242 -1.977,-0.402 -0.779,-0.183 -1.69,-0.367 -2.53,-0.567 -0.468,-0.109 -0.672,-0.223 -0.618,-0.441 0.05,-0.218 0.251,-0.236 0.595,-0.155 0.436,0.103 0.973,0.197 1.237,0.194 1.078,0.026 1.445,-0.414 1.758,-1.459 0.298,-0.981 0.504,-1.853 1.624,-6.586 l 1.297,-5.481 c 0.678,-2.864 1.26,-5.326 1.414,-6.669 0.088,-0.934 0.095,-1.655 -0.498,-1.928 z m 89.523,-168.534801 c -0.25,-0.1992 -0.361,-0.3692 -0.2,-0.5695 0.119,-0.1504 0.359,-0.0403 0.684,0.2187 0.95,0.759 2.366,2.0117 2.991,2.5106 0.726,0.5785 2.362,1.7609 3.312,2.5199 0.4,0.3191 0.56,0.5293 0.44,0.6785 -0.159,0.2004 -0.349,0.1308 -0.599,-0.0684 -0.3,-0.2402 -0.645,-0.4746 -0.98,-0.6191 -0.65,-0.3133 -1.24,-0.0879 -1.969,0.7226 -0.688,0.7598 -1.247,1.4602 -4.281,5.2625 l -3.513,4.4016 c -1.936,2.427 -3.514,4.4024 -4.226,5.5527 -0.504,0.7852 -0.693,1.3301 -0.273,1.8289 0.185,0.2297 0.446,0.52 0.821,0.8196 0.3,0.239 0.339,0.3933 0.24,0.5183 -0.14,0.1758 -0.374,0.1118 -0.699,-0.148 -1.002,-0.7988 -2.517,-2.1313 -3.092,-2.5899 -0.676,-0.539 -2.312,-1.7218 -3.962,-3.039 -0.275,-0.2199 -0.415,-0.4543 -0.275,-0.6289 0.099,-0.125 0.284,-0.1008 0.559,0.1187 0.375,0.2992 0.966,0.6887 1.356,0.9184 0.83,0.4976 1.364,0.1875 1.978,-0.4277 0.958,-0.9954 2.535,-2.9719 4.472,-5.3977 l 3.512,-4.4023 c 3.035,-3.8016 3.593,-4.502 4.182,-5.3426 0.649,-0.9153 0.787,-1.5 0.212,-2.1645 -0.26,-0.2886 -0.44,-0.4734 -0.69,-0.6734 z m -15.825,-11.0188 c 0.287,0.1407 0.304,0.5411 0.241,1.543 l -1.627,21.5813 c -0.129,1.7175 -0.062,2.9628 1.175,3.782 0.216,0.1418 0.605,0.3672 0.863,0.4941 0.23,0.1133 0.317,0.2266 0.232,0.3992 -0.112,0.2297 -0.313,0.2024 -0.686,0.02 -1.495,-0.7325 -3.032,-1.593 -3.349,-1.7473 -0.891,-0.4363 -2.169,-0.9562 -3.089,-1.4062 -0.315,-0.1551 -0.46,-0.2969 -0.348,-0.5262 0.086,-0.1731 0.2,-0.1887 0.545,-0.0195 l 0.43,0.2117 c 0.891,0.4367 1.333,0.1894 1.586,-0.3282 0.169,-0.3449 0.363,-1.1043 0.428,-1.9636 l 0.461,-4.8703 c 0.027,-0.2 -0.002,-0.2864 -0.146,-0.3563 l -6.408,-3.1391 c -0.144,-0.071 -0.259,-0.0554 -0.387,0.0598 l -5.283,4.9668 c -0.313,0.2742 -0.238,0.6316 -0.064,0.7871 0.272,0.1699 0.359,0.2832 0.275,0.4563 -0.099,0.2008 -0.443,0.032 -0.974,-0.1926 -2.328,-1.0684 -4.425,-2.0965 -5.461,-2.6035 -1.063,-0.5203 -1.294,-0.7051 -1.18,-0.9344 0.098,-0.2016 0.256,-0.1594 0.485,-0.0473 0.346,0.1692 0.79,0.352 1.264,0.477 0.674,0.1512 1.704,0.157 4.063,-1.8938 3.979,-3.4675 14.32,-12.9402 15.784,-14.1828 0.612,-0.5203 0.911,-0.6941 1.17,-0.5672 z m -2.168,6.2422 c -0.086,-0.0422 -0.185,0.0879 -0.27,0.1887 l -6.064,5.8309 c -0.071,0.0722 -0.084,0.173 0.06,0.2429 l 5.287,2.5903 c 0.115,0.0566 0.187,-0.0161 0.214,-0.145 l 0.819,-8.364 c 0.028,-0.1289 0.04,-0.3008 -0.046,-0.3438 z m 62.317,83.921401 c 0.479,0.012 0.671,0.049 0.665,0.274 -0.003,0.128 -0.073,0.382 -0.182,0.859 -0.076,0.479 -0.19,1.18 -0.216,2.203 l -0.321,12.668 c -0.026,1.056 0.007,2.273 0.079,3.204 0.044,0.801 0.356,1.13 0.349,1.385 -0.005,0.192 -0.199,0.284 -0.617,0.368 -0.258,0.058 -3.185,0.591 -3.697,0.579 -0.351,-0.009 -0.509,-0.077 -0.504,-0.301 0.005,-0.192 0.135,-0.284 0.393,-0.342 0.258,-0.057 0.646,-0.208 1.134,-0.516 0.716,-0.462 0.894,-1.225 1.005,-3.079 l 0.25,-4.763 -13.117,-0.332 c -2.943,-0.075 -5.47,-0.139 -6.818,-0.014 -0.929,0.073 -1.638,0.247 -1.782,0.884 -0.071,0.286 -0.145,0.668 -0.158,1.148 -0.009,0.384 -0.109,0.509 -0.269,0.505 -0.224,-0.006 -0.313,-0.231 -0.304,-0.647 0.034,-1.28 0.18,-3.293 0.198,-4.029 0.024,-0.895 -0.021,-2.914 0.032,-5.024 0.009,-0.353 0.111,-0.606 0.336,-0.601 0.16,0.005 0.252,0.167 0.243,0.519 -0.013,0.48 0.033,1.185 0.086,1.635 0.103,0.962 0.803,1.173 1.696,1.291 1.372,0.195 3.898,0.258 6.842,0.334 l 13.115,0.332 0.007,-4.034 c 0.008,-2.848 -0.866,-3.735 -1.696,-3.82 l -0.351,-0.041 c -0.479,-0.044 -0.637,-0.111 -0.631,-0.367 0.005,-0.192 0.199,-0.252 0.519,-0.276 0.832,0.022 3.042,-0.018 3.714,-0.002 z m -11.684,23.648 c 7.013,2.128 10.013,8.222 7.699,15.846 -2.787,9.187 -10.604,10.594 -15.84,9.005 -5.421,-1.644 -10.926,-7.194 -8.26,-15.982 2.36,-7.778 9.389,-10.996 16.401,-8.869 z m -5.91,20.914 c 7.625,2.312 10.802,-1.103 11.87,-4.625 1.524,-5.022 -1.534,-10.263 -8.393,-12.346 -8.85,-2.684 -11.396,1.961 -12.046,4.104 -1.784,5.879 2.2,10.933 8.569,12.867 z m 16.23,-54.779 c 0.085,0.439 0.257,1.156 0.449,1.966 0.153,0.786 0.362,1.69 0.528,2.537 0.092,0.472 0.072,0.704 -0.148,0.747 -0.22,0.043 -0.32,-0.133 -0.387,-0.479 -0.086,-0.439 -0.222,-0.966 -0.333,-1.206 -0.423,-0.994 -0.974,-1.146 -2.054,-1.001 -1.017,0.134 -1.896,0.305 -6.671,1.237 l -5.527,1.08 c -2.89,0.564 -5.37,1.049 -6.659,1.463 -0.886,0.304 -1.546,0.596 -1.549,1.249 -0.008,0.294 0.003,0.683 0.094,1.155 0.074,0.377 0.005,0.52 -0.153,0.552 -0.219,0.043 -0.356,-0.159 -0.436,-0.568 -0.123,-0.628 -0.22,-1.457 -0.361,-2.179 -0.116,-0.76 -0.25,-1.451 -0.318,-1.796 -0.184,-0.943 -0.405,-1.909 -0.732,-3.248 -0.295,-1.344 -0.695,-3.06 -1.155,-5.415 -0.233,-1.194 -0.289,-1.476 0.486,-1.855 0.596,-0.28 2.683,-0.948 3.406,-1.09 0.313,-0.06 0.565,-0.11 0.614,0.142 0.043,0.219 -0.07,0.307 -0.403,0.437 -1.245,0.471 -1.831,0.977 -2.049,1.866 -0.217,0.891 0.04,2.211 0.2,3.027 0.625,3.203 1.194,3.614 3.375,3.254 0.916,-0.147 3.799,-0.743 4.867,-0.951 l 2.481,-0.485 c 0.189,-0.037 0.309,-0.093 0.277,-0.25 -0.146,-0.754 -0.785,-3.856 -0.965,-4.441 -0.352,-1.137 -0.909,-1.486 -1.568,-1.52 -0.427,-0.014 -0.835,0.066 -1.155,0.096 -0.157,0.03 -0.295,-0.008 -0.338,-0.228 -0.055,-0.283 0.29,-0.35 0.542,-0.399 0.219,-0.043 1.457,-0.383 2.079,-0.536 1.577,-0.438 2.056,-0.662 2.244,-0.699 0.189,-0.037 0.27,0.045 0.294,0.17 0.031,0.158 -0.101,0.314 -0.31,0.583 -0.259,0.343 -0.261,0.833 -0.177,1.599 0.079,0.735 0.784,4.347 0.919,5.037 0.037,0.189 0.169,0.196 0.388,0.152 l 7.946,-1.551 c 0.219,-0.043 0.302,-0.124 0.271,-0.281 -0.123,-0.628 -0.83,-3.914 -0.997,-4.435 -0.495,-1.534 -0.932,-1.774 -1.541,-1.884 -0.407,-0.083 -0.947,-0.011 -1.168,0.033 -0.282,0.055 -0.451,0.023 -0.494,-0.197 -0.043,-0.221 0.133,-0.32 0.284,-0.381 0.364,-0.138 1.734,-0.47 2.042,-0.562 1.426,-0.377 1.773,-0.608 1.993,-0.651 0.157,-0.03 0.288,-0.023 0.319,0.134 0.03,0.157 -0.027,0.363 -0.028,0.527 -0.013,0.263 0.022,0.778 0.076,1.388 0.085,0.602 1.305,6.852 1.502,7.857 z m -19.75,-26.208 c 6.232,2.129 13.064,4.174 13.608,4.333 0.757,0.232 1.258,0.305 1.414,0.621 0.142,0.287 -0.217,0.572 -0.791,0.855 l -16.85,8.663 c -2.48,1.264 -3.256,1.791 -3.116,2.65 0.084,0.458 0.312,0.988 0.496,1.361 0.142,0.287 0.17,0.487 -0.003,0.573 -0.258,0.127 -0.414,-0.117 -0.598,-0.49 -0.738,-1.491 -1.32,-2.882 -1.447,-3.139 -0.27,-0.545 -0.924,-1.65 -1.847,-3.514 -0.198,-0.402 -0.269,-0.688 -0.039,-0.802 0.172,-0.085 0.314,0.059 0.47,0.374 0.227,0.459 0.526,0.99 0.939,1.392 0.484,0.474 1.415,0.478 3.681,-0.571 l 12.201,-5.648 -0.043,-0.086 c -0.801,-0.246 -5.961,-1.655 -10.606,-3.248 -4.43,-1.52 -10.004,-3.331 -12.62,-4.286 -0.472,-0.159 -0.957,-0.348 -1.113,-0.663 -0.128,-0.258 0.073,-0.5 0.704,-0.813 l 17.941,-9.273001 c 1.591,-0.824 2.079,-1.352 1.912,-2.2678 -0.084,-0.3867 -0.198,-0.616 -0.341,-0.9031 -0.169,-0.3442 -0.168,-0.5586 0.004,-0.6438 0.229,-0.114 0.4,0.1594 0.584,0.5313 0.696,1.4064 1.149,2.5384 1.305,2.8534 0.298,0.602 1.066,1.936 1.804,3.428001 0.213,0.43 0.341,0.76 0.111,0.873 -0.172,0.085 -0.315,0.013 -0.485,-0.331 -0.199,-0.402 -0.54,-1.090001 -0.925,-1.435001 -0.627,-0.547 -1.3,-0.535 -3.064,0.303 l -13.018,6.087001 0.072,0.143 c 0.7,0.261 6.745,2.088 9.66,3.073 z m -14.633,-31.989301 -0.286,0.207 c -0.383,0.291 -0.546,0.3473 -0.714,0.1543 -0.126,-0.1445 -0.024,-0.3195 0.197,-0.5528 0.628,-0.5468 2.23,-2.0683 2.737,-2.5097 0.363,-0.3149 0.528,-0.4172 0.675,-0.2485 0.084,0.0969 0.204,0.3325 0.446,0.7571 0.267,0.4043 0.657,0.9992 1.33,1.7715 l 8.318,9.5593 c 0.693,0.7961 1.54,1.6723 2.22,2.3086 0.575,0.5617 1.026,0.593 1.194,0.7864 0.126,0.1445 0.044,0.3425 -0.207,0.6882 -0.15,0.2168 -1.948,2.5871 -2.335,2.9231 -0.265,0.2312 -0.428,0.2883 -0.575,0.1191 -0.126,-0.1457 -0.092,-0.3015 0.058,-0.5175 0.152,-0.2168 0.336,-0.5899 0.489,-1.1465 0.215,-0.8243 -0.168,-1.5078 -1.338,-2.95 l -3.033,-3.6809 -9.898,8.6125 c -2.221,1.9324 -4.128,3.5921 -5.037,4.5941 -0.637,0.682 -1.042,1.289 -0.719,1.856 0.142,0.260001 0.345,0.591001 0.66,0.953001 0.252,0.29 0.264,0.449 0.143,0.555 -0.169,0.146 -0.388,0.041 -0.661,-0.274 -0.84,-0.965 -2.091,-2.549001 -2.575,-3.104001 -0.588,-0.676 -1.984,-2.134 -3.37,-3.727 -0.231,-0.2652 -0.327,-0.5222 -0.158,-0.6687 0.121,-0.1055 0.298,-0.0481 0.53,0.2179 0.315,0.3622 0.825,0.8512 1.167,1.1473 0.727,0.6395 1.384,0.3235 2.124,-0.1933 1.142,-0.7825 3.049,-2.4414 5.27,-4.3743 l 9.898,-8.6121 -2.719,-2.9797 c -1.918,-2.1062 -3.162,-2.1695 -3.831,-1.6714 z m 14.406,137.262301 c -0.833,-0.599 -1.591,-1.077 -5.708,-3.667 l -4.768,-2.998 c -2.492,-1.567 -4.632,-2.913 -5.854,-3.493 -0.855,-0.386 -1.535,-0.626 -1.984,-0.151 -0.207,0.209 -0.466,0.5 -0.722,0.906 -0.204,0.325 -0.354,0.382 -0.489,0.297 -0.19,-0.119 -0.152,-0.36 0.07,-0.711 0.681,-1.084 1.836,-2.739 2.227,-3.363 0.444,-0.703 1.435,-2.461 2.56,-4.25 0.188,-0.298 0.405,-0.463 0.595,-0.344 0.134,0.086 0.131,0.272 -0.056,0.57 -0.256,0.406 -0.577,1.036 -0.761,1.449 -0.403,0.881 0.091,1.418 0.798,1.977 1.08,0.868 3.22,2.215 5.712,3.781 l 10.835,6.816 c 0.298,0.187 0.511,0.207 0.651,0.106 0.234,-0.191 0.517,-0.582 0.773,-0.988 0.391,-0.624 0.928,-1.835 0.646,-3.374 -0.399,-2.368 -2.164,-3.59 -3.057,-4.153 -2.763,-1.737 -5.798,-0.698 -6.752,0.819 -0.358,0.569 -0.559,0.708 -0.776,0.571 -0.189,-0.119 -0.097,-0.326 -0.039,-0.479 0.058,-0.152 0.245,-0.45 0.33,-0.585 2.42,-3.846 6.901,-4.96 10.748,-2.541 1.435,0.904 2.176,2.428 2.371,3.383 0.133,0.688 0.504,2.623 -1.625,6.009 -0.783,1.246 -1.854,2.766 -2.552,3.876 -0.477,0.759 -1.469,2.516 -2.372,3.952 -0.256,0.406 -0.429,0.561 -0.618,0.442 -0.19,-0.119 -0.142,-0.316 0.046,-0.614 0.238,-0.378 0.5,-0.856 0.582,-1.107 0.372,-1.014 0.076,-1.502 -0.811,-2.136 z m 37.356,-19.284 1.617,0.608 -2.348,6.245 5.431,1.991 2.221,-5.909 1.618,0.608 -2.23,5.932 5.296,1.939 2.289,-6.088 1.617,0.609 -3.007,7.996 -15.595,-5.71 3.091,-8.221 z m -9.295,21.246 11.879,5.869 0.021,-0.043 -8.036,-14.252 1.409,-1.307 14.601,7.185 -0.939,1.865 -11.77,-5.814 -0.022,0.043 7.897,14.263 -1.442,1.208 -14.536,-7.151 0.938,-1.866 z m -6.496,9.885 c 1.804,-2.693 4.758,-4.816 9.224,-1.909 l 8.633,5.698 -1.148,1.715 -8.534,-5.631 c -3.131,-2.098 -5.323,-1.025 -6.659,0.968 -1.644,2.453 -1.389,4.53 1.144,6.227 1.275,0.856 2.605,1.717 3.913,2.566 l 5.112,3.366 -1.149,1.715 -4.812,-3.166 c -1.429,-0.929 -2.679,-1.738 -3.795,-2.486 -4.207,-2.819 -3.92,-6.093 -1.929,-9.063 z m -70.808,52.709 4.79,15.903 -1.982,0.578 -4.79,-15.903 1.982,-0.578 z m 25.902,4.081 0.042,-0.022 1.685,-16.275 1.904,-0.251 7.759,14.305 -1.844,0.978 -6.242,-11.548 -0.042,0.021 -1.804,16.203 -1.876,0.153 -7.724,-14.24 1.844,-0.979 6.298,11.655 z m 77.707,-103.877 c -5.746,-0.847 -2.969,-7.837 -7.147,-8.452 -1.829,-0.27 -3.189,0.888 -3.472,2.812 -0.193,1.305 0.186,2.696 0.697,3.668 l -1.605,0.686 c -0.649,-1.528 -0.907,-2.9 -0.642,-4.703 0.532,-3.61 3.064,-4.984 5.509,-4.624 5.152,0.761 3.234,8.022 6.843,8.554 1.994,0.294 3.11,-1.192 3.32,-2.616 0.228,-1.543 -0.198,-2.601 -0.696,-3.669 l 1.611,-0.563 c 0.588,1.445 0.876,2.943 0.639,4.558 -0.431,2.92 -2.516,4.723 -5.057,4.349 z m -15.663,11.649 12.851,3.221 0.013,-0.046 -10.872,-12.227 1.101,-1.576 15.791,3.931 -0.522,2.022 -12.735,-3.191 -0.013,0.046 10.737,12.268 -1.152,1.487 -15.721,-3.913 0.522,-2.022 z m 4.978,-28.052 16.57,1.126 -0.157,2.057 -16.57,-1.126 0.157,-2.057 z m -156.818,123.451 c 0.394,-1.806 -0.669,-3.241 -2.568,-3.656 -1.29,-0.28 -2.702,0.002 -3.708,0.446 l -0.574,-1.649 c 1.567,-0.541 2.954,-0.707 4.736,-0.318 3.564,0.777 4.763,3.396 4.236,5.811 -1.108,5.089 -8.223,2.678 -9,6.243 -0.428,1.969 0.977,3.185 2.384,3.492 1.523,0.332 2.608,-0.021 3.707,-0.445 l 0.452,1.646 c -1.481,0.487 -2.996,0.673 -4.591,0.325 -2.883,-0.627 -4.541,-2.831 -3.993,-5.34 1.235,-5.675 8.021,-2.428 8.919,-6.555 z m 49.795,-3.832 1.786,8.257 1.729,7.975 -2.021,0.419 -3.515,-16.232 2.021,-0.419 z m -27.031,2.019 -0.019,7.106 1.32,0.02 c 1.559,0.026 2.103,-0.926 3.133,-2.229 l 3.997,-5.264 1.806,1.134 -3.407,4.361 c -0.71,0.828 -1.671,2.349 -2.778,2.524 l 0,0.048 c 2.322,0.349 4.144,1.963 4.1,4.674 -0.045,2.76 -2.206,4.333 -5.35,4.283 l -5.015,-0.082 0.125,-16.608 2.088,0.033 z m 2.346,15.208 c 2.687,0.044 3.721,-1.499 3.75,-3.275 0.038,-2.399 -2.061,-3.178 -4.102,-3.211 l -2.063,-0.033 -0.057,6.479 2.472,0.04 z m -17.823,-10.896 6.82,0.772 2.902,-5.564 1.976,0.9 -8.391,15.425 -1.955,-0.221 -5.076,-17.024 1.975,-0.38 1.749,6.092 z m 2.445,9.552 0.047,0.006 3.443,-7.147 -5.413,-0.614 1.923,7.755 z m 114.162,-57.49 5.474,4.531 0.854,-1.006 c 1.01,-1.188 0.622,-2.213 0.269,-3.836 l -1.523,-6.432 2.023,-0.674 1.202,5.402 c 0.189,1.075 0.752,2.784 0.183,3.749 l 0.036,0.031 c 1.746,-1.571 4.151,-1.953 6.216,-0.196 2.103,1.789 1.944,4.458 -0.094,6.852 l -3.25,3.821 -12.743,-10.651 1.353,-1.591 z m 11.631,9.738 1.601,-1.884 c 1.742,-2.048 1.207,-3.826 -0.145,-4.977 -1.828,-1.555 -3.764,-0.429 -5.085,1.126 l -1.338,1.573 4.967,4.162 z m -155.085,31.633 6.521,2.139 3.969,-4.861 1.752,1.281 -11.342,13.406 -1.869,-0.613 -1.522,-17.698 2.011,0.027 0.48,6.319 z m 0.457,9.85 0.047,0.014 4.818,-6.299 -5.178,-1.697 0.313,7.982 z m 56.979,-8.046 2.054,-0.203 0.842,7.056 7.121,8.124 -1.688,1.227 -6.185,-7.685 -4.275,8.718 -1.966,-0.843 4.939,-9.338 -0.842,-7.056 z m 58.026,-19.798 5.334,3.423 5.634,-3.92 -1.492,-6.095 2.078,-0.628 3.875,17.128 -1.616,1.123 -15.047,-9.442 1.234,-1.589 z m 13.473,8.988 0.04,-0.028 -2.129,-7.641 -4.472,3.111 6.561,4.558 z m 14.558,-25.535 c 1.463,1.525 1.677,3.481 0.419,5.22 l 0.033,0.035 c 1.768,-0.932 3.376,-0.712 4.788,0.76 1.281,1.333 1.893,3.774 -0.74,6.299 l -3.324,3.191 -11.605,-11.883 3.36,-3.223 c 2.354,-2.261 5.025,-2.528 7.069,-0.399 z m 1.685,13.021 1.195,-1.148 c 1.922,-1.844 1.969,-3.286 0.688,-4.62 -1.179,-1.228 -2.791,-1.279 -4.748,0.6 l -1.125,1.08 3.99,4.088 z m -5.086,-5.23 1.402,-1.347 c 1.731,-1.662 2.039,-3.421 0.643,-4.876 -1.595,-1.663 -3.197,-1.389 -4.72,0.074 l -1.75,1.678 4.425,4.471 z m -52.785,22.127 4.369,4.591 6.404,-2.47 -0.002,-6.276 2.168,-0.115 -0.303,17.557 -1.837,0.707 -12.374,-12.744 1.575,-1.25 z m 10.955,11.928 0.044,-0.016 -0.253,-7.928 -5.084,1.96 5.293,5.984 z m -19.086,-8.053 -5.51,8.766 8.437,5.578 -1.151,1.538 -9.811,-6.641 6.23,-10.263 1.805,1.022 z m 5.013,-253.001601 3.309,-12.7051 -0.046,-0.0117 -12.367,10.6223 -1.477,-1.1672 4.059,-15.6836004 2.017,0.5410004 -3.341,12.8203 0.048,0.0129 12.327,-10.757 1.565,1.1152 -4.077,15.7539 -2.017,-0.541 z m 27.954,10.2391 -0.793,1.5355 -11.172,-5.7754 0.794,-1.5351 4.669,2.4128 6.705,-13.2832 1.834,0.9473 -6.706,13.2844 4.669,2.4137 z m -51.997,-15.2098 -4.437,-14.3496004 -5.955,13.6433004 -2.131,-0.1441 -1.891,-16.7746004 2.01,-0.2 1.311,14.3289004 0.048,0.0039 5.753,-13.5137004 1.964,0.1336 4.208,14.1899004 0.048,0.0039 3.07,-14.0324004 1.989,0.4714 -3.76,16.3910004 -2.227,-0.1515 z m 33.688,8.4308 -0.357,-17.7597 2.005,0.159 0.064,6.3379 6.368,2.5617 4.278,-4.5903 1.664,1.3938 -12.196,12.6328 -1.826,-0.7352 z m 1.735,-9.391 -0.213,7.9856 0.045,0.0183 5.222,-5.9707 -5.054,-2.0332 z m -55.632,-9.8836 c -0.271,-3.7578004 -2.466,-4.8261004 -4.86,-4.6523004 -2.944,0.2141 -4.425,1.6926 -4.205,4.7324004 0.111,1.532 0.249,3.1106 0.386,4.6641 l 0.491,6.1008 -2.059,0.1492 -0.464,-5.741 c -0.148,-1.6985 -0.279,-3.1809 -0.377,-4.5207 -0.365,-5.0508004 2.393,-6.8387004 5.959,-7.0977004 3.232,-0.2344 6.723,0.7883 7.18,6.0969004 l 0.82,10.3113 -2.058,0.1492 -0.813,-10.1922 z m -59.785201,28.1985 c -2.5426,1.4968 -5.2554,1.0047 -6.5586,-1.209 -2.9453,-5.0063 4.2407,-7.2285 2.0981,-10.8692 -0.9367,-1.5929 -2.6914,-1.925 -4.3672,-0.9386 -1.1367,0.6687 -1.9824,1.8347 -2.4199,2.8437 l -1.5403,-0.8191 c 0.7825,-1.4629 1.6883,-2.5254 3.261,-3.4504 3.1433,-1.8504 5.8008,-0.741 7.0547,1.3894 2.6414,4.4883 -4.2168,7.55 -2.3672,10.6938 1.0215,1.7383 2.8789,1.6758 4.1199,0.9449 1.3445,-0.7906 1.9004,-1.7859 2.4199,-2.8433 l 1.4492,0.9011 c -0.7566,1.3645 -1.7422,2.5285 -3.1496,3.3567 z m 16.705201,-8.5656 -4.654,1.8718 -6.332001,-15.3543 1.9375,-0.7793 2.739501,6.5547 1.225,-0.4922 c 1.448,-0.582 1.579,-1.6699 2.022,-3.2707 l 1.64,-6.4031 2.104,0.3438 -1.447,5.3417 c -0.332,1.0391 -0.627,2.8133 -1.578,3.4036 l 0.017,0.0449 c 2.275,-0.5801 4.582,0.2 5.594,2.7156 1.03,2.5606 -0.352,4.8496 -3.268,6.0235 z m 1.201,-5.6317 c -0.896,-2.2266 -3.132,-2.1281 -5.025,-1.3664 l -1.916,0.7695 2.464,5.9942 2.294,-0.9231 c 2.493,-1.0027 2.846,-2.8258 2.183,-4.4742 z m 23.076,-1.507 -4.927,0.9328 -3.232,-16.2910004 2.052,-0.3891 1.416,6.9621004 1.297,-0.2449 c 1.532,-0.2902 1.873,-1.332 2.617,-2.8164 l 2.853,-5.9633004 1.997,0.7453 -2.456,4.9602004 c -0.527,0.9551 -1.162,2.6387 -2.21,3.032 l 0.008,0.0469 c 2.346,-0.1258 4.456,1.0859 4.96,3.7512 0.514,2.7117 -1.285,4.689 -4.375,5.2742 z m 2.272,-5.291 c -0.446,-2.3582 -2.66,-2.6961 -4.664,-2.3172 l -2.028,0.3843 1.253,6.3579 2.428,-0.4602 c 2.642,-0.5 3.341,-2.2195 3.011,-3.9648 z m -16.659,7.0734 6.241,-1.8273 0.486,1.6582 -8.199,2.4011 -4.807,-15.898 8.431,-2.4692 0.485,1.6582 -6.402,1.875 1.671,5.5383 6.057,-1.7742 0.486,1.6578 -6.081,1.7817 1.632,5.3984 z m 130.031,20.5215 -0.031,0.0371 c 1.576,1.741 1.963,4.1441 0.212,6.2144 -1.783,2.1067 -4.452,1.9543 -6.853,-0.0757 l -3.829,-3.2407 10.618,-12.7711 1.594,1.3497 -4.516,5.4839 1.008,0.8528 c 1.192,1.0078 2.214,0.6164 3.836,0.2597 l 6.428,-1.5398 0.679,2.0203 -5.399,1.2156 c -1.073,0.1926 -2.78,0.7602 -3.747,0.1938 z m -2.27,-0.4746 -1.576,-1.3332 -4.149,4.9777 1.888,1.5965 c 2.051,1.7363 3.829,1.1965 4.975,-0.159 1.551,-1.832 0.419,-3.7648 -1.138,-5.082 z m 38.376,44.8406 -9.042,5.023 -0.99,-1.8101 8.938,-4.9656 c 3.306,-1.8078 3.368,-4.2473 2.217,-6.3535 -1.415,-2.5911 -3.375,-3.3247 -6.05,-1.8633 -1.348,0.7371 -2.727,1.5175 -4.084,2.2859 l -5.348,2.9774 -0.989,-1.8114 5.031,-2.8035 c 1.484,-0.8391 2.779,-1.5734 3.958,-2.218 4.443,-2.4277 7.215,-0.6601 8.929,2.4778 1.554,2.8433 2.072,6.4441 -2.57,9.0613 z m -49.139,-43.4395 -1.718,-1.1445 5.61,-8.5488 c 2.089,-3.136 1.01,-5.325 -0.987,-6.6551 -2.457,-1.6379 -4.533,-1.3769 -6.224,1.159 -0.851,1.2785 -1.709,2.6094 -2.554,3.9211 l -3.354,5.1199 -1.717,-1.1445 3.153,-4.8203 c 0.925,-1.4305 1.73,-2.6828 2.476,-3.8008 2.807,-4.2149 6.082,-3.9356 9.058,-1.9531 2.696,1.7968 4.827,4.7453 1.933,9.2187 l -5.676,8.6484 z m 63.219,80.793501 c 0.39,2.27 -1.118,4.404 -3.389,4.794 -2.27,0.391 -4.405,-1.117 -4.795,-3.387 -0.391,-2.272 1.117,-4.406 3.387,-4.796 2.271,-0.391 4.406,1.117 4.797,3.389 z m 2.227,30.11 c -5.808,-0.094 -3.961,-7.386 -8.184,-7.454 -1.848,-0.03 -3.045,1.295 -3.077,3.239 -0.021,1.319 0.534,2.649 1.166,3.547 l -1.502,0.888 c -0.841,-1.43 -1.275,-2.757 -1.246,-4.582 0.059,-3.647 2.391,-5.338 4.862,-5.297 5.207,0.084 4.247,7.534 7.894,7.593 2.017,0.033 2.931,-1.584 2.954,-3.024 0.026,-1.56 -0.535,-2.554 -1.167,-3.548 l 1.525,-0.767 c 0.77,1.356 1.251,2.804 1.225,4.436 -0.049,2.951 -1.883,5.01 -4.45,4.969 z m -18.943,-46.366 11.243,-9.959 -14.885,0.2 -0.746,-2.001 14.502,-8.640001 1.012,1.7493 -12.515,7.103701 0.017,0.045 14.683,-0.33 0.688,1.843 -11.192,9.684 0.016,0.045 14.05,-2.988 0.389,2.005 -16.482,3.334 -0.78,-2.091 z m -16.07,-32.534301 13.739,-9.3325 1.145,1.7168 -13.739,9.3325 -1.145,-1.7168 z m -186.334801,-31.8039 -15.2808,-9.0578 1.1929,-1.62 5.4192,3.2871 5.5344,-4.0617 -1.6465,-6.0554 2.0613,-0.6797 4.3066,17.0234 -1.5871,1.1641 z m -2.6734,-9.6473 -4.393,3.2234 6.6762,4.3899 0.0379,-0.0293 -2.3211,-7.584 z m 175.017201,24.1551 7.075,-16.2949 1.756,0.9816 -2.583,5.7871 4.722,4.982 5.803,-2.3914 0.931,1.961 -16.349,6.4035 -1.355,-1.4289 z m 2.003,-0.6082 7.234,-3.2524 -3.748,-3.9539 -3.519,7.1707 0.033,0.0356 z m 17.786,0.6609 -11.688,9.2102 -1.262,-1.634 13.057,-10.2656 5.589,7.2363 -1.367,1.0566 -4.329,-5.6035 z M 78.991699,264.43544 c 1.0894,-1.492 0.6992,-3.234 -0.8704,-4.382 -1.0656,-0.778 -2.4714,-1.093 -3.571,-1.094 l 0.1421,-1.739 c 1.6528,0.138 2.9883,0.549 4.4602,1.625 2.9453,2.153 2.9805,5.033 1.5215,7.028 -3.0735,4.205 -8.6035,-0.878 -10.7571,2.067 -1.189,1.628 -0.396,3.307 0.7668,4.157 1.2586,0.921 2.3938,1.037 3.5711,1.094 l -0.2539,1.688 c -1.5523,-0.153 -3.0117,-0.596 -4.3297,-1.559 -2.3832,-1.742 -3.0058,-4.428 -1.4906,-6.501 3.4281,-4.689 8.3164,1.026 10.811,-2.384 z m -38.7871,-50.49 -6.1731,3.517 0.6379,1.155 c 0.7539,1.367 1.8492,1.364 3.4922,1.609 l 6.5554,0.85 -0.0847,2.129 -5.4785,-0.786 c -1.0727,-0.203 -2.8696,-0.279 -3.5703,-1.154 l -0.0422,0.023 c 0.8523,2.19 0.3586,4.572 -2.0157,5.883 -2.4168,1.334 -4.8562,0.242 -6.3757,-2.511 l -2.4243,-4.391 14.4692,-8.152 1.0098,1.828 z m -7.5715,4.261 -5.6493,3.174 1.1954,2.164 c 1.2988,2.353 3.1511,2.482 4.7058,1.623 2.1008,-1.16 1.7317,-3.368 0.7449,-5.154 l -0.9968,-1.807 z m -3.6993,-34.853 -16.1726,3.777 -0.4531,-2.013 16.1738,-3.779 0.4519,2.015 z m 6.55,47.579 c 4.7887,-3.286 7.5055,3.726 10.9879,1.337 1.5246,-1.047 1.7336,-2.82 0.6329,-4.423 -0.7458,-1.089 -1.9684,-1.851 -3.0047,-2.216 l 0.7097,-1.593 c 1.5141,0.677 2.6367,1.507 3.67,3.011 2.0648,3.008 1.1425,5.737 -0.8961,7.136 -4.2942,2.947 -7.8247,-3.683 -10.8325,-1.618 -1.6629,1.14 -1.4714,2.988 -0.6558,4.176 0.8828,1.287 1.9136,1.771 3.0047,2.216 l -0.7981,1.508 c -1.414,-0.659 -2.6441,-1.562 -3.568,-2.907 -1.6703,-2.434 -1.3671,-5.174 0.75,-6.627 z m -21.6269,-40.507 17.3355,1.364 0.5762,1.831 -13.5098,11.598 -1.1257,-1.658 12.0261,-10.075 -15.4761,-0.892 0.1738,-2.168 z m 24.2227,19.36 -1.5872,0.683 -2.6418,-6.127 -5.2925,2.334 2.5,5.797 -1.5879,0.683 -2.5078,-5.818 -5.1606,2.277 2.5742,5.973 -1.5855,0.684 -3.3828,-7.846 15.1941,-6.707 3.4778,8.067 z m 35.0386,-159.421501 1.1488,1.291 -9.3988,8.3574 -1.148,-1.291 3.9273,-3.493 -9.9961,-11.0234 1.5434,-1.3723 9.9961,11.0234 3.9273,-3.4921 z m -8.2754,196.460501 -2.1121,5.976 5.1043,4.589 5.593,-2.847 1.0848,1.88 -15.7872,7.688 -1.4628,-1.316 5.7523,-16.806 1.8277,0.836 z m -5.6675,15.171 0.0347,0.034 6.9516,-3.821 -4.0508,-3.642 -2.9355,7.429 z m -10.6172,-10.344 10.8394,-10.193 1.4008,1.518 -10.8422,10.193 3.5649,3.864 -1.2715,1.171 -8.5254,-9.244 1.2691,-1.172 3.5649,3.863 z m 5.8933,-15.984 -12.9187,10.438 -1.2832,-1.617 12.9187,-10.438 1.2832,1.617 z m 37.252,31.648 -4.2024,13.763 0.0434,0.02 10.4336,-10.335 1.7676,0.865 -1.4692,14.728 0.0442,0.021 8.146201,-11.831 1.663,1.19 -9.677201,13.752 -2.0039,-0.981 1.3164,-14.963 -10.6699,10.381 -1.9184,-0.94 4.5902,-16.245 1.9364,0.575 z M 32.325299,76.649039 c -1.9813,3.2899 -0.7743,7.2395 2.5148,9.2207 3.2891,1.9817 7.3445,1.2024 9.3262,-2.0867 0.8425,-1.3977 1.2683,-2.7102 1.1472,-4.3234 l 1.8442,0.1015 c -0.102,1.8438 -0.4824,3.4071 -1.511,5.1133 -2.539,4.2148 -7.5879,5.7121 -11.9464,3.0859 -4.6461,-2.7988 -5.3946,-7.7879 -2.8551,-12.0027 0.9043,-1.5 2.4414,-2.7043 3.9617,-3.5527 l 0.8332,1.4539 c -1.3188,0.7468 -2.559,1.7363 -3.3148,2.9902 z m 24.9398,-8.5684 -1.268,1.6282 -8.1109,-6.2239 c -2.9731,-2.3156 -5.2363,-1.4011 -6.7109,0.4934 -1.8145,2.3289 -1.7075,4.4188 0.6968,6.2918 1.2121,0.9434 2.477,1.8977 3.7231,2.8367 l 4.8574,3.7219 -1.268,1.6289 -4.5738,-3.5012 c -1.3598,-1.0269 -2.5488,-1.9226 -3.6086,-2.7488 -3.9949,-3.1113 -3.4758,-6.3562 -1.2793,-9.1777 1.991,-2.5567 5.0879,-4.4637 9.3359,-1.2481 l 8.2063,6.2988 z m 3.7652,-3.9492 -1.4336,1.4864 -12.0574,-11.4207 6.3457,-6.584 1.2442,1.1992 -4.9129,5.0976 10.814,10.2215 z M 9.2764189,168.59644 l 0.50899,-1.811 16.0390901,-2.284 0.2761,2.071 -13.1187,1.845 0.0059,0.047 14.6699,7.245 -0.4281,1.873 -16.1114,2.293 -0.2754,-2.069 13,-1.83 -0.0054,-0.047 -14.5609801,-7.333 z m 27.7042801,-68.329 -17.759,-0.429001 0.2485,-1.996 6.334,0.217 2.8418,-6.2483 -4.3989,-4.4773 1.4668,-1.6008 12.0813,12.7424 -0.8145,1.792001 z m -7.0508,-7.107501 -2.2546,4.9595 7.9683,0.565 0.0195,-0.044 -5.7332,-5.4805 z m -4.2668,10.455501 1.6352,0.561 -2.1582,6.288 5.3492,1.785 2.2133,-6.446 1.6348,0.56 -2.8828,8.4 -15.7559,-5.255 0.6773,-1.975 7.1368,2.348 2.1503,-6.266 z m 0.2219,51.003 c 0.0528,3.24 -1.164,6.669 -6.4902,6.827 l -10.3406401,0.239 -0.03438,-2.064 10.2219201,-0.238 c 3.7671,-0.06 4.957,-2.192 4.9175,-4.592 -0.0476,-2.952 -1.4414,-4.514 -4.4879,-4.464 -1.5363,0.025 -3.1195,0.075 -4.6796,0.125 l -6.1172301,0.147 -0.03437,-2.065 5.7590001,-0.14 c 1.7027,-0.052 3.1902,-0.101 4.534,-0.122 5.0632,-0.083 6.6945,2.771 6.7519,6.347 z m -5.8125,-28.854 c 2.2703,0.39 3.7781,2.524 3.3875,4.795 -0.3894,2.27 -2.5242,3.779 -4.7945,3.388 -2.2707,-0.39 -3.7793,-2.525 -3.3891,-4.796 0.3906,-2.27 2.5254,-3.778 4.7961,-3.387"
       inkscape:connector-curvature="0" /><path
       id="path3003"
       style="fill:#33b652;fill-opacity:0.47058824;fill-rule:nonzero;stroke:none"
       d="m 293.1901,68.779563 c -0.71004,-1.139801 -1.43834,-2.278686 -2.17465,-3.398706 0.27669,-0.665541 0.42874,-1.403342 0.42874,-2.175099 0,-3.054902 -2.38957,-5.458098 -5.37255,-5.458098 -0.1212,0 -0.2504,0.01829 -0.37045,0.02722 -0.80035,-1.076801 -1.60411,-2.170983 -2.43075,-3.229948 0.88494,-0.290295 1.82706,-0.454594 2.8012,-0.454594 4.98383,0 9.0347,4.108837 9.0347,9.115428 0,2.090148 -0.73289,4.023658 -1.91624,5.573805 z"
       inkscape:connector-curvature="0" /><path
       id="path3005"
       style="fill:#33b652;fill-opacity:0.47058824;fill-rule:nonzero;stroke:none"
       d="m 17.929786,68.493726 c -1.066525,-1.501097 -1.687326,-3.323245 -1.687326,-5.287968 0,-5.006591 4.077178,-9.115428 9.061897,-9.115428 0.853038,0 1.673926,0.142918 2.455916,0.370214 -0.839158,1.075888 -1.670312,2.188362 -2.483162,3.287116 -2.970454,0.01383 -5.377285,2.411314 -5.377285,5.458098 0,0.62884 0.09826,1.240757 0.285836,1.799853 -0.763721,1.155921 -1.52297,2.3131 -2.255876,3.488115 z"
       inkscape:connector-curvature="0" /><path
       id="path3007"
       style="fill:#33b652;fill-opacity:0.47058824;fill-rule:nonzero;stroke:none"
       d="m 16.228615,39.575115 0,-18.079478 18.258182,0 0,18.079478 -18.258182,0 z m 3.644856,-3.644753 10.932786,0 0,-10.754184 -10.932786,0 0,10.754184 z"
       inkscape:connector-curvature="0" /><path
       id="path3009"
       style="fill:#33b652;fill-opacity:0.47058824;fill-rule:nonzero;stroke:none"
       d="m 49.001555,32.049622 c -0.09387,-0.523424 -0.173788,-1.049591 -0.173788,-1.59931 0,-5.011051 4.077165,-9.119544 9.061918,-9.119544 1.31256,0 2.559148,0.28938 3.688658,0.799426 -1.312673,0.932969 -2.608311,1.888805 -3.889657,2.858361 -2.371525,0.08941 -4.341622,1.687348 -4.971261,3.916869 -1.255507,1.031754 -2.497066,2.081231 -3.71587,3.144198 z"
       inkscape:connector-curvature="0" /><path
       id="path3011"
       style="fill:#33b652;fill-opacity:0.47058824;fill-rule:nonzero;stroke:none"
       d="m 262.31979,32.392625 c -1.17879,-1.031182 -2.36672,-2.05802 -3.57295,-3.058447 -0.49963,-2.505981 -2.65256,-4.345623 -5.26054,-4.345623 -0.0765,0 -0.15206,0 -0.22867,0 -1.22794,-0.929425 -2.46047,-1.849017 -3.71586,-2.743112 1.19708,-0.588594 2.53252,-0.914675 3.94453,-0.914675 4.98385,0 9.03471,4.108493 9.03471,9.119544 0,0.665426 -0.0675,1.313473 -0.20123,1.942313 z"
       inkscape:connector-curvature="0" /><path
       id="path3013"
       style="fill:#33b652;fill-opacity:0.47058824;fill-rule:nonzero;stroke:none"
       d="m 276.98203,39.575115 0,-18.079478 18.25807,0 0,18.079478 -18.25807,0 z m 3.64498,-3.644753 10.93266,0 0,-10.754184 -10.93266,0 0,10.754184 z"
       inkscape:connector-curvature="0" /><path
       id="path3015"
       style="fill:#33b652;fill-opacity:0.47058824;fill-rule:nonzero;stroke:none"
       d="m 48.778602,7.1685026 0,-18.0800486 18.25784,0 0,18.0800486 -18.25784,0 z m 3.680197,-3.6453246 10.932775,0 0,-10.75407 -10.932775,0 0,10.75407 z"
       inkscape:connector-curvature="0" /><path
       id="path3017"
       style="fill:#33b652;fill-opacity:0.47058824;fill-rule:nonzero;stroke:none"
       d="m 88.044486,6.8102933 c -3.809629,-1.0848052 -6.631403,-4.613167 -6.631403,-8.7751691 0,-5.0065912 4.077167,-9.1154282 9.061921,-9.1154282 4.98384,0 9.030136,4.108837 9.030136,9.1154282 0,1.6248063 -0.4515,3.1571168 -1.196846,4.4876268 -3.4792,1.3139312 -6.90478,2.7520299 -10.263808,4.2875423 z M 90.475004,3.523178 c 2.97853,0 5.37281,-2.4340664 5.37281,-5.4880538 0,-3.0549026 -2.39429,-5.4580982 -5.37281,-5.4580982 -2.983906,0 -5.404591,2.4031956 -5.404591,5.4580982 0,3.0539874 2.420685,5.4880538 5.404591,5.4880538 z"
       inkscape:connector-curvature="0" /><path
       id="path3019"
       style="fill:#33b652;fill-opacity:0.47058824;fill-rule:nonzero;stroke:none"
       d="m 113.91357,-2.4517119 0,-8.4598341 18.26618,0 0,4.7439647 c -1.22795,0.1782477 -2.44334,0.3703287 -3.66224,0.5716718 l 0,-1.6256065 -10.91529,0 0,3.8274591 c -1.23275,0.2938399 -2.46984,0.6199221 -3.68865,0.942345 z"
       inkscape:connector-curvature="0" /><path
       id="path3021"
       style="fill:#33b652;fill-opacity:0.47058824;fill-rule:nonzero;stroke:none"
       d="m 162.81795,-7.650271 c -2.42961,-0.112161 -4.88551,-0.201457 -7.34256,-0.201457 -2.27755,0 -4.52421,0.07546 -6.77546,0.17013 1.66128,-2.072769 4.22123,-3.398706 7.0613,-3.398706 2.84921,0 5.40459,1.335312 7.05672,3.430033 z"
       inkscape:connector-curvature="0" /><path
       id="path3023"
       style="fill:#33b652;fill-opacity:0.47058824;fill-rule:nonzero;stroke:none"
       d="m 197.35039,-2.3623028 c -1.21881,-0.3260811 -2.42961,-0.6485051 -3.66215,-0.9469174 l 0,-3.9122958 -10.9155,0 0,1.6836885 c -1.22337,-0.205459 -2.4559,-0.3929677 -3.68843,-0.5716718 l 0,-4.8020467 18.26608,0 0,8.5492432 z"
       inkscape:connector-curvature="0" /><path
       id="path3025"
       style="fill:#33b652;fill-opacity:0.47058824;fill-rule:nonzero;stroke:none"
       d="M 223.01733,6.8688317 C 219.72106,5.3552724 216.38936,3.9305506 212.98218,2.63983 c -0.79462,-1.3630956 -1.28626,-2.9307351 -1.28626,-4.6047058 0,-5.0065912 4.07718,-9.1154282 9.06216,-9.1154282 4.98384,0 9.03471,4.108837 9.03471,9.1154282 0,4.2250009 -2.88008,7.8113295 -6.77546,8.8337075 z M 220.75808,3.523178 c 2.98298,0 5.37257,-2.4340664 5.37257,-5.4880538 0,-3.0549026 -2.38959,-5.4580982 -5.37257,-5.4580982 -2.97956,0 -5.40001,2.4031956 -5.40001,5.4580982 0,3.0539874 2.42045,5.4880538 5.40001,5.4880538 z"
       inkscape:connector-curvature="0" /><path
       id="path3027"
       style="fill:#33b652;fill-opacity:0.47058824;fill-rule:nonzero;stroke:none"
       d="m 244.21836,7.1685026 0,-18.0800486 18.25806,0 0,18.0800486 -18.25806,0 z m 3.68042,-3.6453246 10.93381,0 0,-10.75407 -10.93381,0 0,10.75407 z"
       inkscape:connector-curvature="0" /><path
       id="path3029"
       style="fill:#33b652;fill-opacity:0.47058824;fill-rule:nonzero;stroke:none"
       d="m 286.06247,7.1774212 c -4.98383,0 -9.06215,-4.1401653 -9.06215,-9.1467563 0,-5.0065909 4.07832,-9.1203439 9.06215,-9.1203439 4.97928,0 9.03015,4.113753 9.03015,9.1203439 0,5.006591 -4.05087,9.1467563 -9.03015,9.1467563 z m 0,-3.6587025 c 2.97843,0 5.37258,-2.4340664 5.37258,-5.4880538 0,-3.0549015 -2.39416,-5.4580969 -5.37258,-5.4580969 -2.98298,0 -5.40457,2.4031954 -5.40457,5.4580969 0,3.0539874 2.42159,5.4880538 5.40457,5.4880538 z"
       inkscape:connector-curvature="0" /><path
       id="path3031"
       style="fill:#33b652;fill-opacity:0.47058824;fill-rule:nonzero;stroke:none"
       d="m 25.299887,7.1774212 c -4.985154,0 -9.06234,-4.1401653 -9.06234,-9.1467563 0,-5.0065909 4.077186,-9.1203439 9.06234,-9.1203439 4.979402,0 9.030158,4.113753 9.030158,9.1203439 0,5.006591 -4.050756,9.1467563 -9.030158,9.1467563 z m 0,-3.6587025 c 2.97855,0 5.37237,-2.4340664 5.37237,-5.4880538 0,-3.0549015 -2.39382,-5.4580969 -5.37237,-5.4580969 -2.984301,0 -5.404533,2.4031954 -5.404533,5.4580969 0,3.0539874 2.420232,5.4880538 5.404533,5.4880538 z"
       inkscape:connector-curvature="0" /><path
       id="path3033"
       style="fill:#33b652;fill-opacity:0.47058824;fill-rule:nonzero;stroke:none"
       d="m 16.228615,346.2409 0,-18.07857 18.258182,0 0,18.07857 -18.258182,0 z m 3.644856,-3.64384 10.932786,0 0,-10.79088 -10.932786,0 0,10.79088 z"
       inkscape:connector-curvature="0" /><path
       id="path3035"
       style="fill:#33b652;fill-opacity:0.47058824;fill-rule:nonzero;stroke:none"
       d="m 57.893231,346.2409 c -4.97938,0 -9.056547,-4.14005 -9.056547,-9.14675 0,-5.00671 4.077167,-9.11932 9.056547,-9.11932 4.985209,0 9.035964,4.11261 9.035964,9.11932 0,5.0067 -4.050755,9.14675 -9.035964,9.14675 z m 0,-3.65756 c 2.984357,0 5.378177,-2.43418 5.378177,-5.48919 0,-3.05502 -2.39382,-5.45719 -5.378177,-5.45719 -2.978527,0 -5.398759,2.40217 -5.398759,5.45719 0,3.05501 2.420232,5.48919 5.398759,5.48919 z"
       inkscape:connector-curvature="0" /><path
       id="path3037"
       style="fill:#33b652;fill-opacity:0.47058824;fill-rule:nonzero;stroke:none"
       d="m 81.36392,346.2409 0,-18.07857 18.25785,0 0,18.07857 -18.25785,0 z m 3.643609,-3.64384 10.934035,0 0,-10.79088 -10.934035,0 0,10.79088 z"
       inkscape:connector-curvature="0" /><path
       id="path3039"
       style="fill:#33b652;fill-opacity:0.47058824;fill-rule:nonzero;stroke:none"
       d="m 123.18495,346.2409 c -4.98384,0 -9.06192,-4.14005 -9.06192,-9.14675 0,-5.00671 4.07808,-9.11932 9.06192,-9.11932 4.98384,0 9.03024,4.11261 9.03024,9.11932 0,5.0067 -4.0464,9.14675 -9.03024,9.14675 z m 0,-3.65756 c 2.97852,0 5.37279,-2.43418 5.37279,-5.48919 0,-3.05502 -2.39428,-5.45719 -5.37279,-5.45719 -2.98298,0 -5.40459,2.40217 -5.40459,5.45719 0,3.05501 2.42161,5.48919 5.40459,5.48919 z"
       inkscape:connector-curvature="0" /><path
       id="path3041"
       style="fill:#33b652;fill-opacity:0.47058824;fill-rule:nonzero;stroke:none"
       d="m 146.53443,346.2409 0,-18.07857 18.25808,0 0,18.07857 -18.25808,0 z m 3.64384,-3.64384 10.9338,0 0,-10.79088 -10.9338,0 0,10.79088 z"
       inkscape:connector-curvature="0" /><path
       id="path3043"
       style="fill:#33b652;fill-opacity:0.47058824;fill-rule:nonzero;stroke:none"
       d="m 188.20363,346.2409 c -4.98384,0 -9.06215,-4.14005 -9.06215,-9.14675 0,-5.00671 4.07831,-9.11932 9.06215,-9.11932 4.98383,0 9.03012,4.11261 9.03012,9.11932 0,5.0067 -4.04629,9.14675 -9.03012,9.14675 z m 0,-3.65756 c 2.97956,0 5.37258,-2.43418 5.37258,-5.48919 0,-3.05502 -2.39302,-5.45719 -5.37258,-5.45719 -2.98298,0 -5.40344,2.40217 -5.40344,5.45719 0,3.05501 2.42046,5.48919 5.40344,5.48919 z"
       inkscape:connector-curvature="0" /><path
       id="path3045"
       style="fill:#33b652;fill-opacity:0.47058824;fill-rule:nonzero;stroke:none"
       d="m 211.66964,346.2409 0,-18.07857 18.25692,0 0,18.07857 -18.25692,0 z m 3.64382,-3.64384 10.93382,0 0,-10.79088 -10.93382,0 0,10.79088 z"
       inkscape:connector-curvature="0" /><path
       id="path3047"
       style="fill:#33b652;fill-opacity:0.47058824;fill-rule:nonzero;stroke:none"
       d="m 253.49088,346.2409 c -4.98041,0 -9.05758,-4.14005 -9.05758,-9.14675 0,-5.00671 4.07717,-9.11932 9.05758,-9.11932 4.98383,0 9.0347,4.11261 9.0347,9.11932 0,5.0067 -4.05087,9.14675 -9.0347,9.14675 z m 0,-3.65756 c 2.98298,0 5.37715,-2.43418 5.37715,-5.48919 0,-3.05502 -2.39417,-5.45719 -5.37715,-5.45719 -2.97956,0 -5.40002,2.40217 -5.40002,5.45719 0,3.05501 2.42046,5.48919 5.40002,5.48919 z"
       inkscape:connector-curvature="0" /><path
       id="path3049"
       style="fill:#33b652;fill-opacity:0.47058824;fill-rule:nonzero;stroke:none"
       d="m 276.98203,346.2409 0,-18.07857 18.25807,0 0,18.07857 -18.25807,0 z m 3.64498,-3.64384 10.93266,0 0,-10.79088 -10.93266,0 0,10.79088 z"
       inkscape:connector-curvature="0" /><path
       id="path3051"
       style="fill:#33b652;fill-opacity:0.47058824;fill-rule:nonzero;stroke:none"
       d="m 48.778602,313.83509 0,-18.07971 18.25784,0 0,18.07971 -18.25784,0 z m 3.680197,-3.68043 10.932775,0 0,-10.75429 -10.932775,0 0,10.75429 z"
       inkscape:connector-curvature="0" /><path
       id="path3053"
       style="fill:#33b652;fill-opacity:0.47058824;fill-rule:nonzero;stroke:none"
       d="m 90.475004,313.82594 c -4.984754,0 -9.061921,-4.13547 -9.061921,-9.14675 0,-2.01915 0.656051,-3.88623 1.772185,-5.40002 1.117047,0.55795 2.241983,1.09418 3.372866,1.63041 -0.924967,0.97299 -1.487721,2.29126 -1.487721,3.76961 0,3.05958 2.420685,5.4892 5.404591,5.4892 2.89849,0 5.24235,-2.29584 5.3728,-5.23081 1.15581,0.46077 2.31756,0.88496 3.488126,1.3137 -0.74182,4.27383 -4.413096,7.57466 -8.860926,7.57466 z"
       inkscape:connector-curvature="0" /><path
       id="path3055"
       style="fill:#33b652;fill-opacity:0.47058824;fill-rule:nonzero;stroke:none"
       d="m 113.91357,313.82594 0,-2.97041 c 4.43846,1.17422 8.96725,2.17464 13.54999,2.97041 l -13.54999,0 z"
       inkscape:connector-curvature="0" /><path
       id="path3057"
       style="fill:#33b652;fill-opacity:0.47058824;fill-rule:nonzero;stroke:none"
       d="m 183.51362,313.82594 c 4.69,-0.81749 9.29426,-1.84535 13.83675,-3.05502 l 0,3.05502 -13.83675,0 z"
       inkscape:connector-curvature="0" /><path
       id="path3059"
       style="fill:#33b652;fill-opacity:0.47058824;fill-rule:nonzero;stroke:none"
       d="m 220.75807,313.82594 c -4.47047,0 -8.19549,-3.32713 -8.91923,-7.62839 1.18794,-0.44247 2.345,-0.90668 3.51922,-1.37544 0.072,2.98756 2.46504,5.34628 5.40001,5.34628 2.98298,0 5.37258,-2.42962 5.37258,-5.4892 0,-1.52752 -0.57168,-2.87666 -1.54123,-3.85879 1.12162,-0.52708 2.23296,-1.07246 3.34542,-1.62583 1.15706,1.53207 1.85794,3.42088 1.85794,5.48462 0,5.01128 -4.05087,9.14675 -9.03471,9.14675 z"
       inkscape:connector-curvature="0" /><path
       id="path3061"
       style="fill:#33b652;fill-opacity:0.47058824;fill-rule:nonzero;stroke:none"
       d="m 244.21836,313.83509 0,-18.07971 18.25806,0 0,18.07971 -18.25806,0 z m 3.68042,-3.68043 10.93381,0 0,-10.75429 -10.93381,0 0,10.75429 z"
       inkscape:connector-curvature="0" /><path
       id="path3063"
       style="fill:#33b652;fill-opacity:0.47058824;fill-rule:nonzero;stroke:none"
       d="m 286.06247,313.83051 c -4.98383,0 -9.06215,-4.13662 -9.06215,-9.14675 0,-5.0067 4.07832,-9.11588 9.06215,-9.11588 4.97928,0 9.03015,4.10918 9.03015,9.11588 0,5.01013 -4.05087,9.14675 -9.03015,9.14675 z m 0,-3.6587 c 2.97843,0 5.37258,-2.43304 5.37258,-5.48805 0,-3.05501 -2.39416,-5.45833 -5.37258,-5.45833 -2.98298,0 -5.40457,2.40332 -5.40457,5.45833 0,3.05501 2.42159,5.48805 5.40457,5.48805 z"
       inkscape:connector-curvature="0" /><path
       id="path3065"
       style="fill:#33b652;fill-opacity:0.47058824;fill-rule:nonzero;stroke:none"
       d="m 25.299887,313.83051 c -4.985154,0 -9.06234,-4.13662 -9.06234,-9.14675 0,-5.0067 4.077186,-9.11588 9.06234,-9.11588 4.979402,0 9.030158,4.10918 9.030158,9.11588 0,5.01013 -4.050756,9.14675 -9.030158,9.14675 z m 0,-3.6587 c 2.97855,0 5.37237,-2.43304 5.37237,-5.48805 0,-3.05501 -2.39382,-5.45833 -5.37237,-5.45833 -2.984301,0 -5.404533,2.40332 -5.404533,5.45833 0,3.05501 2.420232,5.48805 5.404533,5.48805 z"
       inkscape:connector-curvature="0" /><path
       id="path3067"
       style="fill:#33b652;fill-opacity:0.47058824;fill-rule:nonzero;stroke:none"
       d="m 16.228615,281.07026 0,-18.07855 18.258182,0 0,18.07855 -18.258182,0 z m 3.644856,-3.67928 10.932786,0 0,-10.75544 -10.932786,0 0,10.75544 z"
       inkscape:connector-curvature="0" /><path
       id="path3069"
       style="fill:#33b652;fill-opacity:0.47058824;fill-rule:nonzero;stroke:none"
       d="m 276.98203,281.07026 0,-18.07855 18.25807,0 0,18.07855 -18.25807,0 z m 3.64498,-3.67928 10.93266,0 0,-10.75544 -10.93266,0 0,10.75544 z"
       inkscape:connector-curvature="0" /><path
       id="path3071"
       style="fill:#33b652;fill-opacity:0.47058824;fill-rule:nonzero;stroke:none"
       d="m 287.24584,248.5707 c 2.66629,-3.71587 5.16334,-7.54836 7.51634,-11.49175 0.21037,0.77289 0.34415,1.59382 0.34415,2.4296 0,4.60882 -3.43918,8.46762 -7.86049,9.06215 z"
       inkscape:connector-curvature="0" /><path
       id="path3073"
       style="fill:#33b652;fill-opacity:0.47058824;fill-rule:nonzero;stroke:none"
       d="m 23.6742,248.48495 c -4.216975,-0.78091 -7.43174,-4.52421 -7.43174,-8.9764 0,-0.69744 0.07994,-1.37544 0.227329,-2.02829 2.263916,3.76961 4.653324,7.44545 7.204411,11.00469 z"
       inkscape:connector-curvature="0" /><path
       id="path3075"
       style="fill:#33b652;fill-opacity:0.47058824;fill-rule:nonzero;stroke:none"
       d="m 16.228615,-25.416814 0,-18.080037 18.258182,0 0,18.080037 -18.258182,0 z m 3.644856,-3.645325 10.932786,0 0,-10.78941 -10.932786,0 0,10.78941 z"
       inkscape:connector-curvature="0" /><path
       id="path3077"
       style="fill:#33b652;fill-opacity:0.47058824;fill-rule:nonzero;stroke:none"
       d="m 57.893231,-25.412355 c -4.97938,0 -9.056547,-4.140165 -9.056547,-9.146756 0,-5.006603 4.077167,-9.120405 9.056547,-9.120405 4.985209,0 9.035964,4.113802 9.035964,9.120405 0,5.006591 -4.050755,9.146756 -9.035964,9.146756 z m 0,-3.658702 c 2.984357,0 5.378177,-2.433151 5.378177,-5.488054 0,-3.054879 -2.39382,-5.458131 -5.378177,-5.458131 -2.978527,0 -5.398759,2.403252 -5.398759,5.458131 0,3.054903 2.420232,5.488054 5.398759,5.488054 z"
       inkscape:connector-curvature="0" /><path
       id="path3079"
       style="fill:#33b652;fill-opacity:0.47058824;fill-rule:nonzero;stroke:none"
       d="m 81.36392,-25.416814 0,-18.080037 18.25785,0 0,18.080037 -18.25785,0 z m 3.643609,-3.645325 10.934035,0 0,-10.78941 -10.934035,0 0,10.78941 z"
       inkscape:connector-curvature="0" /><path
       id="path3081"
       style="fill:#33b652;fill-opacity:0.47058824;fill-rule:nonzero;stroke:none"
       d="m 123.18495,-25.412355 c -4.98384,0 -9.06192,-4.140165 -9.06192,-9.146756 0,-5.006603 4.07808,-9.120405 9.06192,-9.120405 4.98384,0 9.03024,4.113802 9.03024,9.120405 0,5.006591 -4.0464,9.146756 -9.03024,9.146756 z m 0,-3.658702 c 2.97852,0 5.37279,-2.433151 5.37279,-5.488054 0,-3.054879 -2.39428,-5.458131 -5.37279,-5.458131 -2.98298,0 -5.40459,2.403252 -5.40459,5.458131 0,3.054903 2.42161,5.488054 5.40459,5.488054 z"
       inkscape:connector-curvature="0" /><path
       id="path3083"
       style="fill:#33b652;fill-opacity:0.47058824;fill-rule:nonzero;stroke:none"
       d="m 146.53443,-25.416814 0,-18.080037 18.25808,0 0,18.080037 -18.25808,0 z m 3.64384,-3.645325 10.9338,0 0,-10.78941 -10.9338,0 0,10.78941 z"
       inkscape:connector-curvature="0" /><path
       id="path3085"
       style="fill:#33b652;fill-opacity:0.47058824;fill-rule:nonzero;stroke:none"
       d="m 188.20363,-25.412355 c -4.98384,0 -9.06215,-4.140165 -9.06215,-9.146756 0,-5.006603 4.07831,-9.120405 9.06215,-9.120405 4.98383,0 9.03012,4.113802 9.03012,9.120405 0,5.006591 -4.04629,9.146756 -9.03012,9.146756 z m 0,-3.658702 c 2.97956,0 5.37258,-2.433151 5.37258,-5.488054 0,-3.054879 -2.39302,-5.458131 -5.37258,-5.458131 -2.98298,0 -5.40344,2.403252 -5.40344,5.458131 0,3.054903 2.42046,5.488054 5.40344,5.488054 z"
       inkscape:connector-curvature="0" /><path
       id="path3087"
       style="fill:#33b652;fill-opacity:0.47058824;fill-rule:nonzero;stroke:none"
       d="m 211.66964,-25.416814 0,-18.080037 18.25692,0 0,18.080037 -18.25692,0 z m 3.64382,-3.645325 10.93382,0 0,-10.78941 -10.93382,0 0,10.78941 z"
       inkscape:connector-curvature="0" /><path
       id="path3089"
       style="fill:#33b652;fill-opacity:0.47058824;fill-rule:nonzero;stroke:none"
       d="m 253.49088,-25.412355 c -4.98041,0 -9.05758,-4.140165 -9.05758,-9.146756 0,-5.006603 4.07717,-9.120405 9.05758,-9.120405 4.98383,0 9.0347,4.113802 9.0347,9.120405 0,5.006591 -4.05087,9.146756 -9.0347,9.146756 z m 0,-3.658702 c 2.98298,0 5.37715,-2.433151 5.37715,-5.488054 0,-3.054879 -2.39417,-5.458131 -5.37715,-5.458131 -2.97956,0 -5.40002,2.403252 -5.40002,5.458131 0,3.054903 2.42046,5.488054 5.40002,5.488054 z"
       inkscape:connector-curvature="0" /><path
       id="path3091"
       style="fill:#33b652;fill-opacity:0.47058824;fill-rule:nonzero;stroke:none"
       d="m 276.98203,-25.416814 0,-18.080037 18.25807,0 0,18.080037 -18.25807,0 z m 3.64498,-3.645325 10.93266,0 0,-10.78941 -10.93266,0 0,10.78941 z"
       inkscape:connector-curvature="0" /></g></svg>