<?xml version="1.0" encoding="UTF-8" standalone="no"?>
<!-- Created with Inkscape (http://www.inkscape.org/) -->

<svg
   xmlns:dc="http://purl.org/dc/elements/1.1/"
   xmlns:cc="http://creativecommons.org/ns#"
   xmlns:rdf="http://www.w3.org/1999/02/22-rdf-syntax-ns#"
   xmlns:svg="http://www.w3.org/2000/svg"
   xmlns="http://www.w3.org/2000/svg"
   xmlns:sodipodi="http://sodipodi.sourceforge.net/DTD/sodipodi-0.dtd"
   xmlns:inkscape="http://www.inkscape.org/namespaces/inkscape"
   id="svg2"
   version="1.1"
   inkscape:version="0.48.5 r10040"
   width="369.64999"
   height="487.39999"
   xml:space="preserve"
   sodipodi:docname="fibeamer-mu-fsps-light.svg"><metadata
     id="metadata8"><rdf:RDF><cc:Work
         rdf:about=""><dc:format>image/svg+xml</dc:format><dc:type
           rdf:resource="http://purl.org/dc/dcmitype/StillImage" /><dc:title></dc:title></cc:Work></rdf:RDF></metadata><defs
     id="defs6"><clipPath
       id="clipPath3044"
       clipPathUnits="userSpaceOnUse"><path
         id="path3046"
         d="M 0,3118.1 0,0 l 3118.11,0 0,3118.1 -3118.11,0 z" /></clipPath><clipPath
       id="clipPath3889"
       clipPathUnits="userSpaceOnUse"><path
         id="path3891"
         d="m 0,2909.84 2900,0 0,-2900.00016 -2900,0 L 0,2909.84 z" /></clipPath></defs><sodipodi:namedview
     pagecolor="#ffffff"
     bordercolor="#666666"
     borderopacity="1"
     objecttolerance="10"
     gridtolerance="10"
     guidetolerance="10"
     inkscape:pageopacity="0"
     inkscape:pageshadow="2"
     inkscape:window-width="1280"
     inkscape:window-height="751"
     id="namedview4"
     showgrid="false"
     inkscape:zoom="0.85630196"
     inkscape:cx="233.49731"
     inkscape:cy="240.81221"
     inkscape:window-x="0"
     inkscape:window-y="29"
     inkscape:window-maximized="1"
     inkscape:current-layer="g10"
     fit-margin-top="0"
     fit-margin-left="0"
     fit-margin-right="0"
     fit-margin-bottom="0"
     units="px" /><g
     id="g10"
     inkscape:groupmode="layer"
     inkscape:label="ink_ext_XXXXXX"
     transform="matrix(1.25,0,0,-1.25,-10.030275,432.8007)"><path
       id="path3044"
       style="fill:#ffffff;fill-opacity:0.74509805;fill-rule:nonzero;stroke:none"
       d="m 240.86322,245.3364 -117.319,0 -9.898,-44.632 117.32,-0.002 9.897,44.634"
       inkscape:connector-curvature="0" /><path
       id="path3046-3"
       style="fill:#ffffff;fill-opacity:1;fill-rule:nonzero;stroke:none"
       d="m 89.463617,91.616003 -8.5433,-38.5293 c 19.0613,-2.5468 37.217903,9.886 41.456903,28.9992 l 5.663,25.520497 c -8.78,-11.654397 -23.441,-18.129797 -38.576603,-15.990397"
       inkscape:connector-curvature="0" /><path
       id="path3048"
       style="fill:#ffffff;fill-opacity:1;fill-rule:nonzero;stroke:none"
       d="m 174.31722,195.9224 c -17.202,-0.106 -32.671,-12.053 -36.554,-29.563 l -1.913,-8.579 c -4.734,-16.117 -20.542,-26.386 -37.124503,-24.389 l -8.4605,-38.150397 c 19.066003,-2.539 37.223003,9.886397 41.459003,29.003397 l 5.998,27.029 82.288,0 9.897,44.632 -55.59,0.017"
       inkscape:connector-curvature="0" /><path
       id="path3050"
       style="fill:#ffffff;fill-opacity:1;fill-rule:nonzero;stroke:none"
       d="m 20.694917,169.0324 c -0.2348,-1.895 -1.9684,-3.265 -3.8633,-3.03 -1.8949,0.235 -3.2609,1.987 -3.0281,3.882 0.2347,1.896 1.9855,3.243 3.8812,3.009 1.8949,-0.234 3.2449,-1.966 3.0102,-3.861"
       inkscape:connector-curvature="0" /><path
       id="path3052"
       style="fill:#ffffff;fill-opacity:1;fill-rule:nonzero;stroke:none"
       d="m 23.184317,157.0364 -0.0949,-7.718 -2.1867,0.024 0.059,4.934 -3.4211,0.041 -0.0574,-4.694 -2.1891,0.027 0.057,4.695 -6.0859202,0.073 0.03321,2.786 13.8859102,-0.168"
       inkscape:connector-curvature="0" /><path
       id="path3054"
       style="fill:#ffffff;fill-opacity:1;fill-rule:nonzero;stroke:none"
       d="m 15.106617,139.9734 -0.282,4.047 5.8546,-1.604 0.004,-0.039 -5.5766,-2.404 z m -5.9832102,8.556 0.20117,-2.879 3.2609402,-0.986 0.3926,-5.619 -3.0910402,-1.414 0.2152402,-3.075 13.4711,6.408 -0.2192,3.135 -14.2308102,4.43"
       inkscape:connector-curvature="0" /><path
       id="path3056"
       style="fill:#ffffff;fill-opacity:1;fill-rule:nonzero;stroke:none"
       d="m 12.396017,121.9814 c -0.4027,0.964 -0.7777,2.01 -0.9515,3.048 -0.7422,4.434 0.9594,7.885 5.591,8.658 4.6898,0.786 7.7973,-1.638 8.575,-6.289 0.1519,-0.904 0.1758,-2.128 -0.0492,-3.194 l -2.3492,-0.194 c 0.4144,1.142 0.3945,2.104 0.2308,3.084 -0.4715,2.827 -2.9258,4.233 -5.7328,3.763 -2.7851,-0.466 -4.5977,-2.543 -4.1078,-5.469 0.1797,-1.077 0.6297,-2.313 1.0719,-2.905 l -2.2782,-0.502"
       inkscape:connector-curvature="0" /><path
       id="path3058"
       style="fill:#ffffff;fill-opacity:1;fill-rule:nonzero;stroke:none"
       d="m 26.214417,122.7714 0.7227,-2.689 -7.7446,-2.077 c -2.2855,-0.616 -3.5886,-1.749 -3.0383,-3.801 0.5508,-2.058 2.2469,-2.385 4.5329,-1.773 l 7.7441,2.076 0.7207,-2.688 -8.5691,-2.298 c -3.593,-0.964 -5.6184,0.675 -6.5426,4.114 -0.9219,3.438 0.0121,5.874 3.6051,6.838 l 8.5691,2.298"
       inkscape:connector-curvature="0" /><path
       id="path3060"
       style="fill:#ffffff;fill-opacity:1;fill-rule:nonzero;stroke:none"
       d="m 30.066017,109.2644 0.957,-2.613 -10.9852,-4.02 1.8516,-5.064997 -2.0555,-0.75 -2.8089,7.678997 13.041,4.769"
       inkscape:connector-curvature="0" /><path
       id="path3062"
       style="fill:#ffffff;fill-opacity:1;fill-rule:nonzero;stroke:none"
       d="m 31.785517,98.723403 -1.6012,3.643997 2.0039,0.877 4.3211,-9.835397 -2.0039,-0.8809 -1.6012,3.6446 -10.7085,-4.7059 -1.1219,2.5496 10.7117,4.707"
       inkscape:connector-curvature="0" /><path
       id="path3064"
       style="fill:#ffffff;fill-opacity:1;fill-rule:nonzero;stroke:none"
       d="m 36.587817,87.400403 -0.0191,0.0352 -5.9953,-0.9512 1.9266,-3.5735 4.0878,4.4895 z m 1.7239,2.6688 1.4922,-2.7637 -9.6332,-11.3906 -1.4629,2.7121 2.2347,2.5625 -2.6726,4.9547 -3.3782,-0.4422 -1.3703,2.539 14.7903,1.8282"
       inkscape:connector-curvature="0" /><path
       id="path3066"
       style="fill:#ffffff;fill-opacity:1;fill-rule:nonzero;stroke:none"
       d="m 45.225017,73.786703 c -0.1704,0.9399 -0.527,1.8711 -1.0661,2.6848 -0.5293,0.7937 -1.5597,1.591 -2.8187,0.7539 -2.0063,-1.334 2.209,-5.843 -1.6688,-8.4168 -2.5343,-1.6867 -4.8261,-0.3203 -6.3797,2.0176 -0.8371,1.2586 -1.0464,1.9304 -1.5242,3.2605 l 2.2309,1.1731 c 0.0984,-1.0824 0.4223,-2.1797 1.0281,-3.0918 0.5824,-0.8762 1.8125,-1.7571 2.857,-1.0617 2.2028,1.4648 -2.0793,5.9257 1.7489,8.4726 2.584,1.7168 4.8621,0.3391 6.2164,-1.698 0.6609,-0.9953 1.1445,-2.0098 1.4254,-3.0442 l -2.0492,-1.05"
       inkscape:connector-curvature="0" /><path
       id="path3068"
       style="fill:#ffffff;fill-opacity:1;fill-rule:nonzero;stroke:none"
       d="m 50.955817,57.069903 -2.6711,3.0559 5.6379,2.259 0.0258,-0.0317 -2.9926,-5.2832 z m -9.9355,3.2063 1.8988,-2.1719 3.1937,1.1809 3.7059,-4.2407 -1.6129,-2.9921 2.0293,-2.3219 6.8715,13.2422 -2.0688,2.3652 -14.0175,-5.0617"
       inkscape:connector-curvature="0" /><path
       id="path3070"
       style="fill:#ffffff;fill-opacity:1;fill-rule:nonzero;stroke:none"
       d="m 59.491417,51.918003 0.6652,-0.6281 c 0.9969,-0.9434 2.2762,-1.879 3.4668,-0.6192 1.1469,1.2117 0.116,2.3801 -0.8969,3.3359 l -0.6648,0.6282 -2.5703,-2.7168 z m 2.0511,6.2222 2.1832,-2.0652 c 2.1676,-2.0488 4.8227,-4.4258 2.1715,-7.2285 -1.1211,-1.1848 -2.8469,-1.418 -4.2972,-0.3711 l -0.0262,-0.032 c 0.5074,-0.561 0.3062,-1.4133 0.0851,-2.0532 l -2.1144,-5.4753 -2.2543,2.132 1.7672,4.2984 c 0.4203,1.0278 0.434,1.5598 -0.4192,2.3696 l -0.6492,0.616 -3.966,-4.1934 -2.0234,1.9149 9.5429,10.0878"
       inkscape:connector-curvature="0" /><path
       id="path3072"
       style="fill:#ffffff;fill-opacity:1;fill-rule:nonzero;stroke:none"
       d="m 70.702317,46.923403 -3.1035,2.4915 1.3703,1.705 8.3758,-6.7234 -1.3699,-1.709 -3.1012,2.491 -7.3258,-9.1199 -2.1719,1.7449 7.3262,9.1199"
       inkscape:connector-curvature="0" /><path
       id="path3074"
       style="fill:#ffffff;fill-opacity:1;fill-rule:nonzero;stroke:none"
       d="m 78.420717,43.733203 2.2722,-1.6101 -8.0347,-11.3274 -2.27,1.6106 8.0325,11.3269"
       inkscape:connector-curvature="0" /><path
       id="path3076"
       style="fill:#ffffff;fill-opacity:1;fill-rule:nonzero;stroke:none"
       d="m 87.894117,34.451203 c -0.543,0.7859 -1.2531,1.4851 -2.0824,2.0015 -0.8094,0.5063 -2.0785,0.802 -2.8766,-0.4812 -1.2727,-2.0449 4.4305,-4.4023 1.9703,-8.3543 -1.609,-2.582 -4.2617,-2.2902 -6.6445,-0.8059 -1.2832,0.7981 -1.7512,1.3274 -2.7383,2.3379 l 1.5441,1.9895 c 0.5387,-0.9438 1.2872,-1.8078 2.2165,-2.3852 0.8941,-0.5601 2.3792,-0.8484 3.0402,0.2141 1.4,2.2461 -4.3469,4.5359 -1.9168,8.4367 1.6402,2.6336 4.2816,2.3262 6.3605,1.0313 1.0129,-0.6321 1.8731,-1.3547 2.5563,-2.1797 l -1.4293,-1.8047"
       inkscape:connector-curvature="0" /><path
       id="path3078"
       style="fill:#ffffff;fill-opacity:1;fill-rule:nonzero;stroke:none"
       d="m 105.47722,25.560603 c -0.774,0.896 -1.944,1.6855 -2.959,2.1433 -2.955003,1.3391 -5.487803,0.0789 -6.660403,-2.5105 -1.1649,-2.5742 -0.4465,-5.2356 2.2562,-6.459 0.6891,-0.3086 1.2656,-0.4824 1.7488,-0.5735 l 1.492403,3.3008 -2.684503,1.2117 0.9023,1.9946 5.113203,-2.3098 -3.082,-6.8144 c -1.506,0.2414 -3.032403,0.5839 -4.392103,1.1961 -4.0961,1.8554 -6.0172,5.1875 -4.0825,9.4679 1.9578,4.3313 5.7032,5.5625 9.998603,3.6199 1.469,-0.6628 2.539,-1.3855 3.478,-2.2027 l -1.129,-2.0644"
       inkscape:connector-curvature="0" /><path
       id="path3080"
       style="fill:#ffffff;fill-opacity:1;fill-rule:nonzero;stroke:none"
       d="m 110.25222,17.766403 -2.138,9.5742 3.094,-1.0382 1.255,-6.5704 5.024,4.4622 2.792,-0.9356 -7.387,-6.3762 -1.747,-5.2078 -2.642,0.8887 1.749,5.2031"
       inkscape:connector-curvature="0" /><path
       id="path3082"
       style="fill:#ffffff;fill-opacity:1;fill-rule:nonzero;stroke:none"
       d="m 121.52022,22.835903 4.363,-0.9164 1.066,-10.9793 0.04,-0.0078 5.397,9.6211 4.361,-0.916 -2.857,-13.5890501 -2.608,0.54535 2.355,11.2168001 -0.037,0.0078 -6.017,-10.4473001 -2.61,0.5484 -1.303,11.9829001 -0.048,-0.0274 -2.348,-11.1769001 -2.608,0.5488 2.854,13.5890001"
       inkscape:connector-curvature="0" /><path
       id="path3084"
       style="fill:#ffffff;fill-opacity:1;fill-rule:nonzero;stroke:none"
       d="m 139.27322,19.389503 3.41,-0.2957 4.368,-10.8110001 0.039,0 0.905,10.3442001 2.655,-0.2328 -1.21,-13.8336401 -3.388,0.2957 -4.389,10.8093401 -0.039,0.0039 -0.904,-10.3472201 -2.655,0.23242 1.208,13.8348001"
       inkscape:connector-curvature="0" /><path
       id="path3086"
       style="fill:#ffffff;fill-opacity:1;fill-rule:nonzero;stroke:none"
       d="m 158.72922,15.607003 -0.039,0 -1.924,-5.7605001 4.057,0.0598 -2.094,5.7007001 z m -1.571,2.7641 3.144,0.043 5.65,-13.8070601 -3.084,-0.04258 -1.239,3.16604 -5.63,-0.0832 -1.166,-3.19846 -2.884,-0.04258 5.209,13.9648401"
       inkscape:connector-curvature="0" /><path
       id="path3088"
       style="fill:#ffffff;fill-opacity:1;fill-rule:nonzero;stroke:none"
       d="m 174.79222,16.964903 c -0.912,0.2851 -1.904,0.3992 -2.875,0.2964 -0.947,-0.0984 -2.132,-0.6433 -1.974,-2.148 0.257,-2.393 6.202,-0.7461 6.693,-5.3734001 0.319,-3.0282 -1.955,-4.42934 -4.743,-4.72153 -1.503,-0.16211 -2.199,-0.03242 -3.6,0.15742 l -0.004,2.51911 c 1.003,-0.4109 2.128,-0.6316 3.214,-0.5175 1.05,0.1105 2.396,0.7941 2.266,2.0375 -0.277,2.6335001 -6.218,0.9043001 -6.7,5.4761001 -0.328,3.0832 1.947,4.4653 4.382,4.7219 1.185,0.1262 2.31,0.0871 3.357,-0.1465 l -0.016,-2.3015"
       inkscape:connector-curvature="0" /><path
       id="path3090"
       style="fill:#ffffff;fill-opacity:1;fill-rule:nonzero;stroke:none"
       d="m 180.60422,18.264503 -3.91,-0.7344 -0.402,2.1515 10.558,1.9774 0.402,-2.1477 -3.909,-0.7339 2.156,-11.4973001 -2.736,-0.5125 -2.159,11.4969001"
       inkscape:connector-curvature="0" /><path
       id="path3092"
       style="fill:#ffffff;fill-opacity:1;fill-rule:nonzero;stroke:none"
       d="m 188.04622,22.046903 2.704,0.6785 3.376,-13.4707001 -2.701,-0.6797 -3.379,13.4719001"
       inkscape:connector-curvature="0" /><path
       id="path3094"
       style="fill:#ffffff;fill-opacity:1;fill-rule:nonzero;stroke:none"
       d="m 207.16222,13.419503 c -0.892,-0.5371 -1.875,-1.0625 -2.878,-1.3816 -4.28,-1.3738 -7.939,-0.1855 -9.377,4.2832 -1.449,4.5293 0.502,7.9563 4.99,9.3926 0.873,0.2812 2.086,0.4824 3.172,0.4113 l 0.529,-2.298 c -1.189,0.2492 -2.141,0.091 -3.088,-0.2129 -2.729,-0.877 -3.763,-3.5059 -2.894,-6.2149 0.861,-2.6926 3.178,-4.1843 6.001,-3.2761 1.042,0.3308 2.2,0.9546 2.72,1.4761 l 0.825,-2.1797"
       inkscape:connector-curvature="0" /><path
       id="path3096"
       style="fill:#ffffff;fill-opacity:1;fill-rule:nonzero;stroke:none"
       d="m 210.64922,26.642603 -0.036,-0.0168 0.418,-6.0559 3.728,1.6067 -4.11,4.466 z m -2.511,1.95 2.889,1.2433 10.498,-10.5929 -2.83,-1.2196 -2.357,2.4481 -5.168,-2.2273 0.141,-3.4036 -2.648,-1.1406 -0.525,14.8926"
       inkscape:connector-curvature="0" /><path
       id="path3098"
       style="fill:#ffffff;fill-opacity:1;fill-rule:nonzero;stroke:none"
       d="m 217.19422,32.718803 7.198,3.9238 1.046,-1.9231 -4.75,-2.5898 1.639,-3.0039 4.347,2.3723 1.051,-1.9231 -4.352,-2.3684 1.868,-3.4273 4.785,2.6102 1.046,-1.9192 -7.229,-3.9441 -6.649,12.1926"
       inkscape:connector-curvature="0" /><path
       id="path3100"
       style="fill:#ffffff;fill-opacity:1;fill-rule:nonzero;stroke:none"
       d="m 242.11522,38.308603 -3.277,-2.3969 -1.757,5.8117 0.032,0.0247 5.002,-3.4395 z m -4.058,-9.6211 2.329,1.7012 -0.897,3.2887 4.545,3.3207 2.843,-1.8672 2.487,1.8203 -12.59,7.9976 -2.54,-1.855 3.823,-14.4063"
       inkscape:connector-curvature="0" /><path
       id="path3102"
       style="fill:#ffffff;fill-opacity:1;fill-rule:nonzero;stroke:none"
       d="m 258.79622,45.584803 c -0.6,-0.8528 -1.287,-1.7246 -2.076,-2.4278 -3.361,-2.9843 -7.19,-3.3796 -10.305,0.1297 -3.159,3.5578 -2.76,7.4785 0.766,10.6098 0.686,0.607 1.71,1.2793 2.732,1.6582 l 1.413,-1.8879 c -1.184,-0.2566 -1.994,-0.7852 -2.736,-1.4453 -2.14,-1.9023 -2.025,-4.7293 -0.138,-6.8574 1.875,-2.1082 4.6,-2.5391 6.815,-0.5684 0.821,0.7266 1.626,1.7609 1.894,2.4512 l 1.635,-1.6621"
       inkscape:connector-curvature="0" /><path
       id="path3104"
       style="fill:#ffffff;fill-opacity:1;fill-rule:nonzero;stroke:none"
       d="m 261.42222,64.789103 c -0.865,-0.4067 -1.67,-0.9953 -2.314,-1.7258 -0.631,-0.7188 -1.133,-1.9191 0.004,-2.9168 1.804,-1.5918 5.066,3.6512 8.56,0.5762 2.285,-2.0098 1.563,-4.5801 -0.289,-6.6848 -0.998,-1.1367 -1.595,-1.5117 -2.755,-2.3211 l -1.71,1.8516 c 1.018,0.375 1.994,0.9715 2.716,1.7965 0.695,0.7894 1.224,2.2074 0.285,3.0324 -1.986,1.7492 -5.185,-3.5457 -8.635,-0.5137 -2.334,2.0527 -1.596,4.6074 0.02,6.4473 0.79,0.8965 1.646,1.6269 2.57,2.1633 l 1.548,-1.7051"
       inkscape:connector-curvature="0" /><path
       id="path3106"
       style="fill:#ffffff;fill-opacity:1;fill-rule:nonzero;stroke:none"
       d="m 264.83722,69.703903 0.58,0.782 c 0.86,1.1489 2.033,1.7844 3.324,0.8215 1.287,-0.9636 0.904,-2.2429 0.071,-3.3562 l -0.583,-0.7817 -3.392,2.5344 z m 7.702,-9.2305 1.667,2.2305 -4.225,3.1555 0.702,0.939 c 1.79,2.3926 2.267,4.9907 -0.331,6.9329 -2.665,1.9863 -5.018,0.2961 -6.83,-2.1282 l -2.108,-2.8191 11.125,-8.3106"
       inkscape:connector-curvature="0" /><path
       id="path3108"
       style="fill:#ffffff;fill-opacity:1;fill-rule:nonzero;stroke:none"
       d="m 274.95622,75.823803 c -2.093,1.2715 -3.645,3.5411 -2.211,5.9067 1.437,2.3613 4.169,2.0293 6.258,0.7578 2.143,-1.3027 3.754,-3.5141 2.277,-5.9453 -1.476,-2.4328 -4.185,-2.0215 -6.324,-0.7192 z m -1.509,-2.4832 c 3.641,-2.2109 7.392,-1.7414 9.705,2.0645 2.283,3.759 0.948,7.3879 -2.641,9.5664 -3.585,2.1797 -7.371,1.6152 -9.634,-2.1082 -2.293,-3.7746 -1.069,-7.3117 2.57,-9.5227"
       inkscape:connector-curvature="0" /><path
       id="path3110"
       style="fill:#ffffff;fill-opacity:1;fill-rule:nonzero;stroke:none"
       d="m 278.57222,91.801603 0.395,0.8254 c 0.6,1.2554 1.397,2.5945 2.902,1.8757 1.564,-0.7461 1.066,-2.2507 0.474,-3.4902 l -0.395,-0.825 -3.376,1.6141 z m 9.354,-7.5567 1.204,2.5117 -5.208,2.4876 0.386,0.8082 c 0.507,1.0585 1.019,1.2089 2.125,1.1222 l 4.636,-0.3594 1.337,2.7989 -5.862,0.332 c -0.676,0.0117 -1.548,-0.0559 -1.927,-0.7109 l -0.036,0.0156 c 0.549,1.7019 -0.201,3.2736 -1.674,3.9756 -3.482,1.662 -4.926,-1.5948 -6.214,-4.283 l -1.294,-2.7129 12.527,-5.9856"
       inkscape:connector-curvature="0" /><path
       id="path3112"
       style="fill:#ffffff;fill-opacity:1;fill-rule:nonzero;stroke:none"
       d="m 283.25922,102.3904 -1.417,-3.718997 -2.046,0.779 3.826,10.038997 2.045,-0.778 -1.417,-3.718 10.932,-4.166 -0.99,-2.601997 -10.933,4.164997"
       inkscape:connector-curvature="0" /><path
       id="path3114"
       style="fill:#ffffff;fill-opacity:1;fill-rule:nonzero;stroke:none"
       d="m 283.91822,110.7134 0.833,2.662 13.25,-4.15 -0.833,-2.657 -13.25,4.145"
       inkscape:connector-curvature="0" /><path
       id="path3116"
       style="fill:#ffffff;fill-opacity:1;fill-rule:nonzero;stroke:none"
       d="m 285.25322,114.5474 0.694,2.901 11.43,0.929 0.008,0.036 -9.783,5.96 0.643,2.689 12.417,-7.777 -0.794,-3.324 -14.615,-1.414"
       inkscape:connector-curvature="0" /><path
       id="path3118"
       style="fill:#ffffff;fill-opacity:1;fill-rule:nonzero;stroke:none"
       d="m 291.74722,132.0574 -0.004,-0.04 5.378,-2.815 0.588,4.015 -5.962,-1.16 z m -2.977,-1.113 0.455,3.11 14.529,3.388 -0.446,-3.052 -3.321,-0.722 -0.813,-5.571 2.972,-1.658 -0.417,-2.855 -12.959,7.36"
       inkscape:connector-curvature="0" /><path
       id="path3120"
       style="fill:#ffffff;fill-opacity:1;fill-rule:nonzero;stroke:none"
       d="m 290.01022,140.8344 0.438,8.184 2.184,-0.118 -0.288,-5.405 3.415,-0.182 0.265,4.947 2.186,-0.119 -0.265,-4.946 3.894,-0.206 0.292,5.441 2.184,-0.115 -0.439,-8.228 -13.866,0.747"
       inkscape:connector-curvature="0" /><path
       id="path3122"
       style="fill:#ffffff;fill-opacity:1;fill-rule:nonzero;stroke:none"
       d="m 293.63822,160.4374 c -0.118,1.905 1.339,3.569 3.246,3.684 1.903,0.114 3.569,-1.359 3.683,-3.266 0.115,-1.907 -1.358,-3.549 -3.265,-3.665 -1.907,-0.115 -3.549,1.34 -3.664,3.247"
       inkscape:connector-curvature="0" /><path
       id="path3124"
       style="fill:#ffffff;fill-opacity:0.74509805;fill-rule:nonzero;stroke:none"
       d="m 12.601117,185.4204 0.7324,2.689 7.7364,-2.104 c 2.2843,-0.622 3.9801,-0.299 4.5386,1.755 0.5586,2.055 -0.7402,3.192 -3.0246,3.812 l -7.7359,2.104 0.7305,2.687 8.5613,-2.327 c 3.5906,-0.976 4.5144,-3.413 3.5809,-6.851 -0.936,-3.435 -2.9672,-5.069 -6.5559,-4.092 l -8.5637,2.327"
       inkscape:connector-curvature="0" /><path
       id="path3126"
       style="fill:#ffffff;fill-opacity:0.74509805;fill-rule:nonzero;stroke:none"
       d="m 16.819917,200.1414 1.2379,3.19 11.5957,1.179 0.0136,0.037 -9.6828,3.755 0.9657,2.487 12.9457,-5.022 -1.2301,-3.172 -11.6035,-1.196 -0.0137,-0.038 9.6808,-3.754 -0.9632,-2.487 -12.9461,5.021"
       inkscape:connector-curvature="0" /><path
       id="path3128"
       style="fill:#ffffff;fill-opacity:0.74509805;fill-rule:nonzero;stroke:none"
       d="m 22.471817,213.9344 1.1922,2.517 12.5512,-5.94 -1.1926,-2.519 -12.5508,5.942"
       inkscape:connector-curvature="0" /><path
       id="path3130"
       style="fill:#ffffff;fill-opacity:0.74509805;fill-rule:nonzero;stroke:none"
       d="m 24.512817,218.4724 1.4571,2.607 11.2539,-2.215 0.0199,0.035 -7.7977,8.395 1.3504,2.412 9.8368,-10.859 -1.6704,-2.984 -14.45,2.609"
       inkscape:connector-curvature="0" /><path
       id="path3132"
       style="fill:#ffffff;fill-opacity:0.74509805;fill-rule:nonzero;stroke:none"
       d="m 32.273017,231.8844 4.6133,6.777 1.8082,-1.232 -3.0457,-4.473 2.8285,-1.926 2.7875,4.095 1.8102,-1.231 -2.7872,-4.095 3.2215,-2.195 3.0676,4.507 1.8105,-1.232 -4.6351,-6.808 -11.4793,7.813"
       inkscape:connector-curvature="0" /><path
       id="path3134"
       style="fill:#ffffff;fill-opacity:0.74509805;fill-rule:nonzero;stroke:none"
       d="m 42.354617,242.1834 0.5762,0.711 c 0.8766,1.081 1.9625,2.198 3.2613,1.147 1.3442,-1.09 0.509,-2.436 -0.3554,-3.502 l -0.5762,-0.712 -2.9059,2.356 z m 7.3336,-9.531 1.7547,2.166 -4.4828,3.632 0.5645,0.695 c 0.7382,0.912 1.2734,0.939 2.3277,0.598 l 4.4219,-1.433 1.9539,2.41 -5.6219,1.69 c -0.6555,0.171 -1.5184,0.308 -2.041,-0.242 l -0.0297,0.025 c 0.9297,1.526 0.566,3.227 -0.7008,4.254 -2.9969,2.432 -5.1621,-0.397 -7.0418,-2.716 l -1.891,-2.334 10.7863,-8.745"
       inkscape:connector-curvature="0" /><path
       id="path3136"
       style="fill:#ffffff;fill-opacity:0.74509805;fill-rule:nonzero;stroke:none"
       d="m 54.335117,255.1254 c -0.8785,-0.371 -1.7094,-0.924 -2.3848,-1.627 -0.6613,-0.689 -1.2136,-1.869 -0.1218,-2.916 1.7367,-1.666 5.2191,3.431 8.5789,0.209 2.1972,-2.108 1.364,-4.642 -0.5785,-6.668 -1.0461,-1.091 -1.6582,-1.441 -2.8528,-2.199 l -1.6304,1.923 c 1.0343,0.332 2.0355,0.887 2.7937,1.676 0.7305,0.762 1.3203,2.152 0.4145,3.02 -1.909,1.832 -5.3321,-3.32 -8.6504,-0.14 -2.2387,2.15 -1.3922,4.67 0.3015,6.437 0.8254,0.862 1.7117,1.556 2.6594,2.054 l 1.4707,-1.769"
       inkscape:connector-curvature="0" /><path
       id="path3138"
       style="fill:#ffffff;fill-opacity:0.74509805;fill-rule:nonzero;stroke:none"
       d="m 55.310117,259.5614 2.0438,1.891 9.4359,-10.188 -2.0453,-1.891 -9.4344,10.188"
       inkscape:connector-curvature="0" /><path
       id="path3140"
       style="fill:#ffffff;fill-opacity:0.74509805;fill-rule:nonzero;stroke:none"
       d="m 63.287417,263.7304 -3.0734,-2.525 -1.3894,1.69 8.3004,6.82 1.3898,-1.691 -3.0758,-2.526 7.427,-9.039 -2.152,-1.768 -7.4266,9.039"
       inkscape:connector-curvature="0" /><path
       id="path3142"
       style="fill:#ffffff;fill-opacity:0.74509805;fill-rule:nonzero;stroke:none"
       d="m 78.896417,267.5864 -3.3324,-2.318 -1.6203,5.851 0.0316,0.021 4.9211,-3.554 z m -4.2816,-9.524 2.3668,1.649 -0.8211,3.306 4.6234,3.214 2.7969,-1.931 2.5309,1.761 -12.4032,8.287 -2.582,-1.796 3.4883,-14.49"
       inkscape:connector-curvature="0" /><path
       id="path3144"
       style="fill:#ffffff;fill-opacity:0.74509805;fill-rule:nonzero;stroke:none"
       d="m 88.241717,280.2154 c -0.9496,-0.102 -1.905,-0.392 -2.7519,-0.874 -0.8309,-0.47 -1.6977,-1.443 -0.9516,-2.757 1.1883,-2.095 5.9817,1.791 8.2793,-2.257 1.5024,-2.648 -0.0215,-4.838 -2.4613,-6.223 -1.3148,-0.746 -2.002,-0.907 -3.3641,-1.291 l -1.0105,2.308 c 1.0855,0.022 2.2027,0.268 3.1562,0.807 0.9161,0.522 1.8793,1.685 1.2618,2.776 -1.3071,2.3 -6.0606,-1.657 -8.3286,2.341 -1.5324,2.701 0.002,4.874 2.1297,6.082 1.0383,0.588 2.0867,1.002 3.1367,1.207 l 0.9043,-2.119"
       inkscape:connector-curvature="0" /><path
       id="path3146"
       style="fill:#ffffff;fill-opacity:0.74509805;fill-rule:nonzero;stroke:none"
       d="m 96.331217,287.2044 4.160003,1.604 6.867,-8.632 0.038,0.016 -0.706,11.006 4.157,1.604 4.998,-12.956 -2.487,-0.959 -4.124,10.692 -0.038,-0.014 0.634,-12.038 -2.487,-0.96 -7.612803,9.346 -0.023,-0.052 4.109803,-10.654 -2.488,-0.959 -4.998003,12.956"
       inkscape:connector-curvature="0" /><path
       id="path3148"
       style="fill:#ffffff;fill-opacity:0.74509805;fill-rule:nonzero;stroke:none"
       d="m 124.42822,287.5844 -3.935,-0.995 0.545,6.049 0.038,0.01 3.352,-5.064 z m -7.363,-7.4 2.797,0.706 0.397,3.384 5.458,1.38 1.937,-2.795 2.988,0.755 -8.686,12.13 -3.047,-0.771 -1.844,-14.789"
       inkscape:connector-curvature="0" /><path
       id="path3150"
       style="fill:#ffffff;fill-opacity:0.74509805;fill-rule:nonzero;stroke:none"
       d="m 137.63122,296.1074 c -0.924,0.236 -1.921,0.302 -2.884,0.151 -0.944,-0.147 -2.097,-0.75 -1.864,-2.244 0.373,-2.379 6.23,-0.434 6.951,-5.034 0.47,-3.006 -1.73,-4.519 -4.501,-4.953 -1.495,-0.234 -2.193,-0.142 -3.6,-0.02 l -0.133,2.516 c 1.022,-0.363 2.156,-0.527 3.237,-0.357 1.043,0.161 2.353,0.911 2.16,2.149 -0.409,2.613 -6.254,0.592 -6.964,5.133 -0.48,3.065 1.723,4.557 4.139,4.935 1.18,0.185 2.306,0.201 3.36,0.024 l 0.099,-2.3"
       inkscape:connector-curvature="0" /><path
       id="path3152"
       style="fill:#ffffff;fill-opacity:0.74509805;fill-rule:nonzero;stroke:none"
       d="m 149.70422,291.1814 -4.049,-0.259 1.639,5.848 0.039,0.002 2.371,-5.591 z m -8.591,-5.929 2.878,0.183 1.009,3.253 5.618,0.359 1.394,-3.099 3.077,0.195 -6.324,13.511 -3.137,-0.2 -4.515,-14.202"
       inkscape:connector-curvature="0" /><path
       id="path3154"
       style="fill:#ffffff;fill-opacity:0.74509805;fill-rule:nonzero;stroke:none"
       d="m 159.46622,297.6614 0.915,-0.029 c 1.389,-0.043 2.938,-0.23 2.886,-1.9 -0.055,-1.732 -1.63,-1.882 -3.004,-1.838 l -0.913,0.027 0.116,3.74 z m -3.149,-11.607 2.784,-0.086 0.179,5.766 0.896,-0.028 c 1.173,-0.036 1.519,-0.444 1.882,-1.49 l 1.537,-4.389 3.103,-0.096 -2.061,5.498 c -0.257,0.625 -0.671,1.396 -1.425,1.478 l 0,0.039 c 1.776,0.184 2.913,1.504 2.965,3.133 0.118,3.858 -3.443,3.869 -6.424,3.962 l -3.004,0.093 -0.432,-13.88"
       inkscape:connector-curvature="0" /><path
       id="path3156"
       style="fill:#ffffff;fill-opacity:0.74509805;fill-rule:nonzero;stroke:none"
       d="m 172.06722,290.6404 -4.047,8.937 3.242,-0.385 2.57,-6.177 4.008,5.395 2.925,-0.348 -5.93,-7.749 -0.648,-5.452 -2.767,0.327 0.647,5.452"
       inkscape:connector-curvature="0" /><path
       id="path3158"
       style="fill:#ffffff;fill-opacity:0.74509805;fill-rule:nonzero;stroke:none"
       d="m 183.45422,297.5434 2.72,-0.591 -1.268,-5.834 6.167,4.765 3.345,-0.728 -6.973,-5.18 4.252,-8.439 -3.556,0.776 -3.511,7.359 -0.039,0.01 -1.371,-6.3 -2.719,0.593 2.953,13.569"
       inkscape:connector-curvature="0" /><path
       id="path3160"
       style="fill:#ffffff;fill-opacity:0.74509805;fill-rule:nonzero;stroke:none"
       d="m 196.93322,294.3444 2.673,-0.78 -3.893,-13.331 -2.673,0.782 3.893,13.329"
       inkscape:connector-curvature="0" /><path
       id="path3162"
       style="fill:#ffffff;fill-opacity:0.74509805;fill-rule:nonzero;stroke:none"
       d="m 207.38822,281.8794 -3.803,1.422 3.89,4.662 0.038,-0.013 -0.125,-6.071 z m -10.266,-1.896 2.701,-1.011 2.254,2.558 5.271,-1.972 0.004,-3.399 2.89,-1.08 -0.245,14.916 -2.945,1.099 -9.93,-11.111"
       inkscape:connector-curvature="0" /><path
       id="path3164"
       style="fill:#ffffff;fill-opacity:0.74509805;fill-rule:nonzero;stroke:none"
       d="m 217.50322,286.9684 3.064,-1.525 0.106,-11.656 0.035,-0.017 4.628,9.296 2.389,-1.189 -6.192,-12.43 -3.048,1.518 -0.122,11.662 -0.035,0.018 -4.632,-9.296 -2.385,1.19 6.192,12.429"
       inkscape:connector-curvature="0" /><path
       id="path3166"
       style="fill:#ffffff;fill-opacity:0.74509805;fill-rule:nonzero;stroke:none"
       d="m 233.04622,268.6514 -3.427,2.176 4.769,3.759 0.032,-0.02 -1.374,-5.915 z m -10.438,0.267 2.436,-1.545 2.731,2.035 4.75,-3.021 -0.699,-3.326 2.602,-1.654 2.846,14.645 -2.652,1.686 -12.014,-8.82"
       inkscape:connector-curvature="0" /><path
       id="path3168"
       style="fill:#ffffff;fill-opacity:0.74509805;fill-rule:nonzero;stroke:none"
       d="m 245.83422,260.2674 1.003,-0.847 c 1.066,-0.898 2.01,-2.058 0.845,-3.442 -1.039,-1.232 -2.448,-0.462 -3.435,0.371 l -1.003,0.847 2.59,3.071 z m 3.542,4.197 0.821,-0.693 c 0.975,-0.821 1.974,-1.821 0.936,-3.054 -0.924,-1.096 -2.2,-0.357 -3.096,0.402 l -0.868,0.73 2.207,2.615 z m -9.673,-7.144 3.711,-3.131 c 1.339,-1.129 4.074,-2.76 6.333,-0.085 1.102,1.31 0.936,3.115 -0.395,4.472 l 0.028,0.029 c 1.453,-0.837 3.048,-0.673 4.114,0.589 1.962,2.327 0.244,4.453 -1.126,5.608 l -3.711,3.131 -8.954,-10.613"
       inkscape:connector-curvature="0" /><path
       id="path3170"
       style="fill:#ffffff;fill-opacity:0.74509805;fill-rule:nonzero;stroke:none"
       d="m 258.69722,256.0884 0.644,-0.647 c 0.983,-0.989 1.978,-2.187 0.794,-3.366 -1.229,-1.22 -2.476,-0.246 -3.448,0.726 l -0.643,0.65 2.653,2.637 z m -10.261,-6.273 1.966,-1.975 4.09,4.068 0.632,-0.634 c 0.829,-0.833 0.798,-1.366 0.344,-2.379 l -1.896,-4.242 2.188,-2.201 2.282,5.409 c 0.241,0.633 0.466,1.476 -0.023,2.055 l 0.027,0.027 c 1.417,-1.088 3.15,-0.908 4.308,0.241 2.736,2.722 0.153,5.178 -1.951,7.292 l -2.12,2.13 -9.847,-9.791"
       inkscape:connector-curvature="0" /><path
       id="path3172"
       style="fill:#ffffff;fill-opacity:0.74509805;fill-rule:nonzero;stroke:none"
       d="m 267.49022,250.1634 1.765,-2.155 -6.195,-5.087 c -1.827,-1.502 -2.55,-3.071 -1.201,-4.716 1.355,-1.646 3.033,-1.246 4.861,0.256 l 6.199,5.088 1.764,-2.152 -6.858,-5.63 c -2.874,-2.36 -5.396,-1.703 -7.655,1.049 -2.258,2.751 -2.412,5.353 0.462,7.714 l 6.858,5.633"
       inkscape:connector-curvature="0" /><path
       id="path3174"
       style="fill:#ffffff;fill-opacity:0.74509805;fill-rule:nonzero;stroke:none"
       d="m 277.04022,238.2114 1.888,-2.854 -5.745,-10.141 0.02,-0.034 8.662,5.727 1.473,-2.225 -11.584,-7.657 -1.875,2.839 5.732,10.156 -0.023,0.034 -8.663,-5.727 -1.468,2.225 11.583,7.657"
       inkscape:connector-curvature="0" /><path
       id="path3176"
       style="fill:#ffffff;fill-opacity:0.74509805;fill-rule:nonzero;stroke:none"
       d="m 285.28822,225.2634 3.873,-7.223 -1.93,-1.035 -2.559,4.768 -3.012,-1.616 2.341,-4.366 -1.931,-1.034 -2.341,4.364 -3.435,-1.843 2.578,-4.803 -1.93,-1.034 -3.893,7.259 12.239,6.563"
       inkscape:connector-curvature="0" /><path
       id="path3178"
       style="fill:#ffffff;fill-opacity:0.74509805;fill-rule:nonzero;stroke:none"
       d="m 290.76922,214.8294 1.333,-3.152 -7.505,-8.92 0.016,-0.036 9.566,4.045 1.039,-2.456 -12.789,-5.408 -1.325,3.133 7.493,8.938 -0.016,0.035 -9.562,-4.045 -1.038,2.456 12.788,5.41"
       inkscape:connector-curvature="0" /><path
       id="path3180"
       style="fill:#ffffff;fill-opacity:0.74509805;fill-rule:nonzero;stroke:none"
       d="m 296.34322,192.7024 c 0.094,0.949 0.008,1.943 -0.289,2.874 -0.287,0.909 -1.062,1.958 -2.502,1.5 -2.294,-0.729 0.517,-6.223 -3.917,-7.634 -2.902,-0.922 -4.73,1.022 -5.582,3.695 -0.458,1.442 -0.475,2.148 -0.566,3.558 l 2.468,0.512 c -0.205,-1.065 -0.197,-2.212 0.135,-3.255 0.319,-1.004 1.259,-2.187 2.455,-1.808 2.524,0.802 -0.367,6.271 4.016,7.664 2.956,0.942 4.765,-1.009 5.508,-3.343 0.363,-1.136 0.548,-2.246 0.533,-3.316 l -2.259,-0.447"
       inkscape:connector-curvature="0" /><path
       id="path3182"
       style="fill:#ffffff;fill-opacity:1;fill-rule:nonzero;stroke:none"
       d="m 299.77422,189.7144 0.683,-2.698 -13.463,-3.405 -0.683,2.7 13.463,3.403"
       inkscape:connector-curvature="0" /><path
       id="path3184"
       style="fill:#ffffff;fill-opacity:1;fill-rule:nonzero;stroke:none"
       d="m 300.17722,175.7934 c 0.209,0.932 0.24,1.929 0.058,2.888 -0.177,0.938 -0.817,2.071 -2.302,1.788 -2.364,-0.447 -0.232,-6.239 -4.808,-7.108 -2.988,-0.568 -4.572,1.581 -5.093,4.337 -0.284,1.486 -0.213,2.187 -0.139,3.6 l 2.512,0.214 c -0.332,-1.034 -0.458,-2.174 -0.253,-3.25 0.198,-1.034 0.988,-2.321 2.219,-2.088 2.598,0.494 0.387,6.27 4.903,7.128 3.048,0.578 4.612,-1.575 5.07,-3.979 0.221,-1.173 0.272,-2.296 0.131,-3.356 l -2.298,-0.174"
       inkscape:connector-curvature="0" /><path
       id="path3003"
       style="fill:#ffffff;fill-opacity:0.86274511;fill-rule:nonzero;stroke:none"
       d="m 293.1901,68.779563 c -0.71004,-1.139801 -1.43834,-2.278686 -2.17465,-3.398706 0.27669,-0.665541 0.42874,-1.403342 0.42874,-2.175099 0,-3.054902 -2.38957,-5.458098 -5.37255,-5.458098 -0.1212,0 -0.2504,0.01829 -0.37045,0.02722 -0.80035,-1.076801 -1.60411,-2.170983 -2.43075,-3.229948 0.88494,-0.290295 1.82706,-0.454594 2.8012,-0.454594 4.98383,0 9.0347,4.108837 9.0347,9.115428 0,2.090148 -0.73289,4.023658 -1.91624,5.573805 z"
       inkscape:connector-curvature="0" /><path
       id="path3005"
       style="fill:#ffffff;fill-opacity:0.86274511;fill-rule:nonzero;stroke:none"
       d="m 17.929786,68.493726 c -1.066525,-1.501097 -1.687326,-3.323245 -1.687326,-5.287968 0,-5.006591 4.077178,-9.115428 9.061897,-9.115428 0.853038,0 1.673926,0.142918 2.455916,0.370214 -0.839158,1.075888 -1.670312,2.188362 -2.483162,3.287116 -2.970454,0.01383 -5.377285,2.411314 -5.377285,5.458098 0,0.62884 0.09826,1.240757 0.285836,1.799853 -0.763721,1.155921 -1.52297,2.3131 -2.255876,3.488115 z"
       inkscape:connector-curvature="0" /><path
       id="path3007"
       style="fill:#ffffff;fill-opacity:0.86274511;fill-rule:nonzero;stroke:none"
       d="m 16.228615,39.575115 0,-18.079478 18.258182,0 0,18.079478 -18.258182,0 z m 3.644856,-3.644753 10.932786,0 0,-10.754184 -10.932786,0 0,10.754184 z"
       inkscape:connector-curvature="0" /><path
       id="path3009"
       style="fill:#ffffff;fill-opacity:0.86274511;fill-rule:nonzero;stroke:none"
       d="m 49.001555,32.049622 c -0.09387,-0.523424 -0.173788,-1.049591 -0.173788,-1.59931 0,-5.011051 4.077165,-9.119544 9.061918,-9.119544 1.31256,0 2.559148,0.28938 3.688658,0.799426 -1.312673,0.932969 -2.608311,1.888805 -3.889657,2.858361 -2.371525,0.08941 -4.341622,1.687348 -4.971261,3.916869 -1.255507,1.031754 -2.497066,2.081231 -3.71587,3.144198 z"
       inkscape:connector-curvature="0" /><path
       id="path3011"
       style="fill:#ffffff;fill-opacity:0.86274511;fill-rule:nonzero;stroke:none"
       d="m 262.31979,32.392625 c -1.17879,-1.031182 -2.36672,-2.05802 -3.57295,-3.058447 -0.49963,-2.505981 -2.65256,-4.345623 -5.26054,-4.345623 -0.0765,0 -0.15206,0 -0.22867,0 -1.22794,-0.929425 -2.46047,-1.849017 -3.71586,-2.743112 1.19708,-0.588594 2.53252,-0.914675 3.94453,-0.914675 4.98385,0 9.03471,4.108493 9.03471,9.119544 0,0.665426 -0.0675,1.313473 -0.20123,1.942313 z"
       inkscape:connector-curvature="0" /><path
       id="path3013"
       style="fill:#ffffff;fill-opacity:0.86274511;fill-rule:nonzero;stroke:none"
       d="m 276.98203,39.575115 0,-18.079478 18.25807,0 0,18.079478 -18.25807,0 z m 3.64498,-3.644753 10.93266,0 0,-10.754184 -10.93266,0 0,10.754184 z"
       inkscape:connector-curvature="0" /><path
       id="path3015"
       style="fill:#ffffff;fill-opacity:0.86274511;fill-rule:nonzero;stroke:none"
       d="m 48.778602,7.1685026 0,-18.0800486 18.25784,0 0,18.0800486 -18.25784,0 z m 3.680197,-3.6453246 10.932775,0 0,-10.75407 -10.932775,0 0,10.75407 z"
       inkscape:connector-curvature="0" /><path
       id="path3017"
       style="fill:#ffffff;fill-opacity:0.86274511;fill-rule:nonzero;stroke:none"
       d="m 88.044486,6.8102933 c -3.809629,-1.0848052 -6.631403,-4.613167 -6.631403,-8.7751691 0,-5.0065912 4.077167,-9.1154282 9.061921,-9.1154282 4.98384,0 9.030136,4.108837 9.030136,9.1154282 0,1.6248063 -0.4515,3.1571168 -1.196846,4.4876268 -3.4792,1.3139312 -6.90478,2.7520299 -10.263808,4.2875423 z M 90.475004,3.523178 c 2.97853,0 5.37281,-2.4340664 5.37281,-5.4880538 0,-3.0549026 -2.39429,-5.4580982 -5.37281,-5.4580982 -2.983906,0 -5.404591,2.4031956 -5.404591,5.4580982 0,3.0539874 2.420685,5.4880538 5.404591,5.4880538 z"
       inkscape:connector-curvature="0" /><path
       id="path3019"
       style="fill:#ffffff;fill-opacity:0.86274511;fill-rule:nonzero;stroke:none"
       d="m 113.91357,-2.4517119 0,-8.4598341 18.26618,0 0,4.7439647 c -1.22795,0.1782477 -2.44334,0.3703287 -3.66224,0.5716718 l 0,-1.6256065 -10.91529,0 0,3.8274591 c -1.23275,0.2938399 -2.46984,0.6199221 -3.68865,0.942345 z"
       inkscape:connector-curvature="0" /><path
       id="path3021"
       style="fill:#ffffff;fill-opacity:0.86274511;fill-rule:nonzero;stroke:none"
       d="m 162.81795,-7.650271 c -2.42961,-0.112161 -4.88551,-0.201457 -7.34256,-0.201457 -2.27755,0 -4.52421,0.07546 -6.77546,0.17013 1.66128,-2.072769 4.22123,-3.398706 7.0613,-3.398706 2.84921,0 5.40459,1.335312 7.05672,3.430033 z"
       inkscape:connector-curvature="0" /><path
       id="path3023"
       style="fill:#ffffff;fill-opacity:0.86274511;fill-rule:nonzero;stroke:none"
       d="m 197.35039,-2.3623028 c -1.21881,-0.3260811 -2.42961,-0.6485051 -3.66215,-0.9469174 l 0,-3.9122958 -10.9155,0 0,1.6836885 c -1.22337,-0.205459 -2.4559,-0.3929677 -3.68843,-0.5716718 l 0,-4.8020467 18.26608,0 0,8.5492432 z"
       inkscape:connector-curvature="0" /><path
       id="path3025"
       style="fill:#ffffff;fill-opacity:0.86274511;fill-rule:nonzero;stroke:none"
       d="M 223.01733,6.8688317 C 219.72106,5.3552724 216.38936,3.9305506 212.98218,2.63983 c -0.79462,-1.3630956 -1.28626,-2.9307351 -1.28626,-4.6047058 0,-5.0065912 4.07718,-9.1154282 9.06216,-9.1154282 4.98384,0 9.03471,4.108837 9.03471,9.1154282 0,4.2250009 -2.88008,7.8113295 -6.77546,8.8337075 z M 220.75808,3.523178 c 2.98298,0 5.37257,-2.4340664 5.37257,-5.4880538 0,-3.0549026 -2.38959,-5.4580982 -5.37257,-5.4580982 -2.97956,0 -5.40001,2.4031956 -5.40001,5.4580982 0,3.0539874 2.42045,5.4880538 5.40001,5.4880538 z"
       inkscape:connector-curvature="0" /><path
       id="path3027"
       style="fill:#ffffff;fill-opacity:0.86274511;fill-rule:nonzero;stroke:none"
       d="m 244.21836,7.1685026 0,-18.0800486 18.25806,0 0,18.0800486 -18.25806,0 z m 3.68042,-3.6453246 10.93381,0 0,-10.75407 -10.93381,0 0,10.75407 z"
       inkscape:connector-curvature="0" /><path
       id="path3029"
       style="fill:#ffffff;fill-opacity:0.86274511;fill-rule:nonzero;stroke:none"
       d="m 286.06247,7.1774212 c -4.98383,0 -9.06215,-4.1401653 -9.06215,-9.1467563 0,-5.0065909 4.07832,-9.1203439 9.06215,-9.1203439 4.97928,0 9.03015,4.113753 9.03015,9.1203439 0,5.006591 -4.05087,9.1467563 -9.03015,9.1467563 z m 0,-3.6587025 c 2.97843,0 5.37258,-2.4340664 5.37258,-5.4880538 0,-3.0549015 -2.39416,-5.4580969 -5.37258,-5.4580969 -2.98298,0 -5.40457,2.4031954 -5.40457,5.4580969 0,3.0539874 2.42159,5.4880538 5.40457,5.4880538 z"
       inkscape:connector-curvature="0" /><path
       id="path3031"
       style="fill:#ffffff;fill-opacity:0.86274511;fill-rule:nonzero;stroke:none"
       d="m 25.299887,7.1774212 c -4.985154,0 -9.06234,-4.1401653 -9.06234,-9.1467563 0,-5.0065909 4.077186,-9.1203439 9.06234,-9.1203439 4.979402,0 9.030158,4.113753 9.030158,9.1203439 0,5.006591 -4.050756,9.1467563 -9.030158,9.1467563 z m 0,-3.6587025 c 2.97855,0 5.37237,-2.4340664 5.37237,-5.4880538 0,-3.0549015 -2.39382,-5.4580969 -5.37237,-5.4580969 -2.984301,0 -5.404533,2.4031954 -5.404533,5.4580969 0,3.0539874 2.420232,5.4880538 5.404533,5.4880538 z"
       inkscape:connector-curvature="0" /><path
       id="path3033"
       style="fill:#ffffff;fill-opacity:1;fill-rule:nonzero;stroke:none"
       d="m 16.228615,346.2409 0,-18.07857 18.258182,0 0,18.07857 -18.258182,0 z m 3.644856,-3.64384 10.932786,0 0,-10.79088 -10.932786,0 0,10.79088 z"
       inkscape:connector-curvature="0" /><path
       id="path3035"
       style="fill:#ffffff;fill-opacity:1;fill-rule:nonzero;stroke:none"
       d="m 57.893231,346.2409 c -4.97938,0 -9.056547,-4.14005 -9.056547,-9.14675 0,-5.00671 4.077167,-9.11932 9.056547,-9.11932 4.985209,0 9.035964,4.11261 9.035964,9.11932 0,5.0067 -4.050755,9.14675 -9.035964,9.14675 z m 0,-3.65756 c 2.984357,0 5.378177,-2.43418 5.378177,-5.48919 0,-3.05502 -2.39382,-5.45719 -5.378177,-5.45719 -2.978527,0 -5.398759,2.40217 -5.398759,5.45719 0,3.05501 2.420232,5.48919 5.398759,5.48919 z"
       inkscape:connector-curvature="0" /><path
       id="path3037"
       style="fill:#ffffff;fill-opacity:1;fill-rule:nonzero;stroke:none"
       d="m 81.36392,346.2409 0,-18.07857 18.25785,0 0,18.07857 -18.25785,0 z m 3.643609,-3.64384 10.934035,0 0,-10.79088 -10.934035,0 0,10.79088 z"
       inkscape:connector-curvature="0" /><path
       id="path3039"
       style="fill:#ffffff;fill-opacity:1;fill-rule:nonzero;stroke:none"
       d="m 123.18495,346.2409 c -4.98384,0 -9.06192,-4.14005 -9.06192,-9.14675 0,-5.00671 4.07808,-9.11932 9.06192,-9.11932 4.98384,0 9.03024,4.11261 9.03024,9.11932 0,5.0067 -4.0464,9.14675 -9.03024,9.14675 z m 0,-3.65756 c 2.97852,0 5.37279,-2.43418 5.37279,-5.48919 0,-3.05502 -2.39428,-5.45719 -5.37279,-5.45719 -2.98298,0 -5.40459,2.40217 -5.40459,5.45719 0,3.05501 2.42161,5.48919 5.40459,5.48919 z"
       inkscape:connector-curvature="0" /><path
       id="path3041"
       style="fill:#ffffff;fill-opacity:1;fill-rule:nonzero;stroke:none"
       d="m 146.53443,346.2409 0,-18.07857 18.25808,0 0,18.07857 -18.25808,0 z m 3.64384,-3.64384 10.9338,0 0,-10.79088 -10.9338,0 0,10.79088 z"
       inkscape:connector-curvature="0" /><path
       id="path3043"
       style="fill:#ffffff;fill-opacity:1;fill-rule:nonzero;stroke:none"
       d="m 188.20363,346.2409 c -4.98384,0 -9.06215,-4.14005 -9.06215,-9.14675 0,-5.00671 4.07831,-9.11932 9.06215,-9.11932 4.98383,0 9.03012,4.11261 9.03012,9.11932 0,5.0067 -4.04629,9.14675 -9.03012,9.14675 z m 0,-3.65756 c 2.97956,0 5.37258,-2.43418 5.37258,-5.48919 0,-3.05502 -2.39302,-5.45719 -5.37258,-5.45719 -2.98298,0 -5.40344,2.40217 -5.40344,5.45719 0,3.05501 2.42046,5.48919 5.40344,5.48919 z"
       inkscape:connector-curvature="0" /><path
       id="path3045"
       style="fill:#ffffff;fill-opacity:1;fill-rule:nonzero;stroke:none"
       d="m 211.66964,346.2409 0,-18.07857 18.25692,0 0,18.07857 -18.25692,0 z m 3.64382,-3.64384 10.93382,0 0,-10.79088 -10.93382,0 0,10.79088 z"
       inkscape:connector-curvature="0" /><path
       id="path3047"
       style="fill:#ffffff;fill-opacity:1;fill-rule:nonzero;stroke:none"
       d="m 253.49088,346.2409 c -4.98041,0 -9.05758,-4.14005 -9.05758,-9.14675 0,-5.00671 4.07717,-9.11932 9.05758,-9.11932 4.98383,0 9.0347,4.11261 9.0347,9.11932 0,5.0067 -4.05087,9.14675 -9.0347,9.14675 z m 0,-3.65756 c 2.98298,0 5.37715,-2.43418 5.37715,-5.48919 0,-3.05502 -2.39417,-5.45719 -5.37715,-5.45719 -2.97956,0 -5.40002,2.40217 -5.40002,5.45719 0,3.05501 2.42046,5.48919 5.40002,5.48919 z"
       inkscape:connector-curvature="0" /><path
       id="path3049"
       style="fill:#ffffff;fill-opacity:1;fill-rule:nonzero;stroke:none"
       d="m 276.98203,346.2409 0,-18.07857 18.25807,0 0,18.07857 -18.25807,0 z m 3.64498,-3.64384 10.93266,0 0,-10.79088 -10.93266,0 0,10.79088 z"
       inkscape:connector-curvature="0" /><path
       id="path3051"
       style="fill:#ffffff;fill-opacity:1;fill-rule:nonzero;stroke:none"
       d="m 48.778602,313.83509 0,-18.07971 18.25784,0 0,18.07971 -18.25784,0 z m 3.680197,-3.68043 10.932775,0 0,-10.75429 -10.932775,0 0,10.75429 z"
       inkscape:connector-curvature="0" /><path
       id="path3053"
       style="fill:#ffffff;fill-opacity:1;fill-rule:nonzero;stroke:none"
       d="m 90.475004,313.82594 c -4.984754,0 -9.061921,-4.13547 -9.061921,-9.14675 0,-2.01915 0.656051,-3.88623 1.772185,-5.40002 1.117047,0.55795 2.241983,1.09418 3.372866,1.63041 -0.924967,0.97299 -1.487721,2.29126 -1.487721,3.76961 0,3.05958 2.420685,5.4892 5.404591,5.4892 2.89849,0 5.24235,-2.29584 5.3728,-5.23081 1.15581,0.46077 2.31756,0.88496 3.488126,1.3137 -0.74182,4.27383 -4.413096,7.57466 -8.860926,7.57466 z"
       inkscape:connector-curvature="0" /><path
       id="path3055"
       style="fill:#ffffff;fill-opacity:1;fill-rule:nonzero;stroke:none"
       d="m 113.91357,313.82594 0,-2.97041 c 4.43846,1.17422 8.96725,2.17464 13.54999,2.97041 l -13.54999,0 z"
       inkscape:connector-curvature="0" /><path
       id="path3057"
       style="fill:#ffffff;fill-opacity:1;fill-rule:nonzero;stroke:none"
       d="m 183.51362,313.82594 c 4.69,-0.81749 9.29426,-1.84535 13.83675,-3.05502 l 0,3.05502 -13.83675,0 z"
       inkscape:connector-curvature="0" /><path
       id="path3059"
       style="fill:#ffffff;fill-opacity:1;fill-rule:nonzero;stroke:none"
       d="m 220.75807,313.82594 c -4.47047,0 -8.19549,-3.32713 -8.91923,-7.62839 1.18794,-0.44247 2.345,-0.90668 3.51922,-1.37544 0.072,2.98756 2.46504,5.34628 5.40001,5.34628 2.98298,0 5.37258,-2.42962 5.37258,-5.4892 0,-1.52752 -0.57168,-2.87666 -1.54123,-3.85879 1.12162,-0.52708 2.23296,-1.07246 3.34542,-1.62583 1.15706,1.53207 1.85794,3.42088 1.85794,5.48462 0,5.01128 -4.05087,9.14675 -9.03471,9.14675 z"
       inkscape:connector-curvature="0" /><path
       id="path3061"
       style="fill:#ffffff;fill-opacity:1;fill-rule:nonzero;stroke:none"
       d="m 244.21836,313.83509 0,-18.07971 18.25806,0 0,18.07971 -18.25806,0 z m 3.68042,-3.68043 10.93381,0 0,-10.75429 -10.93381,0 0,10.75429 z"
       inkscape:connector-curvature="0" /><path
       id="path3063"
       style="fill:#ffffff;fill-opacity:1;fill-rule:nonzero;stroke:none"
       d="m 286.06247,313.83051 c -4.98383,0 -9.06215,-4.13662 -9.06215,-9.14675 0,-5.0067 4.07832,-9.11588 9.06215,-9.11588 4.97928,0 9.03015,4.10918 9.03015,9.11588 0,5.01013 -4.05087,9.14675 -9.03015,9.14675 z m 0,-3.6587 c 2.97843,0 5.37258,-2.43304 5.37258,-5.48805 0,-3.05501 -2.39416,-5.45833 -5.37258,-5.45833 -2.98298,0 -5.40457,2.40332 -5.40457,5.45833 0,3.05501 2.42159,5.48805 5.40457,5.48805 z"
       inkscape:connector-curvature="0" /><path
       id="path3065"
       style="fill:#ffffff;fill-opacity:1;fill-rule:nonzero;stroke:none"
       d="m 25.299887,313.83051 c -4.985154,0 -9.06234,-4.13662 -9.06234,-9.14675 0,-5.0067 4.077186,-9.11588 9.06234,-9.11588 4.979402,0 9.030158,4.10918 9.030158,9.11588 0,5.01013 -4.050756,9.14675 -9.030158,9.14675 z m 0,-3.6587 c 2.97855,0 5.37237,-2.43304 5.37237,-5.48805 0,-3.05501 -2.39382,-5.45833 -5.37237,-5.45833 -2.984301,0 -5.404533,2.40332 -5.404533,5.45833 0,3.05501 2.420232,5.48805 5.404533,5.48805 z"
       inkscape:connector-curvature="0" /><path
       id="path3067"
       style="fill:#ffffff;fill-opacity:1;fill-rule:nonzero;stroke:none"
       d="m 16.228615,281.07026 0,-18.07855 18.258182,0 0,18.07855 -18.258182,0 z m 3.644856,-3.67928 10.932786,0 0,-10.75544 -10.932786,0 0,10.75544 z"
       inkscape:connector-curvature="0" /><path
       id="path3069"
       style="fill:#ffffff;fill-opacity:1;fill-rule:nonzero;stroke:none"
       d="m 276.98203,281.07026 0,-18.07855 18.25807,0 0,18.07855 -18.25807,0 z m 3.64498,-3.67928 10.93266,0 0,-10.75544 -10.93266,0 0,10.75544 z"
       inkscape:connector-curvature="0" /><path
       id="path3071"
       style="fill:#ffffff;fill-opacity:1;fill-rule:nonzero;stroke:none"
       d="m 287.24584,248.5707 c 2.66629,-3.71587 5.16334,-7.54836 7.51634,-11.49175 0.21037,0.77289 0.34415,1.59382 0.34415,2.4296 0,4.60882 -3.43918,8.46762 -7.86049,9.06215 z"
       inkscape:connector-curvature="0" /><path
       id="path3073"
       style="fill:#ffffff;fill-opacity:1;fill-rule:nonzero;stroke:none"
       d="m 23.6742,248.48495 c -4.216975,-0.78091 -7.43174,-4.52421 -7.43174,-8.9764 0,-0.69744 0.07994,-1.37544 0.227329,-2.02829 2.263916,3.76961 4.653324,7.44545 7.204411,11.00469 z"
       inkscape:connector-curvature="0" /><path
       id="path3075"
       style="fill:#ffffff;fill-opacity:0.86274511;fill-rule:nonzero;stroke:none"
       d="m 16.228615,-25.416814 0,-18.080037 18.258182,0 0,18.080037 -18.258182,0 z m 3.644856,-3.645325 10.932786,0 0,-10.78941 -10.932786,0 0,10.78941 z"
       inkscape:connector-curvature="0" /><path
       id="path3077"
       style="fill:#ffffff;fill-opacity:0.86274511;fill-rule:nonzero;stroke:none"
       d="m 57.893231,-25.412355 c -4.97938,0 -9.056547,-4.140165 -9.056547,-9.146756 0,-5.006603 4.077167,-9.120405 9.056547,-9.120405 4.985209,0 9.035964,4.113802 9.035964,9.120405 0,5.006591 -4.050755,9.146756 -9.035964,9.146756 z m 0,-3.658702 c 2.984357,0 5.378177,-2.433151 5.378177,-5.488054 0,-3.054879 -2.39382,-5.458131 -5.378177,-5.458131 -2.978527,0 -5.398759,2.403252 -5.398759,5.458131 0,3.054903 2.420232,5.488054 5.398759,5.488054 z"
       inkscape:connector-curvature="0" /><path
       id="path3079"
       style="fill:#ffffff;fill-opacity:0.86274511;fill-rule:nonzero;stroke:none"
       d="m 81.36392,-25.416814 0,-18.080037 18.25785,0 0,18.080037 -18.25785,0 z m 3.643609,-3.645325 10.934035,0 0,-10.78941 -10.934035,0 0,10.78941 z"
       inkscape:connector-curvature="0" /><path
       id="path3081"
       style="fill:#ffffff;fill-opacity:0.86274511;fill-rule:nonzero;stroke:none"
       d="m 123.18495,-25.412355 c -4.98384,0 -9.06192,-4.140165 -9.06192,-9.146756 0,-5.006603 4.07808,-9.120405 9.06192,-9.120405 4.98384,0 9.03024,4.113802 9.03024,9.120405 0,5.006591 -4.0464,9.146756 -9.03024,9.146756 z m 0,-3.658702 c 2.97852,0 5.37279,-2.433151 5.37279,-5.488054 0,-3.054879 -2.39428,-5.458131 -5.37279,-5.458131 -2.98298,0 -5.40459,2.403252 -5.40459,5.458131 0,3.054903 2.42161,5.488054 5.40459,5.488054 z"
       inkscape:connector-curvature="0" /><path
       id="path3083"
       style="fill:#ffffff;fill-opacity:0.86274511;fill-rule:nonzero;stroke:none"
       d="m 146.53443,-25.416814 0,-18.080037 18.25808,0 0,18.080037 -18.25808,0 z m 3.64384,-3.645325 10.9338,0 0,-10.78941 -10.9338,0 0,10.78941 z"
       inkscape:connector-curvature="0" /><path
       id="path3085"
       style="fill:#ffffff;fill-opacity:0.86274511;fill-rule:nonzero;stroke:none"
       d="m 188.20363,-25.412355 c -4.98384,0 -9.06215,-4.140165 -9.06215,-9.146756 0,-5.006603 4.07831,-9.120405 9.06215,-9.120405 4.98383,0 9.03012,4.113802 9.03012,9.120405 0,5.006591 -4.04629,9.146756 -9.03012,9.146756 z m 0,-3.658702 c 2.97956,0 5.37258,-2.433151 5.37258,-5.488054 0,-3.054879 -2.39302,-5.458131 -5.37258,-5.458131 -2.98298,0 -5.40344,2.403252 -5.40344,5.458131 0,3.054903 2.42046,5.488054 5.40344,5.488054 z"
       inkscape:connector-curvature="0" /><path
       id="path3087"
       style="fill:#ffffff;fill-opacity:0.86274511;fill-rule:nonzero;stroke:none"
       d="m 211.66964,-25.416814 0,-18.080037 18.25692,0 0,18.080037 -18.25692,0 z m 3.64382,-3.645325 10.93382,0 0,-10.78941 -10.93382,0 0,10.78941 z"
       inkscape:connector-curvature="0" /><path
       id="path3089"
       style="fill:#ffffff;fill-opacity:0.86274511;fill-rule:nonzero;stroke:none"
       d="m 253.49088,-25.412355 c -4.98041,0 -9.05758,-4.140165 -9.05758,-9.146756 0,-5.006603 4.07717,-9.120405 9.05758,-9.120405 4.98383,0 9.0347,4.113802 9.0347,9.120405 0,5.006591 -4.05087,9.146756 -9.0347,9.146756 z m 0,-3.658702 c 2.98298,0 5.37715,-2.433151 5.37715,-5.488054 0,-3.054879 -2.39417,-5.458131 -5.37715,-5.458131 -2.97956,0 -5.40002,2.403252 -5.40002,5.458131 0,3.054903 2.42046,5.488054 5.40002,5.488054 z"
       inkscape:connector-curvature="0" /><path
       id="path3091"
       style="fill:#ffffff;fill-opacity:0.86274511;fill-rule:nonzero;stroke:none"
       d="m 276.98203,-25.416814 0,-18.080037 18.25807,0 0,18.080037 -18.25807,0 z m 3.64498,-3.645325 10.93266,0 0,-10.78941 -10.93266,0 0,10.78941 z"
       inkscape:connector-curvature="0" /></g></svg>