<?xml version="1.0" encoding="UTF-8" standalone="no"?>
<!-- Created with Inkscape (http://www.inkscape.org/) -->

<svg
   xmlns:dc="http://purl.org/dc/elements/1.1/"
   xmlns:cc="http://creativecommons.org/ns#"
   xmlns:rdf="http://www.w3.org/1999/02/22-rdf-syntax-ns#"
   xmlns:svg="http://www.w3.org/2000/svg"
   xmlns="http://www.w3.org/2000/svg"
   xmlns:sodipodi="http://sodipodi.sourceforge.net/DTD/sodipodi-0.dtd"
   xmlns:inkscape="http://www.inkscape.org/namespaces/inkscape"
   id="svg2"
   version="1.1"
   inkscape:version="0.48.5 r10040"
   width="369.65347"
   height="487.40051"
   xml:space="preserve"
   sodipodi:docname="fibeamer-mu-ped-dark.pdf"><metadata
     id="metadata8"><rdf:RDF><cc:Work
         rdf:about=""><dc:format>image/svg+xml</dc:format><dc:type
           rdf:resource="http://purl.org/dc/dcmitype/StillImage" /><dc:title></dc:title></cc:Work></rdf:RDF></metadata><defs
     id="defs6" /><sodipodi:namedview
     pagecolor="#ffffff"
     bordercolor="#666666"
     borderopacity="1"
     objecttolerance="10"
     gridtolerance="10"
     guidetolerance="10"
     inkscape:pageopacity="0"
     inkscape:pageshadow="2"
     inkscape:window-width="1280"
     inkscape:window-height="751"
     id="namedview4"
     showgrid="false"
     fit-margin-top="0"
     fit-margin-left="0"
     fit-margin-right="0"
     fit-margin-bottom="0"
     inkscape:zoom="0.85630196"
     inkscape:cx="90.38441"
     inkscape:cy="178.55898"
     inkscape:window-x="0"
     inkscape:window-y="29"
     inkscape:window-maximized="1"
     inkscape:current-layer="g10" /><g
     id="g10"
     inkscape:groupmode="layer"
     inkscape:label="ink_ext_XXXXXX"
     transform="matrix(1.25,0,0,-1.25,-10.030275,432.80113)"><path
       id="path3003"
       style="fill:#ffffff;fill-opacity:0.74509805;fill-rule:nonzero;stroke:none"
       d="m 293.1901,68.779563 c -0.71004,-1.139801 -1.43834,-2.278686 -2.17465,-3.398706 0.27669,-0.665541 0.42874,-1.403342 0.42874,-2.175099 0,-3.054902 -2.38957,-5.458098 -5.37255,-5.458098 -0.1212,0 -0.2504,0.01829 -0.37045,0.02722 -0.80035,-1.076801 -1.60411,-2.170983 -2.43075,-3.229948 0.88494,-0.290295 1.82706,-0.454594 2.8012,-0.454594 4.98383,0 9.0347,4.108837 9.0347,9.115428 0,2.090148 -0.73289,4.023658 -1.91624,5.573805 z"
       inkscape:connector-curvature="0" /><path
       id="path3005"
       style="fill:#ffffff;fill-opacity:0.74509805;fill-rule:nonzero;stroke:none"
       d="m 17.929786,68.493726 c -1.066525,-1.501097 -1.687326,-3.323245 -1.687326,-5.287968 0,-5.006591 4.077178,-9.115428 9.061897,-9.115428 0.853038,0 1.673926,0.142918 2.455916,0.370214 -0.839158,1.075888 -1.670312,2.188362 -2.483162,3.287116 -2.970454,0.01383 -5.377285,2.411314 -5.377285,5.458098 0,0.62884 0.09826,1.240757 0.285836,1.799853 -0.763721,1.155921 -1.52297,2.3131 -2.255876,3.488115 z"
       inkscape:connector-curvature="0" /><path
       id="path3007"
       style="fill:#ffffff;fill-opacity:0.74509805;fill-rule:nonzero;stroke:none"
       d="m 16.228615,39.575115 0,-18.079478 18.258182,0 0,18.079478 -18.258182,0 z m 3.644856,-3.644753 10.932786,0 0,-10.754184 -10.932786,0 0,10.754184 z"
       inkscape:connector-curvature="0" /><path
       id="path3009"
       style="fill:#ffffff;fill-opacity:0.74509805;fill-rule:nonzero;stroke:none"
       d="m 49.001555,32.049622 c -0.09387,-0.523424 -0.173788,-1.049591 -0.173788,-1.59931 0,-5.011051 4.077165,-9.119544 9.061918,-9.119544 1.31256,0 2.559148,0.28938 3.688658,0.799426 -1.312673,0.932969 -2.608311,1.888805 -3.889657,2.858361 -2.371525,0.08941 -4.341622,1.687348 -4.971261,3.916869 -1.255507,1.031754 -2.497066,2.081231 -3.71587,3.144198 z"
       inkscape:connector-curvature="0" /><path
       id="path3011"
       style="fill:#ffffff;fill-opacity:0.74509805;fill-rule:nonzero;stroke:none"
       d="m 262.31979,32.392625 c -1.17879,-1.031182 -2.36672,-2.05802 -3.57295,-3.058447 -0.49963,-2.505981 -2.65256,-4.345623 -5.26054,-4.345623 -0.0765,0 -0.15206,0 -0.22867,0 -1.22794,-0.929425 -2.46047,-1.849017 -3.71586,-2.743112 1.19708,-0.588594 2.53252,-0.914675 3.94453,-0.914675 4.98385,0 9.03471,4.108493 9.03471,9.119544 0,0.665426 -0.0675,1.313473 -0.20123,1.942313 z"
       inkscape:connector-curvature="0" /><path
       id="path3013"
       style="fill:#ffffff;fill-opacity:0.74509805;fill-rule:nonzero;stroke:none"
       d="m 276.98203,39.575115 0,-18.079478 18.25807,0 0,18.079478 -18.25807,0 z m 3.64498,-3.644753 10.93266,0 0,-10.754184 -10.93266,0 0,10.754184 z"
       inkscape:connector-curvature="0" /><path
       id="path3015"
       style="fill:#ffffff;fill-opacity:0.74509805;fill-rule:nonzero;stroke:none"
       d="m 48.778602,7.1685026 0,-18.0800486 18.25784,0 0,18.0800486 -18.25784,0 z m 3.680197,-3.6453246 10.932775,0 0,-10.75407 -10.932775,0 0,10.75407 z"
       inkscape:connector-curvature="0" /><path
       id="path3017"
       style="fill:#ffffff;fill-opacity:0.74509805;fill-rule:nonzero;stroke:none"
       d="m 88.044486,6.8102933 c -3.809629,-1.0848052 -6.631403,-4.613167 -6.631403,-8.7751691 0,-5.0065912 4.077167,-9.1154282 9.061921,-9.1154282 4.98384,0 9.030136,4.108837 9.030136,9.1154282 0,1.6248063 -0.4515,3.1571168 -1.196846,4.4876268 -3.4792,1.3139312 -6.90478,2.7520299 -10.263808,4.2875423 z M 90.475004,3.523178 c 2.97853,0 5.37281,-2.4340664 5.37281,-5.4880538 0,-3.0549026 -2.39429,-5.4580982 -5.37281,-5.4580982 -2.983906,0 -5.404591,2.4031956 -5.404591,5.4580982 0,3.0539874 2.420685,5.4880538 5.404591,5.4880538 z"
       inkscape:connector-curvature="0" /><path
       id="path3019"
       style="fill:#ffffff;fill-opacity:0.74509805;fill-rule:nonzero;stroke:none"
       d="m 113.91357,-2.4517119 0,-8.4598341 18.26618,0 0,4.7439647 c -1.22795,0.1782477 -2.44334,0.3703287 -3.66224,0.5716718 l 0,-1.6256065 -10.91529,0 0,3.8274591 c -1.23275,0.2938399 -2.46984,0.6199221 -3.68865,0.942345 z"
       inkscape:connector-curvature="0" /><path
       id="path3021"
       style="fill:#ffffff;fill-opacity:0.74509805;fill-rule:nonzero;stroke:none"
       d="m 162.81795,-7.650271 c -2.42961,-0.112161 -4.88551,-0.201457 -7.34256,-0.201457 -2.27755,0 -4.52421,0.07546 -6.77546,0.17013 1.66128,-2.072769 4.22123,-3.398706 7.0613,-3.398706 2.84921,0 5.40459,1.335312 7.05672,3.430033 z"
       inkscape:connector-curvature="0" /><path
       id="path3023"
       style="fill:#ffffff;fill-opacity:0.74509805;fill-rule:nonzero;stroke:none"
       d="m 197.35039,-2.3623028 c -1.21881,-0.3260811 -2.42961,-0.6485051 -3.66215,-0.9469174 l 0,-3.9122958 -10.9155,0 0,1.6836885 c -1.22337,-0.205459 -2.4559,-0.3929677 -3.68843,-0.5716718 l 0,-4.8020467 18.26608,0 0,8.5492432 z"
       inkscape:connector-curvature="0" /><path
       id="path3025"
       style="fill:#ffffff;fill-opacity:0.74509805;fill-rule:nonzero;stroke:none"
       d="M 223.01733,6.8688317 C 219.72106,5.3552724 216.38936,3.9305506 212.98218,2.63983 c -0.79462,-1.3630956 -1.28626,-2.9307351 -1.28626,-4.6047058 0,-5.0065912 4.07718,-9.1154282 9.06216,-9.1154282 4.98384,0 9.03471,4.108837 9.03471,9.1154282 0,4.2250009 -2.88008,7.8113295 -6.77546,8.8337075 z M 220.75808,3.523178 c 2.98298,0 5.37257,-2.4340664 5.37257,-5.4880538 0,-3.0549026 -2.38959,-5.4580982 -5.37257,-5.4580982 -2.97956,0 -5.40001,2.4031956 -5.40001,5.4580982 0,3.0539874 2.42045,5.4880538 5.40001,5.4880538 z"
       inkscape:connector-curvature="0" /><path
       id="path3027"
       style="fill:#ffffff;fill-opacity:0.74509805;fill-rule:nonzero;stroke:none"
       d="m 244.21836,7.1685026 0,-18.0800486 18.25806,0 0,18.0800486 -18.25806,0 z m 3.68042,-3.6453246 10.93381,0 0,-10.75407 -10.93381,0 0,10.75407 z"
       inkscape:connector-curvature="0" /><path
       id="path3029"
       style="fill:#ffffff;fill-opacity:0.74509805;fill-rule:nonzero;stroke:none"
       d="m 286.06247,7.1774212 c -4.98383,0 -9.06215,-4.1401653 -9.06215,-9.1467563 0,-5.0065909 4.07832,-9.1203439 9.06215,-9.1203439 4.97928,0 9.03015,4.113753 9.03015,9.1203439 0,5.006591 -4.05087,9.1467563 -9.03015,9.1467563 z m 0,-3.6587025 c 2.97843,0 5.37258,-2.4340664 5.37258,-5.4880538 0,-3.0549015 -2.39416,-5.4580969 -5.37258,-5.4580969 -2.98298,0 -5.40457,2.4031954 -5.40457,5.4580969 0,3.0539874 2.42159,5.4880538 5.40457,5.4880538 z"
       inkscape:connector-curvature="0" /><path
       id="path3031"
       style="fill:#ffffff;fill-opacity:0.74509805;fill-rule:nonzero;stroke:none"
       d="m 25.299887,7.1774212 c -4.985154,0 -9.06234,-4.1401653 -9.06234,-9.1467563 0,-5.0065909 4.077186,-9.1203439 9.06234,-9.1203439 4.979402,0 9.030158,4.113753 9.030158,9.1203439 0,5.006591 -4.050756,9.1467563 -9.030158,9.1467563 z m 0,-3.6587025 c 2.97855,0 5.37237,-2.4340664 5.37237,-5.4880538 0,-3.0549015 -2.39382,-5.4580969 -5.37237,-5.4580969 -2.984301,0 -5.404533,2.4031954 -5.404533,5.4580969 0,3.0539874 2.420232,5.4880538 5.404533,5.4880538 z"
       inkscape:connector-curvature="0" /><path
       id="path3033"
       style="fill:#ffffff;fill-opacity:0.74509805;fill-rule:nonzero;stroke:none"
       d="m 16.228615,346.2409 0,-18.07857 18.258182,0 0,18.07857 -18.258182,0 z m 3.644856,-3.64384 10.932786,0 0,-10.79088 -10.932786,0 0,10.79088 z"
       inkscape:connector-curvature="0" /><path
       id="path3035"
       style="fill:#ffffff;fill-opacity:0.74509805;fill-rule:nonzero;stroke:none"
       d="m 57.893231,346.2409 c -4.97938,0 -9.056547,-4.14005 -9.056547,-9.14675 0,-5.00671 4.077167,-9.11932 9.056547,-9.11932 4.985209,0 9.035964,4.11261 9.035964,9.11932 0,5.0067 -4.050755,9.14675 -9.035964,9.14675 z m 0,-3.65756 c 2.984357,0 5.378177,-2.43418 5.378177,-5.48919 0,-3.05502 -2.39382,-5.45719 -5.378177,-5.45719 -2.978527,0 -5.398759,2.40217 -5.398759,5.45719 0,3.05501 2.420232,5.48919 5.398759,5.48919 z"
       inkscape:connector-curvature="0" /><path
       id="path3037"
       style="fill:#ffffff;fill-opacity:0.74509805;fill-rule:nonzero;stroke:none"
       d="m 81.36392,346.2409 0,-18.07857 18.25785,0 0,18.07857 -18.25785,0 z m 3.643609,-3.64384 10.934035,0 0,-10.79088 -10.934035,0 0,10.79088 z"
       inkscape:connector-curvature="0" /><path
       id="path3039"
       style="fill:#ffffff;fill-opacity:0.74509805;fill-rule:nonzero;stroke:none"
       d="m 123.18495,346.2409 c -4.98384,0 -9.06192,-4.14005 -9.06192,-9.14675 0,-5.00671 4.07808,-9.11932 9.06192,-9.11932 4.98384,0 9.03024,4.11261 9.03024,9.11932 0,5.0067 -4.0464,9.14675 -9.03024,9.14675 z m 0,-3.65756 c 2.97852,0 5.37279,-2.43418 5.37279,-5.48919 0,-3.05502 -2.39428,-5.45719 -5.37279,-5.45719 -2.98298,0 -5.40459,2.40217 -5.40459,5.45719 0,3.05501 2.42161,5.48919 5.40459,5.48919 z"
       inkscape:connector-curvature="0" /><path
       id="path3041"
       style="fill:#ffffff;fill-opacity:0.74509805;fill-rule:nonzero;stroke:none"
       d="m 146.53443,346.2409 0,-18.07857 18.25808,0 0,18.07857 -18.25808,0 z m 3.64384,-3.64384 10.9338,0 0,-10.79088 -10.9338,0 0,10.79088 z"
       inkscape:connector-curvature="0" /><path
       id="path3043"
       style="fill:#ffffff;fill-opacity:0.74509805;fill-rule:nonzero;stroke:none"
       d="m 188.20363,346.2409 c -4.98384,0 -9.06215,-4.14005 -9.06215,-9.14675 0,-5.00671 4.07831,-9.11932 9.06215,-9.11932 4.98383,0 9.03012,4.11261 9.03012,9.11932 0,5.0067 -4.04629,9.14675 -9.03012,9.14675 z m 0,-3.65756 c 2.97956,0 5.37258,-2.43418 5.37258,-5.48919 0,-3.05502 -2.39302,-5.45719 -5.37258,-5.45719 -2.98298,0 -5.40344,2.40217 -5.40344,5.45719 0,3.05501 2.42046,5.48919 5.40344,5.48919 z"
       inkscape:connector-curvature="0" /><path
       id="path3045"
       style="fill:#ffffff;fill-opacity:0.74509805;fill-rule:nonzero;stroke:none"
       d="m 211.66964,346.2409 0,-18.07857 18.25692,0 0,18.07857 -18.25692,0 z m 3.64382,-3.64384 10.93382,0 0,-10.79088 -10.93382,0 0,10.79088 z"
       inkscape:connector-curvature="0" /><path
       id="path3047"
       style="fill:#ffffff;fill-opacity:0.74509805;fill-rule:nonzero;stroke:none"
       d="m 253.49088,346.2409 c -4.98041,0 -9.05758,-4.14005 -9.05758,-9.14675 0,-5.00671 4.07717,-9.11932 9.05758,-9.11932 4.98383,0 9.0347,4.11261 9.0347,9.11932 0,5.0067 -4.05087,9.14675 -9.0347,9.14675 z m 0,-3.65756 c 2.98298,0 5.37715,-2.43418 5.37715,-5.48919 0,-3.05502 -2.39417,-5.45719 -5.37715,-5.45719 -2.97956,0 -5.40002,2.40217 -5.40002,5.45719 0,3.05501 2.42046,5.48919 5.40002,5.48919 z"
       inkscape:connector-curvature="0" /><path
       id="path3049"
       style="fill:#ffffff;fill-opacity:0.74509805;fill-rule:nonzero;stroke:none"
       d="m 276.98203,346.2409 0,-18.07857 18.25807,0 0,18.07857 -18.25807,0 z m 3.64498,-3.64384 10.93266,0 0,-10.79088 -10.93266,0 0,10.79088 z"
       inkscape:connector-curvature="0" /><path
       id="path3051"
       style="fill:#ffffff;fill-opacity:0.74509805;fill-rule:nonzero;stroke:none"
       d="m 48.778602,313.83509 0,-18.07971 18.25784,0 0,18.07971 -18.25784,0 z m 3.680197,-3.68043 10.932775,0 0,-10.75429 -10.932775,0 0,10.75429 z"
       inkscape:connector-curvature="0" /><path
       id="path3053"
       style="fill:#ffffff;fill-opacity:0.74509805;fill-rule:nonzero;stroke:none"
       d="m 90.475004,313.82594 c -4.984754,0 -9.061921,-4.13547 -9.061921,-9.14675 0,-2.01915 0.656051,-3.88623 1.772185,-5.40002 1.117047,0.55795 2.241983,1.09418 3.372866,1.63041 -0.924967,0.97299 -1.487721,2.29126 -1.487721,3.76961 0,3.05958 2.420685,5.4892 5.404591,5.4892 2.89849,0 5.24235,-2.29584 5.3728,-5.23081 1.15581,0.46077 2.31756,0.88496 3.488126,1.3137 -0.74182,4.27383 -4.413096,7.57466 -8.860926,7.57466 z"
       inkscape:connector-curvature="0" /><path
       id="path3055"
       style="fill:#ffffff;fill-opacity:0.74509805;fill-rule:nonzero;stroke:none"
       d="m 113.91357,313.82594 0,-2.97041 c 4.43846,1.17422 8.96725,2.17464 13.54999,2.97041 l -13.54999,0 z"
       inkscape:connector-curvature="0" /><path
       id="path3057"
       style="fill:#ffffff;fill-opacity:0.74509805;fill-rule:nonzero;stroke:none"
       d="m 183.51362,313.82594 c 4.69,-0.81749 9.29426,-1.84535 13.83675,-3.05502 l 0,3.05502 -13.83675,0 z"
       inkscape:connector-curvature="0" /><path
       id="path3059"
       style="fill:#ffffff;fill-opacity:0.74509805;fill-rule:nonzero;stroke:none"
       d="m 220.75807,313.82594 c -4.47047,0 -8.19549,-3.32713 -8.91923,-7.62839 1.18794,-0.44247 2.345,-0.90668 3.51922,-1.37544 0.072,2.98756 2.46504,5.34628 5.40001,5.34628 2.98298,0 5.37258,-2.42962 5.37258,-5.4892 0,-1.52752 -0.57168,-2.87666 -1.54123,-3.85879 1.12162,-0.52708 2.23296,-1.07246 3.34542,-1.62583 1.15706,1.53207 1.85794,3.42088 1.85794,5.48462 0,5.01128 -4.05087,9.14675 -9.03471,9.14675 z"
       inkscape:connector-curvature="0" /><path
       id="path3061"
       style="fill:#ffffff;fill-opacity:0.74509805;fill-rule:nonzero;stroke:none"
       d="m 244.21836,313.83509 0,-18.07971 18.25806,0 0,18.07971 -18.25806,0 z m 3.68042,-3.68043 10.93381,0 0,-10.75429 -10.93381,0 0,10.75429 z"
       inkscape:connector-curvature="0" /><path
       id="path3063"
       style="fill:#ffffff;fill-opacity:0.74509805;fill-rule:nonzero;stroke:none"
       d="m 286.06247,313.83051 c -4.98383,0 -9.06215,-4.13662 -9.06215,-9.14675 0,-5.0067 4.07832,-9.11588 9.06215,-9.11588 4.97928,0 9.03015,4.10918 9.03015,9.11588 0,5.01013 -4.05087,9.14675 -9.03015,9.14675 z m 0,-3.6587 c 2.97843,0 5.37258,-2.43304 5.37258,-5.48805 0,-3.05501 -2.39416,-5.45833 -5.37258,-5.45833 -2.98298,0 -5.40457,2.40332 -5.40457,5.45833 0,3.05501 2.42159,5.48805 5.40457,5.48805 z"
       inkscape:connector-curvature="0" /><path
       id="path3065"
       style="fill:#ffffff;fill-opacity:0.74509805;fill-rule:nonzero;stroke:none"
       d="m 25.299887,313.83051 c -4.985154,0 -9.06234,-4.13662 -9.06234,-9.14675 0,-5.0067 4.077186,-9.11588 9.06234,-9.11588 4.979402,0 9.030158,4.10918 9.030158,9.11588 0,5.01013 -4.050756,9.14675 -9.030158,9.14675 z m 0,-3.6587 c 2.97855,0 5.37237,-2.43304 5.37237,-5.48805 0,-3.05501 -2.39382,-5.45833 -5.37237,-5.45833 -2.984301,0 -5.404533,2.40332 -5.404533,5.45833 0,3.05501 2.420232,5.48805 5.404533,5.48805 z"
       inkscape:connector-curvature="0" /><path
       id="path3067"
       style="fill:#ffffff;fill-opacity:0.74509805;fill-rule:nonzero;stroke:none"
       d="m 16.228615,281.07026 0,-18.07855 18.258182,0 0,18.07855 -18.258182,0 z m 3.644856,-3.67928 10.932786,0 0,-10.75544 -10.932786,0 0,10.75544 z"
       inkscape:connector-curvature="0" /><path
       id="path3069"
       style="fill:#ffffff;fill-opacity:0.74509805;fill-rule:nonzero;stroke:none"
       d="m 276.98203,281.07026 0,-18.07855 18.25807,0 0,18.07855 -18.25807,0 z m 3.64498,-3.67928 10.93266,0 0,-10.75544 -10.93266,0 0,10.75544 z"
       inkscape:connector-curvature="0" /><path
       id="path3071"
       style="fill:#ffffff;fill-opacity:0.74509805;fill-rule:nonzero;stroke:none"
       d="m 287.24584,248.5707 c 2.66629,-3.71587 5.16334,-7.54836 7.51634,-11.49175 0.21037,0.77289 0.34415,1.59382 0.34415,2.4296 0,4.60882 -3.43918,8.46762 -7.86049,9.06215 z"
       inkscape:connector-curvature="0" /><path
       id="path3073"
       style="fill:#ffffff;fill-opacity:0.74509805;fill-rule:nonzero;stroke:none"
       d="m 23.6742,248.48495 c -4.216975,-0.78091 -7.43174,-4.52421 -7.43174,-8.9764 0,-0.69744 0.07994,-1.37544 0.227329,-2.02829 2.263916,3.76961 4.653324,7.44545 7.204411,11.00469 z"
       inkscape:connector-curvature="0" /><path
       id="path3075"
       style="fill:#ffffff;fill-opacity:0.74509805;fill-rule:nonzero;stroke:none"
       d="m 16.228615,-25.416814 0,-18.080037 18.258182,0 0,18.080037 -18.258182,0 z m 3.644856,-3.645325 10.932786,0 0,-10.78941 -10.932786,0 0,10.78941 z"
       inkscape:connector-curvature="0" /><path
       id="path3077"
       style="fill:#ffffff;fill-opacity:0.74509805;fill-rule:nonzero;stroke:none"
       d="m 57.893231,-25.412355 c -4.97938,0 -9.056547,-4.140165 -9.056547,-9.146756 0,-5.006603 4.077167,-9.120405 9.056547,-9.120405 4.985209,0 9.035964,4.113802 9.035964,9.120405 0,5.006591 -4.050755,9.146756 -9.035964,9.146756 z m 0,-3.658702 c 2.984357,0 5.378177,-2.433151 5.378177,-5.488054 0,-3.054879 -2.39382,-5.458131 -5.378177,-5.458131 -2.978527,0 -5.398759,2.403252 -5.398759,5.458131 0,3.054903 2.420232,5.488054 5.398759,5.488054 z"
       inkscape:connector-curvature="0" /><path
       id="path3079"
       style="fill:#ffffff;fill-opacity:0.74509805;fill-rule:nonzero;stroke:none"
       d="m 81.36392,-25.416814 0,-18.080037 18.25785,0 0,18.080037 -18.25785,0 z m 3.643609,-3.645325 10.934035,0 0,-10.78941 -10.934035,0 0,10.78941 z"
       inkscape:connector-curvature="0" /><path
       id="path3081"
       style="fill:#ffffff;fill-opacity:0.74509805;fill-rule:nonzero;stroke:none"
       d="m 123.18495,-25.412355 c -4.98384,0 -9.06192,-4.140165 -9.06192,-9.146756 0,-5.006603 4.07808,-9.120405 9.06192,-9.120405 4.98384,0 9.03024,4.113802 9.03024,9.120405 0,5.006591 -4.0464,9.146756 -9.03024,9.146756 z m 0,-3.658702 c 2.97852,0 5.37279,-2.433151 5.37279,-5.488054 0,-3.054879 -2.39428,-5.458131 -5.37279,-5.458131 -2.98298,0 -5.40459,2.403252 -5.40459,5.458131 0,3.054903 2.42161,5.488054 5.40459,5.488054 z"
       inkscape:connector-curvature="0" /><path
       id="path3083"
       style="fill:#ffffff;fill-opacity:0.74509805;fill-rule:nonzero;stroke:none"
       d="m 146.53443,-25.416814 0,-18.080037 18.25808,0 0,18.080037 -18.25808,0 z m 3.64384,-3.645325 10.9338,0 0,-10.78941 -10.9338,0 0,10.78941 z"
       inkscape:connector-curvature="0" /><path
       id="path3085"
       style="fill:#ffffff;fill-opacity:0.74509805;fill-rule:nonzero;stroke:none"
       d="m 188.20363,-25.412355 c -4.98384,0 -9.06215,-4.140165 -9.06215,-9.146756 0,-5.006603 4.07831,-9.120405 9.06215,-9.120405 4.98383,0 9.03012,4.113802 9.03012,9.120405 0,5.006591 -4.04629,9.146756 -9.03012,9.146756 z m 0,-3.658702 c 2.97956,0 5.37258,-2.433151 5.37258,-5.488054 0,-3.054879 -2.39302,-5.458131 -5.37258,-5.458131 -2.98298,0 -5.40344,2.403252 -5.40344,5.458131 0,3.054903 2.42046,5.488054 5.40344,5.488054 z"
       inkscape:connector-curvature="0" /><path
       id="path3087"
       style="fill:#ffffff;fill-opacity:0.74509805;fill-rule:nonzero;stroke:none"
       d="m 211.66964,-25.416814 0,-18.080037 18.25692,0 0,18.080037 -18.25692,0 z m 3.64382,-3.645325 10.93382,0 0,-10.78941 -10.93382,0 0,10.78941 z"
       inkscape:connector-curvature="0" /><path
       id="path3089"
       style="fill:#ffffff;fill-opacity:0.74509805;fill-rule:nonzero;stroke:none"
       d="m 253.49088,-25.412355 c -4.98041,0 -9.05758,-4.140165 -9.05758,-9.146756 0,-5.006603 4.07717,-9.120405 9.05758,-9.120405 4.98383,0 9.0347,4.113802 9.0347,9.120405 0,5.006591 -4.05087,9.146756 -9.0347,9.146756 z m 0,-3.658702 c 2.98298,0 5.37715,-2.433151 5.37715,-5.488054 0,-3.054879 -2.39417,-5.458131 -5.37715,-5.458131 -2.97956,0 -5.40002,2.403252 -5.40002,5.458131 0,3.054903 2.42046,5.488054 5.40002,5.488054 z"
       inkscape:connector-curvature="0" /><path
       id="path3091"
       style="fill:#ffffff;fill-opacity:0.74509805;fill-rule:nonzero;stroke:none"
       d="m 276.98203,-25.416814 0,-18.080037 18.25807,0 0,18.080037 -18.25807,0 z m 3.64498,-3.645325 10.93266,0 0,-10.78941 -10.93266,0 0,10.78941 z"
       inkscape:connector-curvature="0" /><g
       transform="translate(8.61542,4.5209238)"
       inkscape:label="fithesis-ped-white"
       id="g5279"><g
         transform="scale(0.1,0.1)"
         id="g5281"><path
           id="path5283"
           style="fill:#ffffff;fill-opacity:1;fill-rule:nonzero;stroke:none"
           d="m 2337.58,2113.14 c -1.72,0.86 -3.75,0.66 -5.28,-0.47 0,0 -831.56,-628.01 -837.1,-632.19 -5.82,3.75 -832.149,536.92 -832.149,536.92 -1.531,0.97 -3.52,1.05 -5.121,0.19 -1.602,-0.9 -2.621,-2.58 -2.621,-4.41 l 0,-1139.961 c 0,-1.719 0.863,-3.278 2.312,-4.219 L 1495.86,328.18 c 1.76,-1.129 4.02,-1.059 5.7,0.191 l 836.8,631.918 c 1.25,0.941 1.95,2.422 1.95,3.981 l 0,1144.38 c 0,1.91 -1.05,3.63 -2.73,4.49 z m -77.27,-1111.52 c -3.9,-2.972 -759.61,-573.64 -765.11,-577.819 -5.82,3.75 -755.36,487.347 -759.891,490.277 l 0,961.482 c 15.121,-9.76 760.551,-490.7 760.551,-490.7 1.76,-1.17 4.02,-1.06 5.7,0.19 0,0 743.09,561.14 758.75,573.01 l 0,-956.44 z m 121.84,1209.25 c -219.65,6.68 -423.71,-18.94 -695.27,-398.24 -7.82,5.04 -838.829,544.38 -838.829,544.38 -1.531,0.97 -3.481,1.05 -5.121,0.19 -1.602,-0.86 -2.621,-2.58 -2.621,-4.41 l 0,-106.06 c -13.161,8.91 -88.86,60.04 -88.86,60.04 -1.527,1.02 -3.519,1.14 -5.121,0.28 -1.637,-0.9 -2.656,-2.58 -2.656,-4.42 l 0,-120 c -12.973,8.75 -80.551,54.38 -80.551,54.38 -1.519,1.05 -3.512,1.13 -5.152,0.27 -1.598,-0.86 -2.66,-2.58 -2.66,-4.41 l 0,-175.75 c 0,-1.64 0.82,-3.2 2.23,-4.14 l 70,-47.26 c 1.52,-1.06 3.512,-1.17 5.16,-0.28 1.602,0.86 2.61,2.54 2.61,4.42 l 0,81.83 c 12.972,-8.75 80.55,-54.37 80.55,-54.37 1.52,-1.06 3.52,-1.13 5.161,-0.27 1.64,0.86 2.652,2.57 2.652,4.41 l 0,120 c 13.168,-8.91 88.867,-60.04 88.867,-60.04 1.52,-1.01 3.512,-1.13 5.16,-0.27 1.602,0.86 2.61,2.58 2.61,4.41 l 0,109.18 c 15.16,-9.84 783.401,-508.44 783.401,-508.44 2.31,-1.48 5.31,-0.86 6.88,1.37 112.65,163.01 241.75,299.84 345.31,366.02 77.89,56.6 206.05,95.47 311.87,94.68 37.62,-0.27 40.82,15.75 40.94,20.67 0.24,11.4 -11.95,21.37 -26.56,21.83 z M 151.41,1063.22 c 21.68,7.69 45.27,-3.52 53,-25.24 7.699,-21.72 -3.551,-45.308 -25.269,-53 -21.719,-7.742 -45.313,3.508 -53.012,25.27 -7.688,21.68 3.562,45.27 25.281,52.97 z m 158.551,-136.45 44.609,-85.231 -16.601,-8.668 -34.258,65.43 -54.371,-27.86 33.39,-63.82 -16.601,-8.68 -33.238,63.598 -72.582,-36.84 -10.508,20.039 160.16,82.032 z m 84.098,-147.11 11.8,-17.73 -107.031,-157.27 -18.476,14.57 39.257,55.508 -41.211,61.922 -67.378,-13.359 -6.141,20.929 189.18,35.43 z m -11.25,-19.68 -0.309,0.43 -84.219,-19.89 32.739,-49.098 51.789,68.558 z M 523.16,569.738 c -1.75,17.461 -8.75,30.672 -20.351,43.992 -27.34,31.36 -72.028,32.11 -103.43,4.801 -31.41,-27.301 -36.879,-71.722 -9.578,-103.09 10.429,-11.992 25.508,-20.23 40.98,-25.703 l -6.172,-17.066 c -17.808,6.207 -36.449,16.168 -48.91,30.469 -35,40.23 -36.359,94.839 7.973,133.437 41.598,36.172 98.277,29.652 133.238,-10.547 14.18,-16.293 21.18,-32.269 25.711,-51.761 L 523.16,569.738 z M 676.289,469.43 601.68,385.84 c -38.711,-42.82 -75.551,-28.789 -101.91,-5.59 -29.071,25.59 -41.18,59.059 -4.93,100.27 9.648,10.941 20.469,22.851 32.89,36.531 l 41.61,46.519 16.75,-14.769 -44.18,-49.449 c -11.359,-12.5 -22.89,-25.231 -33.859,-37.692 -21.84,-24.808 -18.75,-47.269 5.269,-68.398 19.532,-17.192 45.469,-22.352 72.418,8.316 l 73.75,82.613 16.801,-14.761 z M 604.691,299.621 708.199,446.77 726.602,434.078 633.711,302.32 l 63.129,-43.59 -10.629,-15.39 -81.52,56.281 z m 170.231,99.649 118.199,-67.77 -9.293,-16.211 -49.418,28.32 -81.558,-139.058 -19.372,11.09 81.52,139.058 -49.379,28.36 9.301,16.211 z m 171.019,-91.008 19.489,-8.641 -5.899,-190.152 -23.402,2.422 3.32,67.89 -68,30.078 -49.687,-47.418 -16.41,14.368 140.589,131.453 z m 1.047,-22.66 -0.468,0.199 -60.391,-62 53.992,-23.86 6.867,85.661 z M 1002.62,120.41 c 7.07,-9.57 18.86,-19.769 32.54,-24.0702 20.07,-6.25 37.77,1.5704 43.75,20.6722 13.63,43.668 -67.62,49.449 -48.87,109.527 8.32,26.52 35.7,38.402 66.25,28.871 16.87,-5.281 30.12,-15.16 41.44,-27.66 l -13.04,-13.09 c -8.09,9.891 -16.41,19.031 -32.54,24.07 -14.88,4.641 -34.65,0.739 -41.13,-20.121 -11.8,-37.738 68.08,-53.168 51.28,-106.988 -8,-25.5898 -33.32,-43.8319 -71.05,-32.0312 -18.87,5.8907 -31.02,14.879 -42.891,28.3902 l 14.261,12.43 z m 234.18,95.66 53.75,-7.968 c 33.67,-5 54.02,-25.622 48.98,-59.571 -5.9,-39.883 -41.83,-48.203 -71.17,-43.871 l -25.47,3.75 -11.91,-73.3983 -22.11,3.2891 27.93,177.7692 z m 8.36,-90.629 28.32,-4.179 c 18.75,-2.813 40.11,4.808 43.94,30.547 2.81,19.031 -5.51,37.351 -34.33,41.601 l -26.72,3.988 -11.21,-71.957 z m 168.94,70.86 21.29,-0.891 64.26,-179.0311 -22.66,-6.3672 -21.83,64.3789 -74.3,3.0508 -28.83,-62.3516 -20.51,7.3907 82.58,173.8205 z m 9.3,-20.699 -0.55,0.039 -33.44,-79.8402 58.99,-2.3906 -25,82.1918 z m 103.05,19.488 92.34,6.449 1.29,-18.668 -70.28,-4.891 3.72,-61.011 68.43,4.761 1.33,-18.671 -68.2,-4.7192 3.79,-62.5781 72.11,5.0391 1.32,-18.6797 -94.96,-6.6016 -10.89,179.5705 z m 123.67,9.301 53.12,10.078 c 68.24,12.929 103.71,-24.809 111.88,-68.008 11.4,-60.0001 -27,-99.0626 -84.22,-109.8829 l -48.79,-9.2578 -31.99,177.0707 z m 50.78,-156.0512 23.48,4.4493 c 50.31,9.5312 78.24,39.7226 69.02,88.2419 -8.44,44.449 -43.75,64.77 -91.02,55.778 l -27.11,-5.118 25.63,-143.3512 z m 177.85,210.0702 20.23,6.762 123.68,-144.57 -18.91,-13.981 -43.28,52.457 -70.55,-23.598 -4.8,-68.4683 -21.8,-0.4336 15.43,191.8319 z m 16.05,-16.012 -0.5,-0.16 -2.89,-86.519 55.97,18.711 -52.58,67.968 z m 257.7,38.75 35.59,-74.609 c -14.42,-17.848 -31.72,-30.391 -46.64,-37.738 -47.82,-23.551 -100.98,-10.891 -126.96,41.84 -24.33,49.449 -3.51,102.578 44.3,126.089 17.03,8.399 36.72,13.168 55.55,13.168 l 0.11,-19.648 c -13.59,1.129 -30.86,-2.148 -47.42,-10.309 -37.3,-18.363 -49.41,-61.41 -31.05,-98.75 18.36,-37.312 59.88,-53.992 97.18,-35.589 11.22,5.507 22,14.257 29.11,22.699 l -29.85,63 20.08,9.847 z m 35.12,16.172 c -31.49,45.231 -18.87,100.899 24.88,131.328 43.75,30.43 98.24,25.864 131.8,-22.386 31.44,-45.231 18.86,-100.891 -24.92,-131.321 -43.76,-30.429 -98.25,-25.863 -131.76,22.379 z m 19.65,13.629 c 23.75,-34.14 67.26,-44.371 101.4,-20.621 34.18,23.75 39.73,68.121 15.98,102.262 -23.75,34.18 -67.31,44.422 -101.45,20.672 -34.18,-23.75 -39.68,-68.133 -15.93,-102.313 z m 271.95,224.262 56.01,-60.82 c -8.51,-21.289 -21.32,-38.403 -33.39,-49.801 -38.75,-36.61 -93.32,-40.199 -133.68,2.5 -37.85,40.07 -33.63,96.988 5.12,133.59 13.79,13.011 31.17,23.359 49.18,28.941 l 5.9,-18.75 c -13.32,-2.93 -28.83,-11.133 -42.23,-23.82 -30.23,-28.563 -29.14,-73.289 -0.54,-103.52 28.55,-30.23 73.12,-33.91 103.39,-5.351 9.07,8.59 16.72,20.121 21.1,30.308 l -47.11,51.371 16.25,15.352 z m -34.88,94.34 14.72,16.828 134.38,-119.649 -14.73,-16.832 -134.37,119.653 z m 143.32,137.961 c -16.61,-5.621 -27.89,-15.391 -38.28,-29.723 -24.5,-33.629 -15.12,-77.379 18.51,-101.84 33.67,-24.449 78.16,-19.84 102.62,13.832 9.33,12.809 13.94,29.379 15.86,45.66 l 18.01,-2.14 c -2.04,-18.75 -7.58,-39.18 -18.72,-54.539 -31.32,-43.121 -84.29,-56.711 -131.83,-22.184 -44.57,32.422 -50.94,89.102 -19.61,132.223 12.69,17.461 26.68,27.859 44.65,36.679 l 8.79,-17.968 z m 21.6,94.687 10.19,18.711 189.03,-21.719 -4.34,-23.121 -67.38,8.942 -35.67,-65.274 43.13,-53.437 -15.67,-15.11 -119.29,151.008 z m 22.65,-0.82 -0.23,-0.469 56.76,-65.351 28.28,51.839 -84.81,13.981 z m 141.68,121.883 c -21.68,7.687 -32.89,31.328 -25.15,52.998 7.69,21.72 31.33,32.93 53.04,25.24 21.68,-7.74 32.9,-31.37 25.16,-53.05 -7.69,-21.72 -31.33,-32.93 -53.05,-25.188 z M 9.10156,1333.57 119.961,1349.86 c 57.187,8.05 76.41,-26.37 81.758,-61.06 5.902,-38.28 -6.289,-71.71 -60.508,-80.07 -14.41,-2.23 -30.352,-4.42 -48.6329,-7 l -61.7578,-8.98 -3.4414,22.11 65.6328,9.57 c 16.7183,2.3 33.7503,4.69 50.1873,7.23 32.621,5.03 44.653,24.25 39.77,55.85 -3.949,25.71 -20.547,46.29 -60.86,40.04 L 12.5,1311.46 9.10156,1333.57 z M 8.32031,1397.4 0,1415.99 l 144.449,101.64 0,0.51 -142.21853,-0.98 -0.32031,22.62 176.28884,0.94 7.539,-19.42 L 40,1420.44 l 0,-0.5 143.52,0.97 0.308,-22.61 -175.50769,-0.9 z m -1.41015,203.59 1.83984,22.27 179.18,-16.29 -1.84,-22.27 -179.17984,16.29 z m 8.78904,61.25 -4.9609,23.05 164.9997,31.52 -143.4372,91.17 9.7304,19.38 161.5198,-105.43 -3.59,-20.47 -184.2618,-39.22 z m 35.6719,205.78 26.25,88.75 17.9687,-5.35 -20,-67.54 58.4302,-17.85 19.46,65.82 17.969,-5.31 -19.379,-65.55 59.918,-18.28 20.512,69.3 17.93,-5.32 -26.989,-91.25 -172.0699,52.58 z m 43.5078,137.97 20.9801,50.12 c 13.121,31.4 38.161,46.01 65.7,34.49 27.113,-11.37 35.203,-36.44 28.601,-61.01 l 0.5,-0.2 c 6.531,10.23 25.789,13.16 37.07,16.6 l 58.09,14.85 3.399,-22.82 -69.571,-16.83 c -17.418,-4.53 -29.218,-5.78 -35.738,-21.41 l -5.551,-13.16 70.59,-30.71 -8.719,-20.86 -165.3511,70.94 z m 87.5431,-13.01 8.629,20.63 c 8.558,20.39 9.969,44.61 -14.02,54.65 -17.769,7.42 -37.543,3.9 -48.793,-22.97 l -10.347,-24.73 64.531,-27.58 z m 116.058,95.16 c 10.782,5.04 23.161,14.53 30.071,27.03 10.199,18.44 6.097,37.34 -11.442,47.03 -40.039,22.11 -61.988,-56.33 -117.07,-25.9 -24.379,13.44 -30.508,42.66 -15.039,70.67 8.551,15.47 20.898,26.48 35.43,35.08 l 10.191,-15.43 c -11.32,-5.94 -21.91,-12.27 -30.109,-27.03 -7.543,-13.68 -7.66,-33.79 11.476,-44.34 34.571,-19.14 65.711,56.05 115.121,28.75 23.403,-12.93 36.211,-41.41 17.11,-75.98 -9.571,-17.3 -20.778,-27.42 -36.41,-36.33 l -9.329,16.45 z m -61.531,198.36 12.231,18.71 149.691,-99.84 -12.269,-18.71 -149.653,99.84 z m 32.699,51.25 83.512,107.66 14.77,-11.49 -34.879,-45 126.398,-100.04 -13.711,-17.65 -126.398,100.03 -34.891,-45 -14.801,11.49 z m 136.133,163.94 14.731,15.4 176.789,-70.24 -10.192,-21.17 -62.73,26.17 -51.449,-53.67 27.691,-62.85 -19.101,-10.55 -75.739,176.91 z m 21.641,-6.71 -0.352,-0.36 37.731,-77.89 40.82,42.62 -78.199,35.63 z m 170.469,-19.07 c 11.879,0.78 26.879,5.12 37.847,14.3 16.172,13.48 19.184,32.58 6.41,47.97 -29.339,35.16 -78.238,-30 -118.558,18.32 -17.77,21.37 -12.891,50.86 11.68,71.33 13.558,11.29 29.031,17.11 45.71,19.84 l 3.899,-18.08 c -12.688,-1.41 -24.84,-3.48 -37.848,-14.3 -11.953,-9.96 -19.371,-28.67 -5.429,-45.47 25.308,-30.35 81.597,28.4 117.738,-14.92 17.14,-20.59 18.75,-51.72 -11.61,-77.03 -15.191,-12.66 -29.332,-18.01 -47.109,-20.67 l -2.73,18.71 z m 102.808,268.79 20.281,11.14 120.661,-107 -21.719,161.25 21.207,11.64 111.601,-144.02 -17.421,-13.71 -94.059,123.98 -0.43,-0.23 23.2,-158.67 -18.668,-10.24 -118.082,106.64 -0.469,-0.23 52.34,-146.88 -20.661,-7.18 -57.781,173.51 z m 269.77,128.95 20.043,7.19 126.868,-141.76 -18.59,-14.38 -44.41,51.45 -70.001,-25.16 -3.289,-68.55 -21.789,-0.9 11.168,192.11 z m 16.41,-15.67 -0.508,-0.15 -0.98,-86.57 55.549,19.97 -54.061,66.75 z m 143.981,-93.2 c 10.98,-4.65 26.33,-7.42 40.23,-4.18 20.51,4.81 31.76,20.55 27.19,40.04 -10.43,44.53 -83.36,8.2 -97.73,69.45 -6.37,27.11 11.21,51.25 42.34,58.56 17.23,4.02 33.63,2.3 49.81,-2.74 l -4.65,-17.93 c -11.96,4.42 -23.75,8.05 -40.24,4.18 -15.15,-3.55 -30.19,-16.95 -25.19,-38.2 9.02,-38.48 85.66,-11.17 98.55,-66.09 6.13,-26.06 -6.4,-54.65 -44.88,-63.68 -19.26,-4.49 -34.3,-2.96 -51.37,2.66 l 5.94,17.93 z m 163.59,186.95 21.17,2.5 91.57,-166.75 -21.37,-9.85 -31.68,60.16 -73.87,-8.67 -18.67,-66.06 -21.4,4.03 54.25,184.64 z m 12.43,-18.94 -0.51,-0.08 -20.51,-84.1 58.59,6.91 -37.57,77.27 z m 121.64,30.35 54.33,-0.27 c 34.06,-0.2 57.11,-17.74 56.95,-47.62 -0.11,-29.41 -20.23,-46.45 -45.46,-49.69 l 0,-0.55 c 11.95,-2.1 21.99,-18.82 29.49,-27.96 l 35.86,-48.01 -19.81,-11.88 -42.07,57.93 c -10.86,14.38 -16.52,24.81 -33.43,24.89 l -14.3,0.07 -1.45,-76.95 -22.61,0.12 2.5,179.92 z m 21.4,-85.9 22.35,-0.12 c 22.11,-0.11 45.03,7.82 45.15,33.79 0.12,19.26 -10.7,36.21 -39.84,36.37 l -26.8,0.16 -0.86,-70.2 z m 177.89,-25.51 -51.4,102.27 21.44,8.67 44.38,-95.35 68.71,81.84 18.01,-13.68 -78.95,-86.4 -10.66,-76.21 -22.23,2.65 10.7,76.21 z m 143.24,82.82 21.72,-5.28 -21.6,-85.7 -22.34,-88.75 -21.72,5.27 43.94,174.46 z m 0.12,-90.98 108.63,68.36 11.92,-17.07 -93.4,-57.35 56.48,-96.91 -19.92,-10.43 -63.71,113.4 z m 166.64,45.78 21.17,-7.15 -58.9,-170 -21.21,7.15 58.94,170 z m 128.01,-48.91 19.49,-8.63 -6.13,-190.15 -23.4,2.42 3.4,67.89 -67.97,30.15 -49.73,-47.34 -16.36,14.38 140.7,131.28 z m 1.06,-22.65 -0.47,0.23 -60.47,-61.95 53.94,-23.91 7,85.63 z m 120.19,-40.2 20.2,-2.97 8.16,-176.44 0.47,-0.27 75.51,120.5 19.25,-11.87 -93.86,-149.22 -20.39,4.06 -6.88,177.11 -0.43,0.27 -76.21,-121.6 -19.26,11.88 93.44,148.55 z m 216.99,-142.93 16.49,-13.51 -56.53,-181.64 -21.87,8.55 21.33,64.57 -57.5,47.15 -60.55,-32.42 -11.95,18.24 170.58,89.06 z m -5.04,-22.11 -0.39,0.36 -74.76,-43.6 45.62,-37.42 29.53,80.66 z m 161.1,-123.04 32.61,-37.78 c 25.86,-29.88 16.8,-55.58 1.68,-68.67 -16.71,-14.45 -34.29,-15.19 -52.42,-3.4 l -0.39,-0.31 c 11.84,-20.04 7.54,-40.94 -9.76,-55.9 -24.18,-20.9 -52.74,-15.35 -75.86,11.41 l -33.01,38.16 137.15,116.49 z m -109.38,-122.39 17.19,-19.88 c 14.96,-17.3 31.95,-21.83 50.86,-5.51 16.48,14.26 14.96,33.56 -2.03,53.25 l -13.79,15.89 -52.23,-43.75 z m 65.2,55 11.05,-12.77 c 19.22,-22.23 36.64,-23.32 50.63,-11.25 15.15,13.09 16.09,28.71 -2.78,50.51 l -11.75,13.59 -47.15,-40.08 z m 146.29,-55.43 30.7,-44.84 c 19.22,-28.12 17.93,-57.03 -6.76,-73.94 -24.26,-16.57 -49.69,-9.73 -66.76,9.14 l -0.39,-0.28 c 5,-11.05 -2.97,-28.83 -6.25,-40.19 l -19.06,-56.84 -21.01,9.57 23.71,67.54 c 5.58,17.11 10.93,27.7 1.4,41.64 l -8.04,11.8 -64.11,-42.62 -12.81,18.67 149.38,100.35 z m -58.48,-66.48 12.66,-18.44 c 12.46,-18.28 32.03,-32.58 53.47,-17.89 15.9,10.86 23.67,29.42 7.23,53.44 l -15.12,22.11 -58.24,-39.22 z m 220.04,-207.77 -100.24,-50.16 c -51.79,-25.47 -80.82,1.17 -96.75,32.46 -17.58,34.53 -16.45,70.12 32.46,95 12.97,6.6 27.46,13.67 44.02,21.84 l 55.86,27.85 10.16,-19.96 -59.34,-29.61 c -15.16,-7.42 -30.58,-14.96 -45.43,-22.54 -29.41,-14.96 -34.84,-36.99 -20.31,-65.47 11.76,-23.16 33.94,-37.54 70.35,-19.02 l 99.06,49.53 10.16,-19.92 z m 20.74,-60.63 13.67,-15.08 -105.74,-141.48 0.2,-0.51 134.88,45.12 7.3,-21.41 -167.26,-55.62 -13.2,16.09 107.22,141.13 -0.15,0.51 -136.14,-45.51 -7.3,21.37 166.52,55.39 z m 64.92,-192.89 19.34,-90.51 -18.32,-3.9 -14.73,68.9 -59.84,-12.26 14.33,-67.11 -18.32,-3.91 -14.25,66.88 -61.41,-12.58 15.12,-70.7 -18.32,-3.91 -19.89,93.09 176.29,36.01 z m 24.1,-143.67 9.73,-17.93 -136.09,-112.5 0.04,-0.51 141.72,11.95 2.07,-22.53 -175.71,-14.54 -9.02,18.75 137.5,111.84 -0.04,0.51 -143.01,-12.07 -2.07,22.5 174.88,14.53 z m -135.39,-196.06 c -7.22,-9.45 -13.82,-23.59 -14.18,-37.89 -0.5,-21.05 11.84,-35.89 31.88,-36.4 45.7,-1.14 28.98,78.59 91.91,77.03 27.78,-0.7 46.72,-23.79 45.9,-55.78 -0.43,-17.66 -6.29,-33.13 -15.19,-47.46 l -16.18,8.98 c 7.31,10.51 13.79,20.98 14.22,37.89 0.39,15.59 -8.79,33.48 -30.62,34.03 -39.49,1.01 -32.42,-80.08 -88.83,-78.64 -26.8,0.67 -51.29,20 -50.27,59.49 0.5,19.77 5.78,33.91 15.5,49.03 l 15.86,-10.28 z m 146.22,-147.42 -2.19,-22.26 -178.91,19.37 2.23,22.23 178.87,-19.34 z m -159.26,-49.96 c -8.6,-8.24 -17.19,-21.25 -19.65,-35.31 -3.67,-20.74 6.37,-37.31 26.09,-40.78 45.04,-7.93 40.35,73.44 102.31,62.54 27.42,-4.81 42.69,-30.47 37.18,-61.96 -3.08,-17.42 -11.17,-31.83 -22.1,-44.68 l -14.65,11.29 c 8.75,9.25 16.72,18.67 19.65,35.35 2.69,15.35 -3.72,34.41 -25.24,38.2 -38.91,6.84 -43.94,-74.37 -99.49,-64.61 -26.41,4.65 -47.74,27.38 -40.9,66.33 3.44,19.45 10.74,32.69 22.66,46.17 l 14.14,-12.54"
           inkscape:connector-curvature="0" /></g></g></g></svg>