<?xml version="1.0" encoding="UTF-8" standalone="no"?>
<!-- Created with Inkscape (http://www.inkscape.org/) -->

<svg
   xmlns:dc="http://purl.org/dc/elements/1.1/"
   xmlns:cc="http://creativecommons.org/ns#"
   xmlns:rdf="http://www.w3.org/1999/02/22-rdf-syntax-ns#"
   xmlns:svg="http://www.w3.org/2000/svg"
   xmlns="http://www.w3.org/2000/svg"
   xmlns:sodipodi="http://sodipodi.sourceforge.net/DTD/sodipodi-0.dtd"
   xmlns:inkscape="http://www.inkscape.org/namespaces/inkscape"
   id="svg2"
   version="1.1"
   inkscape:version="0.48.5 r10040"
   width="369.64999"
   height="487.39999"
   xml:space="preserve"
   sodipodi:docname="fibeamer-mu-phil-light.pdf"><metadata
     id="metadata8"><rdf:RDF><cc:Work
         rdf:about=""><dc:format>image/svg+xml</dc:format><dc:type
           rdf:resource="http://purl.org/dc/dcmitype/StillImage" /><dc:title></dc:title></cc:Work></rdf:RDF></metadata><defs
     id="defs6"><clipPath
       id="clipPath3044"
       clipPathUnits="userSpaceOnUse"><path
         id="path3046"
         d="M 0,3118.1 0,0 l 3118.11,0 0,3118.1 -3118.11,0 z" /></clipPath><clipPath
       id="clipPath3889"
       clipPathUnits="userSpaceOnUse"><path
         id="path3891"
         d="m 0,2909.84 2900,0 0,-2900.00016 -2900,0 L 0,2909.84 z" /></clipPath></defs><sodipodi:namedview
     pagecolor="#ffffff"
     bordercolor="#666666"
     borderopacity="1"
     objecttolerance="10"
     gridtolerance="10"
     guidetolerance="10"
     inkscape:pageopacity="0"
     inkscape:pageshadow="2"
     inkscape:window-width="1280"
     inkscape:window-height="751"
     id="namedview4"
     showgrid="false"
     inkscape:zoom="0.85630196"
     inkscape:cx="263.53324"
     inkscape:cy="240.81221"
     inkscape:window-x="0"
     inkscape:window-y="29"
     inkscape:window-maximized="1"
     inkscape:current-layer="g10"
     fit-margin-top="0"
     fit-margin-left="0"
     fit-margin-right="0"
     fit-margin-bottom="0"
     units="px" /><g
     id="g10"
     inkscape:groupmode="layer"
     inkscape:label="ink_ext_XXXXXX"
     transform="matrix(1.25,0,0,-1.25,-10.030275,432.8007)"><path
       id="path5516"
       style="fill:#0080c9;fill-opacity:1;fill-rule:nonzero;stroke:none"
       d="m 254.77917,68.983724 13.642,-11.7312 1.442,1.707 -13.641,11.7324 -1.443,-1.7082 z m -4.242,-4.8328 5.505,-5.7805 -6.935,-6.7793 -5.524,5.7625 -1.618,-1.5808 12.465,-12.9754 1.618,1.5808 -5.614,5.8926 6.936,6.7793 5.631,-5.875 1.619,1.5813 -12.466,12.9761 -1.617,-1.5816 z m -93.982,-20.186 c 6.128,0 11.889,3.1418 14.83,8.0168 -4.946,4.3313 -9.886,8.4208 -14.83,12.25 -4.944,-3.8292 -9.884,-7.9187 -14.83,-12.25 2.942,-4.875 8.702,-8.0168 14.83,-8.0168 z m 48.124,-15.7476 c -0.826,2.0215 0.446,3.5809 1.891,4.1719 1.564,0.6383 2.787,0.4644 4.039,0.2175 l 0.174,1.8411 c -1.671,0.2441 -3.323,0.1589 -4.958,-0.5098 -2.962,-1.2102 -4.317,-3.8711 -3.265,-6.4465 2.381,-5.8242 9.013,-1.0906 10.744,-5.3269 0.758,-1.8528 -0.109,-3.5832 -2.058,-4.3801 -1.323,-0.541 -2.883,-0.5047 -4.04,-0.2188 l -0.304,-1.8664 c 1.774,-0.2859 3.285,-0.2019 5.114,0.5461 3.658,1.4949 4.447,4.5137 3.434,6.9922 -2.135,5.2227 -9.276,1.3215 -10.771,4.9797 z m 72.679,43.1758 c -2.387,-3.4074 -6.829,-3.9453 -10.236,-1.5578 -3.406,2.3879 -4.416,6.7461 -2.028,10.1535 1.015,1.4469 2.128,2.4453 3.778,3.0347 l -0.91,1.7805 c -1.781,-0.9101 -3.162,-1.9746 -4.4,-3.741 -3.06,-4.3652 -2.326,-10.0227 2.187,-13.1867 4.813,-3.3719 10.084,-1.9231 13.142,2.4426 1.09,1.5535 1.606,3.6043 1.78,5.4832 l -1.806,0.1867 c -0.161,-1.634 -0.596,-3.2969 -1.507,-4.5957 z m -6.488,21.1336 12.186,-14.8953 1.541,1.541 -4.402,5.2703 3.451,6.5871 6.754,-0.7793 0.392,2.3191 -18.932,1.8457 -0.99,-1.8886 z m 2.267,-0.043 8.501,-1.2539 -2.738,-5.2273 -5.787,6.4355 0.024,0.0457 z m -52.851,-51.4727 c -4.632,-2.6367 -6.39,-8.0644 -3.664,-12.8554 2.907,-5.1067 8.291,-6.0508 12.923,-3.4141 4.633,2.6367 6.39,8.0645 3.663,12.8547 -2.907,5.107 -8.291,6.0516 -12.922,3.4148 z m 8.334,-14.6425 c -3.616,-2.0578 -7.861,-0.6446 -9.918,2.9707 -2.058,3.6152 -1.106,7.9875 2.509,10.0449 3.616,2.0578 7.861,0.6445 9.918,-2.9707 2.058,-3.6152 1.106,-7.9871 -2.509,-10.0449 z m -88.807,27.2648 c 4.913,4.3106 9.819,8.3738 14.729,12.1934 -21.123,16.0711 -42.487,27.7371 -65.809,36.036996 -10.134,-3.494996 -18.1157,-6.846796 -25.5059,-12.028396 29.6324,-8.3887 53.4479,-19.6407 76.5859,-36.202 z m 32.932,173.416396 c -0.003,-0.005 -0.003,-0.009 -0.005,-0.014 -1.03,-3.057 -0.942,-7.394 2.593,-8.745 2.677,-1.025 5.797,0.216 6.541,3.075 0.514,1.979 0.108,4.469 -0.228,6.441 -0.574,3.372 -1.821,6.634 -3.809,9.431 -1.026,-1.81 -1.98,-3.652 -2.949,-5.492 2.459,1.291 5.546,-0.172 6.083,-2.903 0.505,-2.564 -1.522,-5.031 -4.137,-5.031 -1.987,0 -3.646,1.386 -4.089,3.238 z m -8.629,-3.694 c -3.376,-8.736 -5.557,-17.749 -6.405,-25.996 8.686,0.39 16.446,5.129 20.755,12.666 -7.768,-0.912 -14.403,5.725 -14.35,13.33 z m -27.401,25.127 c 5.704,-7.292 10.331,-15.946 13.75,-24.874 4.007,0.932 8.174,0.932 12.181,0 3.418,8.928 8.045,17.583 13.749,24.874 -5.561,4.396 -12.391,6.717 -19.84,6.717 -7.448,0 -14.279,-2.321 -19.84,-6.717 z m -2.064,-38.457 c 4.309,-7.529 12.084,-12.275 20.748,-12.666 -0.848,8.247 -3.029,17.26 -6.404,25.996 0.051,-7.602 -6.578,-14.239 -14.344,-13.33 z m 54.695,49.169 c -5.829,-4.28 -10.685,-9.817 -14.745,-15.77 -2.18,-3.195 -4.141,-6.538 -5.908,-9.977 -1.603,-3.12 -3.013,-6.385 -3.076,-9.95 -0.089,-5.058 2.906,-9.554 7.662,-11.328 4.276,-1.592 8.866,-0.314 11.962,2.981 1.492,1.588 2.606,3.554 3.153,5.665 0.611,2.362 0.368,4.908 -0.017,7.288 -0.899,5.573 -3.352,10.871 -6.88,15.265 -0.986,-1.541 -1.911,-3.128 -2.83,-4.71 2.512,-3.311 4.012,-7.281 4.586,-11.382 0.347,-2.475 0.735,-5.522 -0.532,-7.795 -1.781,-3.199 -6.226,-3.93 -9.188,-1.93 -3.783,2.558 -3.281,7.795 -1.632,11.451 4.547,10.086 13.362,23.416 18.651,30.192 -0.602,0 -1.015,0 -1.206,0 z m -65.582,0 c -0.192,0 -0.604,0 -1.206,0 4.58,-5.869 8.687,-12.149 12.478,-18.551 1.345,-2.272 2.644,-4.574 3.866,-6.917 1.19,-2.283 2.521,-4.655 3.177,-7.158 0.672,-2.567 0.602,-5.528 -1.094,-7.7 -1.497,-1.917 -4.002,-2.719 -6.368,-2.328 -2.129,0.351 -3.875,1.789 -4.629,3.81 -0.558,1.494 -0.455,3.143 -0.355,4.707 0.308,4.875 1.838,9.684 4.81,13.601 -0.92,1.585 -1.88,3.143 -2.83,4.71 -4.608,-5.74 -7.253,-12.881 -7.253,-19.841 0,-6.067 5.231,-11.911 11.381,-12.079 4.499,-0.123 8.913,2.766 10.735,6.846 2.279,5.103 0.33,10.503 -2.059,15.152 -5.026,9.78 -11.709,19.18 -20.653,25.748 z m 55.687,-31.167 c 0,3.373 -5.233,3.373 -5.233,0 0,-3.373 5.233,-3.373 5.233,0 z m 46.057,-121.378 c 9.655,13.712 15.35,30.405 15.35,48.412 0,33.339 -19.455,62.217 -47.607,75.885 l 0,-3.21 c 26.52,-13.446 44.749,-40.963 44.749,-72.675 0,-17.818 -5.767,-34.307 -15.512,-47.73 l 3.02,-0.682 z m -30.552,-15.078896 c 10.456,4.0567 17.461,27.650896 17.461,62.373896 0,38.25 -5.5,69.109 -20.75,69.109 -0.397,0 -0.817,0 -1.25,0 l 0,-132.109096 c 0.112,0 0.23,0 0.337,0 -2.91,-1.5515 -5.798,-3.1777 -8.67,-4.8691 l 0,4.8691 c 2.437,0 4.592,0 6.397,0 l 0,126.241096 c -1.702,-3.166 -4.536,-5.706 -8.086,-6.747 -4.439,-8.713 -13.09,-14.217 -22.808,-14.584 -0.168,-2.02 -0.282,-4.008 -0.282,-5.91 l -1.5,0 c 0,1.902 -0.113,3.889 -0.282,5.91 -9.688,0.368 -18.361,5.865 -22.803,14.559 l 0.029,0.014 c -3.29,0.954 -5.966,3.197 -7.703,6.031 l 0,-125.514096 c 1.716,0 3.731,0 5.979,0 l 0,-4.8691 c -2.871,1.6914 -5.759,3.3176 -8.669,4.8691 0.239,0 0.493,0 0.753,0 l 0,130.575096 c -0.092,0.508 -0.159,1.019 -0.197,1.534 -0.51,0 -1.008,0 -1.469,0 -15.25,0 -20.75,-30.859 -20.75,-69.109 0,-34.443 6.893,-57.933696 17.21,-62.269596 0.371,-0.1562 1.26,-0.6238 1.766,-0.8867 12.583,-6.5442 24.774,-14.3184 36.886,-23.5227 12.598,9.5727 25.281,17.5989 38.401,24.3051 z m -21.056,-0.6262 c 2.216,0 4.297,0 6.248,0 l 0,-6.0332 c -2.09,-1.2558 -4.174,-2.5359 -6.248,-3.8613 l 0,9.8945 z m -8.185,0 c 2.152,0 4.239,0 6.247,0 l 0,-11.1191 c -2.09,-1.3613 -4.172,-2.7586 -6.247,-4.1961 l 0,15.3152 z m -8.198,0 4.777,0 c 0.498,0 0.991,0 1.484,0 l 0,-16.6836 c -2.093,-1.4765 -4.181,-2.9793 -6.261,-4.5339 l 0,21.2175 z m -18.307,-9.8945 c -2.074,1.3254 -4.158,2.6055 -6.248,3.8613 l 0,6.0332 c 1.95,0 4.033,0 6.248,0 l 0,-9.8945 z m 8.185,-5.4207 c -2.075,1.4375 -4.158,2.8355 -6.248,4.1973 l 0,11.1179 c 2.009,0 4.096,0 6.248,0 l 0,-15.3152 z m 8.184,-5.893 c -2.076,1.552 -4.159,3.052 -6.248,4.5246 l 0,16.6836 c 0.495,0 0.986,0 1.485,0 l 4.763,0 0,-21.2082 z m -24.115,158.070296 c -0.336,-1.972 -0.742,-4.462 -0.227,-6.441 0.743,-2.859 3.862,-4.1 6.54,-3.075 3.543,1.354 3.623,5.703 2.589,8.759 -0.821,-3.427 -5.408,-4.35 -7.492,-1.51 -2.003,2.73 0.021,6.704 3.402,6.704 0.706,0 1.361,-0.191 1.946,-0.499 -0.902,1.786 -1.891,3.628 -2.949,5.493 -1.987,-2.797 -3.235,-6.059 -3.809,-9.431 z m 118.419,-137.971396 c -7.39,5.1816 -15.372,8.5334 -25.506,12.028396 -23.322,-8.299896 -44.685,-19.965896 -65.809,-36.036996 4.91,-3.8196 9.816,-7.8828 14.728,-12.1934 23.14,16.5613 46.955,27.8133 76.587,36.202 z m -116.223,138.192396 c 0,-3.373 5.232,-3.373 5.232,0 0,3.373 -5.232,3.373 -5.232,0 z m -14.411,-0.603 0,3.211 c -27.818,-13.79 -46.9965,-42.478 -46.9965,-75.574 0,-18.007 5.693,-34.7 15.3496,-48.412 l 3.0203,0.682 c -9.7449,13.423 -15.5129,29.912 -15.5129,47.73 0,31.469 17.9516,58.807 44.1395,72.363 z m 123.794,-177.482796 c -2.08,2.7293 -4.976,2.7117 -7.685,0.6473 l -4.322,-3.295 10.783,-14.4035 1.778,1.3559 -4.425,5.9766 2.047,1.5605 c 2.358,1.7969 4.268,4.9527 1.824,8.1582 z m -2.657,-6.6359 -2.274,-1.7332 -4.372,5.8211 2.15,1.6386 c 2.316,1.7657 4.209,1.0828 5.375,-0.4465 1.576,-2.0679 0.63,-4.1296 -0.879,-5.28 z m -145.0109,-6.4446 0.9575,1.6098 -11.7075,6.9676 -0.9578,-1.6094 4.8938,-2.9121 -8.3789,-13.7727 1.9218,-1.1433 8.3778,13.7722 4.8933,-2.9121 z m -22.1558,17.2551 -7.5071,-8.1433 c -2.746,-3.0207 -5.3308,-2.4629 -7.2546,-0.7141 -2.3664,2.1504 -2.6399,4.4016 -0.4192,6.8445 1.1192,1.2317 2.293,2.4848 3.4492,3.7172 l 4.4969,4.8711 -1.6543,1.5039 -4.2351,-4.582 c -1.261,-1.3489 -2.3641,-2.5246 -3.3438,-3.602 -3.6894,-4.0593 -2.5351,-7.4273 0.3313,-10.034 2.5972,-2.3601 6.2566,-3.8242 10.1968,0.3946 l 7.595,8.2402 -1.6551,1.5039 z m 4.8094,-3.8223 -10.5872,-14.5488 8.061,-5.759 1.0879,1.5239 -6.2406,4.4589 9.4984,13.025 -1.8195,1.3 z m -30.6028,17.6692 c 3.1828,2.6797 7.6543,2.5359 10.3332,-0.6457 1.1399,-1.3528 1.8184,-2.6836 1.9641,-4.4309 l 1.9551,0.4231 c -0.4231,1.955 -1.0969,3.5625 -2.4868,5.2136 -3.4335,4.0766 -9.0894,4.8207 -13.3054,1.27 -4.4949,-3.7852 -4.4473,-9.2512 -1.0137,-13.3286 1.2227,-1.4507 3.0715,-2.4773 4.843,-3.1265 l 0.6433,1.6973 c -1.5371,0.575 -3.0332,1.4226 -4.0547,2.6355 -2.6796,3.1824 -2.0593,7.6133 1.1219,10.2922 z m -0.2722,16.1199 -18.9707,-3.2371 0.5792,-2.1008 6.7555,1.2227 4.0227,-6.2539 -4.0137,-5.4871 1.8223,-1.4868 10.9582,15.5493 -1.1535,1.7937 z m -6.4461,-8.7219 -3.1938,4.9641 8.4543,1.8516 0.0281,-0.0438 -5.2886,-6.7719 z m -14.709,29.599296 c 2.1836,0.734 3.3465,3.075 2.6121,5.259 -0.7332,2.184 -3.0742,3.346 -5.2578,2.612 -2.1844,-0.734 -3.3465,-3.075 -2.6133,-5.258 0.7344,-2.185 3.0754,-3.347 5.259,-2.613 z m 8.3965,-18.841496 1.6726,0.8411 -3.2344,6.4343 5.4825,2.6977 3.3164,-6.5969 1.6718,0.8406 -4.3203,8.5947 -16.1457,-7.9411 1.0168,-2.0215 7.3172,3.5625 3.2231,-6.4114 z m 121.3269,-70.3417 -9.689,0.3925 0.4,7.9731 -2.26,0.0918 -0.883,-17.9707299 2.259,-0.0918 0.434,8.1265299 9.689,-0.3922 -0.407,-8.1280799 2.261,-0.0918 0.884,17.9706799 -2.26,0.0918 -0.428,-7.9718 z m -19.855,9.7042 -5.362,0.8836 -3.08,-17.7272999 2.206,-0.3633 1.313,7.3194999 2.539,-0.4179 c 2.925,-0.4824 6.531,0.2937 7.186,4.2695 0.558,3.3863 -1.442,5.4813 -4.802,6.0359 z m 2.596,-5.6718 c -0.423,-2.5657 -2.572,-3.2918 -4.444,-2.9832 l -2.822,0.4656 1.235,7.1738 2.668,-0.4394 c 2.873,-0.4739 3.676,-2.3184 3.363,-4.2168 z m -21.941,10.7187 c -3.037,1.0039 -5.796,-0.1379 -6.669,-2.7793 -1.975,-5.9746 6.142,-6.6855 4.706,-11.0301 -0.628,-1.9003 -2.41,-2.6535 -4.409,-1.9933 -1.358,0.4492 -2.521,1.4902 -3.214,2.459 l -1.444,-1.2207 c 1.164,-1.37 2.366,-2.2879 4.243,-2.9082 3.752,-1.2403 6.312,0.5429 7.153,3.0847 1.77,5.3575 -6.193,7.0305 -4.953,10.7832 0.685,2.0735 2.666,2.4328 4.146,1.9426 1.606,-0.5305 2.422,-1.457 3.214,-2.4578 l 1.329,1.2859 c -1.114,1.2715 -2.423,2.2793 -4.102,2.834 z m 46.182,-6.5488 0.825,-17.9734399 2.233,0.12187 -0.825,17.9738699 -2.233,-0.1223 z m -75.3968,-0.8352 1.6148,-1.4617 5.0442,4.6582 6.7508,-3.1179 -0.44,-6.7844 2.335,-0.2762 0.899,19.002 -1.935,0.8933 -14.2688,-12.9133 z m 14.3388,10.6477 -0.828,-8.5535 -5.3589,2.4746 6.1399,6.1004 0.047,-0.0215 z m 71.721,-25.1249999 -1.916,16.0058999 -2.217,-0.2872 2.155,-17.8632399 9.824,1.27224 -0.24,1.8567 -7.606,-0.9844 z m 16.253,19.8085999 c -5.153,-1.3613 -8.242,-6.157 -6.834,-11.4863 1.5,-5.6817 6.463,-7.9738999 11.616,-6.6121 5.153,1.3613 8.243,6.157 6.835,11.4863 -1.501,5.6812 -6.463,7.9734 -11.617,6.6121 z m 4.304,-16.2891 c -4.022,-1.0625 -7.763,1.3914 -8.826,5.4133 -1.062,4.0223 0.979,8.0035 5.001,9.066 4.021,1.0625 7.763,-1.3914 8.825,-5.4136 1.063,-4.0215 -0.979,-8.0032 -5,-9.0657 z m 95.819,100.597896 c -2.183,0.735 -4.524,-0.427 -5.259,-2.611 -0.735,-2.183 0.427,-4.524 2.611,-5.259 2.184,-0.736 4.525,0.426 5.259,2.61 0.735,2.184 -0.427,4.525 -2.611,5.26 z m -4.53,26.46 17.889,-1.935 0.221,2.226 -17.889,1.934 -0.221,-2.225 z m 13.059,-6.061 c -6.197,1.089 -5.726,-7.046 -10.232,-6.253 -1.972,0.346 -2.975,2.001 -2.611,4.076 0.248,1.408 1.109,2.707 1.968,3.534 l -1.417,1.252 c -1.188,-1.349 -1.921,-2.671 -2.264,-4.618 -0.683,-3.892 1.451,-6.168 4.088,-6.631 5.558,-0.977 6.061,7.144 9.953,6.461 2.151,-0.378 2.792,-2.287 2.522,-3.823 -0.292,-1.665 -1.091,-2.606 -1.967,-3.535 l 1.465,-1.129 c 1.097,1.286 1.905,2.728 2.211,4.469 0.554,3.15 -0.976,5.716 -3.716,6.197 z m -36.823,95.943 6.41,4.26 0.808,-1.18 c 0.953,-1.394 0.418,-2.453 -0.144,-4.162 l -2.37,-6.758 2.103,-0.955 1.906,5.684 c 0.326,1.137 1.126,2.913 0.623,4.018 l 0.042,0.029 c 1.704,-1.89 4.25,-2.573 6.674,-0.914 2.468,1.69 2.599,4.583 0.675,7.394 l -3.069,4.484 -14.936,-10.034 1.278,-1.866 z m 13.634,9.173 1.512,-2.21 c 1.645,-2.403 0.866,-4.258 -0.721,-5.345 -2.145,-1.469 -4.103,-0.035 -5.351,1.788 l -1.263,1.846 5.823,3.921 z m -13.016,-1.597 c 1.73,1.497 2.159,3.585 0.977,5.588 l 0.039,0.034 c 1.813,-1.182 3.57,-1.107 5.242,0.339 1.513,1.309 2.418,3.88 -0.167,6.869 l -3.264,3.776 -13.712,-11.65 3.3,-3.816 c 2.312,-2.674 5.166,-3.232 7.585,-1.14 z m 3.127,13.875 1.173,-1.358 c 1.887,-2.182 1.793,-3.743 0.279,-5.052 -1.397,-1.207 -3.14,-1.1 -5.062,1.123 l -1.105,1.278 4.715,4.009 z m -6.013,-5.131 1.377,-1.593 c 1.701,-1.967 1.855,-3.895 0.204,-5.324 -1.888,-1.632 -3.588,-1.177 -5.085,0.554 l -1.717,1.986 5.221,4.377 z m 15.63,-24.115 c -4.89,-2.489 -5.004,-6.048 -3.246,-9.5 1.592,-3.128 4.495,-5.793 9.673,-3.246 l 10.023,5.014 -1.015,1.993 -9.906,-4.955 c -3.638,-1.851 -5.857,-0.414 -7.036,1.903 -1.451,2.851 -0.908,5.052 2.034,6.55 1.484,0.755 3.025,1.51 4.542,2.254 l 5.933,2.96 -1.015,1.993 -5.585,-2.784 c -1.656,-0.814 -3.105,-1.522 -4.402,-2.182 z m -41.384,35.763 6.054,3.241 5.75,-4.716 -2.134,-6.455 2.19,-0.856 5.651,18.165 -1.648,1.352 -17.058,-8.909 1.195,-1.822 z m 15.32,8.553 0.04,-0.033 -2.953,-8.069 -4.563,3.742 7.476,4.36 z m 53.984,-121.422 c 0.893,1.435 1.478,2.981 1.522,4.748 0.08,3.196 -1.813,5.506 -4.593,5.576 -6.29,0.157 -4.618,-7.817 -9.192,-7.703 -2.001,0.05 -3.238,1.537 -3.186,3.643 0.036,1.43 0.695,2.842 1.42,3.787 l -1.586,1.028 c -0.974,-1.51 -1.503,-2.926 -1.553,-4.902 -0.099,-3.951 2.35,-5.885 5.027,-5.951 5.641,-0.142 4.933,7.964 8.883,7.866 2.184,-0.055 3.102,-1.846 3.063,-3.405 -0.043,-1.69 -0.693,-2.74 -1.421,-3.788 l 1.616,-0.899 z m -17.773,25.951 14.3,1.209 0.005,-0.051 -13.751,-11.185 0.903,-1.875 17.569,1.457 -0.206,2.252 -14.173,-1.196 -0.004,0.051 13.613,11.25 -0.973,1.791 -17.491,-1.45 0.208,-2.253 z m -0.768,5.163 1.83,0.391 -1.51,7.068 6.139,1.258 1.428,-6.686 1.831,0.39 -1.433,6.713 5.985,1.225 1.472,-6.891 1.831,0.392 -1.934,9.052 -17.627,-3.606 1.988,-9.306 z m -6.775,24.522 13.613,4.551 0.016,-0.05 -10.722,-14.113 1.32,-1.61 16.728,5.563 -0.732,2.14 -13.489,-4.508 -0.017,0.049 10.574,14.145 -1.369,1.51 -16.654,-5.536 0.732,-2.141 z m -83.049,78.556 -5.649,9.691 9.338,5.734 -1.192,1.707 -10.862,-6.836 6.373,-11.338 1.992,1.042 z m -158.5866,-78.467 -7.0586,3.067 0.5532,1.32 c 0.6519,1.558 1.832,1.684 3.573,2.139 l 6.961,1.681 -0.3411,2.285 -5.8086,-1.487 c -1.1296,-0.344 -3.0562,-0.637 -3.7097,-1.66 l -0.0488,0.02 c 0.6621,2.457 -0.1473,4.967 -2.8575,6.1 -2.7578,1.156 -5.259,-0.306 -6.573,-3.448 l -2.0988,-5.012 16.5363,-7.092 0.8726,2.087 z m -7.7879,5.769 -0.8632,-2.063 -6.4551,2.759 1.0332,2.47 c 1.125,2.686 3.1055,3.041 4.8801,2.298 2.398,-1.004 2.2586,-3.425 1.405,-5.464 z m 0.8946,12.266 c 5.5078,-3.043 7.7043,4.804 11.709,2.591 1.7531,-0.968 2.164,-2.859 1.1457,-4.702 -0.6914,-1.252 -1.9297,-2.202 -3.009,-2.705 l 0.9328,-1.644 c 1.5613,0.89 2.6852,1.903 3.6402,3.633 1.9114,3.459 0.6321,6.305 -1.7117,7.6 -4.9387,2.728 -8.0527,-4.789 -11.5117,-2.879 -1.9109,1.056 -1.8984,3.069 -1.1445,4.435 0.8171,1.479 1.8789,2.11 3.0086,2.704 l -1.0184,1.543 c -1.4551,-0.859 -2.6875,-1.961 -3.5418,-3.509 -1.5473,-2.798 -0.934,-5.721 1.5008,-7.067 z m 11.9328,23.498 12.6402,-10.004 1.3711,1.768 -12.6414,10.003 3.4902,4.499 -1.4792,1.147 -8.3508,-10.765 1.4797,-1.147 3.4902,4.499 z m -6.8899,-46.456 -1.796,0.531 -2.0504,-6.93 -5.9934,1.827 1.9402,6.557 -1.7957,0.532 -1.9472,-6.582 -5.8438,1.783 1.9988,6.757 -1.7949,0.531 -2.6265,-8.876 17.2078,-5.255 2.7011,9.125 z m 14.8418,29.865 -14.9675,9.986 -1.2246,-1.87 14.9675,-9.986 1.2246,1.87 z m -21.5351,-78.444 -14.3527,-0.098 -8e-4,0.052 14.5761,10.086 -0.7558,1.939 -17.6277504,-0.092 0.03125,-2.261 14.2227004,0.097 0,-0.053 -14.4445804,-10.162 0.83204,-1.861 17.5507404,0.091 -0.0312,2.262 z m 1.8215,-13.209 c -0.5356,3.469 -2.4602,6.908 -8.177,6.105 l -11.0867004,-1.631 0.3406004,-2.21 10.959,1.611 c 4.0344,0.623 5.6934,-1.437 6.0899,-4.006 0.4875,-3.161 -0.7161,-5.083 -3.9793,-5.586 -1.645,-0.254 -3.345,-0.49 -5.0188,-0.721 l -6.5605,-0.959 0.341,-2.211 6.1746,0.9 c 1.8293,0.256 3.4258,0.475 4.8652,0.698 5.4219,0.836 6.6414,4.181 6.052,8.01 z m 29.8883,104.649 -2.7665,6.284 5.1415,5.372 6.2726,-2.622 1.0203,2.119 -17.6785,7.024 -1.4746,-1.54 7.5769,-17.69 1.9083,1.053 z m -7.3543,15.93 0.0363,0.037 7.8191,-3.561 -4.0808,-4.264 -3.7746,7.788 z m -41.1375,-83.235 18.4265,3.92 0.3594,2.048 -16.1524,10.543 -0.9746,-1.941 14.3438,-9.116 -16.4961004,-3.151 0.4934004,-2.303 z m 17.2253,-5.529 -17.9187004,1.63 -0.18282,-2.228 17.9180204,-1.63 0.1835,2.228 z m 101.035,119.367 c 0.457,-1.95 -0.669,-3.523 -2.719,-4.003 -1.393,-0.328 -2.927,-0.046 -4.024,0.417 l -0.594,-1.795 c 1.707,-0.561 3.212,-0.715 5.136,-0.264 3.848,0.903 5.1,3.761 4.488,6.368 -1.289,5.493 -8.953,2.76 -9.856,6.608 -0.499,2.126 1.003,3.465 2.522,3.822 1.645,0.386 2.825,0.022 4.023,-0.417 l 0.462,1.79 c -1.615,0.503 -3.258,0.678 -4.979,0.274 -3.113,-0.73 -4.87,-3.145 -4.234,-5.854 1.437,-6.126 8.73,-2.491 9.775,-6.946 z m -55.617,-26.247 c 1.2813,-1.537 0.9785,-3.449 -0.6394,-4.797 -1.0981,-0.915 -2.5957,-1.352 -3.7844,-1.428 l 0.2723,-1.871 c 1.7785,0.262 3.1925,0.799 4.7113,2.064 3.0347,2.53 2.8758,5.646 1.1609,7.703 -3.6125,4.334 -9.2414,-1.542 -11.7715,1.494 -1.3984,1.677 -0.6562,3.548 0.5418,4.548 1.2992,1.082 2.5168,1.285 3.7856,1.428 l -0.3899,1.807 c -1.6679,-0.273 -3.216,-0.852 -4.5742,-1.984 -2.4558,-2.048 -2.9453,-4.994 -1.164,-7.13 4.0285,-4.834 8.921,1.681 11.8515,-1.834 z m 110.671,21.664 2.233,8.875 2.161,8.573 -2.174,0.527 -4.393,-17.448 2.173,-0.527 z m -29.875,10.525 1.43,-0.008 c 1.69,-0.009 2.256,-1.052 3.342,-2.487 l 4.207,-5.794 1.982,1.186 -3.589,4.802 c -0.749,0.914 -1.754,2.583 -2.949,2.798 l 0,0.052 c 2.524,0.324 4.535,2.03 4.55,4.967 0.015,2.991 -2.289,4.745 -5.696,4.762 l -5.433,0.029 -0.25,-17.991 2.262,-0.011 0.144,7.695 z m 0.071,8.735 2.679,-0.013 c 2.912,-0.016 3.995,-1.711 3.984,-3.635 -0.012,-2.601 -2.305,-3.395 -4.515,-3.383 l -2.236,0.012 0.088,7.019 z m 49.069,-25.263 4.972,4.735 6.798,-3.015 -0.339,-6.79 2.339,-0.241 0.612,19.013 -1.949,0.864 -14.071,-13.127 1.638,-1.439 z m 12.491,12.323 0.048,-0.021 -0.7,-8.565 -5.394,2.393 6.046,6.193 z m -16.633,-10.581 5.892,17 -2.118,0.714 -5.893,-17 2.119,-0.714 z m -28.295,6.332 2.22,-0.266 1.069,7.623 7.894,8.64 -1.801,1.367 -6.87,-8.185 -4.437,9.538 -2.146,-0.87 5.14,-10.224 -1.069,-7.623 z m -63.276,-2.45 7,2.512 4.443,-5.146 1.858,1.441 -12.685,14.176 -2.006,-0.721 -1.115,-19.211 2.177,0.09 0.328,6.859 z m 0.2,10.679 0.05,0.017 5.407,-6.677 -5.555,-1.994 0.098,8.654 z m -20.7206,-27.942 -5.2344,14.683 0.0457,0.026 11.8078,-10.665 1.8687,1.024 -2.323,15.865 0.0461,0.026 9.4067,-12.397 1.74,1.37 -11.1584,14.4 -2.1203,-1.162 2.1699,-16.126 -12.0645,10.701 -2.0293,-1.112 5.7774,-17.352 2.0676,0.719 z m 50.1136,25.073 7.386,0.866 3.166,-6.015 2.137,0.983 -9.157,16.675 -2.116,-0.248 -5.426,-18.464 2.141,-0.403 1.869,6.606 z m 2.607,10.359 0.052,0.005 3.759,-7.726 -5.861,-0.688 2.05,8.409 z m 88.274,-19.395 0.045,-0.027 0.684,-17.712 2.042,-0.405 9.387,14.923 -1.926,1.187 -7.554,-12.05 -0.044,0.027 -0.819,17.642 -2.017,0.297 -9.346,-14.855 1.926,-1.188 7.622,12.161"
       inkscape:connector-curvature="0" /><path
       id="path3003"
       style="fill:#0080c9;fill-opacity:0.47058824;fill-rule:nonzero;stroke:none"
       d="m 293.1901,68.779563 c -0.71004,-1.139801 -1.43834,-2.278686 -2.17465,-3.398706 0.27669,-0.665541 0.42874,-1.403342 0.42874,-2.175099 0,-3.054902 -2.38957,-5.458098 -5.37255,-5.458098 -0.1212,0 -0.2504,0.01829 -0.37045,0.02722 -0.80035,-1.076801 -1.60411,-2.170983 -2.43075,-3.229948 0.88494,-0.290295 1.82706,-0.454594 2.8012,-0.454594 4.98383,0 9.0347,4.108837 9.0347,9.115428 0,2.090148 -0.73289,4.023658 -1.91624,5.573805 z"
       inkscape:connector-curvature="0" /><path
       id="path3005"
       style="fill:#0080c9;fill-opacity:0.47058824;fill-rule:nonzero;stroke:none"
       d="m 17.929786,68.493726 c -1.066525,-1.501097 -1.687326,-3.323245 -1.687326,-5.287968 0,-5.006591 4.077178,-9.115428 9.061897,-9.115428 0.853038,0 1.673926,0.142918 2.455916,0.370214 -0.839158,1.075888 -1.670312,2.188362 -2.483162,3.287116 -2.970454,0.01383 -5.377285,2.411314 -5.377285,5.458098 0,0.62884 0.09826,1.240757 0.285836,1.799853 -0.763721,1.155921 -1.52297,2.3131 -2.255876,3.488115 z"
       inkscape:connector-curvature="0" /><path
       id="path3007"
       style="fill:#0080c9;fill-opacity:0.47058824;fill-rule:nonzero;stroke:none"
       d="m 16.228615,39.575115 0,-18.079478 18.258182,0 0,18.079478 -18.258182,0 z m 3.644856,-3.644753 10.932786,0 0,-10.754184 -10.932786,0 0,10.754184 z"
       inkscape:connector-curvature="0" /><path
       id="path3009"
       style="fill:#0080c9;fill-opacity:0.47058824;fill-rule:nonzero;stroke:none"
       d="m 49.001555,32.049622 c -0.09387,-0.523424 -0.173788,-1.049591 -0.173788,-1.59931 0,-5.011051 4.077165,-9.119544 9.061918,-9.119544 1.31256,0 2.559148,0.28938 3.688658,0.799426 -1.312673,0.932969 -2.608311,1.888805 -3.889657,2.858361 -2.371525,0.08941 -4.341622,1.687348 -4.971261,3.916869 -1.255507,1.031754 -2.497066,2.081231 -3.71587,3.144198 z"
       inkscape:connector-curvature="0" /><path
       id="path3011"
       style="fill:#0080c9;fill-opacity:0.47058824;fill-rule:nonzero;stroke:none"
       d="m 262.31979,32.392625 c -1.17879,-1.031182 -2.36672,-2.05802 -3.57295,-3.058447 -0.49963,-2.505981 -2.65256,-4.345623 -5.26054,-4.345623 -0.0765,0 -0.15206,0 -0.22867,0 -1.22794,-0.929425 -2.46047,-1.849017 -3.71586,-2.743112 1.19708,-0.588594 2.53252,-0.914675 3.94453,-0.914675 4.98385,0 9.03471,4.108493 9.03471,9.119544 0,0.665426 -0.0675,1.313473 -0.20123,1.942313 z"
       inkscape:connector-curvature="0" /><path
       id="path3013"
       style="fill:#0080c9;fill-opacity:0.47058824;fill-rule:nonzero;stroke:none"
       d="m 276.98203,39.575115 0,-18.079478 18.25807,0 0,18.079478 -18.25807,0 z m 3.64498,-3.644753 10.93266,0 0,-10.754184 -10.93266,0 0,10.754184 z"
       inkscape:connector-curvature="0" /><path
       id="path3015"
       style="fill:#0080c9;fill-opacity:0.47058824;fill-rule:nonzero;stroke:none"
       d="m 48.778602,7.1685026 0,-18.0800486 18.25784,0 0,18.0800486 -18.25784,0 z m 3.680197,-3.6453246 10.932775,0 0,-10.75407 -10.932775,0 0,10.75407 z"
       inkscape:connector-curvature="0" /><path
       id="path3017"
       style="fill:#0080c9;fill-opacity:0.47058824;fill-rule:nonzero;stroke:none"
       d="m 88.044486,6.8102933 c -3.809629,-1.0848052 -6.631403,-4.613167 -6.631403,-8.7751691 0,-5.0065912 4.077167,-9.1154282 9.061921,-9.1154282 4.98384,0 9.030136,4.108837 9.030136,9.1154282 0,1.6248063 -0.4515,3.1571168 -1.196846,4.4876268 -3.4792,1.3139312 -6.90478,2.7520299 -10.263808,4.2875423 z M 90.475004,3.523178 c 2.97853,0 5.37281,-2.4340664 5.37281,-5.4880538 0,-3.0549026 -2.39429,-5.4580982 -5.37281,-5.4580982 -2.983906,0 -5.404591,2.4031956 -5.404591,5.4580982 0,3.0539874 2.420685,5.4880538 5.404591,5.4880538 z"
       inkscape:connector-curvature="0" /><path
       id="path3019"
       style="fill:#0080c9;fill-opacity:0.47058824;fill-rule:nonzero;stroke:none"
       d="m 113.91357,-2.4517119 0,-8.4598341 18.26618,0 0,4.7439647 c -1.22795,0.1782477 -2.44334,0.3703287 -3.66224,0.5716718 l 0,-1.6256065 -10.91529,0 0,3.8274591 c -1.23275,0.2938399 -2.46984,0.6199221 -3.68865,0.942345 z"
       inkscape:connector-curvature="0" /><path
       id="path3021"
       style="fill:#0080c9;fill-opacity:0.47058824;fill-rule:nonzero;stroke:none"
       d="m 162.81795,-7.650271 c -2.42961,-0.112161 -4.88551,-0.201457 -7.34256,-0.201457 -2.27755,0 -4.52421,0.07546 -6.77546,0.17013 1.66128,-2.072769 4.22123,-3.398706 7.0613,-3.398706 2.84921,0 5.40459,1.335312 7.05672,3.430033 z"
       inkscape:connector-curvature="0" /><path
       id="path3023"
       style="fill:#0080c9;fill-opacity:0.47058824;fill-rule:nonzero;stroke:none"
       d="m 197.35039,-2.3623028 c -1.21881,-0.3260811 -2.42961,-0.6485051 -3.66215,-0.9469174 l 0,-3.9122958 -10.9155,0 0,1.6836885 c -1.22337,-0.205459 -2.4559,-0.3929677 -3.68843,-0.5716718 l 0,-4.8020467 18.26608,0 0,8.5492432 z"
       inkscape:connector-curvature="0" /><path
       id="path3025"
       style="fill:#0080c9;fill-opacity:0.47058824;fill-rule:nonzero;stroke:none"
       d="M 223.01733,6.8688317 C 219.72106,5.3552724 216.38936,3.9305506 212.98218,2.63983 c -0.79462,-1.3630956 -1.28626,-2.9307351 -1.28626,-4.6047058 0,-5.0065912 4.07718,-9.1154282 9.06216,-9.1154282 4.98384,0 9.03471,4.108837 9.03471,9.1154282 0,4.2250009 -2.88008,7.8113295 -6.77546,8.8337075 z M 220.75808,3.523178 c 2.98298,0 5.37257,-2.4340664 5.37257,-5.4880538 0,-3.0549026 -2.38959,-5.4580982 -5.37257,-5.4580982 -2.97956,0 -5.40001,2.4031956 -5.40001,5.4580982 0,3.0539874 2.42045,5.4880538 5.40001,5.4880538 z"
       inkscape:connector-curvature="0" /><path
       id="path3027"
       style="fill:#0080c9;fill-opacity:0.47058824;fill-rule:nonzero;stroke:none"
       d="m 244.21836,7.1685026 0,-18.0800486 18.25806,0 0,18.0800486 -18.25806,0 z m 3.68042,-3.6453246 10.93381,0 0,-10.75407 -10.93381,0 0,10.75407 z"
       inkscape:connector-curvature="0" /><path
       id="path3029"
       style="fill:#0080c9;fill-opacity:0.47058824;fill-rule:nonzero;stroke:none"
       d="m 286.06247,7.1774212 c -4.98383,0 -9.06215,-4.1401653 -9.06215,-9.1467563 0,-5.0065909 4.07832,-9.1203439 9.06215,-9.1203439 4.97928,0 9.03015,4.113753 9.03015,9.1203439 0,5.006591 -4.05087,9.1467563 -9.03015,9.1467563 z m 0,-3.6587025 c 2.97843,0 5.37258,-2.4340664 5.37258,-5.4880538 0,-3.0549015 -2.39416,-5.4580969 -5.37258,-5.4580969 -2.98298,0 -5.40457,2.4031954 -5.40457,5.4580969 0,3.0539874 2.42159,5.4880538 5.40457,5.4880538 z"
       inkscape:connector-curvature="0" /><path
       id="path3031"
       style="fill:#0080c9;fill-opacity:0.47058824;fill-rule:nonzero;stroke:none"
       d="m 25.299887,7.1774212 c -4.985154,0 -9.06234,-4.1401653 -9.06234,-9.1467563 0,-5.0065909 4.077186,-9.1203439 9.06234,-9.1203439 4.979402,0 9.030158,4.113753 9.030158,9.1203439 0,5.006591 -4.050756,9.1467563 -9.030158,9.1467563 z m 0,-3.6587025 c 2.97855,0 5.37237,-2.4340664 5.37237,-5.4880538 0,-3.0549015 -2.39382,-5.4580969 -5.37237,-5.4580969 -2.984301,0 -5.404533,2.4031954 -5.404533,5.4580969 0,3.0539874 2.420232,5.4880538 5.404533,5.4880538 z"
       inkscape:connector-curvature="0" /><path
       id="path3033"
       style="fill:#0080c9;fill-opacity:0.47058824;fill-rule:nonzero;stroke:none"
       d="m 16.228615,346.2409 0,-18.07857 18.258182,0 0,18.07857 -18.258182,0 z m 3.644856,-3.64384 10.932786,0 0,-10.79088 -10.932786,0 0,10.79088 z"
       inkscape:connector-curvature="0" /><path
       id="path3035"
       style="fill:#0080c9;fill-opacity:0.47058824;fill-rule:nonzero;stroke:none"
       d="m 57.893231,346.2409 c -4.97938,0 -9.056547,-4.14005 -9.056547,-9.14675 0,-5.00671 4.077167,-9.11932 9.056547,-9.11932 4.985209,0 9.035964,4.11261 9.035964,9.11932 0,5.0067 -4.050755,9.14675 -9.035964,9.14675 z m 0,-3.65756 c 2.984357,0 5.378177,-2.43418 5.378177,-5.48919 0,-3.05502 -2.39382,-5.45719 -5.378177,-5.45719 -2.978527,0 -5.398759,2.40217 -5.398759,5.45719 0,3.05501 2.420232,5.48919 5.398759,5.48919 z"
       inkscape:connector-curvature="0" /><path
       id="path3037"
       style="fill:#0080c9;fill-opacity:0.47058824;fill-rule:nonzero;stroke:none"
       d="m 81.36392,346.2409 0,-18.07857 18.25785,0 0,18.07857 -18.25785,0 z m 3.643609,-3.64384 10.934035,0 0,-10.79088 -10.934035,0 0,10.79088 z"
       inkscape:connector-curvature="0" /><path
       id="path3039"
       style="fill:#0080c9;fill-opacity:0.47058824;fill-rule:nonzero;stroke:none"
       d="m 123.18495,346.2409 c -4.98384,0 -9.06192,-4.14005 -9.06192,-9.14675 0,-5.00671 4.07808,-9.11932 9.06192,-9.11932 4.98384,0 9.03024,4.11261 9.03024,9.11932 0,5.0067 -4.0464,9.14675 -9.03024,9.14675 z m 0,-3.65756 c 2.97852,0 5.37279,-2.43418 5.37279,-5.48919 0,-3.05502 -2.39428,-5.45719 -5.37279,-5.45719 -2.98298,0 -5.40459,2.40217 -5.40459,5.45719 0,3.05501 2.42161,5.48919 5.40459,5.48919 z"
       inkscape:connector-curvature="0" /><path
       id="path3041"
       style="fill:#0080c9;fill-opacity:0.47058824;fill-rule:nonzero;stroke:none"
       d="m 146.53443,346.2409 0,-18.07857 18.25808,0 0,18.07857 -18.25808,0 z m 3.64384,-3.64384 10.9338,0 0,-10.79088 -10.9338,0 0,10.79088 z"
       inkscape:connector-curvature="0" /><path
       id="path3043"
       style="fill:#0080c9;fill-opacity:0.47058824;fill-rule:nonzero;stroke:none"
       d="m 188.20363,346.2409 c -4.98384,0 -9.06215,-4.14005 -9.06215,-9.14675 0,-5.00671 4.07831,-9.11932 9.06215,-9.11932 4.98383,0 9.03012,4.11261 9.03012,9.11932 0,5.0067 -4.04629,9.14675 -9.03012,9.14675 z m 0,-3.65756 c 2.97956,0 5.37258,-2.43418 5.37258,-5.48919 0,-3.05502 -2.39302,-5.45719 -5.37258,-5.45719 -2.98298,0 -5.40344,2.40217 -5.40344,5.45719 0,3.05501 2.42046,5.48919 5.40344,5.48919 z"
       inkscape:connector-curvature="0" /><path
       id="path3045"
       style="fill:#0080c9;fill-opacity:0.47058824;fill-rule:nonzero;stroke:none"
       d="m 211.66964,346.2409 0,-18.07857 18.25692,0 0,18.07857 -18.25692,0 z m 3.64382,-3.64384 10.93382,0 0,-10.79088 -10.93382,0 0,10.79088 z"
       inkscape:connector-curvature="0" /><path
       id="path3047"
       style="fill:#0080c9;fill-opacity:0.47058824;fill-rule:nonzero;stroke:none"
       d="m 253.49088,346.2409 c -4.98041,0 -9.05758,-4.14005 -9.05758,-9.14675 0,-5.00671 4.07717,-9.11932 9.05758,-9.11932 4.98383,0 9.0347,4.11261 9.0347,9.11932 0,5.0067 -4.05087,9.14675 -9.0347,9.14675 z m 0,-3.65756 c 2.98298,0 5.37715,-2.43418 5.37715,-5.48919 0,-3.05502 -2.39417,-5.45719 -5.37715,-5.45719 -2.97956,0 -5.40002,2.40217 -5.40002,5.45719 0,3.05501 2.42046,5.48919 5.40002,5.48919 z"
       inkscape:connector-curvature="0" /><path
       id="path3049"
       style="fill:#0080c9;fill-opacity:0.47058824;fill-rule:nonzero;stroke:none"
       d="m 276.98203,346.2409 0,-18.07857 18.25807,0 0,18.07857 -18.25807,0 z m 3.64498,-3.64384 10.93266,0 0,-10.79088 -10.93266,0 0,10.79088 z"
       inkscape:connector-curvature="0" /><path
       id="path3051"
       style="fill:#0080c9;fill-opacity:0.47058824;fill-rule:nonzero;stroke:none"
       d="m 48.778602,313.83509 0,-18.07971 18.25784,0 0,18.07971 -18.25784,0 z m 3.680197,-3.68043 10.932775,0 0,-10.75429 -10.932775,0 0,10.75429 z"
       inkscape:connector-curvature="0" /><path
       id="path3053"
       style="fill:#0080c9;fill-opacity:0.47058824;fill-rule:nonzero;stroke:none"
       d="m 90.475004,313.82594 c -4.984754,0 -9.061921,-4.13547 -9.061921,-9.14675 0,-2.01915 0.656051,-3.88623 1.772185,-5.40002 1.117047,0.55795 2.241983,1.09418 3.372866,1.63041 -0.924967,0.97299 -1.487721,2.29126 -1.487721,3.76961 0,3.05958 2.420685,5.4892 5.404591,5.4892 2.89849,0 5.24235,-2.29584 5.3728,-5.23081 1.15581,0.46077 2.31756,0.88496 3.488126,1.3137 -0.74182,4.27383 -4.413096,7.57466 -8.860926,7.57466 z"
       inkscape:connector-curvature="0" /><path
       id="path3055"
       style="fill:#0080c9;fill-opacity:0.47058824;fill-rule:nonzero;stroke:none"
       d="m 113.91357,313.82594 0,-2.97041 c 4.43846,1.17422 8.96725,2.17464 13.54999,2.97041 l -13.54999,0 z"
       inkscape:connector-curvature="0" /><path
       id="path3057"
       style="fill:#0080c9;fill-opacity:0.47058824;fill-rule:nonzero;stroke:none"
       d="m 183.51362,313.82594 c 4.69,-0.81749 9.29426,-1.84535 13.83675,-3.05502 l 0,3.05502 -13.83675,0 z"
       inkscape:connector-curvature="0" /><path
       id="path3059"
       style="fill:#0080c9;fill-opacity:0.47058824;fill-rule:nonzero;stroke:none"
       d="m 220.75807,313.82594 c -4.47047,0 -8.19549,-3.32713 -8.91923,-7.62839 1.18794,-0.44247 2.345,-0.90668 3.51922,-1.37544 0.072,2.98756 2.46504,5.34628 5.40001,5.34628 2.98298,0 5.37258,-2.42962 5.37258,-5.4892 0,-1.52752 -0.57168,-2.87666 -1.54123,-3.85879 1.12162,-0.52708 2.23296,-1.07246 3.34542,-1.62583 1.15706,1.53207 1.85794,3.42088 1.85794,5.48462 0,5.01128 -4.05087,9.14675 -9.03471,9.14675 z"
       inkscape:connector-curvature="0" /><path
       id="path3061"
       style="fill:#0080c9;fill-opacity:0.47058824;fill-rule:nonzero;stroke:none"
       d="m 244.21836,313.83509 0,-18.07971 18.25806,0 0,18.07971 -18.25806,0 z m 3.68042,-3.68043 10.93381,0 0,-10.75429 -10.93381,0 0,10.75429 z"
       inkscape:connector-curvature="0" /><path
       id="path3063"
       style="fill:#0080c9;fill-opacity:0.47058824;fill-rule:nonzero;stroke:none"
       d="m 286.06247,313.83051 c -4.98383,0 -9.06215,-4.13662 -9.06215,-9.14675 0,-5.0067 4.07832,-9.11588 9.06215,-9.11588 4.97928,0 9.03015,4.10918 9.03015,9.11588 0,5.01013 -4.05087,9.14675 -9.03015,9.14675 z m 0,-3.6587 c 2.97843,0 5.37258,-2.43304 5.37258,-5.48805 0,-3.05501 -2.39416,-5.45833 -5.37258,-5.45833 -2.98298,0 -5.40457,2.40332 -5.40457,5.45833 0,3.05501 2.42159,5.48805 5.40457,5.48805 z"
       inkscape:connector-curvature="0" /><path
       id="path3065"
       style="fill:#0080c9;fill-opacity:0.47058824;fill-rule:nonzero;stroke:none"
       d="m 25.299887,313.83051 c -4.985154,0 -9.06234,-4.13662 -9.06234,-9.14675 0,-5.0067 4.077186,-9.11588 9.06234,-9.11588 4.979402,0 9.030158,4.10918 9.030158,9.11588 0,5.01013 -4.050756,9.14675 -9.030158,9.14675 z m 0,-3.6587 c 2.97855,0 5.37237,-2.43304 5.37237,-5.48805 0,-3.05501 -2.39382,-5.45833 -5.37237,-5.45833 -2.984301,0 -5.404533,2.40332 -5.404533,5.45833 0,3.05501 2.420232,5.48805 5.404533,5.48805 z"
       inkscape:connector-curvature="0" /><path
       id="path3067"
       style="fill:#0080c9;fill-opacity:0.47058824;fill-rule:nonzero;stroke:none"
       d="m 16.228615,281.07026 0,-18.07855 18.258182,0 0,18.07855 -18.258182,0 z m 3.644856,-3.67928 10.932786,0 0,-10.75544 -10.932786,0 0,10.75544 z"
       inkscape:connector-curvature="0" /><path
       id="path3069"
       style="fill:#0080c9;fill-opacity:0.47058824;fill-rule:nonzero;stroke:none"
       d="m 276.98203,281.07026 0,-18.07855 18.25807,0 0,18.07855 -18.25807,0 z m 3.64498,-3.67928 10.93266,0 0,-10.75544 -10.93266,0 0,10.75544 z"
       inkscape:connector-curvature="0" /><path
       id="path3071"
       style="fill:#0080c9;fill-opacity:0.47058824;fill-rule:nonzero;stroke:none"
       d="m 287.24584,248.5707 c 2.66629,-3.71587 5.16334,-7.54836 7.51634,-11.49175 0.21037,0.77289 0.34415,1.59382 0.34415,2.4296 0,4.60882 -3.43918,8.46762 -7.86049,9.06215 z"
       inkscape:connector-curvature="0" /><path
       id="path3073"
       style="fill:#0080c9;fill-opacity:0.47058824;fill-rule:nonzero;stroke:none"
       d="m 23.6742,248.48495 c -4.216975,-0.78091 -7.43174,-4.52421 -7.43174,-8.9764 0,-0.69744 0.07994,-1.37544 0.227329,-2.02829 2.263916,3.76961 4.653324,7.44545 7.204411,11.00469 z"
       inkscape:connector-curvature="0" /><path
       id="path3075"
       style="fill:#0080c9;fill-opacity:0.47058824;fill-rule:nonzero;stroke:none"
       d="m 16.228615,-25.416814 0,-18.080037 18.258182,0 0,18.080037 -18.258182,0 z m 3.644856,-3.645325 10.932786,0 0,-10.78941 -10.932786,0 0,10.78941 z"
       inkscape:connector-curvature="0" /><path
       id="path3077"
       style="fill:#0080c9;fill-opacity:0.47058824;fill-rule:nonzero;stroke:none"
       d="m 57.893231,-25.412355 c -4.97938,0 -9.056547,-4.140165 -9.056547,-9.146756 0,-5.006603 4.077167,-9.120405 9.056547,-9.120405 4.985209,0 9.035964,4.113802 9.035964,9.120405 0,5.006591 -4.050755,9.146756 -9.035964,9.146756 z m 0,-3.658702 c 2.984357,0 5.378177,-2.433151 5.378177,-5.488054 0,-3.054879 -2.39382,-5.458131 -5.378177,-5.458131 -2.978527,0 -5.398759,2.403252 -5.398759,5.458131 0,3.054903 2.420232,5.488054 5.398759,5.488054 z"
       inkscape:connector-curvature="0" /><path
       id="path3079"
       style="fill:#0080c9;fill-opacity:0.47058824;fill-rule:nonzero;stroke:none"
       d="m 81.36392,-25.416814 0,-18.080037 18.25785,0 0,18.080037 -18.25785,0 z m 3.643609,-3.645325 10.934035,0 0,-10.78941 -10.934035,0 0,10.78941 z"
       inkscape:connector-curvature="0" /><path
       id="path3081"
       style="fill:#0080c9;fill-opacity:0.47058824;fill-rule:nonzero;stroke:none"
       d="m 123.18495,-25.412355 c -4.98384,0 -9.06192,-4.140165 -9.06192,-9.146756 0,-5.006603 4.07808,-9.120405 9.06192,-9.120405 4.98384,0 9.03024,4.113802 9.03024,9.120405 0,5.006591 -4.0464,9.146756 -9.03024,9.146756 z m 0,-3.658702 c 2.97852,0 5.37279,-2.433151 5.37279,-5.488054 0,-3.054879 -2.39428,-5.458131 -5.37279,-5.458131 -2.98298,0 -5.40459,2.403252 -5.40459,5.458131 0,3.054903 2.42161,5.488054 5.40459,5.488054 z"
       inkscape:connector-curvature="0" /><path
       id="path3083"
       style="fill:#0080c9;fill-opacity:0.47058824;fill-rule:nonzero;stroke:none"
       d="m 146.53443,-25.416814 0,-18.080037 18.25808,0 0,18.080037 -18.25808,0 z m 3.64384,-3.645325 10.9338,0 0,-10.78941 -10.9338,0 0,10.78941 z"
       inkscape:connector-curvature="0" /><path
       id="path3085"
       style="fill:#0080c9;fill-opacity:0.47058824;fill-rule:nonzero;stroke:none"
       d="m 188.20363,-25.412355 c -4.98384,0 -9.06215,-4.140165 -9.06215,-9.146756 0,-5.006603 4.07831,-9.120405 9.06215,-9.120405 4.98383,0 9.03012,4.113802 9.03012,9.120405 0,5.006591 -4.04629,9.146756 -9.03012,9.146756 z m 0,-3.658702 c 2.97956,0 5.37258,-2.433151 5.37258,-5.488054 0,-3.054879 -2.39302,-5.458131 -5.37258,-5.458131 -2.98298,0 -5.40344,2.403252 -5.40344,5.458131 0,3.054903 2.42046,5.488054 5.40344,5.488054 z"
       inkscape:connector-curvature="0" /><path
       id="path3087"
       style="fill:#0080c9;fill-opacity:0.47058824;fill-rule:nonzero;stroke:none"
       d="m 211.66964,-25.416814 0,-18.080037 18.25692,0 0,18.080037 -18.25692,0 z m 3.64382,-3.645325 10.93382,0 0,-10.78941 -10.93382,0 0,10.78941 z"
       inkscape:connector-curvature="0" /><path
       id="path3089"
       style="fill:#0080c9;fill-opacity:0.47058824;fill-rule:nonzero;stroke:none"
       d="m 253.49088,-25.412355 c -4.98041,0 -9.05758,-4.140165 -9.05758,-9.146756 0,-5.006603 4.07717,-9.120405 9.05758,-9.120405 4.98383,0 9.0347,4.113802 9.0347,9.120405 0,5.006591 -4.05087,9.146756 -9.0347,9.146756 z m 0,-3.658702 c 2.98298,0 5.37715,-2.433151 5.37715,-5.488054 0,-3.054879 -2.39417,-5.458131 -5.37715,-5.458131 -2.97956,0 -5.40002,2.403252 -5.40002,5.458131 0,3.054903 2.42046,5.488054 5.40002,5.488054 z"
       inkscape:connector-curvature="0" /><path
       id="path3091"
       style="fill:#0080c9;fill-opacity:0.47058824;fill-rule:nonzero;stroke:none"
       d="m 276.98203,-25.416814 0,-18.080037 18.25807,0 0,18.080037 -18.25807,0 z m 3.64498,-3.645325 10.93266,0 0,-10.78941 -10.93266,0 0,10.78941 z"
       inkscape:connector-curvature="0" /></g></svg>