<?xml version="1.0" encoding="UTF-8" standalone="no"?>
<!-- Created with Inkscape (http://www.inkscape.org/) -->

<svg
   xmlns:dc="http://purl.org/dc/elements/1.1/"
   xmlns:cc="http://creativecommons.org/ns#"
   xmlns:rdf="http://www.w3.org/1999/02/22-rdf-syntax-ns#"
   xmlns:svg="http://www.w3.org/2000/svg"
   xmlns="http://www.w3.org/2000/svg"
   xmlns:sodipodi="http://sodipodi.sourceforge.net/DTD/sodipodi-0.dtd"
   xmlns:inkscape="http://www.inkscape.org/namespaces/inkscape"
   id="svg2"
   version="1.1"
   inkscape:version="0.48.5 r10040"
   width="369.65347"
   height="487.40051"
   xml:space="preserve"
   sodipodi:docname="fibeamer-mu-fss-dark.svg"><metadata
     id="metadata8"><rdf:RDF><cc:Work
         rdf:about=""><dc:format>image/svg+xml</dc:format><dc:type
           rdf:resource="http://purl.org/dc/dcmitype/StillImage" /><dc:title></dc:title></cc:Work></rdf:RDF></metadata><defs
     id="defs6" /><sodipodi:namedview
     pagecolor="#ffffff"
     bordercolor="#666666"
     borderopacity="1"
     objecttolerance="10"
     gridtolerance="10"
     guidetolerance="10"
     inkscape:pageopacity="0"
     inkscape:pageshadow="2"
     inkscape:window-width="1280"
     inkscape:window-height="751"
     id="namedview4"
     showgrid="false"
     fit-margin-top="0"
     fit-margin-left="0"
     fit-margin-right="0"
     fit-margin-bottom="0"
     inkscape:zoom="0.85630196"
     inkscape:cx="90.38441"
     inkscape:cy="178.55898"
     inkscape:window-x="0"
     inkscape:window-y="29"
     inkscape:window-maximized="1"
     inkscape:current-layer="g10" /><g
     id="g10"
     inkscape:groupmode="layer"
     inkscape:label="ink_ext_XXXXXX"
     transform="matrix(1.25,0,0,-1.25,-10.030275,432.80113)"><path
       id="path3003"
       style="fill:#ffffff;fill-opacity:0.74509805;fill-rule:nonzero;stroke:none"
       d="m 293.1901,68.779563 c -0.71004,-1.139801 -1.43834,-2.278686 -2.17465,-3.398706 0.27669,-0.665541 0.42874,-1.403342 0.42874,-2.175099 0,-3.054902 -2.38957,-5.458098 -5.37255,-5.458098 -0.1212,0 -0.2504,0.01829 -0.37045,0.02722 -0.80035,-1.076801 -1.60411,-2.170983 -2.43075,-3.229948 0.88494,-0.290295 1.82706,-0.454594 2.8012,-0.454594 4.98383,0 9.0347,4.108837 9.0347,9.115428 0,2.090148 -0.73289,4.023658 -1.91624,5.573805 z"
       inkscape:connector-curvature="0" /><path
       id="path3005"
       style="fill:#ffffff;fill-opacity:0.74509805;fill-rule:nonzero;stroke:none"
       d="m 17.929786,68.493726 c -1.066525,-1.501097 -1.687326,-3.323245 -1.687326,-5.287968 0,-5.006591 4.077178,-9.115428 9.061897,-9.115428 0.853038,0 1.673926,0.142918 2.455916,0.370214 -0.839158,1.075888 -1.670312,2.188362 -2.483162,3.287116 -2.970454,0.01383 -5.377285,2.411314 -5.377285,5.458098 0,0.62884 0.09826,1.240757 0.285836,1.799853 -0.763721,1.155921 -1.52297,2.3131 -2.255876,3.488115 z"
       inkscape:connector-curvature="0" /><path
       id="path3007"
       style="fill:#ffffff;fill-opacity:0.74509805;fill-rule:nonzero;stroke:none"
       d="m 16.228615,39.575115 0,-18.079478 18.258182,0 0,18.079478 -18.258182,0 z m 3.644856,-3.644753 10.932786,0 0,-10.754184 -10.932786,0 0,10.754184 z"
       inkscape:connector-curvature="0" /><path
       id="path3009"
       style="fill:#ffffff;fill-opacity:0.74509805;fill-rule:nonzero;stroke:none"
       d="m 49.001555,32.049622 c -0.09387,-0.523424 -0.173788,-1.049591 -0.173788,-1.59931 0,-5.011051 4.077165,-9.119544 9.061918,-9.119544 1.31256,0 2.559148,0.28938 3.688658,0.799426 -1.312673,0.932969 -2.608311,1.888805 -3.889657,2.858361 -2.371525,0.08941 -4.341622,1.687348 -4.971261,3.916869 -1.255507,1.031754 -2.497066,2.081231 -3.71587,3.144198 z"
       inkscape:connector-curvature="0" /><path
       id="path3011"
       style="fill:#ffffff;fill-opacity:0.74509805;fill-rule:nonzero;stroke:none"
       d="m 262.31979,32.392625 c -1.17879,-1.031182 -2.36672,-2.05802 -3.57295,-3.058447 -0.49963,-2.505981 -2.65256,-4.345623 -5.26054,-4.345623 -0.0765,0 -0.15206,0 -0.22867,0 -1.22794,-0.929425 -2.46047,-1.849017 -3.71586,-2.743112 1.19708,-0.588594 2.53252,-0.914675 3.94453,-0.914675 4.98385,0 9.03471,4.108493 9.03471,9.119544 0,0.665426 -0.0675,1.313473 -0.20123,1.942313 z"
       inkscape:connector-curvature="0" /><path
       id="path3013"
       style="fill:#ffffff;fill-opacity:0.74509805;fill-rule:nonzero;stroke:none"
       d="m 276.98203,39.575115 0,-18.079478 18.25807,0 0,18.079478 -18.25807,0 z m 3.64498,-3.644753 10.93266,0 0,-10.754184 -10.93266,0 0,10.754184 z"
       inkscape:connector-curvature="0" /><path
       id="path3015"
       style="fill:#ffffff;fill-opacity:0.74509805;fill-rule:nonzero;stroke:none"
       d="m 48.778602,7.1685026 0,-18.0800486 18.25784,0 0,18.0800486 -18.25784,0 z m 3.680197,-3.6453246 10.932775,0 0,-10.75407 -10.932775,0 0,10.75407 z"
       inkscape:connector-curvature="0" /><path
       id="path3017"
       style="fill:#ffffff;fill-opacity:0.74509805;fill-rule:nonzero;stroke:none"
       d="m 88.044486,6.8102933 c -3.809629,-1.0848052 -6.631403,-4.613167 -6.631403,-8.7751691 0,-5.0065912 4.077167,-9.1154282 9.061921,-9.1154282 4.98384,0 9.030136,4.108837 9.030136,9.1154282 0,1.6248063 -0.4515,3.1571168 -1.196846,4.4876268 -3.4792,1.3139312 -6.90478,2.7520299 -10.263808,4.2875423 z M 90.475004,3.523178 c 2.97853,0 5.37281,-2.4340664 5.37281,-5.4880538 0,-3.0549026 -2.39429,-5.4580982 -5.37281,-5.4580982 -2.983906,0 -5.404591,2.4031956 -5.404591,5.4580982 0,3.0539874 2.420685,5.4880538 5.404591,5.4880538 z"
       inkscape:connector-curvature="0" /><path
       id="path3019"
       style="fill:#ffffff;fill-opacity:0.74509805;fill-rule:nonzero;stroke:none"
       d="m 113.91357,-2.4517119 0,-8.4598341 18.26618,0 0,4.7439647 c -1.22795,0.1782477 -2.44334,0.3703287 -3.66224,0.5716718 l 0,-1.6256065 -10.91529,0 0,3.8274591 c -1.23275,0.2938399 -2.46984,0.6199221 -3.68865,0.942345 z"
       inkscape:connector-curvature="0" /><path
       id="path3021"
       style="fill:#ffffff;fill-opacity:0.74509805;fill-rule:nonzero;stroke:none"
       d="m 162.81795,-7.650271 c -2.42961,-0.112161 -4.88551,-0.201457 -7.34256,-0.201457 -2.27755,0 -4.52421,0.07546 -6.77546,0.17013 1.66128,-2.072769 4.22123,-3.398706 7.0613,-3.398706 2.84921,0 5.40459,1.335312 7.05672,3.430033 z"
       inkscape:connector-curvature="0" /><path
       id="path3023"
       style="fill:#ffffff;fill-opacity:0.74509805;fill-rule:nonzero;stroke:none"
       d="m 197.35039,-2.3623028 c -1.21881,-0.3260811 -2.42961,-0.6485051 -3.66215,-0.9469174 l 0,-3.9122958 -10.9155,0 0,1.6836885 c -1.22337,-0.205459 -2.4559,-0.3929677 -3.68843,-0.5716718 l 0,-4.8020467 18.26608,0 0,8.5492432 z"
       inkscape:connector-curvature="0" /><path
       id="path3025"
       style="fill:#ffffff;fill-opacity:0.74509805;fill-rule:nonzero;stroke:none"
       d="M 223.01733,6.8688317 C 219.72106,5.3552724 216.38936,3.9305506 212.98218,2.63983 c -0.79462,-1.3630956 -1.28626,-2.9307351 -1.28626,-4.6047058 0,-5.0065912 4.07718,-9.1154282 9.06216,-9.1154282 4.98384,0 9.03471,4.108837 9.03471,9.1154282 0,4.2250009 -2.88008,7.8113295 -6.77546,8.8337075 z M 220.75808,3.523178 c 2.98298,0 5.37257,-2.4340664 5.37257,-5.4880538 0,-3.0549026 -2.38959,-5.4580982 -5.37257,-5.4580982 -2.97956,0 -5.40001,2.4031956 -5.40001,5.4580982 0,3.0539874 2.42045,5.4880538 5.40001,5.4880538 z"
       inkscape:connector-curvature="0" /><path
       id="path3027"
       style="fill:#ffffff;fill-opacity:0.74509805;fill-rule:nonzero;stroke:none"
       d="m 244.21836,7.1685026 0,-18.0800486 18.25806,0 0,18.0800486 -18.25806,0 z m 3.68042,-3.6453246 10.93381,0 0,-10.75407 -10.93381,0 0,10.75407 z"
       inkscape:connector-curvature="0" /><path
       id="path3029"
       style="fill:#ffffff;fill-opacity:0.74509805;fill-rule:nonzero;stroke:none"
       d="m 286.06247,7.1774212 c -4.98383,0 -9.06215,-4.1401653 -9.06215,-9.1467563 0,-5.0065909 4.07832,-9.1203439 9.06215,-9.1203439 4.97928,0 9.03015,4.113753 9.03015,9.1203439 0,5.006591 -4.05087,9.1467563 -9.03015,9.1467563 z m 0,-3.6587025 c 2.97843,0 5.37258,-2.4340664 5.37258,-5.4880538 0,-3.0549015 -2.39416,-5.4580969 -5.37258,-5.4580969 -2.98298,0 -5.40457,2.4031954 -5.40457,5.4580969 0,3.0539874 2.42159,5.4880538 5.40457,5.4880538 z"
       inkscape:connector-curvature="0" /><path
       id="path3031"
       style="fill:#ffffff;fill-opacity:0.74509805;fill-rule:nonzero;stroke:none"
       d="m 25.299887,7.1774212 c -4.985154,0 -9.06234,-4.1401653 -9.06234,-9.1467563 0,-5.0065909 4.077186,-9.1203439 9.06234,-9.1203439 4.979402,0 9.030158,4.113753 9.030158,9.1203439 0,5.006591 -4.050756,9.1467563 -9.030158,9.1467563 z m 0,-3.6587025 c 2.97855,0 5.37237,-2.4340664 5.37237,-5.4880538 0,-3.0549015 -2.39382,-5.4580969 -5.37237,-5.4580969 -2.984301,0 -5.404533,2.4031954 -5.404533,5.4580969 0,3.0539874 2.420232,5.4880538 5.404533,5.4880538 z"
       inkscape:connector-curvature="0" /><path
       id="path3033"
       style="fill:#ffffff;fill-opacity:0.74509805;fill-rule:nonzero;stroke:none"
       d="m 16.228615,346.2409 0,-18.07857 18.258182,0 0,18.07857 -18.258182,0 z m 3.644856,-3.64384 10.932786,0 0,-10.79088 -10.932786,0 0,10.79088 z"
       inkscape:connector-curvature="0" /><path
       id="path3035"
       style="fill:#ffffff;fill-opacity:0.74509805;fill-rule:nonzero;stroke:none"
       d="m 57.893231,346.2409 c -4.97938,0 -9.056547,-4.14005 -9.056547,-9.14675 0,-5.00671 4.077167,-9.11932 9.056547,-9.11932 4.985209,0 9.035964,4.11261 9.035964,9.11932 0,5.0067 -4.050755,9.14675 -9.035964,9.14675 z m 0,-3.65756 c 2.984357,0 5.378177,-2.43418 5.378177,-5.48919 0,-3.05502 -2.39382,-5.45719 -5.378177,-5.45719 -2.978527,0 -5.398759,2.40217 -5.398759,5.45719 0,3.05501 2.420232,5.48919 5.398759,5.48919 z"
       inkscape:connector-curvature="0" /><path
       id="path3037"
       style="fill:#ffffff;fill-opacity:0.74509805;fill-rule:nonzero;stroke:none"
       d="m 81.36392,346.2409 0,-18.07857 18.25785,0 0,18.07857 -18.25785,0 z m 3.643609,-3.64384 10.934035,0 0,-10.79088 -10.934035,0 0,10.79088 z"
       inkscape:connector-curvature="0" /><path
       id="path3039"
       style="fill:#ffffff;fill-opacity:0.74509805;fill-rule:nonzero;stroke:none"
       d="m 123.18495,346.2409 c -4.98384,0 -9.06192,-4.14005 -9.06192,-9.14675 0,-5.00671 4.07808,-9.11932 9.06192,-9.11932 4.98384,0 9.03024,4.11261 9.03024,9.11932 0,5.0067 -4.0464,9.14675 -9.03024,9.14675 z m 0,-3.65756 c 2.97852,0 5.37279,-2.43418 5.37279,-5.48919 0,-3.05502 -2.39428,-5.45719 -5.37279,-5.45719 -2.98298,0 -5.40459,2.40217 -5.40459,5.45719 0,3.05501 2.42161,5.48919 5.40459,5.48919 z"
       inkscape:connector-curvature="0" /><path
       id="path3041"
       style="fill:#ffffff;fill-opacity:0.74509805;fill-rule:nonzero;stroke:none"
       d="m 146.53443,346.2409 0,-18.07857 18.25808,0 0,18.07857 -18.25808,0 z m 3.64384,-3.64384 10.9338,0 0,-10.79088 -10.9338,0 0,10.79088 z"
       inkscape:connector-curvature="0" /><path
       id="path3043"
       style="fill:#ffffff;fill-opacity:0.74509805;fill-rule:nonzero;stroke:none"
       d="m 188.20363,346.2409 c -4.98384,0 -9.06215,-4.14005 -9.06215,-9.14675 0,-5.00671 4.07831,-9.11932 9.06215,-9.11932 4.98383,0 9.03012,4.11261 9.03012,9.11932 0,5.0067 -4.04629,9.14675 -9.03012,9.14675 z m 0,-3.65756 c 2.97956,0 5.37258,-2.43418 5.37258,-5.48919 0,-3.05502 -2.39302,-5.45719 -5.37258,-5.45719 -2.98298,0 -5.40344,2.40217 -5.40344,5.45719 0,3.05501 2.42046,5.48919 5.40344,5.48919 z"
       inkscape:connector-curvature="0" /><path
       id="path3045"
       style="fill:#ffffff;fill-opacity:0.74509805;fill-rule:nonzero;stroke:none"
       d="m 211.66964,346.2409 0,-18.07857 18.25692,0 0,18.07857 -18.25692,0 z m 3.64382,-3.64384 10.93382,0 0,-10.79088 -10.93382,0 0,10.79088 z"
       inkscape:connector-curvature="0" /><path
       id="path3047"
       style="fill:#ffffff;fill-opacity:0.74509805;fill-rule:nonzero;stroke:none"
       d="m 253.49088,346.2409 c -4.98041,0 -9.05758,-4.14005 -9.05758,-9.14675 0,-5.00671 4.07717,-9.11932 9.05758,-9.11932 4.98383,0 9.0347,4.11261 9.0347,9.11932 0,5.0067 -4.05087,9.14675 -9.0347,9.14675 z m 0,-3.65756 c 2.98298,0 5.37715,-2.43418 5.37715,-5.48919 0,-3.05502 -2.39417,-5.45719 -5.37715,-5.45719 -2.97956,0 -5.40002,2.40217 -5.40002,5.45719 0,3.05501 2.42046,5.48919 5.40002,5.48919 z"
       inkscape:connector-curvature="0" /><path
       id="path3049"
       style="fill:#ffffff;fill-opacity:0.74509805;fill-rule:nonzero;stroke:none"
       d="m 276.98203,346.2409 0,-18.07857 18.25807,0 0,18.07857 -18.25807,0 z m 3.64498,-3.64384 10.93266,0 0,-10.79088 -10.93266,0 0,10.79088 z"
       inkscape:connector-curvature="0" /><path
       id="path3051"
       style="fill:#ffffff;fill-opacity:0.74509805;fill-rule:nonzero;stroke:none"
       d="m 48.778602,313.83509 0,-18.07971 18.25784,0 0,18.07971 -18.25784,0 z m 3.680197,-3.68043 10.932775,0 0,-10.75429 -10.932775,0 0,10.75429 z"
       inkscape:connector-curvature="0" /><path
       id="path3053"
       style="fill:#ffffff;fill-opacity:0.74509805;fill-rule:nonzero;stroke:none"
       d="m 90.475004,313.82594 c -4.984754,0 -9.061921,-4.13547 -9.061921,-9.14675 0,-2.01915 0.656051,-3.88623 1.772185,-5.40002 1.117047,0.55795 2.241983,1.09418 3.372866,1.63041 -0.924967,0.97299 -1.487721,2.29126 -1.487721,3.76961 0,3.05958 2.420685,5.4892 5.404591,5.4892 2.89849,0 5.24235,-2.29584 5.3728,-5.23081 1.15581,0.46077 2.31756,0.88496 3.488126,1.3137 -0.74182,4.27383 -4.413096,7.57466 -8.860926,7.57466 z"
       inkscape:connector-curvature="0" /><path
       id="path3055"
       style="fill:#ffffff;fill-opacity:0.74509805;fill-rule:nonzero;stroke:none"
       d="m 113.91357,313.82594 0,-2.97041 c 4.43846,1.17422 8.96725,2.17464 13.54999,2.97041 l -13.54999,0 z"
       inkscape:connector-curvature="0" /><path
       id="path3057"
       style="fill:#ffffff;fill-opacity:0.74509805;fill-rule:nonzero;stroke:none"
       d="m 183.51362,313.82594 c 4.69,-0.81749 9.29426,-1.84535 13.83675,-3.05502 l 0,3.05502 -13.83675,0 z"
       inkscape:connector-curvature="0" /><path
       id="path3059"
       style="fill:#ffffff;fill-opacity:0.74509805;fill-rule:nonzero;stroke:none"
       d="m 220.75807,313.82594 c -4.47047,0 -8.19549,-3.32713 -8.91923,-7.62839 1.18794,-0.44247 2.345,-0.90668 3.51922,-1.37544 0.072,2.98756 2.46504,5.34628 5.40001,5.34628 2.98298,0 5.37258,-2.42962 5.37258,-5.4892 0,-1.52752 -0.57168,-2.87666 -1.54123,-3.85879 1.12162,-0.52708 2.23296,-1.07246 3.34542,-1.62583 1.15706,1.53207 1.85794,3.42088 1.85794,5.48462 0,5.01128 -4.05087,9.14675 -9.03471,9.14675 z"
       inkscape:connector-curvature="0" /><path
       id="path3061"
       style="fill:#ffffff;fill-opacity:0.74509805;fill-rule:nonzero;stroke:none"
       d="m 244.21836,313.83509 0,-18.07971 18.25806,0 0,18.07971 -18.25806,0 z m 3.68042,-3.68043 10.93381,0 0,-10.75429 -10.93381,0 0,10.75429 z"
       inkscape:connector-curvature="0" /><path
       id="path3063"
       style="fill:#ffffff;fill-opacity:0.74509805;fill-rule:nonzero;stroke:none"
       d="m 286.06247,313.83051 c -4.98383,0 -9.06215,-4.13662 -9.06215,-9.14675 0,-5.0067 4.07832,-9.11588 9.06215,-9.11588 4.97928,0 9.03015,4.10918 9.03015,9.11588 0,5.01013 -4.05087,9.14675 -9.03015,9.14675 z m 0,-3.6587 c 2.97843,0 5.37258,-2.43304 5.37258,-5.48805 0,-3.05501 -2.39416,-5.45833 -5.37258,-5.45833 -2.98298,0 -5.40457,2.40332 -5.40457,5.45833 0,3.05501 2.42159,5.48805 5.40457,5.48805 z"
       inkscape:connector-curvature="0" /><path
       id="path3065"
       style="fill:#ffffff;fill-opacity:0.74509805;fill-rule:nonzero;stroke:none"
       d="m 25.299887,313.83051 c -4.985154,0 -9.06234,-4.13662 -9.06234,-9.14675 0,-5.0067 4.077186,-9.11588 9.06234,-9.11588 4.979402,0 9.030158,4.10918 9.030158,9.11588 0,5.01013 -4.050756,9.14675 -9.030158,9.14675 z m 0,-3.6587 c 2.97855,0 5.37237,-2.43304 5.37237,-5.48805 0,-3.05501 -2.39382,-5.45833 -5.37237,-5.45833 -2.984301,0 -5.404533,2.40332 -5.404533,5.45833 0,3.05501 2.420232,5.48805 5.404533,5.48805 z"
       inkscape:connector-curvature="0" /><path
       id="path3067"
       style="fill:#ffffff;fill-opacity:0.74509805;fill-rule:nonzero;stroke:none"
       d="m 16.228615,281.07026 0,-18.07855 18.258182,0 0,18.07855 -18.258182,0 z m 3.644856,-3.67928 10.932786,0 0,-10.75544 -10.932786,0 0,10.75544 z"
       inkscape:connector-curvature="0" /><path
       id="path3069"
       style="fill:#ffffff;fill-opacity:0.74509805;fill-rule:nonzero;stroke:none"
       d="m 276.98203,281.07026 0,-18.07855 18.25807,0 0,18.07855 -18.25807,0 z m 3.64498,-3.67928 10.93266,0 0,-10.75544 -10.93266,0 0,10.75544 z"
       inkscape:connector-curvature="0" /><path
       id="path3071"
       style="fill:#ffffff;fill-opacity:0.74509805;fill-rule:nonzero;stroke:none"
       d="m 287.24584,248.5707 c 2.66629,-3.71587 5.16334,-7.54836 7.51634,-11.49175 0.21037,0.77289 0.34415,1.59382 0.34415,2.4296 0,4.60882 -3.43918,8.46762 -7.86049,9.06215 z"
       inkscape:connector-curvature="0" /><path
       id="path3073"
       style="fill:#ffffff;fill-opacity:0.74509805;fill-rule:nonzero;stroke:none"
       d="m 23.6742,248.48495 c -4.216975,-0.78091 -7.43174,-4.52421 -7.43174,-8.9764 0,-0.69744 0.07994,-1.37544 0.227329,-2.02829 2.263916,3.76961 4.653324,7.44545 7.204411,11.00469 z"
       inkscape:connector-curvature="0" /><path
       id="path3075"
       style="fill:#ffffff;fill-opacity:0.74509805;fill-rule:nonzero;stroke:none"
       d="m 16.228615,-25.416814 0,-18.080037 18.258182,0 0,18.080037 -18.258182,0 z m 3.644856,-3.645325 10.932786,0 0,-10.78941 -10.932786,0 0,10.78941 z"
       inkscape:connector-curvature="0" /><path
       id="path3077"
       style="fill:#ffffff;fill-opacity:0.74509805;fill-rule:nonzero;stroke:none"
       d="m 57.893231,-25.412355 c -4.97938,0 -9.056547,-4.140165 -9.056547,-9.146756 0,-5.006603 4.077167,-9.120405 9.056547,-9.120405 4.985209,0 9.035964,4.113802 9.035964,9.120405 0,5.006591 -4.050755,9.146756 -9.035964,9.146756 z m 0,-3.658702 c 2.984357,0 5.378177,-2.433151 5.378177,-5.488054 0,-3.054879 -2.39382,-5.458131 -5.378177,-5.458131 -2.978527,0 -5.398759,2.403252 -5.398759,5.458131 0,3.054903 2.420232,5.488054 5.398759,5.488054 z"
       inkscape:connector-curvature="0" /><path
       id="path3079"
       style="fill:#ffffff;fill-opacity:0.74509805;fill-rule:nonzero;stroke:none"
       d="m 81.36392,-25.416814 0,-18.080037 18.25785,0 0,18.080037 -18.25785,0 z m 3.643609,-3.645325 10.934035,0 0,-10.78941 -10.934035,0 0,10.78941 z"
       inkscape:connector-curvature="0" /><path
       id="path3081"
       style="fill:#ffffff;fill-opacity:0.74509805;fill-rule:nonzero;stroke:none"
       d="m 123.18495,-25.412355 c -4.98384,0 -9.06192,-4.140165 -9.06192,-9.146756 0,-5.006603 4.07808,-9.120405 9.06192,-9.120405 4.98384,0 9.03024,4.113802 9.03024,9.120405 0,5.006591 -4.0464,9.146756 -9.03024,9.146756 z m 0,-3.658702 c 2.97852,0 5.37279,-2.433151 5.37279,-5.488054 0,-3.054879 -2.39428,-5.458131 -5.37279,-5.458131 -2.98298,0 -5.40459,2.403252 -5.40459,5.458131 0,3.054903 2.42161,5.488054 5.40459,5.488054 z"
       inkscape:connector-curvature="0" /><path
       id="path3083"
       style="fill:#ffffff;fill-opacity:0.74509805;fill-rule:nonzero;stroke:none"
       d="m 146.53443,-25.416814 0,-18.080037 18.25808,0 0,18.080037 -18.25808,0 z m 3.64384,-3.645325 10.9338,0 0,-10.78941 -10.9338,0 0,10.78941 z"
       inkscape:connector-curvature="0" /><path
       id="path3085"
       style="fill:#ffffff;fill-opacity:0.74509805;fill-rule:nonzero;stroke:none"
       d="m 188.20363,-25.412355 c -4.98384,0 -9.06215,-4.140165 -9.06215,-9.146756 0,-5.006603 4.07831,-9.120405 9.06215,-9.120405 4.98383,0 9.03012,4.113802 9.03012,9.120405 0,5.006591 -4.04629,9.146756 -9.03012,9.146756 z m 0,-3.658702 c 2.97956,0 5.37258,-2.433151 5.37258,-5.488054 0,-3.054879 -2.39302,-5.458131 -5.37258,-5.458131 -2.98298,0 -5.40344,2.403252 -5.40344,5.458131 0,3.054903 2.42046,5.488054 5.40344,5.488054 z"
       inkscape:connector-curvature="0" /><path
       id="path3087"
       style="fill:#ffffff;fill-opacity:0.74509805;fill-rule:nonzero;stroke:none"
       d="m 211.66964,-25.416814 0,-18.080037 18.25692,0 0,18.080037 -18.25692,0 z m 3.64382,-3.645325 10.93382,0 0,-10.78941 -10.93382,0 0,10.78941 z"
       inkscape:connector-curvature="0" /><path
       id="path3089"
       style="fill:#ffffff;fill-opacity:0.74509805;fill-rule:nonzero;stroke:none"
       d="m 253.49088,-25.412355 c -4.98041,0 -9.05758,-4.140165 -9.05758,-9.146756 0,-5.006603 4.07717,-9.120405 9.05758,-9.120405 4.98383,0 9.0347,4.113802 9.0347,9.120405 0,5.006591 -4.05087,9.146756 -9.0347,9.146756 z m 0,-3.658702 c 2.98298,0 5.37715,-2.433151 5.37715,-5.488054 0,-3.054879 -2.39417,-5.458131 -5.37715,-5.458131 -2.97956,0 -5.40002,2.403252 -5.40002,5.458131 0,3.054903 2.42046,5.488054 5.40002,5.488054 z"
       inkscape:connector-curvature="0" /><path
       id="path3091"
       style="fill:#ffffff;fill-opacity:0.74509805;fill-rule:nonzero;stroke:none"
       d="m 276.98203,-25.416814 0,-18.080037 18.25807,0 0,18.080037 -18.25807,0 z m 3.64498,-3.645325 10.93266,0 0,-10.78941 -10.93266,0 0,10.78941 z"
       inkscape:connector-curvature="0" /><g
       transform="translate(8.60582,4.0672468)"
       inkscape:label="fithesis-med-white"
       id="g5224"><g
         transform="scale(0.1,0.1)"
         id="g5226"><path
           id="path5228"
           style="fill:#ffffff;fill-opacity:1;fill-rule:nonzero;stroke:none"
           d="m 259.141,830.762 c 21.558,12.578 48.949,5.359 61.48,-16.211 12.578,-21.563 5.359,-48.942 -16.211,-61.52 -21.558,-12.582 -48.941,-5.351 -61.519,16.207 -12.539,21.563 -5.313,48.953 16.25,61.524 z m 198.711,-139.84 61.636,-73.871 -14.367,-11.992 -47.312,56.679 -47.258,-38.75 46.168,-55.269 -14.379,-12 -45.969,55.082 -63.172,-51.36 -14.488,17.379 139.141,114.102 z m 125.117,-137.5 15.511,-14.652 -69.218,-177.192 -21.25,10.082 25.859,62.852 -54.031,51.136 -62.649,-28.046 -10.671,19.019 176.449,76.801 z m -6.559,-21.723 -0.39,0.391 -77.622,-38.199 42.852,-40.59 35.16,78.398 z M 769.77,368.578 c -5.79,16.524 -15.711,27.731 -30.122,37.934 -33.949,24.097 -77.578,14.25 -101.636,-19.692 -24.063,-33.91 -18.953,-78.359 14.957,-102.422 12.972,-9.179 29.57,-13.636 45.902,-15.359 L 696.879,251 c -18.789,1.828 -39.258,7.148 -54.731,18.121 -43.476,30.82 -57.66,83.641 -23.668,131.57 31.911,44.918 88.508,51.95 131.989,21.09 17.621,-12.461 28.16,-26.332 37.191,-44.222 l -17.89,-8.981 z m 187.421,-67.969 -51.492,-99.531 c -26.828,-51.098 -66.008,-46.68 -97.258,-30.75 -34.57,17.543 -54.613,47 -29.73,95.902 6.598,12.969 14.141,27.231 22.738,43.559 l 28.75,55.391 19.922,-10.16 -30.512,-58.829 c -7.89,-14.961 -15.898,-30.152 -23.437,-44.961 -14.961,-29.449 -6.402,-50.429 22.109,-64.921 23.199,-11.797 49.571,-10.348 68.09,26.062 l 50.899,98.348 19.921,-10.11 z m -9.57,-189.14 61.289,169.14 21.05,-7.418 -55.038,-151.531 72.348,-25.4686 -6.25,-17.6523 -93.399,32.9299 z m 153.749,135.972 132.26,-32.613 -4.49,-18.207 -55.27,13.641 -40.08,-156.1409 -21.76,5.3477 40.16,156.1402 -55.31,13.629 4.49,18.203 z m 205.74,-42.691 21.13,-2.66 49.03,-183.7892 -23.09,-4.4492 -16.37,65.9765 -73.75,9.25 -33.94,-59.6797 -19.85,9.0625 96.84,166.2891 z m 7.54,-21.371 -0.55,0.043 -40,-76.723 58.56,-7.3396 -18.01,84.0196 z M 1433.48,40.4492 c 9.61,-7.0273 23.9,-13.2773 38.24,-13.2773 21.05,-0.043 35.62,12.6992 35.62,32.7265 0.04,45.7496 -79.29,27.0704 -79.22,89.9996 0,27.821 22.66,47.313 54.61,47.274 17.7,0 33.29,-5.473 47.86,-14.063 l -8.6,-16.371 c -10.66,7.032 -21.33,13.282 -38.2,13.282 -15.63,0 -33.32,-9.61 -33.32,-31.442 -0.04,-39.5 80.82,-30.469 80.78,-86.8788 -0.04,-26.8008 -18.75,-51.71873 -58.28,-51.71873 -19.77,0.03903 -34.02,4.96093 -49.38,14.33983 l 9.89,16.1289 z m 249.18,166.6798 22.57,5 85.79,-136.5587 24.41,160.8597 23.63,5.23 66.68,-169.5311 -20.54,-8.2773 -55.51,145.3864 -0.51,-0.117 -22.23,-158.7929 -20.78,-4.6093 -83.44,135.5112 -0.5,-0.109 9.06,-155.6327 -21.88,-1.0899 -6.75,182.7306 z m 225.04,58.519 86.28,33.473 6.8,-17.461 -65.7,-25.469 21.64,-57.152 63.98,24.813 6.76,-17.422 -63.75,-24.77 22.19,-58.59 67.38,26.129 6.76,-17.418 -88.71,-34.4529 -63.63,168.3199 z m 130.19,52.543 47.42,26.008 c 60.86,33.36 106.29,8.442 127.39,-30.121 29.37,-53.547 4.96,-102.539 -46.14,-130.539 l -43.51,-23.867 -85.16,158.519 z m 96.49,-132.742 20.97,11.52 c 44.92,24.609 62.11,61.922 38.36,105.242 -21.72,39.687 -61.6,48.051 -103.79,24.918 l -24.18,-13.238 68.64,-128.442 z m 76.71,235.16 18.29,12.852 101.91,-148.32 -18.32,-12.813 -101.88,148.281 z m 184.96,111.871 c -17.42,-1.679 -30.66,-8.671 -44.02,-20.269 -31.41,-27.231 -32.23,-71.949 -4.96,-103.402 27.27,-31.438 71.64,-36.989 103.09,-9.77 11.95,10.402 20.23,25.473 25.74,40.941 l 17.07,-6.21 c -6.21,-17.77 -16.21,-36.399 -30.55,-48.872 -40.31,-34.878 -94.96,-36.168 -133.44,8.25 -36.09,41.641 -29.49,98.321 10.79,133.204 16.32,14.136 32.26,21.128 51.79,25.617 l 4.49,-19.489 z m 53.44,99.571 13.99,16.058 179.92,-61.757 -9.18,-21.68 -63.91,23.238 -48.83,-56.09 30.63,-61.492 -18.56,-11.398 -84.06,173.121 z m 21.96,-5.66 -0.36,-0.43 41.41,-75.981 38.75,44.532 -79.8,31.879 z m 180.5,125.507 c -21.56,12.614 -28.75,40 -16.17,61.524 12.62,21.558 40,28.75 61.56,16.168 21.53,-12.578 28.71,-39.961 16.14,-61.52 -12.58,-21.558 -39.96,-28.75 -61.53,-16.172 z M 65.5117,1060.8 171.328,1097.64 c 54.613,18.63 80,-11.52 91.762,-44.57 13,-36.49 7.301,-71.64 -44.379,-90.039 C 205,958.148 189.73,952.949 172.27,947.012 l -58.95,-20.434 -7.5,21.063 62.621,21.757 c 16.008,5.43 32.258,10.93 47.93,16.524 31.09,11.047 39.289,32.228 28.59,62.338 -8.75,24.5 -28.91,41.61 -67.34,27.89 l -104.6093,-36.44 -7.5,21.09 z m -16.9219,79.26 -11.3984,16.88 124.4886,125.27 -0.121,0.51 -139.8402,-25.78 -4.2579,22.22 173.3981,31.68 10.821,-17.77 -125.9417,-124.77 0.1211,-0.51 141.1716,26.02 4.219,-22.23 -172.6602,-31.52 z m -38.2812,216.45 -1.78907,22.26 179.44947,13.01 1.801,-22.31 -179.4614,-12.96 z M 8.39844,1435.1 0,1457.13 l 158.238,56.25 -155.65988,68.24 6.6836,20.67 175.69928,-79.57 -0.43,-20.78 L 8.39844,1435.1 z m 5.66016,225.51 13.3203,91.6 18.5195,-2.74 -10.1601,-69.68 60.3906,-9.34 9.8911,67.93 18.55,-2.69 -9.879,-67.66 61.95,-9.57 10.39,71.56 18.52,-2.69 -13.672,-94.18 -177.8204,27.46 z m 27.0703,159.41 14.1797,52.42 c 8.9531,32.89 31.8008,50.67 60.6714,42.85 28.36,-7.69 39.68,-31.48 36.321,-56.71 l 0.508,-0.12 c 5.16,10.98 23.871,16.41 34.613,21.33 l 55.629,22.34 6.359,-22.19 -66.789,-25.82 c -16.641,-6.79 -28.172,-9.61 -32.621,-25.9 l -3.711,-13.82 73.981,-21.14 -5.891,-21.79 -173.2501,48.55 z m 88.5191,-1.37 5.864,21.57 c 5.777,21.32 3.976,45.54 -21.133,52.34 -18.5587,5.04 -37.7384,-1.09 -45.3595,-29.22 l -6.9883,-25.82 67.6168,-18.87 z M 237.34,1942.6 c 10.121,6.29 21.289,17.19 26.64,30.43 7.93,19.53 1.571,37.81 -16.992,45.31 -42.379,17.19 -54.84,-63.36 -113.16,-39.72 -25.777,10.46 -35.3475,38.75 -23.316,68.39 6.636,16.37 17.539,28.79 30.968,39.07 l 11.961,-14.11 c -10.511,-7.26 -20.32,-14.76 -26.64,-30.46 -5.86,-14.46 -3.602,-34.46 16.64,-42.62 36.637,-14.88 58.547,63.48 110.86,42.3 24.801,-10.04 40.929,-36.79 26.09,-73.4 -7.422,-18.32 -17.379,-29.72 -31.801,-40.42 l -11.25,15.23 z m -76.789,205.74 10.187,19.92 159.492,-83.28 -10.191,-19.92 -159.488,83.28 z m 35.969,70.28 72.968,115.03 15.821,-10.03 -30.508,-48.09 135.277,-87.66 -11.988,-18.86 -135.281,87.65 -30.508,-48.08 -15.781,10.04 z m 130.671,189.45 13.43,16.56 182,-55.43 -8.441,-21.95 -64.692,20.94 -46.789,-57.78 32.77,-60.31 -18.168,-12.07 -90.11,170.04 z m 22.149,-4.88 -0.32,-0.43 44.031,-74.5 37.179,45.86 -80.89,29.07 z m 182.07,6.05 c 11.789,1.6 26.399,7.03 36.711,16.95 15.199,14.61 16.84,33.87 2.969,48.28 -31.711,33.01 -75.891,-35.46 -119.531,9.89 -19.258,20.04 -16.481,49.76 6.562,71.95 12.738,12.27 27.777,19.14 44.219,23.05 l 5.16,-17.78 c -12.539,-2.3 -24.57,-5.19 -36.719,-16.95 -11.25,-10.78 -17.34,-30 -2.191,-45.7 27.39,-28.48 79.379,34.14 118.48,-6.56 18.551,-19.3 22.379,-50.24 -6.09,-77.66 -14.261,-13.67 -28.011,-20.04 -45.55,-23.95 l -4.02,18.48 z m 111.289,295.08 19.723,12.11 125.668,-101.06 -29.5,160.04 20.629,12.66 118.441,-138.48 -16.719,-14.49 -99.961,119.26 -0.468,-0.28 30.898,-157.34 -18.172,-11.13 -123.078,100.78 -0.469,-0.27 59.411,-144.11 -20.313,-8.2 -66.09,170.51 z m 278.75,148.36 19.762,7.97 132.069,-136.96 -18.05,-15.07 -46.32,49.76 -69.031,-27.73 -0.699,-68.64 -21.719,-1.72 3.988,192.39 z m 16.949,-15.04 -0.468,-0.2 2.23,-86.48 54.762,21.95 -56.524,64.73 z m 161.992,-83.32 c 11.09,-4.34 26.49,-6.76 40.35,-3.13 20.35,5.32 31.21,21.33 26.14,40.71 -11.57,44.25 -83.56,6.05 -99.5,66.95 -7.03,26.87 9.92,51.48 40.86,59.61 17.07,4.45 33.56,3.12 49.81,-1.49 l -4.14,-18 c -12.07,4.1 -23.99,7.42 -40.32,3.12 -15.11,-3.94 -29.76,-17.73 -24.25,-38.87 10.04,-38.2 85.93,-8.9 100.23,-63.51 6.8,-25.9 -5,-54.81 -43.24,-64.81 -19.1,-5 -34.18,-3.82 -51.41,1.33 l 5.47,18.09 z m 175.66,193.47 21.18,2.78 93.82,-165.43 -21.21,-10.16 -32.5,59.73 -73.71,-9.69 -17.77,-66.33 -21.48,3.75 51.67,185.35 z m 12.74,-18.78 -0.55,-0.04 -19.33,-84.38 58.51,7.7 -38.63,76.72 z m 138.55,32.73 54.34,-0.16 c 34.02,-0.11 57.11,-17.61 57.03,-47.5 -0.08,-29.37 -20.16,-46.48 -45.43,-49.76 l 0,-0.55 c 11.99,-2.11 22.07,-18.79 29.57,-27.93 l 36.02,-47.93 -19.81,-11.91 -42.18,57.89 c -10.9,14.3 -16.57,24.73 -33.48,24.76 l -14.3,0.08 -1.29,-76.99 -22.61,0.08 2.14,179.92 z m 21.57,-85.86 22.34,-0.08 c 22.11,-0.08 45,7.93 45.08,33.95 0.08,19.22 -10.78,36.13 -39.92,36.25 l -26.76,0.08 -0.74,-70.2 z m 193.67,-26.91 -50.43,102.73 21.56,8.52 43.44,-95.82 69.49,81.21 17.89,-13.83 -79.76,-85.66 -11.41,-76.14 -22.19,2.89 11.41,76.1 z m 160.7,77.81 21.64,-5.74 -23.44,-85.24 -24.21,-88.24 -21.61,5.7 47.62,173.52 z m -1.8,-90.98 110.04,66.02 11.57,-17.31 -94.57,-55.35 54.41,-98.08 -20.12,-10 -61.33,114.72 z m 183.64,36.45 20.93,-7.81 -64.49,-168.01 -20.94,7.85 64.5,167.97 z m 141.76,-60.51 19.1,-9.49 -14.57,-189.69 -23.29,3.44 6.41,67.69 -66.56,33.13 -51.8,-45.08 -15.7,15.08 146.41,124.92 z m 0.03,-22.7 -0.46,0.24 -63.17,-59.14 52.85,-26.33 10.78,85.23 z m 132.7,-54.41 19.96,-4.1 -1.64,-176.6 0.43,-0.31 82.15,116.13 18.55,-12.93 -102.03,-143.75 -20.15,5.15 3,177.23 -0.43,0.27 -82.85,-117.14 -18.55,12.93 101.56,143.12 z m 221.17,-166.25 15.59,-14.57 -68.56,-177.46 -21.29,10 25.63,62.97 -54.22,50.9 -62.58,-28.28 -10.7,18.98 176.13,77.46 z m -6.44,-21.72 -0.39,0.35 -77.5,-38.47 43,-40.39 34.89,78.51 z m 174.21,-161.13 29.11,-40.59 c 23,-32.11 11.68,-56.87 -4.57,-68.55 -17.97,-12.85 -35.55,-12.03 -52.54,1.37 l -0.39,-0.28 c 9.96,-21.01 3.79,-41.44 -14.81,-54.76 -25.97,-18.64 -53.9,-10.51 -74.49,18.24 l -29.41,40.98 147.1,103.59 z m -120,-111.99 15.32,-21.33 c 13.36,-18.59 29.84,-24.69 50.15,-10.12 17.74,12.74 17.93,32.07 2.78,53.2 l -12.27,17.11 -55.98,-38.86 z m 69.93,48.86 9.84,-13.75 c 17.11,-23.86 34.38,-26.52 49.38,-15.74 16.28,11.64 18.63,27.11 1.83,50.55 l -10.47,14.61 -50.58,-35.67 z m 149.45,-83.12 25.94,-47.77 c 16.25,-29.93 11.99,-58.6 -14.3,-72.86 -25.82,-14.02 -50.47,-4.61 -65.47,15.94 l -0.43,-0.23 c 3.87,-11.53 -5.9,-28.36 -10.31,-39.34 l -24.77,-54.57 -19.96,11.64 30.47,64.81 c 7.38,16.4 13.79,26.4 5.74,41.25 l -6.83,12.57 -68.13,-35.82 -10.78,19.89 158.83,84.49 z m -64.96,-60.16 10.66,-19.65 c 10.55,-19.41 28.56,-35.66 51.41,-23.28 16.87,9.18 26.52,26.88 12.66,52.43 l -12.78,23.55 -61.95,-33.05 z m 202.69,-245.58 -105.31,-38.32 c -54.33,-19.38 -80.15,10.43 -92.34,43.32 -13.52,36.33 -8.28,71.56 43.12,90.66 13.67,5.08 28.87,10.43 46.25,16.64 l 58.67,21.25 7.82,-20.97 -62.35,-22.62 c -15.93,-5.63 -32.11,-11.37 -47.73,-17.15 -30.94,-11.52 -38.87,-32.77 -27.7,-62.73 9.07,-24.38 29.46,-41.22 67.7,-27 l 104.1,37.85 7.77,-20.93 z m 18.01,-79.07 11.68,-16.71 -122.81,-126.92 0.12,-0.51 139.49,27.66 4.57,-22.19 -172.97,-33.98 -11.05,17.62 124.21,126.44 -0.11,0.51 -140.78,-27.93 -4.57,22.15 172.22,33.86 z m 41.8,-216.32 6.76,-92.31 -18.68,-1.37 -5.11,70.28 -60.98,-3.95 5,-68.47 -18.67,-1.37 -5,68.2 -62.54,-4.02 5.27,-72.11 -18.67,-1.37 -6.91,94.92 179.53,11.57 z m 4.22,-161.8 7.03,-19.14 -151.1,-91.49 -0.03,-0.5 141.95,-8.83 -1.25,-22.58 -175.94,11.21 -6.17,19.88 152.34,90.59 0.04,0.51 -143.28,8.9 1.25,22.58 175.16,-11.13 z M 2784.92,1286.9 c -8.63,-8.17 -17.38,-21.06 -20,-35.12 -3.87,-20.7 5.98,-37.34 25.67,-41.02 44.96,-8.39 41.13,72.97 102.96,61.45 27.35,-5.12 42.39,-30.9 36.49,-62.34 -3.2,-17.39 -11.45,-31.72 -22.58,-44.46 l -14.49,11.45 c 8.83,9.18 16.91,18.51 20.04,35.11 2.85,15.36 -3.36,34.5 -24.85,38.48 -38.82,7.27 -44.72,-73.91 -100.19,-63.55 -26.33,4.92 -47.42,27.89 -40.16,66.75 3.6,19.42 11.1,32.58 23.09,45.94 l 14.02,-12.69 z m 116.25,-186.33 -6.01,-21.56 -172.89,49.88 6.01,21.52 172.89,-49.84 z m -170.58,-37.15 c -9.97,-6.52 -20.86,-17.7 -25.9,-31.09 -7.42,-19.69 -0.63,-37.818 18.12,-44.889 42.81,-16.089 53.24,64.689 112.11,42.539 26.06,-9.8 36.33,-37.851 25.04,-67.769 -6.21,-16.563 -16.84,-29.223 -30,-39.84 l -12.26,13.777 c 10.31,7.543 19.92,15.321 25.85,31.141 5.51,14.57 2.74,34.531 -17.73,42.221 -36.95,13.91 -56.95,-64.959 -109.73,-45.069 -25.07,9.45 -41.83,35.739 -27.93,72.729 7,18.48 16.64,30.12 30.79,41.17 l 11.64,-14.92 z M 499.34,900.801 c 83.82,120.469 163.32,299.529 228.941,517.889 7.969,-32.3 18.789,-76.09 18.789,-76.09 18.789,-78.71 41.129,-172.42 69.809,-270.66 C 763.949,946.898 699.691,827.129 622.93,732.25 L 499.34,900.801 z m 1961.01,9.097 c -92.5,136.492 -179.41,344.032 -247.81,596.642 l -27.31,110.43 c -83.32,349.34 -238.43,999.57 -702.26,999.57 -90.35,0 -169.02,-24.68 -237.66,-66.99 22.46,4.57 47.81,7.27 76.57,7.27 171.4,0 295.19,-93.83 429.92,-321.6 143.75,-242.97 196.95,-488.83 238.9,-664.65 l 28.75,-116.29 c 62.27,-229.77 164.89,-522.069 317.97,-715.202 l 122.93,170.82 z M 1624.53,2371.39 c -90,104.33 -191.25,157.07 -302.65,157.07 -71.68,0 -129.77,-18.05 -169.93,-52.42 -150.07,-146.1 -242.028,-382.97 -304.02,-597.31 48.629,-118.79 87.269,-240.58 117.07,-349.41 l 10.23,41.25 c 65.47,274.61 201.8,845.97 507.74,845.97 51.91,0 98.91,-16.48 141.56,-45.15 z m 707.81,-130.59 c -75.93,-94.49 -139.64,-213.4 -192.14,-337.42 28.67,-98.24 51.01,-191.99 69.8,-270.7 0,0 10.82,-43.79 18.79,-76.1 65.16,216.76 143.94,394.81 227.11,515.28 L 2332.34,2240.8 z M 1805.12,499.238 c 150.08,146.09 241.99,382.973 303.98,597.302 -48.59,118.79 -87.22,240.59 -117.07,349.42 l -10.19,-41.25 c -65.47,-274.57 -201.8,-845.94 -507.74,-845.94 -51.87,0 -98.9,16.492 -141.56,45.121 90,-104.34 191.25,-157.071 302.66,-157.071 71.68,0 129.72,18.078 169.92,52.418 z M 495.59,2067.01 c 92.93,-136.44 180.269,-344.64 248.98,-598.28 l 27.27,-110.39 c 83.32,-349.33 238.43,-999.57 702.26,-999.57 90.35,0 169.02,24.652 237.7,66.992 -22.5,-4.614 -47.85,-7.301 -76.6,-7.301 -171.45,0 -295.2,93.828 -429.93,321.598 -143.71,242.972 -196.95,488.831 -238.899,664.651 L 937.621,1521 C 875.27,1751.19 772.34,2044.12 618.789,2237.25 L 495.59,2067.01 z m 1038.79,-760.19 c 95.54,32.3 201.13,72.54 201.13,193.59 0,113.32 -105.86,140.31 -216.29,159.77 -0.27,-24.61 -0.55,-49.57 -0.86,-74.85 85.51,-16.87 137.15,-36.75 137.15,-84.92 0,-65.9 -52.74,-93.2 -153.56,-127.3 -0.35,-0.08 -0.66,-0.2 -0.97,-0.32 l 6.13,545.16 c 85.59,47.74 165.04,115.04 165.04,252.46 0,97.7 -78.36,163.32 -195,163.32 -49.92,0 -105,-10 -145,-50 -62.58,-19.33 -75,-83.32 -81.64,-153.32 -0.9,-9.1 1.83,-19.69 8.32,-30 7.26,-11.52 46.68,75.39 56.68,73.32 7.97,-1.6 -8.36,-38.32 -13.36,-80 10.27,1.37 24.88,6.06 28.36,16.68 25,76.68 45,55 58.32,116.68 26.68,20 64.8,26.64 88.32,26.64 60.43,0 116.68,-14.49 116.68,-83.32 0,-124.45 -95.55,-170.51 -194.96,-219.22 -89.34,-43.79 -188.36,-95.74 -188.36,-202.46 0,-108.98 117.69,-130.94 227.3,-149.18 -0.39,25.55 -0.78,50.74 -1.13,75.47 -79.22,16.21 -127.03,35.78 -127.03,80.39 0,59.73 51.21,89.34 138.83,132.35 l 7.97,-530.51 c -72.19,-26.76 -139.3,-62.85 -139.3,-140.16 0,-84.3 65.9,-111.44 128.28,-123.94 -0.35,23.28 -0.7,47.42 -1.09,72.38 -37.31,9.84 -47.19,23.36 -47.19,51.56 0,26.17 21.91,43.99 60.51,61.13 l 4.8,-320.392 c -49.8,-27.027 -91.95,-64.797 -91.95,-139.058 0,-49.45 27.65,-100.43 76.64,-126.68 17.07,-9.141 29.26,1.25 5,31.64 -30,37.7 -37.5,54.848 -37.5,95.86 0,27.109 19.14,47.738 48.9,66.449 l 1.1,-74.18 c 0.15,-8.211 6.83,-14.808 15.04,-14.769 8.2,0 14.84,6.601 14.96,14.851 l 1.05,91.868 c 9.92,5 20.47,9.921 31.45,14.921 57.89,26.372 120,52.149 120,130.04 0,80.39 -71.02,95.55 -133.63,104.53 -0.28,-24.33 -0.55,-48.04 -0.82,-70.7 50.31,-7.97 64.45,-15.55 64.45,-33.83 0,-29.61 -18.48,-45.82 -78.91,-73.36 -0.58,-0.269 -1.17,-0.539 -1.76,-0.781 l 3.64,320.271 c 10.74,3.87 22.11,7.82 34.26,11.92 z m -87.47,691.64 c 22.47,11.99 43.29,24.49 61.49,38.59 l 0.98,80.2 c 14.76,6.68 24.45,17.54 24.45,29.84 0,20.24 -26.13,36.68 -58.32,36.68 -32.23,0 -58.36,-16.44 -58.36,-36.68 0,-13.24 11.21,-24.8 27.89,-31.25 l 1.87,-117.38"
           inkscape:connector-curvature="0" /></g></g></g></svg>