<?xml version="1.0" encoding="UTF-8" standalone="no"?>
<!-- Created with Inkscape (http://www.inkscape.org/) -->

<svg
   xmlns:dc="http://purl.org/dc/elements/1.1/"
   xmlns:cc="http://creativecommons.org/ns#"
   xmlns:rdf="http://www.w3.org/1999/02/22-rdf-syntax-ns#"
   xmlns:svg="http://www.w3.org/2000/svg"
   xmlns="http://www.w3.org/2000/svg"
   xmlns:sodipodi="http://sodipodi.sourceforge.net/DTD/sodipodi-0.dtd"
   xmlns:inkscape="http://www.inkscape.org/namespaces/inkscape"
   id="svg2"
   version="1.1"
   inkscape:version="0.48.5 r10040"
   width="369.65347"
   height="487.40051"
   xml:space="preserve"
   sodipodi:docname="fibeamer-mu-sci-dark.pdf"><metadata
     id="metadata8"><rdf:RDF><cc:Work
         rdf:about=""><dc:format>image/svg+xml</dc:format><dc:type
           rdf:resource="http://purl.org/dc/dcmitype/StillImage" /><dc:title></dc:title></cc:Work></rdf:RDF></metadata><defs
     id="defs6" /><sodipodi:namedview
     pagecolor="#ffffff"
     bordercolor="#666666"
     borderopacity="1"
     objecttolerance="10"
     gridtolerance="10"
     guidetolerance="10"
     inkscape:pageopacity="0"
     inkscape:pageshadow="2"
     inkscape:window-width="1280"
     inkscape:window-height="751"
     id="namedview4"
     showgrid="false"
     fit-margin-top="0"
     fit-margin-left="0"
     fit-margin-right="0"
     fit-margin-bottom="0"
     inkscape:zoom="0.85630196"
     inkscape:cx="90.38441"
     inkscape:cy="178.55898"
     inkscape:window-x="0"
     inkscape:window-y="29"
     inkscape:window-maximized="1"
     inkscape:current-layer="g10" /><g
     id="g10"
     inkscape:groupmode="layer"
     inkscape:label="ink_ext_XXXXXX"
     transform="matrix(1.25,0,0,-1.25,-10.030275,432.80113)"><path
       id="path3003"
       style="fill:#ffffff;fill-opacity:0.74509805;fill-rule:nonzero;stroke:none"
       d="m 293.1901,68.779563 c -0.71004,-1.139801 -1.43834,-2.278686 -2.17465,-3.398706 0.27669,-0.665541 0.42874,-1.403342 0.42874,-2.175099 0,-3.054902 -2.38957,-5.458098 -5.37255,-5.458098 -0.1212,0 -0.2504,0.01829 -0.37045,0.02722 -0.80035,-1.076801 -1.60411,-2.170983 -2.43075,-3.229948 0.88494,-0.290295 1.82706,-0.454594 2.8012,-0.454594 4.98383,0 9.0347,4.108837 9.0347,9.115428 0,2.090148 -0.73289,4.023658 -1.91624,5.573805 z"
       inkscape:connector-curvature="0" /><path
       id="path3005"
       style="fill:#ffffff;fill-opacity:0.74509805;fill-rule:nonzero;stroke:none"
       d="m 17.929786,68.493726 c -1.066525,-1.501097 -1.687326,-3.323245 -1.687326,-5.287968 0,-5.006591 4.077178,-9.115428 9.061897,-9.115428 0.853038,0 1.673926,0.142918 2.455916,0.370214 -0.839158,1.075888 -1.670312,2.188362 -2.483162,3.287116 -2.970454,0.01383 -5.377285,2.411314 -5.377285,5.458098 0,0.62884 0.09826,1.240757 0.285836,1.799853 -0.763721,1.155921 -1.52297,2.3131 -2.255876,3.488115 z"
       inkscape:connector-curvature="0" /><path
       id="path3007"
       style="fill:#ffffff;fill-opacity:0.74509805;fill-rule:nonzero;stroke:none"
       d="m 16.228615,39.575115 0,-18.079478 18.258182,0 0,18.079478 -18.258182,0 z m 3.644856,-3.644753 10.932786,0 0,-10.754184 -10.932786,0 0,10.754184 z"
       inkscape:connector-curvature="0" /><path
       id="path3009"
       style="fill:#ffffff;fill-opacity:0.74509805;fill-rule:nonzero;stroke:none"
       d="m 49.001555,32.049622 c -0.09387,-0.523424 -0.173788,-1.049591 -0.173788,-1.59931 0,-5.011051 4.077165,-9.119544 9.061918,-9.119544 1.31256,0 2.559148,0.28938 3.688658,0.799426 -1.312673,0.932969 -2.608311,1.888805 -3.889657,2.858361 -2.371525,0.08941 -4.341622,1.687348 -4.971261,3.916869 -1.255507,1.031754 -2.497066,2.081231 -3.71587,3.144198 z"
       inkscape:connector-curvature="0" /><path
       id="path3011"
       style="fill:#ffffff;fill-opacity:0.74509805;fill-rule:nonzero;stroke:none"
       d="m 262.31979,32.392625 c -1.17879,-1.031182 -2.36672,-2.05802 -3.57295,-3.058447 -0.49963,-2.505981 -2.65256,-4.345623 -5.26054,-4.345623 -0.0765,0 -0.15206,0 -0.22867,0 -1.22794,-0.929425 -2.46047,-1.849017 -3.71586,-2.743112 1.19708,-0.588594 2.53252,-0.914675 3.94453,-0.914675 4.98385,0 9.03471,4.108493 9.03471,9.119544 0,0.665426 -0.0675,1.313473 -0.20123,1.942313 z"
       inkscape:connector-curvature="0" /><path
       id="path3013"
       style="fill:#ffffff;fill-opacity:0.74509805;fill-rule:nonzero;stroke:none"
       d="m 276.98203,39.575115 0,-18.079478 18.25807,0 0,18.079478 -18.25807,0 z m 3.64498,-3.644753 10.93266,0 0,-10.754184 -10.93266,0 0,10.754184 z"
       inkscape:connector-curvature="0" /><path
       id="path3015"
       style="fill:#ffffff;fill-opacity:0.74509805;fill-rule:nonzero;stroke:none"
       d="m 48.778602,7.1685026 0,-18.0800486 18.25784,0 0,18.0800486 -18.25784,0 z m 3.680197,-3.6453246 10.932775,0 0,-10.75407 -10.932775,0 0,10.75407 z"
       inkscape:connector-curvature="0" /><path
       id="path3017"
       style="fill:#ffffff;fill-opacity:0.74509805;fill-rule:nonzero;stroke:none"
       d="m 88.044486,6.8102933 c -3.809629,-1.0848052 -6.631403,-4.613167 -6.631403,-8.7751691 0,-5.0065912 4.077167,-9.1154282 9.061921,-9.1154282 4.98384,0 9.030136,4.108837 9.030136,9.1154282 0,1.6248063 -0.4515,3.1571168 -1.196846,4.4876268 -3.4792,1.3139312 -6.90478,2.7520299 -10.263808,4.2875423 z M 90.475004,3.523178 c 2.97853,0 5.37281,-2.4340664 5.37281,-5.4880538 0,-3.0549026 -2.39429,-5.4580982 -5.37281,-5.4580982 -2.983906,0 -5.404591,2.4031956 -5.404591,5.4580982 0,3.0539874 2.420685,5.4880538 5.404591,5.4880538 z"
       inkscape:connector-curvature="0" /><path
       id="path3019"
       style="fill:#ffffff;fill-opacity:0.74509805;fill-rule:nonzero;stroke:none"
       d="m 113.91357,-2.4517119 0,-8.4598341 18.26618,0 0,4.7439647 c -1.22795,0.1782477 -2.44334,0.3703287 -3.66224,0.5716718 l 0,-1.6256065 -10.91529,0 0,3.8274591 c -1.23275,0.2938399 -2.46984,0.6199221 -3.68865,0.942345 z"
       inkscape:connector-curvature="0" /><path
       id="path3021"
       style="fill:#ffffff;fill-opacity:0.74509805;fill-rule:nonzero;stroke:none"
       d="m 162.81795,-7.650271 c -2.42961,-0.112161 -4.88551,-0.201457 -7.34256,-0.201457 -2.27755,0 -4.52421,0.07546 -6.77546,0.17013 1.66128,-2.072769 4.22123,-3.398706 7.0613,-3.398706 2.84921,0 5.40459,1.335312 7.05672,3.430033 z"
       inkscape:connector-curvature="0" /><path
       id="path3023"
       style="fill:#ffffff;fill-opacity:0.74509805;fill-rule:nonzero;stroke:none"
       d="m 197.35039,-2.3623028 c -1.21881,-0.3260811 -2.42961,-0.6485051 -3.66215,-0.9469174 l 0,-3.9122958 -10.9155,0 0,1.6836885 c -1.22337,-0.205459 -2.4559,-0.3929677 -3.68843,-0.5716718 l 0,-4.8020467 18.26608,0 0,8.5492432 z"
       inkscape:connector-curvature="0" /><path
       id="path3025"
       style="fill:#ffffff;fill-opacity:0.74509805;fill-rule:nonzero;stroke:none"
       d="M 223.01733,6.8688317 C 219.72106,5.3552724 216.38936,3.9305506 212.98218,2.63983 c -0.79462,-1.3630956 -1.28626,-2.9307351 -1.28626,-4.6047058 0,-5.0065912 4.07718,-9.1154282 9.06216,-9.1154282 4.98384,0 9.03471,4.108837 9.03471,9.1154282 0,4.2250009 -2.88008,7.8113295 -6.77546,8.8337075 z M 220.75808,3.523178 c 2.98298,0 5.37257,-2.4340664 5.37257,-5.4880538 0,-3.0549026 -2.38959,-5.4580982 -5.37257,-5.4580982 -2.97956,0 -5.40001,2.4031956 -5.40001,5.4580982 0,3.0539874 2.42045,5.4880538 5.40001,5.4880538 z"
       inkscape:connector-curvature="0" /><path
       id="path3027"
       style="fill:#ffffff;fill-opacity:0.74509805;fill-rule:nonzero;stroke:none"
       d="m 244.21836,7.1685026 0,-18.0800486 18.25806,0 0,18.0800486 -18.25806,0 z m 3.68042,-3.6453246 10.93381,0 0,-10.75407 -10.93381,0 0,10.75407 z"
       inkscape:connector-curvature="0" /><path
       id="path3029"
       style="fill:#ffffff;fill-opacity:0.74509805;fill-rule:nonzero;stroke:none"
       d="m 286.06247,7.1774212 c -4.98383,0 -9.06215,-4.1401653 -9.06215,-9.1467563 0,-5.0065909 4.07832,-9.1203439 9.06215,-9.1203439 4.97928,0 9.03015,4.113753 9.03015,9.1203439 0,5.006591 -4.05087,9.1467563 -9.03015,9.1467563 z m 0,-3.6587025 c 2.97843,0 5.37258,-2.4340664 5.37258,-5.4880538 0,-3.0549015 -2.39416,-5.4580969 -5.37258,-5.4580969 -2.98298,0 -5.40457,2.4031954 -5.40457,5.4580969 0,3.0539874 2.42159,5.4880538 5.40457,5.4880538 z"
       inkscape:connector-curvature="0" /><path
       id="path3031"
       style="fill:#ffffff;fill-opacity:0.74509805;fill-rule:nonzero;stroke:none"
       d="m 25.299887,7.1774212 c -4.985154,0 -9.06234,-4.1401653 -9.06234,-9.1467563 0,-5.0065909 4.077186,-9.1203439 9.06234,-9.1203439 4.979402,0 9.030158,4.113753 9.030158,9.1203439 0,5.006591 -4.050756,9.1467563 -9.030158,9.1467563 z m 0,-3.6587025 c 2.97855,0 5.37237,-2.4340664 5.37237,-5.4880538 0,-3.0549015 -2.39382,-5.4580969 -5.37237,-5.4580969 -2.984301,0 -5.404533,2.4031954 -5.404533,5.4580969 0,3.0539874 2.420232,5.4880538 5.404533,5.4880538 z"
       inkscape:connector-curvature="0" /><path
       id="path3033"
       style="fill:#ffffff;fill-opacity:0.74509805;fill-rule:nonzero;stroke:none"
       d="m 16.228615,346.2409 0,-18.07857 18.258182,0 0,18.07857 -18.258182,0 z m 3.644856,-3.64384 10.932786,0 0,-10.79088 -10.932786,0 0,10.79088 z"
       inkscape:connector-curvature="0" /><path
       id="path3035"
       style="fill:#ffffff;fill-opacity:0.74509805;fill-rule:nonzero;stroke:none"
       d="m 57.893231,346.2409 c -4.97938,0 -9.056547,-4.14005 -9.056547,-9.14675 0,-5.00671 4.077167,-9.11932 9.056547,-9.11932 4.985209,0 9.035964,4.11261 9.035964,9.11932 0,5.0067 -4.050755,9.14675 -9.035964,9.14675 z m 0,-3.65756 c 2.984357,0 5.378177,-2.43418 5.378177,-5.48919 0,-3.05502 -2.39382,-5.45719 -5.378177,-5.45719 -2.978527,0 -5.398759,2.40217 -5.398759,5.45719 0,3.05501 2.420232,5.48919 5.398759,5.48919 z"
       inkscape:connector-curvature="0" /><path
       id="path3037"
       style="fill:#ffffff;fill-opacity:0.74509805;fill-rule:nonzero;stroke:none"
       d="m 81.36392,346.2409 0,-18.07857 18.25785,0 0,18.07857 -18.25785,0 z m 3.643609,-3.64384 10.934035,0 0,-10.79088 -10.934035,0 0,10.79088 z"
       inkscape:connector-curvature="0" /><path
       id="path3039"
       style="fill:#ffffff;fill-opacity:0.74509805;fill-rule:nonzero;stroke:none"
       d="m 123.18495,346.2409 c -4.98384,0 -9.06192,-4.14005 -9.06192,-9.14675 0,-5.00671 4.07808,-9.11932 9.06192,-9.11932 4.98384,0 9.03024,4.11261 9.03024,9.11932 0,5.0067 -4.0464,9.14675 -9.03024,9.14675 z m 0,-3.65756 c 2.97852,0 5.37279,-2.43418 5.37279,-5.48919 0,-3.05502 -2.39428,-5.45719 -5.37279,-5.45719 -2.98298,0 -5.40459,2.40217 -5.40459,5.45719 0,3.05501 2.42161,5.48919 5.40459,5.48919 z"
       inkscape:connector-curvature="0" /><path
       id="path3041"
       style="fill:#ffffff;fill-opacity:0.74509805;fill-rule:nonzero;stroke:none"
       d="m 146.53443,346.2409 0,-18.07857 18.25808,0 0,18.07857 -18.25808,0 z m 3.64384,-3.64384 10.9338,0 0,-10.79088 -10.9338,0 0,10.79088 z"
       inkscape:connector-curvature="0" /><path
       id="path3043"
       style="fill:#ffffff;fill-opacity:0.74509805;fill-rule:nonzero;stroke:none"
       d="m 188.20363,346.2409 c -4.98384,0 -9.06215,-4.14005 -9.06215,-9.14675 0,-5.00671 4.07831,-9.11932 9.06215,-9.11932 4.98383,0 9.03012,4.11261 9.03012,9.11932 0,5.0067 -4.04629,9.14675 -9.03012,9.14675 z m 0,-3.65756 c 2.97956,0 5.37258,-2.43418 5.37258,-5.48919 0,-3.05502 -2.39302,-5.45719 -5.37258,-5.45719 -2.98298,0 -5.40344,2.40217 -5.40344,5.45719 0,3.05501 2.42046,5.48919 5.40344,5.48919 z"
       inkscape:connector-curvature="0" /><path
       id="path3045"
       style="fill:#ffffff;fill-opacity:0.74509805;fill-rule:nonzero;stroke:none"
       d="m 211.66964,346.2409 0,-18.07857 18.25692,0 0,18.07857 -18.25692,0 z m 3.64382,-3.64384 10.93382,0 0,-10.79088 -10.93382,0 0,10.79088 z"
       inkscape:connector-curvature="0" /><path
       id="path3047"
       style="fill:#ffffff;fill-opacity:0.74509805;fill-rule:nonzero;stroke:none"
       d="m 253.49088,346.2409 c -4.98041,0 -9.05758,-4.14005 -9.05758,-9.14675 0,-5.00671 4.07717,-9.11932 9.05758,-9.11932 4.98383,0 9.0347,4.11261 9.0347,9.11932 0,5.0067 -4.05087,9.14675 -9.0347,9.14675 z m 0,-3.65756 c 2.98298,0 5.37715,-2.43418 5.37715,-5.48919 0,-3.05502 -2.39417,-5.45719 -5.37715,-5.45719 -2.97956,0 -5.40002,2.40217 -5.40002,5.45719 0,3.05501 2.42046,5.48919 5.40002,5.48919 z"
       inkscape:connector-curvature="0" /><path
       id="path3049"
       style="fill:#ffffff;fill-opacity:0.74509805;fill-rule:nonzero;stroke:none"
       d="m 276.98203,346.2409 0,-18.07857 18.25807,0 0,18.07857 -18.25807,0 z m 3.64498,-3.64384 10.93266,0 0,-10.79088 -10.93266,0 0,10.79088 z"
       inkscape:connector-curvature="0" /><path
       id="path3051"
       style="fill:#ffffff;fill-opacity:0.74509805;fill-rule:nonzero;stroke:none"
       d="m 48.778602,313.83509 0,-18.07971 18.25784,0 0,18.07971 -18.25784,0 z m 3.680197,-3.68043 10.932775,0 0,-10.75429 -10.932775,0 0,10.75429 z"
       inkscape:connector-curvature="0" /><path
       id="path3053"
       style="fill:#ffffff;fill-opacity:0.74509805;fill-rule:nonzero;stroke:none"
       d="m 90.475004,313.82594 c -4.984754,0 -9.061921,-4.13547 -9.061921,-9.14675 0,-2.01915 0.656051,-3.88623 1.772185,-5.40002 1.117047,0.55795 2.241983,1.09418 3.372866,1.63041 -0.924967,0.97299 -1.487721,2.29126 -1.487721,3.76961 0,3.05958 2.420685,5.4892 5.404591,5.4892 2.89849,0 5.24235,-2.29584 5.3728,-5.23081 1.15581,0.46077 2.31756,0.88496 3.488126,1.3137 -0.74182,4.27383 -4.413096,7.57466 -8.860926,7.57466 z"
       inkscape:connector-curvature="0" /><path
       id="path3055"
       style="fill:#ffffff;fill-opacity:0.74509805;fill-rule:nonzero;stroke:none"
       d="m 113.91357,313.82594 0,-2.97041 c 4.43846,1.17422 8.96725,2.17464 13.54999,2.97041 l -13.54999,0 z"
       inkscape:connector-curvature="0" /><path
       id="path3057"
       style="fill:#ffffff;fill-opacity:0.74509805;fill-rule:nonzero;stroke:none"
       d="m 183.51362,313.82594 c 4.69,-0.81749 9.29426,-1.84535 13.83675,-3.05502 l 0,3.05502 -13.83675,0 z"
       inkscape:connector-curvature="0" /><path
       id="path3059"
       style="fill:#ffffff;fill-opacity:0.74509805;fill-rule:nonzero;stroke:none"
       d="m 220.75807,313.82594 c -4.47047,0 -8.19549,-3.32713 -8.91923,-7.62839 1.18794,-0.44247 2.345,-0.90668 3.51922,-1.37544 0.072,2.98756 2.46504,5.34628 5.40001,5.34628 2.98298,0 5.37258,-2.42962 5.37258,-5.4892 0,-1.52752 -0.57168,-2.87666 -1.54123,-3.85879 1.12162,-0.52708 2.23296,-1.07246 3.34542,-1.62583 1.15706,1.53207 1.85794,3.42088 1.85794,5.48462 0,5.01128 -4.05087,9.14675 -9.03471,9.14675 z"
       inkscape:connector-curvature="0" /><path
       id="path3061"
       style="fill:#ffffff;fill-opacity:0.74509805;fill-rule:nonzero;stroke:none"
       d="m 244.21836,313.83509 0,-18.07971 18.25806,0 0,18.07971 -18.25806,0 z m 3.68042,-3.68043 10.93381,0 0,-10.75429 -10.93381,0 0,10.75429 z"
       inkscape:connector-curvature="0" /><path
       id="path3063"
       style="fill:#ffffff;fill-opacity:0.74509805;fill-rule:nonzero;stroke:none"
       d="m 286.06247,313.83051 c -4.98383,0 -9.06215,-4.13662 -9.06215,-9.14675 0,-5.0067 4.07832,-9.11588 9.06215,-9.11588 4.97928,0 9.03015,4.10918 9.03015,9.11588 0,5.01013 -4.05087,9.14675 -9.03015,9.14675 z m 0,-3.6587 c 2.97843,0 5.37258,-2.43304 5.37258,-5.48805 0,-3.05501 -2.39416,-5.45833 -5.37258,-5.45833 -2.98298,0 -5.40457,2.40332 -5.40457,5.45833 0,3.05501 2.42159,5.48805 5.40457,5.48805 z"
       inkscape:connector-curvature="0" /><path
       id="path3065"
       style="fill:#ffffff;fill-opacity:0.74509805;fill-rule:nonzero;stroke:none"
       d="m 25.299887,313.83051 c -4.985154,0 -9.06234,-4.13662 -9.06234,-9.14675 0,-5.0067 4.077186,-9.11588 9.06234,-9.11588 4.979402,0 9.030158,4.10918 9.030158,9.11588 0,5.01013 -4.050756,9.14675 -9.030158,9.14675 z m 0,-3.6587 c 2.97855,0 5.37237,-2.43304 5.37237,-5.48805 0,-3.05501 -2.39382,-5.45833 -5.37237,-5.45833 -2.984301,0 -5.404533,2.40332 -5.404533,5.45833 0,3.05501 2.420232,5.48805 5.404533,5.48805 z"
       inkscape:connector-curvature="0" /><path
       id="path3067"
       style="fill:#ffffff;fill-opacity:0.74509805;fill-rule:nonzero;stroke:none"
       d="m 16.228615,281.07026 0,-18.07855 18.258182,0 0,18.07855 -18.258182,0 z m 3.644856,-3.67928 10.932786,0 0,-10.75544 -10.932786,0 0,10.75544 z"
       inkscape:connector-curvature="0" /><path
       id="path3069"
       style="fill:#ffffff;fill-opacity:0.74509805;fill-rule:nonzero;stroke:none"
       d="m 276.98203,281.07026 0,-18.07855 18.25807,0 0,18.07855 -18.25807,0 z m 3.64498,-3.67928 10.93266,0 0,-10.75544 -10.93266,0 0,10.75544 z"
       inkscape:connector-curvature="0" /><path
       id="path3071"
       style="fill:#ffffff;fill-opacity:0.74509805;fill-rule:nonzero;stroke:none"
       d="m 287.24584,248.5707 c 2.66629,-3.71587 5.16334,-7.54836 7.51634,-11.49175 0.21037,0.77289 0.34415,1.59382 0.34415,2.4296 0,4.60882 -3.43918,8.46762 -7.86049,9.06215 z"
       inkscape:connector-curvature="0" /><path
       id="path3073"
       style="fill:#ffffff;fill-opacity:0.74509805;fill-rule:nonzero;stroke:none"
       d="m 23.6742,248.48495 c -4.216975,-0.78091 -7.43174,-4.52421 -7.43174,-8.9764 0,-0.69744 0.07994,-1.37544 0.227329,-2.02829 2.263916,3.76961 4.653324,7.44545 7.204411,11.00469 z"
       inkscape:connector-curvature="0" /><path
       id="path3075"
       style="fill:#ffffff;fill-opacity:0.74509805;fill-rule:nonzero;stroke:none"
       d="m 16.228615,-25.416814 0,-18.080037 18.258182,0 0,18.080037 -18.258182,0 z m 3.644856,-3.645325 10.932786,0 0,-10.78941 -10.932786,0 0,10.78941 z"
       inkscape:connector-curvature="0" /><path
       id="path3077"
       style="fill:#ffffff;fill-opacity:0.74509805;fill-rule:nonzero;stroke:none"
       d="m 57.893231,-25.412355 c -4.97938,0 -9.056547,-4.140165 -9.056547,-9.146756 0,-5.006603 4.077167,-9.120405 9.056547,-9.120405 4.985209,0 9.035964,4.113802 9.035964,9.120405 0,5.006591 -4.050755,9.146756 -9.035964,9.146756 z m 0,-3.658702 c 2.984357,0 5.378177,-2.433151 5.378177,-5.488054 0,-3.054879 -2.39382,-5.458131 -5.378177,-5.458131 -2.978527,0 -5.398759,2.403252 -5.398759,5.458131 0,3.054903 2.420232,5.488054 5.398759,5.488054 z"
       inkscape:connector-curvature="0" /><path
       id="path3079"
       style="fill:#ffffff;fill-opacity:0.74509805;fill-rule:nonzero;stroke:none"
       d="m 81.36392,-25.416814 0,-18.080037 18.25785,0 0,18.080037 -18.25785,0 z m 3.643609,-3.645325 10.934035,0 0,-10.78941 -10.934035,0 0,10.78941 z"
       inkscape:connector-curvature="0" /><path
       id="path3081"
       style="fill:#ffffff;fill-opacity:0.74509805;fill-rule:nonzero;stroke:none"
       d="m 123.18495,-25.412355 c -4.98384,0 -9.06192,-4.140165 -9.06192,-9.146756 0,-5.006603 4.07808,-9.120405 9.06192,-9.120405 4.98384,0 9.03024,4.113802 9.03024,9.120405 0,5.006591 -4.0464,9.146756 -9.03024,9.146756 z m 0,-3.658702 c 2.97852,0 5.37279,-2.433151 5.37279,-5.488054 0,-3.054879 -2.39428,-5.458131 -5.37279,-5.458131 -2.98298,0 -5.40459,2.403252 -5.40459,5.458131 0,3.054903 2.42161,5.488054 5.40459,5.488054 z"
       inkscape:connector-curvature="0" /><path
       id="path3083"
       style="fill:#ffffff;fill-opacity:0.74509805;fill-rule:nonzero;stroke:none"
       d="m 146.53443,-25.416814 0,-18.080037 18.25808,0 0,18.080037 -18.25808,0 z m 3.64384,-3.645325 10.9338,0 0,-10.78941 -10.9338,0 0,10.78941 z"
       inkscape:connector-curvature="0" /><path
       id="path3085"
       style="fill:#ffffff;fill-opacity:0.74509805;fill-rule:nonzero;stroke:none"
       d="m 188.20363,-25.412355 c -4.98384,0 -9.06215,-4.140165 -9.06215,-9.146756 0,-5.006603 4.07831,-9.120405 9.06215,-9.120405 4.98383,0 9.03012,4.113802 9.03012,9.120405 0,5.006591 -4.04629,9.146756 -9.03012,9.146756 z m 0,-3.658702 c 2.97956,0 5.37258,-2.433151 5.37258,-5.488054 0,-3.054879 -2.39302,-5.458131 -5.37258,-5.458131 -2.98298,0 -5.40344,2.403252 -5.40344,5.458131 0,3.054903 2.42046,5.488054 5.40344,5.488054 z"
       inkscape:connector-curvature="0" /><path
       id="path3087"
       style="fill:#ffffff;fill-opacity:0.74509805;fill-rule:nonzero;stroke:none"
       d="m 211.66964,-25.416814 0,-18.080037 18.25692,0 0,18.080037 -18.25692,0 z m 3.64382,-3.645325 10.93382,0 0,-10.78941 -10.93382,0 0,10.78941 z"
       inkscape:connector-curvature="0" /><path
       id="path3089"
       style="fill:#ffffff;fill-opacity:0.74509805;fill-rule:nonzero;stroke:none"
       d="m 253.49088,-25.412355 c -4.98041,0 -9.05758,-4.140165 -9.05758,-9.146756 0,-5.006603 4.07717,-9.120405 9.05758,-9.120405 4.98383,0 9.0347,4.113802 9.0347,9.120405 0,5.006591 -4.05087,9.146756 -9.0347,9.146756 z m 0,-3.658702 c 2.98298,0 5.37715,-2.433151 5.37715,-5.488054 0,-3.054879 -2.39417,-5.458131 -5.37715,-5.458131 -2.97956,0 -5.40002,2.403252 -5.40002,5.458131 0,3.054903 2.42046,5.488054 5.40002,5.488054 z"
       inkscape:connector-curvature="0" /><path
       id="path3091"
       style="fill:#ffffff;fill-opacity:0.74509805;fill-rule:nonzero;stroke:none"
       d="m 276.98203,-25.416814 0,-18.080037 18.25807,0 0,18.080037 -18.25807,0 z m 3.64498,-3.645325 10.93266,0 0,-10.78941 -10.93266,0 0,10.78941 z"
       inkscape:connector-curvature="0" /><g
       transform="translate(8.84022,4.6540938)"
       inkscape:label="fithesis-sci-white"
       id="g5389"><g
         transform="scale(0.1,0.1)"
         id="g5391"><path
           id="path5393"
           style="fill:#ffffff;fill-opacity:1;fill-rule:nonzero;stroke:none"
           d="m 1741.48,1695.55 c 90.16,11.17 187.04,66.91 194.07,165.78 1.95,27.38 -3.21,53.01 -12.03,77.62 87.69,10.7 175.19,68.43 190.89,161.71 7.93,47.27 2.07,93.75 -12.03,138.56 21.6,-2.15 44.14,-5.16 69.61,-9.57 25.86,-4.45 56.21,-8.01 65.59,2.69 6.52,7.47 15.47,29.11 -22.03,39.11 -42.74,11.4 -89.69,22.22 -137.5,28.55 -24.46,51.17 -57,99.34 -88.36,142.97 -22.93,31.91 -117.42,-36.56 -94.42,-68.59 15.08,-20.98 32.62,-45.32 49.69,-71.68 -55.23,-6.64 -107.11,-25 -149.69,-61.88 -71.68,-62.03 -68.16,-130.74 -42.97,-200.31 -54.88,-1.72 -108.47,-16.6 -148.67,-58.63 -54.1,-56.65 -68.43,-120.43 -36.64,-192.78 1.06,-2.38 2.35,-5.04 3.71,-7.77 -26.13,-4.1 -50.5,-11.17 -72.73,-21.13 -16.33,9.76 -34.22,17.57 -54.02,22.85 -31.76,8.43 -64.26,9.8 -96.8,8.59 23.83,45.47 43.47,93.24 37.58,141.33 -11.18,91.25 -93.71,118.28 -174.46,114.1 -12.54,-0.62 -27.15,-2.73 -42.97,-5.35 40.28,77.42 72.43,164.02 1.92,228.55 -50.59,46.37 -120.94,57.46 -192.232,52.93 19.461,32.46 40.782,62.19 58.992,86.68 9.96,13.4 21.64,42.78 -5.63,43.28 -42.299,0.79 -67.459,-16.75 -82.299,-36.71 -24.422,-32.86 -48.672,-69.14 -69.422,-107.7 -31.598,-6.87 -61.52,-15.16 -87.93,-22.85 -37.258,-10.94 -90.148,-34.45 -95.148,-51.95 -6.211,-21.8 11.64,-22.82 35,-17.5 29.097,6.64 70.738,15.97 115.969,22.14 -15.661,-41.64 -25.54,-84.92 -25.86,-128.59 -0.539,-77.97 40.469,-148.05 121.918,-159.1 21.481,-2.93 56.371,0.55 95.862,4.49 -17.42,-32.69 -33.05,-67.26 -36.45,-102.58 -11.521,-118.98 89.65,-157.07 190.74,-150.23 8.29,0.55 16.57,1.25 24.93,2.03 -15.2,-29.69 -28.32,-60.12 -33.6,-93.44 -14.41,-90.74 88.64,-153.75 163.24,-178.71 -8.75,-5.98 -16.83,-12.3 -23.9,-19.02 -51.21,-48.75 -78.56,-138.99 -33.09,-201.37 24.69,-33.87 58.99,-57.26 95.35,-77.85 -58.12,-36.52 -116.75,-87.5 -120.39,-158.868 -3.59,-70.973 50.2,-115.043 106.33,-147.543 -9.45,-5.778 -18.63,-11.911 -27.34,-18.668 -67.66,-52.621 -108.56,-134.692 -64.22,-217.153 22.3,-41.437 55.78,-74.367 94.65,-101.437 -15.71,-6.801 -30.31,-12.699 -42.85,-17.781 -23.56,-9.489 -50.71,-22.54 -49.96,-40.7 0.58,-14.57 23.78,-14.922 39.96,-9.3 34.84,12.191 68.36,24.609 100.39,38.679 48.94,-26.449 102.18,-46.179 150.93,-62.859 36.8,-12.57 118.75,65.75 82.31,78.211 -37.74,12.89 -80.67,27.89 -121.95,47.07 23.59,17.219 45.97,36.758 66.83,59.649 49.26,54.019 87.42,140.582 33.32,205.308 -24.76,29.613 -56.56,50.551 -90.04,69.102 80.67,50.199 152.19,119.261 109.96,212.89 -16.56,36.76 -56.29,64.26 -100.89,89.96 3.47,2.15 6.91,4.34 10.15,6.56 65.67,45.12 120.78,113.13 101.37,197.74 -13.24,57.69 -47.23,82.81 -89.3,98.08 38.44,13.6 76.76,30.16 103.13,50.79 68.63,53.67 88.32,107.38 63.43,181.6 z m 238.13,548.4 c 32.93,-62.82 54.1,-131.25 33.59,-191.92 -12.34,-36.52 -27.46,-35.12 -69.76,-31.95 -21.49,1.64 -42.74,4.65 -63.95,7.93 -24.06,43.4 -46.83,87.07 -47.38,136.25 -0.74,64.88 95.9,79.49 147.5,79.69 z M 956.949,2057.38 c -49.058,53.83 -44.219,121.96 -18.98,187.54 73.941,-0.94 141.911,-20.15 166.831,-82.3 17.93,-44.73 -4.1,-92.97 -26.32,-134.3 -47.89,-4.49 -94.101,-1.01 -121.531,29.06 z m 177.001,-249.72 c -43.83,42.61 -38.48,94.41 -13.52,146.13 1.37,2.81 2.77,5.66 4.22,8.59 96.95,4.14 185.97,-11.29 156.87,-120.62 -5.23,-19.73 -12.97,-38.56 -21.75,-56.92 -42,-3.94 -94.81,-7.34 -125.82,22.82 z M 1559.26,676.48 c 5.58,-51.871 -29.06,-93.75 -75.16,-126.75 -43.44,25.821 -81.29,58.161 -103.9,100.231 -37.19,69.18 -16.84,112.07 46.28,144.809 1.45,0.742 3.01,1.519 4.5,2.3 55.07,-26.871 122.03,-62.148 128.28,-120.59 z m -16.6,246.532 c -16.64,-14.032 -35.12,-25.512 -54.46,-35.864 -10.82,5.661 -21.48,11.411 -31.87,17.461 -41.49,24.18 -128.52,89.102 -83.05,148.201 16.64,21.64 40.59,37.89 66.88,51.96 13.86,-7.43 27.5,-15 40.5,-23.13 46.33,-28.94 125.9,-104.691 62,-158.628 z m 25,347.458 c -1.88,-36.8 -33.25,-60.82 -69.11,-79.53 -59.02,32.97 -114.06,67.77 -125.5,120.51 -5.78,26.64 9.22,67.26 57.61,98.2 72.7,-19.73 141.61,-47.89 137,-139.18 z m 60.39,283.48 c -45.04,-40.55 -97.46,-47.74 -152.82,-64.5 -10.27,2.82 -20.46,5.86 -30.5,9.5 -50.04,18.08 -123.28,43.51 -153.36,90 -19.77,30.58 -8.56,78.36 6.01,109.72 1.8,3.87 3.75,7.81 5.71,11.72 19.33,0.08 38.59,-1.25 57.5,-5.39 17.3,-3.75 32.96,-9.88 47.22,-17.89 -12.46,-17.81 -22.54,-37.97 -29.76,-60.66 -10.35,-32.39 22.61,-47.15 45,-5 7.26,13.71 15.04,25.86 23.55,36.36 22.46,-21.91 40.43,-49.14 55.39,-78.43 16.41,-32.15 113.36,31.44 94.42,68.59 -10.36,20.31 -22.19,39.34 -35.79,56.44 18.33,-0.74 36.61,-2.42 54.85,-4.29 27.69,-53.67 48.98,-113.4 12.58,-146.17 z m 73.24,225.62 c -14.38,25.59 -29.02,51.02 -39.88,78.13 -7.43,18.47 -25.39,65.97 -8.36,88.75 17.03,22.77 92.61,10.11 127.54,4.61 4.25,-0.67 8.51,-1.37 12.85,-2.11 4.53,-9.3 9.06,-18.56 13.44,-27.78 10.97,-23.28 56.64,-120.66 16.17,-139.69 -33.09,-15.54 -80.82,-8.04 -121.76,-1.91 z M 722.07,2362.7 c 13.051,-18.6 47.5,-19.18 92.071,6.52 20.859,12.03 5.468,46.17 -18.942,31.48 -20.078,-12.03 -30.789,-18.51 -34.648,-13.08 -5.711,8.2 9.371,30 38.16,50.15 28.75,20.12 56.09,23.01 60.391,16.88 4.808,-6.84 -5.043,-21.84 -19.922,-38.36 -5.981,-6.68 4.922,-16.45 10.511,-11.72 38.039,32.5 37.809,51.8 26.129,68.44 -14.371,20.51 -66.129,10.08 -108.48,-19.57 -42.262,-29.61 -63.668,-64.49 -45.27,-90.74 z M 1550.55,346.449 c 0,22.692 -27.85,42.961 -79.18,47.5 -23.95,2.11 -30.9,-34.648 -2.5,-36.679 23.36,-1.641 35.86,-2.5 35.86,-9.141 0,-10 -24.89,-19.18 -60,-19.18 -35.12,0 -59.18,13.321 -59.18,20.821 0,8.359 16.68,15 38.32,20 8.75,2.031 5.43,16.289 -1.88,15.582 -49.76,-4.723 -60.66,-20.704 -60.66,-41.012 0,-25.039 48.4,-46.211 100.04,-46.211 51.68,0 89.18,16.281 89.18,48.32 z M 2143.16,2383.4 c -8.39,3.16 -13.55,-10.51 -7.11,-13.99 44.03,-23.71 61.96,-16.48 73.25,0.43 13.9,20.79 -14.57,65.32 -57.54,93.99 -42.93,28.71 -83.17,35.98 -100.98,9.33 -12.62,-18.86 -0.7,-51.21 39.45,-83.47 18.72,-15.04 44.97,11.64 22.43,29.14 -18.48,14.3 -28.4,21.95 -24.69,27.5 5.55,8.32 31.33,2.11 60.55,-17.38 29.18,-19.5 41.79,-43.99 37.61,-50.2 -4.65,-6.95 -22.18,-3.24 -42.97,4.65 z M 934.961,844.73 c -16.289,12.418 -36.949,25.391 -50.231,29.059 -5.71,1.52 -7.699,1.051 -12.269,-2.309 -9.141,-6.71 -29.063,-26.519 -31.41,-29.57 -1.563,-2.031 -2.422,-4.211 -0.621,-5.539 2.031,-1.562 3.32,-0.941 7.191,2.539 4.527,3.789 13.43,8.668 21.481,10.192 19.097,3.949 34.769,-3.981 57.418,-21.293 34.07,-26.008 57.191,-91.168 10.98,-151.719 -18.828,-24.68 -42.109,-45.149 -73.672,-48 -18.949,-1.641 -37.738,3.82 -59.848,20.738 -23.429,17.852 -38,39.844 -39.601,55.152 -1.328,11.489 2.18,22.899 7.922,30.981 2.738,3.598 3.75,5.98 1.758,7.539 -2.297,1.762 -4.368,0.121 -7.539,-3.52 -4.372,-4.679 -14.801,-18.859 -21.719,-26.871 -7.301,-8.519 -10.391,-11.019 -11.949,-13.05 -1.172,-1.52 -1.133,-3.547 1.488,-5.93 7.031,-6.609 13.43,-15.117 22.14,-23.75 10.508,-10.469 19.141,-18.68 34.93,-30.707 37.891,-28.902 69.84,-37.192 100.969,-34.371 41.492,3.75 69.73,29.679 82.93,46.988 18.832,24.652 33.991,58.199 25.741,99.102 -7.812,37.769 -31.249,67.738 -66.089,94.339 z m 82.769,-284.5 c -2.34,0.981 -4.21,-0.968 -6.99,-7.46 -9.72,-22.961 -14.529,-31.008 -16.17,-34.84 -0.859,-2.071 0.231,-3.59 2.621,-5.27 6.789,-5.32 17.929,-13.558 37.069,-21.64 40.94,-17.391 77.93,-5.629 91.68,26.75 10.11,23.871 7.65,49.261 -13.99,88.32 l -9.06,16.371 c -16.29,29.527 -14.96,44.961 -8.83,59.379 6.6,15.621 27.19,28.082 53.71,16.832 18.28,-7.731 32.27,-23.082 29.5,-47.613 -0.67,-5.668 -2.11,-12.348 -3.72,-16.18 -1.01,-2.34 -1.83,-5.109 0.83,-6.25 2.34,-1.008 4.6,1.883 6.75,6.18 2.31,4.57 10.98,21.75 17.85,37.921 2.78,6.489 2.5,8.36 -1.32,12.43 -10.32,10.969 -22.7,18.668 -39.77,25.899 -15.62,6.64 -33.24,10.972 -51.95,7.812 -27.07,-4.851 -42.19,-22.422 -49.46,-39.492 -11.87,-28.008 -7.81,-53.719 16.41,-95.629 l 5.66,-9.691 c 16.57,-28.938 18.95,-42.11 13.21,-55.661 -7.5,-17.699 -26.14,-24.726 -47.93,-15.468 -19.14,8.129 -23.95,20.59 -25.98,28.05 -2.93,10.309 -0.55,20.04 0.59,22.692 1.48,3.558 1.36,5.668 -0.71,6.558 z m 780.94,1928.17 c -0.74,-4.73 -0.47,-6.45 2.03,-6.99 1.88,-0.43 2.93,1.32 3.91,4.37 1.8,8.13 7.5,29.49 8.98,36.06 1.02,4.68 1.14,6.6 -1.05,7.11 -1.25,0.27 -3.91,0.19 -8.79,0.27 -4.84,0.43 -11.91,1.01 -21.91,3.2 l -123.75,27.39 c -10.32,2.26 -22.04,5.5 -30.9,8.43 -7.66,2.35 -10.08,6.17 -12.58,6.72 -1.88,0.43 -3.24,-1.25 -5.08,-5.12 -1.17,-2.34 -13.4,-29.45 -14.49,-34.45 -0.78,-3.44 -0.51,-5.16 1.72,-5.62 1.87,-0.43 3.08,0.62 4.26,2.96 1.17,2.39 3.55,5.79 7.69,9.77 6.21,5.86 14.06,5.74 32.34,2.38 l 46.8,-9.06 -28.28,-128.09 c -6.37,-28.75 -11.8,-53.43 -16.29,-66.21 -2.93,-8.86 -6.33,-15.31 -12.85,-15.19 -2.97,0 -6.84,0.19 -11.52,1.25 -3.75,0.82 -5.2,0.15 -5.55,-1.41 -0.51,-2.19 1.48,-3.59 5.55,-4.49 12.5,-2.77 32.42,-6.17 39.61,-7.77 8.75,-1.96 28.2,-7.23 48.82,-11.76 3.44,-0.78 6.14,-0.39 6.64,1.8 0.36,1.56 -1.01,2.85 -4.45,3.63 -4.69,1.01 -11.44,3.16 -15.66,4.73 -9.1,3.32 -9.46,10.62 -8.48,19.57 1.45,13.78 6.88,38.47 13.24,67.22 l 28.32,128.09 39.14,-9.61 c 27.7,-6.8 34.18,-17.38 33.01,-25.67 l -0.43,-3.51 z M 446.949,1834.69 c -1.828,0.54 -3.16,-1.72 -4.328,-5.74 -3.359,-11.68 -7.66,-30.08 -9.891,-37.78 -2.57,-8.9 -9.101,-28.01 -12.46,-39.69 -1.399,-4.92 -1.52,-7.57 0.32,-8.08 2.461,-0.74 3.629,0.94 4.488,4.02 1.094,3.67 2.543,7.58 4.453,10.71 3.481,6.32 9.571,7.89 20.239,5.46 10,-2.22 18.628,-4.68 65.351,-18.2 l 54.098,-15.58 c 29.84,-8.64 54.101,-15.63 66.601,-20.9 8.629,-3.48 13.321,-6.84 12.77,-13.36 -0.149,-2.93 -0.621,-6.8 -1.949,-11.41 -1.051,-3.67 -0.512,-5.19 1.058,-5.62 2.141,-0.63 3.672,1.25 4.84,5.23 3.512,12.31 8.199,31.95 10.231,39.02 2.429,8.32 8.91,27.43 14.769,47.7 0.981,3.4 0.781,6.09 -1.367,6.72 -1.563,0.47 -2.934,-0.82 -3.902,-4.18 -1.329,-4.61 -3.872,-11.21 -5.75,-15.35 -3.86,-8.83 -10.04,-9.42 -18.59,-7.93 -13.59,2.58 -37.891,9.57 -67.7,18.2 l -54.14,15.59 c -46.711,13.51 -55.309,15.97 -65,19.45 -10.539,3.75 -15.07,7.69 -14.211,16.44 0.422,3.87 0.851,6.41 1.711,9.46 0.898,3.08 0.82,5.11 -1.641,5.82 z m 963.321,501.21 c 13.87,-5.9 28.32,-7.89 46.88,-7.58 16.95,0.27 34.8,3.44 50.66,13.95 22.78,15.39 29.46,37.57 29.14,56.13 -0.47,30.43 -14.61,52.26 -53.79,80.74 l -9.06,6.56 c -26.87,19.77 -34.41,30.82 -34.65,45.55 -0.31,19.22 13.83,33.16 37.54,33.56 20.78,0.35 30.24,-9.11 35.12,-15.12 6.87,-8.21 8.63,-18.09 8.67,-20.98 0.04,-3.83 1.06,-5.74 3.28,-5.7 2.54,0.04 3.48,2.62 3.36,9.65 -0.39,24.96 0.74,34.25 0.67,38.43 -0.04,2.23 -1.64,3.17 -4.54,3.75 -8.35,2.11 -21.83,5.08 -42.65,4.77 -44.45,-0.74 -73.48,-26.48 -72.93,-61.68 0.43,-25.9 12.93,-48.12 48.59,-75.04 l 14.89,-11.29 c 26.91,-20.39 31.95,-35 32.18,-50.7 0.28,-16.95 -13.47,-36.68 -42.26,-37.15 -19.85,-0.35 -38.87,8.01 -46.29,31.56 -1.68,5.39 -3.09,12.11 -3.13,16.25 -0.04,2.58 -0.43,5.47 -3.28,5.39 -2.58,-0.04 -3.47,-3.55 -3.71,-8.36 -0.23,-5.11 -1.21,-24.33 -0.94,-41.95 0.12,-7.03 1.1,-8.63 6.25,-10.74 z M 793.98,2009.57 c -1.949,1.09 -3,-0.16 -4.21,-2.42 -1.879,-3.32 -4.461,-7.42 -7.579,-11.17 -4.652,-5.12 -13.05,-11.1 -44.14,-7.97 -52.5,5.39 -191.602,23.12 -210.75,24.84 -7.961,0.74 -11.403,0.43 -12.813,-2.11 -1.519,-2.77 0.633,-6.17 6.961,-13.98 L 659.18,1829.84 c 10.98,-13.32 17.582,-23.86 12.23,-37.69 -0.98,-2.42 -2.859,-6.49 -4.219,-9.02 -1.211,-2.23 -1.293,-3.68 0.387,-4.57 2.262,-1.25 3.75,0.11 5.742,3.78 7.969,14.57 15.59,30.51 17.27,33.6 4.762,8.71 12.219,20.31 17.14,29.29 1.68,3.09 2.04,5.08 -0.191,6.29 -1.68,0.94 -2.738,0.39 -4.57,-2.96 l -2.309,-4.22 c -4.762,-8.71 -9.762,-9.22 -14.84,-6.45 -3.359,1.84 -9.34,6.92 -14.8,13.56 l -31.879,37.11 c -1.371,1.52 -1.602,2.38 -0.86,3.75 l 34.258,62.61 c 0.781,1.41 1.801,1.96 3.512,1.72 l 71.801,-10.08 c 4.136,-0.43 5.589,-3.79 5.078,-6.05 -1.289,-2.97 -1.328,-4.42 0.351,-5.31 1.989,-1.1 3.828,2.26 6.879,7.18 12.852,22.15 24.059,42.66 29.57,52.74 5.7,10.39 6.52,13.24 4.25,14.45 z m -138.39,-52.26 -28.289,-51.68 c -0.582,-1.14 -1.602,-0.94 -2.571,-0.04 l -54.929,63.59 c -0.973,0.9 -2.071,2.23 -1.602,3.05 0.473,0.86 2.031,0.39 3.321,0.04 l 83.171,-12.66 c 0.969,-0.2 1.68,-0.94 0.899,-2.3 z M 559.301,950.199 c 8.75,5.352 16.679,9.531 59.719,32.262 l 49.769,26.289 c 26.051,13.75 48.402,25.55 61.012,30.39 8.828,3.24 15.789,5.12 19.929,0.04 1.911,-2.27 4.25,-5.35 6.481,-9.61 1.801,-3.36 3.238,-4.06 4.687,-3.32 1.954,1.06 1.762,3.48 -0.16,7.19 -3.008,5.62 -7.457,12.69 -10.898,19.22 -3.86,6.64 -7.141,12.85 -8.789,15.97 -4.492,8.48 -8.821,17.39 -14.68,29.89 -6.172,12.3 -13.832,28.16 -25,49.37 -5.711,10.74 -7.031,13.32 -15.43,11.41 -6.41,-1.57 -26.882,-9.46 -33.363,-12.93 -2.848,-1.49 -5.117,-2.66 -3.906,-4.92 1.058,-2 2.457,-1.96 5.898,-0.9 12.621,4.14 20.391,3.9 27.66,-1.68 7.258,-5.55 13.551,-17.42 17.461,-24.77 15.231,-28.9 13.36,-35.66 -5.863,-46.52 -8.047,-4.61 -34.219,-18.09 -43.867,-23.17 l -22.34,-11.83 c -1.68,-0.86 -2.973,-1.17 -3.711,0.23 -3.601,6.76 -18.129,34.96 -20.39,40.63 -4.418,11.05 -2.231,17.26 2.652,21.68 3.238,2.77 6.918,4.72 9.609,6.48 1.41,0.78 2.231,1.92 1.207,3.91 -1.367,2.54 -4.449,0.9 -6.718,-0.31 -1.989,-1.02 -13.75,-6.14 -19.571,-8.87 -15.039,-6.49 -20.148,-7.74 -21.828,-8.63 -1.723,-0.9 -1.84,-2.04 -1.25,-3.17 0.777,-1.44 2.77,-1.8 6.09,-2.62 4.18,-1.01 7.269,-4.84 11.41,-11.32 3.981,-6.21 21.168,-38.75 24.488,-44.96 0.903,-1.72 -0.121,-2.58 -2.07,-3.64 l -71.598,-37.81 c -1.992,-1.051 -3.132,-0.942 -3.871,0.511 -3.011,5.618 -18.121,35.659 -20.082,40.779 -5.777,15 -3.898,19.65 0.16,24.3 2.653,3.24 7.301,6.05 9.301,7.11 2.531,1.32 3.672,2.65 2.61,4.6 -1.047,2 -3.039,1.68 -4.61,1.22 -3.711,-1.25 -16.437,-7.23 -19.41,-8.48 -13.48,-6.02 -17.617,-6.37 -19.609,-7.42 -1.41,-0.74 -2.379,-1.64 -1.641,-3.05 0.742,-1.44 2.5,-2.66 3.512,-3.94 1.758,-1.96 4.73,-6.18 8.129,-11.25 3.121,-5.24 32.851,-61.572 37.66,-70.591 2.07,-3.989 5.23,-10.629 8.82,-18.129 3.75,-7.11 7.82,-15.461 11.84,-23.078 2.23,-4.262 3.871,-5.942 5.82,-4.883 1.989,1.051 1.641,3.043 0.039,6.172 -2.109,3.937 -4.379,8.898 -5,11.48 -2.968,10.348 0.391,15.039 9.692,20.668 z m 262.34,2.61 c -5.512,6.679 -17.539,22.89 -30.942,39.222 -2.219,2.739 -4.609,4.098 -6.32,2.66 -1.219,-1.019 -0.938,-2.851 1.281,-5.55 3.012,-3.711 7,-9.571 9.34,-13.442 5.121,-8.238 2.07,-13.629 -3.98,-19.84 -9.848,-9.73 -29.379,-25.738 -53.399,-45.429 l -43.562,-35.739 c -37.579,-30.82 -44.528,-36.531 -52.848,-42.5 -9.063,-6.64 -14.883,-8.089 -21.602,-2.421 -2.929,2.57 -4.808,4.332 -6.839,6.789 -2.032,2.5 -3.75,3.562 -5.7,1.961 -1.48,-1.211 -0.351,-3.641 2.27,-6.84 7.73,-9.41 20.43,-23.399 25.5,-29.571 5.898,-7.187 17.93,-23.359 25.629,-32.769 3.242,-3.949 5.39,-5.551 6.871,-4.34 1.961,1.641 1.25,3.559 -0.781,6.02 -2.457,2.96 -4.84,6.359 -6.329,9.718 -3.199,6.453 -1.05,12.391 6.961,19.774 7.539,6.988 14.45,12.648 52.071,43.508 l 43.547,35.71 c 23.992,19.68 43.519,35.739 54.921,43 7.821,5.161 13.211,7.11 18.29,2.969 2.3,-1.789 5.23,-4.371 8.281,-8.078 2.418,-2.973 3.98,-3.359 5.23,-2.351 1.719,1.449 1.059,3.75 -1.601,7 -8.129,9.878 -21.641,24.878 -26.289,30.539 z M 430.898,1192.5 c -4.609,-6.44 -8.128,-10.08 -7.457,-13.52 0.618,-3.16 5.188,-3.2 11.481,-1.99 l 186.449,33.75 c 27.34,5.04 36.719,5.59 40.82,-2.07 2.149,-4.14 3.547,-9.76 4.368,-13.83 0.632,-3.12 1.601,-4.92 3.48,-4.53 2.852,0.59 2.621,3.44 1.801,7.54 -3.211,16.29 -7.07,30.9 -7.621,33.71 -1.168,5.98 -2.699,18.71 -6.719,39.14 -0.859,4.38 -2.031,7.07 -4.57,6.61 -1.879,-0.4 -2.11,-2.39 -1.45,-5.86 0.981,-5 1.84,-11.06 1.02,-16.76 -0.98,-6.72 -8.32,-12.38 -32.699,-17.85 l -131.211,-29.38 -0.149,0.94 c 4.84,6.83 37.219,49.41 64.411,90.31 25.937,38.99 59.136,87.27 74.097,110.78 2.781,4.1 5.473,8.56 4.813,12.03 -0.59,2.82 -3.641,3.52 -10.551,2.15 l -198.789,-35.51 c -17.652,-3.16 -24.723,-1.95 -28.981,6.37 -1.679,3.6 -2.191,6.1 -2.82,9.22 -0.742,3.79 -2.031,5.47 -3.902,5.12 -2.539,-0.51 -2.231,-3.71 -1.41,-7.78 3.011,-15.39 6.293,-27.14 6.992,-30.58 1.289,-6.6 3.32,-21.88 6.527,-38.2 0.902,-4.69 1.91,-8.09 4.41,-7.62 1.922,0.39 2.582,1.83 1.84,5.58 -0.859,4.42 -2.348,11.96 -1.367,17.04 1.641,8.16 7.07,12.14 26.129,16.25 l 140.39,30.85 0.321,-1.56 c -3.992,-6.33 -40.86,-57.62 -58.012,-83.16 -36.519,-54.81 -78.32,-112.62 -81.641,-117.19 z m -41.328,340.55 c -0.941,-10.51 -2.66,-22.58 -4.41,-31.72 -1.371,-7.93 -4.851,-10.82 -5.039,-13.36 -0.199,-1.91 1.641,-3.05 5.699,-4.38 2.5,-0.86 30.981,-9.49 36.059,-9.92 3.512,-0.35 5.152,0.16 5.351,2.39 0.192,1.91 -1.019,3 -3.519,3.86 -2.5,0.86 -6.172,2.78 -10.66,6.41 -6.571,5.39 -7.5,13.2 -6.492,31.72 l 2.929,47.61 130.711,-11.6 c 29.289,-2.58 54.492,-4.8 67.731,-7.61 9.14,-1.76 16.019,-4.3 16.718,-10.79 0.391,-2.93 0.661,-6.79 0.231,-11.6 -0.309,-3.83 0.512,-5.15 2.109,-5.31 2.231,-0.19 3.403,1.95 3.75,6.09 1.141,12.74 1.961,32.93 2.621,40.24 0.782,8.94 3.52,28.94 5.391,50 0.309,3.48 -0.43,6.09 -2.66,6.29 -1.602,0.15 -2.692,-1.37 -3,-4.85 -0.43,-4.8 -1.68,-11.75 -2.699,-16.13 -2.153,-9.45 -9.34,-10.74 -18.321,-10.94 -13.871,-0.35 -39.019,1.88 -68.359,4.46 l -130.699,11.6 4.527,40.08 c 3.16,28.32 12.852,36.13 21.172,36.01 l 3.559,0.04 c 4.8,-0.12 6.441,0.39 6.679,2.93 0.153,1.91 -1.679,2.7 -4.847,3.32 -8.282,0.74 -30.192,3.63 -36.911,4.26 -4.769,0.43 -6.722,0.23 -6.921,-1.99 -0.071,-1.25 0.32,-3.87 0.859,-8.75 0.199,-4.85 0.551,-11.92 -0.348,-22.11 L 389.57,1533.05 z m 830.51,770.43 c -2.66,-1.29 -6.25,-2.82 -10.9,-3.91 -3.75,-0.86 -4.77,-2.11 -4.41,-3.67 0.5,-2.19 2.93,-2.58 6.99,-1.64 6.21,1.48 14.18,4.02 21.33,5.7 7.38,2.11 14.25,3.71 17.65,4.53 9.38,2.23 19.1,4.18 32.62,6.72 13.48,2.85 30.74,6.29 54.1,11.8 11.84,2.81 14.65,3.47 14.88,12.11 0.08,6.6 -2.42,28.36 -4.1,35.51 -0.74,3.12 -1.33,5.58 -3.83,5 -2.18,-0.51 -2.5,-1.92 -2.3,-5.47 0.82,-13.28 -1.37,-20.71 -8.59,-26.33 -7.19,-5.67 -20.28,-8.75 -28.36,-10.7 -31.76,-7.5 -37.86,-4.03 -43.56,17.34 -2.46,8.94 -8.94,37.66 -11.44,48.24 l -5.82,24.61 c -0.43,1.88 -0.43,3.2 1.13,3.56 7.5,1.75 38.4,8.75 44.45,9.53 11.8,1.48 17.27,-2.15 20.31,-8.01 1.88,-3.83 2.86,-7.89 3.91,-10.94 0.35,-1.56 1.25,-2.65 3.44,-2.15 2.81,0.67 2.03,4.1 1.4,6.6 -0.5,2.19 -2.5,14.85 -3.67,21.18 -2.54,16.17 -2.46,21.44 -2.89,23.32 -0.43,1.83 -1.52,2.26 -2.77,1.99 -1.56,-0.39 -2.42,-2.27 -4.03,-5.27 -2.07,-3.75 -6.52,-5.82 -13.82,-8.21 -7.03,-2.3 -42.85,-10.78 -49.69,-12.42 -1.88,-0.43 -2.46,0.74 -3.01,2.93 l -18.63,78.79 c -0.51,2.19 -0.12,3.24 1.44,3.63 6.25,1.49 39.07,8.6 44.54,9.22 15.97,1.8 20,-1.17 23.51,-6.29 2.42,-3.36 3.99,-8.59 4.49,-10.78 0.67,-2.77 1.68,-4.18 3.83,-3.67 2.19,0.51 2.38,2.54 2.34,4.14 -0.27,3.91 -2.89,17.73 -3.32,20.94 -2.46,14.53 -1.79,18.67 -2.3,20.82 -0.35,1.56 -0.98,2.73 -2.54,2.38 -1.56,-0.39 -3.2,-1.76 -4.69,-2.42 -2.34,-1.21 -7.18,-3.05 -12.93,-5.04 -5.86,-1.72 -67.81,-16.37 -77.77,-18.75 -4.37,-1.02 -11.6,-2.42 -19.77,-4.02 -7.81,-1.8 -16.91,-3.68 -25.31,-5.67 -4.69,-1.09 -6.72,-2.23 -6.17,-4.41 0.51,-2.15 2.5,-2.35 5.94,-1.53 4.37,1.02 9.72,1.96 12.38,1.92 10.78,0.27 14.45,-4.14 17.58,-14.57 2.97,-9.81 5.04,-18.56 16.25,-65.86 l 12.97,-54.81 c 6.76,-28.67 12.58,-53.28 14.14,-66.72 0.86,-9.33 0.94,-16.52 -5,-19.25 z M 2115.31,618.129 c -2.5,-2 -3.59,-3.719 -1.99,-5.707 1.17,-1.481 3.59,-0.391 6.84,2.187 9.49,7.582 23.67,20.121 29.92,25.121 7.26,5.782 23.59,17.61 33.12,25.192 3.99,3.207 5.59,5.277 4.38,6.797 -1.56,1.992 -3.48,1.293 -5.98,-0.699 -3.01,-2.391 -6.44,-4.731 -9.8,-6.18 -6.49,-3.16 -12.39,-0.891 -19.69,7.23 -6.88,7.578 -12.46,14.571 -42.81,52.621 l -35.12,44.02 c -19.38,24.258 -35.16,44.019 -42.27,55.508 -5.03,7.851 -6.95,13.32 -2.73,18.281 1.84,2.309 4.45,5.199 8.2,8.199 3.01,2.391 3.4,3.949 2.42,5.199 -1.4,1.762 -3.75,1.09 -6.99,-1.488 -10.04,-8 -25.19,-21.32 -30.93,-25.89 -6.76,-5.391 -23.13,-17.231 -39.61,-30.391 -2.78,-2.188 -4.15,-4.539 -2.78,-6.289 1.02,-1.25 2.85,-1.02 5.63,1.172 3.75,3.008 9.65,6.91 13.55,9.179 8.28,5 13.63,1.868 19.77,-4.261 9.57,-9.961 25.35,-29.731 44.72,-53.981 l 35.12,-44.027 c 30.35,-38.012 35.94,-45 41.84,-53.442 6.48,-9.14 7.85,-15 2.11,-21.64 -2.62,-2.891 -4.42,-4.719 -6.92,-6.711 z M 1957.07,507.93 c 2.85,1.41 3.05,5.429 2.42,15.429 L 1943.2,739.18 c -1.29,17.191 -0.62,29.609 11.76,37.808 2.15,1.41 6.06,3.672 8.63,4.961 2.31,1.141 3.17,2.27 2.31,3.992 -1.1,2.297 -3.13,2.028 -6.84,0.188 -14.96,-7.34 -30.35,-15.93 -33.51,-17.457 -8.91,-4.371 -21.68,-9.57 -30.86,-14.063 -3.17,-1.558 -4.61,-2.968 -3.52,-5.269 0.86,-1.719 2.03,-1.879 5.47,-0.199 l 4.3,2.109 c 8.9,4.379 13.32,1.91 15.86,-3.281 1.68,-3.438 3.63,-11.059 4.29,-19.649 l 4.61,-48.672 c 0.28,-2.027 -0.04,-2.886 -1.48,-3.589 l -64.06,-31.368 c -1.45,-0.711 -2.58,-0.55 -3.87,0.579 l -52.85,49.691 c -3.13,2.738 -2.39,6.289 -0.63,7.848 2.74,1.722 3.6,2.851 2.74,4.57 -0.98,2 -4.42,0.32 -9.73,-1.91 -23.28,-10.699 -44.26,-20.981 -54.61,-26.059 -10.62,-5.191 -12.93,-7.031 -11.8,-9.332 0.98,-2.027 2.54,-1.598 4.85,-0.469 3.47,1.68 7.89,3.52 12.65,4.77 6.72,1.519 17.04,1.562 40.63,-18.949 39.76,-34.692 143.2,-129.41 157.81,-141.84 6.13,-5.192 9.14,-6.91 11.72,-5.66 z m -21.68,62.422 c -0.86,-0.43 -1.84,0.898 -2.69,1.878 l -60.67,58.321 c -0.7,0.738 -0.82,1.719 0.63,2.418 l 52.85,25.902 c 1.17,0.578 1.87,-0.16 2.15,-1.449 l 8.2,-83.633 c 0.27,-1.289 0.39,-3.008 -0.47,-3.437 z m 623.16,839.218 c 4.81,0.12 6.72,0.51 6.65,2.74 0,1.28 -0.71,3.82 -1.8,8.59 -0.78,4.8 -1.92,11.8 -2.19,22.03 l -3.2,126.68 c -0.24,10.55 0.08,22.73 0.82,32.03 0.43,8.01 3.55,11.33 3.47,13.87 -0.03,1.91 -1.99,2.81 -6.17,3.67 -2.58,0.59 -31.83,5.9 -36.99,5.78 -3.48,-0.08 -5.08,-0.74 -5.04,-3.01 0.08,-1.91 1.37,-2.85 3.95,-3.39 2.57,-0.59 6.44,-2.11 11.33,-5.16 7.18,-4.65 8.94,-12.27 10.07,-30.82 l 2.5,-47.62 -131.17,-3.32 c -29.45,-0.74 -54.73,-1.41 -68.2,-0.16 -9.3,0.75 -16.37,2.5 -17.81,8.87 -0.71,2.85 -1.45,6.68 -1.57,11.49 -0.11,3.82 -1.09,5.07 -2.69,5.04 -2.27,-0.08 -3.13,-2.31 -3.05,-6.49 0.35,-12.77 1.8,-32.93 1.99,-40.27 0.24,-8.95 -0.23,-29.14 0.32,-50.24 0.07,-3.55 1.09,-6.05 3.35,-6.01 1.61,0.04 2.5,1.68 2.43,5.19 -0.12,4.81 0.35,11.84 0.86,16.33 1.01,9.61 8.04,11.76 16.95,12.93 13.75,1.95 38.98,2.58 68.44,3.32 l 131.13,3.32 0.08,-40.31 c 0.08,-28.52 -8.67,-37.38 -16.96,-38.2 l -3.51,-0.43 c -4.81,-0.43 -6.37,-1.1 -6.33,-3.68 0.08,-1.91 1.99,-2.5 5.2,-2.77 8.32,0.24 30.43,-0.16 37.14,0 z m -116.83,236.49 c 70.12,21.28 100.12,82.22 76.99,158.43 -27.85,91.88 -106.05,105.98 -158.4,90.08 -54.22,-16.44 -109.26,-71.95 -82.61,-159.84 23.63,-77.78 93.9,-109.96 164.02,-88.67 z m -59.1,209.14 c 76.25,23.12 108,-11.06 118.71,-46.25 15.23,-50.24 -15.35,-102.62 -83.95,-123.48 -88.47,-26.84 -113.94,19.61 -120.47,41.05 -17.81,58.79 22.04,109.34 85.71,128.68 z m 162.3,-547.82 c 0.86,4.42 2.58,11.57 4.49,19.69 1.53,7.85 3.64,16.88 5.28,25.35 0.93,4.73 0.7,7.03 -1.49,7.46 -2.18,0.43 -3.2,-1.32 -3.86,-4.76 -0.86,-4.42 -2.23,-9.65 -3.32,-12.07 -4.22,-9.92 -9.73,-11.45 -20.55,-10 -10.16,1.33 -18.95,3.04 -66.72,12.34 l -55.27,10.82 c -28.87,5.63 -53.68,10.51 -66.57,14.61 -8.86,3.05 -15.46,5.98 -15.5,12.5 -0.08,2.93 0.04,6.84 0.93,11.56 0.75,3.75 0.04,5.2 -1.52,5.51 -2.19,0.43 -3.55,-1.56 -4.37,-5.66 -1.22,-6.29 -2.19,-14.57 -3.6,-21.8 -1.17,-7.62 -2.5,-14.49 -3.16,-17.97 -1.88,-9.41 -4.07,-19.06 -7.35,-32.46 -2.93,-13.44 -6.95,-30.62 -11.56,-54.18 -2.3,-11.91 -2.89,-14.73 4.88,-18.51 5.94,-2.82 26.84,-9.5 34.07,-10.9 3.12,-0.63 5.62,-1.14 6.13,1.4 0.43,2.19 -0.7,3.09 -4.02,4.38 -12.46,4.69 -18.32,9.76 -20.51,18.63 -2.15,8.95 0.43,22.15 2.03,30.27 6.25,32.04 11.91,36.18 33.75,32.54 9.14,-1.44 37.97,-7.42 48.63,-9.49 l 24.85,-4.84 c 1.87,-0.39 3.08,-0.94 2.77,-2.5 -1.48,-7.54 -7.85,-38.56 -9.69,-44.42 -3.51,-11.36 -9.06,-14.88 -15.66,-15.19 -4.26,-0.16 -8.36,0.66 -11.56,0.94 -1.57,0.31 -2.93,-0.08 -3.36,-2.27 -0.55,-2.81 2.89,-3.52 5.43,-3.98 2.18,-0.43 14.57,-3.83 20.78,-5.36 15.78,-4.37 20.54,-6.64 22.42,-6.99 1.91,-0.39 2.69,0.43 2.97,1.68 0.27,1.6 -1.02,3.17 -3.13,5.82 -2.58,3.44 -2.61,8.36 -1.76,16.02 0.79,7.34 7.86,43.47 9.18,50.35 0.4,1.91 1.68,1.99 3.87,1.52 l 79.49,-15.51 c 2.19,-0.43 3.01,-1.25 2.7,-2.81 -1.21,-6.29 -8.28,-39.14 -9.96,-44.33 -4.96,-15.36 -9.34,-17.74 -15.43,-18.83 -4.06,-0.86 -9.45,-0.12 -11.68,0.31 -2.81,0.55 -4.49,0.23 -4.92,-1.95 -0.43,-2.23 1.33,-3.21 2.85,-3.83 3.63,-1.37 17.3,-4.69 20.39,-5.63 14.26,-3.75 17.73,-6.09 19.92,-6.52 1.6,-0.27 2.89,-0.19 3.2,1.37 0.32,1.56 -0.27,3.63 -0.27,5.27 -0.12,2.62 0.24,7.77 0.74,13.87 0.86,6.01 13.09,68.51 15.04,78.55 z m -197.5,-262.07 c 62.31,21.29 130.63,41.76 136.1,43.32 7.53,2.35 12.57,3.09 14.14,6.21 1.4,2.89 -2.19,5.75 -7.93,8.56 l -168.52,86.64 c -24.76,12.66 -32.54,17.93 -31.13,26.48 0.82,4.61 3.12,9.89 4.96,13.64 1.41,2.85 1.68,4.84 -0.04,5.74 -2.58,1.25 -4.14,-1.17 -5.98,-4.92 -7.38,-14.92 -13.2,-28.83 -14.49,-31.41 -2.69,-5.43 -9.22,-16.48 -18.44,-35.12 -1.99,-4.02 -2.69,-6.87 -0.39,-8 1.72,-0.86 3.13,0.58 4.69,3.71 2.27,4.61 5.27,9.92 9.38,13.94 4.84,4.73 14.18,4.77 36.83,-5.7 l 121.99,-56.49 -0.43,-0.85 c -8,-2.47 -59.61,-16.57 -106.05,-32.5 -44.3,-15.2 -100.04,-33.33 -126.21,-42.86 -4.73,-1.6 -9.57,-3.47 -11.13,-6.64 -1.25,-2.58 0.74,-5 7.07,-8.12 l 179.37,-92.741 c 15.94,-8.238 20.82,-13.508 19.14,-22.648 -0.86,-3.871 -1.99,-6.172 -3.4,-9.071 -1.72,-3.429 -1.68,-5.582 0.04,-6.402 2.27,-1.168 3.99,1.563 5.82,5.313 6.96,14.058 11.49,25.347 13.05,28.519 3.01,6.012 10.66,19.371 18.05,34.289 2.14,4.301 3.39,7.582 1.13,8.711 -1.76,0.86 -3.16,0.16 -4.88,-3.32 -2,-3.981 -5.39,-10.891 -9.22,-14.328 -6.29,-5.473 -13.01,-5.352 -30.67,3.047 l -130.15,60.851 0.7,1.41 c 6.99,2.62 67.46,20.9 96.6,30.74 z m -146.33,-319.88 -2.85,2.07 c -3.83,2.891 -5.47,3.48 -7.15,1.52 -1.25,-1.442 -0.23,-3.161 1.96,-5.5 6.29,-5.469 22.3,-20.711 27.38,-25.122 3.63,-3.128 5.27,-4.136 6.76,-2.457 0.82,0.969 2.03,3.321 4.45,7.579 2.66,4.019 6.56,9.96 13.28,17.691 l 83.2,95.59 c 6.92,7.969 15.4,16.719 22.19,23.078 5.74,5.633 10.28,5.941 11.96,7.891 1.25,1.449 0.43,3.402 -2.07,6.878 -1.53,2.153 -19.5,25.864 -23.36,29.223 -2.66,2.301 -4.26,2.891 -5.75,1.207 -1.25,-1.488 -0.93,-3.047 0.59,-5.199 1.52,-2.149 3.36,-5.899 4.88,-11.438 2.15,-8.242 -1.68,-15.082 -13.4,-29.531 l -30.31,-36.801 -98.98,86.129 c -22.23,19.34 -41.29,35.942 -50.35,45.942 -6.37,6.84 -10.43,12.89 -7.19,18.55 1.4,2.622 3.44,5.899 6.56,9.54 2.54,2.89 2.66,4.492 1.45,5.539 -1.68,1.492 -3.87,0.429 -6.61,-2.731 -8.39,-9.648 -20.89,-25.469 -25.74,-31.058 -5.9,-6.75 -19.84,-21.321 -33.71,-37.258 -2.3,-2.66 -3.28,-5.203 -1.56,-6.684 1.17,-1.058 2.97,-0.469 5.27,2.192 3.17,3.628 8.24,8.511 11.68,11.48 7.27,6.371 13.83,3.199 21.25,-1.949 11.41,-7.821 30.47,-24.422 52.7,-43.75 l 98.98,-86.102 -27.19,-29.801 c -19.18,-21.058 -31.64,-21.718 -38.32,-16.718 z m 144.07,1372.62 c -8.32,-5.98 -15.9,-10.74 -57.07,-36.68 l -47.7,-29.96 c -24.92,-15.67 -46.33,-29.14 -58.55,-34.93 -8.56,-3.86 -15.36,-6.28 -19.85,-1.52 -2.07,2.07 -4.65,5 -7.19,9.06 -2.07,3.25 -3.55,3.83 -4.92,2.97 -1.87,-1.21 -1.48,-3.59 0.71,-7.11 6.83,-10.86 18.36,-27.38 22.26,-33.63 4.45,-7.03 14.38,-24.61 25.63,-42.5 1.87,-2.97 4.06,-4.65 5.93,-3.44 1.33,0.86 1.33,2.74 -0.54,5.71 -2.58,4.06 -5.78,10.35 -7.62,14.49 -4.02,8.79 0.9,14.18 7.97,19.76 10.82,8.68 32.23,22.15 57.15,37.82 l 108.32,68.16 c 3.01,1.88 5.11,2.07 6.52,1.06 2.34,-1.92 5.16,-5.83 7.74,-9.89 3.9,-6.25 9.25,-18.36 6.44,-33.75 -3.98,-23.67 -21.64,-35.9 -30.55,-41.52 -27.65,-17.34 -58,-6.99 -67.54,8.2 -3.59,5.71 -5.58,7.07 -7.77,5.71 -1.87,-1.22 -0.94,-3.29 -0.39,-4.81 0.59,-1.52 2.46,-4.49 3.32,-5.86 24.18,-38.44 69.02,-49.57 107.46,-25.39 14.38,9.02 21.8,24.3 23.71,33.83 1.33,6.87 5.04,26.25 -16.25,60.08 -7.81,12.46 -18.51,27.65 -25.5,38.79 -4.77,7.57 -14.69,25.15 -23.72,39.49 -2.57,4.06 -4.29,5.62 -6.17,4.41 -1.91,-1.17 -1.44,-3.12 0.43,-6.13 2.38,-3.75 5,-8.56 5.82,-11.06 3.75,-10.15 0.78,-15.03 -8.08,-21.36 z m 373.55,-192.85 16.17,6.09 -23.47,62.46 54.29,19.88 22.23,-59.06 16.17,6.06 -22.3,59.33 52.97,19.38 22.89,-60.86 16.17,6.09 -30.08,79.96 -155.94,-57.11 30.9,-82.22 z m -92.97,212.46 118.79,58.71 0.24,-0.43 -80.36,-142.54 14.07,-13.05 146.01,71.84 -9.37,18.63 -117.7,-58.12 -0.23,0.43 78.98,142.61 -14.41,12.11 -145.39,-71.52 9.37,-18.67 z m -64.96,98.86 c 18.05,-26.95 47.62,-48.16 92.27,-19.1 l 86.33,56.99 -11.49,17.15 -85.35,-56.33 c -31.29,-20.97 -53.2,-10.23 -66.56,9.69 -16.45,24.53 -13.91,45.31 11.4,62.27 12.78,8.55 26.06,17.19 39.14,25.66 l 51.14,33.67 -11.49,17.15 -48.12,-31.68 c -14.3,-9.26 -26.8,-17.34 -37.97,-24.84 -42.07,-28.2 -39.18,-60.94 -19.3,-90.63 z m -708.05,527.07 47.89,159.07 -19.84,5.78 -47.89,-159.06 19.84,-5.79 z m 259.03,40.82 0.39,-0.19 16.87,-162.77 19.03,-2.5 77.57,143.04 -18.43,9.77 -62.42,-115.47 -0.39,0.19 -18.05,162.08 -18.75,1.52 -77.27,-142.42 18.44,-9.77 63.01,116.52 z m 777.07,-1038.75 c -57.46,-8.47 -29.73,-78.39 -71.49,-84.53 -18.28,-2.69 -31.87,8.87 -34.72,28.13 -1.92,13.05 1.87,26.95 6.99,36.68 l -16.06,6.83 c -6.52,-15.27 -9.1,-28.98 -6.44,-47.03 5.31,-36.09 30.66,-49.8 55.12,-46.21 51.48,7.62 32.3,80.2 68.39,85.55 19.97,2.93 31.14,-11.95 33.21,-26.17 2.3,-15.43 -1.95,-26.02 -6.95,-36.68 l 16.13,-5.67 c 5.86,14.46 8.75,29.46 6.37,45.59 -4.3,29.22 -25.16,47.23 -50.55,43.51 z m -156.64,116.49 128.51,32.19 0.12,-0.43 -108.71,-122.31 11.01,-15.74 157.9,39.3 -5.24,20.23 -127.34,-31.91 -0.12,0.47 107.38,122.65 -11.52,14.88 -157.23,-39.14 5.24,-20.19 z m 49.76,-280.55 165.71,11.29 -1.57,20.55 -165.7,-11.25 1.56,-20.59 z M 1213.79,2816.13 c 3.94,-18.04 -6.68,-32.42 -25.7,-36.56 -12.89,-2.81 -27,0 -37.07,4.45 l -5.75,-16.48 c 15.67,-5.39 29.53,-7.07 47.39,-3.16 35.62,7.77 47.61,33.94 42.34,58.08 -11.09,50.9 -82.23,26.8 -90,62.42 -4.3,19.69 9.77,31.88 23.83,34.93 15.23,3.32 26.09,-0.2 37.07,-4.42 l 4.53,16.45 c -14.81,4.88 -29.96,6.72 -45.9,3.24 -28.83,-6.25 -45.43,-28.32 -39.92,-53.4 12.34,-56.76 80.19,-24.3 89.18,-65.55 z m 497.93,-38.32 17.89,82.58 17.27,79.73 -20.2,4.22 -35.16,-162.35 20.2,-4.18 z m -270.31,20.2 -0.2,71.05 13.2,0.2 c 15.63,0.27 21.06,-9.26 31.33,-22.31 l 40,-52.61 18.05,11.32 -34.06,43.64 c -7.11,8.28 -16.72,23.47 -27.78,25.23 l 0,0.47 c 23.21,3.48 41.45,19.65 40.98,46.76 -0.43,27.58 -22.03,43.32 -53.48,42.81 l -50.15,-0.82 1.25,-166.09 20.86,0.35 z m 23.47,152.07 c 26.88,0.43 37.23,-15 37.5,-32.74 0.39,-24.02 -20.62,-31.79 -41.01,-32.11 l -20.63,-0.35 -0.58,64.81 24.72,0.39 z m -178.24,-108.95 68.2,7.7 29.03,-55.63 19.76,8.99 -83.9,154.26 -19.57,-2.19 -50.75,-170.28 19.73,-3.78 17.5,60.93 z m 24.45,95.51 0.47,0.08 34.46,-71.49 -54.14,-6.13 19.21,77.54 z m 1141.64,-574.88 54.73,45.27 8.56,-10.04 c 10.07,-11.87 6.21,-22.15 2.65,-38.36 l -15.19,-64.33 20.19,-6.72 12.03,54.02 c 1.92,10.74 7.54,27.81 1.84,37.46 l 0.35,0.32 c 17.46,-15.71 41.52,-19.54 62.19,-1.96 21.01,17.89 19.41,44.57 -0.98,68.52 l -32.5,38.2 -127.42,-106.48 13.55,-15.9 z m 116.29,97.34 16.02,-18.83 c 17.42,-20.46 12.07,-38.24 -1.45,-49.76 -18.28,-15.55 -37.65,-4.3 -50.86,11.25 l -13.35,15.74 49.64,41.6 z m -1550.86,316.37 65.24,21.37 39.69,-48.6 17.5,12.82 -113.4,134.06 -18.71,-6.14 -15.199,-176.99 20.119,0.28 4.76,63.2 z m 4.57,98.48 0.47,0.15 48.21,-63.01 -51.8,-16.95 3.12,79.81 z m 569.81,-80.47 20.55,-2.03 8.39,70.58 71.22,81.21 -16.88,12.31 -61.84,-76.88 -42.77,87.19 -19.65,-8.44 49.42,-93.36 -8.44,-70.58 z m 580.27,-197.97 53.32,34.22 56.33,-39.18 -14.88,-60.98 20.78,-6.25 38.75,171.25 -16.17,11.25 -150.47,-94.41 12.34,-15.9 z m 134.73,89.88 0.39,-0.27 -21.29,-76.41 -44.73,31.1 65.63,45.58 z m 145.58,-255.35 c 14.61,15.23 16.76,34.8 4.18,52.19 l 0.32,0.35 c 17.69,-9.3 33.79,-7.11 47.89,7.62 12.81,13.32 18.94,37.73 -7.39,62.96 l -33.24,31.92 -116.05,-118.83 33.59,-32.23 c 23.56,-22.61 50.24,-25.27 70.7,-3.98 z m 16.84,130.19 11.95,-11.48 c 19.22,-18.44 19.69,-32.85 6.88,-46.17 -11.8,-12.31 -27.89,-12.77 -47.46,5.98 l -11.25,10.82 39.88,40.85 z m -50.86,-52.26 14.02,-13.48 c 17.31,-16.64 20.4,-34.22 6.41,-48.79 -15.94,-16.6 -31.95,-13.86 -47.19,0.75 l -17.5,16.79 44.26,44.73 z m -527.85,221.25 43.67,45.9 64.06,-24.69 -0.03,-62.77 21.67,-1.14 -3,175.55 -18.36,7.07 -123.75,-127.42 15.74,-12.5 z m 109.53,119.3 0.47,-0.2 -2.54,-79.26 -50.86,19.61 52.93,59.85 z m -190.86,-80.55 -55.08,87.66 84.38,55.78 -11.52,15.39 -98.09,-66.41 62.27,-102.66 18.04,10.24 z m 50.16,-2530.001 33.08,-127.071 -0.46,-0.117 -123.68,106.207 -14.76,-11.636 40.58,-156.8325 20.2,5.3907 -33.44,128.1988 0.51,0.121 123.24,-107.5386 15.67,11.1289 -40.79,157.5387 -20.15,-5.39 z m 279.53,102.383 -7.93,15.347 -111.72,-57.769 7.93,-15.352 46.72,24.141 67.03,-132.809 18.32,9.449 -67.03,132.852 46.68,24.141 z M 1619.65,188.238 1575.27,44.7695 1515.7,181.172 1494.41,179.73 1475.51,11.9883 1495.59,10 l 13.12,143.281 0.47,0.039 57.54,-135.1208 19.65,1.332 42.07,141.8788 0.47,0.039 30.7,-140.3201 19.88,4.7305 -37.58,163.9106 -22.26,-1.532 z m 336.87,84.301 -3.55,-177.5781 20.04,1.5977 0.62,63.3634 63.67,25.629 42.82,-45.903 16.64,13.942 -121.99,126.332 -18.25,-7.383 z m 17.35,-93.91 -2.11,79.891 0.43,0.152 52.22,-59.692 -50.54,-20.351 z M 1417.54,79.8086 c -2.7,-37.5781 -24.65,-48.25 -48.59,-46.5274 -29.46,2.1485 -44.26,16.918 -42.04,47.3477 1.1,15.3125 2.47,31.0901 3.83,46.6411 l 4.92,60.968 -20.58,1.532 -4.65,-57.43 c -1.48,-16.988 -2.77,-31.789 -3.75,-45.1916 -3.67,-50.5078 23.91,-68.3984 59.57,-70.9765 32.34,-2.3438 67.23,7.8476 71.8,60.9375 l 8.2,103.1206 -20.59,1.489 -8.12,-101.9104 z M 819.691,361.801 c -25.429,14.961 -52.543,10.039 -65.589,-12.11 -29.454,-50.043 42.418,-72.269 20.976,-108.671 -9.34,-15.942 -26.918,-19.258 -43.668,-9.379 -11.371,6.679 -19.808,18.32 -24.18,28.437 l -15.429,-8.199 c 7.847,-14.649 16.91,-25.277 32.609,-34.5 31.449,-18.508 58.012,-7.418 70.551,13.871 26.449,44.879 -42.152,75.512 -23.672,106.949 10.231,17.391 28.789,16.762 41.211,9.461 13.441,-7.93 19.02,-17.851 24.18,-28.441 l 14.492,9.019 c -7.543,13.641 -17.383,25.282 -31.481,33.563 z m 167.071,-85.672 -46.563,18.711 -63.32,-153.512 19.371,-7.808 27.422,65.539 12.226,-4.918 c 14.493,-5.821 15.782,-16.68 20.231,-32.692 l 16.41,-64.0271 21.012,3.4371 -14.449,53.403 c -3.321,10.386 -6.293,28.117 -15.782,34.019 l 0.16,0.469 c 22.77,-5.82 45.82,1.988 55.93,27.148 10.32,25.622 -3.51,48.512 -32.648,60.231 z m 11.988,-56.32 c -8.949,-22.27 -31.328,-21.25 -50.23,-13.637 l -19.18,7.699 24.64,59.918 22.93,-9.219 c 24.97,-10.039 28.48,-28.281 21.84,-44.761 z m 230.78,-15.039 -49.3,9.289 -32.3,-162.8871 20.51,-3.9024 14.18,69.6405 12.97,-2.461 c 15.31,-2.89 18.71,-13.32 26.17,-28.1599 l 28.51,-59.6485 19.96,7.461 -24.53,49.6093 c -5.27,9.5274 -11.64,26.3671 -22.11,30.3091 l 0.08,0.468 c 23.48,-1.25 44.57,10.864 49.61,37.5 5.12,27.153 -12.85,46.922 -43.75,52.782 z m 22.7,-52.93 c -4.46,-23.602 -26.61,-26.961 -46.64,-23.168 l -20.28,3.828 12.54,63.59 24.3,-4.61 c 26.4,-5 33.4,-22.179 30.08,-39.64 z m -166.57,70.738 62.39,-18.277 4.88,16.597 -81.99,23.981 -48.09,-158.9806 84.34,-24.6875 4.84,16.5977 -64.02,18.75 16.72,55.3904 60.54,-17.769 4.89,16.601 -60.82,17.809 16.32,53.988 z m 1300.32,205.192 -0.32,0.39 c 15.75,17.43 19.61,41.449 2.11,62.149 -17.85,21.062 -44.53,19.531 -68.51,-0.778 l -38.32,-32.383 106.21,-127.738 15.94,13.52 -45.2,54.84 10.12,8.519 c 11.91,10.082 22.11,6.172 38.36,2.621 l 64.25,-15.43 6.8,20.231 -53.98,12.148 c -10.74,1.911 -27.82,7.582 -37.46,1.911 z m -22.74,-4.719 -15.74,-13.321 -41.48,49.758 18.86,15.981 c 20.51,17.34 38.28,11.953 49.77,-1.598 15.51,-18.32 4.18,-37.66 -11.41,-50.82 z m 383.79,448.398 -90.43,50.231 -9.88,-18.09 89.37,-49.68 c 33.05,-18.051 33.68,-42.461 22.15,-63.519 -14.14,-25.903 -33.75,-33.243 -60.51,-18.629 -13.47,7.379 -27.26,15.148 -40.82,22.847 l -53.47,29.77 -9.89,-18.09 50.32,-28.051 c 14.8,-8.398 27.77,-15.738 39.57,-22.179 44.41,-24.258 72.15,-6.61 89.29,24.761 15.51,28.442 20.71,64.45 -25.7,90.629 z m -491.41,-434.379 -17.18,-11.441 56.09,-85.508 c 20.9,-31.371 10.12,-53.242 -9.84,-66.562 -24.57,-16.368 -45.35,-13.75 -62.27,11.601 -8.47,12.77 -17.07,26.09 -25.51,39.219 l -33.55,51.211 -17.19,-11.449 31.56,-48.2 c 9.22,-14.339 17.31,-26.839 24.73,-38.011 28.09,-42.149 60.82,-39.371 90.59,-19.532 26.99,17.973 48.28,47.422 19.33,92.192 l -56.76,86.48 z M 2887.81,1245 c 3.91,22.7 -11.17,44.02 -33.86,47.93 -22.74,3.91 -44.07,-11.17 -47.97,-33.87 -3.91,-22.73 11.17,-44.06 33.86,-47.97 22.74,-3.9 44.07,11.18 47.97,33.91 z m 22.27,301.09 c -58.09,-0.93 -39.61,-73.86 -81.84,-74.53 -18.47,-0.31 -30.43,12.93 -30.78,32.39 -0.19,13.2 5.35,26.48 11.68,35.46 l -15.04,8.87 c -8.4,-14.3 -12.73,-27.58 -12.46,-45.82 0.63,-36.44 23.95,-53.36 48.63,-52.97 52.07,0.86 42.46,75.35 78.95,75.94 20.16,0.31 29.3,-15.86 29.53,-30.23 0.27,-15.63 -5.35,-25.55 -11.64,-35.47 l 15.23,-7.7 c 7.7,13.56 12.5,28.05 12.27,44.38 -0.51,29.49 -18.87,50.07 -44.53,49.68 z m -189.42,-463.67 112.43,-99.568 -148.83,1.988 -7.46,-20 145,-86.399 10.11,17.5 -125.15,71.008 0.19,0.473 146.84,-3.32 6.87,18.437 -111.95,96.841 0.2,0.46 140.47,-29.88 3.9,20.04 -164.8,33.32 -7.82,-20.9 z m -160.7,-325.35 137.38,-93.32 11.45,17.191 -137.38,93.321 -11.45,-17.192 z M 696.602,439.059 543.789,348.48 l 11.949,-16.21 54.184,32.89 55.348,-40.629 -16.481,-60.551 20.621,-6.789 43.051,170.231 -15.859,11.637 z m -26.723,-96.481 -43.938,32.231 66.758,43.902 0.391,-0.313 -23.211,-75.82 z m 1750.161,241.563 70.74,-162.969 17.58,9.808 -25.82,57.891 47.23,49.801 58,-23.902 9.34,19.609 -163.52,64.019 -13.55,-14.257 z m 20.04,-6.09 72.34,-32.539 -37.5,-39.532 -35.15,71.719 0.31,0.352 z m 177.85,6.597 -116.88,92.114 -12.61,-16.332 130.58,-102.66 55.86,72.351 -13.67,10.578 -43.28,-56.051 z M 701.52,2597.81 c 10.902,-14.92 7,-32.34 -8.711,-43.83 -10.661,-7.77 -24.719,-10.93 -35.7,-10.93 l 1.411,-17.39 c 16.519,1.37 29.878,5.47 44.601,16.25 29.457,21.53 29.809,50.32 15.238,70.28 -30.738,42.07 -86.058,-8.79 -107.578,20.66 -11.91,16.29 -3.98,33.09 7.66,41.56 12.579,9.22 23.938,10.4 35.7,10.98 l -2.539,16.88 c -15.512,-1.57 -30.122,-5.98 -43.282,-15.63 -23.832,-17.38 -30.082,-44.26 -14.922,-65 34.301,-46.87 83.161,10.27 108.122,-23.83 z m -387.891,-504.92 -61.719,35.2 6.371,11.56 c 7.539,13.63 18.52,13.63 34.918,16.05 l 65.59,8.52 -0.859,21.29 -54.809,-7.85 c -10.699,-2.03 -28.672,-2.82 -35.699,-11.57 l -0.391,0.24 c 8.52,21.91 3.559,45.74 -20.191,58.83 -24.141,13.36 -48.559,2.42 -63.75,-25.08 l -24.219,-43.95 144.68,-81.48 10.078,18.24 z m -75.699,42.62 -56.481,31.76 11.949,21.64 c 12.973,23.51 31.481,24.8 47.032,16.21 21.019,-11.56 17.34,-33.67 7.461,-51.53 l -9.961,-18.08 z m -36.989,-348.52 -161.7222,37.78 -4.5274,-20.12 161.7186,-37.81 4.531,20.15 z m 65.508,475.78 c 47.891,-32.85 75.031,37.27 109.879,13.36 15.231,-10.47 17.301,-28.16 6.332,-44.22 -7.461,-10.85 -19.691,-18.51 -30.039,-22.14 l 7.07,-15.94 c 15.149,6.76 26.36,15.08 36.719,30.12 20.621,30.07 11.399,57.38 -8.988,71.36 -42.934,29.46 -78.242,-36.83 -108.32,-16.21 -16.641,11.41 -14.692,29.88 -6.563,41.8 8.832,12.85 19.141,17.69 30.082,22.15 l -8.012,15.08 c -14.14,-6.61 -26.449,-15.63 -35.66,-29.07 -16.719,-24.33 -13.679,-51.75 7.5,-66.29 z M 50.1602,1857.7 l 173.3598,13.67 5.781,18.28 -135.1213,115.98 -11.25,-16.57 120.2693,-100.74 -154.7576,-8.94 1.7188,-21.68 z m 242.2188,193.63 -15.859,6.8 -26.399,-61.25 -52.93,23.32 25,57.96 -15.902,6.84 -25.078,-58.16 -51.602,22.77 25.743,59.73 -15.864,6.83 -33.828,-78.47 151.961,-67.07 34.758,80.7 z M 642.77,457.109 654.262,470 560.27,553.59 548.789,540.66 588.09,505.738 488.121,395.512 l 15.43,-13.711 99.969,110.23 39.25,-34.922 z m -82.731,1964.611 -21.129,59.73 51.051,45.89 55.937,-28.47 10.821,18.83 -157.848,76.87 -14.652,-13.16 57.543,-168.09 18.277,8.4 z m -56.68,151.68 0.352,0.35 69.488,-38.2 -40.5,-36.45 -29.34,74.3 z m -106.168,-103.44 108.399,-101.91 13.98,15.15 -108.398,101.96 35.629,38.63 -12.699,11.72 -85.274,-92.46 12.692,-11.72 35.671,38.63 z m 58.899,-159.84 -129.18,104.37 -12.808,-16.17 129.179,-104.37 12.809,16.17 z m 372.539,316.48 -42.027,137.66 0.429,0.19 104.34,-103.36 17.688,8.64 -14.68,147.3 0.422,0.2 81.449,-118.32 16.641,11.91 -96.762,137.5 -20.039,-9.76 13.172,-149.65 -106.723,103.79 -19.18,-9.38 45.903,-162.46 19.367,5.74 z M 234.84,719.961 c -19.801,32.891 -7.731,72.379 25.16,92.187 32.891,19.801 73.441,12.032 93.281,-20.859 8.399,-13.98 12.66,-27.109 11.449,-43.238 l 18.43,1.008 c -1.012,18.441 -4.801,34.07 -15.109,51.14 -25.352,42.141 -75.86,57.11 -119.461,30.86 -46.442,-27.969 -53.942,-77.899 -28.551,-120.039 9.063,-15 24.41,-27.04 39.652,-35.508 l 8.321,14.527 c -13.211,7.461 -25.59,17.383 -33.172,29.922 z m 249.422,-85.699 -12.703,16.289 -81.09,-62.231 c -29.731,-23.16 -52.379,-14.019 -67.11,4.918 -18.16,23.282 -17.07,44.184 6.95,62.934 12.113,9.418 24.769,18.949 37.23,28.359 l 48.59,37.231 -12.688,16.289 -45.742,-35.039 C 344.102,692.73 332.23,683.789 321.602,675.551 281.68,644.41 286.879,611.949 308.828,583.75 c 19.922,-25.551 50.863,-44.648 93.363,-12.461 l 82.071,62.973 z M 521.91,594.77 507.578,609.648 386.988,495.43 450.43,429.57 462.891,441.559 413.75,492.539 521.91,594.77 z M 4.37891,1639.41 9.44922,1621.33 169.84,1598.48 l 2.781,20.7 -131.2108,18.44 0.0703,0.47 146.6795,72.46 -4.25,18.75 -161.1405,22.93 -2.7304,-20.71 129.9999,-18.32 -0.078,-0.47 L 4.37891,1639.41 z M 281.41,956.129 103.828,951.84 l 2.461,-19.961 63.359,2.18 28.403,-62.5 -43.992,-44.758 14.691,-16.02 120.82,127.418 -8.16,17.93 z m -70.512,-71.09 -22.539,49.609 79.692,5.661 0.187,-0.469 -57.34,-54.801 z m -42.66,104.57 16.332,5.621 -21.558,62.86 53.468,17.85 22.149,-64.46 16.332,5.59 -28.832,84.02 -157.5392,-52.53 6.7618,-19.77 71.3674,23.48 21.519,-62.661 z m 2.192,510.041 c 0.55,32.38 -11.602,66.68 -64.879,68.24 L 2.14844,1570.31 1.80078,1549.65 104.02,1547.27 c 37.66,-0.59 49.57,-21.92 49.179,-45.9 -0.469,-29.53 -14.41,-45.16 -44.879,-44.65 -15.3903,0.23 -31.2106,0.74 -46.8005,1.25 L 0.351562,1459.45 0,1438.79 l 57.5781,-1.41 c 17.0313,-0.5 31.9102,-1.01 45.3519,-1.21 50.621,-0.82 66.949,27.7 67.5,63.48 z m -58.129,-288.56 c 22.738,3.91 37.82,25.24 33.91,47.97 -3.91,22.7 -25.27,37.78 -47.9727,33.87 -22.6875,-3.91 -37.7695,-25.23 -33.8594,-47.97 3.9023,-22.69 25.2305,-37.77 47.9221,-33.87"
           inkscape:connector-curvature="0" /></g></g></g></svg>