<?xml version="1.0" encoding="UTF-8" standalone="no"?>
<!-- Created with Inkscape (http://www.inkscape.org/) -->

<svg
   xmlns:dc="http://purl.org/dc/elements/1.1/"
   xmlns:cc="http://creativecommons.org/ns#"
   xmlns:rdf="http://www.w3.org/1999/02/22-rdf-syntax-ns#"
   xmlns:svg="http://www.w3.org/2000/svg"
   xmlns="http://www.w3.org/2000/svg"
   xmlns:sodipodi="http://sodipodi.sourceforge.net/DTD/sodipodi-0.dtd"
   xmlns:inkscape="http://www.inkscape.org/namespaces/inkscape"
   id="svg2"
   version="1.1"
   inkscape:version="0.48.5 r10040"
   width="369.64999"
   height="487.39999"
   xml:space="preserve"
   sodipodi:docname="fibeamer-mu-ped-light.pdf"><metadata
     id="metadata8"><rdf:RDF><cc:Work
         rdf:about=""><dc:format>image/svg+xml</dc:format><dc:type
           rdf:resource="http://purl.org/dc/dcmitype/StillImage" /><dc:title></dc:title></cc:Work></rdf:RDF></metadata><defs
     id="defs6"><clipPath
       id="clipPath3044"
       clipPathUnits="userSpaceOnUse"><path
         id="path3046"
         d="M 0,3118.1 0,0 l 3118.11,0 0,3118.1 -3118.11,0 z" /></clipPath><clipPath
       id="clipPath3889"
       clipPathUnits="userSpaceOnUse"><path
         id="path3891"
         d="m 0,2909.84 2900,0 0,-2900.00016 -2900,0 L 0,2909.84 z" /></clipPath></defs><sodipodi:namedview
     pagecolor="#ffffff"
     bordercolor="#666666"
     borderopacity="1"
     objecttolerance="10"
     gridtolerance="10"
     guidetolerance="10"
     inkscape:pageopacity="0"
     inkscape:pageshadow="2"
     inkscape:window-width="1280"
     inkscape:window-height="751"
     id="namedview4"
     showgrid="false"
     inkscape:zoom="0.85630196"
     inkscape:cx="263.53324"
     inkscape:cy="240.81221"
     inkscape:window-x="0"
     inkscape:window-y="29"
     inkscape:window-maximized="1"
     inkscape:current-layer="g10"
     fit-margin-top="0"
     fit-margin-left="0"
     fit-margin-right="0"
     fit-margin-bottom="0"
     units="px" /><g
     id="g10"
     inkscape:groupmode="layer"
     inkscape:label="ink_ext_XXXXXX"
     transform="matrix(1.25,0,0,-1.25,-10.030275,432.8007)"><path
       id="path5458"
       style="fill:#f89c22;fill-opacity:1;fill-rule:nonzero;stroke:none"
       d="m 242.37167,215.83565 c -0.17,0.084 -0.373,0.066 -0.524,-0.048 0,0 -83.158,-62.8 -83.712,-63.219 -0.584,0.376 -83.216401,53.692 -83.216401,53.692 -0.1531,0.099 -0.3496,0.107 -0.5093,0.019 -0.1614,-0.088 -0.261,-0.256 -0.261,-0.44 l 0,-113.997401 c 0,-0.1699 0.086,-0.3281 0.2285,-0.4199 l 83.823201,-54.0832 c 0.177,-0.1141 0.405,-0.1055 0.573,0.0207 l 83.677,63.189801 c 0.125,0.095 0.198,0.243 0.198,0.4 l 0,114.438 c 0,0.19 -0.107,0.364 -0.277,0.448 z m -7.723,-111.151 c -0.393,-0.298 -75.961,-57.365801 -76.513,-57.783001 -0.581,0.375 -75.533501,48.7343 -75.986701,49.0273 0,0.5371 0,94.351701 0,96.147701 1.511,-0.976 76.051701,-49.07 76.051701,-49.07 0.177,-0.115 0.405,-0.106 0.573,0.02 0,0 74.306,56.114 75.875,57.3 0,-1.962 0,-95.152 0,-95.642 z m 12.183,120.924 c -21.966,0.669 -42.371,-1.894 -69.53,-39.825 -0.78,0.507 -83.881201,54.438 -83.881201,54.438 -0.1531,0.1 -0.3496,0.108 -0.5105,0.02 -0.1614,-0.087 -0.261,-0.256 -0.261,-0.44 0,0 0,-9.354 0,-10.607 -1.3183,0.891 -8.8879,6.003 -8.8879,6.003 -0.1531,0.104 -0.3504,0.114 -0.5132,0.027 -0.1641,-0.087 -0.2661,-0.257 -0.2661,-0.441 0,0 0,-10.382 0,-12 -1.2964,0.876 -8.0535,5.439 -8.0535,5.439 -0.1531,0.104 -0.3508,0.113 -0.5136,0.027 -0.1641,-0.086 -0.2657,-0.256 -0.2657,-0.442 l 0,-17.573 c 0,-0.166 0.0821,-0.321 0.2199,-0.415 l 7,-4.727 c 0.1532,-0.104 0.3512,-0.115 0.5145,-0.028 0.1633,0.087 0.2656,0.257 0.2656,0.442 0,0 0,6.671 0,8.186 1.2957,-0.876 8.0528,-5.439 8.0528,-5.439 0.1535,-0.104 0.3515,-0.115 0.5144,-0.028 0.1633,0.087 0.2656,0.257 0.2656,0.442 0,0 0,10.381 0,12 1.3188,-0.891 8.8869,-6.003 8.8869,-6.003 0.153001,-0.104 0.351001,-0.113 0.515001,-0.027 0.163,0.086 0.265,0.256 0.265,0.442 0,0 0,9.348 0,10.915 1.515,-0.984 78.34,-50.842 78.34,-50.842 0.228,-0.148 0.53,-0.088 0.684,0.135 11.267,16.302 24.176,29.986 34.531,36.602 7.79,5.662 20.607,9.549 31.191,9.469 3.76,-0.028 4.082,1.575 4.092,2.068 0.022,1.138 -1.194,2.137 -2.655,2.182 z M 23.755669,110.84465 c 2.1707,0.77 4.53,-0.354 5.2996,-2.526 0.7707,-2.172 -0.3543,-4.53 -2.5266,-5.301 -2.1707,-0.77 -4.5301,0.355 -5.2996,2.527 -0.7703,2.171 0.3547,4.531 2.5266,5.3 z m 15.855,-13.644201 4.4602,-8.5234 -1.6582,-0.868 -3.4238,6.5418 -5.4375,-2.786 3.3386,-6.3808 -1.6589,-0.8684 -3.3262,6.3582 -7.2586,-3.6804 -1.0488,2.0039 16.0132,8.2031 z m 8.4106,-14.7129 1.1812,-1.7742 -10.7046,-15.7246 -1.8457,1.457 3.9246,5.5516 -4.1231,6.1883 -6.7363,-1.3329 -0.6121,2.0918 18.916,3.543 z m -1.1262,-1.9687 -0.0281,0.0441 -8.4231,-1.9887 3.2723,-4.9117 5.1789,6.8563 z m 14.0352,-19.0235 c -0.1738,1.7449 -0.8738,3.0653 -2.0352,4.3992 -2.7304,3.1379 -7.2031,3.2102 -10.3418,0.4797 -3.1386,-2.7304 -3.6863,-7.1711 -0.957,-10.3094 1.041,-1.1964 2.5508,-2.0207 4.0976,-2.5707 l -0.6171,-1.7066 c -1.7813,0.6211 -3.6465,1.6172 -4.8926,3.0484 -3.4981,4.0215 -3.6336,9.4856 0.7988,13.343 4.1594,3.6172 9.8262,2.9656 13.325,-1.0558 1.416,-1.6278 2.1164,-3.2247 2.5703,-5.1727 l -1.948,-0.4551 z m 15.3144,-10.0305 -7.4621,-8.3613 c -3.8711,-4.2808 -7.5523,-2.8765 -10.1883,-0.5574 -2.9082,2.5586 -4.1171,5.9082 -0.4921,10.0266 0.9609,1.0933 2.046,2.2859 3.2851,3.655 l 4.1609,4.6504 1.679,-1.4773 -4.4192,-4.9438 c -1.1355,-1.2507 -2.2891,-2.5222 -3.3887,-3.7714 -2.1812,-2.4786 -1.8718,-4.7254 0.5293,-6.8375 1.9516,-1.718 4.5453,-2.2336 7.2414,0.8308 l 7.3758,8.2637 1.6789,-1.4778 z m -7.159,-16.9824 10.3504,14.718 1.8399,-1.2703 -9.2871,-13.177 6.3117,-4.3586 -1.0637,-1.5398 -8.1512,5.6277 z m 17.0235,9.968 11.818,-6.7773 -0.9305,-1.6243 -4.9395,2.8325 -8.1543,-13.9063 -1.9394,1.1121 8.1535,13.9063 -4.9398,2.8332 0.932,1.6238 z m 17.100501,-9.1043 1.95,-0.8613 -0.591,-19.0149 -2.338,0.2395 0.33,6.7898 -6.801101,3.0078 -4.9668,-4.7402 -1.6399,1.4356 14.056801,13.1437 z m 0.107,-2.2648 -0.048,0.0214 -6.038401,-6.1992 5.397401,-2.3867 0.689,8.5645 z m 5.56,-16.5184 c 0.709,-0.957 1.888,-1.9785 3.253,-2.4055 2.01,-0.6277 3.78,0.1543 4.377,2.0645 1.364,4.3679 -6.763,4.9465 -4.886,10.9519 0.829,2.6555 3.569,3.8418 6.622,2.8879 1.688,-0.5273 3.014,-1.5136 4.147,-2.7668 l -1.306,-1.3074 c -0.809,0.9883 -1.64,1.9016 -3.253,2.4055 -1.489,0.4656 -3.464,0.0742 -4.115,-2.0098 -1.179,-3.7726 6.811,-5.3156 5.129,-10.7004 -0.799,-2.5566 -3.33,-4.3808 -7.103,-3.2019 -1.886,0.5898 -3.103,1.4871 -4.289,2.8386 l 1.424,1.2434 z m 23.417,9.5645 5.375,-0.7969 c 3.369,-0.5 5.403,-2.5617 4.9,-5.9574 -0.591,-3.9864 -4.184,-4.8204 -7.116,-4.3856 l -2.546,0.377 -1.193,-7.3399001 -2.212,0.3274 2.792,17.7754001 z m 0.839,-9.0618 2.829,-0.4187 c 1.877,-0.2785 4.013,0.4824 4.395,3.0547 0.283,1.9031 -0.55,3.734 -3.431,4.1621 l -2.674,0.3965 -1.119,-7.1946 z m 16.892,7.0852 2.13,-0.0871 6.425,-17.9051001 -2.265,-0.63672 -2.182,6.4383201 -7.43,0.3039 -2.883,-6.2316701 -2.052,0.73555 8.257,17.3828201 z m 0.931,-2.0676 -0.053,0.002 -3.344,-7.9825 5.897,-0.2414 -2.5,8.2219 z m 10.304,1.9492 9.233,0.6414 0.13,-1.8672 -7.028,-0.4878 0.371,-6.0997 6.847,0.4766 0.13,-1.8683 -6.821,-0.4739 0.382,-6.2547001 7.211,0.502 0.13,-1.86837 -9.493,-0.65899 -1.092,17.9589601 z m 12.369,0.9278 5.313,1.007 c 6.822,1.293 10.369,-2.4809 11.186,-6.7981 1.139,-6.0031 -2.701,-9.9062001 -8.422,-10.9902001 l -4.88,-0.9246 -3.197,17.7059001 z m 5.075,-15.6036001 2.35,0.4454 c 5.032,0.9531001 7.822,3.9699001 6.902,8.8234001 -0.843,4.4453 -4.377,6.4746 -9.103,5.5777 l -2.708,-0.5125 2.559,-14.3340001 z m 17.787,21.0059001 2.023,0.6758 12.366,-14.4551 -1.89,-1.3984 -4.328,5.2429 -7.053,-2.3562 -0.481,-6.8484 -2.179,-0.043 1.542,19.1824 z m 1.604,-1.6016 -0.048,-0.0168 -0.291,-8.65 5.597,1.87 -5.258,6.7968 z m 25.772,3.877 3.558,-7.4641 c -1.442,-1.782 -3.171,-3.0386 -4.664,-3.773 -4.782,-2.3535 -10.1,-1.0879 -12.695,4.1844 -2.433,4.9453 -0.353,10.2578 4.429,12.6113 1.703,0.8379 3.671,1.3144 5.555,1.3144 l 0.011,-1.966 c -1.36,0.1137 -3.084,-0.2129 -4.74,-1.0281 -3.732,-1.8367 -4.945,-6.1426 -3.108,-9.875 1.837,-3.7324 5.989,-5.3984 9.721,-3.5613 1.121,0.5508 2.196,1.4277 2.91,2.2722 l -2.984,6.2981 2.007,0.9871 z m 3.51,1.6145 c -3.148,4.525 -1.887,10.0898 2.489,13.1328 4.376,3.0425 9.824,2.5879 13.179,-2.2368 3.146,-4.5253 1.886,-10.0894 -2.49,-13.1328 -4.376,-3.0425 -9.824,-2.5879 -13.178,2.2368 z m 1.964,1.366 c 2.375,-3.416 6.729,-4.4407 10.144,-2.0657 3.416,2.375 3.971,6.8149 1.596,10.2297 -2.375,3.4153 -6.73,4.4407 -10.145,2.0657 -3.416,-2.375 -3.97,-6.8145 -1.595,-10.2297 z m 27.197,22.4238 5.602,-6.0813 c -0.852,-2.1277 -2.132,-3.8386 -3.342,-4.9812 -3.875,-3.6602 -9.329,-4.0195 -13.364,0.2519 -3.785,4.0071 -3.366,9.6961 0.509,13.3567 1.379,1.3035 3.12,2.3387 4.919,2.8941 l 0.591,-1.8738 c -1.333,-0.293 -2.883,-1.1133 -4.225,-2.3809 -3.024,-2.8574 -2.912,-7.3293 -0.055,-10.3535 2.856,-3.0242 7.315,-3.3906 10.34,-0.5332 0.907,0.8567 1.675,2.0117 2.109,3.0293 l -4.71,5.1367 1.626,1.5352 z m -3.489,9.4336 1.473,1.6836 13.439,-11.9629 -1.472,-1.6836 -13.44,11.9629 z m 14.332,13.7969 c -1.661,-0.5606 -2.79,-1.5403 -3.829,-2.9707 -2.446,-3.3653 -1.511,-7.7403 1.854,-10.1856 3.366,-2.4453 7.816,-1.9832 10.261,1.3817 0.932,1.2835 1.396,2.9386 1.585,4.5695 l 1.803,-0.2168 c -0.206,-1.8758 -0.758,-3.9168 -1.874,-5.4531 -3.133,-4.3118 -8.428,-5.6707 -13.181,-2.2168 -4.459,3.2402 -5.096,8.9101 -1.963,13.2215 1.269,1.746 2.668,2.7863 4.464,3.6664 l 0.88,-1.7961 z m 2.161,9.4687 1.021,1.8711 18.899,-2.1719 -0.433,-2.3113 -6.739,0.8953 -3.563,-6.5273 4.31,-5.3449 -1.567,-1.5133 -11.928,15.1023 z m 2.266,-0.082 -0.025,-0.0457 5.675,-6.5344 2.828,5.1809 -8.478,1.3992 z m 14.169,12.186201 c -2.169,0.773 -3.291,3.134 -2.518,5.304 0.772,2.171 3.133,3.292 5.304,2.52 2.171,-0.773 3.292,-3.133 2.519,-5.304 -0.773,-2.171 -3.133,-3.292 -5.305,-2.52 z m -276.4515007,35.032 11.0866997,1.631 c 5.7168,0.803 7.6414,-2.636 8.177,-6.105 0.5894,-3.829 -0.6301,-7.174 -6.052,-8.01 -1.4394,-0.222 -3.0359,-0.442 -4.8652,-0.698 l -6.1746,-0.9 -0.341,2.211 6.5605,0.958 c 1.6738,0.232 3.3738,0.468 5.0188,0.722 3.2632,0.503 4.4668,2.425 3.9793,5.586 -0.3965,2.57 -2.0555,4.629 -6.0899,4.006 l -10.9589997,-1.611 -0.3406,2.21 z m -0.07734,6.383 -0.83204,1.86 14.4445797,10.163 0,0.052 -14.2226997,-0.096 -0.03125,2.262 17.6277497,0.091 0.7558,-1.939 -14.5761,-10.087 8e-4,-0.052 14.3527,0.098 0.0312,-2.262 -17.5507397,-0.09 z m -0.13868,20.36 0.18282,2.228 17.9186997,-1.629 -0.1835,-2.229 -17.9180197,1.63 z m 0.8762197,6.127 -0.4933997,2.304 16.4960997,3.15 -14.3438,9.117 0.9746,1.94 16.1524,-10.543 -0.3594,-2.048 -18.4265,-3.92 z m 3.5664,20.575 2.6265,8.875 1.7949,-0.532 -1.9988,-6.755 5.8438,-1.784 1.9472,6.582 1.7957,-0.532 -1.9402,-6.556 5.9934,-1.828 2.0504,6.93 1.796,-0.531 -2.7011,-9.125 -17.2078,5.256 z m 4.3504,13.797 2.0988,5.012 c 1.314,3.142 3.8152,4.604 6.573,3.45 2.7102,-1.135 3.5196,-3.644 2.8575,-6.101 l 0.0488,-0.02 c 0.6535,1.023 2.5801,1.316 3.7097,1.66 l 5.8086,1.486 0.3411,-2.284 -6.961,-1.681 c -1.741,-0.455 -2.9211,-0.581 -3.573,-2.14 l -0.5532,-1.319 7.0586,-3.068 -0.8726,-2.086 -16.5363,7.091 z m 8.7578,-1.298 0.8632,2.062 c 0.8536,2.039 0.993,4.461 -1.405,5.464 -1.7746,0.743 -3.7551,0.389 -4.8801,-2.298 l -1.0332,-2.47 6.4551,-2.758 z m 11.6035,9.514 c 1.0793,0.502 2.3176,1.452 3.009,2.704 1.0183,1.844 0.6074,3.733 -1.1457,4.702 -4.0047,2.213 -6.2012,-5.634 -11.709,-2.591 -2.4348,1.345 -3.0481,4.268 -1.5008,7.067 0.8543,1.547 2.0867,2.649 3.5418,3.508 l 1.0184,-1.543 c -1.1297,-0.594 -2.1915,-1.224 -3.0086,-2.704 -0.7539,-1.365 -0.7664,-3.378 1.1445,-4.434 3.459,-1.911 6.573,5.607 11.5117,2.878 2.3438,-1.294 3.6231,-4.14 1.7117,-7.599 -0.955,-1.729 -2.0789,-2.743 -3.6402,-3.633 l -0.9328,1.645 z m -6.1531,19.837 1.2246,1.871 14.9675,-9.986 -1.2246,-1.871 -14.9675,9.986 z m 3.2703,5.125 8.3508,10.764 1.4792,-1.147 -3.4902,-4.499 12.6414,-10.004 -1.3711,-1.767 -12.6402,10.004 -3.4902,-4.499 -1.4797,1.148 z m 13.6113,16.392 1.4746,1.54 17.6785,-7.023 -1.0203,-2.119 -6.2726,2.621 -5.1415,-5.371 2.7665,-6.285 -1.9083,-1.052 -7.5769,17.689 z m 2.1672,-0.67 -0.0363,-0.037 3.7746,-7.788 4.0808,4.264 -7.8191,3.561 z m 17.0457,-1.906 c 1.1887,0.077 2.6863,0.513 3.7844,1.429 1.6179,1.348 1.9207,3.259 0.6394,4.796 -2.9305,3.516 -7.823,-3 -11.8515,1.834 -1.7813,2.137 -1.2918,5.084 1.164,7.13 1.3582,1.132 2.9063,1.712 4.5742,1.985 l 0.3899,-1.808 c -1.2688,-0.142 -2.4864,-0.346 -3.7856,-1.428 -1.198,-0.999 -1.9402,-2.87 -0.5418,-4.547 2.5301,-3.037 8.159,2.84 11.7715,-1.494 1.7149,-2.057 1.8738,-5.173 -1.1609,-7.704 -1.5188,-1.264 -2.9328,-1.8 -4.7113,-2.064 l -0.2723,1.871 z m 10.2812,26.88 2.0293,1.112 12.0645,-10.701 -2.1699,16.127 2.1203,1.162 11.158401,-14.401 -1.74,-1.37 -9.406701,12.397 -0.0461,-0.025 2.323,-15.865 -1.8687,-1.025 -11.8078,10.665 -0.0457,-0.025 5.2344,-14.684 -2.0676,-0.719 -5.7774,17.352 z m 26.975601,12.894 2.006,0.719 12.685,-14.176 -1.858,-1.44 -4.443,5.145 -7,-2.513 -0.328,-6.857 -2.177,-0.091 1.115,19.213 z m 1.64,-1.567 -0.05,-0.018 -0.098,-8.654 5.555,1.994 -5.407,6.678 z m 14.401,-9.32 c 1.097,-0.464 2.631,-0.744 4.024,-0.419 2.05,0.482 3.176,2.056 2.719,4.004 -1.045,4.455 -8.338,0.821 -9.775,6.947 -0.636,2.708 1.121,5.123 4.234,5.853 1.721,0.405 3.364,0.23 4.979,-0.273 l -0.462,-1.791 c -1.198,0.441 -2.378,0.804 -4.023,0.418 -1.519,-0.356 -3.021,-1.697 -2.522,-3.823 0.903,-3.848 8.567,-1.115 9.856,-6.608 0.612,-2.606 -0.64,-5.464 -4.488,-6.367 -1.924,-0.451 -3.429,-0.297 -5.136,0.264 l 0.594,1.795 z m 16.358,18.694 2.116,0.249 9.157,-16.675 -2.137,-0.984 -3.166,6.017 -7.386,-0.867 -1.869,-6.607 -2.141,0.403 5.426,18.464 z m 1.243,-1.895 -0.052,-0.007 -2.05,-8.409 5.861,0.689 -3.759,7.727 z m 12.165,3.036 5.433,-0.029 c 3.407,-0.017 5.711,-1.771 5.696,-4.761 -0.015,-2.939 -2.026,-4.644 -4.55,-4.969 l 0,-0.052 c 1.195,-0.214 2.2,-1.884 2.949,-2.797 l 3.589,-4.803 -1.982,-1.186 -4.207,5.794 c -1.086,1.437 -1.652,2.48 -3.342,2.488 l -1.43,0.007 -0.144,-7.696 -2.262,0.013 0.25,17.991 z m 2.139,-8.591 2.236,-0.012 c 2.21,-0.011 4.503,0.782 4.515,3.382 0.011,1.924 -1.072,3.62 -3.985,3.635 l -2.678,0.014 -0.088,-7.019 z m 17.789,-2.548 -5.14,10.225 2.146,0.869 4.437,-9.538 6.87,8.186 1.801,-1.368 -7.894,-8.64 -1.069,-7.623 -2.22,0.266 1.069,7.623 z m 14.323,8.281 2.174,-0.527 -2.161,-8.572 -2.233,-8.875 -2.173,0.527 4.393,17.447 z m 0.013,-9.099 10.862,6.835 1.192,-1.707 -9.338,-5.734 5.649,-9.691 -1.992,-1.041 -6.373,11.338 z m 16.664,4.578 2.118,-0.715 -5.892,-17 -2.119,0.714 5.893,17.001 z m 12.801,-4.89 1.949,-0.864 -0.612,-19.014 -2.339,0.241 0.339,6.79 -6.798,3.016 -4.972,-4.734 -1.638,1.437 14.071,13.128 z m 0.106,-2.265 -0.048,0.021 -6.046,-6.193 5.394,-2.392 0.7,8.564 z m 12.02,-4.022 2.017,-0.296 0.819,-17.643 0.044,-0.027 7.554,12.051 1.926,-1.188 -9.387,-14.922 -2.042,0.404 -0.684,17.712 -0.045,0.027 -7.622,-12.161 -1.926,1.188 9.346,14.855 z m 21.698,-14.29 1.648,-1.352 -5.651,-18.164 -2.19,0.855 2.134,6.455 -5.75,4.716 -6.054,-3.241 -1.195,1.823 17.058,8.908 z m -0.503,-2.211 -0.04,0.033 -7.476,-4.359 4.563,-3.743 2.953,8.069 z m 16.107,-12.306 3.264,-3.776 c 2.585,-2.99 1.68,-5.56 0.167,-6.869 -1.672,-1.446 -3.429,-1.521 -5.242,-0.338 l -0.039,-0.034 c 1.182,-2.003 0.753,-4.092 -0.977,-5.588 -2.419,-2.092 -5.273,-1.536 -7.585,1.139 l -3.3,3.816 13.712,11.65 z m -10.934,-12.239 1.717,-1.986 c 1.497,-1.731 3.197,-2.186 5.085,-0.553 1.651,1.428 1.497,3.357 -0.204,5.323 l -1.377,1.593 -5.221,-4.377 z m 6.519,5.5 1.105,-1.278 c 1.922,-2.223 3.665,-2.331 5.062,-1.124 1.514,1.31 1.608,2.87 -0.279,5.052 l -1.173,1.358 -4.715,-4.008 z m 14.628,-5.543 3.069,-4.484 c 1.924,-2.811 1.793,-5.704 -0.675,-7.393 -2.424,-1.659 -4.97,-0.976 -6.674,0.913 l -0.042,-0.029 c 0.503,-1.105 -0.297,-2.881 -0.623,-4.017 l -1.906,-5.684 -2.103,0.955 2.37,6.757 c 0.562,1.709 1.097,2.768 0.144,4.163 l -0.808,1.18 -6.41,-4.261 -1.278,1.866 14.936,10.034 z m -5.847,-6.648 1.263,-1.845 c 1.248,-1.825 3.206,-3.257 5.351,-1.788 1.587,1.087 2.366,2.942 0.721,5.345 l -1.512,2.209 -5.823,-3.921 z m 22.001,-20.778 -10.023,-5.013 c -5.178,-2.549 -8.081,0.116 -9.673,3.244 -1.758,3.453 -1.644,7.011 3.246,9.5 1.297,0.661 2.746,1.369 4.402,2.182 l 5.585,2.785 1.015,-1.993 -5.933,-2.961 c -1.517,-0.744 -3.058,-1.498 -4.542,-2.254 -2.942,-1.498 -3.485,-3.699 -2.034,-6.548 1.179,-2.318 3.398,-3.755 7.036,-1.904 l 9.906,4.954 1.015,-1.992 z m 2.076,-6.061 1.369,-1.51 -10.574,-14.146 0.017,-0.05 13.489,4.509 0.732,-2.14 -16.728,-5.563 -1.32,1.61 10.722,14.114 -0.016,0.049 -13.613,-4.55 -0.732,2.139 16.654,5.538 z m 6.492,-19.288 1.934,-9.052 -1.831,-0.391 -1.472,6.891 -5.985,-1.226 1.433,-6.711 -1.831,-0.392 -1.428,6.687 -6.139,-1.258 1.51,-7.068 -1.83,-0.391 -1.988,9.306 17.627,3.605 z m 2.412,-14.371 0.973,-1.791 -13.613,-11.25 0.004,-0.052 14.173,1.197 0.206,-2.253 -17.569,-1.456 -0.903,1.875 13.751,11.185 -0.005,0.052 -14.3,-1.209 -0.208,2.252 17.491,1.45 z m -13.539,-19.603 c -0.725,-0.944 -1.384,-2.358 -1.42,-3.788 -0.052,-2.106 1.185,-3.593 3.186,-3.643 4.574,-0.114 2.902,7.861 9.192,7.703 2.78,-0.069 4.673,-2.379 4.593,-5.576 -0.044,-1.767 -0.629,-3.313 -1.522,-4.748 l -1.616,0.899 c 0.728,1.049 1.378,2.098 1.421,3.788 0.039,1.559 -0.879,3.35 -3.063,3.405 -3.95,0.099 -3.242,-8.008 -8.883,-7.866 -2.677,0.066 -5.126,2 -5.027,5.951 0.05,1.976 0.579,3.392 1.553,4.903 l 1.586,-1.028 z m 14.621,-14.742 -0.221,-2.226 -17.889,1.935 0.221,2.225 17.889,-1.934 z m -15.926,-4.995 c -0.859,-0.826 -1.72,-2.126 -1.968,-3.535 -0.364,-2.074 0.639,-3.729 2.611,-4.075 4.506,-0.793 4.035,7.342 10.232,6.253 2.74,-0.481 4.27,-3.046 3.716,-6.197 -0.306,-1.741 -1.114,-3.183 -2.211,-4.469 l -1.465,1.129 c 0.876,0.929 1.675,1.87 1.967,3.535 0.27,1.536 -0.371,3.445 -2.522,3.823 -3.892,0.683 -4.395,-7.438 -9.953,-6.462 -2.637,0.465 -4.771,2.74 -4.088,6.632 0.343,1.947 1.076,3.269 2.264,4.618 l 1.417,-1.252"
       inkscape:connector-curvature="0" /><path
       id="path3003"
       style="fill:#f89c22;fill-opacity:0.47058824;fill-rule:nonzero;stroke:none"
       d="m 293.1901,68.779563 c -0.71004,-1.139801 -1.43834,-2.278686 -2.17465,-3.398706 0.27669,-0.665541 0.42874,-1.403342 0.42874,-2.175099 0,-3.054902 -2.38957,-5.458098 -5.37255,-5.458098 -0.1212,0 -0.2504,0.01829 -0.37045,0.02722 -0.80035,-1.076801 -1.60411,-2.170983 -2.43075,-3.229948 0.88494,-0.290295 1.82706,-0.454594 2.8012,-0.454594 4.98383,0 9.0347,4.108837 9.0347,9.115428 0,2.090148 -0.73289,4.023658 -1.91624,5.573805 z"
       inkscape:connector-curvature="0" /><path
       id="path3005"
       style="fill:#f89c22;fill-opacity:0.47058824;fill-rule:nonzero;stroke:none"
       d="m 17.929786,68.493726 c -1.066525,-1.501097 -1.687326,-3.323245 -1.687326,-5.287968 0,-5.006591 4.077178,-9.115428 9.061897,-9.115428 0.853038,0 1.673926,0.142918 2.455916,0.370214 -0.839158,1.075888 -1.670312,2.188362 -2.483162,3.287116 -2.970454,0.01383 -5.377285,2.411314 -5.377285,5.458098 0,0.62884 0.09826,1.240757 0.285836,1.799853 -0.763721,1.155921 -1.52297,2.3131 -2.255876,3.488115 z"
       inkscape:connector-curvature="0" /><path
       id="path3007"
       style="fill:#f89c22;fill-opacity:0.47058824;fill-rule:nonzero;stroke:none"
       d="m 16.228615,39.575115 0,-18.079478 18.258182,0 0,18.079478 -18.258182,0 z m 3.644856,-3.644753 10.932786,0 0,-10.754184 -10.932786,0 0,10.754184 z"
       inkscape:connector-curvature="0" /><path
       id="path3009"
       style="fill:#f89c22;fill-opacity:0.47058824;fill-rule:nonzero;stroke:none"
       d="m 49.001555,32.049622 c -0.09387,-0.523424 -0.173788,-1.049591 -0.173788,-1.59931 0,-5.011051 4.077165,-9.119544 9.061918,-9.119544 1.31256,0 2.559148,0.28938 3.688658,0.799426 -1.312673,0.932969 -2.608311,1.888805 -3.889657,2.858361 -2.371525,0.08941 -4.341622,1.687348 -4.971261,3.916869 -1.255507,1.031754 -2.497066,2.081231 -3.71587,3.144198 z"
       inkscape:connector-curvature="0" /><path
       id="path3011"
       style="fill:#f89c22;fill-opacity:0.47058824;fill-rule:nonzero;stroke:none"
       d="m 262.31979,32.392625 c -1.17879,-1.031182 -2.36672,-2.05802 -3.57295,-3.058447 -0.49963,-2.505981 -2.65256,-4.345623 -5.26054,-4.345623 -0.0765,0 -0.15206,0 -0.22867,0 -1.22794,-0.929425 -2.46047,-1.849017 -3.71586,-2.743112 1.19708,-0.588594 2.53252,-0.914675 3.94453,-0.914675 4.98385,0 9.03471,4.108493 9.03471,9.119544 0,0.665426 -0.0675,1.313473 -0.20123,1.942313 z"
       inkscape:connector-curvature="0" /><path
       id="path3013"
       style="fill:#f89c22;fill-opacity:0.47058824;fill-rule:nonzero;stroke:none"
       d="m 276.98203,39.575115 0,-18.079478 18.25807,0 0,18.079478 -18.25807,0 z m 3.64498,-3.644753 10.93266,0 0,-10.754184 -10.93266,0 0,10.754184 z"
       inkscape:connector-curvature="0" /><path
       id="path3015"
       style="fill:#f89c22;fill-opacity:0.47058824;fill-rule:nonzero;stroke:none"
       d="m 48.778602,7.1685026 0,-18.0800486 18.25784,0 0,18.0800486 -18.25784,0 z m 3.680197,-3.6453246 10.932775,0 0,-10.75407 -10.932775,0 0,10.75407 z"
       inkscape:connector-curvature="0" /><path
       id="path3017"
       style="fill:#f89c22;fill-opacity:0.47058824;fill-rule:nonzero;stroke:none"
       d="m 88.044486,6.8102933 c -3.809629,-1.0848052 -6.631403,-4.613167 -6.631403,-8.7751691 0,-5.0065912 4.077167,-9.1154282 9.061921,-9.1154282 4.98384,0 9.030136,4.108837 9.030136,9.1154282 0,1.6248063 -0.4515,3.1571168 -1.196846,4.4876268 -3.4792,1.3139312 -6.90478,2.7520299 -10.263808,4.2875423 z M 90.475004,3.523178 c 2.97853,0 5.37281,-2.4340664 5.37281,-5.4880538 0,-3.0549026 -2.39429,-5.4580982 -5.37281,-5.4580982 -2.983906,0 -5.404591,2.4031956 -5.404591,5.4580982 0,3.0539874 2.420685,5.4880538 5.404591,5.4880538 z"
       inkscape:connector-curvature="0" /><path
       id="path3019"
       style="fill:#f89c22;fill-opacity:0.47058824;fill-rule:nonzero;stroke:none"
       d="m 113.91357,-2.4517119 0,-8.4598341 18.26618,0 0,4.7439647 c -1.22795,0.1782477 -2.44334,0.3703287 -3.66224,0.5716718 l 0,-1.6256065 -10.91529,0 0,3.8274591 c -1.23275,0.2938399 -2.46984,0.6199221 -3.68865,0.942345 z"
       inkscape:connector-curvature="0" /><path
       id="path3021"
       style="fill:#f89c22;fill-opacity:0.47058824;fill-rule:nonzero;stroke:none"
       d="m 162.81795,-7.650271 c -2.42961,-0.112161 -4.88551,-0.201457 -7.34256,-0.201457 -2.27755,0 -4.52421,0.07546 -6.77546,0.17013 1.66128,-2.072769 4.22123,-3.398706 7.0613,-3.398706 2.84921,0 5.40459,1.335312 7.05672,3.430033 z"
       inkscape:connector-curvature="0" /><path
       id="path3023"
       style="fill:#f89c22;fill-opacity:0.47058824;fill-rule:nonzero;stroke:none"
       d="m 197.35039,-2.3623028 c -1.21881,-0.3260811 -2.42961,-0.6485051 -3.66215,-0.9469174 l 0,-3.9122958 -10.9155,0 0,1.6836885 c -1.22337,-0.205459 -2.4559,-0.3929677 -3.68843,-0.5716718 l 0,-4.8020467 18.26608,0 0,8.5492432 z"
       inkscape:connector-curvature="0" /><path
       id="path3025"
       style="fill:#f89c22;fill-opacity:0.47058824;fill-rule:nonzero;stroke:none"
       d="M 223.01733,6.8688317 C 219.72106,5.3552724 216.38936,3.9305506 212.98218,2.63983 c -0.79462,-1.3630956 -1.28626,-2.9307351 -1.28626,-4.6047058 0,-5.0065912 4.07718,-9.1154282 9.06216,-9.1154282 4.98384,0 9.03471,4.108837 9.03471,9.1154282 0,4.2250009 -2.88008,7.8113295 -6.77546,8.8337075 z M 220.75808,3.523178 c 2.98298,0 5.37257,-2.4340664 5.37257,-5.4880538 0,-3.0549026 -2.38959,-5.4580982 -5.37257,-5.4580982 -2.97956,0 -5.40001,2.4031956 -5.40001,5.4580982 0,3.0539874 2.42045,5.4880538 5.40001,5.4880538 z"
       inkscape:connector-curvature="0" /><path
       id="path3027"
       style="fill:#f89c22;fill-opacity:0.47058824;fill-rule:nonzero;stroke:none"
       d="m 244.21836,7.1685026 0,-18.0800486 18.25806,0 0,18.0800486 -18.25806,0 z m 3.68042,-3.6453246 10.93381,0 0,-10.75407 -10.93381,0 0,10.75407 z"
       inkscape:connector-curvature="0" /><path
       id="path3029"
       style="fill:#f89c22;fill-opacity:0.47058824;fill-rule:nonzero;stroke:none"
       d="m 286.06247,7.1774212 c -4.98383,0 -9.06215,-4.1401653 -9.06215,-9.1467563 0,-5.0065909 4.07832,-9.1203439 9.06215,-9.1203439 4.97928,0 9.03015,4.113753 9.03015,9.1203439 0,5.006591 -4.05087,9.1467563 -9.03015,9.1467563 z m 0,-3.6587025 c 2.97843,0 5.37258,-2.4340664 5.37258,-5.4880538 0,-3.0549015 -2.39416,-5.4580969 -5.37258,-5.4580969 -2.98298,0 -5.40457,2.4031954 -5.40457,5.4580969 0,3.0539874 2.42159,5.4880538 5.40457,5.4880538 z"
       inkscape:connector-curvature="0" /><path
       id="path3031"
       style="fill:#f89c22;fill-opacity:0.47058824;fill-rule:nonzero;stroke:none"
       d="m 25.299887,7.1774212 c -4.985154,0 -9.06234,-4.1401653 -9.06234,-9.1467563 0,-5.0065909 4.077186,-9.1203439 9.06234,-9.1203439 4.979402,0 9.030158,4.113753 9.030158,9.1203439 0,5.006591 -4.050756,9.1467563 -9.030158,9.1467563 z m 0,-3.6587025 c 2.97855,0 5.37237,-2.4340664 5.37237,-5.4880538 0,-3.0549015 -2.39382,-5.4580969 -5.37237,-5.4580969 -2.984301,0 -5.404533,2.4031954 -5.404533,5.4580969 0,3.0539874 2.420232,5.4880538 5.404533,5.4880538 z"
       inkscape:connector-curvature="0" /><path
       id="path3033"
       style="fill:#f89c22;fill-opacity:0.47058824;fill-rule:nonzero;stroke:none"
       d="m 16.228615,346.2409 0,-18.07857 18.258182,0 0,18.07857 -18.258182,0 z m 3.644856,-3.64384 10.932786,0 0,-10.79088 -10.932786,0 0,10.79088 z"
       inkscape:connector-curvature="0" /><path
       id="path3035"
       style="fill:#f89c22;fill-opacity:0.47058824;fill-rule:nonzero;stroke:none"
       d="m 57.893231,346.2409 c -4.97938,0 -9.056547,-4.14005 -9.056547,-9.14675 0,-5.00671 4.077167,-9.11932 9.056547,-9.11932 4.985209,0 9.035964,4.11261 9.035964,9.11932 0,5.0067 -4.050755,9.14675 -9.035964,9.14675 z m 0,-3.65756 c 2.984357,0 5.378177,-2.43418 5.378177,-5.48919 0,-3.05502 -2.39382,-5.45719 -5.378177,-5.45719 -2.978527,0 -5.398759,2.40217 -5.398759,5.45719 0,3.05501 2.420232,5.48919 5.398759,5.48919 z"
       inkscape:connector-curvature="0" /><path
       id="path3037"
       style="fill:#f89c22;fill-opacity:0.47058824;fill-rule:nonzero;stroke:none"
       d="m 81.36392,346.2409 0,-18.07857 18.25785,0 0,18.07857 -18.25785,0 z m 3.643609,-3.64384 10.934035,0 0,-10.79088 -10.934035,0 0,10.79088 z"
       inkscape:connector-curvature="0" /><path
       id="path3039"
       style="fill:#f89c22;fill-opacity:0.47058824;fill-rule:nonzero;stroke:none"
       d="m 123.18495,346.2409 c -4.98384,0 -9.06192,-4.14005 -9.06192,-9.14675 0,-5.00671 4.07808,-9.11932 9.06192,-9.11932 4.98384,0 9.03024,4.11261 9.03024,9.11932 0,5.0067 -4.0464,9.14675 -9.03024,9.14675 z m 0,-3.65756 c 2.97852,0 5.37279,-2.43418 5.37279,-5.48919 0,-3.05502 -2.39428,-5.45719 -5.37279,-5.45719 -2.98298,0 -5.40459,2.40217 -5.40459,5.45719 0,3.05501 2.42161,5.48919 5.40459,5.48919 z"
       inkscape:connector-curvature="0" /><path
       id="path3041"
       style="fill:#f89c22;fill-opacity:0.47058824;fill-rule:nonzero;stroke:none"
       d="m 146.53443,346.2409 0,-18.07857 18.25808,0 0,18.07857 -18.25808,0 z m 3.64384,-3.64384 10.9338,0 0,-10.79088 -10.9338,0 0,10.79088 z"
       inkscape:connector-curvature="0" /><path
       id="path3043"
       style="fill:#f89c22;fill-opacity:0.47058824;fill-rule:nonzero;stroke:none"
       d="m 188.20363,346.2409 c -4.98384,0 -9.06215,-4.14005 -9.06215,-9.14675 0,-5.00671 4.07831,-9.11932 9.06215,-9.11932 4.98383,0 9.03012,4.11261 9.03012,9.11932 0,5.0067 -4.04629,9.14675 -9.03012,9.14675 z m 0,-3.65756 c 2.97956,0 5.37258,-2.43418 5.37258,-5.48919 0,-3.05502 -2.39302,-5.45719 -5.37258,-5.45719 -2.98298,0 -5.40344,2.40217 -5.40344,5.45719 0,3.05501 2.42046,5.48919 5.40344,5.48919 z"
       inkscape:connector-curvature="0" /><path
       id="path3045"
       style="fill:#f89c22;fill-opacity:0.47058824;fill-rule:nonzero;stroke:none"
       d="m 211.66964,346.2409 0,-18.07857 18.25692,0 0,18.07857 -18.25692,0 z m 3.64382,-3.64384 10.93382,0 0,-10.79088 -10.93382,0 0,10.79088 z"
       inkscape:connector-curvature="0" /><path
       id="path3047"
       style="fill:#f89c22;fill-opacity:0.47058824;fill-rule:nonzero;stroke:none"
       d="m 253.49088,346.2409 c -4.98041,0 -9.05758,-4.14005 -9.05758,-9.14675 0,-5.00671 4.07717,-9.11932 9.05758,-9.11932 4.98383,0 9.0347,4.11261 9.0347,9.11932 0,5.0067 -4.05087,9.14675 -9.0347,9.14675 z m 0,-3.65756 c 2.98298,0 5.37715,-2.43418 5.37715,-5.48919 0,-3.05502 -2.39417,-5.45719 -5.37715,-5.45719 -2.97956,0 -5.40002,2.40217 -5.40002,5.45719 0,3.05501 2.42046,5.48919 5.40002,5.48919 z"
       inkscape:connector-curvature="0" /><path
       id="path3049"
       style="fill:#f89c22;fill-opacity:0.47058824;fill-rule:nonzero;stroke:none"
       d="m 276.98203,346.2409 0,-18.07857 18.25807,0 0,18.07857 -18.25807,0 z m 3.64498,-3.64384 10.93266,0 0,-10.79088 -10.93266,0 0,10.79088 z"
       inkscape:connector-curvature="0" /><path
       id="path3051"
       style="fill:#f89c22;fill-opacity:0.47058824;fill-rule:nonzero;stroke:none"
       d="m 48.778602,313.83509 0,-18.07971 18.25784,0 0,18.07971 -18.25784,0 z m 3.680197,-3.68043 10.932775,0 0,-10.75429 -10.932775,0 0,10.75429 z"
       inkscape:connector-curvature="0" /><path
       id="path3053"
       style="fill:#f89c22;fill-opacity:0.47058824;fill-rule:nonzero;stroke:none"
       d="m 90.475004,313.82594 c -4.984754,0 -9.061921,-4.13547 -9.061921,-9.14675 0,-2.01915 0.656051,-3.88623 1.772185,-5.40002 1.117047,0.55795 2.241983,1.09418 3.372866,1.63041 -0.924967,0.97299 -1.487721,2.29126 -1.487721,3.76961 0,3.05958 2.420685,5.4892 5.404591,5.4892 2.89849,0 5.24235,-2.29584 5.3728,-5.23081 1.15581,0.46077 2.31756,0.88496 3.488126,1.3137 -0.74182,4.27383 -4.413096,7.57466 -8.860926,7.57466 z"
       inkscape:connector-curvature="0" /><path
       id="path3055"
       style="fill:#f89c22;fill-opacity:0.47058824;fill-rule:nonzero;stroke:none"
       d="m 113.91357,313.82594 0,-2.97041 c 4.43846,1.17422 8.96725,2.17464 13.54999,2.97041 l -13.54999,0 z"
       inkscape:connector-curvature="0" /><path
       id="path3057"
       style="fill:#f89c22;fill-opacity:0.47058824;fill-rule:nonzero;stroke:none"
       d="m 183.51362,313.82594 c 4.69,-0.81749 9.29426,-1.84535 13.83675,-3.05502 l 0,3.05502 -13.83675,0 z"
       inkscape:connector-curvature="0" /><path
       id="path3059"
       style="fill:#f89c22;fill-opacity:0.47058824;fill-rule:nonzero;stroke:none"
       d="m 220.75807,313.82594 c -4.47047,0 -8.19549,-3.32713 -8.91923,-7.62839 1.18794,-0.44247 2.345,-0.90668 3.51922,-1.37544 0.072,2.98756 2.46504,5.34628 5.40001,5.34628 2.98298,0 5.37258,-2.42962 5.37258,-5.4892 0,-1.52752 -0.57168,-2.87666 -1.54123,-3.85879 1.12162,-0.52708 2.23296,-1.07246 3.34542,-1.62583 1.15706,1.53207 1.85794,3.42088 1.85794,5.48462 0,5.01128 -4.05087,9.14675 -9.03471,9.14675 z"
       inkscape:connector-curvature="0" /><path
       id="path3061"
       style="fill:#f89c22;fill-opacity:0.47058824;fill-rule:nonzero;stroke:none"
       d="m 244.21836,313.83509 0,-18.07971 18.25806,0 0,18.07971 -18.25806,0 z m 3.68042,-3.68043 10.93381,0 0,-10.75429 -10.93381,0 0,10.75429 z"
       inkscape:connector-curvature="0" /><path
       id="path3063"
       style="fill:#f89c22;fill-opacity:0.47058824;fill-rule:nonzero;stroke:none"
       d="m 286.06247,313.83051 c -4.98383,0 -9.06215,-4.13662 -9.06215,-9.14675 0,-5.0067 4.07832,-9.11588 9.06215,-9.11588 4.97928,0 9.03015,4.10918 9.03015,9.11588 0,5.01013 -4.05087,9.14675 -9.03015,9.14675 z m 0,-3.6587 c 2.97843,0 5.37258,-2.43304 5.37258,-5.48805 0,-3.05501 -2.39416,-5.45833 -5.37258,-5.45833 -2.98298,0 -5.40457,2.40332 -5.40457,5.45833 0,3.05501 2.42159,5.48805 5.40457,5.48805 z"
       inkscape:connector-curvature="0" /><path
       id="path3065"
       style="fill:#f89c22;fill-opacity:0.47058824;fill-rule:nonzero;stroke:none"
       d="m 25.299887,313.83051 c -4.985154,0 -9.06234,-4.13662 -9.06234,-9.14675 0,-5.0067 4.077186,-9.11588 9.06234,-9.11588 4.979402,0 9.030158,4.10918 9.030158,9.11588 0,5.01013 -4.050756,9.14675 -9.030158,9.14675 z m 0,-3.6587 c 2.97855,0 5.37237,-2.43304 5.37237,-5.48805 0,-3.05501 -2.39382,-5.45833 -5.37237,-5.45833 -2.984301,0 -5.404533,2.40332 -5.404533,5.45833 0,3.05501 2.420232,5.48805 5.404533,5.48805 z"
       inkscape:connector-curvature="0" /><path
       id="path3067"
       style="fill:#f89c22;fill-opacity:0.47058824;fill-rule:nonzero;stroke:none"
       d="m 16.228615,281.07026 0,-18.07855 18.258182,0 0,18.07855 -18.258182,0 z m 3.644856,-3.67928 10.932786,0 0,-10.75544 -10.932786,0 0,10.75544 z"
       inkscape:connector-curvature="0" /><path
       id="path3069"
       style="fill:#f89c22;fill-opacity:0.47058824;fill-rule:nonzero;stroke:none"
       d="m 276.98203,281.07026 0,-18.07855 18.25807,0 0,18.07855 -18.25807,0 z m 3.64498,-3.67928 10.93266,0 0,-10.75544 -10.93266,0 0,10.75544 z"
       inkscape:connector-curvature="0" /><path
       id="path3071"
       style="fill:#f89c22;fill-opacity:0.47058824;fill-rule:nonzero;stroke:none"
       d="m 287.24584,248.5707 c 2.66629,-3.71587 5.16334,-7.54836 7.51634,-11.49175 0.21037,0.77289 0.34415,1.59382 0.34415,2.4296 0,4.60882 -3.43918,8.46762 -7.86049,9.06215 z"
       inkscape:connector-curvature="0" /><path
       id="path3073"
       style="fill:#f89c22;fill-opacity:0.47058824;fill-rule:nonzero;stroke:none"
       d="m 23.6742,248.48495 c -4.216975,-0.78091 -7.43174,-4.52421 -7.43174,-8.9764 0,-0.69744 0.07994,-1.37544 0.227329,-2.02829 2.263916,3.76961 4.653324,7.44545 7.204411,11.00469 z"
       inkscape:connector-curvature="0" /><path
       id="path3075"
       style="fill:#f89c22;fill-opacity:0.47058824;fill-rule:nonzero;stroke:none"
       d="m 16.228615,-25.416814 0,-18.080037 18.258182,0 0,18.080037 -18.258182,0 z m 3.644856,-3.645325 10.932786,0 0,-10.78941 -10.932786,0 0,10.78941 z"
       inkscape:connector-curvature="0" /><path
       id="path3077"
       style="fill:#f89c22;fill-opacity:0.47058824;fill-rule:nonzero;stroke:none"
       d="m 57.893231,-25.412355 c -4.97938,0 -9.056547,-4.140165 -9.056547,-9.146756 0,-5.006603 4.077167,-9.120405 9.056547,-9.120405 4.985209,0 9.035964,4.113802 9.035964,9.120405 0,5.006591 -4.050755,9.146756 -9.035964,9.146756 z m 0,-3.658702 c 2.984357,0 5.378177,-2.433151 5.378177,-5.488054 0,-3.054879 -2.39382,-5.458131 -5.378177,-5.458131 -2.978527,0 -5.398759,2.403252 -5.398759,5.458131 0,3.054903 2.420232,5.488054 5.398759,5.488054 z"
       inkscape:connector-curvature="0" /><path
       id="path3079"
       style="fill:#f89c22;fill-opacity:0.47058824;fill-rule:nonzero;stroke:none"
       d="m 81.36392,-25.416814 0,-18.080037 18.25785,0 0,18.080037 -18.25785,0 z m 3.643609,-3.645325 10.934035,0 0,-10.78941 -10.934035,0 0,10.78941 z"
       inkscape:connector-curvature="0" /><path
       id="path3081"
       style="fill:#f89c22;fill-opacity:0.47058824;fill-rule:nonzero;stroke:none"
       d="m 123.18495,-25.412355 c -4.98384,0 -9.06192,-4.140165 -9.06192,-9.146756 0,-5.006603 4.07808,-9.120405 9.06192,-9.120405 4.98384,0 9.03024,4.113802 9.03024,9.120405 0,5.006591 -4.0464,9.146756 -9.03024,9.146756 z m 0,-3.658702 c 2.97852,0 5.37279,-2.433151 5.37279,-5.488054 0,-3.054879 -2.39428,-5.458131 -5.37279,-5.458131 -2.98298,0 -5.40459,2.403252 -5.40459,5.458131 0,3.054903 2.42161,5.488054 5.40459,5.488054 z"
       inkscape:connector-curvature="0" /><path
       id="path3083"
       style="fill:#f89c22;fill-opacity:0.47058824;fill-rule:nonzero;stroke:none"
       d="m 146.53443,-25.416814 0,-18.080037 18.25808,0 0,18.080037 -18.25808,0 z m 3.64384,-3.645325 10.9338,0 0,-10.78941 -10.9338,0 0,10.78941 z"
       inkscape:connector-curvature="0" /><path
       id="path3085"
       style="fill:#f89c22;fill-opacity:0.47058824;fill-rule:nonzero;stroke:none"
       d="m 188.20363,-25.412355 c -4.98384,0 -9.06215,-4.140165 -9.06215,-9.146756 0,-5.006603 4.07831,-9.120405 9.06215,-9.120405 4.98383,0 9.03012,4.113802 9.03012,9.120405 0,5.006591 -4.04629,9.146756 -9.03012,9.146756 z m 0,-3.658702 c 2.97956,0 5.37258,-2.433151 5.37258,-5.488054 0,-3.054879 -2.39302,-5.458131 -5.37258,-5.458131 -2.98298,0 -5.40344,2.403252 -5.40344,5.458131 0,3.054903 2.42046,5.488054 5.40344,5.488054 z"
       inkscape:connector-curvature="0" /><path
       id="path3087"
       style="fill:#f89c22;fill-opacity:0.47058824;fill-rule:nonzero;stroke:none"
       d="m 211.66964,-25.416814 0,-18.080037 18.25692,0 0,18.080037 -18.25692,0 z m 3.64382,-3.645325 10.93382,0 0,-10.78941 -10.93382,0 0,10.78941 z"
       inkscape:connector-curvature="0" /><path
       id="path3089"
       style="fill:#f89c22;fill-opacity:0.47058824;fill-rule:nonzero;stroke:none"
       d="m 253.49088,-25.412355 c -4.98041,0 -9.05758,-4.140165 -9.05758,-9.146756 0,-5.006603 4.07717,-9.120405 9.05758,-9.120405 4.98383,0 9.0347,4.113802 9.0347,9.120405 0,5.006591 -4.05087,9.146756 -9.0347,9.146756 z m 0,-3.658702 c 2.98298,0 5.37715,-2.433151 5.37715,-5.488054 0,-3.054879 -2.39417,-5.458131 -5.37715,-5.458131 -2.97956,0 -5.40002,2.403252 -5.40002,5.458131 0,3.054903 2.42046,5.488054 5.40002,5.488054 z"
       inkscape:connector-curvature="0" /><path
       id="path3091"
       style="fill:#f89c22;fill-opacity:0.47058824;fill-rule:nonzero;stroke:none"
       d="m 276.98203,-25.416814 0,-18.080037 18.25807,0 0,18.080037 -18.25807,0 z m 3.64498,-3.645325 10.93266,0 0,-10.78941 -10.93266,0 0,10.78941 z"
       inkscape:connector-curvature="0" /></g></svg>